%TF.GenerationSoftware,KiCad,Pcbnew,5.1.3-ffb9f22~84~ubuntu18.04.1*%
%TF.CreationDate,2019-07-26T16:35:47+03:00*%
%TF.ProjectId,Des1_2_panel,44657331-5f32-45f7-9061-6e656c2e6b69,rev?*%
%TF.SameCoordinates,Original*%
%TF.FileFunction,Soldermask,Bot*%
%TF.FilePolarity,Negative*%
%FSLAX45Y45*%
G04 Gerber Fmt 4.5, Leading zero omitted, Abs format (unit mm)*
G04 Created by KiCad (PCBNEW 5.1.3-ffb9f22~84~ubuntu18.04.1) date 2019-07-26 16:35:47*
%MOMM*%
%LPD*%
G04 APERTURE LIST*
%ADD10C,0.100000*%
G04 APERTURE END LIST*
D10*
G36*
X12128102Y-11232761D02*
G01*
X12140860Y-11238045D01*
X12152341Y-11245716D01*
X12162105Y-11255481D01*
X12169777Y-11266962D01*
X12175061Y-11279720D01*
X12177755Y-11293263D01*
X12177755Y-11307071D01*
X12175061Y-11320614D01*
X12169777Y-11333372D01*
X12162105Y-11344853D01*
X12152341Y-11354617D01*
X12140860Y-11362289D01*
X12128102Y-11367573D01*
X12114559Y-11370267D01*
X12100751Y-11370267D01*
X12087208Y-11367573D01*
X12074450Y-11362289D01*
X12062969Y-11354617D01*
X12053204Y-11344853D01*
X12045533Y-11333372D01*
X12040249Y-11320614D01*
X12037555Y-11307071D01*
X12037555Y-11293263D01*
X12040249Y-11279720D01*
X12045533Y-11266962D01*
X12053204Y-11255481D01*
X12062969Y-11245716D01*
X12074450Y-11238045D01*
X12087208Y-11232761D01*
X12100751Y-11230067D01*
X12114559Y-11230067D01*
X12128102Y-11232761D01*
X12128102Y-11232761D01*
G37*
G36*
X11874102Y-11232761D02*
G01*
X11886860Y-11238045D01*
X11898341Y-11245716D01*
X11908105Y-11255481D01*
X11915777Y-11266962D01*
X11921061Y-11279720D01*
X11923755Y-11293263D01*
X11923755Y-11307071D01*
X11921061Y-11320614D01*
X11915777Y-11333372D01*
X11908105Y-11344853D01*
X11898341Y-11354617D01*
X11886860Y-11362289D01*
X11874102Y-11367573D01*
X11860559Y-11370267D01*
X11846751Y-11370267D01*
X11833208Y-11367573D01*
X11820450Y-11362289D01*
X11808969Y-11354617D01*
X11799204Y-11344853D01*
X11791533Y-11333372D01*
X11786249Y-11320614D01*
X11783555Y-11307071D01*
X11783555Y-11293263D01*
X11786249Y-11279720D01*
X11791533Y-11266962D01*
X11799204Y-11255481D01*
X11808969Y-11245716D01*
X11820450Y-11238045D01*
X11833208Y-11232761D01*
X11846751Y-11230067D01*
X11860559Y-11230067D01*
X11874102Y-11232761D01*
X11874102Y-11232761D01*
G37*
G36*
X10604102Y-11232761D02*
G01*
X10616860Y-11238045D01*
X10628341Y-11245716D01*
X10638106Y-11255481D01*
X10645777Y-11266962D01*
X10651061Y-11279720D01*
X10653755Y-11293263D01*
X10653755Y-11307071D01*
X10651061Y-11320614D01*
X10645777Y-11333372D01*
X10638106Y-11344853D01*
X10628341Y-11354617D01*
X10616860Y-11362289D01*
X10604102Y-11367573D01*
X10590559Y-11370267D01*
X10576751Y-11370267D01*
X10563208Y-11367573D01*
X10550450Y-11362289D01*
X10538969Y-11354617D01*
X10529205Y-11344853D01*
X10521533Y-11333372D01*
X10516249Y-11320614D01*
X10513555Y-11307071D01*
X10513555Y-11293263D01*
X10516249Y-11279720D01*
X10521533Y-11266962D01*
X10529205Y-11255481D01*
X10538969Y-11245716D01*
X10550450Y-11238045D01*
X10563208Y-11232761D01*
X10576751Y-11230067D01*
X10590559Y-11230067D01*
X10604102Y-11232761D01*
X10604102Y-11232761D01*
G37*
G36*
X12377102Y-11226761D02*
G01*
X12389860Y-11232045D01*
X12401341Y-11239716D01*
X12411105Y-11249481D01*
X12418777Y-11260962D01*
X12424061Y-11273720D01*
X12426755Y-11287263D01*
X12426755Y-11301071D01*
X12424061Y-11314614D01*
X12418777Y-11327372D01*
X12411105Y-11338853D01*
X12401341Y-11348617D01*
X12389860Y-11356289D01*
X12377102Y-11361573D01*
X12363559Y-11364267D01*
X12349751Y-11364267D01*
X12336208Y-11361573D01*
X12323450Y-11356289D01*
X12311969Y-11348617D01*
X12302204Y-11338853D01*
X12294533Y-11327372D01*
X12289249Y-11314614D01*
X12286555Y-11301071D01*
X12286555Y-11287263D01*
X12289249Y-11273720D01*
X12294533Y-11260962D01*
X12302204Y-11249481D01*
X12311969Y-11239716D01*
X12323450Y-11232045D01*
X12336208Y-11226761D01*
X12349751Y-11224067D01*
X12363559Y-11224067D01*
X12377102Y-11226761D01*
X12377102Y-11226761D01*
G37*
G36*
X12631102Y-11226761D02*
G01*
X12643860Y-11232045D01*
X12655341Y-11239716D01*
X12665105Y-11249481D01*
X12672777Y-11260962D01*
X12678061Y-11273720D01*
X12680755Y-11287263D01*
X12680755Y-11301071D01*
X12678061Y-11314614D01*
X12672777Y-11327372D01*
X12665105Y-11338853D01*
X12655341Y-11348617D01*
X12643860Y-11356289D01*
X12631102Y-11361573D01*
X12617559Y-11364267D01*
X12603751Y-11364267D01*
X12590208Y-11361573D01*
X12577450Y-11356289D01*
X12565969Y-11348617D01*
X12556204Y-11338853D01*
X12548533Y-11327372D01*
X12543249Y-11314614D01*
X12540555Y-11301071D01*
X12540555Y-11287263D01*
X12543249Y-11273720D01*
X12548533Y-11260962D01*
X12556204Y-11249481D01*
X12565969Y-11239716D01*
X12577450Y-11232045D01*
X12590208Y-11226761D01*
X12603751Y-11224067D01*
X12617559Y-11224067D01*
X12631102Y-11226761D01*
X12631102Y-11226761D01*
G37*
G36*
X14923895Y-11070128D02*
G01*
X14936653Y-11075412D01*
X14948134Y-11083084D01*
X14957898Y-11092848D01*
X14965570Y-11104329D01*
X14970854Y-11117087D01*
X14973548Y-11130630D01*
X14973548Y-11144438D01*
X14970854Y-11157981D01*
X14965570Y-11170739D01*
X14957898Y-11182220D01*
X14948134Y-11191984D01*
X14936653Y-11199656D01*
X14923895Y-11204940D01*
X14910352Y-11207634D01*
X14896544Y-11207634D01*
X14883001Y-11204940D01*
X14870243Y-11199656D01*
X14858762Y-11191984D01*
X14848997Y-11182220D01*
X14841326Y-11170739D01*
X14836042Y-11157981D01*
X14833348Y-11144438D01*
X14833348Y-11130630D01*
X14836042Y-11117087D01*
X14841326Y-11104329D01*
X14848997Y-11092848D01*
X14858762Y-11083084D01*
X14870243Y-11075412D01*
X14883001Y-11070128D01*
X14896544Y-11067434D01*
X14910352Y-11067434D01*
X14923895Y-11070128D01*
X14923895Y-11070128D01*
G37*
G36*
X12890102Y-10978761D02*
G01*
X12902860Y-10984045D01*
X12914341Y-10991717D01*
X12924105Y-11001481D01*
X12931777Y-11012962D01*
X12937061Y-11025720D01*
X12939755Y-11039263D01*
X12939755Y-11053071D01*
X12937061Y-11066614D01*
X12931777Y-11079372D01*
X12924105Y-11090853D01*
X12914341Y-11100618D01*
X12902860Y-11108289D01*
X12890102Y-11113573D01*
X12876559Y-11116267D01*
X12862751Y-11116267D01*
X12849208Y-11113573D01*
X12836450Y-11108289D01*
X12824969Y-11100618D01*
X12815204Y-11090853D01*
X12807533Y-11079372D01*
X12802249Y-11066614D01*
X12799555Y-11053071D01*
X12799555Y-11039263D01*
X12802249Y-11025720D01*
X12807533Y-11012962D01*
X12815204Y-11001481D01*
X12824969Y-10991717D01*
X12836450Y-10984045D01*
X12849208Y-10978761D01*
X12862751Y-10976067D01*
X12876559Y-10976067D01*
X12890102Y-10978761D01*
X12890102Y-10978761D01*
G37*
G36*
X9842102Y-10978761D02*
G01*
X9854860Y-10984045D01*
X9866341Y-10991717D01*
X9876106Y-11001481D01*
X9883777Y-11012962D01*
X9889061Y-11025720D01*
X9891755Y-11039263D01*
X9891755Y-11053071D01*
X9889061Y-11066614D01*
X9883777Y-11079372D01*
X9876106Y-11090853D01*
X9866341Y-11100618D01*
X9854860Y-11108289D01*
X9842102Y-11113573D01*
X9828559Y-11116267D01*
X9814751Y-11116267D01*
X9801208Y-11113573D01*
X9788450Y-11108289D01*
X9776969Y-11100618D01*
X9767205Y-11090853D01*
X9759533Y-11079372D01*
X9754249Y-11066614D01*
X9751555Y-11053071D01*
X9751555Y-11039263D01*
X9754249Y-11025720D01*
X9759533Y-11012962D01*
X9767205Y-11001481D01*
X9776969Y-10991717D01*
X9788450Y-10984045D01*
X9801208Y-10978761D01*
X9814751Y-10976067D01*
X9828559Y-10976067D01*
X9842102Y-10978761D01*
X9842102Y-10978761D01*
G37*
G36*
X10604102Y-10978761D02*
G01*
X10616860Y-10984045D01*
X10628341Y-10991717D01*
X10638106Y-11001481D01*
X10645777Y-11012962D01*
X10651061Y-11025720D01*
X10653755Y-11039263D01*
X10653755Y-11053071D01*
X10651061Y-11066614D01*
X10645777Y-11079372D01*
X10638106Y-11090853D01*
X10628341Y-11100618D01*
X10616860Y-11108289D01*
X10604102Y-11113573D01*
X10590559Y-11116267D01*
X10576751Y-11116267D01*
X10563208Y-11113573D01*
X10550450Y-11108289D01*
X10538969Y-11100618D01*
X10529205Y-11090853D01*
X10521533Y-11079372D01*
X10516249Y-11066614D01*
X10513555Y-11053071D01*
X10513555Y-11039263D01*
X10516249Y-11025720D01*
X10521533Y-11012962D01*
X10529205Y-11001481D01*
X10538969Y-10991717D01*
X10550450Y-10984045D01*
X10563208Y-10978761D01*
X10576751Y-10976067D01*
X10590559Y-10976067D01*
X10604102Y-10978761D01*
X10604102Y-10978761D01*
G37*
G36*
X12382102Y-10978761D02*
G01*
X12394860Y-10984045D01*
X12406341Y-10991717D01*
X12416105Y-11001481D01*
X12423777Y-11012962D01*
X12429061Y-11025720D01*
X12431755Y-11039263D01*
X12431755Y-11053071D01*
X12429061Y-11066614D01*
X12423777Y-11079372D01*
X12416105Y-11090853D01*
X12406341Y-11100618D01*
X12394860Y-11108289D01*
X12382102Y-11113573D01*
X12368559Y-11116267D01*
X12354751Y-11116267D01*
X12341208Y-11113573D01*
X12328450Y-11108289D01*
X12316969Y-11100618D01*
X12307204Y-11090853D01*
X12299533Y-11079372D01*
X12294249Y-11066614D01*
X12291555Y-11053071D01*
X12291555Y-11039263D01*
X12294249Y-11025720D01*
X12299533Y-11012962D01*
X12307204Y-11001481D01*
X12316969Y-10991717D01*
X12328450Y-10984045D01*
X12341208Y-10978761D01*
X12354751Y-10976067D01*
X12368559Y-10976067D01*
X12382102Y-10978761D01*
X12382102Y-10978761D01*
G37*
G36*
X11874102Y-10978761D02*
G01*
X11886860Y-10984045D01*
X11898341Y-10991717D01*
X11908105Y-11001481D01*
X11915777Y-11012962D01*
X11921061Y-11025720D01*
X11923755Y-11039263D01*
X11923755Y-11053071D01*
X11921061Y-11066614D01*
X11915777Y-11079372D01*
X11908105Y-11090853D01*
X11898341Y-11100618D01*
X11886860Y-11108289D01*
X11874102Y-11113573D01*
X11860559Y-11116267D01*
X11846751Y-11116267D01*
X11833208Y-11113573D01*
X11820450Y-11108289D01*
X11808969Y-11100618D01*
X11799204Y-11090853D01*
X11791533Y-11079372D01*
X11786249Y-11066614D01*
X11783555Y-11053071D01*
X11783555Y-11039263D01*
X11786249Y-11025720D01*
X11791533Y-11012962D01*
X11799204Y-11001481D01*
X11808969Y-10991717D01*
X11820450Y-10984045D01*
X11833208Y-10978761D01*
X11846751Y-10976067D01*
X11860559Y-10976067D01*
X11874102Y-10978761D01*
X11874102Y-10978761D01*
G37*
G36*
X12123102Y-10972761D02*
G01*
X12135860Y-10978045D01*
X12147341Y-10985717D01*
X12157105Y-10995481D01*
X12164777Y-11006962D01*
X12170061Y-11019720D01*
X12172755Y-11033263D01*
X12172755Y-11047071D01*
X12170061Y-11060614D01*
X12164777Y-11073372D01*
X12157105Y-11084853D01*
X12147341Y-11094618D01*
X12135860Y-11102289D01*
X12123102Y-11107573D01*
X12109559Y-11110267D01*
X12095751Y-11110267D01*
X12082208Y-11107573D01*
X12069450Y-11102289D01*
X12057969Y-11094618D01*
X12048204Y-11084853D01*
X12040533Y-11073372D01*
X12035249Y-11060614D01*
X12032555Y-11047071D01*
X12032555Y-11033263D01*
X12035249Y-11019720D01*
X12040533Y-11006962D01*
X12048204Y-10995481D01*
X12057969Y-10985717D01*
X12069450Y-10978045D01*
X12082208Y-10972761D01*
X12095751Y-10970067D01*
X12109559Y-10970067D01*
X12123102Y-10972761D01*
X12123102Y-10972761D01*
G37*
G36*
X12631102Y-10972761D02*
G01*
X12643860Y-10978045D01*
X12655341Y-10985717D01*
X12665105Y-10995481D01*
X12672777Y-11006962D01*
X12678061Y-11019720D01*
X12680755Y-11033263D01*
X12680755Y-11047071D01*
X12678061Y-11060614D01*
X12672777Y-11073372D01*
X12665105Y-11084853D01*
X12655341Y-11094618D01*
X12643860Y-11102289D01*
X12631102Y-11107573D01*
X12617559Y-11110267D01*
X12603751Y-11110267D01*
X12590208Y-11107573D01*
X12577450Y-11102289D01*
X12565969Y-11094618D01*
X12556204Y-11084853D01*
X12548533Y-11073372D01*
X12543249Y-11060614D01*
X12540555Y-11047071D01*
X12540555Y-11033263D01*
X12543249Y-11019720D01*
X12548533Y-11006962D01*
X12556204Y-10995481D01*
X12565969Y-10985717D01*
X12577450Y-10978045D01*
X12590208Y-10972761D01*
X12603751Y-10970067D01*
X12617559Y-10970067D01*
X12631102Y-10972761D01*
X12631102Y-10972761D01*
G37*
G36*
X15431895Y-10816128D02*
G01*
X15444653Y-10821412D01*
X15456134Y-10829084D01*
X15465898Y-10838848D01*
X15473570Y-10850329D01*
X15478854Y-10863087D01*
X15481548Y-10876630D01*
X15481548Y-10890438D01*
X15478854Y-10903981D01*
X15473570Y-10916739D01*
X15465898Y-10928220D01*
X15456134Y-10937985D01*
X15444653Y-10945656D01*
X15431895Y-10950940D01*
X15418352Y-10953634D01*
X15404544Y-10953634D01*
X15391001Y-10950940D01*
X15378243Y-10945656D01*
X15366762Y-10937985D01*
X15356997Y-10928220D01*
X15349326Y-10916739D01*
X15344042Y-10903981D01*
X15341348Y-10890438D01*
X15341348Y-10876630D01*
X15344042Y-10863087D01*
X15349326Y-10850329D01*
X15356997Y-10838848D01*
X15366762Y-10829084D01*
X15378243Y-10821412D01*
X15391001Y-10816128D01*
X15404544Y-10813434D01*
X15418352Y-10813434D01*
X15431895Y-10816128D01*
X15431895Y-10816128D01*
G37*
G36*
X15939895Y-10816128D02*
G01*
X15952653Y-10821412D01*
X15964134Y-10829084D01*
X15973898Y-10838848D01*
X15981570Y-10850329D01*
X15986854Y-10863087D01*
X15989548Y-10876630D01*
X15989548Y-10890438D01*
X15986854Y-10903981D01*
X15981570Y-10916739D01*
X15973898Y-10928220D01*
X15964134Y-10937985D01*
X15952653Y-10945656D01*
X15939895Y-10950940D01*
X15926352Y-10953634D01*
X15912544Y-10953634D01*
X15899001Y-10950940D01*
X15886243Y-10945656D01*
X15874762Y-10937985D01*
X15864997Y-10928220D01*
X15857326Y-10916739D01*
X15852042Y-10903981D01*
X15849348Y-10890438D01*
X15849348Y-10876630D01*
X15852042Y-10863087D01*
X15857326Y-10850329D01*
X15864997Y-10838848D01*
X15874762Y-10829084D01*
X15886243Y-10821412D01*
X15899001Y-10816128D01*
X15912544Y-10813434D01*
X15926352Y-10813434D01*
X15939895Y-10816128D01*
X15939895Y-10816128D01*
G37*
G36*
X14929895Y-10811128D02*
G01*
X14942653Y-10816412D01*
X14954134Y-10824084D01*
X14963898Y-10833848D01*
X14971570Y-10845329D01*
X14976854Y-10858087D01*
X14979548Y-10871630D01*
X14979548Y-10885438D01*
X14976854Y-10898981D01*
X14971570Y-10911739D01*
X14963898Y-10923220D01*
X14954134Y-10932985D01*
X14942653Y-10940656D01*
X14929895Y-10945940D01*
X14916352Y-10948634D01*
X14902544Y-10948634D01*
X14889001Y-10945940D01*
X14876243Y-10940656D01*
X14864762Y-10932985D01*
X14854997Y-10923220D01*
X14847326Y-10911739D01*
X14842042Y-10898981D01*
X14839348Y-10885438D01*
X14839348Y-10871630D01*
X14842042Y-10858087D01*
X14847326Y-10845329D01*
X14854997Y-10833848D01*
X14864762Y-10824084D01*
X14876243Y-10816412D01*
X14889001Y-10811128D01*
X14902544Y-10808434D01*
X14916352Y-10808434D01*
X14929895Y-10811128D01*
X14929895Y-10811128D01*
G37*
G36*
X15691895Y-10811128D02*
G01*
X15704653Y-10816412D01*
X15716134Y-10824084D01*
X15725898Y-10833848D01*
X15733570Y-10845329D01*
X15738854Y-10858087D01*
X15741548Y-10871630D01*
X15741548Y-10885438D01*
X15738854Y-10898981D01*
X15733570Y-10911739D01*
X15725898Y-10923220D01*
X15716134Y-10932985D01*
X15704653Y-10940656D01*
X15691895Y-10945940D01*
X15678352Y-10948634D01*
X15664544Y-10948634D01*
X15651001Y-10945940D01*
X15638243Y-10940656D01*
X15626762Y-10932985D01*
X15616997Y-10923220D01*
X15609326Y-10911739D01*
X15604042Y-10898981D01*
X15601348Y-10885438D01*
X15601348Y-10871630D01*
X15604042Y-10858087D01*
X15609326Y-10845329D01*
X15616997Y-10833848D01*
X15626762Y-10824084D01*
X15638243Y-10816412D01*
X15651001Y-10811128D01*
X15664544Y-10808434D01*
X15678352Y-10808434D01*
X15691895Y-10811128D01*
X15691895Y-10811128D01*
G37*
G36*
X14675895Y-10811128D02*
G01*
X14688653Y-10816412D01*
X14700134Y-10824084D01*
X14709898Y-10833848D01*
X14717570Y-10845329D01*
X14722854Y-10858087D01*
X14725548Y-10871630D01*
X14725548Y-10885438D01*
X14722854Y-10898981D01*
X14717570Y-10911739D01*
X14709898Y-10923220D01*
X14700134Y-10932985D01*
X14688653Y-10940656D01*
X14675895Y-10945940D01*
X14662352Y-10948634D01*
X14648544Y-10948634D01*
X14635001Y-10945940D01*
X14622243Y-10940656D01*
X14610762Y-10932985D01*
X14600997Y-10923220D01*
X14593326Y-10911739D01*
X14588042Y-10898981D01*
X14585348Y-10885438D01*
X14585348Y-10871630D01*
X14588042Y-10858087D01*
X14593326Y-10845329D01*
X14600997Y-10833848D01*
X14610762Y-10824084D01*
X14622243Y-10816412D01*
X14635001Y-10811128D01*
X14648544Y-10808434D01*
X14662352Y-10808434D01*
X14675895Y-10811128D01*
X14675895Y-10811128D01*
G37*
G36*
X9842102Y-10724761D02*
G01*
X9854860Y-10730045D01*
X9866341Y-10737717D01*
X9876106Y-10747481D01*
X9883777Y-10758962D01*
X9889061Y-10771720D01*
X9891755Y-10785263D01*
X9891755Y-10799071D01*
X9889061Y-10812614D01*
X9883777Y-10825372D01*
X9876106Y-10836853D01*
X9866341Y-10846618D01*
X9854860Y-10854289D01*
X9842102Y-10859573D01*
X9828559Y-10862267D01*
X9814751Y-10862267D01*
X9801208Y-10859573D01*
X9788450Y-10854289D01*
X9776969Y-10846618D01*
X9767205Y-10836853D01*
X9759533Y-10825372D01*
X9754249Y-10812614D01*
X9751555Y-10799071D01*
X9751555Y-10785263D01*
X9754249Y-10771720D01*
X9759533Y-10758962D01*
X9767205Y-10747481D01*
X9776969Y-10737717D01*
X9788450Y-10730045D01*
X9801208Y-10724761D01*
X9814751Y-10722067D01*
X9828559Y-10722067D01*
X9842102Y-10724761D01*
X9842102Y-10724761D01*
G37*
G36*
X14923895Y-10562128D02*
G01*
X14936653Y-10567412D01*
X14948134Y-10575084D01*
X14957898Y-10584848D01*
X14965570Y-10596329D01*
X14970854Y-10609087D01*
X14973548Y-10622630D01*
X14973548Y-10636438D01*
X14970854Y-10649981D01*
X14965570Y-10662739D01*
X14957898Y-10674220D01*
X14948134Y-10683985D01*
X14936653Y-10691656D01*
X14923895Y-10696940D01*
X14910352Y-10699634D01*
X14896544Y-10699634D01*
X14883001Y-10696940D01*
X14870243Y-10691656D01*
X14858762Y-10683985D01*
X14848997Y-10674220D01*
X14841326Y-10662739D01*
X14836042Y-10649981D01*
X14833348Y-10636438D01*
X14833348Y-10622630D01*
X14836042Y-10609087D01*
X14841326Y-10596329D01*
X14848997Y-10584848D01*
X14858762Y-10575084D01*
X14870243Y-10567412D01*
X14883001Y-10562128D01*
X14896544Y-10559434D01*
X14910352Y-10559434D01*
X14923895Y-10562128D01*
X14923895Y-10562128D01*
G37*
G36*
X15437895Y-10557128D02*
G01*
X15450653Y-10562412D01*
X15462134Y-10570084D01*
X15471898Y-10579848D01*
X15479570Y-10591329D01*
X15484854Y-10604087D01*
X15487548Y-10617630D01*
X15487548Y-10631438D01*
X15484854Y-10644981D01*
X15479570Y-10657739D01*
X15471898Y-10669220D01*
X15462134Y-10678985D01*
X15450653Y-10686656D01*
X15437895Y-10691940D01*
X15424352Y-10694634D01*
X15410544Y-10694634D01*
X15397001Y-10691940D01*
X15384243Y-10686656D01*
X15372762Y-10678985D01*
X15362997Y-10669220D01*
X15355326Y-10657739D01*
X15350042Y-10644981D01*
X15347348Y-10631438D01*
X15347348Y-10617630D01*
X15350042Y-10604087D01*
X15355326Y-10591329D01*
X15362997Y-10579848D01*
X15372762Y-10570084D01*
X15384243Y-10562412D01*
X15397001Y-10557128D01*
X15410544Y-10554434D01*
X15424352Y-10554434D01*
X15437895Y-10557128D01*
X15437895Y-10557128D01*
G37*
G36*
X14675895Y-10557128D02*
G01*
X14688653Y-10562412D01*
X14700134Y-10570084D01*
X14709898Y-10579848D01*
X14717570Y-10591329D01*
X14722854Y-10604087D01*
X14725548Y-10617630D01*
X14725548Y-10631438D01*
X14722854Y-10644981D01*
X14717570Y-10657739D01*
X14709898Y-10669220D01*
X14700134Y-10678985D01*
X14688653Y-10686656D01*
X14675895Y-10691940D01*
X14662352Y-10694634D01*
X14648544Y-10694634D01*
X14635001Y-10691940D01*
X14622243Y-10686656D01*
X14610762Y-10678985D01*
X14600997Y-10669220D01*
X14593326Y-10657739D01*
X14588042Y-10644981D01*
X14585348Y-10631438D01*
X14585348Y-10617630D01*
X14588042Y-10604087D01*
X14593326Y-10591329D01*
X14600997Y-10579848D01*
X14610762Y-10570084D01*
X14622243Y-10562412D01*
X14635001Y-10557128D01*
X14648544Y-10554434D01*
X14662352Y-10554434D01*
X14675895Y-10557128D01*
X14675895Y-10557128D01*
G37*
G36*
X15945895Y-10557128D02*
G01*
X15958653Y-10562412D01*
X15970134Y-10570084D01*
X15979898Y-10579848D01*
X15987570Y-10591329D01*
X15992854Y-10604087D01*
X15995548Y-10617630D01*
X15995548Y-10631438D01*
X15992854Y-10644981D01*
X15987570Y-10657739D01*
X15979898Y-10669220D01*
X15970134Y-10678985D01*
X15958653Y-10686656D01*
X15945895Y-10691940D01*
X15932352Y-10694634D01*
X15918544Y-10694634D01*
X15905001Y-10691940D01*
X15892243Y-10686656D01*
X15880762Y-10678985D01*
X15870997Y-10669220D01*
X15863326Y-10657739D01*
X15858042Y-10644981D01*
X15855348Y-10631438D01*
X15855348Y-10617630D01*
X15858042Y-10604087D01*
X15863326Y-10591329D01*
X15870997Y-10579848D01*
X15880762Y-10570084D01*
X15892243Y-10562412D01*
X15905001Y-10557128D01*
X15918544Y-10554434D01*
X15932352Y-10554434D01*
X15945895Y-10557128D01*
X15945895Y-10557128D01*
G37*
G36*
X16453895Y-10557128D02*
G01*
X16466653Y-10562412D01*
X16478134Y-10570084D01*
X16487898Y-10579848D01*
X16495570Y-10591329D01*
X16500854Y-10604087D01*
X16503548Y-10617630D01*
X16503548Y-10631438D01*
X16500854Y-10644981D01*
X16495570Y-10657739D01*
X16487898Y-10669220D01*
X16478134Y-10678985D01*
X16466653Y-10686656D01*
X16453895Y-10691940D01*
X16440352Y-10694634D01*
X16426544Y-10694634D01*
X16413001Y-10691940D01*
X16400243Y-10686656D01*
X16388762Y-10678985D01*
X16378997Y-10669220D01*
X16371326Y-10657739D01*
X16366042Y-10644981D01*
X16363348Y-10631438D01*
X16363348Y-10617630D01*
X16366042Y-10604087D01*
X16371326Y-10591329D01*
X16378997Y-10579848D01*
X16388762Y-10570084D01*
X16400243Y-10562412D01*
X16413001Y-10557128D01*
X16426544Y-10554434D01*
X16440352Y-10554434D01*
X16453895Y-10557128D01*
X16453895Y-10557128D01*
G37*
G36*
X15691895Y-10557128D02*
G01*
X15704653Y-10562412D01*
X15716134Y-10570084D01*
X15725898Y-10579848D01*
X15733570Y-10591329D01*
X15738854Y-10604087D01*
X15741548Y-10617630D01*
X15741548Y-10631438D01*
X15738854Y-10644981D01*
X15733570Y-10657739D01*
X15725898Y-10669220D01*
X15716134Y-10678985D01*
X15704653Y-10686656D01*
X15691895Y-10691940D01*
X15678352Y-10694634D01*
X15664544Y-10694634D01*
X15651001Y-10691940D01*
X15638243Y-10686656D01*
X15626762Y-10678985D01*
X15616997Y-10669220D01*
X15609326Y-10657739D01*
X15604042Y-10644981D01*
X15601348Y-10631438D01*
X15601348Y-10617630D01*
X15604042Y-10604087D01*
X15609326Y-10591329D01*
X15616997Y-10579848D01*
X15626762Y-10570084D01*
X15638243Y-10562412D01*
X15651001Y-10557128D01*
X15664544Y-10554434D01*
X15678352Y-10554434D01*
X15691895Y-10557128D01*
X15691895Y-10557128D01*
G37*
G36*
X12636102Y-10470761D02*
G01*
X12648860Y-10476045D01*
X12660341Y-10483717D01*
X12670105Y-10493481D01*
X12677777Y-10504962D01*
X12683061Y-10517720D01*
X12685755Y-10531263D01*
X12685755Y-10545071D01*
X12683061Y-10558614D01*
X12677777Y-10571372D01*
X12670105Y-10582853D01*
X12660341Y-10592618D01*
X12648860Y-10600289D01*
X12636102Y-10605573D01*
X12622559Y-10608267D01*
X12608751Y-10608267D01*
X12595208Y-10605573D01*
X12582450Y-10600289D01*
X12570969Y-10592618D01*
X12561204Y-10582853D01*
X12553533Y-10571372D01*
X12548249Y-10558614D01*
X12545555Y-10545071D01*
X12545555Y-10531263D01*
X12548249Y-10517720D01*
X12553533Y-10504962D01*
X12561204Y-10493481D01*
X12570969Y-10483717D01*
X12582450Y-10476045D01*
X12595208Y-10470761D01*
X12608751Y-10468067D01*
X12622559Y-10468067D01*
X12636102Y-10470761D01*
X12636102Y-10470761D01*
G37*
G36*
X12123102Y-10464761D02*
G01*
X12135860Y-10470045D01*
X12147341Y-10477717D01*
X12157105Y-10487481D01*
X12164777Y-10498962D01*
X12170061Y-10511720D01*
X12172755Y-10525263D01*
X12172755Y-10539071D01*
X12170061Y-10552614D01*
X12164777Y-10565372D01*
X12157105Y-10576853D01*
X12147341Y-10586618D01*
X12135860Y-10594289D01*
X12123102Y-10599573D01*
X12109559Y-10602267D01*
X12095751Y-10602267D01*
X12082208Y-10599573D01*
X12069450Y-10594289D01*
X12057969Y-10586618D01*
X12048204Y-10576853D01*
X12040533Y-10565372D01*
X12035249Y-10552614D01*
X12032555Y-10539071D01*
X12032555Y-10525263D01*
X12035249Y-10511720D01*
X12040533Y-10498962D01*
X12048204Y-10487481D01*
X12057969Y-10477717D01*
X12069450Y-10470045D01*
X12082208Y-10464761D01*
X12095751Y-10462067D01*
X12109559Y-10462067D01*
X12123102Y-10464761D01*
X12123102Y-10464761D01*
G37*
G36*
X12377102Y-10464761D02*
G01*
X12389860Y-10470045D01*
X12401341Y-10477717D01*
X12411105Y-10487481D01*
X12418777Y-10498962D01*
X12424061Y-10511720D01*
X12426755Y-10525263D01*
X12426755Y-10539071D01*
X12424061Y-10552614D01*
X12418777Y-10565372D01*
X12411105Y-10576853D01*
X12401341Y-10586618D01*
X12389860Y-10594289D01*
X12377102Y-10599573D01*
X12363559Y-10602267D01*
X12349751Y-10602267D01*
X12336208Y-10599573D01*
X12323450Y-10594289D01*
X12311969Y-10586618D01*
X12302204Y-10576853D01*
X12294533Y-10565372D01*
X12289249Y-10552614D01*
X12286555Y-10539071D01*
X12286555Y-10525263D01*
X12289249Y-10511720D01*
X12294533Y-10498962D01*
X12302204Y-10487481D01*
X12311969Y-10477717D01*
X12323450Y-10470045D01*
X12336208Y-10464761D01*
X12349751Y-10462067D01*
X12363559Y-10462067D01*
X12377102Y-10464761D01*
X12377102Y-10464761D01*
G37*
G36*
X11869102Y-10464761D02*
G01*
X11881860Y-10470045D01*
X11893341Y-10477717D01*
X11903105Y-10487481D01*
X11910777Y-10498962D01*
X11916061Y-10511720D01*
X11918755Y-10525263D01*
X11918755Y-10539071D01*
X11916061Y-10552614D01*
X11910777Y-10565372D01*
X11903105Y-10576853D01*
X11893341Y-10586618D01*
X11881860Y-10594289D01*
X11869102Y-10599573D01*
X11855559Y-10602267D01*
X11841751Y-10602267D01*
X11828208Y-10599573D01*
X11815450Y-10594289D01*
X11803969Y-10586618D01*
X11794204Y-10576853D01*
X11786533Y-10565372D01*
X11781249Y-10552614D01*
X11778555Y-10539071D01*
X11778555Y-10525263D01*
X11781249Y-10511720D01*
X11786533Y-10498962D01*
X11794204Y-10487481D01*
X11803969Y-10477717D01*
X11815450Y-10470045D01*
X11828208Y-10464761D01*
X11841751Y-10462067D01*
X11855559Y-10462067D01*
X11869102Y-10464761D01*
X11869102Y-10464761D01*
G37*
G36*
X9842102Y-10462761D02*
G01*
X9854860Y-10468045D01*
X9866341Y-10475717D01*
X9876106Y-10485481D01*
X9883777Y-10496962D01*
X9889061Y-10509720D01*
X9891755Y-10523263D01*
X9891755Y-10537071D01*
X9889061Y-10550614D01*
X9883777Y-10563372D01*
X9876106Y-10574853D01*
X9866341Y-10584618D01*
X9854860Y-10592289D01*
X9842102Y-10597573D01*
X9828559Y-10600267D01*
X9814751Y-10600267D01*
X9801208Y-10597573D01*
X9788450Y-10592289D01*
X9776969Y-10584618D01*
X9767205Y-10574853D01*
X9759533Y-10563372D01*
X9754249Y-10550614D01*
X9751555Y-10537071D01*
X9751555Y-10523263D01*
X9754249Y-10509720D01*
X9759533Y-10496962D01*
X9767205Y-10485481D01*
X9776969Y-10475717D01*
X9788450Y-10468045D01*
X9801208Y-10462761D01*
X9814751Y-10460067D01*
X9828559Y-10460067D01*
X9842102Y-10462761D01*
X9842102Y-10462761D01*
G37*
G36*
X15694895Y-10326128D02*
G01*
X15707653Y-10331412D01*
X15719134Y-10339084D01*
X15728898Y-10348848D01*
X15736570Y-10360329D01*
X15741854Y-10373087D01*
X15744548Y-10386630D01*
X15744548Y-10400438D01*
X15741854Y-10413981D01*
X15736570Y-10426739D01*
X15728898Y-10438220D01*
X15719134Y-10447985D01*
X15707653Y-10455656D01*
X15694895Y-10460940D01*
X15681352Y-10463634D01*
X15667544Y-10463634D01*
X15654001Y-10460940D01*
X15641243Y-10455656D01*
X15629762Y-10447985D01*
X15619997Y-10438220D01*
X15612326Y-10426739D01*
X15607042Y-10413981D01*
X15604348Y-10400438D01*
X15604348Y-10386630D01*
X15607042Y-10373087D01*
X15612326Y-10360329D01*
X15619997Y-10348848D01*
X15629762Y-10339084D01*
X15641243Y-10331412D01*
X15654001Y-10326128D01*
X15667544Y-10323434D01*
X15681352Y-10323434D01*
X15694895Y-10326128D01*
X15694895Y-10326128D01*
G37*
G36*
X14669895Y-10308128D02*
G01*
X14682653Y-10313412D01*
X14694134Y-10321084D01*
X14703898Y-10330848D01*
X14711570Y-10342329D01*
X14716854Y-10355087D01*
X14719548Y-10368630D01*
X14719548Y-10382438D01*
X14716854Y-10395981D01*
X14711570Y-10408739D01*
X14703898Y-10420220D01*
X14694134Y-10429985D01*
X14682653Y-10437656D01*
X14669895Y-10442940D01*
X14656352Y-10445634D01*
X14642544Y-10445634D01*
X14629001Y-10442940D01*
X14616243Y-10437656D01*
X14604762Y-10429985D01*
X14594997Y-10420220D01*
X14587326Y-10408739D01*
X14582042Y-10395981D01*
X14579348Y-10382438D01*
X14579348Y-10368630D01*
X14582042Y-10355087D01*
X14587326Y-10342329D01*
X14594997Y-10330848D01*
X14604762Y-10321084D01*
X14616243Y-10313412D01*
X14629001Y-10308128D01*
X14642544Y-10305434D01*
X14656352Y-10305434D01*
X14669895Y-10308128D01*
X14669895Y-10308128D01*
G37*
G36*
X16707895Y-10303128D02*
G01*
X16720653Y-10308412D01*
X16732134Y-10316084D01*
X16741898Y-10325848D01*
X16749570Y-10337329D01*
X16754854Y-10350087D01*
X16757548Y-10363630D01*
X16757548Y-10377438D01*
X16754854Y-10390981D01*
X16749570Y-10403739D01*
X16741898Y-10415220D01*
X16732134Y-10424985D01*
X16720653Y-10432656D01*
X16707895Y-10437940D01*
X16694352Y-10440634D01*
X16680544Y-10440634D01*
X16667001Y-10437940D01*
X16654243Y-10432656D01*
X16642762Y-10424985D01*
X16632997Y-10415220D01*
X16625326Y-10403739D01*
X16620042Y-10390981D01*
X16617348Y-10377438D01*
X16617348Y-10363630D01*
X16620042Y-10350087D01*
X16625326Y-10337329D01*
X16632997Y-10325848D01*
X16642762Y-10316084D01*
X16654243Y-10308412D01*
X16667001Y-10303128D01*
X16680544Y-10300434D01*
X16694352Y-10300434D01*
X16707895Y-10303128D01*
X16707895Y-10303128D01*
G37*
G36*
X14929895Y-10303128D02*
G01*
X14942653Y-10308412D01*
X14954134Y-10316084D01*
X14963898Y-10325848D01*
X14971570Y-10337329D01*
X14976854Y-10350087D01*
X14979548Y-10363630D01*
X14979548Y-10377438D01*
X14976854Y-10390981D01*
X14971570Y-10403739D01*
X14963898Y-10415220D01*
X14954134Y-10424985D01*
X14942653Y-10432656D01*
X14929895Y-10437940D01*
X14916352Y-10440634D01*
X14902544Y-10440634D01*
X14889001Y-10437940D01*
X14876243Y-10432656D01*
X14864762Y-10424985D01*
X14854997Y-10415220D01*
X14847326Y-10403739D01*
X14842042Y-10390981D01*
X14839348Y-10377438D01*
X14839348Y-10363630D01*
X14842042Y-10350087D01*
X14847326Y-10337329D01*
X14854997Y-10325848D01*
X14864762Y-10316084D01*
X14876243Y-10308412D01*
X14889001Y-10303128D01*
X14902544Y-10300434D01*
X14916352Y-10300434D01*
X14929895Y-10303128D01*
X14929895Y-10303128D01*
G37*
G36*
X16453895Y-10303128D02*
G01*
X16466653Y-10308412D01*
X16478134Y-10316084D01*
X16487898Y-10325848D01*
X16495570Y-10337329D01*
X16500854Y-10350087D01*
X16503548Y-10363630D01*
X16503548Y-10377438D01*
X16500854Y-10390981D01*
X16495570Y-10403739D01*
X16487898Y-10415220D01*
X16478134Y-10424985D01*
X16466653Y-10432656D01*
X16453895Y-10437940D01*
X16440352Y-10440634D01*
X16426544Y-10440634D01*
X16413001Y-10437940D01*
X16400243Y-10432656D01*
X16388762Y-10424985D01*
X16378997Y-10415220D01*
X16371326Y-10403739D01*
X16366042Y-10390981D01*
X16363348Y-10377438D01*
X16363348Y-10363630D01*
X16366042Y-10350087D01*
X16371326Y-10337329D01*
X16378997Y-10325848D01*
X16388762Y-10316084D01*
X16400243Y-10308412D01*
X16413001Y-10303128D01*
X16426544Y-10300434D01*
X16440352Y-10300434D01*
X16453895Y-10303128D01*
X16453895Y-10303128D01*
G37*
G36*
X15945895Y-10303128D02*
G01*
X15958653Y-10308412D01*
X15970134Y-10316084D01*
X15979898Y-10325848D01*
X15987570Y-10337329D01*
X15992854Y-10350087D01*
X15995548Y-10363630D01*
X15995548Y-10377438D01*
X15992854Y-10390981D01*
X15987570Y-10403739D01*
X15979898Y-10415220D01*
X15970134Y-10424985D01*
X15958653Y-10432656D01*
X15945895Y-10437940D01*
X15932352Y-10440634D01*
X15918544Y-10440634D01*
X15905001Y-10437940D01*
X15892243Y-10432656D01*
X15880762Y-10424985D01*
X15870997Y-10415220D01*
X15863326Y-10403739D01*
X15858042Y-10390981D01*
X15855348Y-10377438D01*
X15855348Y-10363630D01*
X15858042Y-10350087D01*
X15863326Y-10337329D01*
X15870997Y-10325848D01*
X15880762Y-10316084D01*
X15892243Y-10308412D01*
X15905001Y-10303128D01*
X15918544Y-10300434D01*
X15932352Y-10300434D01*
X15945895Y-10303128D01*
X15945895Y-10303128D01*
G37*
G36*
X15437895Y-10303128D02*
G01*
X15450653Y-10308412D01*
X15462134Y-10316084D01*
X15471898Y-10325848D01*
X15479570Y-10337329D01*
X15484854Y-10350087D01*
X15487548Y-10363630D01*
X15487548Y-10377438D01*
X15484854Y-10390981D01*
X15479570Y-10403739D01*
X15471898Y-10415220D01*
X15462134Y-10424985D01*
X15450653Y-10432656D01*
X15437895Y-10437940D01*
X15424352Y-10440634D01*
X15410544Y-10440634D01*
X15397001Y-10437940D01*
X15384243Y-10432656D01*
X15372762Y-10424985D01*
X15362997Y-10415220D01*
X15355326Y-10403739D01*
X15350042Y-10390981D01*
X15347348Y-10377438D01*
X15347348Y-10363630D01*
X15350042Y-10350087D01*
X15355326Y-10337329D01*
X15362997Y-10325848D01*
X15372762Y-10316084D01*
X15384243Y-10308412D01*
X15397001Y-10303128D01*
X15410544Y-10300434D01*
X15424352Y-10300434D01*
X15437895Y-10303128D01*
X15437895Y-10303128D01*
G37*
G36*
X12377102Y-10210761D02*
G01*
X12389860Y-10216045D01*
X12401341Y-10223717D01*
X12411105Y-10233481D01*
X12418777Y-10244962D01*
X12424061Y-10257720D01*
X12426755Y-10271263D01*
X12426755Y-10285071D01*
X12424061Y-10298614D01*
X12418777Y-10311372D01*
X12411105Y-10322853D01*
X12401341Y-10332618D01*
X12389860Y-10340289D01*
X12377102Y-10345573D01*
X12363559Y-10348267D01*
X12349751Y-10348267D01*
X12336208Y-10345573D01*
X12323450Y-10340289D01*
X12311969Y-10332618D01*
X12302204Y-10322853D01*
X12294533Y-10311372D01*
X12289249Y-10298614D01*
X12286555Y-10285071D01*
X12286555Y-10271263D01*
X12289249Y-10257720D01*
X12294533Y-10244962D01*
X12302204Y-10233481D01*
X12311969Y-10223717D01*
X12323450Y-10216045D01*
X12336208Y-10210761D01*
X12349751Y-10208067D01*
X12363559Y-10208067D01*
X12377102Y-10210761D01*
X12377102Y-10210761D01*
G37*
G36*
X9837102Y-10210761D02*
G01*
X9849860Y-10216045D01*
X9861341Y-10223717D01*
X9871106Y-10233481D01*
X9878777Y-10244962D01*
X9884061Y-10257720D01*
X9886755Y-10271263D01*
X9886755Y-10285071D01*
X9884061Y-10298614D01*
X9878777Y-10311372D01*
X9871106Y-10322853D01*
X9861341Y-10332618D01*
X9849860Y-10340289D01*
X9837102Y-10345573D01*
X9823559Y-10348267D01*
X9809751Y-10348267D01*
X9796208Y-10345573D01*
X9783450Y-10340289D01*
X9771969Y-10332618D01*
X9762205Y-10322853D01*
X9754533Y-10311372D01*
X9749249Y-10298614D01*
X9746555Y-10285071D01*
X9746555Y-10271263D01*
X9749249Y-10257720D01*
X9754533Y-10244962D01*
X9762205Y-10233481D01*
X9771969Y-10223717D01*
X9783450Y-10216045D01*
X9796208Y-10210761D01*
X9809751Y-10208067D01*
X9823559Y-10208067D01*
X9837102Y-10210761D01*
X9837102Y-10210761D01*
G37*
G36*
X12631102Y-10210761D02*
G01*
X12643860Y-10216045D01*
X12655341Y-10223717D01*
X12665105Y-10233481D01*
X12672777Y-10244962D01*
X12678061Y-10257720D01*
X12680755Y-10271263D01*
X12680755Y-10285071D01*
X12678061Y-10298614D01*
X12672777Y-10311372D01*
X12665105Y-10322853D01*
X12655341Y-10332618D01*
X12643860Y-10340289D01*
X12631102Y-10345573D01*
X12617559Y-10348267D01*
X12603751Y-10348267D01*
X12590208Y-10345573D01*
X12577450Y-10340289D01*
X12565969Y-10332618D01*
X12556204Y-10322853D01*
X12548533Y-10311372D01*
X12543249Y-10298614D01*
X12540555Y-10285071D01*
X12540555Y-10271263D01*
X12543249Y-10257720D01*
X12548533Y-10244962D01*
X12556204Y-10233481D01*
X12565969Y-10223717D01*
X12577450Y-10216045D01*
X12590208Y-10210761D01*
X12603751Y-10208067D01*
X12617559Y-10208067D01*
X12631102Y-10210761D01*
X12631102Y-10210761D01*
G37*
G36*
X12146102Y-10207761D02*
G01*
X12158860Y-10213045D01*
X12170341Y-10220717D01*
X12180105Y-10230481D01*
X12187777Y-10241962D01*
X12193061Y-10254720D01*
X12195755Y-10268263D01*
X12195755Y-10282071D01*
X12193061Y-10295614D01*
X12187777Y-10308372D01*
X12180105Y-10319853D01*
X12170341Y-10329618D01*
X12158860Y-10337289D01*
X12146102Y-10342573D01*
X12132559Y-10345267D01*
X12118751Y-10345267D01*
X12105208Y-10342573D01*
X12092450Y-10337289D01*
X12080969Y-10329618D01*
X12071204Y-10319853D01*
X12063533Y-10308372D01*
X12058249Y-10295614D01*
X12055555Y-10282071D01*
X12055555Y-10268263D01*
X12058249Y-10254720D01*
X12063533Y-10241962D01*
X12071204Y-10230481D01*
X12080969Y-10220717D01*
X12092450Y-10213045D01*
X12105208Y-10207761D01*
X12118751Y-10205067D01*
X12132559Y-10205067D01*
X12146102Y-10207761D01*
X12146102Y-10207761D01*
G37*
G36*
X15945895Y-10054128D02*
G01*
X15958653Y-10059412D01*
X15970134Y-10067084D01*
X15979898Y-10076848D01*
X15987570Y-10088329D01*
X15992854Y-10101087D01*
X15995548Y-10114630D01*
X15995548Y-10128438D01*
X15992854Y-10141981D01*
X15987570Y-10154739D01*
X15979898Y-10166220D01*
X15970134Y-10175985D01*
X15958653Y-10183656D01*
X15945895Y-10188940D01*
X15932352Y-10191634D01*
X15918544Y-10191634D01*
X15905001Y-10188940D01*
X15892243Y-10183656D01*
X15880762Y-10175985D01*
X15870997Y-10166220D01*
X15863326Y-10154739D01*
X15858042Y-10141981D01*
X15855348Y-10128438D01*
X15855348Y-10114630D01*
X15858042Y-10101087D01*
X15863326Y-10088329D01*
X15870997Y-10076848D01*
X15880762Y-10067084D01*
X15892243Y-10059412D01*
X15905001Y-10054128D01*
X15918544Y-10051434D01*
X15932352Y-10051434D01*
X15945895Y-10054128D01*
X15945895Y-10054128D01*
G37*
G36*
X14669895Y-10054128D02*
G01*
X14682653Y-10059412D01*
X14694134Y-10067084D01*
X14703898Y-10076848D01*
X14711570Y-10088329D01*
X14716854Y-10101087D01*
X14719548Y-10114630D01*
X14719548Y-10128438D01*
X14716854Y-10141981D01*
X14711570Y-10154739D01*
X14703898Y-10166220D01*
X14694134Y-10175985D01*
X14682653Y-10183656D01*
X14669895Y-10188940D01*
X14656352Y-10191634D01*
X14642544Y-10191634D01*
X14629001Y-10188940D01*
X14616243Y-10183656D01*
X14604762Y-10175985D01*
X14594997Y-10166220D01*
X14587326Y-10154739D01*
X14582042Y-10141981D01*
X14579348Y-10128438D01*
X14579348Y-10114630D01*
X14582042Y-10101087D01*
X14587326Y-10088329D01*
X14594997Y-10076848D01*
X14604762Y-10067084D01*
X14616243Y-10059412D01*
X14629001Y-10054128D01*
X14642544Y-10051434D01*
X14656352Y-10051434D01*
X14669895Y-10054128D01*
X14669895Y-10054128D01*
G37*
G36*
X16447895Y-10054128D02*
G01*
X16460653Y-10059412D01*
X16472134Y-10067084D01*
X16481898Y-10076848D01*
X16489570Y-10088329D01*
X16494854Y-10101087D01*
X16497548Y-10114630D01*
X16497548Y-10128438D01*
X16494854Y-10141981D01*
X16489570Y-10154739D01*
X16481898Y-10166220D01*
X16472134Y-10175985D01*
X16460653Y-10183656D01*
X16447895Y-10188940D01*
X16434352Y-10191634D01*
X16420544Y-10191634D01*
X16407001Y-10188940D01*
X16394243Y-10183656D01*
X16382762Y-10175985D01*
X16372997Y-10166220D01*
X16365326Y-10154739D01*
X16360042Y-10141981D01*
X16357348Y-10128438D01*
X16357348Y-10114630D01*
X16360042Y-10101087D01*
X16365326Y-10088329D01*
X16372997Y-10076848D01*
X16382762Y-10067084D01*
X16394243Y-10059412D01*
X16407001Y-10054128D01*
X16420544Y-10051434D01*
X16434352Y-10051434D01*
X16447895Y-10054128D01*
X16447895Y-10054128D01*
G37*
G36*
X14923895Y-10054128D02*
G01*
X14936653Y-10059412D01*
X14948134Y-10067084D01*
X14957898Y-10076848D01*
X14965570Y-10088329D01*
X14970854Y-10101087D01*
X14973548Y-10114630D01*
X14973548Y-10128438D01*
X14970854Y-10141981D01*
X14965570Y-10154739D01*
X14957898Y-10166220D01*
X14948134Y-10175985D01*
X14936653Y-10183656D01*
X14923895Y-10188940D01*
X14910352Y-10191634D01*
X14896544Y-10191634D01*
X14883001Y-10188940D01*
X14870243Y-10183656D01*
X14858762Y-10175985D01*
X14848997Y-10166220D01*
X14841326Y-10154739D01*
X14836042Y-10141981D01*
X14833348Y-10128438D01*
X14833348Y-10114630D01*
X14836042Y-10101087D01*
X14841326Y-10088329D01*
X14848997Y-10076848D01*
X14858762Y-10067084D01*
X14870243Y-10059412D01*
X14883001Y-10054128D01*
X14896544Y-10051434D01*
X14910352Y-10051434D01*
X14923895Y-10054128D01*
X14923895Y-10054128D01*
G37*
G36*
X16707895Y-10049128D02*
G01*
X16720653Y-10054412D01*
X16732134Y-10062084D01*
X16741898Y-10071848D01*
X16749570Y-10083329D01*
X16754854Y-10096087D01*
X16757548Y-10109630D01*
X16757548Y-10123438D01*
X16754854Y-10136981D01*
X16749570Y-10149739D01*
X16741898Y-10161220D01*
X16732134Y-10170985D01*
X16720653Y-10178656D01*
X16707895Y-10183940D01*
X16694352Y-10186634D01*
X16680544Y-10186634D01*
X16667001Y-10183940D01*
X16654243Y-10178656D01*
X16642762Y-10170985D01*
X16632997Y-10161220D01*
X16625326Y-10149739D01*
X16620042Y-10136981D01*
X16617348Y-10123438D01*
X16617348Y-10109630D01*
X16620042Y-10096087D01*
X16625326Y-10083329D01*
X16632997Y-10071848D01*
X16642762Y-10062084D01*
X16654243Y-10054412D01*
X16667001Y-10049128D01*
X16680544Y-10046434D01*
X16694352Y-10046434D01*
X16707895Y-10049128D01*
X16707895Y-10049128D01*
G37*
G36*
X15437895Y-10049128D02*
G01*
X15450653Y-10054412D01*
X15462134Y-10062084D01*
X15471898Y-10071848D01*
X15479570Y-10083329D01*
X15484854Y-10096087D01*
X15487548Y-10109630D01*
X15487548Y-10123438D01*
X15484854Y-10136981D01*
X15479570Y-10149739D01*
X15471898Y-10161220D01*
X15462134Y-10170985D01*
X15450653Y-10178656D01*
X15437895Y-10183940D01*
X15424352Y-10186634D01*
X15410544Y-10186634D01*
X15397001Y-10183940D01*
X15384243Y-10178656D01*
X15372762Y-10170985D01*
X15362997Y-10161220D01*
X15355326Y-10149739D01*
X15350042Y-10136981D01*
X15347348Y-10123438D01*
X15347348Y-10109630D01*
X15350042Y-10096087D01*
X15355326Y-10083329D01*
X15362997Y-10071848D01*
X15372762Y-10062084D01*
X15384243Y-10054412D01*
X15397001Y-10049128D01*
X15410544Y-10046434D01*
X15424352Y-10046434D01*
X15437895Y-10049128D01*
X15437895Y-10049128D01*
G37*
G36*
X9842102Y-9962761D02*
G01*
X9854860Y-9968045D01*
X9866341Y-9975717D01*
X9876106Y-9985481D01*
X9883777Y-9996962D01*
X9889061Y-10009720D01*
X9891755Y-10023263D01*
X9891755Y-10037071D01*
X9889061Y-10050614D01*
X9883777Y-10063372D01*
X9876106Y-10074853D01*
X9866341Y-10084618D01*
X9854860Y-10092289D01*
X9842102Y-10097573D01*
X9828559Y-10100267D01*
X9814751Y-10100267D01*
X9801208Y-10097573D01*
X9788450Y-10092289D01*
X9776969Y-10084618D01*
X9767205Y-10074853D01*
X9759533Y-10063372D01*
X9754249Y-10050614D01*
X9751555Y-10037071D01*
X9751555Y-10023263D01*
X9754249Y-10009720D01*
X9759533Y-9996962D01*
X9767205Y-9985481D01*
X9776969Y-9975717D01*
X9788450Y-9968045D01*
X9801208Y-9962761D01*
X9814751Y-9960067D01*
X9828559Y-9960067D01*
X9842102Y-9962761D01*
X9842102Y-9962761D01*
G37*
G36*
X12636102Y-9962761D02*
G01*
X12648860Y-9968045D01*
X12660341Y-9975717D01*
X12670105Y-9985481D01*
X12677777Y-9996962D01*
X12683061Y-10009720D01*
X12685755Y-10023263D01*
X12685755Y-10037071D01*
X12683061Y-10050614D01*
X12677777Y-10063372D01*
X12670105Y-10074853D01*
X12660341Y-10084618D01*
X12648860Y-10092289D01*
X12636102Y-10097573D01*
X12622559Y-10100267D01*
X12608751Y-10100267D01*
X12595208Y-10097573D01*
X12582450Y-10092289D01*
X12570969Y-10084618D01*
X12561204Y-10074853D01*
X12553533Y-10063372D01*
X12548249Y-10050614D01*
X12545555Y-10037071D01*
X12545555Y-10023263D01*
X12548249Y-10009720D01*
X12553533Y-9996962D01*
X12561204Y-9985481D01*
X12570969Y-9975717D01*
X12582450Y-9968045D01*
X12595208Y-9962761D01*
X12608751Y-9960067D01*
X12622559Y-9960067D01*
X12636102Y-9962761D01*
X12636102Y-9962761D01*
G37*
G36*
X12377102Y-9956761D02*
G01*
X12389860Y-9962045D01*
X12401341Y-9969717D01*
X12411105Y-9979481D01*
X12418777Y-9990962D01*
X12424061Y-10003720D01*
X12426755Y-10017263D01*
X12426755Y-10031071D01*
X12424061Y-10044614D01*
X12418777Y-10057372D01*
X12411105Y-10068853D01*
X12401341Y-10078618D01*
X12389860Y-10086289D01*
X12377102Y-10091573D01*
X12363559Y-10094267D01*
X12349751Y-10094267D01*
X12336208Y-10091573D01*
X12323450Y-10086289D01*
X12311969Y-10078618D01*
X12302204Y-10068853D01*
X12294533Y-10057372D01*
X12289249Y-10044614D01*
X12286555Y-10031071D01*
X12286555Y-10017263D01*
X12289249Y-10003720D01*
X12294533Y-9990962D01*
X12302204Y-9979481D01*
X12311969Y-9969717D01*
X12323450Y-9962045D01*
X12336208Y-9956761D01*
X12349751Y-9954067D01*
X12363559Y-9954067D01*
X12377102Y-9956761D01*
X12377102Y-9956761D01*
G37*
G36*
X11874102Y-9956761D02*
G01*
X11886860Y-9962045D01*
X11898341Y-9969717D01*
X11908105Y-9979481D01*
X11915777Y-9990962D01*
X11921061Y-10003720D01*
X11923755Y-10017263D01*
X11923755Y-10031071D01*
X11921061Y-10044614D01*
X11915777Y-10057372D01*
X11908105Y-10068853D01*
X11898341Y-10078618D01*
X11886860Y-10086289D01*
X11874102Y-10091573D01*
X11860559Y-10094267D01*
X11846751Y-10094267D01*
X11833208Y-10091573D01*
X11820450Y-10086289D01*
X11808969Y-10078618D01*
X11799204Y-10068853D01*
X11791533Y-10057372D01*
X11786249Y-10044614D01*
X11783555Y-10031071D01*
X11783555Y-10017263D01*
X11786249Y-10003720D01*
X11791533Y-9990962D01*
X11799204Y-9979481D01*
X11808969Y-9969717D01*
X11820450Y-9962045D01*
X11833208Y-9956761D01*
X11846751Y-9954067D01*
X11860559Y-9954067D01*
X11874102Y-9956761D01*
X11874102Y-9956761D01*
G37*
G36*
X12123102Y-9956761D02*
G01*
X12135860Y-9962045D01*
X12147341Y-9969717D01*
X12157105Y-9979481D01*
X12164777Y-9990962D01*
X12170061Y-10003720D01*
X12172755Y-10017263D01*
X12172755Y-10031071D01*
X12170061Y-10044614D01*
X12164777Y-10057372D01*
X12157105Y-10068853D01*
X12147341Y-10078618D01*
X12135860Y-10086289D01*
X12123102Y-10091573D01*
X12109559Y-10094267D01*
X12095751Y-10094267D01*
X12082208Y-10091573D01*
X12069450Y-10086289D01*
X12057969Y-10078618D01*
X12048204Y-10068853D01*
X12040533Y-10057372D01*
X12035249Y-10044614D01*
X12032555Y-10031071D01*
X12032555Y-10017263D01*
X12035249Y-10003720D01*
X12040533Y-9990962D01*
X12048204Y-9979481D01*
X12057969Y-9969717D01*
X12069450Y-9962045D01*
X12082208Y-9956761D01*
X12095751Y-9954067D01*
X12109559Y-9954067D01*
X12123102Y-9956761D01*
X12123102Y-9956761D01*
G37*
G36*
X9837102Y-9702761D02*
G01*
X9849860Y-9708045D01*
X9861341Y-9715717D01*
X9871106Y-9725481D01*
X9878777Y-9736962D01*
X9884061Y-9749720D01*
X9886755Y-9763263D01*
X9886755Y-9777071D01*
X9884061Y-9790614D01*
X9878777Y-9803372D01*
X9871106Y-9814853D01*
X9861341Y-9824618D01*
X9849860Y-9832289D01*
X9837102Y-9837573D01*
X9823559Y-9840267D01*
X9809751Y-9840267D01*
X9796208Y-9837573D01*
X9783450Y-9832289D01*
X9771969Y-9824618D01*
X9762205Y-9814853D01*
X9754533Y-9803372D01*
X9749249Y-9790614D01*
X9746555Y-9777071D01*
X9746555Y-9763263D01*
X9749249Y-9749720D01*
X9754533Y-9736962D01*
X9762205Y-9725481D01*
X9771969Y-9715717D01*
X9783450Y-9708045D01*
X9796208Y-9702761D01*
X9809751Y-9700067D01*
X9823559Y-9700067D01*
X9837102Y-9702761D01*
X9837102Y-9702761D01*
G37*
G36*
X9842102Y-9462761D02*
G01*
X9854860Y-9468045D01*
X9866341Y-9475717D01*
X9876106Y-9485481D01*
X9883777Y-9496962D01*
X9889061Y-9509720D01*
X9891755Y-9523263D01*
X9891755Y-9537071D01*
X9889061Y-9550614D01*
X9883777Y-9563372D01*
X9876106Y-9574853D01*
X9866341Y-9584618D01*
X9854860Y-9592289D01*
X9842102Y-9597573D01*
X9828559Y-9600267D01*
X9814751Y-9600267D01*
X9801208Y-9597573D01*
X9788450Y-9592289D01*
X9776969Y-9584618D01*
X9767205Y-9574853D01*
X9759533Y-9563372D01*
X9754249Y-9550614D01*
X9751555Y-9537071D01*
X9751555Y-9523263D01*
X9754249Y-9509720D01*
X9759533Y-9496962D01*
X9767205Y-9485481D01*
X9776969Y-9475717D01*
X9788450Y-9468045D01*
X9801208Y-9462761D01*
X9814751Y-9460067D01*
X9828559Y-9460067D01*
X9842102Y-9462761D01*
X9842102Y-9462761D01*
G37*
G36*
X11874102Y-9454761D02*
G01*
X11886860Y-9460045D01*
X11898341Y-9467717D01*
X11908105Y-9477481D01*
X11915777Y-9488962D01*
X11921061Y-9501720D01*
X11923755Y-9515263D01*
X11923755Y-9529071D01*
X11921061Y-9542614D01*
X11915777Y-9555372D01*
X11908105Y-9566853D01*
X11898341Y-9576618D01*
X11886860Y-9584289D01*
X11874102Y-9589573D01*
X11860559Y-9592267D01*
X11846751Y-9592267D01*
X11833208Y-9589573D01*
X11820450Y-9584289D01*
X11808969Y-9576618D01*
X11799204Y-9566853D01*
X11791533Y-9555372D01*
X11786249Y-9542614D01*
X11783555Y-9529071D01*
X11783555Y-9515263D01*
X11786249Y-9501720D01*
X11791533Y-9488962D01*
X11799204Y-9477481D01*
X11808969Y-9467717D01*
X11820450Y-9460045D01*
X11833208Y-9454761D01*
X11846751Y-9452067D01*
X11860559Y-9452067D01*
X11874102Y-9454761D01*
X11874102Y-9454761D01*
G37*
G36*
X12123102Y-9448761D02*
G01*
X12135860Y-9454045D01*
X12147341Y-9461717D01*
X12157105Y-9471481D01*
X12164777Y-9482962D01*
X12170061Y-9495720D01*
X12172755Y-9509263D01*
X12172755Y-9523071D01*
X12170061Y-9536614D01*
X12164777Y-9549372D01*
X12157105Y-9560853D01*
X12147341Y-9570618D01*
X12135860Y-9578289D01*
X12123102Y-9583573D01*
X12109559Y-9586267D01*
X12095751Y-9586267D01*
X12082208Y-9583573D01*
X12069450Y-9578289D01*
X12057969Y-9570618D01*
X12048204Y-9560853D01*
X12040533Y-9549372D01*
X12035249Y-9536614D01*
X12032555Y-9523071D01*
X12032555Y-9509263D01*
X12035249Y-9495720D01*
X12040533Y-9482962D01*
X12048204Y-9471481D01*
X12057969Y-9461717D01*
X12069450Y-9454045D01*
X12082208Y-9448761D01*
X12095751Y-9446067D01*
X12109559Y-9446067D01*
X12123102Y-9448761D01*
X12123102Y-9448761D01*
G37*
G36*
X12377102Y-9448761D02*
G01*
X12389860Y-9454045D01*
X12401341Y-9461717D01*
X12411105Y-9471481D01*
X12418777Y-9482962D01*
X12424061Y-9495720D01*
X12426755Y-9509263D01*
X12426755Y-9523071D01*
X12424061Y-9536614D01*
X12418777Y-9549372D01*
X12411105Y-9560853D01*
X12401341Y-9570618D01*
X12389860Y-9578289D01*
X12377102Y-9583573D01*
X12363559Y-9586267D01*
X12349751Y-9586267D01*
X12336208Y-9583573D01*
X12323450Y-9578289D01*
X12311969Y-9570618D01*
X12302204Y-9560853D01*
X12294533Y-9549372D01*
X12289249Y-9536614D01*
X12286555Y-9523071D01*
X12286555Y-9509263D01*
X12289249Y-9495720D01*
X12294533Y-9482962D01*
X12302204Y-9471481D01*
X12311969Y-9461717D01*
X12323450Y-9454045D01*
X12336208Y-9448761D01*
X12349751Y-9446067D01*
X12363559Y-9446067D01*
X12377102Y-9448761D01*
X12377102Y-9448761D01*
G37*
G36*
X12123102Y-9194761D02*
G01*
X12135860Y-9200045D01*
X12147341Y-9207717D01*
X12157105Y-9217481D01*
X12164777Y-9228962D01*
X12170061Y-9241720D01*
X12172755Y-9255263D01*
X12172755Y-9269071D01*
X12170061Y-9282614D01*
X12164777Y-9295372D01*
X12157105Y-9306853D01*
X12147341Y-9316618D01*
X12135860Y-9324289D01*
X12123102Y-9329573D01*
X12109559Y-9332267D01*
X12095751Y-9332267D01*
X12082208Y-9329573D01*
X12069450Y-9324289D01*
X12057969Y-9316618D01*
X12048204Y-9306853D01*
X12040533Y-9295372D01*
X12035249Y-9282614D01*
X12032555Y-9269071D01*
X12032555Y-9255263D01*
X12035249Y-9241720D01*
X12040533Y-9228962D01*
X12048204Y-9217481D01*
X12057969Y-9207717D01*
X12069450Y-9200045D01*
X12082208Y-9194761D01*
X12095751Y-9192067D01*
X12109559Y-9192067D01*
X12123102Y-9194761D01*
X12123102Y-9194761D01*
G37*
G36*
X11869102Y-9194761D02*
G01*
X11881860Y-9200045D01*
X11893341Y-9207717D01*
X11903105Y-9217481D01*
X11910777Y-9228962D01*
X11916061Y-9241720D01*
X11918755Y-9255263D01*
X11918755Y-9269071D01*
X11916061Y-9282614D01*
X11910777Y-9295372D01*
X11903105Y-9306853D01*
X11893341Y-9316618D01*
X11881860Y-9324289D01*
X11869102Y-9329573D01*
X11855559Y-9332267D01*
X11841751Y-9332267D01*
X11828208Y-9329573D01*
X11815450Y-9324289D01*
X11803969Y-9316618D01*
X11794204Y-9306853D01*
X11786533Y-9295372D01*
X11781249Y-9282614D01*
X11778555Y-9269071D01*
X11778555Y-9255263D01*
X11781249Y-9241720D01*
X11786533Y-9228962D01*
X11794204Y-9217481D01*
X11803969Y-9207717D01*
X11815450Y-9200045D01*
X11828208Y-9194761D01*
X11841751Y-9192067D01*
X11855559Y-9192067D01*
X11869102Y-9194761D01*
X11869102Y-9194761D01*
G37*
G36*
X14923895Y-8784128D02*
G01*
X14936653Y-8789412D01*
X14948134Y-8797084D01*
X14957898Y-8806848D01*
X14965570Y-8818329D01*
X14970854Y-8831087D01*
X14973548Y-8844630D01*
X14973548Y-8858438D01*
X14970854Y-8871981D01*
X14965570Y-8884739D01*
X14957898Y-8896220D01*
X14948134Y-8905985D01*
X14936653Y-8913656D01*
X14923895Y-8918940D01*
X14910352Y-8921634D01*
X14896544Y-8921634D01*
X14883001Y-8918940D01*
X14870243Y-8913656D01*
X14858762Y-8905985D01*
X14848997Y-8896220D01*
X14841326Y-8884739D01*
X14836042Y-8871981D01*
X14833348Y-8858438D01*
X14833348Y-8844630D01*
X14836042Y-8831087D01*
X14841326Y-8818329D01*
X14848997Y-8806848D01*
X14858762Y-8797084D01*
X14870243Y-8789412D01*
X14883001Y-8784128D01*
X14896544Y-8781434D01*
X14910352Y-8781434D01*
X14923895Y-8784128D01*
X14923895Y-8784128D01*
G37*
G36*
X14669895Y-8784128D02*
G01*
X14682653Y-8789412D01*
X14694134Y-8797084D01*
X14703898Y-8806848D01*
X14711570Y-8818329D01*
X14716854Y-8831087D01*
X14719548Y-8844630D01*
X14719548Y-8858438D01*
X14716854Y-8871981D01*
X14711570Y-8884739D01*
X14703898Y-8896220D01*
X14694134Y-8905985D01*
X14682653Y-8913656D01*
X14669895Y-8918940D01*
X14656352Y-8921634D01*
X14642544Y-8921634D01*
X14629001Y-8918940D01*
X14616243Y-8913656D01*
X14604762Y-8905985D01*
X14594997Y-8896220D01*
X14587326Y-8884739D01*
X14582042Y-8871981D01*
X14579348Y-8858438D01*
X14579348Y-8844630D01*
X14582042Y-8831087D01*
X14587326Y-8818329D01*
X14594997Y-8806848D01*
X14604762Y-8797084D01*
X14616243Y-8789412D01*
X14629001Y-8784128D01*
X14642544Y-8781434D01*
X14656352Y-8781434D01*
X14669895Y-8784128D01*
X14669895Y-8784128D01*
G37*
G36*
X15177895Y-8022128D02*
G01*
X15190653Y-8027412D01*
X15202134Y-8035083D01*
X15211898Y-8044848D01*
X15219570Y-8056329D01*
X15224854Y-8069087D01*
X15227548Y-8082630D01*
X15227548Y-8096438D01*
X15224854Y-8109981D01*
X15219570Y-8122739D01*
X15211898Y-8134220D01*
X15202134Y-8143984D01*
X15190653Y-8151656D01*
X15177895Y-8156940D01*
X15164352Y-8159634D01*
X15150544Y-8159634D01*
X15137001Y-8156940D01*
X15124243Y-8151656D01*
X15112762Y-8143984D01*
X15102997Y-8134220D01*
X15095326Y-8122739D01*
X15090042Y-8109981D01*
X15087348Y-8096438D01*
X15087348Y-8082630D01*
X15090042Y-8069087D01*
X15095326Y-8056329D01*
X15102997Y-8044848D01*
X15112762Y-8035083D01*
X15124243Y-8027412D01*
X15137001Y-8022128D01*
X15150544Y-8019434D01*
X15164352Y-8019434D01*
X15177895Y-8022128D01*
X15177895Y-8022128D01*
G37*
G36*
X15439895Y-8022128D02*
G01*
X15452653Y-8027412D01*
X15464134Y-8035083D01*
X15473898Y-8044848D01*
X15481570Y-8056329D01*
X15486854Y-8069087D01*
X15489548Y-8082630D01*
X15489548Y-8096438D01*
X15486854Y-8109981D01*
X15481570Y-8122739D01*
X15473898Y-8134220D01*
X15464134Y-8143984D01*
X15452653Y-8151656D01*
X15439895Y-8156940D01*
X15426352Y-8159634D01*
X15412544Y-8159634D01*
X15399001Y-8156940D01*
X15386243Y-8151656D01*
X15374762Y-8143984D01*
X15364997Y-8134220D01*
X15357326Y-8122739D01*
X15352042Y-8109981D01*
X15349348Y-8096438D01*
X15349348Y-8082630D01*
X15352042Y-8069087D01*
X15357326Y-8056329D01*
X15364997Y-8044848D01*
X15374762Y-8035083D01*
X15386243Y-8027412D01*
X15399001Y-8022128D01*
X15412544Y-8019434D01*
X15426352Y-8019434D01*
X15439895Y-8022128D01*
X15439895Y-8022128D01*
G37*
G36*
X15939895Y-8022128D02*
G01*
X15952653Y-8027412D01*
X15964134Y-8035083D01*
X15973898Y-8044848D01*
X15981570Y-8056329D01*
X15986854Y-8069087D01*
X15989548Y-8082630D01*
X15989548Y-8096438D01*
X15986854Y-8109981D01*
X15981570Y-8122739D01*
X15973898Y-8134220D01*
X15964134Y-8143984D01*
X15952653Y-8151656D01*
X15939895Y-8156940D01*
X15926352Y-8159634D01*
X15912544Y-8159634D01*
X15899001Y-8156940D01*
X15886243Y-8151656D01*
X15874762Y-8143984D01*
X15864997Y-8134220D01*
X15857326Y-8122739D01*
X15852042Y-8109981D01*
X15849348Y-8096438D01*
X15849348Y-8082630D01*
X15852042Y-8069087D01*
X15857326Y-8056329D01*
X15864997Y-8044848D01*
X15874762Y-8035083D01*
X15886243Y-8027412D01*
X15899001Y-8022128D01*
X15912544Y-8019434D01*
X15926352Y-8019434D01*
X15939895Y-8022128D01*
X15939895Y-8022128D01*
G37*
G36*
X16439895Y-8022128D02*
G01*
X16452653Y-8027412D01*
X16464134Y-8035083D01*
X16473898Y-8044848D01*
X16481570Y-8056329D01*
X16486854Y-8069087D01*
X16489548Y-8082630D01*
X16489548Y-8096438D01*
X16486854Y-8109981D01*
X16481570Y-8122739D01*
X16473898Y-8134220D01*
X16464134Y-8143984D01*
X16452653Y-8151656D01*
X16439895Y-8156940D01*
X16426352Y-8159634D01*
X16412544Y-8159634D01*
X16399001Y-8156940D01*
X16386243Y-8151656D01*
X16374762Y-8143984D01*
X16364997Y-8134220D01*
X16357326Y-8122739D01*
X16352042Y-8109981D01*
X16349348Y-8096438D01*
X16349348Y-8082630D01*
X16352042Y-8069087D01*
X16357326Y-8056329D01*
X16364997Y-8044848D01*
X16374762Y-8035083D01*
X16386243Y-8027412D01*
X16399001Y-8022128D01*
X16412544Y-8019434D01*
X16426352Y-8019434D01*
X16439895Y-8022128D01*
X16439895Y-8022128D01*
G37*
G36*
X14923895Y-8022128D02*
G01*
X14936653Y-8027412D01*
X14948134Y-8035083D01*
X14957898Y-8044848D01*
X14965570Y-8056329D01*
X14970854Y-8069087D01*
X14973548Y-8082630D01*
X14973548Y-8096438D01*
X14970854Y-8109981D01*
X14965570Y-8122739D01*
X14957898Y-8134220D01*
X14948134Y-8143984D01*
X14936653Y-8151656D01*
X14923895Y-8156940D01*
X14910352Y-8159634D01*
X14896544Y-8159634D01*
X14883001Y-8156940D01*
X14870243Y-8151656D01*
X14858762Y-8143984D01*
X14848997Y-8134220D01*
X14841326Y-8122739D01*
X14836042Y-8109981D01*
X14833348Y-8096438D01*
X14833348Y-8082630D01*
X14836042Y-8069087D01*
X14841326Y-8056329D01*
X14848997Y-8044848D01*
X14858762Y-8035083D01*
X14870243Y-8027412D01*
X14883001Y-8022128D01*
X14896544Y-8019434D01*
X14910352Y-8019434D01*
X14923895Y-8022128D01*
X14923895Y-8022128D01*
G37*
G36*
X16199895Y-8017128D02*
G01*
X16212653Y-8022412D01*
X16224134Y-8030083D01*
X16233898Y-8039848D01*
X16241570Y-8051329D01*
X16246854Y-8064087D01*
X16249548Y-8077630D01*
X16249548Y-8091438D01*
X16246854Y-8104981D01*
X16241570Y-8117739D01*
X16233898Y-8129220D01*
X16224134Y-8138984D01*
X16212653Y-8146656D01*
X16199895Y-8151940D01*
X16186352Y-8154634D01*
X16172544Y-8154634D01*
X16159001Y-8151940D01*
X16146243Y-8146656D01*
X16134762Y-8138984D01*
X16124997Y-8129220D01*
X16117326Y-8117739D01*
X16112042Y-8104981D01*
X16109348Y-8091438D01*
X16109348Y-8077630D01*
X16112042Y-8064087D01*
X16117326Y-8051329D01*
X16124997Y-8039848D01*
X16134762Y-8030083D01*
X16146243Y-8022412D01*
X16159001Y-8017128D01*
X16172544Y-8014434D01*
X16186352Y-8014434D01*
X16199895Y-8017128D01*
X16199895Y-8017128D01*
G37*
G36*
X15691895Y-8017128D02*
G01*
X15704653Y-8022412D01*
X15716134Y-8030083D01*
X15725898Y-8039848D01*
X15733570Y-8051329D01*
X15738854Y-8064087D01*
X15741548Y-8077630D01*
X15741548Y-8091438D01*
X15738854Y-8104981D01*
X15733570Y-8117739D01*
X15725898Y-8129220D01*
X15716134Y-8138984D01*
X15704653Y-8146656D01*
X15691895Y-8151940D01*
X15678352Y-8154634D01*
X15664544Y-8154634D01*
X15651001Y-8151940D01*
X15638243Y-8146656D01*
X15626762Y-8138984D01*
X15616997Y-8129220D01*
X15609326Y-8117739D01*
X15604042Y-8104981D01*
X15601348Y-8091438D01*
X15601348Y-8077630D01*
X15604042Y-8064087D01*
X15609326Y-8051329D01*
X15616997Y-8039848D01*
X15626762Y-8030083D01*
X15638243Y-8022412D01*
X15651001Y-8017128D01*
X15664544Y-8014434D01*
X15678352Y-8014434D01*
X15691895Y-8017128D01*
X15691895Y-8017128D01*
G37*
M02*
