%TF.GenerationSoftware,KiCad,Pcbnew,5.1.3-ffb9f22~84~ubuntu18.04.1*%
%TF.CreationDate,2019-07-26T16:35:47+03:00*%
%TF.ProjectId,Des1_2_panel,44657331-5f32-45f7-9061-6e656c2e6b69,rev?*%
%TF.SameCoordinates,Original*%
%TF.FileFunction,Copper,L2,Bot*%
%TF.FilePolarity,Positive*%
%FSLAX45Y45*%
G04 Gerber Fmt 4.5, Leading zero omitted, Abs format (unit mm)*
G04 Created by KiCad (PCBNEW 5.1.3-ffb9f22~84~ubuntu18.04.1) date 2019-07-26 16:35:47*
%MOMM*%
%LPD*%
G04 APERTURE LIST*
%TA.AperFunction,ComponentPad*%
%ADD10C,1.300000*%
%TD*%
%TA.AperFunction,ViaPad*%
%ADD11C,0.400000*%
%TD*%
%TA.AperFunction,ViaPad*%
%ADD12C,0.609600*%
%TD*%
%TA.AperFunction,ViaPad*%
%ADD13C,0.500000*%
%TD*%
%TA.AperFunction,ViaPad*%
%ADD14C,0.660000*%
%TD*%
%TA.AperFunction,Conductor*%
%ADD15C,0.152400*%
%TD*%
%TA.AperFunction,Conductor*%
%ADD16C,0.254000*%
%TD*%
%TA.AperFunction,Conductor*%
%ADD17C,0.381000*%
%TD*%
%TA.AperFunction,NonConductor*%
%ADD18C,0.025400*%
%TD*%
G04 APERTURE END LIST*
D10*
%TO.P,U28,1*%
%TO.N,N/C*%
X14655448Y-10878534D03*
%TD*%
%TO.P,U29,1*%
%TO.N,N/C*%
X14649448Y-10121534D03*
%TD*%
%TO.P,U30,1*%
%TO.N,N/C*%
X14903448Y-10629534D03*
%TD*%
%TO.P,U7,1*%
%TO.N,N/C*%
X9821655Y-11046167D03*
%TD*%
%TO.P,U9,1*%
%TO.N,N/C*%
X12610655Y-11040167D03*
%TD*%
%TO.P,U10,1*%
%TO.N,N/C*%
X12356655Y-9516167D03*
%TD*%
%TO.P,U11,1*%
%TO.N,N/C*%
X12102655Y-10532167D03*
%TD*%
%TO.P,U25,1*%
%TO.N,N/C*%
X14655448Y-10624534D03*
%TD*%
%TO.P,U18,1*%
%TO.N,N/C*%
X15674448Y-10393534D03*
%TD*%
%TO.P,U21,1*%
%TO.N,N/C*%
X14909448Y-10370534D03*
%TD*%
%TO.P,U1,1*%
%TO.N,N/C*%
X16419448Y-8089534D03*
%TD*%
%TO.P,U2,1*%
%TO.N,N/C*%
X15419448Y-8089534D03*
%TD*%
%TO.P,U3,1*%
%TO.N,N/C*%
X16179448Y-8084534D03*
%TD*%
%TO.P,U102,1*%
%TO.N,N/C*%
X15925448Y-10121534D03*
%TD*%
%TO.P,U8,1*%
%TO.N,N/C*%
X10583655Y-11046167D03*
%TD*%
%TO.P,U23,1*%
%TO.N,N/C*%
X15919448Y-10883534D03*
%TD*%
%TO.P,U24,1*%
%TO.N,N/C*%
X14903448Y-11137534D03*
%TD*%
%TO.P,U27,1*%
%TO.N,N/C*%
X15671448Y-10878534D03*
%TD*%
%TO.P,U13,1*%
%TO.N,N/C*%
X15925448Y-10624534D03*
%TD*%
%TO.P,U9,1*%
%TO.N,N/C*%
X14909448Y-10878534D03*
%TD*%
%TO.P,U26,GND*%
%TO.N,N/C*%
X14649448Y-8851534D03*
%TD*%
%TO.P,U16,1*%
%TO.N,N/C*%
X12102655Y-9516167D03*
%TD*%
%TO.P,U17,1*%
%TO.N,N/C*%
X12356655Y-10532167D03*
%TD*%
%TO.P,U18,1*%
%TO.N,N/C*%
X12125655Y-10275167D03*
%TD*%
%TO.P,U21,1*%
%TO.N,N/C*%
X12102655Y-11040167D03*
%TD*%
%TO.P,U102,1*%
%TO.N,N/C*%
X12102655Y-10024167D03*
%TD*%
%TO.P,U23,1*%
%TO.N,N/C*%
X12615655Y-10030167D03*
%TD*%
%TO.P,U8,1*%
%TO.N,N/C*%
X14903448Y-8851534D03*
%TD*%
%TO.P,U20,1*%
%TO.N,N/C*%
X12356655Y-10278167D03*
%TD*%
%TO.P,U25,1*%
%TO.N,N/C*%
X12356655Y-11294167D03*
%TD*%
%TO.P,U7,1*%
%TO.N,N/C*%
X14903448Y-8089534D03*
%TD*%
%TO.P,U10,1*%
%TO.N,N/C*%
X16433448Y-10624534D03*
%TD*%
%TO.P,U11,1*%
%TO.N,N/C*%
X15417448Y-10370534D03*
%TD*%
%TO.P,U14,1*%
%TO.N,N/C*%
X15417448Y-10116534D03*
%TD*%
%TO.P,U1,1*%
%TO.N,N/C*%
X9821655Y-9530167D03*
%TD*%
%TO.P,U2,1*%
%TO.N,N/C*%
X9821655Y-10530167D03*
%TD*%
%TO.P,U3,1*%
%TO.N,N/C*%
X9816655Y-9770167D03*
%TD*%
%TO.P,U19,1*%
%TO.N,N/C*%
X11853655Y-9522167D03*
%TD*%
%TO.P,U4,1*%
%TO.N,N/C*%
X9821655Y-10030167D03*
%TD*%
%TO.P,U5,1*%
%TO.N,N/C*%
X9821655Y-10792167D03*
%TD*%
%TO.P,U6,1*%
%TO.N,N/C*%
X9816655Y-10278167D03*
%TD*%
%TO.P,U15,1*%
%TO.N,N/C*%
X16687448Y-10116534D03*
%TD*%
%TO.P,U16,1*%
%TO.N,N/C*%
X16433448Y-10370534D03*
%TD*%
%TO.P,U17,1*%
%TO.N,N/C*%
X15417448Y-10624534D03*
%TD*%
%TO.P,U4,1*%
%TO.N,N/C*%
X15919448Y-8089534D03*
%TD*%
%TO.P,U5,1*%
%TO.N,N/C*%
X15157448Y-8089534D03*
%TD*%
%TO.P,U6,1*%
%TO.N,N/C*%
X15671448Y-8084534D03*
%TD*%
%TO.P,U32,1*%
%TO.N,N/C*%
X14649448Y-10375534D03*
%TD*%
%TO.P,U29,1*%
%TO.N,N/C*%
X11853655Y-11300167D03*
%TD*%
%TO.P,U30,1*%
%TO.N,N/C*%
X12361655Y-11046167D03*
%TD*%
%TO.P,U32,1*%
%TO.N,N/C*%
X12107655Y-11300167D03*
%TD*%
%TO.P,U12,1*%
%TO.N,N/C*%
X12102655Y-9262167D03*
%TD*%
%TO.P,U13,1*%
%TO.N,N/C*%
X12356655Y-10024167D03*
%TD*%
%TO.P,U14,1*%
%TO.N,N/C*%
X11848655Y-10532167D03*
%TD*%
%TO.P,U15,1*%
%TO.N,N/C*%
X11848655Y-9262167D03*
%TD*%
%TO.P,U31,1*%
%TO.N,N/C*%
X12615655Y-10538167D03*
%TD*%
%TO.P,U33,1*%
%TO.N,N/C*%
X11853655Y-11046167D03*
%TD*%
%TO.P,U102,1*%
%TO.N,N/C*%
X15925448Y-10370534D03*
%TD*%
%TO.P,U31,1*%
%TO.N,N/C*%
X15411448Y-10883534D03*
%TD*%
%TO.P,U33,1*%
%TO.N,N/C*%
X14903448Y-10121534D03*
%TD*%
%TO.P,U26,GND*%
%TO.N,N/C*%
X10583655Y-11300167D03*
%TD*%
%TO.P,U102,1*%
%TO.N,N/C*%
X11853655Y-10024167D03*
%TD*%
%TO.P,U24,1*%
%TO.N,N/C*%
X12869655Y-11046167D03*
%TD*%
%TO.P,U27,1*%
%TO.N,N/C*%
X12610655Y-10278167D03*
%TD*%
%TO.P,U28,1*%
%TO.N,N/C*%
X12610655Y-11294167D03*
%TD*%
%TO.P,U12,1*%
%TO.N,N/C*%
X16687448Y-10370534D03*
%TD*%
%TO.P,U19,1*%
%TO.N,N/C*%
X16427448Y-10121534D03*
%TD*%
%TO.P,U20,1*%
%TO.N,N/C*%
X15671448Y-10624534D03*
%TD*%
D11*
%TO.N,*%
X17599448Y-9220553D03*
D12*
X16619648Y-8956043D03*
X16274648Y-8710043D03*
X16519393Y-8613686D03*
X16163648Y-8706043D03*
X16068648Y-8715043D03*
D11*
X17904248Y-10744553D03*
X17904248Y-10820753D03*
D12*
X15618648Y-8821043D03*
X15454648Y-8435043D03*
X15964648Y-8826043D03*
X15604648Y-8909043D03*
X16519393Y-8461286D03*
X16002648Y-8488043D03*
X15319909Y-8947359D03*
X14950000Y-8543509D03*
X15249648Y-8429043D03*
X15599648Y-8470043D03*
X14940648Y-9396043D03*
X14879648Y-9807043D03*
X16519648Y-9845043D03*
X16216648Y-9836043D03*
X16519648Y-9514043D03*
X16373648Y-9534043D03*
X16519648Y-9272043D03*
X15432282Y-9845592D03*
D11*
X17904248Y-9144353D03*
X17904248Y-9068153D03*
X17904248Y-8991953D03*
X17904248Y-8915753D03*
X17904248Y-8763353D03*
X17904248Y-8687153D03*
D13*
X18106848Y-10142163D03*
D11*
X17904248Y-10134953D03*
X17904248Y-10211153D03*
X17904248Y-10287353D03*
X17904248Y-10363553D03*
X17904248Y-10439753D03*
X17904248Y-9753953D03*
X17904248Y-8839553D03*
X17904248Y-9906353D03*
X17904248Y-9601553D03*
X17904248Y-10515953D03*
D12*
X11936805Y-10310936D03*
X15669582Y-10128164D03*
X15638679Y-10204684D03*
X16225448Y-9284534D03*
D11*
X17523248Y-9220553D03*
D12*
X10686155Y-9945850D03*
X11577713Y-10517333D03*
X10719793Y-10811574D03*
D11*
X17828048Y-9601553D03*
X17751848Y-9601553D03*
X17675648Y-9601553D03*
X17599448Y-9601553D03*
X17523248Y-9601553D03*
X17904248Y-9220553D03*
X17828048Y-9220553D03*
D12*
X16003765Y-8954034D03*
X14870648Y-9729043D03*
X15138041Y-8987672D03*
X11991252Y-10236623D03*
X11771257Y-10257213D03*
X11860285Y-10280033D03*
X15712992Y-10259131D03*
X15692402Y-10039136D03*
D11*
X17751848Y-9220553D03*
X17675648Y-9220553D03*
X17904248Y-10058753D03*
X17904248Y-9830153D03*
X17828048Y-7772753D03*
X17599448Y-7772753D03*
X17370848Y-7772753D03*
X17828048Y-8153753D03*
X17828048Y-8534753D03*
X17904248Y-11277953D03*
X17523248Y-11277953D03*
X14246648Y-11277953D03*
X14246648Y-10896953D03*
X14703848Y-11277953D03*
X14246648Y-7772753D03*
X14703848Y-7772753D03*
X14246648Y-8229953D03*
X17904248Y-10592153D03*
X17904248Y-10668353D03*
D14*
X15491042Y-9175372D03*
X15611041Y-9175372D03*
X15731041Y-9175372D03*
X15851041Y-9175372D03*
X15491042Y-9295372D03*
X15611041Y-9295372D03*
X15731041Y-9295372D03*
X15851041Y-9295372D03*
X15491042Y-9415372D03*
X15611041Y-9415372D03*
X15731041Y-9415372D03*
X15851041Y-9415372D03*
X15491042Y-9535372D03*
X15611041Y-9535372D03*
X15731041Y-9535372D03*
X15851041Y-9535372D03*
D12*
X16390648Y-9110043D03*
X16373648Y-9266043D03*
X16217648Y-9565043D03*
X15379302Y-9966132D03*
D11*
X17904248Y-9677753D03*
X17904248Y-9982553D03*
D12*
X15616648Y-8573043D03*
X14771871Y-8950657D03*
X15189679Y-8866616D03*
X15055920Y-8422088D03*
X14574157Y-8694488D03*
X15338302Y-9848132D03*
X15371322Y-9655372D03*
X14935648Y-9125043D03*
X15091922Y-8621312D03*
X16441648Y-9028043D03*
D11*
X10968674Y-8710367D03*
X11329674Y-8635367D03*
X11314674Y-9015367D03*
X10989674Y-9019367D03*
X10974674Y-9192367D03*
X11319674Y-9199367D03*
X11495674Y-8793367D03*
X11497674Y-8906367D03*
X13451264Y-11759768D03*
X13451264Y-11059768D03*
X13351264Y-8059768D03*
X13151264Y-8059768D03*
X12951264Y-8059768D03*
X13551264Y-8659768D03*
X11409874Y-8045367D03*
X11333674Y-8045367D03*
X11333674Y-8121567D03*
X11333674Y-8197767D03*
X11333674Y-8273967D03*
X11333674Y-8350167D03*
X11333674Y-8426367D03*
D12*
X11277592Y-9611451D03*
X11400264Y-10582768D03*
X11274264Y-9721768D03*
D11*
X11714674Y-8045367D03*
X10952674Y-8350167D03*
X10952674Y-8426367D03*
X10876474Y-8045367D03*
X10800274Y-8045367D03*
X10724074Y-8045367D03*
X10647874Y-8045367D03*
X10495474Y-8045367D03*
X10419274Y-8045367D03*
X11867074Y-8045367D03*
X11943274Y-8045367D03*
X12019474Y-8045367D03*
X12095674Y-8045367D03*
X12171874Y-8045367D03*
X11486074Y-8045367D03*
D12*
X10202264Y-9972768D03*
X10679480Y-10629706D03*
X10275630Y-10999615D03*
X10193413Y-10705293D03*
X10204264Y-10330768D03*
X11107813Y-10987233D03*
X11577713Y-11081213D03*
X11577713Y-9430213D03*
X11553264Y-9717768D03*
X11252264Y-9432768D03*
X10997264Y-9424768D03*
X10759823Y-9430224D03*
X10475335Y-9691850D03*
X10345807Y-9430222D03*
X10495664Y-9788362D03*
X10495664Y-9874722D03*
X10333264Y-10347768D03*
X10682778Y-11177744D03*
X10598737Y-10759936D03*
X10154209Y-10893695D03*
X10426609Y-11375458D03*
X11612264Y-10613768D03*
D11*
X9504874Y-11245767D03*
X9962074Y-11702967D03*
X12324274Y-8045367D03*
X12400474Y-8045367D03*
X12476674Y-8045367D03*
X12552874Y-8045367D03*
D12*
X11438013Y-11081213D03*
X11701264Y-10564768D03*
X10193413Y-10509713D03*
X10577735Y-9956010D03*
X10670924Y-10367482D03*
X10193407Y-9430222D03*
X10887847Y-10965698D03*
X10353433Y-10857693D03*
X10791264Y-9525768D03*
D14*
X10907493Y-10458573D03*
X10907493Y-10338574D03*
X10907493Y-10218574D03*
X10907493Y-10098574D03*
X11027493Y-10458573D03*
X11027493Y-10338574D03*
X11027493Y-10218574D03*
X11027493Y-10098574D03*
X11147493Y-10458573D03*
X11147493Y-10338574D03*
X11147493Y-10218574D03*
X11147493Y-10098574D03*
X11267493Y-10458573D03*
X11267493Y-10338574D03*
X11267493Y-10218574D03*
D11*
X10571674Y-8045367D03*
X11638474Y-8045367D03*
X12248074Y-8045367D03*
X10952674Y-8045367D03*
X10952674Y-8121567D03*
X10952674Y-8197767D03*
X10952674Y-8273967D03*
X11790874Y-8045367D03*
X11562274Y-8045367D03*
X9504874Y-8121567D03*
X9504874Y-8350167D03*
X9504874Y-8578767D03*
X9885874Y-8121567D03*
X10266874Y-8121567D03*
X13551264Y-8059768D03*
X13551264Y-8359768D03*
X13051264Y-11759768D03*
X12651264Y-11759768D03*
X13451264Y-11459768D03*
X9504874Y-11702967D03*
D14*
X11267493Y-10098574D03*
D12*
X10853264Y-9592768D03*
X10989264Y-9582768D03*
X11016655Y-9724167D03*
%TD*%
D15*
%TO.N,*%
X15638679Y-10253947D02*
X15638679Y-10204684D01*
X12269633Y-10366434D02*
X12041566Y-10366434D01*
X12269633Y-10366434D02*
X12357493Y-10278573D01*
D16*
X15170460Y-9020092D02*
X15937707Y-9020092D01*
D17*
X15300330Y-9713641D02*
X15432282Y-9845592D01*
X15138041Y-9211463D02*
X15300330Y-9373752D01*
X15300330Y-9713641D02*
X15300330Y-9373752D01*
D16*
X15937707Y-9020092D02*
X16003765Y-8954034D01*
X15138041Y-8987672D02*
X15170460Y-9020092D01*
X10752213Y-10779155D02*
X10752213Y-10011908D01*
D17*
X11445762Y-10649285D02*
X11577713Y-10517333D01*
X10943584Y-10811574D02*
X11105873Y-10649285D01*
X11445762Y-10649285D02*
X11105873Y-10649285D01*
D16*
X10752213Y-10011908D02*
X10686155Y-9945850D01*
X10719793Y-10811574D02*
X10752213Y-10779155D01*
D17*
X10943584Y-10811574D02*
X10719793Y-10811574D01*
X10579493Y-10951875D02*
X10719793Y-10811574D01*
X10579493Y-11040573D02*
X10579493Y-10951875D01*
X15138041Y-9211463D02*
X15138041Y-8987672D01*
X14997740Y-8847372D02*
X15138041Y-8987672D01*
X14909042Y-8847372D02*
X14997740Y-8847372D01*
D15*
X12061543Y-10236623D02*
X11991252Y-10236623D01*
X12103493Y-10278573D02*
X12061543Y-10236623D01*
X11771257Y-10301240D02*
X11771257Y-10257213D01*
X11878661Y-10408644D02*
X11771257Y-10301240D01*
X12487564Y-10408644D02*
X11878661Y-10408644D01*
X12611493Y-10532573D02*
X12487564Y-10408644D01*
X11860285Y-10280033D02*
X11998759Y-10141559D01*
X15808056Y-10766543D02*
X15808056Y-10266638D01*
X12628350Y-10271245D02*
X12498664Y-10141559D01*
X12498664Y-10141559D02*
X11998759Y-10141559D01*
X11986068Y-10310936D02*
X11936805Y-10310936D01*
X12041566Y-10366434D02*
X11986068Y-10310936D01*
X15712992Y-10329422D02*
X15712992Y-10259131D01*
X15671042Y-10371372D02*
X15712992Y-10329422D01*
X15648375Y-10039136D02*
X15692402Y-10039136D01*
X15540971Y-10146540D02*
X15648375Y-10039136D01*
X15540971Y-10755443D02*
X15540971Y-10146540D01*
X15417042Y-10879372D02*
X15540971Y-10755443D01*
X15583181Y-10309445D02*
X15638679Y-10253947D01*
X15583181Y-10537512D02*
X15583181Y-10309445D01*
X15583181Y-10537512D02*
X15671042Y-10625372D01*
X15669582Y-10128164D02*
X15808056Y-10266638D01*
X15678370Y-10896229D02*
X15808056Y-10766543D01*
%TD*%
D18*
G36*
X17979749Y-8948984D02*
G01*
X17979742Y-8948987D01*
X17979550Y-8949145D01*
X17979392Y-8949337D01*
X17979275Y-8949557D01*
X17979202Y-8949795D01*
X17979178Y-8950043D01*
X17979178Y-9525353D01*
X17979202Y-9525601D01*
X17979275Y-9525839D01*
X17979392Y-9526059D01*
X17979550Y-9526251D01*
X17979742Y-9526409D01*
X17979962Y-9526526D01*
X17980200Y-9526599D01*
X17980448Y-9526623D01*
X18129038Y-9526623D01*
X18129038Y-11083643D01*
X18129062Y-11083891D01*
X18129135Y-11084129D01*
X18129252Y-11084349D01*
X18129410Y-11084541D01*
X18129602Y-11084699D01*
X18129822Y-11084816D01*
X18130060Y-11084889D01*
X18130308Y-11084913D01*
X18131717Y-11084913D01*
X18131675Y-11338264D01*
X14171718Y-11338264D01*
X14171718Y-11127067D01*
X14797178Y-11127067D01*
X14797178Y-11148001D01*
X14801262Y-11168532D01*
X14809273Y-11187872D01*
X14820903Y-11205277D01*
X14835705Y-11220079D01*
X14853110Y-11231709D01*
X14872450Y-11239720D01*
X14892981Y-11243804D01*
X14913915Y-11243804D01*
X14934446Y-11239720D01*
X14953786Y-11231709D01*
X14971191Y-11220079D01*
X14985993Y-11205277D01*
X14997623Y-11187872D01*
X15005634Y-11168532D01*
X15009718Y-11148001D01*
X15009718Y-11127067D01*
X15005634Y-11106536D01*
X14997623Y-11087196D01*
X14985993Y-11069791D01*
X14971191Y-11054989D01*
X14953786Y-11043359D01*
X14934446Y-11035348D01*
X14913915Y-11031264D01*
X14892981Y-11031264D01*
X14872450Y-11035348D01*
X14853110Y-11043359D01*
X14835705Y-11054989D01*
X14820903Y-11069791D01*
X14809273Y-11087196D01*
X14801262Y-11106536D01*
X14797178Y-11127067D01*
X14171718Y-11127067D01*
X14171718Y-10868067D01*
X14549178Y-10868067D01*
X14549178Y-10889001D01*
X14553262Y-10909532D01*
X14561273Y-10928872D01*
X14572903Y-10946277D01*
X14587705Y-10961079D01*
X14605110Y-10972709D01*
X14624450Y-10980720D01*
X14644981Y-10984804D01*
X14665915Y-10984804D01*
X14686446Y-10980720D01*
X14705786Y-10972709D01*
X14723191Y-10961079D01*
X14737993Y-10946277D01*
X14749623Y-10928872D01*
X14757634Y-10909532D01*
X14761718Y-10889001D01*
X14761718Y-10868067D01*
X14803178Y-10868067D01*
X14803178Y-10889001D01*
X14807262Y-10909532D01*
X14815273Y-10928872D01*
X14826903Y-10946277D01*
X14841705Y-10961079D01*
X14859110Y-10972709D01*
X14878450Y-10980720D01*
X14898981Y-10984804D01*
X14919915Y-10984804D01*
X14940446Y-10980720D01*
X14959786Y-10972709D01*
X14977191Y-10961079D01*
X14991993Y-10946277D01*
X15003623Y-10928872D01*
X15011634Y-10909532D01*
X15015718Y-10889001D01*
X15015718Y-10873067D01*
X15305178Y-10873067D01*
X15305178Y-10894001D01*
X15309262Y-10914532D01*
X15317273Y-10933872D01*
X15328903Y-10951277D01*
X15343705Y-10966079D01*
X15361110Y-10977709D01*
X15380450Y-10985720D01*
X15400981Y-10989804D01*
X15421915Y-10989804D01*
X15442446Y-10985720D01*
X15461786Y-10977709D01*
X15479191Y-10966079D01*
X15493993Y-10951277D01*
X15505623Y-10933872D01*
X15513634Y-10914532D01*
X15517718Y-10894001D01*
X15517718Y-10873067D01*
X15513634Y-10852536D01*
X15513454Y-10852101D01*
X15573843Y-10791712D01*
X15575709Y-10790181D01*
X15581818Y-10782736D01*
X15586358Y-10774243D01*
X15587965Y-10768944D01*
X15589153Y-10765027D01*
X15590097Y-10755443D01*
X15589861Y-10753042D01*
X15589861Y-10693236D01*
X15603705Y-10707079D01*
X15621110Y-10718709D01*
X15640450Y-10726720D01*
X15660981Y-10730804D01*
X15681915Y-10730804D01*
X15702446Y-10726720D01*
X15721786Y-10718709D01*
X15739191Y-10707079D01*
X15753993Y-10692277D01*
X15759166Y-10684536D01*
X15759166Y-10746292D01*
X15721300Y-10784158D01*
X15702446Y-10776348D01*
X15681915Y-10772264D01*
X15660981Y-10772264D01*
X15640450Y-10776348D01*
X15621110Y-10784359D01*
X15603705Y-10795989D01*
X15588903Y-10810791D01*
X15577273Y-10828196D01*
X15569262Y-10847536D01*
X15565178Y-10868067D01*
X15565178Y-10889001D01*
X15569262Y-10909532D01*
X15577273Y-10928872D01*
X15588903Y-10946277D01*
X15603705Y-10961079D01*
X15621110Y-10972709D01*
X15640450Y-10980720D01*
X15660981Y-10984804D01*
X15681915Y-10984804D01*
X15702446Y-10980720D01*
X15721786Y-10972709D01*
X15739191Y-10961079D01*
X15753993Y-10946277D01*
X15765623Y-10928872D01*
X15773634Y-10909532D01*
X15777718Y-10889001D01*
X15777718Y-10873067D01*
X15813178Y-10873067D01*
X15813178Y-10894001D01*
X15817262Y-10914532D01*
X15825273Y-10933872D01*
X15836903Y-10951277D01*
X15851705Y-10966079D01*
X15869110Y-10977709D01*
X15888450Y-10985720D01*
X15908981Y-10989804D01*
X15929915Y-10989804D01*
X15950446Y-10985720D01*
X15969786Y-10977709D01*
X15987191Y-10966079D01*
X16001993Y-10951277D01*
X16013623Y-10933872D01*
X16021634Y-10914532D01*
X16025718Y-10894001D01*
X16025718Y-10873067D01*
X16021634Y-10852536D01*
X16013623Y-10833196D01*
X16001993Y-10815791D01*
X15987191Y-10800989D01*
X15969786Y-10789359D01*
X15950446Y-10781348D01*
X15929915Y-10777264D01*
X15908981Y-10777264D01*
X15888450Y-10781348D01*
X15869110Y-10789359D01*
X15851705Y-10800989D01*
X15836903Y-10815791D01*
X15825273Y-10833196D01*
X15817262Y-10852536D01*
X15813178Y-10873067D01*
X15777718Y-10873067D01*
X15777718Y-10868067D01*
X15777379Y-10866361D01*
X15840928Y-10802812D01*
X15842794Y-10801281D01*
X15848903Y-10793836D01*
X15853443Y-10785343D01*
X15855390Y-10778923D01*
X15856238Y-10776127D01*
X15857182Y-10766543D01*
X15856946Y-10764142D01*
X15856946Y-10706321D01*
X15857705Y-10707079D01*
X15875110Y-10718709D01*
X15894450Y-10726720D01*
X15914981Y-10730804D01*
X15935915Y-10730804D01*
X15956446Y-10726720D01*
X15975786Y-10718709D01*
X15993191Y-10707079D01*
X16007993Y-10692277D01*
X16019623Y-10674872D01*
X16027634Y-10655532D01*
X16031718Y-10635001D01*
X16031718Y-10614067D01*
X16327178Y-10614067D01*
X16327178Y-10635001D01*
X16331262Y-10655532D01*
X16339273Y-10674872D01*
X16350903Y-10692277D01*
X16365705Y-10707079D01*
X16383110Y-10718709D01*
X16402450Y-10726720D01*
X16422981Y-10730804D01*
X16443915Y-10730804D01*
X16464446Y-10726720D01*
X16483786Y-10718709D01*
X16501191Y-10707079D01*
X16515993Y-10692277D01*
X16527623Y-10674872D01*
X16535634Y-10655532D01*
X16539718Y-10635001D01*
X16539718Y-10614067D01*
X16535634Y-10593536D01*
X16527623Y-10574196D01*
X16515993Y-10556791D01*
X16501191Y-10541989D01*
X16483786Y-10530359D01*
X16464446Y-10522348D01*
X16443915Y-10518264D01*
X16422981Y-10518264D01*
X16402450Y-10522348D01*
X16383110Y-10530359D01*
X16365705Y-10541989D01*
X16350903Y-10556791D01*
X16339273Y-10574196D01*
X16331262Y-10593536D01*
X16327178Y-10614067D01*
X16031718Y-10614067D01*
X16027634Y-10593536D01*
X16019623Y-10574196D01*
X16007993Y-10556791D01*
X15993191Y-10541989D01*
X15975786Y-10530359D01*
X15956446Y-10522348D01*
X15935915Y-10518264D01*
X15914981Y-10518264D01*
X15894450Y-10522348D01*
X15875110Y-10530359D01*
X15857705Y-10541989D01*
X15856946Y-10542748D01*
X15856946Y-10452321D01*
X15857705Y-10453079D01*
X15875110Y-10464709D01*
X15894450Y-10472720D01*
X15914981Y-10476804D01*
X15935915Y-10476804D01*
X15956446Y-10472720D01*
X15975786Y-10464709D01*
X15993191Y-10453079D01*
X16007993Y-10438277D01*
X16019623Y-10420872D01*
X16027634Y-10401532D01*
X16031718Y-10381001D01*
X16031718Y-10360067D01*
X16327178Y-10360067D01*
X16327178Y-10381001D01*
X16331262Y-10401532D01*
X16339273Y-10420872D01*
X16350903Y-10438277D01*
X16365705Y-10453079D01*
X16383110Y-10464709D01*
X16402450Y-10472720D01*
X16422981Y-10476804D01*
X16443915Y-10476804D01*
X16464446Y-10472720D01*
X16483786Y-10464709D01*
X16501191Y-10453079D01*
X16515993Y-10438277D01*
X16527623Y-10420872D01*
X16535634Y-10401532D01*
X16539718Y-10381001D01*
X16539718Y-10360067D01*
X16581178Y-10360067D01*
X16581178Y-10381001D01*
X16585262Y-10401532D01*
X16593273Y-10420872D01*
X16604903Y-10438277D01*
X16619705Y-10453079D01*
X16637110Y-10464709D01*
X16656450Y-10472720D01*
X16676981Y-10476804D01*
X16697915Y-10476804D01*
X16718446Y-10472720D01*
X16737786Y-10464709D01*
X16755191Y-10453079D01*
X16769993Y-10438277D01*
X16781623Y-10420872D01*
X16789634Y-10401532D01*
X16793718Y-10381001D01*
X16793718Y-10360067D01*
X16789634Y-10339536D01*
X16781623Y-10320196D01*
X16769993Y-10302791D01*
X16755191Y-10287989D01*
X16737786Y-10276359D01*
X16718446Y-10268348D01*
X16697915Y-10264264D01*
X16676981Y-10264264D01*
X16656450Y-10268348D01*
X16637110Y-10276359D01*
X16619705Y-10287989D01*
X16604903Y-10302791D01*
X16593273Y-10320196D01*
X16585262Y-10339536D01*
X16581178Y-10360067D01*
X16539718Y-10360067D01*
X16535634Y-10339536D01*
X16527623Y-10320196D01*
X16515993Y-10302791D01*
X16501191Y-10287989D01*
X16483786Y-10276359D01*
X16464446Y-10268348D01*
X16443915Y-10264264D01*
X16422981Y-10264264D01*
X16402450Y-10268348D01*
X16383110Y-10276359D01*
X16365705Y-10287989D01*
X16350903Y-10302791D01*
X16339273Y-10320196D01*
X16331262Y-10339536D01*
X16327178Y-10360067D01*
X16031718Y-10360067D01*
X16027634Y-10339536D01*
X16019623Y-10320196D01*
X16007993Y-10302791D01*
X15993191Y-10287989D01*
X15975786Y-10276359D01*
X15956446Y-10268348D01*
X15935915Y-10264264D01*
X15914981Y-10264264D01*
X15894450Y-10268348D01*
X15875110Y-10276359D01*
X15857705Y-10287989D01*
X15856946Y-10288748D01*
X15856946Y-10269039D01*
X15857182Y-10266638D01*
X15856238Y-10257054D01*
X15853961Y-10249547D01*
X15853443Y-10247838D01*
X15848903Y-10239345D01*
X15842794Y-10231900D01*
X15840928Y-10230370D01*
X15741332Y-10130773D01*
X15741332Y-10121097D01*
X15739337Y-10111067D01*
X15819178Y-10111067D01*
X15819178Y-10132001D01*
X15823262Y-10152532D01*
X15831273Y-10171872D01*
X15842903Y-10189277D01*
X15857705Y-10204079D01*
X15875110Y-10215709D01*
X15894450Y-10223720D01*
X15914981Y-10227804D01*
X15935915Y-10227804D01*
X15956446Y-10223720D01*
X15975786Y-10215709D01*
X15993191Y-10204079D01*
X16007993Y-10189277D01*
X16019623Y-10171872D01*
X16027634Y-10152532D01*
X16031718Y-10132001D01*
X16031718Y-10111067D01*
X16321178Y-10111067D01*
X16321178Y-10132001D01*
X16325262Y-10152532D01*
X16333273Y-10171872D01*
X16344903Y-10189277D01*
X16359705Y-10204079D01*
X16377110Y-10215709D01*
X16396450Y-10223720D01*
X16416981Y-10227804D01*
X16437915Y-10227804D01*
X16458446Y-10223720D01*
X16477786Y-10215709D01*
X16495191Y-10204079D01*
X16509993Y-10189277D01*
X16521623Y-10171872D01*
X16529634Y-10152532D01*
X16533718Y-10132001D01*
X16533718Y-10111067D01*
X16532723Y-10106067D01*
X16581178Y-10106067D01*
X16581178Y-10127001D01*
X16585262Y-10147532D01*
X16593273Y-10166872D01*
X16604903Y-10184277D01*
X16619705Y-10199079D01*
X16637110Y-10210709D01*
X16656450Y-10218720D01*
X16676981Y-10222804D01*
X16697915Y-10222804D01*
X16718446Y-10218720D01*
X16737786Y-10210709D01*
X16755191Y-10199079D01*
X16769993Y-10184277D01*
X16781623Y-10166872D01*
X16789634Y-10147532D01*
X16793718Y-10127001D01*
X16793718Y-10106067D01*
X16789634Y-10085536D01*
X16781623Y-10066196D01*
X16769993Y-10048791D01*
X16755191Y-10033989D01*
X16737786Y-10022359D01*
X16718446Y-10014348D01*
X16697915Y-10010264D01*
X16676981Y-10010264D01*
X16656450Y-10014348D01*
X16637110Y-10022359D01*
X16619705Y-10033989D01*
X16604903Y-10048791D01*
X16593273Y-10066196D01*
X16585262Y-10085536D01*
X16581178Y-10106067D01*
X16532723Y-10106067D01*
X16529634Y-10090536D01*
X16521623Y-10071196D01*
X16509993Y-10053791D01*
X16495191Y-10038989D01*
X16477786Y-10027359D01*
X16458446Y-10019348D01*
X16437915Y-10015264D01*
X16416981Y-10015264D01*
X16396450Y-10019348D01*
X16377110Y-10027359D01*
X16359705Y-10038989D01*
X16344903Y-10053791D01*
X16333273Y-10071196D01*
X16325262Y-10090536D01*
X16321178Y-10111067D01*
X16031718Y-10111067D01*
X16027634Y-10090536D01*
X16019623Y-10071196D01*
X16007993Y-10053791D01*
X15993191Y-10038989D01*
X15975786Y-10027359D01*
X15956446Y-10019348D01*
X15935915Y-10015264D01*
X15914981Y-10015264D01*
X15894450Y-10019348D01*
X15875110Y-10027359D01*
X15857705Y-10038989D01*
X15842903Y-10053791D01*
X15831273Y-10071196D01*
X15823262Y-10090536D01*
X15819178Y-10111067D01*
X15739337Y-10111067D01*
X15738575Y-10107235D01*
X15734468Y-10097321D01*
X15738140Y-10094868D01*
X15748134Y-10084874D01*
X15755986Y-10073122D01*
X15761395Y-10060065D01*
X15764152Y-10046203D01*
X15764152Y-10032069D01*
X15761395Y-10018207D01*
X15755986Y-10005150D01*
X15748134Y-9993398D01*
X15738140Y-9983404D01*
X15726388Y-9975552D01*
X15713331Y-9970143D01*
X15699469Y-9967386D01*
X15685335Y-9967386D01*
X15671473Y-9970143D01*
X15658416Y-9975552D01*
X15646664Y-9983404D01*
X15639150Y-9990918D01*
X15638791Y-9990954D01*
X15635995Y-9991802D01*
X15629575Y-9993749D01*
X15621082Y-9998289D01*
X15613637Y-10004398D01*
X15612106Y-10006264D01*
X15521824Y-10096546D01*
X15519634Y-10085536D01*
X15511623Y-10066196D01*
X15499993Y-10048791D01*
X15485191Y-10033989D01*
X15467786Y-10022359D01*
X15448446Y-10014348D01*
X15427915Y-10010264D01*
X15406981Y-10010264D01*
X15386450Y-10014348D01*
X15367110Y-10022359D01*
X15349705Y-10033989D01*
X15334903Y-10048791D01*
X15323273Y-10066196D01*
X15315262Y-10085536D01*
X15311178Y-10106067D01*
X15311178Y-10127001D01*
X15315262Y-10147532D01*
X15323273Y-10166872D01*
X15334903Y-10184277D01*
X15349705Y-10199079D01*
X15367110Y-10210709D01*
X15386450Y-10218720D01*
X15406981Y-10222804D01*
X15427915Y-10222804D01*
X15448446Y-10218720D01*
X15467786Y-10210709D01*
X15485191Y-10199079D01*
X15492081Y-10192189D01*
X15492081Y-10294879D01*
X15485191Y-10287989D01*
X15467786Y-10276359D01*
X15448446Y-10268348D01*
X15427915Y-10264264D01*
X15406981Y-10264264D01*
X15386450Y-10268348D01*
X15367110Y-10276359D01*
X15349705Y-10287989D01*
X15334903Y-10302791D01*
X15323273Y-10320196D01*
X15315262Y-10339536D01*
X15311178Y-10360067D01*
X15311178Y-10381001D01*
X15315262Y-10401532D01*
X15323273Y-10420872D01*
X15334903Y-10438277D01*
X15349705Y-10453079D01*
X15367110Y-10464709D01*
X15386450Y-10472720D01*
X15406981Y-10476804D01*
X15427915Y-10476804D01*
X15448446Y-10472720D01*
X15467786Y-10464709D01*
X15485191Y-10453079D01*
X15492081Y-10446189D01*
X15492081Y-10548879D01*
X15485191Y-10541989D01*
X15467786Y-10530359D01*
X15448446Y-10522348D01*
X15427915Y-10518264D01*
X15406981Y-10518264D01*
X15386450Y-10522348D01*
X15367110Y-10530359D01*
X15349705Y-10541989D01*
X15334903Y-10556791D01*
X15323273Y-10574196D01*
X15315262Y-10593536D01*
X15311178Y-10614067D01*
X15311178Y-10635001D01*
X15315262Y-10655532D01*
X15323273Y-10674872D01*
X15334903Y-10692277D01*
X15349705Y-10707079D01*
X15367110Y-10718709D01*
X15386450Y-10726720D01*
X15406981Y-10730804D01*
X15427915Y-10730804D01*
X15448446Y-10726720D01*
X15467786Y-10718709D01*
X15485191Y-10707079D01*
X15492081Y-10700190D01*
X15492081Y-10735192D01*
X15444906Y-10782367D01*
X15442446Y-10781348D01*
X15421915Y-10777264D01*
X15400981Y-10777264D01*
X15380450Y-10781348D01*
X15361110Y-10789359D01*
X15343705Y-10800989D01*
X15328903Y-10815791D01*
X15317273Y-10833196D01*
X15309262Y-10852536D01*
X15305178Y-10873067D01*
X15015718Y-10873067D01*
X15015718Y-10868067D01*
X15011634Y-10847536D01*
X15003623Y-10828196D01*
X14991993Y-10810791D01*
X14977191Y-10795989D01*
X14959786Y-10784359D01*
X14940446Y-10776348D01*
X14919915Y-10772264D01*
X14898981Y-10772264D01*
X14878450Y-10776348D01*
X14859110Y-10784359D01*
X14841705Y-10795989D01*
X14826903Y-10810791D01*
X14815273Y-10828196D01*
X14807262Y-10847536D01*
X14803178Y-10868067D01*
X14761718Y-10868067D01*
X14757634Y-10847536D01*
X14749623Y-10828196D01*
X14737993Y-10810791D01*
X14723191Y-10795989D01*
X14705786Y-10784359D01*
X14686446Y-10776348D01*
X14665915Y-10772264D01*
X14644981Y-10772264D01*
X14624450Y-10776348D01*
X14605110Y-10784359D01*
X14587705Y-10795989D01*
X14572903Y-10810791D01*
X14561273Y-10828196D01*
X14553262Y-10847536D01*
X14549178Y-10868067D01*
X14171718Y-10868067D01*
X14171718Y-10614067D01*
X14549178Y-10614067D01*
X14549178Y-10635001D01*
X14553262Y-10655532D01*
X14561273Y-10674872D01*
X14572903Y-10692277D01*
X14587705Y-10707079D01*
X14605110Y-10718709D01*
X14624450Y-10726720D01*
X14644981Y-10730804D01*
X14665915Y-10730804D01*
X14686446Y-10726720D01*
X14705786Y-10718709D01*
X14723191Y-10707079D01*
X14737993Y-10692277D01*
X14749623Y-10674872D01*
X14757634Y-10655532D01*
X14761718Y-10635001D01*
X14761718Y-10619067D01*
X14797178Y-10619067D01*
X14797178Y-10640001D01*
X14801262Y-10660532D01*
X14809273Y-10679872D01*
X14820903Y-10697277D01*
X14835705Y-10712079D01*
X14853110Y-10723709D01*
X14872450Y-10731720D01*
X14892981Y-10735804D01*
X14913915Y-10735804D01*
X14934446Y-10731720D01*
X14953786Y-10723709D01*
X14971191Y-10712079D01*
X14985993Y-10697277D01*
X14997623Y-10679872D01*
X15005634Y-10660532D01*
X15009718Y-10640001D01*
X15009718Y-10619067D01*
X15005634Y-10598536D01*
X14997623Y-10579196D01*
X14985993Y-10561791D01*
X14971191Y-10546989D01*
X14953786Y-10535359D01*
X14934446Y-10527348D01*
X14913915Y-10523264D01*
X14892981Y-10523264D01*
X14872450Y-10527348D01*
X14853110Y-10535359D01*
X14835705Y-10546989D01*
X14820903Y-10561791D01*
X14809273Y-10579196D01*
X14801262Y-10598536D01*
X14797178Y-10619067D01*
X14761718Y-10619067D01*
X14761718Y-10614067D01*
X14757634Y-10593536D01*
X14749623Y-10574196D01*
X14737993Y-10556791D01*
X14723191Y-10541989D01*
X14705786Y-10530359D01*
X14686446Y-10522348D01*
X14665915Y-10518264D01*
X14644981Y-10518264D01*
X14624450Y-10522348D01*
X14605110Y-10530359D01*
X14587705Y-10541989D01*
X14572903Y-10556791D01*
X14561273Y-10574196D01*
X14553262Y-10593536D01*
X14549178Y-10614067D01*
X14171718Y-10614067D01*
X14171718Y-10365067D01*
X14543178Y-10365067D01*
X14543178Y-10386001D01*
X14547262Y-10406532D01*
X14555273Y-10425872D01*
X14566903Y-10443277D01*
X14581705Y-10458079D01*
X14599110Y-10469709D01*
X14618450Y-10477720D01*
X14638981Y-10481804D01*
X14659915Y-10481804D01*
X14680446Y-10477720D01*
X14699786Y-10469709D01*
X14717191Y-10458079D01*
X14731993Y-10443277D01*
X14743623Y-10425872D01*
X14751634Y-10406532D01*
X14755718Y-10386001D01*
X14755718Y-10365067D01*
X14754723Y-10360067D01*
X14803178Y-10360067D01*
X14803178Y-10381001D01*
X14807262Y-10401532D01*
X14815273Y-10420872D01*
X14826903Y-10438277D01*
X14841705Y-10453079D01*
X14859110Y-10464709D01*
X14878450Y-10472720D01*
X14898981Y-10476804D01*
X14919915Y-10476804D01*
X14940446Y-10472720D01*
X14959786Y-10464709D01*
X14977191Y-10453079D01*
X14991993Y-10438277D01*
X15003623Y-10420872D01*
X15011634Y-10401532D01*
X15015718Y-10381001D01*
X15015718Y-10360067D01*
X15011634Y-10339536D01*
X15003623Y-10320196D01*
X14991993Y-10302791D01*
X14977191Y-10287989D01*
X14959786Y-10276359D01*
X14940446Y-10268348D01*
X14919915Y-10264264D01*
X14898981Y-10264264D01*
X14878450Y-10268348D01*
X14859110Y-10276359D01*
X14841705Y-10287989D01*
X14826903Y-10302791D01*
X14815273Y-10320196D01*
X14807262Y-10339536D01*
X14803178Y-10360067D01*
X14754723Y-10360067D01*
X14751634Y-10344536D01*
X14743623Y-10325196D01*
X14731993Y-10307791D01*
X14717191Y-10292989D01*
X14699786Y-10281359D01*
X14680446Y-10273348D01*
X14659915Y-10269264D01*
X14638981Y-10269264D01*
X14618450Y-10273348D01*
X14599110Y-10281359D01*
X14581705Y-10292989D01*
X14566903Y-10307791D01*
X14555273Y-10325196D01*
X14547262Y-10344536D01*
X14543178Y-10365067D01*
X14171718Y-10365067D01*
X14171718Y-10111067D01*
X14543178Y-10111067D01*
X14543178Y-10132001D01*
X14547262Y-10152532D01*
X14555273Y-10171872D01*
X14566903Y-10189277D01*
X14581705Y-10204079D01*
X14599110Y-10215709D01*
X14618450Y-10223720D01*
X14638981Y-10227804D01*
X14659915Y-10227804D01*
X14680446Y-10223720D01*
X14699786Y-10215709D01*
X14717191Y-10204079D01*
X14731993Y-10189277D01*
X14743623Y-10171872D01*
X14751634Y-10152532D01*
X14755718Y-10132001D01*
X14755718Y-10111067D01*
X14797178Y-10111067D01*
X14797178Y-10132001D01*
X14801262Y-10152532D01*
X14809273Y-10171872D01*
X14820903Y-10189277D01*
X14835705Y-10204079D01*
X14853110Y-10215709D01*
X14872450Y-10223720D01*
X14892981Y-10227804D01*
X14913915Y-10227804D01*
X14934446Y-10223720D01*
X14953786Y-10215709D01*
X14971191Y-10204079D01*
X14985993Y-10189277D01*
X14997623Y-10171872D01*
X15005634Y-10152532D01*
X15009718Y-10132001D01*
X15009718Y-10111067D01*
X15005634Y-10090536D01*
X14997623Y-10071196D01*
X14985993Y-10053791D01*
X14971191Y-10038989D01*
X14953786Y-10027359D01*
X14934446Y-10019348D01*
X14913915Y-10015264D01*
X14892981Y-10015264D01*
X14872450Y-10019348D01*
X14853110Y-10027359D01*
X14835705Y-10038989D01*
X14820903Y-10053791D01*
X14809273Y-10071196D01*
X14801262Y-10090536D01*
X14797178Y-10111067D01*
X14755718Y-10111067D01*
X14751634Y-10090536D01*
X14743623Y-10071196D01*
X14731993Y-10053791D01*
X14717191Y-10038989D01*
X14699786Y-10027359D01*
X14680446Y-10019348D01*
X14659915Y-10015264D01*
X14638981Y-10015264D01*
X14618450Y-10019348D01*
X14599110Y-10027359D01*
X14581705Y-10038989D01*
X14566903Y-10053791D01*
X14555273Y-10071196D01*
X14547262Y-10090536D01*
X14543178Y-10111067D01*
X14171718Y-10111067D01*
X14171718Y-8841067D01*
X14797178Y-8841067D01*
X14797178Y-8862001D01*
X14801262Y-8882532D01*
X14809273Y-8901872D01*
X14820903Y-8919277D01*
X14835705Y-8934079D01*
X14853110Y-8945709D01*
X14872450Y-8953720D01*
X14892981Y-8957804D01*
X14913915Y-8957804D01*
X14934446Y-8953720D01*
X14953786Y-8945709D01*
X14971191Y-8934079D01*
X14985167Y-8920104D01*
X15067902Y-9002839D01*
X15069048Y-9008601D01*
X15074457Y-9021658D01*
X15077721Y-9026544D01*
X15077721Y-9208501D01*
X15077429Y-9211463D01*
X15077721Y-9214425D01*
X15077721Y-9214426D01*
X15078594Y-9223288D01*
X15082043Y-9234658D01*
X15082043Y-9234658D01*
X15087644Y-9245137D01*
X15090170Y-9248215D01*
X15095182Y-9254322D01*
X15097484Y-9256211D01*
X15240010Y-9398737D01*
X15240010Y-9710679D01*
X15239718Y-9713641D01*
X15240010Y-9716603D01*
X15240010Y-9716604D01*
X15240883Y-9725466D01*
X15244332Y-9736836D01*
X15249933Y-9747315D01*
X15257471Y-9756500D01*
X15259773Y-9758389D01*
X15362143Y-9860759D01*
X15363289Y-9866521D01*
X15368698Y-9879578D01*
X15376550Y-9891330D01*
X15386544Y-9901324D01*
X15398296Y-9909176D01*
X15411353Y-9914585D01*
X15425215Y-9917342D01*
X15439349Y-9917342D01*
X15453211Y-9914585D01*
X15466268Y-9909176D01*
X15478020Y-9901324D01*
X15488014Y-9891330D01*
X15495866Y-9879578D01*
X15501275Y-9866521D01*
X15504032Y-9852659D01*
X15504032Y-9838525D01*
X15501275Y-9824663D01*
X15495866Y-9811606D01*
X15488014Y-9799854D01*
X15478020Y-9789860D01*
X15466268Y-9782008D01*
X15453211Y-9776599D01*
X15447448Y-9775453D01*
X15360650Y-9688656D01*
X15360650Y-9376714D01*
X15360942Y-9373752D01*
X15360650Y-9370790D01*
X15360650Y-9370789D01*
X15359777Y-9361927D01*
X15356328Y-9350557D01*
X15353721Y-9345679D01*
X15350727Y-9340078D01*
X15345078Y-9333194D01*
X15343189Y-9330893D01*
X15340887Y-9329004D01*
X15198361Y-9186478D01*
X15198361Y-9074062D01*
X15935056Y-9074062D01*
X15937707Y-9074323D01*
X15940358Y-9074062D01*
X15940358Y-9074062D01*
X15948287Y-9073281D01*
X15958460Y-9070195D01*
X15967836Y-9065184D01*
X15976054Y-9058439D01*
X15977745Y-9056379D01*
X16008340Y-9025784D01*
X16010832Y-9025784D01*
X16024694Y-9023027D01*
X16037751Y-9017618D01*
X16049503Y-9009766D01*
X16059497Y-8999772D01*
X16067349Y-8988020D01*
X16072758Y-8974963D01*
X16075515Y-8961101D01*
X16075515Y-8946967D01*
X16072758Y-8933105D01*
X16067349Y-8920048D01*
X16059497Y-8908296D01*
X16049503Y-8898302D01*
X16037751Y-8890450D01*
X16024694Y-8885041D01*
X16010832Y-8882284D01*
X15996698Y-8882284D01*
X15982836Y-8885041D01*
X15969779Y-8890450D01*
X15958027Y-8898302D01*
X15948033Y-8908296D01*
X15940181Y-8920048D01*
X15934772Y-8933105D01*
X15932015Y-8946967D01*
X15932015Y-8949459D01*
X15915352Y-8966122D01*
X15206776Y-8966122D01*
X15201625Y-8953686D01*
X15193773Y-8941934D01*
X15183779Y-8931940D01*
X15172027Y-8924088D01*
X15158970Y-8918679D01*
X15153207Y-8917533D01*
X15042488Y-8806814D01*
X15040599Y-8804513D01*
X15031414Y-8796975D01*
X15020935Y-8791374D01*
X15009565Y-8787925D01*
X15000703Y-8787052D01*
X15000702Y-8787052D01*
X14997740Y-8786760D01*
X14994778Y-8787052D01*
X14988172Y-8787052D01*
X14985993Y-8783791D01*
X14971191Y-8768989D01*
X14953786Y-8757359D01*
X14934446Y-8749348D01*
X14913915Y-8745264D01*
X14892981Y-8745264D01*
X14872450Y-8749348D01*
X14853110Y-8757359D01*
X14835705Y-8768989D01*
X14820903Y-8783791D01*
X14809273Y-8801196D01*
X14801262Y-8820536D01*
X14797178Y-8841067D01*
X14171718Y-8841067D01*
X14171718Y-8079067D01*
X14797178Y-8079067D01*
X14797178Y-8100001D01*
X14801262Y-8120532D01*
X14809273Y-8139872D01*
X14820903Y-8157277D01*
X14835705Y-8172079D01*
X14853110Y-8183709D01*
X14872450Y-8191720D01*
X14892981Y-8195804D01*
X14913915Y-8195804D01*
X14934446Y-8191720D01*
X14953786Y-8183709D01*
X14971191Y-8172079D01*
X14985993Y-8157277D01*
X14997623Y-8139872D01*
X15005634Y-8120532D01*
X15009718Y-8100001D01*
X15009718Y-8079067D01*
X15051178Y-8079067D01*
X15051178Y-8100001D01*
X15055262Y-8120532D01*
X15063273Y-8139872D01*
X15074903Y-8157277D01*
X15089705Y-8172079D01*
X15107110Y-8183709D01*
X15126450Y-8191720D01*
X15146981Y-8195804D01*
X15167915Y-8195804D01*
X15188446Y-8191720D01*
X15207786Y-8183709D01*
X15225191Y-8172079D01*
X15239993Y-8157277D01*
X15251623Y-8139872D01*
X15259634Y-8120532D01*
X15263718Y-8100001D01*
X15263718Y-8079067D01*
X15313178Y-8079067D01*
X15313178Y-8100001D01*
X15317262Y-8120532D01*
X15325273Y-8139872D01*
X15336903Y-8157277D01*
X15351705Y-8172079D01*
X15369110Y-8183709D01*
X15388450Y-8191720D01*
X15408981Y-8195804D01*
X15429915Y-8195804D01*
X15450446Y-8191720D01*
X15469786Y-8183709D01*
X15487191Y-8172079D01*
X15501993Y-8157277D01*
X15513623Y-8139872D01*
X15521634Y-8120532D01*
X15525718Y-8100001D01*
X15525718Y-8079067D01*
X15524723Y-8074067D01*
X15565178Y-8074067D01*
X15565178Y-8095001D01*
X15569262Y-8115532D01*
X15577273Y-8134872D01*
X15588903Y-8152277D01*
X15603705Y-8167079D01*
X15621110Y-8178709D01*
X15640450Y-8186720D01*
X15660981Y-8190804D01*
X15681915Y-8190804D01*
X15702446Y-8186720D01*
X15721786Y-8178709D01*
X15739191Y-8167079D01*
X15753993Y-8152277D01*
X15765623Y-8134872D01*
X15773634Y-8115532D01*
X15777718Y-8095001D01*
X15777718Y-8079067D01*
X15813178Y-8079067D01*
X15813178Y-8100001D01*
X15817262Y-8120532D01*
X15825273Y-8139872D01*
X15836903Y-8157277D01*
X15851705Y-8172079D01*
X15869110Y-8183709D01*
X15888450Y-8191720D01*
X15908981Y-8195804D01*
X15929915Y-8195804D01*
X15950446Y-8191720D01*
X15969786Y-8183709D01*
X15987191Y-8172079D01*
X16001993Y-8157277D01*
X16013623Y-8139872D01*
X16021634Y-8120532D01*
X16025718Y-8100001D01*
X16025718Y-8079067D01*
X16024723Y-8074067D01*
X16073178Y-8074067D01*
X16073178Y-8095001D01*
X16077262Y-8115532D01*
X16085273Y-8134872D01*
X16096903Y-8152277D01*
X16111705Y-8167079D01*
X16129110Y-8178709D01*
X16148450Y-8186720D01*
X16168981Y-8190804D01*
X16189915Y-8190804D01*
X16210446Y-8186720D01*
X16229786Y-8178709D01*
X16247191Y-8167079D01*
X16261993Y-8152277D01*
X16273623Y-8134872D01*
X16281634Y-8115532D01*
X16285718Y-8095001D01*
X16285718Y-8079067D01*
X16313178Y-8079067D01*
X16313178Y-8100001D01*
X16317262Y-8120532D01*
X16325273Y-8139872D01*
X16336903Y-8157277D01*
X16351705Y-8172079D01*
X16369110Y-8183709D01*
X16388450Y-8191720D01*
X16408981Y-8195804D01*
X16429915Y-8195804D01*
X16450446Y-8191720D01*
X16469786Y-8183709D01*
X16487191Y-8172079D01*
X16501993Y-8157277D01*
X16513623Y-8139872D01*
X16521634Y-8120532D01*
X16525718Y-8100001D01*
X16525718Y-8079067D01*
X16521634Y-8058536D01*
X16513623Y-8039196D01*
X16501993Y-8021791D01*
X16487191Y-8006989D01*
X16469786Y-7995359D01*
X16450446Y-7987348D01*
X16429915Y-7983264D01*
X16408981Y-7983264D01*
X16388450Y-7987348D01*
X16369110Y-7995359D01*
X16351705Y-8006989D01*
X16336903Y-8021791D01*
X16325273Y-8039196D01*
X16317262Y-8058536D01*
X16313178Y-8079067D01*
X16285718Y-8079067D01*
X16285718Y-8074067D01*
X16281634Y-8053536D01*
X16273623Y-8034196D01*
X16261993Y-8016791D01*
X16247191Y-8001989D01*
X16229786Y-7990359D01*
X16210446Y-7982348D01*
X16189915Y-7978264D01*
X16168981Y-7978264D01*
X16148450Y-7982348D01*
X16129110Y-7990359D01*
X16111705Y-8001989D01*
X16096903Y-8016791D01*
X16085273Y-8034196D01*
X16077262Y-8053536D01*
X16073178Y-8074067D01*
X16024723Y-8074067D01*
X16021634Y-8058536D01*
X16013623Y-8039196D01*
X16001993Y-8021791D01*
X15987191Y-8006989D01*
X15969786Y-7995359D01*
X15950446Y-7987348D01*
X15929915Y-7983264D01*
X15908981Y-7983264D01*
X15888450Y-7987348D01*
X15869110Y-7995359D01*
X15851705Y-8006989D01*
X15836903Y-8021791D01*
X15825273Y-8039196D01*
X15817262Y-8058536D01*
X15813178Y-8079067D01*
X15777718Y-8079067D01*
X15777718Y-8074067D01*
X15773634Y-8053536D01*
X15765623Y-8034196D01*
X15753993Y-8016791D01*
X15739191Y-8001989D01*
X15721786Y-7990359D01*
X15702446Y-7982348D01*
X15681915Y-7978264D01*
X15660981Y-7978264D01*
X15640450Y-7982348D01*
X15621110Y-7990359D01*
X15603705Y-8001989D01*
X15588903Y-8016791D01*
X15577273Y-8034196D01*
X15569262Y-8053536D01*
X15565178Y-8074067D01*
X15524723Y-8074067D01*
X15521634Y-8058536D01*
X15513623Y-8039196D01*
X15501993Y-8021791D01*
X15487191Y-8006989D01*
X15469786Y-7995359D01*
X15450446Y-7987348D01*
X15429915Y-7983264D01*
X15408981Y-7983264D01*
X15388450Y-7987348D01*
X15369110Y-7995359D01*
X15351705Y-8006989D01*
X15336903Y-8021791D01*
X15325273Y-8039196D01*
X15317262Y-8058536D01*
X15313178Y-8079067D01*
X15263718Y-8079067D01*
X15259634Y-8058536D01*
X15251623Y-8039196D01*
X15239993Y-8021791D01*
X15225191Y-8006989D01*
X15207786Y-7995359D01*
X15188446Y-7987348D01*
X15167915Y-7983264D01*
X15146981Y-7983264D01*
X15126450Y-7987348D01*
X15107110Y-7995359D01*
X15089705Y-8006989D01*
X15074903Y-8021791D01*
X15063273Y-8039196D01*
X15055262Y-8058536D01*
X15051178Y-8079067D01*
X15009718Y-8079067D01*
X15005634Y-8058536D01*
X14997623Y-8039196D01*
X14985993Y-8021791D01*
X14971191Y-8006989D01*
X14953786Y-7995359D01*
X14934446Y-7987348D01*
X14913915Y-7983264D01*
X14892981Y-7983264D01*
X14872450Y-7987348D01*
X14853110Y-7995359D01*
X14835705Y-8006989D01*
X14820903Y-8021791D01*
X14809273Y-8039196D01*
X14801262Y-8058536D01*
X14797178Y-8079067D01*
X14171718Y-8079067D01*
X14171718Y-7730804D01*
X17979264Y-7730804D01*
X17979749Y-8948984D01*
X17979749Y-8948984D01*
G37*
X17979749Y-8948984D02*
X17979742Y-8948987D01*
X17979550Y-8949145D01*
X17979392Y-8949337D01*
X17979275Y-8949557D01*
X17979202Y-8949795D01*
X17979178Y-8950043D01*
X17979178Y-9525353D01*
X17979202Y-9525601D01*
X17979275Y-9525839D01*
X17979392Y-9526059D01*
X17979550Y-9526251D01*
X17979742Y-9526409D01*
X17979962Y-9526526D01*
X17980200Y-9526599D01*
X17980448Y-9526623D01*
X18129038Y-9526623D01*
X18129038Y-11083643D01*
X18129062Y-11083891D01*
X18129135Y-11084129D01*
X18129252Y-11084349D01*
X18129410Y-11084541D01*
X18129602Y-11084699D01*
X18129822Y-11084816D01*
X18130060Y-11084889D01*
X18130308Y-11084913D01*
X18131717Y-11084913D01*
X18131675Y-11338264D01*
X14171718Y-11338264D01*
X14171718Y-11127067D01*
X14797178Y-11127067D01*
X14797178Y-11148001D01*
X14801262Y-11168532D01*
X14809273Y-11187872D01*
X14820903Y-11205277D01*
X14835705Y-11220079D01*
X14853110Y-11231709D01*
X14872450Y-11239720D01*
X14892981Y-11243804D01*
X14913915Y-11243804D01*
X14934446Y-11239720D01*
X14953786Y-11231709D01*
X14971191Y-11220079D01*
X14985993Y-11205277D01*
X14997623Y-11187872D01*
X15005634Y-11168532D01*
X15009718Y-11148001D01*
X15009718Y-11127067D01*
X15005634Y-11106536D01*
X14997623Y-11087196D01*
X14985993Y-11069791D01*
X14971191Y-11054989D01*
X14953786Y-11043359D01*
X14934446Y-11035348D01*
X14913915Y-11031264D01*
X14892981Y-11031264D01*
X14872450Y-11035348D01*
X14853110Y-11043359D01*
X14835705Y-11054989D01*
X14820903Y-11069791D01*
X14809273Y-11087196D01*
X14801262Y-11106536D01*
X14797178Y-11127067D01*
X14171718Y-11127067D01*
X14171718Y-10868067D01*
X14549178Y-10868067D01*
X14549178Y-10889001D01*
X14553262Y-10909532D01*
X14561273Y-10928872D01*
X14572903Y-10946277D01*
X14587705Y-10961079D01*
X14605110Y-10972709D01*
X14624450Y-10980720D01*
X14644981Y-10984804D01*
X14665915Y-10984804D01*
X14686446Y-10980720D01*
X14705786Y-10972709D01*
X14723191Y-10961079D01*
X14737993Y-10946277D01*
X14749623Y-10928872D01*
X14757634Y-10909532D01*
X14761718Y-10889001D01*
X14761718Y-10868067D01*
X14803178Y-10868067D01*
X14803178Y-10889001D01*
X14807262Y-10909532D01*
X14815273Y-10928872D01*
X14826903Y-10946277D01*
X14841705Y-10961079D01*
X14859110Y-10972709D01*
X14878450Y-10980720D01*
X14898981Y-10984804D01*
X14919915Y-10984804D01*
X14940446Y-10980720D01*
X14959786Y-10972709D01*
X14977191Y-10961079D01*
X14991993Y-10946277D01*
X15003623Y-10928872D01*
X15011634Y-10909532D01*
X15015718Y-10889001D01*
X15015718Y-10873067D01*
X15305178Y-10873067D01*
X15305178Y-10894001D01*
X15309262Y-10914532D01*
X15317273Y-10933872D01*
X15328903Y-10951277D01*
X15343705Y-10966079D01*
X15361110Y-10977709D01*
X15380450Y-10985720D01*
X15400981Y-10989804D01*
X15421915Y-10989804D01*
X15442446Y-10985720D01*
X15461786Y-10977709D01*
X15479191Y-10966079D01*
X15493993Y-10951277D01*
X15505623Y-10933872D01*
X15513634Y-10914532D01*
X15517718Y-10894001D01*
X15517718Y-10873067D01*
X15513634Y-10852536D01*
X15513454Y-10852101D01*
X15573843Y-10791712D01*
X15575709Y-10790181D01*
X15581818Y-10782736D01*
X15586358Y-10774243D01*
X15587965Y-10768944D01*
X15589153Y-10765027D01*
X15590097Y-10755443D01*
X15589861Y-10753042D01*
X15589861Y-10693236D01*
X15603705Y-10707079D01*
X15621110Y-10718709D01*
X15640450Y-10726720D01*
X15660981Y-10730804D01*
X15681915Y-10730804D01*
X15702446Y-10726720D01*
X15721786Y-10718709D01*
X15739191Y-10707079D01*
X15753993Y-10692277D01*
X15759166Y-10684536D01*
X15759166Y-10746292D01*
X15721300Y-10784158D01*
X15702446Y-10776348D01*
X15681915Y-10772264D01*
X15660981Y-10772264D01*
X15640450Y-10776348D01*
X15621110Y-10784359D01*
X15603705Y-10795989D01*
X15588903Y-10810791D01*
X15577273Y-10828196D01*
X15569262Y-10847536D01*
X15565178Y-10868067D01*
X15565178Y-10889001D01*
X15569262Y-10909532D01*
X15577273Y-10928872D01*
X15588903Y-10946277D01*
X15603705Y-10961079D01*
X15621110Y-10972709D01*
X15640450Y-10980720D01*
X15660981Y-10984804D01*
X15681915Y-10984804D01*
X15702446Y-10980720D01*
X15721786Y-10972709D01*
X15739191Y-10961079D01*
X15753993Y-10946277D01*
X15765623Y-10928872D01*
X15773634Y-10909532D01*
X15777718Y-10889001D01*
X15777718Y-10873067D01*
X15813178Y-10873067D01*
X15813178Y-10894001D01*
X15817262Y-10914532D01*
X15825273Y-10933872D01*
X15836903Y-10951277D01*
X15851705Y-10966079D01*
X15869110Y-10977709D01*
X15888450Y-10985720D01*
X15908981Y-10989804D01*
X15929915Y-10989804D01*
X15950446Y-10985720D01*
X15969786Y-10977709D01*
X15987191Y-10966079D01*
X16001993Y-10951277D01*
X16013623Y-10933872D01*
X16021634Y-10914532D01*
X16025718Y-10894001D01*
X16025718Y-10873067D01*
X16021634Y-10852536D01*
X16013623Y-10833196D01*
X16001993Y-10815791D01*
X15987191Y-10800989D01*
X15969786Y-10789359D01*
X15950446Y-10781348D01*
X15929915Y-10777264D01*
X15908981Y-10777264D01*
X15888450Y-10781348D01*
X15869110Y-10789359D01*
X15851705Y-10800989D01*
X15836903Y-10815791D01*
X15825273Y-10833196D01*
X15817262Y-10852536D01*
X15813178Y-10873067D01*
X15777718Y-10873067D01*
X15777718Y-10868067D01*
X15777379Y-10866361D01*
X15840928Y-10802812D01*
X15842794Y-10801281D01*
X15848903Y-10793836D01*
X15853443Y-10785343D01*
X15855390Y-10778923D01*
X15856238Y-10776127D01*
X15857182Y-10766543D01*
X15856946Y-10764142D01*
X15856946Y-10706321D01*
X15857705Y-10707079D01*
X15875110Y-10718709D01*
X15894450Y-10726720D01*
X15914981Y-10730804D01*
X15935915Y-10730804D01*
X15956446Y-10726720D01*
X15975786Y-10718709D01*
X15993191Y-10707079D01*
X16007993Y-10692277D01*
X16019623Y-10674872D01*
X16027634Y-10655532D01*
X16031718Y-10635001D01*
X16031718Y-10614067D01*
X16327178Y-10614067D01*
X16327178Y-10635001D01*
X16331262Y-10655532D01*
X16339273Y-10674872D01*
X16350903Y-10692277D01*
X16365705Y-10707079D01*
X16383110Y-10718709D01*
X16402450Y-10726720D01*
X16422981Y-10730804D01*
X16443915Y-10730804D01*
X16464446Y-10726720D01*
X16483786Y-10718709D01*
X16501191Y-10707079D01*
X16515993Y-10692277D01*
X16527623Y-10674872D01*
X16535634Y-10655532D01*
X16539718Y-10635001D01*
X16539718Y-10614067D01*
X16535634Y-10593536D01*
X16527623Y-10574196D01*
X16515993Y-10556791D01*
X16501191Y-10541989D01*
X16483786Y-10530359D01*
X16464446Y-10522348D01*
X16443915Y-10518264D01*
X16422981Y-10518264D01*
X16402450Y-10522348D01*
X16383110Y-10530359D01*
X16365705Y-10541989D01*
X16350903Y-10556791D01*
X16339273Y-10574196D01*
X16331262Y-10593536D01*
X16327178Y-10614067D01*
X16031718Y-10614067D01*
X16027634Y-10593536D01*
X16019623Y-10574196D01*
X16007993Y-10556791D01*
X15993191Y-10541989D01*
X15975786Y-10530359D01*
X15956446Y-10522348D01*
X15935915Y-10518264D01*
X15914981Y-10518264D01*
X15894450Y-10522348D01*
X15875110Y-10530359D01*
X15857705Y-10541989D01*
X15856946Y-10542748D01*
X15856946Y-10452321D01*
X15857705Y-10453079D01*
X15875110Y-10464709D01*
X15894450Y-10472720D01*
X15914981Y-10476804D01*
X15935915Y-10476804D01*
X15956446Y-10472720D01*
X15975786Y-10464709D01*
X15993191Y-10453079D01*
X16007993Y-10438277D01*
X16019623Y-10420872D01*
X16027634Y-10401532D01*
X16031718Y-10381001D01*
X16031718Y-10360067D01*
X16327178Y-10360067D01*
X16327178Y-10381001D01*
X16331262Y-10401532D01*
X16339273Y-10420872D01*
X16350903Y-10438277D01*
X16365705Y-10453079D01*
X16383110Y-10464709D01*
X16402450Y-10472720D01*
X16422981Y-10476804D01*
X16443915Y-10476804D01*
X16464446Y-10472720D01*
X16483786Y-10464709D01*
X16501191Y-10453079D01*
X16515993Y-10438277D01*
X16527623Y-10420872D01*
X16535634Y-10401532D01*
X16539718Y-10381001D01*
X16539718Y-10360067D01*
X16581178Y-10360067D01*
X16581178Y-10381001D01*
X16585262Y-10401532D01*
X16593273Y-10420872D01*
X16604903Y-10438277D01*
X16619705Y-10453079D01*
X16637110Y-10464709D01*
X16656450Y-10472720D01*
X16676981Y-10476804D01*
X16697915Y-10476804D01*
X16718446Y-10472720D01*
X16737786Y-10464709D01*
X16755191Y-10453079D01*
X16769993Y-10438277D01*
X16781623Y-10420872D01*
X16789634Y-10401532D01*
X16793718Y-10381001D01*
X16793718Y-10360067D01*
X16789634Y-10339536D01*
X16781623Y-10320196D01*
X16769993Y-10302791D01*
X16755191Y-10287989D01*
X16737786Y-10276359D01*
X16718446Y-10268348D01*
X16697915Y-10264264D01*
X16676981Y-10264264D01*
X16656450Y-10268348D01*
X16637110Y-10276359D01*
X16619705Y-10287989D01*
X16604903Y-10302791D01*
X16593273Y-10320196D01*
X16585262Y-10339536D01*
X16581178Y-10360067D01*
X16539718Y-10360067D01*
X16535634Y-10339536D01*
X16527623Y-10320196D01*
X16515993Y-10302791D01*
X16501191Y-10287989D01*
X16483786Y-10276359D01*
X16464446Y-10268348D01*
X16443915Y-10264264D01*
X16422981Y-10264264D01*
X16402450Y-10268348D01*
X16383110Y-10276359D01*
X16365705Y-10287989D01*
X16350903Y-10302791D01*
X16339273Y-10320196D01*
X16331262Y-10339536D01*
X16327178Y-10360067D01*
X16031718Y-10360067D01*
X16027634Y-10339536D01*
X16019623Y-10320196D01*
X16007993Y-10302791D01*
X15993191Y-10287989D01*
X15975786Y-10276359D01*
X15956446Y-10268348D01*
X15935915Y-10264264D01*
X15914981Y-10264264D01*
X15894450Y-10268348D01*
X15875110Y-10276359D01*
X15857705Y-10287989D01*
X15856946Y-10288748D01*
X15856946Y-10269039D01*
X15857182Y-10266638D01*
X15856238Y-10257054D01*
X15853961Y-10249547D01*
X15853443Y-10247838D01*
X15848903Y-10239345D01*
X15842794Y-10231900D01*
X15840928Y-10230370D01*
X15741332Y-10130773D01*
X15741332Y-10121097D01*
X15739337Y-10111067D01*
X15819178Y-10111067D01*
X15819178Y-10132001D01*
X15823262Y-10152532D01*
X15831273Y-10171872D01*
X15842903Y-10189277D01*
X15857705Y-10204079D01*
X15875110Y-10215709D01*
X15894450Y-10223720D01*
X15914981Y-10227804D01*
X15935915Y-10227804D01*
X15956446Y-10223720D01*
X15975786Y-10215709D01*
X15993191Y-10204079D01*
X16007993Y-10189277D01*
X16019623Y-10171872D01*
X16027634Y-10152532D01*
X16031718Y-10132001D01*
X16031718Y-10111067D01*
X16321178Y-10111067D01*
X16321178Y-10132001D01*
X16325262Y-10152532D01*
X16333273Y-10171872D01*
X16344903Y-10189277D01*
X16359705Y-10204079D01*
X16377110Y-10215709D01*
X16396450Y-10223720D01*
X16416981Y-10227804D01*
X16437915Y-10227804D01*
X16458446Y-10223720D01*
X16477786Y-10215709D01*
X16495191Y-10204079D01*
X16509993Y-10189277D01*
X16521623Y-10171872D01*
X16529634Y-10152532D01*
X16533718Y-10132001D01*
X16533718Y-10111067D01*
X16532723Y-10106067D01*
X16581178Y-10106067D01*
X16581178Y-10127001D01*
X16585262Y-10147532D01*
X16593273Y-10166872D01*
X16604903Y-10184277D01*
X16619705Y-10199079D01*
X16637110Y-10210709D01*
X16656450Y-10218720D01*
X16676981Y-10222804D01*
X16697915Y-10222804D01*
X16718446Y-10218720D01*
X16737786Y-10210709D01*
X16755191Y-10199079D01*
X16769993Y-10184277D01*
X16781623Y-10166872D01*
X16789634Y-10147532D01*
X16793718Y-10127001D01*
X16793718Y-10106067D01*
X16789634Y-10085536D01*
X16781623Y-10066196D01*
X16769993Y-10048791D01*
X16755191Y-10033989D01*
X16737786Y-10022359D01*
X16718446Y-10014348D01*
X16697915Y-10010264D01*
X16676981Y-10010264D01*
X16656450Y-10014348D01*
X16637110Y-10022359D01*
X16619705Y-10033989D01*
X16604903Y-10048791D01*
X16593273Y-10066196D01*
X16585262Y-10085536D01*
X16581178Y-10106067D01*
X16532723Y-10106067D01*
X16529634Y-10090536D01*
X16521623Y-10071196D01*
X16509993Y-10053791D01*
X16495191Y-10038989D01*
X16477786Y-10027359D01*
X16458446Y-10019348D01*
X16437915Y-10015264D01*
X16416981Y-10015264D01*
X16396450Y-10019348D01*
X16377110Y-10027359D01*
X16359705Y-10038989D01*
X16344903Y-10053791D01*
X16333273Y-10071196D01*
X16325262Y-10090536D01*
X16321178Y-10111067D01*
X16031718Y-10111067D01*
X16027634Y-10090536D01*
X16019623Y-10071196D01*
X16007993Y-10053791D01*
X15993191Y-10038989D01*
X15975786Y-10027359D01*
X15956446Y-10019348D01*
X15935915Y-10015264D01*
X15914981Y-10015264D01*
X15894450Y-10019348D01*
X15875110Y-10027359D01*
X15857705Y-10038989D01*
X15842903Y-10053791D01*
X15831273Y-10071196D01*
X15823262Y-10090536D01*
X15819178Y-10111067D01*
X15739337Y-10111067D01*
X15738575Y-10107235D01*
X15734468Y-10097321D01*
X15738140Y-10094868D01*
X15748134Y-10084874D01*
X15755986Y-10073122D01*
X15761395Y-10060065D01*
X15764152Y-10046203D01*
X15764152Y-10032069D01*
X15761395Y-10018207D01*
X15755986Y-10005150D01*
X15748134Y-9993398D01*
X15738140Y-9983404D01*
X15726388Y-9975552D01*
X15713331Y-9970143D01*
X15699469Y-9967386D01*
X15685335Y-9967386D01*
X15671473Y-9970143D01*
X15658416Y-9975552D01*
X15646664Y-9983404D01*
X15639150Y-9990918D01*
X15638791Y-9990954D01*
X15635995Y-9991802D01*
X15629575Y-9993749D01*
X15621082Y-9998289D01*
X15613637Y-10004398D01*
X15612106Y-10006264D01*
X15521824Y-10096546D01*
X15519634Y-10085536D01*
X15511623Y-10066196D01*
X15499993Y-10048791D01*
X15485191Y-10033989D01*
X15467786Y-10022359D01*
X15448446Y-10014348D01*
X15427915Y-10010264D01*
X15406981Y-10010264D01*
X15386450Y-10014348D01*
X15367110Y-10022359D01*
X15349705Y-10033989D01*
X15334903Y-10048791D01*
X15323273Y-10066196D01*
X15315262Y-10085536D01*
X15311178Y-10106067D01*
X15311178Y-10127001D01*
X15315262Y-10147532D01*
X15323273Y-10166872D01*
X15334903Y-10184277D01*
X15349705Y-10199079D01*
X15367110Y-10210709D01*
X15386450Y-10218720D01*
X15406981Y-10222804D01*
X15427915Y-10222804D01*
X15448446Y-10218720D01*
X15467786Y-10210709D01*
X15485191Y-10199079D01*
X15492081Y-10192189D01*
X15492081Y-10294879D01*
X15485191Y-10287989D01*
X15467786Y-10276359D01*
X15448446Y-10268348D01*
X15427915Y-10264264D01*
X15406981Y-10264264D01*
X15386450Y-10268348D01*
X15367110Y-10276359D01*
X15349705Y-10287989D01*
X15334903Y-10302791D01*
X15323273Y-10320196D01*
X15315262Y-10339536D01*
X15311178Y-10360067D01*
X15311178Y-10381001D01*
X15315262Y-10401532D01*
X15323273Y-10420872D01*
X15334903Y-10438277D01*
X15349705Y-10453079D01*
X15367110Y-10464709D01*
X15386450Y-10472720D01*
X15406981Y-10476804D01*
X15427915Y-10476804D01*
X15448446Y-10472720D01*
X15467786Y-10464709D01*
X15485191Y-10453079D01*
X15492081Y-10446189D01*
X15492081Y-10548879D01*
X15485191Y-10541989D01*
X15467786Y-10530359D01*
X15448446Y-10522348D01*
X15427915Y-10518264D01*
X15406981Y-10518264D01*
X15386450Y-10522348D01*
X15367110Y-10530359D01*
X15349705Y-10541989D01*
X15334903Y-10556791D01*
X15323273Y-10574196D01*
X15315262Y-10593536D01*
X15311178Y-10614067D01*
X15311178Y-10635001D01*
X15315262Y-10655532D01*
X15323273Y-10674872D01*
X15334903Y-10692277D01*
X15349705Y-10707079D01*
X15367110Y-10718709D01*
X15386450Y-10726720D01*
X15406981Y-10730804D01*
X15427915Y-10730804D01*
X15448446Y-10726720D01*
X15467786Y-10718709D01*
X15485191Y-10707079D01*
X15492081Y-10700190D01*
X15492081Y-10735192D01*
X15444906Y-10782367D01*
X15442446Y-10781348D01*
X15421915Y-10777264D01*
X15400981Y-10777264D01*
X15380450Y-10781348D01*
X15361110Y-10789359D01*
X15343705Y-10800989D01*
X15328903Y-10815791D01*
X15317273Y-10833196D01*
X15309262Y-10852536D01*
X15305178Y-10873067D01*
X15015718Y-10873067D01*
X15015718Y-10868067D01*
X15011634Y-10847536D01*
X15003623Y-10828196D01*
X14991993Y-10810791D01*
X14977191Y-10795989D01*
X14959786Y-10784359D01*
X14940446Y-10776348D01*
X14919915Y-10772264D01*
X14898981Y-10772264D01*
X14878450Y-10776348D01*
X14859110Y-10784359D01*
X14841705Y-10795989D01*
X14826903Y-10810791D01*
X14815273Y-10828196D01*
X14807262Y-10847536D01*
X14803178Y-10868067D01*
X14761718Y-10868067D01*
X14757634Y-10847536D01*
X14749623Y-10828196D01*
X14737993Y-10810791D01*
X14723191Y-10795989D01*
X14705786Y-10784359D01*
X14686446Y-10776348D01*
X14665915Y-10772264D01*
X14644981Y-10772264D01*
X14624450Y-10776348D01*
X14605110Y-10784359D01*
X14587705Y-10795989D01*
X14572903Y-10810791D01*
X14561273Y-10828196D01*
X14553262Y-10847536D01*
X14549178Y-10868067D01*
X14171718Y-10868067D01*
X14171718Y-10614067D01*
X14549178Y-10614067D01*
X14549178Y-10635001D01*
X14553262Y-10655532D01*
X14561273Y-10674872D01*
X14572903Y-10692277D01*
X14587705Y-10707079D01*
X14605110Y-10718709D01*
X14624450Y-10726720D01*
X14644981Y-10730804D01*
X14665915Y-10730804D01*
X14686446Y-10726720D01*
X14705786Y-10718709D01*
X14723191Y-10707079D01*
X14737993Y-10692277D01*
X14749623Y-10674872D01*
X14757634Y-10655532D01*
X14761718Y-10635001D01*
X14761718Y-10619067D01*
X14797178Y-10619067D01*
X14797178Y-10640001D01*
X14801262Y-10660532D01*
X14809273Y-10679872D01*
X14820903Y-10697277D01*
X14835705Y-10712079D01*
X14853110Y-10723709D01*
X14872450Y-10731720D01*
X14892981Y-10735804D01*
X14913915Y-10735804D01*
X14934446Y-10731720D01*
X14953786Y-10723709D01*
X14971191Y-10712079D01*
X14985993Y-10697277D01*
X14997623Y-10679872D01*
X15005634Y-10660532D01*
X15009718Y-10640001D01*
X15009718Y-10619067D01*
X15005634Y-10598536D01*
X14997623Y-10579196D01*
X14985993Y-10561791D01*
X14971191Y-10546989D01*
X14953786Y-10535359D01*
X14934446Y-10527348D01*
X14913915Y-10523264D01*
X14892981Y-10523264D01*
X14872450Y-10527348D01*
X14853110Y-10535359D01*
X14835705Y-10546989D01*
X14820903Y-10561791D01*
X14809273Y-10579196D01*
X14801262Y-10598536D01*
X14797178Y-10619067D01*
X14761718Y-10619067D01*
X14761718Y-10614067D01*
X14757634Y-10593536D01*
X14749623Y-10574196D01*
X14737993Y-10556791D01*
X14723191Y-10541989D01*
X14705786Y-10530359D01*
X14686446Y-10522348D01*
X14665915Y-10518264D01*
X14644981Y-10518264D01*
X14624450Y-10522348D01*
X14605110Y-10530359D01*
X14587705Y-10541989D01*
X14572903Y-10556791D01*
X14561273Y-10574196D01*
X14553262Y-10593536D01*
X14549178Y-10614067D01*
X14171718Y-10614067D01*
X14171718Y-10365067D01*
X14543178Y-10365067D01*
X14543178Y-10386001D01*
X14547262Y-10406532D01*
X14555273Y-10425872D01*
X14566903Y-10443277D01*
X14581705Y-10458079D01*
X14599110Y-10469709D01*
X14618450Y-10477720D01*
X14638981Y-10481804D01*
X14659915Y-10481804D01*
X14680446Y-10477720D01*
X14699786Y-10469709D01*
X14717191Y-10458079D01*
X14731993Y-10443277D01*
X14743623Y-10425872D01*
X14751634Y-10406532D01*
X14755718Y-10386001D01*
X14755718Y-10365067D01*
X14754723Y-10360067D01*
X14803178Y-10360067D01*
X14803178Y-10381001D01*
X14807262Y-10401532D01*
X14815273Y-10420872D01*
X14826903Y-10438277D01*
X14841705Y-10453079D01*
X14859110Y-10464709D01*
X14878450Y-10472720D01*
X14898981Y-10476804D01*
X14919915Y-10476804D01*
X14940446Y-10472720D01*
X14959786Y-10464709D01*
X14977191Y-10453079D01*
X14991993Y-10438277D01*
X15003623Y-10420872D01*
X15011634Y-10401532D01*
X15015718Y-10381001D01*
X15015718Y-10360067D01*
X15011634Y-10339536D01*
X15003623Y-10320196D01*
X14991993Y-10302791D01*
X14977191Y-10287989D01*
X14959786Y-10276359D01*
X14940446Y-10268348D01*
X14919915Y-10264264D01*
X14898981Y-10264264D01*
X14878450Y-10268348D01*
X14859110Y-10276359D01*
X14841705Y-10287989D01*
X14826903Y-10302791D01*
X14815273Y-10320196D01*
X14807262Y-10339536D01*
X14803178Y-10360067D01*
X14754723Y-10360067D01*
X14751634Y-10344536D01*
X14743623Y-10325196D01*
X14731993Y-10307791D01*
X14717191Y-10292989D01*
X14699786Y-10281359D01*
X14680446Y-10273348D01*
X14659915Y-10269264D01*
X14638981Y-10269264D01*
X14618450Y-10273348D01*
X14599110Y-10281359D01*
X14581705Y-10292989D01*
X14566903Y-10307791D01*
X14555273Y-10325196D01*
X14547262Y-10344536D01*
X14543178Y-10365067D01*
X14171718Y-10365067D01*
X14171718Y-10111067D01*
X14543178Y-10111067D01*
X14543178Y-10132001D01*
X14547262Y-10152532D01*
X14555273Y-10171872D01*
X14566903Y-10189277D01*
X14581705Y-10204079D01*
X14599110Y-10215709D01*
X14618450Y-10223720D01*
X14638981Y-10227804D01*
X14659915Y-10227804D01*
X14680446Y-10223720D01*
X14699786Y-10215709D01*
X14717191Y-10204079D01*
X14731993Y-10189277D01*
X14743623Y-10171872D01*
X14751634Y-10152532D01*
X14755718Y-10132001D01*
X14755718Y-10111067D01*
X14797178Y-10111067D01*
X14797178Y-10132001D01*
X14801262Y-10152532D01*
X14809273Y-10171872D01*
X14820903Y-10189277D01*
X14835705Y-10204079D01*
X14853110Y-10215709D01*
X14872450Y-10223720D01*
X14892981Y-10227804D01*
X14913915Y-10227804D01*
X14934446Y-10223720D01*
X14953786Y-10215709D01*
X14971191Y-10204079D01*
X14985993Y-10189277D01*
X14997623Y-10171872D01*
X15005634Y-10152532D01*
X15009718Y-10132001D01*
X15009718Y-10111067D01*
X15005634Y-10090536D01*
X14997623Y-10071196D01*
X14985993Y-10053791D01*
X14971191Y-10038989D01*
X14953786Y-10027359D01*
X14934446Y-10019348D01*
X14913915Y-10015264D01*
X14892981Y-10015264D01*
X14872450Y-10019348D01*
X14853110Y-10027359D01*
X14835705Y-10038989D01*
X14820903Y-10053791D01*
X14809273Y-10071196D01*
X14801262Y-10090536D01*
X14797178Y-10111067D01*
X14755718Y-10111067D01*
X14751634Y-10090536D01*
X14743623Y-10071196D01*
X14731993Y-10053791D01*
X14717191Y-10038989D01*
X14699786Y-10027359D01*
X14680446Y-10019348D01*
X14659915Y-10015264D01*
X14638981Y-10015264D01*
X14618450Y-10019348D01*
X14599110Y-10027359D01*
X14581705Y-10038989D01*
X14566903Y-10053791D01*
X14555273Y-10071196D01*
X14547262Y-10090536D01*
X14543178Y-10111067D01*
X14171718Y-10111067D01*
X14171718Y-8841067D01*
X14797178Y-8841067D01*
X14797178Y-8862001D01*
X14801262Y-8882532D01*
X14809273Y-8901872D01*
X14820903Y-8919277D01*
X14835705Y-8934079D01*
X14853110Y-8945709D01*
X14872450Y-8953720D01*
X14892981Y-8957804D01*
X14913915Y-8957804D01*
X14934446Y-8953720D01*
X14953786Y-8945709D01*
X14971191Y-8934079D01*
X14985167Y-8920104D01*
X15067902Y-9002839D01*
X15069048Y-9008601D01*
X15074457Y-9021658D01*
X15077721Y-9026544D01*
X15077721Y-9208501D01*
X15077429Y-9211463D01*
X15077721Y-9214425D01*
X15077721Y-9214426D01*
X15078594Y-9223288D01*
X15082043Y-9234658D01*
X15082043Y-9234658D01*
X15087644Y-9245137D01*
X15090170Y-9248215D01*
X15095182Y-9254322D01*
X15097484Y-9256211D01*
X15240010Y-9398737D01*
X15240010Y-9710679D01*
X15239718Y-9713641D01*
X15240010Y-9716603D01*
X15240010Y-9716604D01*
X15240883Y-9725466D01*
X15244332Y-9736836D01*
X15249933Y-9747315D01*
X15257471Y-9756500D01*
X15259773Y-9758389D01*
X15362143Y-9860759D01*
X15363289Y-9866521D01*
X15368698Y-9879578D01*
X15376550Y-9891330D01*
X15386544Y-9901324D01*
X15398296Y-9909176D01*
X15411353Y-9914585D01*
X15425215Y-9917342D01*
X15439349Y-9917342D01*
X15453211Y-9914585D01*
X15466268Y-9909176D01*
X15478020Y-9901324D01*
X15488014Y-9891330D01*
X15495866Y-9879578D01*
X15501275Y-9866521D01*
X15504032Y-9852659D01*
X15504032Y-9838525D01*
X15501275Y-9824663D01*
X15495866Y-9811606D01*
X15488014Y-9799854D01*
X15478020Y-9789860D01*
X15466268Y-9782008D01*
X15453211Y-9776599D01*
X15447448Y-9775453D01*
X15360650Y-9688656D01*
X15360650Y-9376714D01*
X15360942Y-9373752D01*
X15360650Y-9370790D01*
X15360650Y-9370789D01*
X15359777Y-9361927D01*
X15356328Y-9350557D01*
X15353721Y-9345679D01*
X15350727Y-9340078D01*
X15345078Y-9333194D01*
X15343189Y-9330893D01*
X15340887Y-9329004D01*
X15198361Y-9186478D01*
X15198361Y-9074062D01*
X15935056Y-9074062D01*
X15937707Y-9074323D01*
X15940358Y-9074062D01*
X15940358Y-9074062D01*
X15948287Y-9073281D01*
X15958460Y-9070195D01*
X15967836Y-9065184D01*
X15976054Y-9058439D01*
X15977745Y-9056379D01*
X16008340Y-9025784D01*
X16010832Y-9025784D01*
X16024694Y-9023027D01*
X16037751Y-9017618D01*
X16049503Y-9009766D01*
X16059497Y-8999772D01*
X16067349Y-8988020D01*
X16072758Y-8974963D01*
X16075515Y-8961101D01*
X16075515Y-8946967D01*
X16072758Y-8933105D01*
X16067349Y-8920048D01*
X16059497Y-8908296D01*
X16049503Y-8898302D01*
X16037751Y-8890450D01*
X16024694Y-8885041D01*
X16010832Y-8882284D01*
X15996698Y-8882284D01*
X15982836Y-8885041D01*
X15969779Y-8890450D01*
X15958027Y-8898302D01*
X15948033Y-8908296D01*
X15940181Y-8920048D01*
X15934772Y-8933105D01*
X15932015Y-8946967D01*
X15932015Y-8949459D01*
X15915352Y-8966122D01*
X15206776Y-8966122D01*
X15201625Y-8953686D01*
X15193773Y-8941934D01*
X15183779Y-8931940D01*
X15172027Y-8924088D01*
X15158970Y-8918679D01*
X15153207Y-8917533D01*
X15042488Y-8806814D01*
X15040599Y-8804513D01*
X15031414Y-8796975D01*
X15020935Y-8791374D01*
X15009565Y-8787925D01*
X15000703Y-8787052D01*
X15000702Y-8787052D01*
X14997740Y-8786760D01*
X14994778Y-8787052D01*
X14988172Y-8787052D01*
X14985993Y-8783791D01*
X14971191Y-8768989D01*
X14953786Y-8757359D01*
X14934446Y-8749348D01*
X14913915Y-8745264D01*
X14892981Y-8745264D01*
X14872450Y-8749348D01*
X14853110Y-8757359D01*
X14835705Y-8768989D01*
X14820903Y-8783791D01*
X14809273Y-8801196D01*
X14801262Y-8820536D01*
X14797178Y-8841067D01*
X14171718Y-8841067D01*
X14171718Y-8079067D01*
X14797178Y-8079067D01*
X14797178Y-8100001D01*
X14801262Y-8120532D01*
X14809273Y-8139872D01*
X14820903Y-8157277D01*
X14835705Y-8172079D01*
X14853110Y-8183709D01*
X14872450Y-8191720D01*
X14892981Y-8195804D01*
X14913915Y-8195804D01*
X14934446Y-8191720D01*
X14953786Y-8183709D01*
X14971191Y-8172079D01*
X14985993Y-8157277D01*
X14997623Y-8139872D01*
X15005634Y-8120532D01*
X15009718Y-8100001D01*
X15009718Y-8079067D01*
X15051178Y-8079067D01*
X15051178Y-8100001D01*
X15055262Y-8120532D01*
X15063273Y-8139872D01*
X15074903Y-8157277D01*
X15089705Y-8172079D01*
X15107110Y-8183709D01*
X15126450Y-8191720D01*
X15146981Y-8195804D01*
X15167915Y-8195804D01*
X15188446Y-8191720D01*
X15207786Y-8183709D01*
X15225191Y-8172079D01*
X15239993Y-8157277D01*
X15251623Y-8139872D01*
X15259634Y-8120532D01*
X15263718Y-8100001D01*
X15263718Y-8079067D01*
X15313178Y-8079067D01*
X15313178Y-8100001D01*
X15317262Y-8120532D01*
X15325273Y-8139872D01*
X15336903Y-8157277D01*
X15351705Y-8172079D01*
X15369110Y-8183709D01*
X15388450Y-8191720D01*
X15408981Y-8195804D01*
X15429915Y-8195804D01*
X15450446Y-8191720D01*
X15469786Y-8183709D01*
X15487191Y-8172079D01*
X15501993Y-8157277D01*
X15513623Y-8139872D01*
X15521634Y-8120532D01*
X15525718Y-8100001D01*
X15525718Y-8079067D01*
X15524723Y-8074067D01*
X15565178Y-8074067D01*
X15565178Y-8095001D01*
X15569262Y-8115532D01*
X15577273Y-8134872D01*
X15588903Y-8152277D01*
X15603705Y-8167079D01*
X15621110Y-8178709D01*
X15640450Y-8186720D01*
X15660981Y-8190804D01*
X15681915Y-8190804D01*
X15702446Y-8186720D01*
X15721786Y-8178709D01*
X15739191Y-8167079D01*
X15753993Y-8152277D01*
X15765623Y-8134872D01*
X15773634Y-8115532D01*
X15777718Y-8095001D01*
X15777718Y-8079067D01*
X15813178Y-8079067D01*
X15813178Y-8100001D01*
X15817262Y-8120532D01*
X15825273Y-8139872D01*
X15836903Y-8157277D01*
X15851705Y-8172079D01*
X15869110Y-8183709D01*
X15888450Y-8191720D01*
X15908981Y-8195804D01*
X15929915Y-8195804D01*
X15950446Y-8191720D01*
X15969786Y-8183709D01*
X15987191Y-8172079D01*
X16001993Y-8157277D01*
X16013623Y-8139872D01*
X16021634Y-8120532D01*
X16025718Y-8100001D01*
X16025718Y-8079067D01*
X16024723Y-8074067D01*
X16073178Y-8074067D01*
X16073178Y-8095001D01*
X16077262Y-8115532D01*
X16085273Y-8134872D01*
X16096903Y-8152277D01*
X16111705Y-8167079D01*
X16129110Y-8178709D01*
X16148450Y-8186720D01*
X16168981Y-8190804D01*
X16189915Y-8190804D01*
X16210446Y-8186720D01*
X16229786Y-8178709D01*
X16247191Y-8167079D01*
X16261993Y-8152277D01*
X16273623Y-8134872D01*
X16281634Y-8115532D01*
X16285718Y-8095001D01*
X16285718Y-8079067D01*
X16313178Y-8079067D01*
X16313178Y-8100001D01*
X16317262Y-8120532D01*
X16325273Y-8139872D01*
X16336903Y-8157277D01*
X16351705Y-8172079D01*
X16369110Y-8183709D01*
X16388450Y-8191720D01*
X16408981Y-8195804D01*
X16429915Y-8195804D01*
X16450446Y-8191720D01*
X16469786Y-8183709D01*
X16487191Y-8172079D01*
X16501993Y-8157277D01*
X16513623Y-8139872D01*
X16521634Y-8120532D01*
X16525718Y-8100001D01*
X16525718Y-8079067D01*
X16521634Y-8058536D01*
X16513623Y-8039196D01*
X16501993Y-8021791D01*
X16487191Y-8006989D01*
X16469786Y-7995359D01*
X16450446Y-7987348D01*
X16429915Y-7983264D01*
X16408981Y-7983264D01*
X16388450Y-7987348D01*
X16369110Y-7995359D01*
X16351705Y-8006989D01*
X16336903Y-8021791D01*
X16325273Y-8039196D01*
X16317262Y-8058536D01*
X16313178Y-8079067D01*
X16285718Y-8079067D01*
X16285718Y-8074067D01*
X16281634Y-8053536D01*
X16273623Y-8034196D01*
X16261993Y-8016791D01*
X16247191Y-8001989D01*
X16229786Y-7990359D01*
X16210446Y-7982348D01*
X16189915Y-7978264D01*
X16168981Y-7978264D01*
X16148450Y-7982348D01*
X16129110Y-7990359D01*
X16111705Y-8001989D01*
X16096903Y-8016791D01*
X16085273Y-8034196D01*
X16077262Y-8053536D01*
X16073178Y-8074067D01*
X16024723Y-8074067D01*
X16021634Y-8058536D01*
X16013623Y-8039196D01*
X16001993Y-8021791D01*
X15987191Y-8006989D01*
X15969786Y-7995359D01*
X15950446Y-7987348D01*
X15929915Y-7983264D01*
X15908981Y-7983264D01*
X15888450Y-7987348D01*
X15869110Y-7995359D01*
X15851705Y-8006989D01*
X15836903Y-8021791D01*
X15825273Y-8039196D01*
X15817262Y-8058536D01*
X15813178Y-8079067D01*
X15777718Y-8079067D01*
X15777718Y-8074067D01*
X15773634Y-8053536D01*
X15765623Y-8034196D01*
X15753993Y-8016791D01*
X15739191Y-8001989D01*
X15721786Y-7990359D01*
X15702446Y-7982348D01*
X15681915Y-7978264D01*
X15660981Y-7978264D01*
X15640450Y-7982348D01*
X15621110Y-7990359D01*
X15603705Y-8001989D01*
X15588903Y-8016791D01*
X15577273Y-8034196D01*
X15569262Y-8053536D01*
X15565178Y-8074067D01*
X15524723Y-8074067D01*
X15521634Y-8058536D01*
X15513623Y-8039196D01*
X15501993Y-8021791D01*
X15487191Y-8006989D01*
X15469786Y-7995359D01*
X15450446Y-7987348D01*
X15429915Y-7983264D01*
X15408981Y-7983264D01*
X15388450Y-7987348D01*
X15369110Y-7995359D01*
X15351705Y-8006989D01*
X15336903Y-8021791D01*
X15325273Y-8039196D01*
X15317262Y-8058536D01*
X15313178Y-8079067D01*
X15263718Y-8079067D01*
X15259634Y-8058536D01*
X15251623Y-8039196D01*
X15239993Y-8021791D01*
X15225191Y-8006989D01*
X15207786Y-7995359D01*
X15188446Y-7987348D01*
X15167915Y-7983264D01*
X15146981Y-7983264D01*
X15126450Y-7987348D01*
X15107110Y-7995359D01*
X15089705Y-8006989D01*
X15074903Y-8021791D01*
X15063273Y-8039196D01*
X15055262Y-8058536D01*
X15051178Y-8079067D01*
X15009718Y-8079067D01*
X15005634Y-8058536D01*
X14997623Y-8039196D01*
X14985993Y-8021791D01*
X14971191Y-8006989D01*
X14953786Y-7995359D01*
X14934446Y-7987348D01*
X14913915Y-7983264D01*
X14892981Y-7983264D01*
X14872450Y-7987348D01*
X14853110Y-7995359D01*
X14835705Y-8006989D01*
X14820903Y-8021791D01*
X14809273Y-8039196D01*
X14801262Y-8058536D01*
X14797178Y-8079067D01*
X14171718Y-8079067D01*
X14171718Y-7730804D01*
X17979264Y-7730804D01*
X17979749Y-8948984D01*
G36*
X13570385Y-7970527D02*
G01*
X13570385Y-11813498D01*
X9397534Y-11813498D01*
X9397534Y-11289700D01*
X10477385Y-11289700D01*
X10477385Y-11310634D01*
X10481469Y-11331165D01*
X10489480Y-11350505D01*
X10501110Y-11367910D01*
X10515912Y-11382712D01*
X10533317Y-11394342D01*
X10552657Y-11402353D01*
X10573188Y-11406437D01*
X10594122Y-11406437D01*
X10614653Y-11402353D01*
X10633993Y-11394342D01*
X10651398Y-11382712D01*
X10666200Y-11367910D01*
X10677830Y-11350505D01*
X10685841Y-11331165D01*
X10689925Y-11310634D01*
X10689925Y-11289700D01*
X11747385Y-11289700D01*
X11747385Y-11310634D01*
X11751469Y-11331165D01*
X11759480Y-11350505D01*
X11771110Y-11367910D01*
X11785912Y-11382712D01*
X11803317Y-11394342D01*
X11822657Y-11402353D01*
X11843188Y-11406437D01*
X11864122Y-11406437D01*
X11884653Y-11402353D01*
X11903993Y-11394342D01*
X11921398Y-11382712D01*
X11936200Y-11367910D01*
X11947830Y-11350505D01*
X11955841Y-11331165D01*
X11959925Y-11310634D01*
X11959925Y-11289700D01*
X12001385Y-11289700D01*
X12001385Y-11310634D01*
X12005469Y-11331165D01*
X12013480Y-11350505D01*
X12025110Y-11367910D01*
X12039912Y-11382712D01*
X12057317Y-11394342D01*
X12076657Y-11402353D01*
X12097188Y-11406437D01*
X12118122Y-11406437D01*
X12138653Y-11402353D01*
X12157993Y-11394342D01*
X12175398Y-11382712D01*
X12190200Y-11367910D01*
X12201830Y-11350505D01*
X12209841Y-11331165D01*
X12213925Y-11310634D01*
X12213925Y-11289700D01*
X12212732Y-11283700D01*
X12250385Y-11283700D01*
X12250385Y-11304634D01*
X12254469Y-11325165D01*
X12262480Y-11344505D01*
X12274110Y-11361910D01*
X12288912Y-11376712D01*
X12306317Y-11388342D01*
X12325657Y-11396353D01*
X12346188Y-11400437D01*
X12367122Y-11400437D01*
X12387653Y-11396353D01*
X12406993Y-11388342D01*
X12424398Y-11376712D01*
X12439200Y-11361910D01*
X12450830Y-11344505D01*
X12458841Y-11325165D01*
X12462925Y-11304634D01*
X12462925Y-11283700D01*
X12504385Y-11283700D01*
X12504385Y-11304634D01*
X12508469Y-11325165D01*
X12516480Y-11344505D01*
X12528110Y-11361910D01*
X12542912Y-11376712D01*
X12560317Y-11388342D01*
X12579657Y-11396353D01*
X12600188Y-11400437D01*
X12621122Y-11400437D01*
X12641653Y-11396353D01*
X12660993Y-11388342D01*
X12678398Y-11376712D01*
X12693200Y-11361910D01*
X12704830Y-11344505D01*
X12712841Y-11325165D01*
X12716925Y-11304634D01*
X12716925Y-11283700D01*
X12712841Y-11263169D01*
X12704830Y-11243829D01*
X12693200Y-11226424D01*
X12678398Y-11211622D01*
X12660993Y-11199992D01*
X12641653Y-11191981D01*
X12621122Y-11187897D01*
X12600188Y-11187897D01*
X12579657Y-11191981D01*
X12560317Y-11199992D01*
X12542912Y-11211622D01*
X12528110Y-11226424D01*
X12516480Y-11243829D01*
X12508469Y-11263169D01*
X12504385Y-11283700D01*
X12462925Y-11283700D01*
X12458841Y-11263169D01*
X12450830Y-11243829D01*
X12439200Y-11226424D01*
X12424398Y-11211622D01*
X12406993Y-11199992D01*
X12387653Y-11191981D01*
X12367122Y-11187897D01*
X12346188Y-11187897D01*
X12325657Y-11191981D01*
X12306317Y-11199992D01*
X12288912Y-11211622D01*
X12274110Y-11226424D01*
X12262480Y-11243829D01*
X12254469Y-11263169D01*
X12250385Y-11283700D01*
X12212732Y-11283700D01*
X12209841Y-11269169D01*
X12201830Y-11249829D01*
X12190200Y-11232424D01*
X12175398Y-11217622D01*
X12157993Y-11205992D01*
X12138653Y-11197981D01*
X12118122Y-11193897D01*
X12097188Y-11193897D01*
X12076657Y-11197981D01*
X12057317Y-11205992D01*
X12039912Y-11217622D01*
X12025110Y-11232424D01*
X12013480Y-11249829D01*
X12005469Y-11269169D01*
X12001385Y-11289700D01*
X11959925Y-11289700D01*
X11955841Y-11269169D01*
X11947830Y-11249829D01*
X11936200Y-11232424D01*
X11921398Y-11217622D01*
X11903993Y-11205992D01*
X11884653Y-11197981D01*
X11864122Y-11193897D01*
X11843188Y-11193897D01*
X11822657Y-11197981D01*
X11803317Y-11205992D01*
X11785912Y-11217622D01*
X11771110Y-11232424D01*
X11759480Y-11249829D01*
X11751469Y-11269169D01*
X11747385Y-11289700D01*
X10689925Y-11289700D01*
X10685841Y-11269169D01*
X10677830Y-11249829D01*
X10666200Y-11232424D01*
X10651398Y-11217622D01*
X10633993Y-11205992D01*
X10614653Y-11197981D01*
X10594122Y-11193897D01*
X10573188Y-11193897D01*
X10552657Y-11197981D01*
X10533317Y-11205992D01*
X10515912Y-11217622D01*
X10501110Y-11232424D01*
X10489480Y-11249829D01*
X10481469Y-11269169D01*
X10477385Y-11289700D01*
X9397534Y-11289700D01*
X9397534Y-11035700D01*
X9715385Y-11035700D01*
X9715385Y-11056634D01*
X9719469Y-11077165D01*
X9727480Y-11096505D01*
X9739110Y-11113910D01*
X9753912Y-11128712D01*
X9771317Y-11140342D01*
X9790657Y-11148353D01*
X9811188Y-11152437D01*
X9832122Y-11152437D01*
X9852653Y-11148353D01*
X9871993Y-11140342D01*
X9889398Y-11128712D01*
X9904200Y-11113910D01*
X9915830Y-11096505D01*
X9923841Y-11077165D01*
X9927925Y-11056634D01*
X9927925Y-11035700D01*
X10477385Y-11035700D01*
X10477385Y-11056634D01*
X10481469Y-11077165D01*
X10489480Y-11096505D01*
X10501110Y-11113910D01*
X10515912Y-11128712D01*
X10533317Y-11140342D01*
X10552657Y-11148353D01*
X10573188Y-11152437D01*
X10594122Y-11152437D01*
X10614653Y-11148353D01*
X10633993Y-11140342D01*
X10651398Y-11128712D01*
X10666200Y-11113910D01*
X10677830Y-11096505D01*
X10685841Y-11077165D01*
X10689925Y-11056634D01*
X10689925Y-11035700D01*
X11747385Y-11035700D01*
X11747385Y-11056634D01*
X11751469Y-11077165D01*
X11759480Y-11096505D01*
X11771110Y-11113910D01*
X11785912Y-11128712D01*
X11803317Y-11140342D01*
X11822657Y-11148353D01*
X11843188Y-11152437D01*
X11864122Y-11152437D01*
X11884653Y-11148353D01*
X11903993Y-11140342D01*
X11921398Y-11128712D01*
X11936200Y-11113910D01*
X11947830Y-11096505D01*
X11955841Y-11077165D01*
X11959925Y-11056634D01*
X11959925Y-11035700D01*
X11958732Y-11029700D01*
X11996385Y-11029700D01*
X11996385Y-11050634D01*
X12000469Y-11071165D01*
X12008480Y-11090505D01*
X12020110Y-11107910D01*
X12034912Y-11122712D01*
X12052317Y-11134342D01*
X12071657Y-11142353D01*
X12092188Y-11146437D01*
X12113122Y-11146437D01*
X12133653Y-11142353D01*
X12152993Y-11134342D01*
X12170398Y-11122712D01*
X12185200Y-11107910D01*
X12196830Y-11090505D01*
X12204841Y-11071165D01*
X12208925Y-11050634D01*
X12208925Y-11035700D01*
X12255385Y-11035700D01*
X12255385Y-11056634D01*
X12259469Y-11077165D01*
X12267480Y-11096505D01*
X12279110Y-11113910D01*
X12293912Y-11128712D01*
X12311317Y-11140342D01*
X12330657Y-11148353D01*
X12351188Y-11152437D01*
X12372122Y-11152437D01*
X12392653Y-11148353D01*
X12411993Y-11140342D01*
X12429398Y-11128712D01*
X12444200Y-11113910D01*
X12455830Y-11096505D01*
X12463841Y-11077165D01*
X12467925Y-11056634D01*
X12467925Y-11035700D01*
X12466732Y-11029700D01*
X12504385Y-11029700D01*
X12504385Y-11050634D01*
X12508469Y-11071165D01*
X12516480Y-11090505D01*
X12528110Y-11107910D01*
X12542912Y-11122712D01*
X12560317Y-11134342D01*
X12579657Y-11142353D01*
X12600188Y-11146437D01*
X12621122Y-11146437D01*
X12641653Y-11142353D01*
X12660993Y-11134342D01*
X12678398Y-11122712D01*
X12693200Y-11107910D01*
X12704830Y-11090505D01*
X12712841Y-11071165D01*
X12716925Y-11050634D01*
X12716925Y-11035700D01*
X12763385Y-11035700D01*
X12763385Y-11056634D01*
X12767469Y-11077165D01*
X12775480Y-11096505D01*
X12787110Y-11113910D01*
X12801912Y-11128712D01*
X12819317Y-11140342D01*
X12838657Y-11148353D01*
X12859188Y-11152437D01*
X12880122Y-11152437D01*
X12900653Y-11148353D01*
X12919993Y-11140342D01*
X12937398Y-11128712D01*
X12952200Y-11113910D01*
X12963830Y-11096505D01*
X12971841Y-11077165D01*
X12975925Y-11056634D01*
X12975925Y-11035700D01*
X12971841Y-11015169D01*
X12963830Y-10995829D01*
X12952200Y-10978424D01*
X12937398Y-10963622D01*
X12919993Y-10951992D01*
X12900653Y-10943981D01*
X12880122Y-10939897D01*
X12859188Y-10939897D01*
X12838657Y-10943981D01*
X12819317Y-10951992D01*
X12801912Y-10963622D01*
X12787110Y-10978424D01*
X12775480Y-10995829D01*
X12767469Y-11015169D01*
X12763385Y-11035700D01*
X12716925Y-11035700D01*
X12716925Y-11029700D01*
X12712841Y-11009169D01*
X12704830Y-10989829D01*
X12693200Y-10972424D01*
X12678398Y-10957622D01*
X12660993Y-10945992D01*
X12641653Y-10937981D01*
X12621122Y-10933897D01*
X12600188Y-10933897D01*
X12579657Y-10937981D01*
X12560317Y-10945992D01*
X12542912Y-10957622D01*
X12528110Y-10972424D01*
X12516480Y-10989829D01*
X12508469Y-11009169D01*
X12504385Y-11029700D01*
X12466732Y-11029700D01*
X12463841Y-11015169D01*
X12455830Y-10995829D01*
X12444200Y-10978424D01*
X12429398Y-10963622D01*
X12411993Y-10951992D01*
X12392653Y-10943981D01*
X12372122Y-10939897D01*
X12351188Y-10939897D01*
X12330657Y-10943981D01*
X12311317Y-10951992D01*
X12293912Y-10963622D01*
X12279110Y-10978424D01*
X12267480Y-10995829D01*
X12259469Y-11015169D01*
X12255385Y-11035700D01*
X12208925Y-11035700D01*
X12208925Y-11029700D01*
X12204841Y-11009169D01*
X12196830Y-10989829D01*
X12185200Y-10972424D01*
X12170398Y-10957622D01*
X12152993Y-10945992D01*
X12133653Y-10937981D01*
X12113122Y-10933897D01*
X12092188Y-10933897D01*
X12071657Y-10937981D01*
X12052317Y-10945992D01*
X12034912Y-10957622D01*
X12020110Y-10972424D01*
X12008480Y-10989829D01*
X12000469Y-11009169D01*
X11996385Y-11029700D01*
X11958732Y-11029700D01*
X11955841Y-11015169D01*
X11947830Y-10995829D01*
X11936200Y-10978424D01*
X11921398Y-10963622D01*
X11903993Y-10951992D01*
X11884653Y-10943981D01*
X11864122Y-10939897D01*
X11843188Y-10939897D01*
X11822657Y-10943981D01*
X11803317Y-10951992D01*
X11785912Y-10963622D01*
X11771110Y-10978424D01*
X11759480Y-10995829D01*
X11751469Y-11015169D01*
X11747385Y-11035700D01*
X10689925Y-11035700D01*
X10685841Y-11015169D01*
X10677830Y-10995829D01*
X10666200Y-10978424D01*
X10652225Y-10964448D01*
X10734960Y-10881713D01*
X10740722Y-10880567D01*
X10753779Y-10875158D01*
X10758665Y-10871894D01*
X10940622Y-10871894D01*
X10943584Y-10872186D01*
X10946546Y-10871894D01*
X10946547Y-10871894D01*
X10955409Y-10871021D01*
X10966779Y-10867572D01*
X10977258Y-10861971D01*
X10986443Y-10854433D01*
X10988332Y-10852131D01*
X11130858Y-10709605D01*
X11442800Y-10709605D01*
X11445762Y-10709897D01*
X11448724Y-10709605D01*
X11448725Y-10709605D01*
X11457587Y-10708732D01*
X11468957Y-10705283D01*
X11479436Y-10699682D01*
X11488621Y-10692144D01*
X11490510Y-10689842D01*
X11592880Y-10587472D01*
X11598642Y-10586326D01*
X11611699Y-10580917D01*
X11623451Y-10573065D01*
X11633445Y-10563071D01*
X11641297Y-10551319D01*
X11646706Y-10538262D01*
X11649463Y-10524400D01*
X11649463Y-10510266D01*
X11646706Y-10496404D01*
X11641297Y-10483347D01*
X11633445Y-10471595D01*
X11623451Y-10461601D01*
X11611699Y-10453749D01*
X11598642Y-10448340D01*
X11584780Y-10445583D01*
X11570646Y-10445583D01*
X11556784Y-10448340D01*
X11543727Y-10453749D01*
X11531975Y-10461601D01*
X11521981Y-10471595D01*
X11514129Y-10483347D01*
X11508720Y-10496404D01*
X11507574Y-10502167D01*
X11420777Y-10588965D01*
X11108835Y-10588965D01*
X11105873Y-10588673D01*
X11102911Y-10588965D01*
X11102910Y-10588965D01*
X11094048Y-10589838D01*
X11082678Y-10593287D01*
X11077800Y-10595894D01*
X11072199Y-10598888D01*
X11067570Y-10602687D01*
X11063014Y-10606426D01*
X11061125Y-10608728D01*
X10918599Y-10751254D01*
X10806183Y-10751254D01*
X10806183Y-10250146D01*
X11699507Y-10250146D01*
X11699507Y-10264280D01*
X11702264Y-10278142D01*
X11707673Y-10291199D01*
X11715525Y-10302951D01*
X11723039Y-10310465D01*
X11723074Y-10310824D01*
X11723718Y-10312945D01*
X11725870Y-10320040D01*
X11730410Y-10328533D01*
X11736519Y-10335978D01*
X11738385Y-10337509D01*
X11828667Y-10427791D01*
X11817657Y-10429981D01*
X11798317Y-10437992D01*
X11780912Y-10449622D01*
X11766110Y-10464424D01*
X11754480Y-10481829D01*
X11746469Y-10501169D01*
X11742385Y-10521700D01*
X11742385Y-10542634D01*
X11746469Y-10563165D01*
X11754480Y-10582505D01*
X11766110Y-10599910D01*
X11780912Y-10614712D01*
X11798317Y-10626342D01*
X11817657Y-10634353D01*
X11838188Y-10638437D01*
X11859122Y-10638437D01*
X11879653Y-10634353D01*
X11898993Y-10626342D01*
X11916398Y-10614712D01*
X11931200Y-10599910D01*
X11942830Y-10582505D01*
X11950841Y-10563165D01*
X11954925Y-10542634D01*
X11954925Y-10521700D01*
X11950841Y-10501169D01*
X11942830Y-10481829D01*
X11931200Y-10464424D01*
X11924310Y-10457534D01*
X12026999Y-10457534D01*
X12020110Y-10464424D01*
X12008480Y-10481829D01*
X12000469Y-10501169D01*
X11996385Y-10521700D01*
X11996385Y-10542634D01*
X12000469Y-10563165D01*
X12008480Y-10582505D01*
X12020110Y-10599910D01*
X12034912Y-10614712D01*
X12052317Y-10626342D01*
X12071657Y-10634353D01*
X12092188Y-10638437D01*
X12113122Y-10638437D01*
X12133653Y-10634353D01*
X12152993Y-10626342D01*
X12170398Y-10614712D01*
X12185200Y-10599910D01*
X12196830Y-10582505D01*
X12204841Y-10563165D01*
X12208925Y-10542634D01*
X12208925Y-10521700D01*
X12204841Y-10501169D01*
X12196830Y-10481829D01*
X12185200Y-10464424D01*
X12178310Y-10457534D01*
X12280999Y-10457534D01*
X12274110Y-10464424D01*
X12262480Y-10481829D01*
X12254469Y-10501169D01*
X12250385Y-10521700D01*
X12250385Y-10542634D01*
X12254469Y-10563165D01*
X12262480Y-10582505D01*
X12274110Y-10599910D01*
X12288912Y-10614712D01*
X12306317Y-10626342D01*
X12325657Y-10634353D01*
X12346188Y-10638437D01*
X12367122Y-10638437D01*
X12387653Y-10634353D01*
X12406993Y-10626342D01*
X12424398Y-10614712D01*
X12439200Y-10599910D01*
X12450830Y-10582505D01*
X12458841Y-10563165D01*
X12462925Y-10542634D01*
X12462925Y-10521700D01*
X12458841Y-10501169D01*
X12450830Y-10481829D01*
X12439200Y-10464424D01*
X12432310Y-10457534D01*
X12467313Y-10457534D01*
X12514488Y-10504709D01*
X12513469Y-10507169D01*
X12509385Y-10527700D01*
X12509385Y-10548634D01*
X12513469Y-10569165D01*
X12521480Y-10588505D01*
X12533110Y-10605910D01*
X12547912Y-10620712D01*
X12565317Y-10632342D01*
X12584657Y-10640353D01*
X12605188Y-10644437D01*
X12626122Y-10644437D01*
X12646653Y-10640353D01*
X12665993Y-10632342D01*
X12683398Y-10620712D01*
X12698200Y-10605910D01*
X12709830Y-10588505D01*
X12717841Y-10569165D01*
X12721925Y-10548634D01*
X12721925Y-10527700D01*
X12717841Y-10507169D01*
X12709830Y-10487829D01*
X12698200Y-10470424D01*
X12683398Y-10455622D01*
X12665993Y-10443992D01*
X12646653Y-10435981D01*
X12626122Y-10431897D01*
X12605188Y-10431897D01*
X12584657Y-10435981D01*
X12584222Y-10436161D01*
X12523833Y-10375772D01*
X12522302Y-10373906D01*
X12514857Y-10367797D01*
X12506364Y-10363257D01*
X12497148Y-10360462D01*
X12489965Y-10359754D01*
X12487564Y-10359518D01*
X12485163Y-10359754D01*
X12425356Y-10359754D01*
X12439200Y-10345910D01*
X12450830Y-10328505D01*
X12458841Y-10309165D01*
X12462925Y-10288634D01*
X12462925Y-10267700D01*
X12458841Y-10247169D01*
X12450830Y-10227829D01*
X12439200Y-10210424D01*
X12424398Y-10195622D01*
X12416657Y-10190449D01*
X12478413Y-10190449D01*
X12516279Y-10228315D01*
X12508469Y-10247169D01*
X12504385Y-10267700D01*
X12504385Y-10288634D01*
X12508469Y-10309165D01*
X12516480Y-10328505D01*
X12528110Y-10345910D01*
X12542912Y-10360712D01*
X12560317Y-10372342D01*
X12579657Y-10380353D01*
X12600188Y-10384437D01*
X12621122Y-10384437D01*
X12641653Y-10380353D01*
X12660993Y-10372342D01*
X12678398Y-10360712D01*
X12693200Y-10345910D01*
X12704830Y-10328505D01*
X12712841Y-10309165D01*
X12716925Y-10288634D01*
X12716925Y-10267700D01*
X12712841Y-10247169D01*
X12704830Y-10227829D01*
X12693200Y-10210424D01*
X12678398Y-10195622D01*
X12660993Y-10183992D01*
X12641653Y-10175981D01*
X12621122Y-10171897D01*
X12600188Y-10171897D01*
X12598482Y-10172236D01*
X12534933Y-10108687D01*
X12533402Y-10106821D01*
X12525957Y-10100712D01*
X12517464Y-10096172D01*
X12508248Y-10093377D01*
X12501065Y-10092669D01*
X12498664Y-10092433D01*
X12496263Y-10092669D01*
X12438441Y-10092669D01*
X12439200Y-10091910D01*
X12450830Y-10074505D01*
X12458841Y-10055165D01*
X12462925Y-10034634D01*
X12462925Y-10019700D01*
X12509385Y-10019700D01*
X12509385Y-10040634D01*
X12513469Y-10061165D01*
X12521480Y-10080505D01*
X12533110Y-10097910D01*
X12547912Y-10112712D01*
X12565317Y-10124342D01*
X12584657Y-10132353D01*
X12605188Y-10136437D01*
X12626122Y-10136437D01*
X12646653Y-10132353D01*
X12665993Y-10124342D01*
X12683398Y-10112712D01*
X12698200Y-10097910D01*
X12709830Y-10080505D01*
X12717841Y-10061165D01*
X12721925Y-10040634D01*
X12721925Y-10019700D01*
X12717841Y-9999169D01*
X12709830Y-9979829D01*
X12698200Y-9962424D01*
X12683398Y-9947622D01*
X12665993Y-9935992D01*
X12646653Y-9927981D01*
X12626122Y-9923897D01*
X12605188Y-9923897D01*
X12584657Y-9927981D01*
X12565317Y-9935992D01*
X12547912Y-9947622D01*
X12533110Y-9962424D01*
X12521480Y-9979829D01*
X12513469Y-9999169D01*
X12509385Y-10019700D01*
X12462925Y-10019700D01*
X12462925Y-10013700D01*
X12458841Y-9993169D01*
X12450830Y-9973829D01*
X12439200Y-9956424D01*
X12424398Y-9941622D01*
X12406993Y-9929992D01*
X12387653Y-9921981D01*
X12367122Y-9917897D01*
X12346188Y-9917897D01*
X12325657Y-9921981D01*
X12306317Y-9929992D01*
X12288912Y-9941622D01*
X12274110Y-9956424D01*
X12262480Y-9973829D01*
X12254469Y-9993169D01*
X12250385Y-10013700D01*
X12250385Y-10034634D01*
X12254469Y-10055165D01*
X12262480Y-10074505D01*
X12274110Y-10091910D01*
X12274868Y-10092669D01*
X12184441Y-10092669D01*
X12185200Y-10091910D01*
X12196830Y-10074505D01*
X12204841Y-10055165D01*
X12208925Y-10034634D01*
X12208925Y-10013700D01*
X12204841Y-9993169D01*
X12196830Y-9973829D01*
X12185200Y-9956424D01*
X12170398Y-9941622D01*
X12152993Y-9929992D01*
X12133653Y-9921981D01*
X12113122Y-9917897D01*
X12092188Y-9917897D01*
X12071657Y-9921981D01*
X12052317Y-9929992D01*
X12034912Y-9941622D01*
X12020110Y-9956424D01*
X12008480Y-9973829D01*
X12000469Y-9993169D01*
X11996385Y-10013700D01*
X11996385Y-10034634D01*
X12000469Y-10055165D01*
X12008480Y-10074505D01*
X12020110Y-10091910D01*
X12020868Y-10092669D01*
X12001160Y-10092669D01*
X11998759Y-10092433D01*
X11989175Y-10093377D01*
X11986379Y-10094225D01*
X11979959Y-10096172D01*
X11971466Y-10100712D01*
X11964021Y-10106821D01*
X11962490Y-10108687D01*
X11862894Y-10208283D01*
X11853218Y-10208283D01*
X11839356Y-10211040D01*
X11829442Y-10215147D01*
X11826989Y-10211475D01*
X11816995Y-10201481D01*
X11805243Y-10193629D01*
X11792186Y-10188220D01*
X11778324Y-10185463D01*
X11764190Y-10185463D01*
X11750328Y-10188220D01*
X11737271Y-10193629D01*
X11725519Y-10201481D01*
X11715525Y-10211475D01*
X11707673Y-10223227D01*
X11702264Y-10236284D01*
X11699507Y-10250146D01*
X10806183Y-10250146D01*
X10806183Y-10014559D01*
X10806268Y-10013700D01*
X11747385Y-10013700D01*
X11747385Y-10034634D01*
X11751469Y-10055165D01*
X11759480Y-10074505D01*
X11771110Y-10091910D01*
X11785912Y-10106712D01*
X11803317Y-10118342D01*
X11822657Y-10126353D01*
X11843188Y-10130437D01*
X11864122Y-10130437D01*
X11884653Y-10126353D01*
X11903993Y-10118342D01*
X11921398Y-10106712D01*
X11936200Y-10091910D01*
X11947830Y-10074505D01*
X11955841Y-10055165D01*
X11959925Y-10034634D01*
X11959925Y-10013700D01*
X11955841Y-9993169D01*
X11947830Y-9973829D01*
X11936200Y-9956424D01*
X11921398Y-9941622D01*
X11903993Y-9929992D01*
X11884653Y-9921981D01*
X11864122Y-9917897D01*
X11843188Y-9917897D01*
X11822657Y-9921981D01*
X11803317Y-9929992D01*
X11785912Y-9941622D01*
X11771110Y-9956424D01*
X11759480Y-9973829D01*
X11751469Y-9993169D01*
X11747385Y-10013700D01*
X10806268Y-10013700D01*
X10806444Y-10011908D01*
X10806183Y-10009257D01*
X10805402Y-10001328D01*
X10802316Y-9991155D01*
X10797305Y-9981779D01*
X10790560Y-9973561D01*
X10788501Y-9971871D01*
X10757905Y-9941275D01*
X10757905Y-9938783D01*
X10755148Y-9924921D01*
X10749739Y-9911864D01*
X10741887Y-9900112D01*
X10731893Y-9890118D01*
X10720141Y-9882266D01*
X10707084Y-9876857D01*
X10693222Y-9874100D01*
X10679088Y-9874100D01*
X10665226Y-9876857D01*
X10652169Y-9882266D01*
X10640417Y-9890118D01*
X10630423Y-9900112D01*
X10622571Y-9911864D01*
X10617162Y-9924921D01*
X10614405Y-9938783D01*
X10614405Y-9952917D01*
X10617162Y-9966779D01*
X10622571Y-9979836D01*
X10630423Y-9991588D01*
X10640417Y-10001582D01*
X10652169Y-10009434D01*
X10665226Y-10014843D01*
X10679088Y-10017600D01*
X10681580Y-10017600D01*
X10698243Y-10034263D01*
X10698243Y-10742839D01*
X10685807Y-10747990D01*
X10674055Y-10755842D01*
X10664061Y-10765836D01*
X10656209Y-10777588D01*
X10650800Y-10790645D01*
X10649654Y-10796408D01*
X10538935Y-10907128D01*
X10536634Y-10909016D01*
X10534746Y-10911317D01*
X10534745Y-10911318D01*
X10529096Y-10918201D01*
X10523495Y-10928680D01*
X10520046Y-10940051D01*
X10519679Y-10943776D01*
X10519173Y-10948912D01*
X10519173Y-10948913D01*
X10518881Y-10951875D01*
X10519173Y-10954837D01*
X10519173Y-10961443D01*
X10515912Y-10963622D01*
X10501110Y-10978424D01*
X10489480Y-10995829D01*
X10481469Y-11015169D01*
X10477385Y-11035700D01*
X9927925Y-11035700D01*
X9923841Y-11015169D01*
X9915830Y-10995829D01*
X9904200Y-10978424D01*
X9889398Y-10963622D01*
X9871993Y-10951992D01*
X9852653Y-10943981D01*
X9832122Y-10939897D01*
X9811188Y-10939897D01*
X9790657Y-10943981D01*
X9771317Y-10951992D01*
X9753912Y-10963622D01*
X9739110Y-10978424D01*
X9727480Y-10995829D01*
X9719469Y-11015169D01*
X9715385Y-11035700D01*
X9397534Y-11035700D01*
X9397534Y-10781700D01*
X9715385Y-10781700D01*
X9715385Y-10802634D01*
X9719469Y-10823165D01*
X9727480Y-10842505D01*
X9739110Y-10859910D01*
X9753912Y-10874712D01*
X9771317Y-10886342D01*
X9790657Y-10894353D01*
X9811188Y-10898437D01*
X9832122Y-10898437D01*
X9852653Y-10894353D01*
X9871993Y-10886342D01*
X9889398Y-10874712D01*
X9904200Y-10859910D01*
X9915830Y-10842505D01*
X9923841Y-10823165D01*
X9927925Y-10802634D01*
X9927925Y-10781700D01*
X9923841Y-10761169D01*
X9915830Y-10741829D01*
X9904200Y-10724424D01*
X9889398Y-10709622D01*
X9871993Y-10697992D01*
X9852653Y-10689981D01*
X9832122Y-10685897D01*
X9811188Y-10685897D01*
X9790657Y-10689981D01*
X9771317Y-10697992D01*
X9753912Y-10709622D01*
X9739110Y-10724424D01*
X9727480Y-10741829D01*
X9719469Y-10761169D01*
X9715385Y-10781700D01*
X9397534Y-10781700D01*
X9397534Y-10519700D01*
X9715385Y-10519700D01*
X9715385Y-10540634D01*
X9719469Y-10561165D01*
X9727480Y-10580505D01*
X9739110Y-10597910D01*
X9753912Y-10612712D01*
X9771317Y-10624342D01*
X9790657Y-10632353D01*
X9811188Y-10636437D01*
X9832122Y-10636437D01*
X9852653Y-10632353D01*
X9871993Y-10624342D01*
X9889398Y-10612712D01*
X9904200Y-10597910D01*
X9915830Y-10580505D01*
X9923841Y-10561165D01*
X9927925Y-10540634D01*
X9927925Y-10519700D01*
X9923841Y-10499169D01*
X9915830Y-10479829D01*
X9904200Y-10462424D01*
X9889398Y-10447622D01*
X9871993Y-10435992D01*
X9852653Y-10427981D01*
X9832122Y-10423897D01*
X9811188Y-10423897D01*
X9790657Y-10427981D01*
X9771317Y-10435992D01*
X9753912Y-10447622D01*
X9739110Y-10462424D01*
X9727480Y-10479829D01*
X9719469Y-10499169D01*
X9715385Y-10519700D01*
X9397534Y-10519700D01*
X9397534Y-10267700D01*
X9710385Y-10267700D01*
X9710385Y-10288634D01*
X9714469Y-10309165D01*
X9722480Y-10328505D01*
X9734110Y-10345910D01*
X9748912Y-10360712D01*
X9766317Y-10372342D01*
X9785657Y-10380353D01*
X9806188Y-10384437D01*
X9827122Y-10384437D01*
X9847653Y-10380353D01*
X9866993Y-10372342D01*
X9884398Y-10360712D01*
X9899200Y-10345910D01*
X9910830Y-10328505D01*
X9918841Y-10309165D01*
X9922925Y-10288634D01*
X9922925Y-10267700D01*
X9918841Y-10247169D01*
X9910830Y-10227829D01*
X9899200Y-10210424D01*
X9884398Y-10195622D01*
X9866993Y-10183992D01*
X9847653Y-10175981D01*
X9827122Y-10171897D01*
X9806188Y-10171897D01*
X9785657Y-10175981D01*
X9766317Y-10183992D01*
X9748912Y-10195622D01*
X9734110Y-10210424D01*
X9722480Y-10227829D01*
X9714469Y-10247169D01*
X9710385Y-10267700D01*
X9397534Y-10267700D01*
X9397534Y-10019700D01*
X9715385Y-10019700D01*
X9715385Y-10040634D01*
X9719469Y-10061165D01*
X9727480Y-10080505D01*
X9739110Y-10097910D01*
X9753912Y-10112712D01*
X9771317Y-10124342D01*
X9790657Y-10132353D01*
X9811188Y-10136437D01*
X9832122Y-10136437D01*
X9852653Y-10132353D01*
X9871993Y-10124342D01*
X9889398Y-10112712D01*
X9904200Y-10097910D01*
X9915830Y-10080505D01*
X9923841Y-10061165D01*
X9927925Y-10040634D01*
X9927925Y-10019700D01*
X9923841Y-9999169D01*
X9915830Y-9979829D01*
X9904200Y-9962424D01*
X9889398Y-9947622D01*
X9871993Y-9935992D01*
X9852653Y-9927981D01*
X9832122Y-9923897D01*
X9811188Y-9923897D01*
X9790657Y-9927981D01*
X9771317Y-9935992D01*
X9753912Y-9947622D01*
X9739110Y-9962424D01*
X9727480Y-9979829D01*
X9719469Y-9999169D01*
X9715385Y-10019700D01*
X9397534Y-10019700D01*
X9397534Y-9759700D01*
X9710385Y-9759700D01*
X9710385Y-9780634D01*
X9714469Y-9801165D01*
X9722480Y-9820505D01*
X9734110Y-9837910D01*
X9748912Y-9852712D01*
X9766317Y-9864342D01*
X9785657Y-9872353D01*
X9806188Y-9876437D01*
X9827122Y-9876437D01*
X9847653Y-9872353D01*
X9866993Y-9864342D01*
X9884398Y-9852712D01*
X9899200Y-9837910D01*
X9910830Y-9820505D01*
X9918841Y-9801165D01*
X9922925Y-9780634D01*
X9922925Y-9759700D01*
X9918841Y-9739169D01*
X9910830Y-9719829D01*
X9899200Y-9702424D01*
X9884398Y-9687622D01*
X9866993Y-9675992D01*
X9847653Y-9667981D01*
X9827122Y-9663897D01*
X9806188Y-9663897D01*
X9785657Y-9667981D01*
X9766317Y-9675992D01*
X9748912Y-9687622D01*
X9734110Y-9702424D01*
X9722480Y-9719829D01*
X9714469Y-9739169D01*
X9710385Y-9759700D01*
X9397534Y-9759700D01*
X9397534Y-9519700D01*
X9715385Y-9519700D01*
X9715385Y-9540634D01*
X9719469Y-9561165D01*
X9727480Y-9580505D01*
X9739110Y-9597910D01*
X9753912Y-9612712D01*
X9771317Y-9624342D01*
X9790657Y-9632353D01*
X9811188Y-9636437D01*
X9832122Y-9636437D01*
X9852653Y-9632353D01*
X9871993Y-9624342D01*
X9889398Y-9612712D01*
X9904200Y-9597910D01*
X9915830Y-9580505D01*
X9923841Y-9561165D01*
X9927925Y-9540634D01*
X9927925Y-9519700D01*
X9926334Y-9511700D01*
X11747385Y-9511700D01*
X11747385Y-9532634D01*
X11751469Y-9553165D01*
X11759480Y-9572505D01*
X11771110Y-9589910D01*
X11785912Y-9604712D01*
X11803317Y-9616342D01*
X11822657Y-9624353D01*
X11843188Y-9628437D01*
X11864122Y-9628437D01*
X11884653Y-9624353D01*
X11903993Y-9616342D01*
X11921398Y-9604712D01*
X11936200Y-9589910D01*
X11947830Y-9572505D01*
X11955841Y-9553165D01*
X11959925Y-9532634D01*
X11959925Y-9511700D01*
X11958732Y-9505700D01*
X11996385Y-9505700D01*
X11996385Y-9526634D01*
X12000469Y-9547165D01*
X12008480Y-9566505D01*
X12020110Y-9583910D01*
X12034912Y-9598712D01*
X12052317Y-9610342D01*
X12071657Y-9618353D01*
X12092188Y-9622437D01*
X12113122Y-9622437D01*
X12133653Y-9618353D01*
X12152993Y-9610342D01*
X12170398Y-9598712D01*
X12185200Y-9583910D01*
X12196830Y-9566505D01*
X12204841Y-9547165D01*
X12208925Y-9526634D01*
X12208925Y-9505700D01*
X12250385Y-9505700D01*
X12250385Y-9526634D01*
X12254469Y-9547165D01*
X12262480Y-9566505D01*
X12274110Y-9583910D01*
X12288912Y-9598712D01*
X12306317Y-9610342D01*
X12325657Y-9618353D01*
X12346188Y-9622437D01*
X12367122Y-9622437D01*
X12387653Y-9618353D01*
X12406993Y-9610342D01*
X12424398Y-9598712D01*
X12439200Y-9583910D01*
X12450830Y-9566505D01*
X12458841Y-9547165D01*
X12462925Y-9526634D01*
X12462925Y-9505700D01*
X12458841Y-9485169D01*
X12450830Y-9465829D01*
X12439200Y-9448424D01*
X12424398Y-9433622D01*
X12406993Y-9421992D01*
X12387653Y-9413981D01*
X12367122Y-9409897D01*
X12346188Y-9409897D01*
X12325657Y-9413981D01*
X12306317Y-9421992D01*
X12288912Y-9433622D01*
X12274110Y-9448424D01*
X12262480Y-9465829D01*
X12254469Y-9485169D01*
X12250385Y-9505700D01*
X12208925Y-9505700D01*
X12204841Y-9485169D01*
X12196830Y-9465829D01*
X12185200Y-9448424D01*
X12170398Y-9433622D01*
X12152993Y-9421992D01*
X12133653Y-9413981D01*
X12113122Y-9409897D01*
X12092188Y-9409897D01*
X12071657Y-9413981D01*
X12052317Y-9421992D01*
X12034912Y-9433622D01*
X12020110Y-9448424D01*
X12008480Y-9465829D01*
X12000469Y-9485169D01*
X11996385Y-9505700D01*
X11958732Y-9505700D01*
X11955841Y-9491169D01*
X11947830Y-9471829D01*
X11936200Y-9454424D01*
X11921398Y-9439622D01*
X11903993Y-9427992D01*
X11884653Y-9419981D01*
X11864122Y-9415897D01*
X11843188Y-9415897D01*
X11822657Y-9419981D01*
X11803317Y-9427992D01*
X11785912Y-9439622D01*
X11771110Y-9454424D01*
X11759480Y-9471829D01*
X11751469Y-9491169D01*
X11747385Y-9511700D01*
X9926334Y-9511700D01*
X9923841Y-9499169D01*
X9915830Y-9479829D01*
X9904200Y-9462424D01*
X9889398Y-9447622D01*
X9871993Y-9435992D01*
X9852653Y-9427981D01*
X9832122Y-9423897D01*
X9811188Y-9423897D01*
X9790657Y-9427981D01*
X9771317Y-9435992D01*
X9753912Y-9447622D01*
X9739110Y-9462424D01*
X9727480Y-9479829D01*
X9719469Y-9499169D01*
X9715385Y-9519700D01*
X9397534Y-9519700D01*
X9397534Y-9251700D01*
X11742385Y-9251700D01*
X11742385Y-9272634D01*
X11746469Y-9293165D01*
X11754480Y-9312505D01*
X11766110Y-9329910D01*
X11780912Y-9344712D01*
X11798317Y-9356342D01*
X11817657Y-9364353D01*
X11838188Y-9368437D01*
X11859122Y-9368437D01*
X11879653Y-9364353D01*
X11898993Y-9356342D01*
X11916398Y-9344712D01*
X11931200Y-9329910D01*
X11942830Y-9312505D01*
X11950841Y-9293165D01*
X11954925Y-9272634D01*
X11954925Y-9251700D01*
X11996385Y-9251700D01*
X11996385Y-9272634D01*
X12000469Y-9293165D01*
X12008480Y-9312505D01*
X12020110Y-9329910D01*
X12034912Y-9344712D01*
X12052317Y-9356342D01*
X12071657Y-9364353D01*
X12092188Y-9368437D01*
X12113122Y-9368437D01*
X12133653Y-9364353D01*
X12152993Y-9356342D01*
X12170398Y-9344712D01*
X12185200Y-9329910D01*
X12196830Y-9312505D01*
X12204841Y-9293165D01*
X12208925Y-9272634D01*
X12208925Y-9251700D01*
X12204841Y-9231169D01*
X12196830Y-9211829D01*
X12185200Y-9194424D01*
X12170398Y-9179622D01*
X12152993Y-9167992D01*
X12133653Y-9159981D01*
X12113122Y-9155897D01*
X12092188Y-9155897D01*
X12071657Y-9159981D01*
X12052317Y-9167992D01*
X12034912Y-9179622D01*
X12020110Y-9194424D01*
X12008480Y-9211829D01*
X12000469Y-9231169D01*
X11996385Y-9251700D01*
X11954925Y-9251700D01*
X11950841Y-9231169D01*
X11942830Y-9211829D01*
X11931200Y-9194424D01*
X11916398Y-9179622D01*
X11898993Y-9167992D01*
X11879653Y-9159981D01*
X11859122Y-9155897D01*
X11838188Y-9155897D01*
X11817657Y-9159981D01*
X11798317Y-9167992D01*
X11780912Y-9179622D01*
X11766110Y-9194424D01*
X11754480Y-9211829D01*
X11746469Y-9231169D01*
X11742385Y-9251700D01*
X9397534Y-9251700D01*
X9397534Y-7970440D01*
X13570385Y-7970527D01*
X13570385Y-7970527D01*
G37*
X13570385Y-7970527D02*
X13570385Y-11813498D01*
X9397534Y-11813498D01*
X9397534Y-11289700D01*
X10477385Y-11289700D01*
X10477385Y-11310634D01*
X10481469Y-11331165D01*
X10489480Y-11350505D01*
X10501110Y-11367910D01*
X10515912Y-11382712D01*
X10533317Y-11394342D01*
X10552657Y-11402353D01*
X10573188Y-11406437D01*
X10594122Y-11406437D01*
X10614653Y-11402353D01*
X10633993Y-11394342D01*
X10651398Y-11382712D01*
X10666200Y-11367910D01*
X10677830Y-11350505D01*
X10685841Y-11331165D01*
X10689925Y-11310634D01*
X10689925Y-11289700D01*
X11747385Y-11289700D01*
X11747385Y-11310634D01*
X11751469Y-11331165D01*
X11759480Y-11350505D01*
X11771110Y-11367910D01*
X11785912Y-11382712D01*
X11803317Y-11394342D01*
X11822657Y-11402353D01*
X11843188Y-11406437D01*
X11864122Y-11406437D01*
X11884653Y-11402353D01*
X11903993Y-11394342D01*
X11921398Y-11382712D01*
X11936200Y-11367910D01*
X11947830Y-11350505D01*
X11955841Y-11331165D01*
X11959925Y-11310634D01*
X11959925Y-11289700D01*
X12001385Y-11289700D01*
X12001385Y-11310634D01*
X12005469Y-11331165D01*
X12013480Y-11350505D01*
X12025110Y-11367910D01*
X12039912Y-11382712D01*
X12057317Y-11394342D01*
X12076657Y-11402353D01*
X12097188Y-11406437D01*
X12118122Y-11406437D01*
X12138653Y-11402353D01*
X12157993Y-11394342D01*
X12175398Y-11382712D01*
X12190200Y-11367910D01*
X12201830Y-11350505D01*
X12209841Y-11331165D01*
X12213925Y-11310634D01*
X12213925Y-11289700D01*
X12212732Y-11283700D01*
X12250385Y-11283700D01*
X12250385Y-11304634D01*
X12254469Y-11325165D01*
X12262480Y-11344505D01*
X12274110Y-11361910D01*
X12288912Y-11376712D01*
X12306317Y-11388342D01*
X12325657Y-11396353D01*
X12346188Y-11400437D01*
X12367122Y-11400437D01*
X12387653Y-11396353D01*
X12406993Y-11388342D01*
X12424398Y-11376712D01*
X12439200Y-11361910D01*
X12450830Y-11344505D01*
X12458841Y-11325165D01*
X12462925Y-11304634D01*
X12462925Y-11283700D01*
X12504385Y-11283700D01*
X12504385Y-11304634D01*
X12508469Y-11325165D01*
X12516480Y-11344505D01*
X12528110Y-11361910D01*
X12542912Y-11376712D01*
X12560317Y-11388342D01*
X12579657Y-11396353D01*
X12600188Y-11400437D01*
X12621122Y-11400437D01*
X12641653Y-11396353D01*
X12660993Y-11388342D01*
X12678398Y-11376712D01*
X12693200Y-11361910D01*
X12704830Y-11344505D01*
X12712841Y-11325165D01*
X12716925Y-11304634D01*
X12716925Y-11283700D01*
X12712841Y-11263169D01*
X12704830Y-11243829D01*
X12693200Y-11226424D01*
X12678398Y-11211622D01*
X12660993Y-11199992D01*
X12641653Y-11191981D01*
X12621122Y-11187897D01*
X12600188Y-11187897D01*
X12579657Y-11191981D01*
X12560317Y-11199992D01*
X12542912Y-11211622D01*
X12528110Y-11226424D01*
X12516480Y-11243829D01*
X12508469Y-11263169D01*
X12504385Y-11283700D01*
X12462925Y-11283700D01*
X12458841Y-11263169D01*
X12450830Y-11243829D01*
X12439200Y-11226424D01*
X12424398Y-11211622D01*
X12406993Y-11199992D01*
X12387653Y-11191981D01*
X12367122Y-11187897D01*
X12346188Y-11187897D01*
X12325657Y-11191981D01*
X12306317Y-11199992D01*
X12288912Y-11211622D01*
X12274110Y-11226424D01*
X12262480Y-11243829D01*
X12254469Y-11263169D01*
X12250385Y-11283700D01*
X12212732Y-11283700D01*
X12209841Y-11269169D01*
X12201830Y-11249829D01*
X12190200Y-11232424D01*
X12175398Y-11217622D01*
X12157993Y-11205992D01*
X12138653Y-11197981D01*
X12118122Y-11193897D01*
X12097188Y-11193897D01*
X12076657Y-11197981D01*
X12057317Y-11205992D01*
X12039912Y-11217622D01*
X12025110Y-11232424D01*
X12013480Y-11249829D01*
X12005469Y-11269169D01*
X12001385Y-11289700D01*
X11959925Y-11289700D01*
X11955841Y-11269169D01*
X11947830Y-11249829D01*
X11936200Y-11232424D01*
X11921398Y-11217622D01*
X11903993Y-11205992D01*
X11884653Y-11197981D01*
X11864122Y-11193897D01*
X11843188Y-11193897D01*
X11822657Y-11197981D01*
X11803317Y-11205992D01*
X11785912Y-11217622D01*
X11771110Y-11232424D01*
X11759480Y-11249829D01*
X11751469Y-11269169D01*
X11747385Y-11289700D01*
X10689925Y-11289700D01*
X10685841Y-11269169D01*
X10677830Y-11249829D01*
X10666200Y-11232424D01*
X10651398Y-11217622D01*
X10633993Y-11205992D01*
X10614653Y-11197981D01*
X10594122Y-11193897D01*
X10573188Y-11193897D01*
X10552657Y-11197981D01*
X10533317Y-11205992D01*
X10515912Y-11217622D01*
X10501110Y-11232424D01*
X10489480Y-11249829D01*
X10481469Y-11269169D01*
X10477385Y-11289700D01*
X9397534Y-11289700D01*
X9397534Y-11035700D01*
X9715385Y-11035700D01*
X9715385Y-11056634D01*
X9719469Y-11077165D01*
X9727480Y-11096505D01*
X9739110Y-11113910D01*
X9753912Y-11128712D01*
X9771317Y-11140342D01*
X9790657Y-11148353D01*
X9811188Y-11152437D01*
X9832122Y-11152437D01*
X9852653Y-11148353D01*
X9871993Y-11140342D01*
X9889398Y-11128712D01*
X9904200Y-11113910D01*
X9915830Y-11096505D01*
X9923841Y-11077165D01*
X9927925Y-11056634D01*
X9927925Y-11035700D01*
X10477385Y-11035700D01*
X10477385Y-11056634D01*
X10481469Y-11077165D01*
X10489480Y-11096505D01*
X10501110Y-11113910D01*
X10515912Y-11128712D01*
X10533317Y-11140342D01*
X10552657Y-11148353D01*
X10573188Y-11152437D01*
X10594122Y-11152437D01*
X10614653Y-11148353D01*
X10633993Y-11140342D01*
X10651398Y-11128712D01*
X10666200Y-11113910D01*
X10677830Y-11096505D01*
X10685841Y-11077165D01*
X10689925Y-11056634D01*
X10689925Y-11035700D01*
X11747385Y-11035700D01*
X11747385Y-11056634D01*
X11751469Y-11077165D01*
X11759480Y-11096505D01*
X11771110Y-11113910D01*
X11785912Y-11128712D01*
X11803317Y-11140342D01*
X11822657Y-11148353D01*
X11843188Y-11152437D01*
X11864122Y-11152437D01*
X11884653Y-11148353D01*
X11903993Y-11140342D01*
X11921398Y-11128712D01*
X11936200Y-11113910D01*
X11947830Y-11096505D01*
X11955841Y-11077165D01*
X11959925Y-11056634D01*
X11959925Y-11035700D01*
X11958732Y-11029700D01*
X11996385Y-11029700D01*
X11996385Y-11050634D01*
X12000469Y-11071165D01*
X12008480Y-11090505D01*
X12020110Y-11107910D01*
X12034912Y-11122712D01*
X12052317Y-11134342D01*
X12071657Y-11142353D01*
X12092188Y-11146437D01*
X12113122Y-11146437D01*
X12133653Y-11142353D01*
X12152993Y-11134342D01*
X12170398Y-11122712D01*
X12185200Y-11107910D01*
X12196830Y-11090505D01*
X12204841Y-11071165D01*
X12208925Y-11050634D01*
X12208925Y-11035700D01*
X12255385Y-11035700D01*
X12255385Y-11056634D01*
X12259469Y-11077165D01*
X12267480Y-11096505D01*
X12279110Y-11113910D01*
X12293912Y-11128712D01*
X12311317Y-11140342D01*
X12330657Y-11148353D01*
X12351188Y-11152437D01*
X12372122Y-11152437D01*
X12392653Y-11148353D01*
X12411993Y-11140342D01*
X12429398Y-11128712D01*
X12444200Y-11113910D01*
X12455830Y-11096505D01*
X12463841Y-11077165D01*
X12467925Y-11056634D01*
X12467925Y-11035700D01*
X12466732Y-11029700D01*
X12504385Y-11029700D01*
X12504385Y-11050634D01*
X12508469Y-11071165D01*
X12516480Y-11090505D01*
X12528110Y-11107910D01*
X12542912Y-11122712D01*
X12560317Y-11134342D01*
X12579657Y-11142353D01*
X12600188Y-11146437D01*
X12621122Y-11146437D01*
X12641653Y-11142353D01*
X12660993Y-11134342D01*
X12678398Y-11122712D01*
X12693200Y-11107910D01*
X12704830Y-11090505D01*
X12712841Y-11071165D01*
X12716925Y-11050634D01*
X12716925Y-11035700D01*
X12763385Y-11035700D01*
X12763385Y-11056634D01*
X12767469Y-11077165D01*
X12775480Y-11096505D01*
X12787110Y-11113910D01*
X12801912Y-11128712D01*
X12819317Y-11140342D01*
X12838657Y-11148353D01*
X12859188Y-11152437D01*
X12880122Y-11152437D01*
X12900653Y-11148353D01*
X12919993Y-11140342D01*
X12937398Y-11128712D01*
X12952200Y-11113910D01*
X12963830Y-11096505D01*
X12971841Y-11077165D01*
X12975925Y-11056634D01*
X12975925Y-11035700D01*
X12971841Y-11015169D01*
X12963830Y-10995829D01*
X12952200Y-10978424D01*
X12937398Y-10963622D01*
X12919993Y-10951992D01*
X12900653Y-10943981D01*
X12880122Y-10939897D01*
X12859188Y-10939897D01*
X12838657Y-10943981D01*
X12819317Y-10951992D01*
X12801912Y-10963622D01*
X12787110Y-10978424D01*
X12775480Y-10995829D01*
X12767469Y-11015169D01*
X12763385Y-11035700D01*
X12716925Y-11035700D01*
X12716925Y-11029700D01*
X12712841Y-11009169D01*
X12704830Y-10989829D01*
X12693200Y-10972424D01*
X12678398Y-10957622D01*
X12660993Y-10945992D01*
X12641653Y-10937981D01*
X12621122Y-10933897D01*
X12600188Y-10933897D01*
X12579657Y-10937981D01*
X12560317Y-10945992D01*
X12542912Y-10957622D01*
X12528110Y-10972424D01*
X12516480Y-10989829D01*
X12508469Y-11009169D01*
X12504385Y-11029700D01*
X12466732Y-11029700D01*
X12463841Y-11015169D01*
X12455830Y-10995829D01*
X12444200Y-10978424D01*
X12429398Y-10963622D01*
X12411993Y-10951992D01*
X12392653Y-10943981D01*
X12372122Y-10939897D01*
X12351188Y-10939897D01*
X12330657Y-10943981D01*
X12311317Y-10951992D01*
X12293912Y-10963622D01*
X12279110Y-10978424D01*
X12267480Y-10995829D01*
X12259469Y-11015169D01*
X12255385Y-11035700D01*
X12208925Y-11035700D01*
X12208925Y-11029700D01*
X12204841Y-11009169D01*
X12196830Y-10989829D01*
X12185200Y-10972424D01*
X12170398Y-10957622D01*
X12152993Y-10945992D01*
X12133653Y-10937981D01*
X12113122Y-10933897D01*
X12092188Y-10933897D01*
X12071657Y-10937981D01*
X12052317Y-10945992D01*
X12034912Y-10957622D01*
X12020110Y-10972424D01*
X12008480Y-10989829D01*
X12000469Y-11009169D01*
X11996385Y-11029700D01*
X11958732Y-11029700D01*
X11955841Y-11015169D01*
X11947830Y-10995829D01*
X11936200Y-10978424D01*
X11921398Y-10963622D01*
X11903993Y-10951992D01*
X11884653Y-10943981D01*
X11864122Y-10939897D01*
X11843188Y-10939897D01*
X11822657Y-10943981D01*
X11803317Y-10951992D01*
X11785912Y-10963622D01*
X11771110Y-10978424D01*
X11759480Y-10995829D01*
X11751469Y-11015169D01*
X11747385Y-11035700D01*
X10689925Y-11035700D01*
X10685841Y-11015169D01*
X10677830Y-10995829D01*
X10666200Y-10978424D01*
X10652225Y-10964448D01*
X10734960Y-10881713D01*
X10740722Y-10880567D01*
X10753779Y-10875158D01*
X10758665Y-10871894D01*
X10940622Y-10871894D01*
X10943584Y-10872186D01*
X10946546Y-10871894D01*
X10946547Y-10871894D01*
X10955409Y-10871021D01*
X10966779Y-10867572D01*
X10977258Y-10861971D01*
X10986443Y-10854433D01*
X10988332Y-10852131D01*
X11130858Y-10709605D01*
X11442800Y-10709605D01*
X11445762Y-10709897D01*
X11448724Y-10709605D01*
X11448725Y-10709605D01*
X11457587Y-10708732D01*
X11468957Y-10705283D01*
X11479436Y-10699682D01*
X11488621Y-10692144D01*
X11490510Y-10689842D01*
X11592880Y-10587472D01*
X11598642Y-10586326D01*
X11611699Y-10580917D01*
X11623451Y-10573065D01*
X11633445Y-10563071D01*
X11641297Y-10551319D01*
X11646706Y-10538262D01*
X11649463Y-10524400D01*
X11649463Y-10510266D01*
X11646706Y-10496404D01*
X11641297Y-10483347D01*
X11633445Y-10471595D01*
X11623451Y-10461601D01*
X11611699Y-10453749D01*
X11598642Y-10448340D01*
X11584780Y-10445583D01*
X11570646Y-10445583D01*
X11556784Y-10448340D01*
X11543727Y-10453749D01*
X11531975Y-10461601D01*
X11521981Y-10471595D01*
X11514129Y-10483347D01*
X11508720Y-10496404D01*
X11507574Y-10502167D01*
X11420777Y-10588965D01*
X11108835Y-10588965D01*
X11105873Y-10588673D01*
X11102911Y-10588965D01*
X11102910Y-10588965D01*
X11094048Y-10589838D01*
X11082678Y-10593287D01*
X11077800Y-10595894D01*
X11072199Y-10598888D01*
X11067570Y-10602687D01*
X11063014Y-10606426D01*
X11061125Y-10608728D01*
X10918599Y-10751254D01*
X10806183Y-10751254D01*
X10806183Y-10250146D01*
X11699507Y-10250146D01*
X11699507Y-10264280D01*
X11702264Y-10278142D01*
X11707673Y-10291199D01*
X11715525Y-10302951D01*
X11723039Y-10310465D01*
X11723074Y-10310824D01*
X11723718Y-10312945D01*
X11725870Y-10320040D01*
X11730410Y-10328533D01*
X11736519Y-10335978D01*
X11738385Y-10337509D01*
X11828667Y-10427791D01*
X11817657Y-10429981D01*
X11798317Y-10437992D01*
X11780912Y-10449622D01*
X11766110Y-10464424D01*
X11754480Y-10481829D01*
X11746469Y-10501169D01*
X11742385Y-10521700D01*
X11742385Y-10542634D01*
X11746469Y-10563165D01*
X11754480Y-10582505D01*
X11766110Y-10599910D01*
X11780912Y-10614712D01*
X11798317Y-10626342D01*
X11817657Y-10634353D01*
X11838188Y-10638437D01*
X11859122Y-10638437D01*
X11879653Y-10634353D01*
X11898993Y-10626342D01*
X11916398Y-10614712D01*
X11931200Y-10599910D01*
X11942830Y-10582505D01*
X11950841Y-10563165D01*
X11954925Y-10542634D01*
X11954925Y-10521700D01*
X11950841Y-10501169D01*
X11942830Y-10481829D01*
X11931200Y-10464424D01*
X11924310Y-10457534D01*
X12026999Y-10457534D01*
X12020110Y-10464424D01*
X12008480Y-10481829D01*
X12000469Y-10501169D01*
X11996385Y-10521700D01*
X11996385Y-10542634D01*
X12000469Y-10563165D01*
X12008480Y-10582505D01*
X12020110Y-10599910D01*
X12034912Y-10614712D01*
X12052317Y-10626342D01*
X12071657Y-10634353D01*
X12092188Y-10638437D01*
X12113122Y-10638437D01*
X12133653Y-10634353D01*
X12152993Y-10626342D01*
X12170398Y-10614712D01*
X12185200Y-10599910D01*
X12196830Y-10582505D01*
X12204841Y-10563165D01*
X12208925Y-10542634D01*
X12208925Y-10521700D01*
X12204841Y-10501169D01*
X12196830Y-10481829D01*
X12185200Y-10464424D01*
X12178310Y-10457534D01*
X12280999Y-10457534D01*
X12274110Y-10464424D01*
X12262480Y-10481829D01*
X12254469Y-10501169D01*
X12250385Y-10521700D01*
X12250385Y-10542634D01*
X12254469Y-10563165D01*
X12262480Y-10582505D01*
X12274110Y-10599910D01*
X12288912Y-10614712D01*
X12306317Y-10626342D01*
X12325657Y-10634353D01*
X12346188Y-10638437D01*
X12367122Y-10638437D01*
X12387653Y-10634353D01*
X12406993Y-10626342D01*
X12424398Y-10614712D01*
X12439200Y-10599910D01*
X12450830Y-10582505D01*
X12458841Y-10563165D01*
X12462925Y-10542634D01*
X12462925Y-10521700D01*
X12458841Y-10501169D01*
X12450830Y-10481829D01*
X12439200Y-10464424D01*
X12432310Y-10457534D01*
X12467313Y-10457534D01*
X12514488Y-10504709D01*
X12513469Y-10507169D01*
X12509385Y-10527700D01*
X12509385Y-10548634D01*
X12513469Y-10569165D01*
X12521480Y-10588505D01*
X12533110Y-10605910D01*
X12547912Y-10620712D01*
X12565317Y-10632342D01*
X12584657Y-10640353D01*
X12605188Y-10644437D01*
X12626122Y-10644437D01*
X12646653Y-10640353D01*
X12665993Y-10632342D01*
X12683398Y-10620712D01*
X12698200Y-10605910D01*
X12709830Y-10588505D01*
X12717841Y-10569165D01*
X12721925Y-10548634D01*
X12721925Y-10527700D01*
X12717841Y-10507169D01*
X12709830Y-10487829D01*
X12698200Y-10470424D01*
X12683398Y-10455622D01*
X12665993Y-10443992D01*
X12646653Y-10435981D01*
X12626122Y-10431897D01*
X12605188Y-10431897D01*
X12584657Y-10435981D01*
X12584222Y-10436161D01*
X12523833Y-10375772D01*
X12522302Y-10373906D01*
X12514857Y-10367797D01*
X12506364Y-10363257D01*
X12497148Y-10360462D01*
X12489965Y-10359754D01*
X12487564Y-10359518D01*
X12485163Y-10359754D01*
X12425356Y-10359754D01*
X12439200Y-10345910D01*
X12450830Y-10328505D01*
X12458841Y-10309165D01*
X12462925Y-10288634D01*
X12462925Y-10267700D01*
X12458841Y-10247169D01*
X12450830Y-10227829D01*
X12439200Y-10210424D01*
X12424398Y-10195622D01*
X12416657Y-10190449D01*
X12478413Y-10190449D01*
X12516279Y-10228315D01*
X12508469Y-10247169D01*
X12504385Y-10267700D01*
X12504385Y-10288634D01*
X12508469Y-10309165D01*
X12516480Y-10328505D01*
X12528110Y-10345910D01*
X12542912Y-10360712D01*
X12560317Y-10372342D01*
X12579657Y-10380353D01*
X12600188Y-10384437D01*
X12621122Y-10384437D01*
X12641653Y-10380353D01*
X12660993Y-10372342D01*
X12678398Y-10360712D01*
X12693200Y-10345910D01*
X12704830Y-10328505D01*
X12712841Y-10309165D01*
X12716925Y-10288634D01*
X12716925Y-10267700D01*
X12712841Y-10247169D01*
X12704830Y-10227829D01*
X12693200Y-10210424D01*
X12678398Y-10195622D01*
X12660993Y-10183992D01*
X12641653Y-10175981D01*
X12621122Y-10171897D01*
X12600188Y-10171897D01*
X12598482Y-10172236D01*
X12534933Y-10108687D01*
X12533402Y-10106821D01*
X12525957Y-10100712D01*
X12517464Y-10096172D01*
X12508248Y-10093377D01*
X12501065Y-10092669D01*
X12498664Y-10092433D01*
X12496263Y-10092669D01*
X12438441Y-10092669D01*
X12439200Y-10091910D01*
X12450830Y-10074505D01*
X12458841Y-10055165D01*
X12462925Y-10034634D01*
X12462925Y-10019700D01*
X12509385Y-10019700D01*
X12509385Y-10040634D01*
X12513469Y-10061165D01*
X12521480Y-10080505D01*
X12533110Y-10097910D01*
X12547912Y-10112712D01*
X12565317Y-10124342D01*
X12584657Y-10132353D01*
X12605188Y-10136437D01*
X12626122Y-10136437D01*
X12646653Y-10132353D01*
X12665993Y-10124342D01*
X12683398Y-10112712D01*
X12698200Y-10097910D01*
X12709830Y-10080505D01*
X12717841Y-10061165D01*
X12721925Y-10040634D01*
X12721925Y-10019700D01*
X12717841Y-9999169D01*
X12709830Y-9979829D01*
X12698200Y-9962424D01*
X12683398Y-9947622D01*
X12665993Y-9935992D01*
X12646653Y-9927981D01*
X12626122Y-9923897D01*
X12605188Y-9923897D01*
X12584657Y-9927981D01*
X12565317Y-9935992D01*
X12547912Y-9947622D01*
X12533110Y-9962424D01*
X12521480Y-9979829D01*
X12513469Y-9999169D01*
X12509385Y-10019700D01*
X12462925Y-10019700D01*
X12462925Y-10013700D01*
X12458841Y-9993169D01*
X12450830Y-9973829D01*
X12439200Y-9956424D01*
X12424398Y-9941622D01*
X12406993Y-9929992D01*
X12387653Y-9921981D01*
X12367122Y-9917897D01*
X12346188Y-9917897D01*
X12325657Y-9921981D01*
X12306317Y-9929992D01*
X12288912Y-9941622D01*
X12274110Y-9956424D01*
X12262480Y-9973829D01*
X12254469Y-9993169D01*
X12250385Y-10013700D01*
X12250385Y-10034634D01*
X12254469Y-10055165D01*
X12262480Y-10074505D01*
X12274110Y-10091910D01*
X12274868Y-10092669D01*
X12184441Y-10092669D01*
X12185200Y-10091910D01*
X12196830Y-10074505D01*
X12204841Y-10055165D01*
X12208925Y-10034634D01*
X12208925Y-10013700D01*
X12204841Y-9993169D01*
X12196830Y-9973829D01*
X12185200Y-9956424D01*
X12170398Y-9941622D01*
X12152993Y-9929992D01*
X12133653Y-9921981D01*
X12113122Y-9917897D01*
X12092188Y-9917897D01*
X12071657Y-9921981D01*
X12052317Y-9929992D01*
X12034912Y-9941622D01*
X12020110Y-9956424D01*
X12008480Y-9973829D01*
X12000469Y-9993169D01*
X11996385Y-10013700D01*
X11996385Y-10034634D01*
X12000469Y-10055165D01*
X12008480Y-10074505D01*
X12020110Y-10091910D01*
X12020868Y-10092669D01*
X12001160Y-10092669D01*
X11998759Y-10092433D01*
X11989175Y-10093377D01*
X11986379Y-10094225D01*
X11979959Y-10096172D01*
X11971466Y-10100712D01*
X11964021Y-10106821D01*
X11962490Y-10108687D01*
X11862894Y-10208283D01*
X11853218Y-10208283D01*
X11839356Y-10211040D01*
X11829442Y-10215147D01*
X11826989Y-10211475D01*
X11816995Y-10201481D01*
X11805243Y-10193629D01*
X11792186Y-10188220D01*
X11778324Y-10185463D01*
X11764190Y-10185463D01*
X11750328Y-10188220D01*
X11737271Y-10193629D01*
X11725519Y-10201481D01*
X11715525Y-10211475D01*
X11707673Y-10223227D01*
X11702264Y-10236284D01*
X11699507Y-10250146D01*
X10806183Y-10250146D01*
X10806183Y-10014559D01*
X10806268Y-10013700D01*
X11747385Y-10013700D01*
X11747385Y-10034634D01*
X11751469Y-10055165D01*
X11759480Y-10074505D01*
X11771110Y-10091910D01*
X11785912Y-10106712D01*
X11803317Y-10118342D01*
X11822657Y-10126353D01*
X11843188Y-10130437D01*
X11864122Y-10130437D01*
X11884653Y-10126353D01*
X11903993Y-10118342D01*
X11921398Y-10106712D01*
X11936200Y-10091910D01*
X11947830Y-10074505D01*
X11955841Y-10055165D01*
X11959925Y-10034634D01*
X11959925Y-10013700D01*
X11955841Y-9993169D01*
X11947830Y-9973829D01*
X11936200Y-9956424D01*
X11921398Y-9941622D01*
X11903993Y-9929992D01*
X11884653Y-9921981D01*
X11864122Y-9917897D01*
X11843188Y-9917897D01*
X11822657Y-9921981D01*
X11803317Y-9929992D01*
X11785912Y-9941622D01*
X11771110Y-9956424D01*
X11759480Y-9973829D01*
X11751469Y-9993169D01*
X11747385Y-10013700D01*
X10806268Y-10013700D01*
X10806444Y-10011908D01*
X10806183Y-10009257D01*
X10805402Y-10001328D01*
X10802316Y-9991155D01*
X10797305Y-9981779D01*
X10790560Y-9973561D01*
X10788501Y-9971871D01*
X10757905Y-9941275D01*
X10757905Y-9938783D01*
X10755148Y-9924921D01*
X10749739Y-9911864D01*
X10741887Y-9900112D01*
X10731893Y-9890118D01*
X10720141Y-9882266D01*
X10707084Y-9876857D01*
X10693222Y-9874100D01*
X10679088Y-9874100D01*
X10665226Y-9876857D01*
X10652169Y-9882266D01*
X10640417Y-9890118D01*
X10630423Y-9900112D01*
X10622571Y-9911864D01*
X10617162Y-9924921D01*
X10614405Y-9938783D01*
X10614405Y-9952917D01*
X10617162Y-9966779D01*
X10622571Y-9979836D01*
X10630423Y-9991588D01*
X10640417Y-10001582D01*
X10652169Y-10009434D01*
X10665226Y-10014843D01*
X10679088Y-10017600D01*
X10681580Y-10017600D01*
X10698243Y-10034263D01*
X10698243Y-10742839D01*
X10685807Y-10747990D01*
X10674055Y-10755842D01*
X10664061Y-10765836D01*
X10656209Y-10777588D01*
X10650800Y-10790645D01*
X10649654Y-10796408D01*
X10538935Y-10907128D01*
X10536634Y-10909016D01*
X10534746Y-10911317D01*
X10534745Y-10911318D01*
X10529096Y-10918201D01*
X10523495Y-10928680D01*
X10520046Y-10940051D01*
X10519679Y-10943776D01*
X10519173Y-10948912D01*
X10519173Y-10948913D01*
X10518881Y-10951875D01*
X10519173Y-10954837D01*
X10519173Y-10961443D01*
X10515912Y-10963622D01*
X10501110Y-10978424D01*
X10489480Y-10995829D01*
X10481469Y-11015169D01*
X10477385Y-11035700D01*
X9927925Y-11035700D01*
X9923841Y-11015169D01*
X9915830Y-10995829D01*
X9904200Y-10978424D01*
X9889398Y-10963622D01*
X9871993Y-10951992D01*
X9852653Y-10943981D01*
X9832122Y-10939897D01*
X9811188Y-10939897D01*
X9790657Y-10943981D01*
X9771317Y-10951992D01*
X9753912Y-10963622D01*
X9739110Y-10978424D01*
X9727480Y-10995829D01*
X9719469Y-11015169D01*
X9715385Y-11035700D01*
X9397534Y-11035700D01*
X9397534Y-10781700D01*
X9715385Y-10781700D01*
X9715385Y-10802634D01*
X9719469Y-10823165D01*
X9727480Y-10842505D01*
X9739110Y-10859910D01*
X9753912Y-10874712D01*
X9771317Y-10886342D01*
X9790657Y-10894353D01*
X9811188Y-10898437D01*
X9832122Y-10898437D01*
X9852653Y-10894353D01*
X9871993Y-10886342D01*
X9889398Y-10874712D01*
X9904200Y-10859910D01*
X9915830Y-10842505D01*
X9923841Y-10823165D01*
X9927925Y-10802634D01*
X9927925Y-10781700D01*
X9923841Y-10761169D01*
X9915830Y-10741829D01*
X9904200Y-10724424D01*
X9889398Y-10709622D01*
X9871993Y-10697992D01*
X9852653Y-10689981D01*
X9832122Y-10685897D01*
X9811188Y-10685897D01*
X9790657Y-10689981D01*
X9771317Y-10697992D01*
X9753912Y-10709622D01*
X9739110Y-10724424D01*
X9727480Y-10741829D01*
X9719469Y-10761169D01*
X9715385Y-10781700D01*
X9397534Y-10781700D01*
X9397534Y-10519700D01*
X9715385Y-10519700D01*
X9715385Y-10540634D01*
X9719469Y-10561165D01*
X9727480Y-10580505D01*
X9739110Y-10597910D01*
X9753912Y-10612712D01*
X9771317Y-10624342D01*
X9790657Y-10632353D01*
X9811188Y-10636437D01*
X9832122Y-10636437D01*
X9852653Y-10632353D01*
X9871993Y-10624342D01*
X9889398Y-10612712D01*
X9904200Y-10597910D01*
X9915830Y-10580505D01*
X9923841Y-10561165D01*
X9927925Y-10540634D01*
X9927925Y-10519700D01*
X9923841Y-10499169D01*
X9915830Y-10479829D01*
X9904200Y-10462424D01*
X9889398Y-10447622D01*
X9871993Y-10435992D01*
X9852653Y-10427981D01*
X9832122Y-10423897D01*
X9811188Y-10423897D01*
X9790657Y-10427981D01*
X9771317Y-10435992D01*
X9753912Y-10447622D01*
X9739110Y-10462424D01*
X9727480Y-10479829D01*
X9719469Y-10499169D01*
X9715385Y-10519700D01*
X9397534Y-10519700D01*
X9397534Y-10267700D01*
X9710385Y-10267700D01*
X9710385Y-10288634D01*
X9714469Y-10309165D01*
X9722480Y-10328505D01*
X9734110Y-10345910D01*
X9748912Y-10360712D01*
X9766317Y-10372342D01*
X9785657Y-10380353D01*
X9806188Y-10384437D01*
X9827122Y-10384437D01*
X9847653Y-10380353D01*
X9866993Y-10372342D01*
X9884398Y-10360712D01*
X9899200Y-10345910D01*
X9910830Y-10328505D01*
X9918841Y-10309165D01*
X9922925Y-10288634D01*
X9922925Y-10267700D01*
X9918841Y-10247169D01*
X9910830Y-10227829D01*
X9899200Y-10210424D01*
X9884398Y-10195622D01*
X9866993Y-10183992D01*
X9847653Y-10175981D01*
X9827122Y-10171897D01*
X9806188Y-10171897D01*
X9785657Y-10175981D01*
X9766317Y-10183992D01*
X9748912Y-10195622D01*
X9734110Y-10210424D01*
X9722480Y-10227829D01*
X9714469Y-10247169D01*
X9710385Y-10267700D01*
X9397534Y-10267700D01*
X9397534Y-10019700D01*
X9715385Y-10019700D01*
X9715385Y-10040634D01*
X9719469Y-10061165D01*
X9727480Y-10080505D01*
X9739110Y-10097910D01*
X9753912Y-10112712D01*
X9771317Y-10124342D01*
X9790657Y-10132353D01*
X9811188Y-10136437D01*
X9832122Y-10136437D01*
X9852653Y-10132353D01*
X9871993Y-10124342D01*
X9889398Y-10112712D01*
X9904200Y-10097910D01*
X9915830Y-10080505D01*
X9923841Y-10061165D01*
X9927925Y-10040634D01*
X9927925Y-10019700D01*
X9923841Y-9999169D01*
X9915830Y-9979829D01*
X9904200Y-9962424D01*
X9889398Y-9947622D01*
X9871993Y-9935992D01*
X9852653Y-9927981D01*
X9832122Y-9923897D01*
X9811188Y-9923897D01*
X9790657Y-9927981D01*
X9771317Y-9935992D01*
X9753912Y-9947622D01*
X9739110Y-9962424D01*
X9727480Y-9979829D01*
X9719469Y-9999169D01*
X9715385Y-10019700D01*
X9397534Y-10019700D01*
X9397534Y-9759700D01*
X9710385Y-9759700D01*
X9710385Y-9780634D01*
X9714469Y-9801165D01*
X9722480Y-9820505D01*
X9734110Y-9837910D01*
X9748912Y-9852712D01*
X9766317Y-9864342D01*
X9785657Y-9872353D01*
X9806188Y-9876437D01*
X9827122Y-9876437D01*
X9847653Y-9872353D01*
X9866993Y-9864342D01*
X9884398Y-9852712D01*
X9899200Y-9837910D01*
X9910830Y-9820505D01*
X9918841Y-9801165D01*
X9922925Y-9780634D01*
X9922925Y-9759700D01*
X9918841Y-9739169D01*
X9910830Y-9719829D01*
X9899200Y-9702424D01*
X9884398Y-9687622D01*
X9866993Y-9675992D01*
X9847653Y-9667981D01*
X9827122Y-9663897D01*
X9806188Y-9663897D01*
X9785657Y-9667981D01*
X9766317Y-9675992D01*
X9748912Y-9687622D01*
X9734110Y-9702424D01*
X9722480Y-9719829D01*
X9714469Y-9739169D01*
X9710385Y-9759700D01*
X9397534Y-9759700D01*
X9397534Y-9519700D01*
X9715385Y-9519700D01*
X9715385Y-9540634D01*
X9719469Y-9561165D01*
X9727480Y-9580505D01*
X9739110Y-9597910D01*
X9753912Y-9612712D01*
X9771317Y-9624342D01*
X9790657Y-9632353D01*
X9811188Y-9636437D01*
X9832122Y-9636437D01*
X9852653Y-9632353D01*
X9871993Y-9624342D01*
X9889398Y-9612712D01*
X9904200Y-9597910D01*
X9915830Y-9580505D01*
X9923841Y-9561165D01*
X9927925Y-9540634D01*
X9927925Y-9519700D01*
X9926334Y-9511700D01*
X11747385Y-9511700D01*
X11747385Y-9532634D01*
X11751469Y-9553165D01*
X11759480Y-9572505D01*
X11771110Y-9589910D01*
X11785912Y-9604712D01*
X11803317Y-9616342D01*
X11822657Y-9624353D01*
X11843188Y-9628437D01*
X11864122Y-9628437D01*
X11884653Y-9624353D01*
X11903993Y-9616342D01*
X11921398Y-9604712D01*
X11936200Y-9589910D01*
X11947830Y-9572505D01*
X11955841Y-9553165D01*
X11959925Y-9532634D01*
X11959925Y-9511700D01*
X11958732Y-9505700D01*
X11996385Y-9505700D01*
X11996385Y-9526634D01*
X12000469Y-9547165D01*
X12008480Y-9566505D01*
X12020110Y-9583910D01*
X12034912Y-9598712D01*
X12052317Y-9610342D01*
X12071657Y-9618353D01*
X12092188Y-9622437D01*
X12113122Y-9622437D01*
X12133653Y-9618353D01*
X12152993Y-9610342D01*
X12170398Y-9598712D01*
X12185200Y-9583910D01*
X12196830Y-9566505D01*
X12204841Y-9547165D01*
X12208925Y-9526634D01*
X12208925Y-9505700D01*
X12250385Y-9505700D01*
X12250385Y-9526634D01*
X12254469Y-9547165D01*
X12262480Y-9566505D01*
X12274110Y-9583910D01*
X12288912Y-9598712D01*
X12306317Y-9610342D01*
X12325657Y-9618353D01*
X12346188Y-9622437D01*
X12367122Y-9622437D01*
X12387653Y-9618353D01*
X12406993Y-9610342D01*
X12424398Y-9598712D01*
X12439200Y-9583910D01*
X12450830Y-9566505D01*
X12458841Y-9547165D01*
X12462925Y-9526634D01*
X12462925Y-9505700D01*
X12458841Y-9485169D01*
X12450830Y-9465829D01*
X12439200Y-9448424D01*
X12424398Y-9433622D01*
X12406993Y-9421992D01*
X12387653Y-9413981D01*
X12367122Y-9409897D01*
X12346188Y-9409897D01*
X12325657Y-9413981D01*
X12306317Y-9421992D01*
X12288912Y-9433622D01*
X12274110Y-9448424D01*
X12262480Y-9465829D01*
X12254469Y-9485169D01*
X12250385Y-9505700D01*
X12208925Y-9505700D01*
X12204841Y-9485169D01*
X12196830Y-9465829D01*
X12185200Y-9448424D01*
X12170398Y-9433622D01*
X12152993Y-9421992D01*
X12133653Y-9413981D01*
X12113122Y-9409897D01*
X12092188Y-9409897D01*
X12071657Y-9413981D01*
X12052317Y-9421992D01*
X12034912Y-9433622D01*
X12020110Y-9448424D01*
X12008480Y-9465829D01*
X12000469Y-9485169D01*
X11996385Y-9505700D01*
X11958732Y-9505700D01*
X11955841Y-9491169D01*
X11947830Y-9471829D01*
X11936200Y-9454424D01*
X11921398Y-9439622D01*
X11903993Y-9427992D01*
X11884653Y-9419981D01*
X11864122Y-9415897D01*
X11843188Y-9415897D01*
X11822657Y-9419981D01*
X11803317Y-9427992D01*
X11785912Y-9439622D01*
X11771110Y-9454424D01*
X11759480Y-9471829D01*
X11751469Y-9491169D01*
X11747385Y-9511700D01*
X9926334Y-9511700D01*
X9923841Y-9499169D01*
X9915830Y-9479829D01*
X9904200Y-9462424D01*
X9889398Y-9447622D01*
X9871993Y-9435992D01*
X9852653Y-9427981D01*
X9832122Y-9423897D01*
X9811188Y-9423897D01*
X9790657Y-9427981D01*
X9771317Y-9435992D01*
X9753912Y-9447622D01*
X9739110Y-9462424D01*
X9727480Y-9479829D01*
X9719469Y-9499169D01*
X9715385Y-9519700D01*
X9397534Y-9519700D01*
X9397534Y-9251700D01*
X11742385Y-9251700D01*
X11742385Y-9272634D01*
X11746469Y-9293165D01*
X11754480Y-9312505D01*
X11766110Y-9329910D01*
X11780912Y-9344712D01*
X11798317Y-9356342D01*
X11817657Y-9364353D01*
X11838188Y-9368437D01*
X11859122Y-9368437D01*
X11879653Y-9364353D01*
X11898993Y-9356342D01*
X11916398Y-9344712D01*
X11931200Y-9329910D01*
X11942830Y-9312505D01*
X11950841Y-9293165D01*
X11954925Y-9272634D01*
X11954925Y-9251700D01*
X11996385Y-9251700D01*
X11996385Y-9272634D01*
X12000469Y-9293165D01*
X12008480Y-9312505D01*
X12020110Y-9329910D01*
X12034912Y-9344712D01*
X12052317Y-9356342D01*
X12071657Y-9364353D01*
X12092188Y-9368437D01*
X12113122Y-9368437D01*
X12133653Y-9364353D01*
X12152993Y-9356342D01*
X12170398Y-9344712D01*
X12185200Y-9329910D01*
X12196830Y-9312505D01*
X12204841Y-9293165D01*
X12208925Y-9272634D01*
X12208925Y-9251700D01*
X12204841Y-9231169D01*
X12196830Y-9211829D01*
X12185200Y-9194424D01*
X12170398Y-9179622D01*
X12152993Y-9167992D01*
X12133653Y-9159981D01*
X12113122Y-9155897D01*
X12092188Y-9155897D01*
X12071657Y-9159981D01*
X12052317Y-9167992D01*
X12034912Y-9179622D01*
X12020110Y-9194424D01*
X12008480Y-9211829D01*
X12000469Y-9231169D01*
X11996385Y-9251700D01*
X11954925Y-9251700D01*
X11950841Y-9231169D01*
X11942830Y-9211829D01*
X11931200Y-9194424D01*
X11916398Y-9179622D01*
X11898993Y-9167992D01*
X11879653Y-9159981D01*
X11859122Y-9155897D01*
X11838188Y-9155897D01*
X11817657Y-9159981D01*
X11798317Y-9167992D01*
X11780912Y-9179622D01*
X11766110Y-9194424D01*
X11754480Y-9211829D01*
X11746469Y-9231169D01*
X11742385Y-9251700D01*
X9397534Y-9251700D01*
X9397534Y-7970440D01*
X13570385Y-7970527D01*
M02*
