%TF.GenerationSoftware,KiCad,Pcbnew,5.1.3-ffb9f22~84~ubuntu18.04.1*%
%TF.CreationDate,2019-07-25T20:52:25+03:00*%
%TF.ProjectId,Des1_2_panel,44657331-5f32-45f7-9061-6e656c2e6b69,rev?*%
%TF.SameCoordinates,Original*%
%TF.FileFunction,Soldermask,Bot*%
%TF.FilePolarity,Negative*%
%FSLAX45Y45*%
G04 Gerber Fmt 4.5, Leading zero omitted, Abs format (unit mm)*
G04 Created by KiCad (PCBNEW 5.1.3-ffb9f22~84~ubuntu18.04.1) date 2019-07-25 20:52:25*
%MOMM*%
%LPD*%
G04 APERTURE LIST*
%ADD10C,0.100000*%
%ADD11C,0.150000*%
%ADD12C,0.300000*%
%ADD13C,0.400000*%
G04 APERTURE END LIST*
D10*
D11*
X17700220Y-16600720D02*
X17700220Y-19800720D01*
X28500220Y-19800720D01*
X28500220Y-16600720D01*
X17700220Y-16600720D01*
D10*
D11*
X1000000Y-1000000D02*
X1000000Y-20000720D01*
X28700220Y-20000720D01*
X28700220Y-1000000D01*
X1000000Y-1000000D01*
D10*
D11*
X1200000Y-1200000D02*
X1200000Y-19800720D01*
X28500220Y-19800720D01*
X28500220Y-1200000D01*
X1200000Y-1200000D01*
D10*
D11*
X6000000Y-1200000D02*
X6000000Y-1000000D01*
D10*
D11*
X11000000Y-1200000D02*
X11000000Y-1000000D01*
D10*
D11*
X16000000Y-1200000D02*
X16000000Y-1000000D01*
D10*
D11*
X21000000Y-1200000D02*
X21000000Y-1000000D01*
D10*
D11*
X26000000Y-1200000D02*
X26000000Y-1000000D01*
D10*
D11*
X3606548Y-1158810D02*
X3532262Y-1158810D01*
X3569405Y-1158810D02*
X3569405Y-1028809D01*
X3557024Y-1047381D01*
X3544643Y-1059762D01*
X3532262Y-1065952D01*
D10*
D11*
X8532262Y-1041190D02*
X8538452Y-1035000D01*
X8550833Y-1028809D01*
X8581786Y-1028809D01*
X8594167Y-1035000D01*
X8600357Y-1041190D01*
X8606548Y-1053571D01*
X8606548Y-1065952D01*
X8600357Y-1084524D01*
X8526071Y-1158810D01*
X8606548Y-1158810D01*
D10*
D11*
X13526071Y-1028809D02*
X13606548Y-1028809D01*
X13563214Y-1078333D01*
X13581786Y-1078333D01*
X13594167Y-1084524D01*
X13600357Y-1090714D01*
X13606548Y-1103095D01*
X13606548Y-1134048D01*
X13600357Y-1146429D01*
X13594167Y-1152619D01*
X13581786Y-1158810D01*
X13544643Y-1158810D01*
X13532262Y-1152619D01*
X13526071Y-1146429D01*
D10*
D11*
X18594167Y-1072143D02*
X18594167Y-1158810D01*
X18563214Y-1022619D02*
X18532262Y-1115476D01*
X18612738Y-1115476D01*
D10*
D11*
X23600357Y-1028809D02*
X23538452Y-1028809D01*
X23532262Y-1090714D01*
X23538452Y-1084524D01*
X23550833Y-1078333D01*
X23581786Y-1078333D01*
X23594167Y-1084524D01*
X23600357Y-1090714D01*
X23606548Y-1103095D01*
X23606548Y-1134048D01*
X23600357Y-1146429D01*
X23594167Y-1152619D01*
X23581786Y-1158810D01*
X23550833Y-1158810D01*
X23538452Y-1152619D01*
X23532262Y-1146429D01*
D10*
D11*
X28594167Y-1028809D02*
X28569405Y-1028809D01*
X28557024Y-1035000D01*
X28550833Y-1041190D01*
X28538452Y-1059762D01*
X28532262Y-1084524D01*
X28532262Y-1134048D01*
X28538452Y-1146429D01*
X28544643Y-1152619D01*
X28557024Y-1158810D01*
X28581786Y-1158810D01*
X28594167Y-1152619D01*
X28600357Y-1146429D01*
X28606548Y-1134048D01*
X28606548Y-1103095D01*
X28600357Y-1090714D01*
X28594167Y-1084524D01*
X28581786Y-1078333D01*
X28557024Y-1078333D01*
X28544643Y-1084524D01*
X28538452Y-1090714D01*
X28532262Y-1103095D01*
D10*
D11*
X6000000Y-19800720D02*
X6000000Y-20000720D01*
D10*
D11*
X11000000Y-19800720D02*
X11000000Y-20000720D01*
D10*
D11*
X16000000Y-19800720D02*
X16000000Y-20000720D01*
D10*
D11*
X21000000Y-19800720D02*
X21000000Y-20000720D01*
D10*
D11*
X26000000Y-19800720D02*
X26000000Y-20000720D01*
D10*
D11*
X3606548Y-19959530D02*
X3532262Y-19959530D01*
X3569405Y-19959530D02*
X3569405Y-19829530D01*
X3557024Y-19848101D01*
X3544643Y-19860482D01*
X3532262Y-19866672D01*
D10*
D11*
X8532262Y-19841910D02*
X8538452Y-19835720D01*
X8550833Y-19829530D01*
X8581786Y-19829530D01*
X8594167Y-19835720D01*
X8600357Y-19841910D01*
X8606548Y-19854291D01*
X8606548Y-19866672D01*
X8600357Y-19885244D01*
X8526071Y-19959530D01*
X8606548Y-19959530D01*
D10*
D11*
X13526071Y-19829530D02*
X13606548Y-19829530D01*
X13563214Y-19879053D01*
X13581786Y-19879053D01*
X13594167Y-19885244D01*
X13600357Y-19891434D01*
X13606548Y-19903815D01*
X13606548Y-19934768D01*
X13600357Y-19947149D01*
X13594167Y-19953339D01*
X13581786Y-19959530D01*
X13544643Y-19959530D01*
X13532262Y-19953339D01*
X13526071Y-19947149D01*
D10*
D11*
X18594167Y-19872863D02*
X18594167Y-19959530D01*
X18563214Y-19823339D02*
X18532262Y-19916196D01*
X18612738Y-19916196D01*
D10*
D11*
X23600357Y-19829530D02*
X23538452Y-19829530D01*
X23532262Y-19891434D01*
X23538452Y-19885244D01*
X23550833Y-19879053D01*
X23581786Y-19879053D01*
X23594167Y-19885244D01*
X23600357Y-19891434D01*
X23606548Y-19903815D01*
X23606548Y-19934768D01*
X23600357Y-19947149D01*
X23594167Y-19953339D01*
X23581786Y-19959530D01*
X23550833Y-19959530D01*
X23538452Y-19953339D01*
X23532262Y-19947149D01*
D10*
D11*
X28594167Y-19829530D02*
X28569405Y-19829530D01*
X28557024Y-19835720D01*
X28550833Y-19841910D01*
X28538452Y-19860482D01*
X28532262Y-19885244D01*
X28532262Y-19934768D01*
X28538452Y-19947149D01*
X28544643Y-19953339D01*
X28557024Y-19959530D01*
X28581786Y-19959530D01*
X28594167Y-19953339D01*
X28600357Y-19947149D01*
X28606548Y-19934768D01*
X28606548Y-19903815D01*
X28600357Y-19891434D01*
X28594167Y-19885244D01*
X28581786Y-19879053D01*
X28557024Y-19879053D01*
X28544643Y-19885244D01*
X28538452Y-19891434D01*
X28532262Y-19903815D01*
D10*
D11*
X1000000Y-6000000D02*
X1200000Y-6000000D01*
D10*
D11*
X1000000Y-11000000D02*
X1200000Y-11000000D01*
D10*
D11*
X1000000Y-16000000D02*
X1200000Y-16000000D01*
D10*
D11*
X1069048Y-3521667D02*
X1130952Y-3521667D01*
X1056667Y-3558809D02*
X1100000Y-3428809D01*
X1143333Y-3558809D01*
D10*
D11*
X1109286Y-8490714D02*
X1127857Y-8496905D01*
X1134048Y-8503095D01*
X1140238Y-8515476D01*
X1140238Y-8534048D01*
X1134048Y-8546429D01*
X1127857Y-8552619D01*
X1115476Y-8558810D01*
X1065952Y-8558810D01*
X1065952Y-8428810D01*
X1109286Y-8428810D01*
X1121667Y-8435000D01*
X1127857Y-8441190D01*
X1134048Y-8453571D01*
X1134048Y-8465952D01*
X1127857Y-8478333D01*
X1121667Y-8484524D01*
X1109286Y-8490714D01*
X1065952Y-8490714D01*
D10*
D11*
X1140238Y-13546428D02*
X1134048Y-13552619D01*
X1115476Y-13558809D01*
X1103095Y-13558809D01*
X1084524Y-13552619D01*
X1072143Y-13540238D01*
X1065952Y-13527857D01*
X1059762Y-13503095D01*
X1059762Y-13484524D01*
X1065952Y-13459762D01*
X1072143Y-13447381D01*
X1084524Y-13435000D01*
X1103095Y-13428809D01*
X1115476Y-13428809D01*
X1134048Y-13435000D01*
X1140238Y-13441190D01*
D10*
D11*
X1065952Y-18558810D02*
X1065952Y-18428810D01*
X1096905Y-18428810D01*
X1115476Y-18435000D01*
X1127857Y-18447381D01*
X1134048Y-18459762D01*
X1140238Y-18484524D01*
X1140238Y-18503095D01*
X1134048Y-18527857D01*
X1127857Y-18540238D01*
X1115476Y-18552619D01*
X1096905Y-18558810D01*
X1065952Y-18558810D01*
D10*
D11*
X28700220Y-6000000D02*
X28500220Y-6000000D01*
D10*
D11*
X28700220Y-11000000D02*
X28500220Y-11000000D01*
D10*
D11*
X28700220Y-16000000D02*
X28500220Y-16000000D01*
D10*
D11*
X28569268Y-3521667D02*
X28631172Y-3521667D01*
X28556887Y-3558809D02*
X28600220Y-3428809D01*
X28643553Y-3558809D01*
D10*
D11*
X28609506Y-8490714D02*
X28628077Y-8496905D01*
X28634268Y-8503095D01*
X28640458Y-8515476D01*
X28640458Y-8534048D01*
X28634268Y-8546429D01*
X28628077Y-8552619D01*
X28615696Y-8558810D01*
X28566172Y-8558810D01*
X28566172Y-8428810D01*
X28609506Y-8428810D01*
X28621887Y-8435000D01*
X28628077Y-8441190D01*
X28634268Y-8453571D01*
X28634268Y-8465952D01*
X28628077Y-8478333D01*
X28621887Y-8484524D01*
X28609506Y-8490714D01*
X28566172Y-8490714D01*
D10*
D11*
X28640458Y-13546428D02*
X28634268Y-13552619D01*
X28615696Y-13558809D01*
X28603315Y-13558809D01*
X28584744Y-13552619D01*
X28572363Y-13540238D01*
X28566172Y-13527857D01*
X28559982Y-13503095D01*
X28559982Y-13484524D01*
X28566172Y-13459762D01*
X28572363Y-13447381D01*
X28584744Y-13435000D01*
X28603315Y-13428809D01*
X28615696Y-13428809D01*
X28634268Y-13435000D01*
X28640458Y-13441190D01*
D10*
D11*
X28566172Y-18558810D02*
X28566172Y-18428810D01*
X28597125Y-18428810D01*
X28615696Y-18435000D01*
X28628077Y-18447381D01*
X28634268Y-18459762D01*
X28640458Y-18484524D01*
X28640458Y-18503095D01*
X28634268Y-18527857D01*
X28628077Y-18540238D01*
X28615696Y-18552619D01*
X28597125Y-18558810D01*
X28566172Y-18558810D01*
D10*
D11*
X20043434Y-19378577D02*
X20043434Y-19228577D01*
X20079149Y-19228577D01*
X20100577Y-19235720D01*
X20114863Y-19250006D01*
X20122006Y-19264291D01*
X20129149Y-19292863D01*
X20129149Y-19314291D01*
X20122006Y-19342863D01*
X20114863Y-19357149D01*
X20100577Y-19371434D01*
X20079149Y-19378577D01*
X20043434Y-19378577D01*
X20257720Y-19378577D02*
X20257720Y-19300006D01*
X20250577Y-19285720D01*
X20236291Y-19278577D01*
X20207720Y-19278577D01*
X20193434Y-19285720D01*
X20257720Y-19371434D02*
X20243434Y-19378577D01*
X20207720Y-19378577D01*
X20193434Y-19371434D01*
X20186291Y-19357149D01*
X20186291Y-19342863D01*
X20193434Y-19328577D01*
X20207720Y-19321434D01*
X20243434Y-19321434D01*
X20257720Y-19314291D01*
X20307720Y-19278577D02*
X20364863Y-19278577D01*
X20329149Y-19228577D02*
X20329149Y-19357149D01*
X20336291Y-19371434D01*
X20350577Y-19378577D01*
X20364863Y-19378577D01*
X20472006Y-19371434D02*
X20457720Y-19378577D01*
X20429149Y-19378577D01*
X20414863Y-19371434D01*
X20407720Y-19357149D01*
X20407720Y-19300006D01*
X20414863Y-19285720D01*
X20429149Y-19278577D01*
X20457720Y-19278577D01*
X20472006Y-19285720D01*
X20479149Y-19300006D01*
X20479149Y-19314291D01*
X20407720Y-19328577D01*
X20543434Y-19364291D02*
X20550577Y-19371434D01*
X20543434Y-19378577D01*
X20536291Y-19371434D01*
X20543434Y-19364291D01*
X20543434Y-19378577D01*
X20543434Y-19285720D02*
X20550577Y-19292863D01*
X20543434Y-19300006D01*
X20536291Y-19292863D01*
X20543434Y-19285720D01*
X20543434Y-19300006D01*
D10*
D11*
X17700220Y-19450720D02*
X28500220Y-19450720D01*
D10*
D11*
X17843434Y-19658577D02*
X17843434Y-19508577D01*
X17929149Y-19658577D02*
X17864863Y-19572863D01*
X17929149Y-19508577D02*
X17843434Y-19594291D01*
X17993434Y-19658577D02*
X17993434Y-19558577D01*
X17993434Y-19508577D02*
X17986291Y-19515720D01*
X17993434Y-19522863D01*
X18000577Y-19515720D01*
X17993434Y-19508577D01*
X17993434Y-19522863D01*
X18150577Y-19644291D02*
X18143434Y-19651434D01*
X18122006Y-19658577D01*
X18107720Y-19658577D01*
X18086291Y-19651434D01*
X18072006Y-19637149D01*
X18064863Y-19622863D01*
X18057720Y-19594291D01*
X18057720Y-19572863D01*
X18064863Y-19544291D01*
X18072006Y-19530006D01*
X18086291Y-19515720D01*
X18107720Y-19508577D01*
X18122006Y-19508577D01*
X18143434Y-19515720D01*
X18150577Y-19522863D01*
X18279149Y-19658577D02*
X18279149Y-19580006D01*
X18272006Y-19565720D01*
X18257720Y-19558577D01*
X18229149Y-19558577D01*
X18214863Y-19565720D01*
X18279149Y-19651434D02*
X18264863Y-19658577D01*
X18229149Y-19658577D01*
X18214863Y-19651434D01*
X18207720Y-19637149D01*
X18207720Y-19622863D01*
X18214863Y-19608577D01*
X18229149Y-19601434D01*
X18264863Y-19601434D01*
X18279149Y-19594291D01*
X18414863Y-19658577D02*
X18414863Y-19508577D01*
X18414863Y-19651434D02*
X18400577Y-19658577D01*
X18372006Y-19658577D01*
X18357720Y-19651434D01*
X18350577Y-19644291D01*
X18343434Y-19630006D01*
X18343434Y-19587149D01*
X18350577Y-19572863D01*
X18357720Y-19565720D01*
X18372006Y-19558577D01*
X18400577Y-19558577D01*
X18414863Y-19565720D01*
X18600577Y-19580006D02*
X18650577Y-19580006D01*
X18672006Y-19658577D02*
X18600577Y-19658577D01*
X18600577Y-19508577D01*
X18672006Y-19508577D01*
X18736291Y-19644291D02*
X18743434Y-19651434D01*
X18736291Y-19658577D01*
X18729149Y-19651434D01*
X18736291Y-19644291D01*
X18736291Y-19658577D01*
X18807720Y-19658577D02*
X18807720Y-19508577D01*
X18843434Y-19508577D01*
X18864863Y-19515720D01*
X18879149Y-19530006D01*
X18886291Y-19544291D01*
X18893434Y-19572863D01*
X18893434Y-19594291D01*
X18886291Y-19622863D01*
X18879149Y-19637149D01*
X18864863Y-19651434D01*
X18843434Y-19658577D01*
X18807720Y-19658577D01*
X18957720Y-19644291D02*
X18964863Y-19651434D01*
X18957720Y-19658577D01*
X18950577Y-19651434D01*
X18957720Y-19644291D01*
X18957720Y-19658577D01*
X19022006Y-19615720D02*
X19093434Y-19615720D01*
X19007720Y-19658577D02*
X19057720Y-19508577D01*
X19107720Y-19658577D01*
X19157720Y-19644291D02*
X19164863Y-19651434D01*
X19157720Y-19658577D01*
X19150577Y-19651434D01*
X19157720Y-19644291D01*
X19157720Y-19658577D01*
X19457720Y-19658577D02*
X19457720Y-19508577D01*
X19472006Y-19601434D02*
X19514863Y-19658577D01*
X19514863Y-19558577D02*
X19457720Y-19615720D01*
X19579149Y-19658577D02*
X19579149Y-19558577D01*
X19579149Y-19508577D02*
X19572006Y-19515720D01*
X19579149Y-19522863D01*
X19586291Y-19515720D01*
X19579149Y-19508577D01*
X19579149Y-19522863D01*
X19714863Y-19651434D02*
X19700577Y-19658577D01*
X19672006Y-19658577D01*
X19657720Y-19651434D01*
X19650577Y-19644291D01*
X19643434Y-19630006D01*
X19643434Y-19587149D01*
X19650577Y-19572863D01*
X19657720Y-19565720D01*
X19672006Y-19558577D01*
X19700577Y-19558577D01*
X19714863Y-19565720D01*
X19843434Y-19658577D02*
X19843434Y-19580006D01*
X19836291Y-19565720D01*
X19822006Y-19558577D01*
X19793434Y-19558577D01*
X19779149Y-19565720D01*
X19843434Y-19651434D02*
X19829149Y-19658577D01*
X19793434Y-19658577D01*
X19779149Y-19651434D01*
X19772006Y-19637149D01*
X19772006Y-19622863D01*
X19779149Y-19608577D01*
X19793434Y-19601434D01*
X19829149Y-19601434D01*
X19843434Y-19594291D01*
X19979149Y-19658577D02*
X19979149Y-19508577D01*
X19979149Y-19651434D02*
X19964863Y-19658577D01*
X19936291Y-19658577D01*
X19922006Y-19651434D01*
X19914863Y-19644291D01*
X19907720Y-19630006D01*
X19907720Y-19587149D01*
X19914863Y-19572863D01*
X19922006Y-19565720D01*
X19936291Y-19558577D01*
X19964863Y-19558577D01*
X19979149Y-19565720D01*
X20236291Y-19508577D02*
X20164863Y-19508577D01*
X20157720Y-19580006D01*
X20164863Y-19572863D01*
X20179149Y-19565720D01*
X20214863Y-19565720D01*
X20229149Y-19572863D01*
X20236291Y-19580006D01*
X20243434Y-19594291D01*
X20243434Y-19630006D01*
X20236291Y-19644291D01*
X20229149Y-19651434D01*
X20214863Y-19658577D01*
X20179149Y-19658577D01*
X20164863Y-19651434D01*
X20157720Y-19644291D01*
X20307720Y-19644291D02*
X20314863Y-19651434D01*
X20307720Y-19658577D01*
X20300577Y-19651434D01*
X20307720Y-19644291D01*
X20307720Y-19658577D01*
X20457720Y-19658577D02*
X20372006Y-19658577D01*
X20414863Y-19658577D02*
X20414863Y-19508577D01*
X20400577Y-19530006D01*
X20386291Y-19544291D01*
X20372006Y-19551434D01*
X20522006Y-19644291D02*
X20529149Y-19651434D01*
X20522006Y-19658577D01*
X20514863Y-19651434D01*
X20522006Y-19644291D01*
X20522006Y-19658577D01*
X20579149Y-19508577D02*
X20672006Y-19508577D01*
X20622006Y-19565720D01*
X20643434Y-19565720D01*
X20657720Y-19572863D01*
X20664863Y-19580006D01*
X20672006Y-19594291D01*
X20672006Y-19630006D01*
X20664863Y-19644291D01*
X20657720Y-19651434D01*
X20643434Y-19658577D01*
X20600577Y-19658577D01*
X20586291Y-19651434D01*
X20579149Y-19644291D01*
X20736291Y-19601434D02*
X20850577Y-19601434D01*
X20900577Y-19558577D02*
X20957720Y-19558577D01*
X20922006Y-19658577D02*
X20922006Y-19530006D01*
X20929149Y-19515720D01*
X20943434Y-19508577D01*
X20957720Y-19508577D01*
X20986291Y-19558577D02*
X21043434Y-19558577D01*
X21007720Y-19658577D02*
X21007720Y-19530006D01*
X21014863Y-19515720D01*
X21029149Y-19508577D01*
X21043434Y-19508577D01*
X21093434Y-19658577D02*
X21093434Y-19508577D01*
X21093434Y-19565720D02*
X21107720Y-19558577D01*
X21136291Y-19558577D01*
X21150577Y-19565720D01*
X21157720Y-19572863D01*
X21164863Y-19587149D01*
X21164863Y-19630006D01*
X21157720Y-19644291D01*
X21150577Y-19651434D01*
X21136291Y-19658577D01*
X21107720Y-19658577D01*
X21093434Y-19651434D01*
X21236291Y-19658577D02*
X21264863Y-19658577D01*
X21279149Y-19651434D01*
X21286291Y-19644291D01*
X21300577Y-19622863D01*
X21307720Y-19594291D01*
X21307720Y-19537149D01*
X21300577Y-19522863D01*
X21293434Y-19515720D01*
X21279149Y-19508577D01*
X21250577Y-19508577D01*
X21236291Y-19515720D01*
X21229149Y-19522863D01*
X21222006Y-19537149D01*
X21222006Y-19572863D01*
X21229149Y-19587149D01*
X21236291Y-19594291D01*
X21250577Y-19601434D01*
X21279149Y-19601434D01*
X21293434Y-19594291D01*
X21300577Y-19587149D01*
X21307720Y-19572863D01*
X21350577Y-19558577D02*
X21407720Y-19558577D01*
X21372006Y-19658577D02*
X21372006Y-19530006D01*
X21379149Y-19515720D01*
X21393434Y-19508577D01*
X21407720Y-19508577D01*
X21450577Y-19522863D02*
X21457720Y-19515720D01*
X21472006Y-19508577D01*
X21507720Y-19508577D01*
X21522006Y-19515720D01*
X21529149Y-19522863D01*
X21536291Y-19537149D01*
X21536291Y-19551434D01*
X21529149Y-19572863D01*
X21443434Y-19658577D01*
X21536291Y-19658577D01*
X21593434Y-19522863D02*
X21600577Y-19515720D01*
X21614863Y-19508577D01*
X21650577Y-19508577D01*
X21664863Y-19515720D01*
X21672006Y-19522863D01*
X21679149Y-19537149D01*
X21679149Y-19551434D01*
X21672006Y-19572863D01*
X21586291Y-19658577D01*
X21679149Y-19658577D01*
X21707720Y-19467720D02*
X21850577Y-19467720D01*
X21764863Y-19572863D02*
X21750577Y-19565720D01*
X21743434Y-19558577D01*
X21736291Y-19544291D01*
X21736291Y-19537149D01*
X21743434Y-19522863D01*
X21750577Y-19515720D01*
X21764863Y-19508577D01*
X21793434Y-19508577D01*
X21807720Y-19515720D01*
X21814863Y-19522863D01*
X21822006Y-19537149D01*
X21822006Y-19544291D01*
X21814863Y-19558577D01*
X21807720Y-19565720D01*
X21793434Y-19572863D01*
X21764863Y-19572863D01*
X21750577Y-19580006D01*
X21743434Y-19587149D01*
X21736291Y-19601434D01*
X21736291Y-19630006D01*
X21743434Y-19644291D01*
X21750577Y-19651434D01*
X21764863Y-19658577D01*
X21793434Y-19658577D01*
X21807720Y-19651434D01*
X21814863Y-19644291D01*
X21822006Y-19630006D01*
X21822006Y-19601434D01*
X21814863Y-19587149D01*
X21807720Y-19580006D01*
X21793434Y-19572863D01*
X21850577Y-19467720D02*
X21993434Y-19467720D01*
X21950577Y-19558577D02*
X21950577Y-19658577D01*
X21914863Y-19501434D02*
X21879149Y-19608577D01*
X21972006Y-19608577D01*
X22093434Y-19558577D02*
X22093434Y-19658577D01*
X22029149Y-19558577D02*
X22029149Y-19637149D01*
X22036291Y-19651434D01*
X22050577Y-19658577D01*
X22072006Y-19658577D01*
X22086291Y-19651434D01*
X22093434Y-19644291D01*
X22164863Y-19658577D02*
X22164863Y-19508577D01*
X22164863Y-19565720D02*
X22179149Y-19558577D01*
X22207720Y-19558577D01*
X22222006Y-19565720D01*
X22229149Y-19572863D01*
X22236291Y-19587149D01*
X22236291Y-19630006D01*
X22229149Y-19644291D01*
X22222006Y-19651434D01*
X22207720Y-19658577D01*
X22179149Y-19658577D01*
X22164863Y-19651434D01*
X22364863Y-19558577D02*
X22364863Y-19658577D01*
X22300577Y-19558577D02*
X22300577Y-19637149D01*
X22307720Y-19651434D01*
X22322006Y-19658577D01*
X22343434Y-19658577D01*
X22357720Y-19651434D01*
X22364863Y-19644291D01*
X22436291Y-19558577D02*
X22436291Y-19658577D01*
X22436291Y-19572863D02*
X22443434Y-19565720D01*
X22457720Y-19558577D01*
X22479148Y-19558577D01*
X22493434Y-19565720D01*
X22500577Y-19580006D01*
X22500577Y-19658577D01*
X22550577Y-19558577D02*
X22607720Y-19558577D01*
X22572006Y-19508577D02*
X22572006Y-19637149D01*
X22579148Y-19651434D01*
X22593434Y-19658577D01*
X22607720Y-19658577D01*
X22722006Y-19558577D02*
X22722006Y-19658577D01*
X22657720Y-19558577D02*
X22657720Y-19637149D01*
X22664863Y-19651434D01*
X22679148Y-19658577D01*
X22700577Y-19658577D01*
X22714863Y-19651434D01*
X22722006Y-19644291D01*
X22872006Y-19658577D02*
X22786291Y-19658577D01*
X22829148Y-19658577D02*
X22829148Y-19508577D01*
X22814863Y-19530006D01*
X22800577Y-19544291D01*
X22786291Y-19551434D01*
X22957720Y-19572863D02*
X22943434Y-19565720D01*
X22936291Y-19558577D01*
X22929148Y-19544291D01*
X22929148Y-19537149D01*
X22936291Y-19522863D01*
X22943434Y-19515720D01*
X22957720Y-19508577D01*
X22986291Y-19508577D01*
X23000577Y-19515720D01*
X23007720Y-19522863D01*
X23014863Y-19537149D01*
X23014863Y-19544291D01*
X23007720Y-19558577D01*
X23000577Y-19565720D01*
X22986291Y-19572863D01*
X22957720Y-19572863D01*
X22943434Y-19580006D01*
X22936291Y-19587149D01*
X22929148Y-19601434D01*
X22929148Y-19630006D01*
X22936291Y-19644291D01*
X22943434Y-19651434D01*
X22957720Y-19658577D01*
X22986291Y-19658577D01*
X23000577Y-19651434D01*
X23007720Y-19644291D01*
X23014863Y-19630006D01*
X23014863Y-19601434D01*
X23007720Y-19587149D01*
X23000577Y-19580006D01*
X22986291Y-19572863D01*
X23079148Y-19644291D02*
X23086291Y-19651434D01*
X23079148Y-19658577D01*
X23072006Y-19651434D01*
X23079148Y-19644291D01*
X23079148Y-19658577D01*
X23179148Y-19508577D02*
X23193434Y-19508577D01*
X23207720Y-19515720D01*
X23214863Y-19522863D01*
X23222006Y-19537149D01*
X23229148Y-19565720D01*
X23229148Y-19601434D01*
X23222006Y-19630006D01*
X23214863Y-19644291D01*
X23207720Y-19651434D01*
X23193434Y-19658577D01*
X23179148Y-19658577D01*
X23164863Y-19651434D01*
X23157720Y-19644291D01*
X23150577Y-19630006D01*
X23143434Y-19601434D01*
X23143434Y-19565720D01*
X23150577Y-19537149D01*
X23157720Y-19522863D01*
X23164863Y-19515720D01*
X23179148Y-19508577D01*
X23357720Y-19558577D02*
X23357720Y-19658577D01*
X23322006Y-19501434D02*
X23286291Y-19608577D01*
X23379148Y-19608577D01*
X23436291Y-19644291D02*
X23443434Y-19651434D01*
X23436291Y-19658577D01*
X23429148Y-19651434D01*
X23436291Y-19644291D01*
X23436291Y-19658577D01*
X23586291Y-19658577D02*
X23500577Y-19658577D01*
X23543434Y-19658577D02*
X23543434Y-19508577D01*
X23529148Y-19530006D01*
X23514863Y-19544291D01*
X23500577Y-19551434D01*
D10*
D11*
X17700220Y-19150720D02*
X28500220Y-19150720D01*
D10*
D12*
X26441148Y-19378577D02*
X26391148Y-19307149D01*
X26355434Y-19378577D02*
X26355434Y-19228577D01*
X26412577Y-19228577D01*
X26426863Y-19235720D01*
X26434006Y-19242863D01*
X26441148Y-19257149D01*
X26441148Y-19278577D01*
X26434006Y-19292863D01*
X26426863Y-19300006D01*
X26412577Y-19307149D01*
X26355434Y-19307149D01*
X26562577Y-19371434D02*
X26548291Y-19378577D01*
X26519720Y-19378577D01*
X26505434Y-19371434D01*
X26498291Y-19357149D01*
X26498291Y-19300006D01*
X26505434Y-19285720D01*
X26519720Y-19278577D01*
X26548291Y-19278577D01*
X26562577Y-19285720D01*
X26569720Y-19300006D01*
X26569720Y-19314291D01*
X26498291Y-19328577D01*
X26619720Y-19278577D02*
X26655434Y-19378577D01*
X26691148Y-19278577D01*
X26748291Y-19364291D02*
X26755434Y-19371434D01*
X26748291Y-19378577D01*
X26741148Y-19371434D01*
X26748291Y-19364291D01*
X26748291Y-19378577D01*
X26748291Y-19285720D02*
X26755434Y-19292863D01*
X26748291Y-19300006D01*
X26741148Y-19292863D01*
X26748291Y-19285720D01*
X26748291Y-19300006D01*
D10*
D11*
X17836291Y-19371434D02*
X17857720Y-19378577D01*
X17893434Y-19378577D01*
X17907720Y-19371434D01*
X17914863Y-19364291D01*
X17922006Y-19350006D01*
X17922006Y-19335720D01*
X17914863Y-19321434D01*
X17907720Y-19314291D01*
X17893434Y-19307149D01*
X17864863Y-19300006D01*
X17850577Y-19292863D01*
X17843434Y-19285720D01*
X17836291Y-19271434D01*
X17836291Y-19257149D01*
X17843434Y-19242863D01*
X17850577Y-19235720D01*
X17864863Y-19228577D01*
X17900577Y-19228577D01*
X17922006Y-19235720D01*
X17986291Y-19378577D02*
X17986291Y-19278577D01*
X17986291Y-19228577D02*
X17979149Y-19235720D01*
X17986291Y-19242863D01*
X17993434Y-19235720D01*
X17986291Y-19228577D01*
X17986291Y-19242863D01*
X18043434Y-19278577D02*
X18122006Y-19278577D01*
X18043434Y-19378577D01*
X18122006Y-19378577D01*
X18236291Y-19371434D02*
X18222006Y-19378577D01*
X18193434Y-19378577D01*
X18179149Y-19371434D01*
X18172006Y-19357149D01*
X18172006Y-19300006D01*
X18179149Y-19285720D01*
X18193434Y-19278577D01*
X18222006Y-19278577D01*
X18236291Y-19285720D01*
X18243434Y-19300006D01*
X18243434Y-19314291D01*
X18172006Y-19328577D01*
X18307720Y-19364291D02*
X18314863Y-19371434D01*
X18307720Y-19378577D01*
X18300577Y-19371434D01*
X18307720Y-19364291D01*
X18307720Y-19378577D01*
X18307720Y-19285720D02*
X18314863Y-19292863D01*
X18307720Y-19300006D01*
X18300577Y-19292863D01*
X18307720Y-19285720D01*
X18307720Y-19300006D01*
X18486291Y-19335720D02*
X18557720Y-19335720D01*
X18472006Y-19378577D02*
X18522006Y-19228577D01*
X18572006Y-19378577D01*
X18686291Y-19278577D02*
X18686291Y-19378577D01*
X18650577Y-19221434D02*
X18614863Y-19328577D01*
X18707720Y-19328577D01*
D10*
D11*
X26343434Y-19658577D02*
X26343434Y-19508577D01*
X26479148Y-19658577D02*
X26479148Y-19508577D01*
X26479148Y-19651434D02*
X26464863Y-19658577D01*
X26436291Y-19658577D01*
X26422006Y-19651434D01*
X26414863Y-19644291D01*
X26407720Y-19630006D01*
X26407720Y-19587149D01*
X26414863Y-19572863D01*
X26422006Y-19565720D01*
X26436291Y-19558577D01*
X26464863Y-19558577D01*
X26479148Y-19565720D01*
X26550577Y-19644291D02*
X26557720Y-19651434D01*
X26550577Y-19658577D01*
X26543434Y-19651434D01*
X26550577Y-19644291D01*
X26550577Y-19658577D01*
X26550577Y-19565720D02*
X26557720Y-19572863D01*
X26550577Y-19580006D01*
X26543434Y-19572863D01*
X26550577Y-19565720D01*
X26550577Y-19580006D01*
X26814863Y-19658577D02*
X26729148Y-19658577D01*
X26772006Y-19658577D02*
X26772006Y-19508577D01*
X26757720Y-19530006D01*
X26743434Y-19544291D01*
X26729148Y-19551434D01*
X26986291Y-19501434D02*
X26857720Y-19694291D01*
X27114863Y-19658577D02*
X27029148Y-19658577D01*
X27072006Y-19658577D02*
X27072006Y-19508577D01*
X27057720Y-19530006D01*
X27043434Y-19544291D01*
X27029148Y-19551434D01*
D10*
D11*
X17700220Y-18750720D02*
X28500220Y-18750720D01*
D10*
D13*
X17871458Y-18821196D02*
X17985744Y-18821196D01*
X17903601Y-19021196D02*
X17928601Y-18821196D01*
X18027410Y-19021196D02*
X18044077Y-18887863D01*
X18052410Y-18821196D02*
X18041696Y-18830720D01*
X18050030Y-18840244D01*
X18060744Y-18830720D01*
X18052410Y-18821196D01*
X18050030Y-18840244D01*
X18110744Y-18887863D02*
X18186934Y-18887863D01*
X18147649Y-18821196D02*
X18126220Y-18992625D01*
X18133363Y-19011672D01*
X18151220Y-19021196D01*
X18170268Y-19021196D01*
X18265506Y-19021196D02*
X18247649Y-19011672D01*
X18240506Y-18992625D01*
X18261934Y-18821196D01*
X18419077Y-19011672D02*
X18398839Y-19021196D01*
X18360744Y-19021196D01*
X18342887Y-19011672D01*
X18335744Y-18992625D01*
X18345268Y-18916434D01*
X18357172Y-18897387D01*
X18377410Y-18887863D01*
X18415506Y-18887863D01*
X18433363Y-18897387D01*
X18440506Y-18916434D01*
X18438125Y-18935482D01*
X18340506Y-18954530D01*
X18515506Y-19002149D02*
X18523839Y-19011672D01*
X18513125Y-19021196D01*
X18504791Y-19011672D01*
X18515506Y-19002149D01*
X18513125Y-19021196D01*
X18528601Y-18897387D02*
X18536934Y-18906910D01*
X18526220Y-18916434D01*
X18517887Y-18906910D01*
X18528601Y-18897387D01*
X18526220Y-18916434D01*
D10*
D11*
X17893434Y-18560006D02*
X17843434Y-18560006D01*
X17843434Y-18638577D02*
X17843434Y-18488577D01*
X17914863Y-18488577D01*
X17972006Y-18638577D02*
X17972006Y-18538577D01*
X17972006Y-18488577D02*
X17964863Y-18495720D01*
X17972006Y-18502863D01*
X17979149Y-18495720D01*
X17972006Y-18488577D01*
X17972006Y-18502863D01*
X18064863Y-18638577D02*
X18050577Y-18631434D01*
X18043434Y-18617149D01*
X18043434Y-18488577D01*
X18179149Y-18631434D02*
X18164863Y-18638577D01*
X18136291Y-18638577D01*
X18122006Y-18631434D01*
X18114863Y-18617149D01*
X18114863Y-18560006D01*
X18122006Y-18545720D01*
X18136291Y-18538577D01*
X18164863Y-18538577D01*
X18179149Y-18545720D01*
X18186291Y-18560006D01*
X18186291Y-18574291D01*
X18114863Y-18588577D01*
X18250577Y-18624291D02*
X18257720Y-18631434D01*
X18250577Y-18638577D01*
X18243434Y-18631434D01*
X18250577Y-18624291D01*
X18250577Y-18638577D01*
X18250577Y-18545720D02*
X18257720Y-18552863D01*
X18250577Y-18560006D01*
X18243434Y-18552863D01*
X18250577Y-18545720D01*
X18250577Y-18560006D01*
X18436291Y-18638577D02*
X18436291Y-18488577D01*
X18472006Y-18488577D01*
X18493434Y-18495720D01*
X18507720Y-18510006D01*
X18514863Y-18524291D01*
X18522006Y-18552863D01*
X18522006Y-18574291D01*
X18514863Y-18602863D01*
X18507720Y-18617149D01*
X18493434Y-18631434D01*
X18472006Y-18638577D01*
X18436291Y-18638577D01*
X18643434Y-18631434D02*
X18629149Y-18638577D01*
X18600577Y-18638577D01*
X18586291Y-18631434D01*
X18579149Y-18617149D01*
X18579149Y-18560006D01*
X18586291Y-18545720D01*
X18600577Y-18538577D01*
X18629149Y-18538577D01*
X18643434Y-18545720D01*
X18650577Y-18560006D01*
X18650577Y-18574291D01*
X18579149Y-18588577D01*
X18707720Y-18631434D02*
X18722006Y-18638577D01*
X18750577Y-18638577D01*
X18764863Y-18631434D01*
X18772006Y-18617149D01*
X18772006Y-18610006D01*
X18764863Y-18595720D01*
X18750577Y-18588577D01*
X18729149Y-18588577D01*
X18714863Y-18581434D01*
X18707720Y-18567149D01*
X18707720Y-18560006D01*
X18714863Y-18545720D01*
X18729149Y-18538577D01*
X18750577Y-18538577D01*
X18764863Y-18545720D01*
X18914863Y-18638577D02*
X18829149Y-18638577D01*
X18872006Y-18638577D02*
X18872006Y-18488577D01*
X18857720Y-18510006D01*
X18843434Y-18524291D01*
X18829149Y-18531434D01*
X18943434Y-18652863D02*
X19057720Y-18652863D01*
X19086291Y-18502863D02*
X19093434Y-18495720D01*
X19107720Y-18488577D01*
X19143434Y-18488577D01*
X19157720Y-18495720D01*
X19164863Y-18502863D01*
X19172006Y-18517149D01*
X19172006Y-18531434D01*
X19164863Y-18552863D01*
X19079149Y-18638577D01*
X19172006Y-18638577D01*
X19200577Y-18652863D02*
X19314863Y-18652863D01*
X19350577Y-18538577D02*
X19350577Y-18688577D01*
X19350577Y-18545720D02*
X19364863Y-18538577D01*
X19393434Y-18538577D01*
X19407720Y-18545720D01*
X19414863Y-18552863D01*
X19422006Y-18567149D01*
X19422006Y-18610006D01*
X19414863Y-18624291D01*
X19407720Y-18631434D01*
X19393434Y-18638577D01*
X19364863Y-18638577D01*
X19350577Y-18631434D01*
X19550577Y-18638577D02*
X19550577Y-18560006D01*
X19543434Y-18545720D01*
X19529149Y-18538577D01*
X19500577Y-18538577D01*
X19486291Y-18545720D01*
X19550577Y-18631434D02*
X19536291Y-18638577D01*
X19500577Y-18638577D01*
X19486291Y-18631434D01*
X19479149Y-18617149D01*
X19479149Y-18602863D01*
X19486291Y-18588577D01*
X19500577Y-18581434D01*
X19536291Y-18581434D01*
X19550577Y-18574291D01*
X19622006Y-18538577D02*
X19622006Y-18638577D01*
X19622006Y-18552863D02*
X19629149Y-18545720D01*
X19643434Y-18538577D01*
X19664863Y-18538577D01*
X19679149Y-18545720D01*
X19686291Y-18560006D01*
X19686291Y-18638577D01*
X19814863Y-18631434D02*
X19800577Y-18638577D01*
X19772006Y-18638577D01*
X19757720Y-18631434D01*
X19750577Y-18617149D01*
X19750577Y-18560006D01*
X19757720Y-18545720D01*
X19772006Y-18538577D01*
X19800577Y-18538577D01*
X19814863Y-18545720D01*
X19822006Y-18560006D01*
X19822006Y-18574291D01*
X19750577Y-18588577D01*
X19907720Y-18638577D02*
X19893434Y-18631434D01*
X19886291Y-18617149D01*
X19886291Y-18488577D01*
X19964863Y-18624291D02*
X19972006Y-18631434D01*
X19964863Y-18638577D01*
X19957720Y-18631434D01*
X19964863Y-18624291D01*
X19964863Y-18638577D01*
X20036291Y-18638577D02*
X20036291Y-18488577D01*
X20050577Y-18581434D02*
X20093434Y-18638577D01*
X20093434Y-18538577D02*
X20036291Y-18595720D01*
X20157720Y-18638577D02*
X20157720Y-18538577D01*
X20157720Y-18488577D02*
X20150577Y-18495720D01*
X20157720Y-18502863D01*
X20164863Y-18495720D01*
X20157720Y-18488577D01*
X20157720Y-18502863D01*
X20293434Y-18631434D02*
X20279149Y-18638577D01*
X20250577Y-18638577D01*
X20236291Y-18631434D01*
X20229149Y-18624291D01*
X20222006Y-18610006D01*
X20222006Y-18567149D01*
X20229149Y-18552863D01*
X20236291Y-18545720D01*
X20250577Y-18538577D01*
X20279149Y-18538577D01*
X20293434Y-18545720D01*
X20422006Y-18638577D02*
X20422006Y-18560006D01*
X20414863Y-18545720D01*
X20400577Y-18538577D01*
X20372006Y-18538577D01*
X20357720Y-18545720D01*
X20422006Y-18631434D02*
X20407720Y-18638577D01*
X20372006Y-18638577D01*
X20357720Y-18631434D01*
X20350577Y-18617149D01*
X20350577Y-18602863D01*
X20357720Y-18588577D01*
X20372006Y-18581434D01*
X20407720Y-18581434D01*
X20422006Y-18574291D01*
X20557720Y-18638577D02*
X20557720Y-18488577D01*
X20557720Y-18631434D02*
X20543434Y-18638577D01*
X20514863Y-18638577D01*
X20500577Y-18631434D01*
X20493434Y-18624291D01*
X20486291Y-18610006D01*
X20486291Y-18567149D01*
X20493434Y-18552863D01*
X20500577Y-18545720D01*
X20514863Y-18538577D01*
X20543434Y-18538577D01*
X20557720Y-18545720D01*
X20593434Y-18652863D02*
X20707720Y-18652863D01*
X20743434Y-18538577D02*
X20743434Y-18688577D01*
X20743434Y-18545720D02*
X20757720Y-18538577D01*
X20786291Y-18538577D01*
X20800577Y-18545720D01*
X20807720Y-18552863D01*
X20814863Y-18567149D01*
X20814863Y-18610006D01*
X20807720Y-18624291D01*
X20800577Y-18631434D01*
X20786291Y-18638577D01*
X20757720Y-18638577D01*
X20743434Y-18631434D01*
X20943434Y-18631434D02*
X20929149Y-18638577D01*
X20900577Y-18638577D01*
X20886291Y-18631434D01*
X20879149Y-18624291D01*
X20872006Y-18610006D01*
X20872006Y-18567149D01*
X20879149Y-18552863D01*
X20886291Y-18545720D01*
X20900577Y-18538577D01*
X20929149Y-18538577D01*
X20943434Y-18545720D01*
X21007720Y-18638577D02*
X21007720Y-18488577D01*
X21007720Y-18545720D02*
X21022006Y-18538577D01*
X21050577Y-18538577D01*
X21064863Y-18545720D01*
X21072006Y-18552863D01*
X21079149Y-18567149D01*
X21079149Y-18610006D01*
X21072006Y-18624291D01*
X21064863Y-18631434D01*
X21050577Y-18638577D01*
X21022006Y-18638577D01*
X21007720Y-18631434D01*
D10*
D11*
X17700220Y-18150720D02*
X28500220Y-18150720D01*
D10*
D11*
X17836291Y-18361434D02*
X17857720Y-18368577D01*
X17893434Y-18368577D01*
X17907720Y-18361434D01*
X17914863Y-18354291D01*
X17922006Y-18340006D01*
X17922006Y-18325720D01*
X17914863Y-18311434D01*
X17907720Y-18304291D01*
X17893434Y-18297149D01*
X17864863Y-18290006D01*
X17850577Y-18282863D01*
X17843434Y-18275720D01*
X17836291Y-18261434D01*
X17836291Y-18247149D01*
X17843434Y-18232863D01*
X17850577Y-18225720D01*
X17864863Y-18218577D01*
X17900577Y-18218577D01*
X17922006Y-18225720D01*
X17986291Y-18368577D02*
X17986291Y-18218577D01*
X18050577Y-18368577D02*
X18050577Y-18290006D01*
X18043434Y-18275720D01*
X18029149Y-18268577D01*
X18007720Y-18268577D01*
X17993434Y-18275720D01*
X17986291Y-18282863D01*
X18179149Y-18361434D02*
X18164863Y-18368577D01*
X18136291Y-18368577D01*
X18122006Y-18361434D01*
X18114863Y-18347149D01*
X18114863Y-18290006D01*
X18122006Y-18275720D01*
X18136291Y-18268577D01*
X18164863Y-18268577D01*
X18179149Y-18275720D01*
X18186291Y-18290006D01*
X18186291Y-18304291D01*
X18114863Y-18318577D01*
X18307720Y-18361434D02*
X18293434Y-18368577D01*
X18264863Y-18368577D01*
X18250577Y-18361434D01*
X18243434Y-18347149D01*
X18243434Y-18290006D01*
X18250577Y-18275720D01*
X18264863Y-18268577D01*
X18293434Y-18268577D01*
X18307720Y-18275720D01*
X18314863Y-18290006D01*
X18314863Y-18304291D01*
X18243434Y-18318577D01*
X18357720Y-18268577D02*
X18414863Y-18268577D01*
X18379149Y-18218577D02*
X18379149Y-18347149D01*
X18386291Y-18361434D01*
X18400577Y-18368577D01*
X18414863Y-18368577D01*
X18464863Y-18354291D02*
X18472006Y-18361434D01*
X18464863Y-18368577D01*
X18457720Y-18361434D01*
X18464863Y-18354291D01*
X18464863Y-18368577D01*
X18464863Y-18275720D02*
X18472006Y-18282863D01*
X18464863Y-18290006D01*
X18457720Y-18282863D01*
X18464863Y-18275720D01*
X18464863Y-18290006D01*
D10*
D11*
X19700220Y-19150720D02*
X19700220Y-19450720D01*
D10*
D11*
X26100220Y-19150720D02*
X26100220Y-19800720D01*
D10*
G36*
X12128102Y-11232761D02*
G01*
X12140860Y-11238045D01*
X12152341Y-11245716D01*
X12162105Y-11255481D01*
X12169777Y-11266962D01*
X12175061Y-11279720D01*
X12177755Y-11293263D01*
X12177755Y-11307071D01*
X12175061Y-11320614D01*
X12169777Y-11333372D01*
X12162105Y-11344853D01*
X12152341Y-11354617D01*
X12140860Y-11362289D01*
X12128102Y-11367573D01*
X12114559Y-11370267D01*
X12100751Y-11370267D01*
X12087208Y-11367573D01*
X12074450Y-11362289D01*
X12062969Y-11354617D01*
X12053204Y-11344853D01*
X12045533Y-11333372D01*
X12040249Y-11320614D01*
X12037555Y-11307071D01*
X12037555Y-11293263D01*
X12040249Y-11279720D01*
X12045533Y-11266962D01*
X12053204Y-11255481D01*
X12062969Y-11245716D01*
X12074450Y-11238045D01*
X12087208Y-11232761D01*
X12100751Y-11230067D01*
X12114559Y-11230067D01*
X12128102Y-11232761D01*
X12128102Y-11232761D01*
G37*
G36*
X11874102Y-11232761D02*
G01*
X11886860Y-11238045D01*
X11898341Y-11245716D01*
X11908105Y-11255481D01*
X11915777Y-11266962D01*
X11921061Y-11279720D01*
X11923755Y-11293263D01*
X11923755Y-11307071D01*
X11921061Y-11320614D01*
X11915777Y-11333372D01*
X11908105Y-11344853D01*
X11898341Y-11354617D01*
X11886860Y-11362289D01*
X11874102Y-11367573D01*
X11860559Y-11370267D01*
X11846751Y-11370267D01*
X11833208Y-11367573D01*
X11820450Y-11362289D01*
X11808969Y-11354617D01*
X11799204Y-11344853D01*
X11791533Y-11333372D01*
X11786249Y-11320614D01*
X11783555Y-11307071D01*
X11783555Y-11293263D01*
X11786249Y-11279720D01*
X11791533Y-11266962D01*
X11799204Y-11255481D01*
X11808969Y-11245716D01*
X11820450Y-11238045D01*
X11833208Y-11232761D01*
X11846751Y-11230067D01*
X11860559Y-11230067D01*
X11874102Y-11232761D01*
X11874102Y-11232761D01*
G37*
G36*
X10604102Y-11232761D02*
G01*
X10616860Y-11238045D01*
X10628341Y-11245716D01*
X10638106Y-11255481D01*
X10645777Y-11266962D01*
X10651061Y-11279720D01*
X10653755Y-11293263D01*
X10653755Y-11307071D01*
X10651061Y-11320614D01*
X10645777Y-11333372D01*
X10638106Y-11344853D01*
X10628341Y-11354617D01*
X10616860Y-11362289D01*
X10604102Y-11367573D01*
X10590559Y-11370267D01*
X10576751Y-11370267D01*
X10563208Y-11367573D01*
X10550450Y-11362289D01*
X10538969Y-11354617D01*
X10529205Y-11344853D01*
X10521533Y-11333372D01*
X10516249Y-11320614D01*
X10513555Y-11307071D01*
X10513555Y-11293263D01*
X10516249Y-11279720D01*
X10521533Y-11266962D01*
X10529205Y-11255481D01*
X10538969Y-11245716D01*
X10550450Y-11238045D01*
X10563208Y-11232761D01*
X10576751Y-11230067D01*
X10590559Y-11230067D01*
X10604102Y-11232761D01*
X10604102Y-11232761D01*
G37*
G36*
X12377102Y-11226761D02*
G01*
X12389860Y-11232045D01*
X12401341Y-11239716D01*
X12411105Y-11249481D01*
X12418777Y-11260962D01*
X12424061Y-11273720D01*
X12426755Y-11287263D01*
X12426755Y-11301071D01*
X12424061Y-11314614D01*
X12418777Y-11327372D01*
X12411105Y-11338853D01*
X12401341Y-11348617D01*
X12389860Y-11356289D01*
X12377102Y-11361573D01*
X12363559Y-11364267D01*
X12349751Y-11364267D01*
X12336208Y-11361573D01*
X12323450Y-11356289D01*
X12311969Y-11348617D01*
X12302204Y-11338853D01*
X12294533Y-11327372D01*
X12289249Y-11314614D01*
X12286555Y-11301071D01*
X12286555Y-11287263D01*
X12289249Y-11273720D01*
X12294533Y-11260962D01*
X12302204Y-11249481D01*
X12311969Y-11239716D01*
X12323450Y-11232045D01*
X12336208Y-11226761D01*
X12349751Y-11224067D01*
X12363559Y-11224067D01*
X12377102Y-11226761D01*
X12377102Y-11226761D01*
G37*
G36*
X12631102Y-11226761D02*
G01*
X12643860Y-11232045D01*
X12655341Y-11239716D01*
X12665105Y-11249481D01*
X12672777Y-11260962D01*
X12678061Y-11273720D01*
X12680755Y-11287263D01*
X12680755Y-11301071D01*
X12678061Y-11314614D01*
X12672777Y-11327372D01*
X12665105Y-11338853D01*
X12655341Y-11348617D01*
X12643860Y-11356289D01*
X12631102Y-11361573D01*
X12617559Y-11364267D01*
X12603751Y-11364267D01*
X12590208Y-11361573D01*
X12577450Y-11356289D01*
X12565969Y-11348617D01*
X12556204Y-11338853D01*
X12548533Y-11327372D01*
X12543249Y-11314614D01*
X12540555Y-11301071D01*
X12540555Y-11287263D01*
X12543249Y-11273720D01*
X12548533Y-11260962D01*
X12556204Y-11249481D01*
X12565969Y-11239716D01*
X12577450Y-11232045D01*
X12590208Y-11226761D01*
X12603751Y-11224067D01*
X12617559Y-11224067D01*
X12631102Y-11226761D01*
X12631102Y-11226761D01*
G37*
G36*
X14923895Y-11070128D02*
G01*
X14936653Y-11075412D01*
X14948134Y-11083084D01*
X14957898Y-11092848D01*
X14965570Y-11104329D01*
X14970854Y-11117087D01*
X14973548Y-11130630D01*
X14973548Y-11144438D01*
X14970854Y-11157981D01*
X14965570Y-11170739D01*
X14957898Y-11182220D01*
X14948134Y-11191984D01*
X14936653Y-11199656D01*
X14923895Y-11204940D01*
X14910352Y-11207634D01*
X14896544Y-11207634D01*
X14883001Y-11204940D01*
X14870243Y-11199656D01*
X14858762Y-11191984D01*
X14848997Y-11182220D01*
X14841326Y-11170739D01*
X14836042Y-11157981D01*
X14833348Y-11144438D01*
X14833348Y-11130630D01*
X14836042Y-11117087D01*
X14841326Y-11104329D01*
X14848997Y-11092848D01*
X14858762Y-11083084D01*
X14870243Y-11075412D01*
X14883001Y-11070128D01*
X14896544Y-11067434D01*
X14910352Y-11067434D01*
X14923895Y-11070128D01*
X14923895Y-11070128D01*
G37*
G36*
X12890102Y-10978761D02*
G01*
X12902860Y-10984045D01*
X12914341Y-10991717D01*
X12924105Y-11001481D01*
X12931777Y-11012962D01*
X12937061Y-11025720D01*
X12939755Y-11039263D01*
X12939755Y-11053071D01*
X12937061Y-11066614D01*
X12931777Y-11079372D01*
X12924105Y-11090853D01*
X12914341Y-11100618D01*
X12902860Y-11108289D01*
X12890102Y-11113573D01*
X12876559Y-11116267D01*
X12862751Y-11116267D01*
X12849208Y-11113573D01*
X12836450Y-11108289D01*
X12824969Y-11100618D01*
X12815204Y-11090853D01*
X12807533Y-11079372D01*
X12802249Y-11066614D01*
X12799555Y-11053071D01*
X12799555Y-11039263D01*
X12802249Y-11025720D01*
X12807533Y-11012962D01*
X12815204Y-11001481D01*
X12824969Y-10991717D01*
X12836450Y-10984045D01*
X12849208Y-10978761D01*
X12862751Y-10976067D01*
X12876559Y-10976067D01*
X12890102Y-10978761D01*
X12890102Y-10978761D01*
G37*
G36*
X9842102Y-10978761D02*
G01*
X9854860Y-10984045D01*
X9866341Y-10991717D01*
X9876106Y-11001481D01*
X9883777Y-11012962D01*
X9889061Y-11025720D01*
X9891755Y-11039263D01*
X9891755Y-11053071D01*
X9889061Y-11066614D01*
X9883777Y-11079372D01*
X9876106Y-11090853D01*
X9866341Y-11100618D01*
X9854860Y-11108289D01*
X9842102Y-11113573D01*
X9828559Y-11116267D01*
X9814751Y-11116267D01*
X9801208Y-11113573D01*
X9788450Y-11108289D01*
X9776969Y-11100618D01*
X9767205Y-11090853D01*
X9759533Y-11079372D01*
X9754249Y-11066614D01*
X9751555Y-11053071D01*
X9751555Y-11039263D01*
X9754249Y-11025720D01*
X9759533Y-11012962D01*
X9767205Y-11001481D01*
X9776969Y-10991717D01*
X9788450Y-10984045D01*
X9801208Y-10978761D01*
X9814751Y-10976067D01*
X9828559Y-10976067D01*
X9842102Y-10978761D01*
X9842102Y-10978761D01*
G37*
G36*
X10604102Y-10978761D02*
G01*
X10616860Y-10984045D01*
X10628341Y-10991717D01*
X10638106Y-11001481D01*
X10645777Y-11012962D01*
X10651061Y-11025720D01*
X10653755Y-11039263D01*
X10653755Y-11053071D01*
X10651061Y-11066614D01*
X10645777Y-11079372D01*
X10638106Y-11090853D01*
X10628341Y-11100618D01*
X10616860Y-11108289D01*
X10604102Y-11113573D01*
X10590559Y-11116267D01*
X10576751Y-11116267D01*
X10563208Y-11113573D01*
X10550450Y-11108289D01*
X10538969Y-11100618D01*
X10529205Y-11090853D01*
X10521533Y-11079372D01*
X10516249Y-11066614D01*
X10513555Y-11053071D01*
X10513555Y-11039263D01*
X10516249Y-11025720D01*
X10521533Y-11012962D01*
X10529205Y-11001481D01*
X10538969Y-10991717D01*
X10550450Y-10984045D01*
X10563208Y-10978761D01*
X10576751Y-10976067D01*
X10590559Y-10976067D01*
X10604102Y-10978761D01*
X10604102Y-10978761D01*
G37*
G36*
X12382102Y-10978761D02*
G01*
X12394860Y-10984045D01*
X12406341Y-10991717D01*
X12416105Y-11001481D01*
X12423777Y-11012962D01*
X12429061Y-11025720D01*
X12431755Y-11039263D01*
X12431755Y-11053071D01*
X12429061Y-11066614D01*
X12423777Y-11079372D01*
X12416105Y-11090853D01*
X12406341Y-11100618D01*
X12394860Y-11108289D01*
X12382102Y-11113573D01*
X12368559Y-11116267D01*
X12354751Y-11116267D01*
X12341208Y-11113573D01*
X12328450Y-11108289D01*
X12316969Y-11100618D01*
X12307204Y-11090853D01*
X12299533Y-11079372D01*
X12294249Y-11066614D01*
X12291555Y-11053071D01*
X12291555Y-11039263D01*
X12294249Y-11025720D01*
X12299533Y-11012962D01*
X12307204Y-11001481D01*
X12316969Y-10991717D01*
X12328450Y-10984045D01*
X12341208Y-10978761D01*
X12354751Y-10976067D01*
X12368559Y-10976067D01*
X12382102Y-10978761D01*
X12382102Y-10978761D01*
G37*
G36*
X11874102Y-10978761D02*
G01*
X11886860Y-10984045D01*
X11898341Y-10991717D01*
X11908105Y-11001481D01*
X11915777Y-11012962D01*
X11921061Y-11025720D01*
X11923755Y-11039263D01*
X11923755Y-11053071D01*
X11921061Y-11066614D01*
X11915777Y-11079372D01*
X11908105Y-11090853D01*
X11898341Y-11100618D01*
X11886860Y-11108289D01*
X11874102Y-11113573D01*
X11860559Y-11116267D01*
X11846751Y-11116267D01*
X11833208Y-11113573D01*
X11820450Y-11108289D01*
X11808969Y-11100618D01*
X11799204Y-11090853D01*
X11791533Y-11079372D01*
X11786249Y-11066614D01*
X11783555Y-11053071D01*
X11783555Y-11039263D01*
X11786249Y-11025720D01*
X11791533Y-11012962D01*
X11799204Y-11001481D01*
X11808969Y-10991717D01*
X11820450Y-10984045D01*
X11833208Y-10978761D01*
X11846751Y-10976067D01*
X11860559Y-10976067D01*
X11874102Y-10978761D01*
X11874102Y-10978761D01*
G37*
G36*
X12123102Y-10972761D02*
G01*
X12135860Y-10978045D01*
X12147341Y-10985717D01*
X12157105Y-10995481D01*
X12164777Y-11006962D01*
X12170061Y-11019720D01*
X12172755Y-11033263D01*
X12172755Y-11047071D01*
X12170061Y-11060614D01*
X12164777Y-11073372D01*
X12157105Y-11084853D01*
X12147341Y-11094618D01*
X12135860Y-11102289D01*
X12123102Y-11107573D01*
X12109559Y-11110267D01*
X12095751Y-11110267D01*
X12082208Y-11107573D01*
X12069450Y-11102289D01*
X12057969Y-11094618D01*
X12048204Y-11084853D01*
X12040533Y-11073372D01*
X12035249Y-11060614D01*
X12032555Y-11047071D01*
X12032555Y-11033263D01*
X12035249Y-11019720D01*
X12040533Y-11006962D01*
X12048204Y-10995481D01*
X12057969Y-10985717D01*
X12069450Y-10978045D01*
X12082208Y-10972761D01*
X12095751Y-10970067D01*
X12109559Y-10970067D01*
X12123102Y-10972761D01*
X12123102Y-10972761D01*
G37*
G36*
X12631102Y-10972761D02*
G01*
X12643860Y-10978045D01*
X12655341Y-10985717D01*
X12665105Y-10995481D01*
X12672777Y-11006962D01*
X12678061Y-11019720D01*
X12680755Y-11033263D01*
X12680755Y-11047071D01*
X12678061Y-11060614D01*
X12672777Y-11073372D01*
X12665105Y-11084853D01*
X12655341Y-11094618D01*
X12643860Y-11102289D01*
X12631102Y-11107573D01*
X12617559Y-11110267D01*
X12603751Y-11110267D01*
X12590208Y-11107573D01*
X12577450Y-11102289D01*
X12565969Y-11094618D01*
X12556204Y-11084853D01*
X12548533Y-11073372D01*
X12543249Y-11060614D01*
X12540555Y-11047071D01*
X12540555Y-11033263D01*
X12543249Y-11019720D01*
X12548533Y-11006962D01*
X12556204Y-10995481D01*
X12565969Y-10985717D01*
X12577450Y-10978045D01*
X12590208Y-10972761D01*
X12603751Y-10970067D01*
X12617559Y-10970067D01*
X12631102Y-10972761D01*
X12631102Y-10972761D01*
G37*
G36*
X15431895Y-10816128D02*
G01*
X15444653Y-10821412D01*
X15456134Y-10829084D01*
X15465898Y-10838848D01*
X15473570Y-10850329D01*
X15478854Y-10863087D01*
X15481548Y-10876630D01*
X15481548Y-10890438D01*
X15478854Y-10903981D01*
X15473570Y-10916739D01*
X15465898Y-10928220D01*
X15456134Y-10937985D01*
X15444653Y-10945656D01*
X15431895Y-10950940D01*
X15418352Y-10953634D01*
X15404544Y-10953634D01*
X15391001Y-10950940D01*
X15378243Y-10945656D01*
X15366762Y-10937985D01*
X15356997Y-10928220D01*
X15349326Y-10916739D01*
X15344042Y-10903981D01*
X15341348Y-10890438D01*
X15341348Y-10876630D01*
X15344042Y-10863087D01*
X15349326Y-10850329D01*
X15356997Y-10838848D01*
X15366762Y-10829084D01*
X15378243Y-10821412D01*
X15391001Y-10816128D01*
X15404544Y-10813434D01*
X15418352Y-10813434D01*
X15431895Y-10816128D01*
X15431895Y-10816128D01*
G37*
G36*
X15939895Y-10816128D02*
G01*
X15952653Y-10821412D01*
X15964134Y-10829084D01*
X15973898Y-10838848D01*
X15981570Y-10850329D01*
X15986854Y-10863087D01*
X15989548Y-10876630D01*
X15989548Y-10890438D01*
X15986854Y-10903981D01*
X15981570Y-10916739D01*
X15973898Y-10928220D01*
X15964134Y-10937985D01*
X15952653Y-10945656D01*
X15939895Y-10950940D01*
X15926352Y-10953634D01*
X15912544Y-10953634D01*
X15899001Y-10950940D01*
X15886243Y-10945656D01*
X15874762Y-10937985D01*
X15864997Y-10928220D01*
X15857326Y-10916739D01*
X15852042Y-10903981D01*
X15849348Y-10890438D01*
X15849348Y-10876630D01*
X15852042Y-10863087D01*
X15857326Y-10850329D01*
X15864997Y-10838848D01*
X15874762Y-10829084D01*
X15886243Y-10821412D01*
X15899001Y-10816128D01*
X15912544Y-10813434D01*
X15926352Y-10813434D01*
X15939895Y-10816128D01*
X15939895Y-10816128D01*
G37*
G36*
X14929895Y-10811128D02*
G01*
X14942653Y-10816412D01*
X14954134Y-10824084D01*
X14963898Y-10833848D01*
X14971570Y-10845329D01*
X14976854Y-10858087D01*
X14979548Y-10871630D01*
X14979548Y-10885438D01*
X14976854Y-10898981D01*
X14971570Y-10911739D01*
X14963898Y-10923220D01*
X14954134Y-10932985D01*
X14942653Y-10940656D01*
X14929895Y-10945940D01*
X14916352Y-10948634D01*
X14902544Y-10948634D01*
X14889001Y-10945940D01*
X14876243Y-10940656D01*
X14864762Y-10932985D01*
X14854997Y-10923220D01*
X14847326Y-10911739D01*
X14842042Y-10898981D01*
X14839348Y-10885438D01*
X14839348Y-10871630D01*
X14842042Y-10858087D01*
X14847326Y-10845329D01*
X14854997Y-10833848D01*
X14864762Y-10824084D01*
X14876243Y-10816412D01*
X14889001Y-10811128D01*
X14902544Y-10808434D01*
X14916352Y-10808434D01*
X14929895Y-10811128D01*
X14929895Y-10811128D01*
G37*
G36*
X15691895Y-10811128D02*
G01*
X15704653Y-10816412D01*
X15716134Y-10824084D01*
X15725898Y-10833848D01*
X15733570Y-10845329D01*
X15738854Y-10858087D01*
X15741548Y-10871630D01*
X15741548Y-10885438D01*
X15738854Y-10898981D01*
X15733570Y-10911739D01*
X15725898Y-10923220D01*
X15716134Y-10932985D01*
X15704653Y-10940656D01*
X15691895Y-10945940D01*
X15678352Y-10948634D01*
X15664544Y-10948634D01*
X15651001Y-10945940D01*
X15638243Y-10940656D01*
X15626762Y-10932985D01*
X15616997Y-10923220D01*
X15609326Y-10911739D01*
X15604042Y-10898981D01*
X15601348Y-10885438D01*
X15601348Y-10871630D01*
X15604042Y-10858087D01*
X15609326Y-10845329D01*
X15616997Y-10833848D01*
X15626762Y-10824084D01*
X15638243Y-10816412D01*
X15651001Y-10811128D01*
X15664544Y-10808434D01*
X15678352Y-10808434D01*
X15691895Y-10811128D01*
X15691895Y-10811128D01*
G37*
G36*
X14675895Y-10811128D02*
G01*
X14688653Y-10816412D01*
X14700134Y-10824084D01*
X14709898Y-10833848D01*
X14717570Y-10845329D01*
X14722854Y-10858087D01*
X14725548Y-10871630D01*
X14725548Y-10885438D01*
X14722854Y-10898981D01*
X14717570Y-10911739D01*
X14709898Y-10923220D01*
X14700134Y-10932985D01*
X14688653Y-10940656D01*
X14675895Y-10945940D01*
X14662352Y-10948634D01*
X14648544Y-10948634D01*
X14635001Y-10945940D01*
X14622243Y-10940656D01*
X14610762Y-10932985D01*
X14600997Y-10923220D01*
X14593326Y-10911739D01*
X14588042Y-10898981D01*
X14585348Y-10885438D01*
X14585348Y-10871630D01*
X14588042Y-10858087D01*
X14593326Y-10845329D01*
X14600997Y-10833848D01*
X14610762Y-10824084D01*
X14622243Y-10816412D01*
X14635001Y-10811128D01*
X14648544Y-10808434D01*
X14662352Y-10808434D01*
X14675895Y-10811128D01*
X14675895Y-10811128D01*
G37*
G36*
X9842102Y-10724761D02*
G01*
X9854860Y-10730045D01*
X9866341Y-10737717D01*
X9876106Y-10747481D01*
X9883777Y-10758962D01*
X9889061Y-10771720D01*
X9891755Y-10785263D01*
X9891755Y-10799071D01*
X9889061Y-10812614D01*
X9883777Y-10825372D01*
X9876106Y-10836853D01*
X9866341Y-10846618D01*
X9854860Y-10854289D01*
X9842102Y-10859573D01*
X9828559Y-10862267D01*
X9814751Y-10862267D01*
X9801208Y-10859573D01*
X9788450Y-10854289D01*
X9776969Y-10846618D01*
X9767205Y-10836853D01*
X9759533Y-10825372D01*
X9754249Y-10812614D01*
X9751555Y-10799071D01*
X9751555Y-10785263D01*
X9754249Y-10771720D01*
X9759533Y-10758962D01*
X9767205Y-10747481D01*
X9776969Y-10737717D01*
X9788450Y-10730045D01*
X9801208Y-10724761D01*
X9814751Y-10722067D01*
X9828559Y-10722067D01*
X9842102Y-10724761D01*
X9842102Y-10724761D01*
G37*
G36*
X14923895Y-10562128D02*
G01*
X14936653Y-10567412D01*
X14948134Y-10575084D01*
X14957898Y-10584848D01*
X14965570Y-10596329D01*
X14970854Y-10609087D01*
X14973548Y-10622630D01*
X14973548Y-10636438D01*
X14970854Y-10649981D01*
X14965570Y-10662739D01*
X14957898Y-10674220D01*
X14948134Y-10683985D01*
X14936653Y-10691656D01*
X14923895Y-10696940D01*
X14910352Y-10699634D01*
X14896544Y-10699634D01*
X14883001Y-10696940D01*
X14870243Y-10691656D01*
X14858762Y-10683985D01*
X14848997Y-10674220D01*
X14841326Y-10662739D01*
X14836042Y-10649981D01*
X14833348Y-10636438D01*
X14833348Y-10622630D01*
X14836042Y-10609087D01*
X14841326Y-10596329D01*
X14848997Y-10584848D01*
X14858762Y-10575084D01*
X14870243Y-10567412D01*
X14883001Y-10562128D01*
X14896544Y-10559434D01*
X14910352Y-10559434D01*
X14923895Y-10562128D01*
X14923895Y-10562128D01*
G37*
G36*
X15437895Y-10557128D02*
G01*
X15450653Y-10562412D01*
X15462134Y-10570084D01*
X15471898Y-10579848D01*
X15479570Y-10591329D01*
X15484854Y-10604087D01*
X15487548Y-10617630D01*
X15487548Y-10631438D01*
X15484854Y-10644981D01*
X15479570Y-10657739D01*
X15471898Y-10669220D01*
X15462134Y-10678985D01*
X15450653Y-10686656D01*
X15437895Y-10691940D01*
X15424352Y-10694634D01*
X15410544Y-10694634D01*
X15397001Y-10691940D01*
X15384243Y-10686656D01*
X15372762Y-10678985D01*
X15362997Y-10669220D01*
X15355326Y-10657739D01*
X15350042Y-10644981D01*
X15347348Y-10631438D01*
X15347348Y-10617630D01*
X15350042Y-10604087D01*
X15355326Y-10591329D01*
X15362997Y-10579848D01*
X15372762Y-10570084D01*
X15384243Y-10562412D01*
X15397001Y-10557128D01*
X15410544Y-10554434D01*
X15424352Y-10554434D01*
X15437895Y-10557128D01*
X15437895Y-10557128D01*
G37*
G36*
X14675895Y-10557128D02*
G01*
X14688653Y-10562412D01*
X14700134Y-10570084D01*
X14709898Y-10579848D01*
X14717570Y-10591329D01*
X14722854Y-10604087D01*
X14725548Y-10617630D01*
X14725548Y-10631438D01*
X14722854Y-10644981D01*
X14717570Y-10657739D01*
X14709898Y-10669220D01*
X14700134Y-10678985D01*
X14688653Y-10686656D01*
X14675895Y-10691940D01*
X14662352Y-10694634D01*
X14648544Y-10694634D01*
X14635001Y-10691940D01*
X14622243Y-10686656D01*
X14610762Y-10678985D01*
X14600997Y-10669220D01*
X14593326Y-10657739D01*
X14588042Y-10644981D01*
X14585348Y-10631438D01*
X14585348Y-10617630D01*
X14588042Y-10604087D01*
X14593326Y-10591329D01*
X14600997Y-10579848D01*
X14610762Y-10570084D01*
X14622243Y-10562412D01*
X14635001Y-10557128D01*
X14648544Y-10554434D01*
X14662352Y-10554434D01*
X14675895Y-10557128D01*
X14675895Y-10557128D01*
G37*
G36*
X15945895Y-10557128D02*
G01*
X15958653Y-10562412D01*
X15970134Y-10570084D01*
X15979898Y-10579848D01*
X15987570Y-10591329D01*
X15992854Y-10604087D01*
X15995548Y-10617630D01*
X15995548Y-10631438D01*
X15992854Y-10644981D01*
X15987570Y-10657739D01*
X15979898Y-10669220D01*
X15970134Y-10678985D01*
X15958653Y-10686656D01*
X15945895Y-10691940D01*
X15932352Y-10694634D01*
X15918544Y-10694634D01*
X15905001Y-10691940D01*
X15892243Y-10686656D01*
X15880762Y-10678985D01*
X15870997Y-10669220D01*
X15863326Y-10657739D01*
X15858042Y-10644981D01*
X15855348Y-10631438D01*
X15855348Y-10617630D01*
X15858042Y-10604087D01*
X15863326Y-10591329D01*
X15870997Y-10579848D01*
X15880762Y-10570084D01*
X15892243Y-10562412D01*
X15905001Y-10557128D01*
X15918544Y-10554434D01*
X15932352Y-10554434D01*
X15945895Y-10557128D01*
X15945895Y-10557128D01*
G37*
G36*
X16453895Y-10557128D02*
G01*
X16466653Y-10562412D01*
X16478134Y-10570084D01*
X16487898Y-10579848D01*
X16495570Y-10591329D01*
X16500854Y-10604087D01*
X16503548Y-10617630D01*
X16503548Y-10631438D01*
X16500854Y-10644981D01*
X16495570Y-10657739D01*
X16487898Y-10669220D01*
X16478134Y-10678985D01*
X16466653Y-10686656D01*
X16453895Y-10691940D01*
X16440352Y-10694634D01*
X16426544Y-10694634D01*
X16413001Y-10691940D01*
X16400243Y-10686656D01*
X16388762Y-10678985D01*
X16378997Y-10669220D01*
X16371326Y-10657739D01*
X16366042Y-10644981D01*
X16363348Y-10631438D01*
X16363348Y-10617630D01*
X16366042Y-10604087D01*
X16371326Y-10591329D01*
X16378997Y-10579848D01*
X16388762Y-10570084D01*
X16400243Y-10562412D01*
X16413001Y-10557128D01*
X16426544Y-10554434D01*
X16440352Y-10554434D01*
X16453895Y-10557128D01*
X16453895Y-10557128D01*
G37*
G36*
X15691895Y-10557128D02*
G01*
X15704653Y-10562412D01*
X15716134Y-10570084D01*
X15725898Y-10579848D01*
X15733570Y-10591329D01*
X15738854Y-10604087D01*
X15741548Y-10617630D01*
X15741548Y-10631438D01*
X15738854Y-10644981D01*
X15733570Y-10657739D01*
X15725898Y-10669220D01*
X15716134Y-10678985D01*
X15704653Y-10686656D01*
X15691895Y-10691940D01*
X15678352Y-10694634D01*
X15664544Y-10694634D01*
X15651001Y-10691940D01*
X15638243Y-10686656D01*
X15626762Y-10678985D01*
X15616997Y-10669220D01*
X15609326Y-10657739D01*
X15604042Y-10644981D01*
X15601348Y-10631438D01*
X15601348Y-10617630D01*
X15604042Y-10604087D01*
X15609326Y-10591329D01*
X15616997Y-10579848D01*
X15626762Y-10570084D01*
X15638243Y-10562412D01*
X15651001Y-10557128D01*
X15664544Y-10554434D01*
X15678352Y-10554434D01*
X15691895Y-10557128D01*
X15691895Y-10557128D01*
G37*
G36*
X12636102Y-10470761D02*
G01*
X12648860Y-10476045D01*
X12660341Y-10483717D01*
X12670105Y-10493481D01*
X12677777Y-10504962D01*
X12683061Y-10517720D01*
X12685755Y-10531263D01*
X12685755Y-10545071D01*
X12683061Y-10558614D01*
X12677777Y-10571372D01*
X12670105Y-10582853D01*
X12660341Y-10592618D01*
X12648860Y-10600289D01*
X12636102Y-10605573D01*
X12622559Y-10608267D01*
X12608751Y-10608267D01*
X12595208Y-10605573D01*
X12582450Y-10600289D01*
X12570969Y-10592618D01*
X12561204Y-10582853D01*
X12553533Y-10571372D01*
X12548249Y-10558614D01*
X12545555Y-10545071D01*
X12545555Y-10531263D01*
X12548249Y-10517720D01*
X12553533Y-10504962D01*
X12561204Y-10493481D01*
X12570969Y-10483717D01*
X12582450Y-10476045D01*
X12595208Y-10470761D01*
X12608751Y-10468067D01*
X12622559Y-10468067D01*
X12636102Y-10470761D01*
X12636102Y-10470761D01*
G37*
G36*
X12123102Y-10464761D02*
G01*
X12135860Y-10470045D01*
X12147341Y-10477717D01*
X12157105Y-10487481D01*
X12164777Y-10498962D01*
X12170061Y-10511720D01*
X12172755Y-10525263D01*
X12172755Y-10539071D01*
X12170061Y-10552614D01*
X12164777Y-10565372D01*
X12157105Y-10576853D01*
X12147341Y-10586618D01*
X12135860Y-10594289D01*
X12123102Y-10599573D01*
X12109559Y-10602267D01*
X12095751Y-10602267D01*
X12082208Y-10599573D01*
X12069450Y-10594289D01*
X12057969Y-10586618D01*
X12048204Y-10576853D01*
X12040533Y-10565372D01*
X12035249Y-10552614D01*
X12032555Y-10539071D01*
X12032555Y-10525263D01*
X12035249Y-10511720D01*
X12040533Y-10498962D01*
X12048204Y-10487481D01*
X12057969Y-10477717D01*
X12069450Y-10470045D01*
X12082208Y-10464761D01*
X12095751Y-10462067D01*
X12109559Y-10462067D01*
X12123102Y-10464761D01*
X12123102Y-10464761D01*
G37*
G36*
X12377102Y-10464761D02*
G01*
X12389860Y-10470045D01*
X12401341Y-10477717D01*
X12411105Y-10487481D01*
X12418777Y-10498962D01*
X12424061Y-10511720D01*
X12426755Y-10525263D01*
X12426755Y-10539071D01*
X12424061Y-10552614D01*
X12418777Y-10565372D01*
X12411105Y-10576853D01*
X12401341Y-10586618D01*
X12389860Y-10594289D01*
X12377102Y-10599573D01*
X12363559Y-10602267D01*
X12349751Y-10602267D01*
X12336208Y-10599573D01*
X12323450Y-10594289D01*
X12311969Y-10586618D01*
X12302204Y-10576853D01*
X12294533Y-10565372D01*
X12289249Y-10552614D01*
X12286555Y-10539071D01*
X12286555Y-10525263D01*
X12289249Y-10511720D01*
X12294533Y-10498962D01*
X12302204Y-10487481D01*
X12311969Y-10477717D01*
X12323450Y-10470045D01*
X12336208Y-10464761D01*
X12349751Y-10462067D01*
X12363559Y-10462067D01*
X12377102Y-10464761D01*
X12377102Y-10464761D01*
G37*
G36*
X11869102Y-10464761D02*
G01*
X11881860Y-10470045D01*
X11893341Y-10477717D01*
X11903105Y-10487481D01*
X11910777Y-10498962D01*
X11916061Y-10511720D01*
X11918755Y-10525263D01*
X11918755Y-10539071D01*
X11916061Y-10552614D01*
X11910777Y-10565372D01*
X11903105Y-10576853D01*
X11893341Y-10586618D01*
X11881860Y-10594289D01*
X11869102Y-10599573D01*
X11855559Y-10602267D01*
X11841751Y-10602267D01*
X11828208Y-10599573D01*
X11815450Y-10594289D01*
X11803969Y-10586618D01*
X11794204Y-10576853D01*
X11786533Y-10565372D01*
X11781249Y-10552614D01*
X11778555Y-10539071D01*
X11778555Y-10525263D01*
X11781249Y-10511720D01*
X11786533Y-10498962D01*
X11794204Y-10487481D01*
X11803969Y-10477717D01*
X11815450Y-10470045D01*
X11828208Y-10464761D01*
X11841751Y-10462067D01*
X11855559Y-10462067D01*
X11869102Y-10464761D01*
X11869102Y-10464761D01*
G37*
G36*
X9842102Y-10462761D02*
G01*
X9854860Y-10468045D01*
X9866341Y-10475717D01*
X9876106Y-10485481D01*
X9883777Y-10496962D01*
X9889061Y-10509720D01*
X9891755Y-10523263D01*
X9891755Y-10537071D01*
X9889061Y-10550614D01*
X9883777Y-10563372D01*
X9876106Y-10574853D01*
X9866341Y-10584618D01*
X9854860Y-10592289D01*
X9842102Y-10597573D01*
X9828559Y-10600267D01*
X9814751Y-10600267D01*
X9801208Y-10597573D01*
X9788450Y-10592289D01*
X9776969Y-10584618D01*
X9767205Y-10574853D01*
X9759533Y-10563372D01*
X9754249Y-10550614D01*
X9751555Y-10537071D01*
X9751555Y-10523263D01*
X9754249Y-10509720D01*
X9759533Y-10496962D01*
X9767205Y-10485481D01*
X9776969Y-10475717D01*
X9788450Y-10468045D01*
X9801208Y-10462761D01*
X9814751Y-10460067D01*
X9828559Y-10460067D01*
X9842102Y-10462761D01*
X9842102Y-10462761D01*
G37*
G36*
X15694895Y-10326128D02*
G01*
X15707653Y-10331412D01*
X15719134Y-10339084D01*
X15728898Y-10348848D01*
X15736570Y-10360329D01*
X15741854Y-10373087D01*
X15744548Y-10386630D01*
X15744548Y-10400438D01*
X15741854Y-10413981D01*
X15736570Y-10426739D01*
X15728898Y-10438220D01*
X15719134Y-10447985D01*
X15707653Y-10455656D01*
X15694895Y-10460940D01*
X15681352Y-10463634D01*
X15667544Y-10463634D01*
X15654001Y-10460940D01*
X15641243Y-10455656D01*
X15629762Y-10447985D01*
X15619997Y-10438220D01*
X15612326Y-10426739D01*
X15607042Y-10413981D01*
X15604348Y-10400438D01*
X15604348Y-10386630D01*
X15607042Y-10373087D01*
X15612326Y-10360329D01*
X15619997Y-10348848D01*
X15629762Y-10339084D01*
X15641243Y-10331412D01*
X15654001Y-10326128D01*
X15667544Y-10323434D01*
X15681352Y-10323434D01*
X15694895Y-10326128D01*
X15694895Y-10326128D01*
G37*
G36*
X14669895Y-10308128D02*
G01*
X14682653Y-10313412D01*
X14694134Y-10321084D01*
X14703898Y-10330848D01*
X14711570Y-10342329D01*
X14716854Y-10355087D01*
X14719548Y-10368630D01*
X14719548Y-10382438D01*
X14716854Y-10395981D01*
X14711570Y-10408739D01*
X14703898Y-10420220D01*
X14694134Y-10429985D01*
X14682653Y-10437656D01*
X14669895Y-10442940D01*
X14656352Y-10445634D01*
X14642544Y-10445634D01*
X14629001Y-10442940D01*
X14616243Y-10437656D01*
X14604762Y-10429985D01*
X14594997Y-10420220D01*
X14587326Y-10408739D01*
X14582042Y-10395981D01*
X14579348Y-10382438D01*
X14579348Y-10368630D01*
X14582042Y-10355087D01*
X14587326Y-10342329D01*
X14594997Y-10330848D01*
X14604762Y-10321084D01*
X14616243Y-10313412D01*
X14629001Y-10308128D01*
X14642544Y-10305434D01*
X14656352Y-10305434D01*
X14669895Y-10308128D01*
X14669895Y-10308128D01*
G37*
G36*
X16707895Y-10303128D02*
G01*
X16720653Y-10308412D01*
X16732134Y-10316084D01*
X16741898Y-10325848D01*
X16749570Y-10337329D01*
X16754854Y-10350087D01*
X16757548Y-10363630D01*
X16757548Y-10377438D01*
X16754854Y-10390981D01*
X16749570Y-10403739D01*
X16741898Y-10415220D01*
X16732134Y-10424985D01*
X16720653Y-10432656D01*
X16707895Y-10437940D01*
X16694352Y-10440634D01*
X16680544Y-10440634D01*
X16667001Y-10437940D01*
X16654243Y-10432656D01*
X16642762Y-10424985D01*
X16632997Y-10415220D01*
X16625326Y-10403739D01*
X16620042Y-10390981D01*
X16617348Y-10377438D01*
X16617348Y-10363630D01*
X16620042Y-10350087D01*
X16625326Y-10337329D01*
X16632997Y-10325848D01*
X16642762Y-10316084D01*
X16654243Y-10308412D01*
X16667001Y-10303128D01*
X16680544Y-10300434D01*
X16694352Y-10300434D01*
X16707895Y-10303128D01*
X16707895Y-10303128D01*
G37*
G36*
X14929895Y-10303128D02*
G01*
X14942653Y-10308412D01*
X14954134Y-10316084D01*
X14963898Y-10325848D01*
X14971570Y-10337329D01*
X14976854Y-10350087D01*
X14979548Y-10363630D01*
X14979548Y-10377438D01*
X14976854Y-10390981D01*
X14971570Y-10403739D01*
X14963898Y-10415220D01*
X14954134Y-10424985D01*
X14942653Y-10432656D01*
X14929895Y-10437940D01*
X14916352Y-10440634D01*
X14902544Y-10440634D01*
X14889001Y-10437940D01*
X14876243Y-10432656D01*
X14864762Y-10424985D01*
X14854997Y-10415220D01*
X14847326Y-10403739D01*
X14842042Y-10390981D01*
X14839348Y-10377438D01*
X14839348Y-10363630D01*
X14842042Y-10350087D01*
X14847326Y-10337329D01*
X14854997Y-10325848D01*
X14864762Y-10316084D01*
X14876243Y-10308412D01*
X14889001Y-10303128D01*
X14902544Y-10300434D01*
X14916352Y-10300434D01*
X14929895Y-10303128D01*
X14929895Y-10303128D01*
G37*
G36*
X16453895Y-10303128D02*
G01*
X16466653Y-10308412D01*
X16478134Y-10316084D01*
X16487898Y-10325848D01*
X16495570Y-10337329D01*
X16500854Y-10350087D01*
X16503548Y-10363630D01*
X16503548Y-10377438D01*
X16500854Y-10390981D01*
X16495570Y-10403739D01*
X16487898Y-10415220D01*
X16478134Y-10424985D01*
X16466653Y-10432656D01*
X16453895Y-10437940D01*
X16440352Y-10440634D01*
X16426544Y-10440634D01*
X16413001Y-10437940D01*
X16400243Y-10432656D01*
X16388762Y-10424985D01*
X16378997Y-10415220D01*
X16371326Y-10403739D01*
X16366042Y-10390981D01*
X16363348Y-10377438D01*
X16363348Y-10363630D01*
X16366042Y-10350087D01*
X16371326Y-10337329D01*
X16378997Y-10325848D01*
X16388762Y-10316084D01*
X16400243Y-10308412D01*
X16413001Y-10303128D01*
X16426544Y-10300434D01*
X16440352Y-10300434D01*
X16453895Y-10303128D01*
X16453895Y-10303128D01*
G37*
G36*
X15945895Y-10303128D02*
G01*
X15958653Y-10308412D01*
X15970134Y-10316084D01*
X15979898Y-10325848D01*
X15987570Y-10337329D01*
X15992854Y-10350087D01*
X15995548Y-10363630D01*
X15995548Y-10377438D01*
X15992854Y-10390981D01*
X15987570Y-10403739D01*
X15979898Y-10415220D01*
X15970134Y-10424985D01*
X15958653Y-10432656D01*
X15945895Y-10437940D01*
X15932352Y-10440634D01*
X15918544Y-10440634D01*
X15905001Y-10437940D01*
X15892243Y-10432656D01*
X15880762Y-10424985D01*
X15870997Y-10415220D01*
X15863326Y-10403739D01*
X15858042Y-10390981D01*
X15855348Y-10377438D01*
X15855348Y-10363630D01*
X15858042Y-10350087D01*
X15863326Y-10337329D01*
X15870997Y-10325848D01*
X15880762Y-10316084D01*
X15892243Y-10308412D01*
X15905001Y-10303128D01*
X15918544Y-10300434D01*
X15932352Y-10300434D01*
X15945895Y-10303128D01*
X15945895Y-10303128D01*
G37*
G36*
X15437895Y-10303128D02*
G01*
X15450653Y-10308412D01*
X15462134Y-10316084D01*
X15471898Y-10325848D01*
X15479570Y-10337329D01*
X15484854Y-10350087D01*
X15487548Y-10363630D01*
X15487548Y-10377438D01*
X15484854Y-10390981D01*
X15479570Y-10403739D01*
X15471898Y-10415220D01*
X15462134Y-10424985D01*
X15450653Y-10432656D01*
X15437895Y-10437940D01*
X15424352Y-10440634D01*
X15410544Y-10440634D01*
X15397001Y-10437940D01*
X15384243Y-10432656D01*
X15372762Y-10424985D01*
X15362997Y-10415220D01*
X15355326Y-10403739D01*
X15350042Y-10390981D01*
X15347348Y-10377438D01*
X15347348Y-10363630D01*
X15350042Y-10350087D01*
X15355326Y-10337329D01*
X15362997Y-10325848D01*
X15372762Y-10316084D01*
X15384243Y-10308412D01*
X15397001Y-10303128D01*
X15410544Y-10300434D01*
X15424352Y-10300434D01*
X15437895Y-10303128D01*
X15437895Y-10303128D01*
G37*
G36*
X12377102Y-10210761D02*
G01*
X12389860Y-10216045D01*
X12401341Y-10223717D01*
X12411105Y-10233481D01*
X12418777Y-10244962D01*
X12424061Y-10257720D01*
X12426755Y-10271263D01*
X12426755Y-10285071D01*
X12424061Y-10298614D01*
X12418777Y-10311372D01*
X12411105Y-10322853D01*
X12401341Y-10332618D01*
X12389860Y-10340289D01*
X12377102Y-10345573D01*
X12363559Y-10348267D01*
X12349751Y-10348267D01*
X12336208Y-10345573D01*
X12323450Y-10340289D01*
X12311969Y-10332618D01*
X12302204Y-10322853D01*
X12294533Y-10311372D01*
X12289249Y-10298614D01*
X12286555Y-10285071D01*
X12286555Y-10271263D01*
X12289249Y-10257720D01*
X12294533Y-10244962D01*
X12302204Y-10233481D01*
X12311969Y-10223717D01*
X12323450Y-10216045D01*
X12336208Y-10210761D01*
X12349751Y-10208067D01*
X12363559Y-10208067D01*
X12377102Y-10210761D01*
X12377102Y-10210761D01*
G37*
G36*
X9837102Y-10210761D02*
G01*
X9849860Y-10216045D01*
X9861341Y-10223717D01*
X9871106Y-10233481D01*
X9878777Y-10244962D01*
X9884061Y-10257720D01*
X9886755Y-10271263D01*
X9886755Y-10285071D01*
X9884061Y-10298614D01*
X9878777Y-10311372D01*
X9871106Y-10322853D01*
X9861341Y-10332618D01*
X9849860Y-10340289D01*
X9837102Y-10345573D01*
X9823559Y-10348267D01*
X9809751Y-10348267D01*
X9796208Y-10345573D01*
X9783450Y-10340289D01*
X9771969Y-10332618D01*
X9762205Y-10322853D01*
X9754533Y-10311372D01*
X9749249Y-10298614D01*
X9746555Y-10285071D01*
X9746555Y-10271263D01*
X9749249Y-10257720D01*
X9754533Y-10244962D01*
X9762205Y-10233481D01*
X9771969Y-10223717D01*
X9783450Y-10216045D01*
X9796208Y-10210761D01*
X9809751Y-10208067D01*
X9823559Y-10208067D01*
X9837102Y-10210761D01*
X9837102Y-10210761D01*
G37*
G36*
X12631102Y-10210761D02*
G01*
X12643860Y-10216045D01*
X12655341Y-10223717D01*
X12665105Y-10233481D01*
X12672777Y-10244962D01*
X12678061Y-10257720D01*
X12680755Y-10271263D01*
X12680755Y-10285071D01*
X12678061Y-10298614D01*
X12672777Y-10311372D01*
X12665105Y-10322853D01*
X12655341Y-10332618D01*
X12643860Y-10340289D01*
X12631102Y-10345573D01*
X12617559Y-10348267D01*
X12603751Y-10348267D01*
X12590208Y-10345573D01*
X12577450Y-10340289D01*
X12565969Y-10332618D01*
X12556204Y-10322853D01*
X12548533Y-10311372D01*
X12543249Y-10298614D01*
X12540555Y-10285071D01*
X12540555Y-10271263D01*
X12543249Y-10257720D01*
X12548533Y-10244962D01*
X12556204Y-10233481D01*
X12565969Y-10223717D01*
X12577450Y-10216045D01*
X12590208Y-10210761D01*
X12603751Y-10208067D01*
X12617559Y-10208067D01*
X12631102Y-10210761D01*
X12631102Y-10210761D01*
G37*
G36*
X12146102Y-10207761D02*
G01*
X12158860Y-10213045D01*
X12170341Y-10220717D01*
X12180105Y-10230481D01*
X12187777Y-10241962D01*
X12193061Y-10254720D01*
X12195755Y-10268263D01*
X12195755Y-10282071D01*
X12193061Y-10295614D01*
X12187777Y-10308372D01*
X12180105Y-10319853D01*
X12170341Y-10329618D01*
X12158860Y-10337289D01*
X12146102Y-10342573D01*
X12132559Y-10345267D01*
X12118751Y-10345267D01*
X12105208Y-10342573D01*
X12092450Y-10337289D01*
X12080969Y-10329618D01*
X12071204Y-10319853D01*
X12063533Y-10308372D01*
X12058249Y-10295614D01*
X12055555Y-10282071D01*
X12055555Y-10268263D01*
X12058249Y-10254720D01*
X12063533Y-10241962D01*
X12071204Y-10230481D01*
X12080969Y-10220717D01*
X12092450Y-10213045D01*
X12105208Y-10207761D01*
X12118751Y-10205067D01*
X12132559Y-10205067D01*
X12146102Y-10207761D01*
X12146102Y-10207761D01*
G37*
G36*
X15945895Y-10054128D02*
G01*
X15958653Y-10059412D01*
X15970134Y-10067084D01*
X15979898Y-10076848D01*
X15987570Y-10088329D01*
X15992854Y-10101087D01*
X15995548Y-10114630D01*
X15995548Y-10128438D01*
X15992854Y-10141981D01*
X15987570Y-10154739D01*
X15979898Y-10166220D01*
X15970134Y-10175985D01*
X15958653Y-10183656D01*
X15945895Y-10188940D01*
X15932352Y-10191634D01*
X15918544Y-10191634D01*
X15905001Y-10188940D01*
X15892243Y-10183656D01*
X15880762Y-10175985D01*
X15870997Y-10166220D01*
X15863326Y-10154739D01*
X15858042Y-10141981D01*
X15855348Y-10128438D01*
X15855348Y-10114630D01*
X15858042Y-10101087D01*
X15863326Y-10088329D01*
X15870997Y-10076848D01*
X15880762Y-10067084D01*
X15892243Y-10059412D01*
X15905001Y-10054128D01*
X15918544Y-10051434D01*
X15932352Y-10051434D01*
X15945895Y-10054128D01*
X15945895Y-10054128D01*
G37*
G36*
X14669895Y-10054128D02*
G01*
X14682653Y-10059412D01*
X14694134Y-10067084D01*
X14703898Y-10076848D01*
X14711570Y-10088329D01*
X14716854Y-10101087D01*
X14719548Y-10114630D01*
X14719548Y-10128438D01*
X14716854Y-10141981D01*
X14711570Y-10154739D01*
X14703898Y-10166220D01*
X14694134Y-10175985D01*
X14682653Y-10183656D01*
X14669895Y-10188940D01*
X14656352Y-10191634D01*
X14642544Y-10191634D01*
X14629001Y-10188940D01*
X14616243Y-10183656D01*
X14604762Y-10175985D01*
X14594997Y-10166220D01*
X14587326Y-10154739D01*
X14582042Y-10141981D01*
X14579348Y-10128438D01*
X14579348Y-10114630D01*
X14582042Y-10101087D01*
X14587326Y-10088329D01*
X14594997Y-10076848D01*
X14604762Y-10067084D01*
X14616243Y-10059412D01*
X14629001Y-10054128D01*
X14642544Y-10051434D01*
X14656352Y-10051434D01*
X14669895Y-10054128D01*
X14669895Y-10054128D01*
G37*
G36*
X16447895Y-10054128D02*
G01*
X16460653Y-10059412D01*
X16472134Y-10067084D01*
X16481898Y-10076848D01*
X16489570Y-10088329D01*
X16494854Y-10101087D01*
X16497548Y-10114630D01*
X16497548Y-10128438D01*
X16494854Y-10141981D01*
X16489570Y-10154739D01*
X16481898Y-10166220D01*
X16472134Y-10175985D01*
X16460653Y-10183656D01*
X16447895Y-10188940D01*
X16434352Y-10191634D01*
X16420544Y-10191634D01*
X16407001Y-10188940D01*
X16394243Y-10183656D01*
X16382762Y-10175985D01*
X16372997Y-10166220D01*
X16365326Y-10154739D01*
X16360042Y-10141981D01*
X16357348Y-10128438D01*
X16357348Y-10114630D01*
X16360042Y-10101087D01*
X16365326Y-10088329D01*
X16372997Y-10076848D01*
X16382762Y-10067084D01*
X16394243Y-10059412D01*
X16407001Y-10054128D01*
X16420544Y-10051434D01*
X16434352Y-10051434D01*
X16447895Y-10054128D01*
X16447895Y-10054128D01*
G37*
G36*
X14923895Y-10054128D02*
G01*
X14936653Y-10059412D01*
X14948134Y-10067084D01*
X14957898Y-10076848D01*
X14965570Y-10088329D01*
X14970854Y-10101087D01*
X14973548Y-10114630D01*
X14973548Y-10128438D01*
X14970854Y-10141981D01*
X14965570Y-10154739D01*
X14957898Y-10166220D01*
X14948134Y-10175985D01*
X14936653Y-10183656D01*
X14923895Y-10188940D01*
X14910352Y-10191634D01*
X14896544Y-10191634D01*
X14883001Y-10188940D01*
X14870243Y-10183656D01*
X14858762Y-10175985D01*
X14848997Y-10166220D01*
X14841326Y-10154739D01*
X14836042Y-10141981D01*
X14833348Y-10128438D01*
X14833348Y-10114630D01*
X14836042Y-10101087D01*
X14841326Y-10088329D01*
X14848997Y-10076848D01*
X14858762Y-10067084D01*
X14870243Y-10059412D01*
X14883001Y-10054128D01*
X14896544Y-10051434D01*
X14910352Y-10051434D01*
X14923895Y-10054128D01*
X14923895Y-10054128D01*
G37*
G36*
X16707895Y-10049128D02*
G01*
X16720653Y-10054412D01*
X16732134Y-10062084D01*
X16741898Y-10071848D01*
X16749570Y-10083329D01*
X16754854Y-10096087D01*
X16757548Y-10109630D01*
X16757548Y-10123438D01*
X16754854Y-10136981D01*
X16749570Y-10149739D01*
X16741898Y-10161220D01*
X16732134Y-10170985D01*
X16720653Y-10178656D01*
X16707895Y-10183940D01*
X16694352Y-10186634D01*
X16680544Y-10186634D01*
X16667001Y-10183940D01*
X16654243Y-10178656D01*
X16642762Y-10170985D01*
X16632997Y-10161220D01*
X16625326Y-10149739D01*
X16620042Y-10136981D01*
X16617348Y-10123438D01*
X16617348Y-10109630D01*
X16620042Y-10096087D01*
X16625326Y-10083329D01*
X16632997Y-10071848D01*
X16642762Y-10062084D01*
X16654243Y-10054412D01*
X16667001Y-10049128D01*
X16680544Y-10046434D01*
X16694352Y-10046434D01*
X16707895Y-10049128D01*
X16707895Y-10049128D01*
G37*
G36*
X15437895Y-10049128D02*
G01*
X15450653Y-10054412D01*
X15462134Y-10062084D01*
X15471898Y-10071848D01*
X15479570Y-10083329D01*
X15484854Y-10096087D01*
X15487548Y-10109630D01*
X15487548Y-10123438D01*
X15484854Y-10136981D01*
X15479570Y-10149739D01*
X15471898Y-10161220D01*
X15462134Y-10170985D01*
X15450653Y-10178656D01*
X15437895Y-10183940D01*
X15424352Y-10186634D01*
X15410544Y-10186634D01*
X15397001Y-10183940D01*
X15384243Y-10178656D01*
X15372762Y-10170985D01*
X15362997Y-10161220D01*
X15355326Y-10149739D01*
X15350042Y-10136981D01*
X15347348Y-10123438D01*
X15347348Y-10109630D01*
X15350042Y-10096087D01*
X15355326Y-10083329D01*
X15362997Y-10071848D01*
X15372762Y-10062084D01*
X15384243Y-10054412D01*
X15397001Y-10049128D01*
X15410544Y-10046434D01*
X15424352Y-10046434D01*
X15437895Y-10049128D01*
X15437895Y-10049128D01*
G37*
G36*
X9842102Y-9962761D02*
G01*
X9854860Y-9968045D01*
X9866341Y-9975717D01*
X9876106Y-9985481D01*
X9883777Y-9996962D01*
X9889061Y-10009720D01*
X9891755Y-10023263D01*
X9891755Y-10037071D01*
X9889061Y-10050614D01*
X9883777Y-10063372D01*
X9876106Y-10074853D01*
X9866341Y-10084618D01*
X9854860Y-10092289D01*
X9842102Y-10097573D01*
X9828559Y-10100267D01*
X9814751Y-10100267D01*
X9801208Y-10097573D01*
X9788450Y-10092289D01*
X9776969Y-10084618D01*
X9767205Y-10074853D01*
X9759533Y-10063372D01*
X9754249Y-10050614D01*
X9751555Y-10037071D01*
X9751555Y-10023263D01*
X9754249Y-10009720D01*
X9759533Y-9996962D01*
X9767205Y-9985481D01*
X9776969Y-9975717D01*
X9788450Y-9968045D01*
X9801208Y-9962761D01*
X9814751Y-9960067D01*
X9828559Y-9960067D01*
X9842102Y-9962761D01*
X9842102Y-9962761D01*
G37*
G36*
X12636102Y-9962761D02*
G01*
X12648860Y-9968045D01*
X12660341Y-9975717D01*
X12670105Y-9985481D01*
X12677777Y-9996962D01*
X12683061Y-10009720D01*
X12685755Y-10023263D01*
X12685755Y-10037071D01*
X12683061Y-10050614D01*
X12677777Y-10063372D01*
X12670105Y-10074853D01*
X12660341Y-10084618D01*
X12648860Y-10092289D01*
X12636102Y-10097573D01*
X12622559Y-10100267D01*
X12608751Y-10100267D01*
X12595208Y-10097573D01*
X12582450Y-10092289D01*
X12570969Y-10084618D01*
X12561204Y-10074853D01*
X12553533Y-10063372D01*
X12548249Y-10050614D01*
X12545555Y-10037071D01*
X12545555Y-10023263D01*
X12548249Y-10009720D01*
X12553533Y-9996962D01*
X12561204Y-9985481D01*
X12570969Y-9975717D01*
X12582450Y-9968045D01*
X12595208Y-9962761D01*
X12608751Y-9960067D01*
X12622559Y-9960067D01*
X12636102Y-9962761D01*
X12636102Y-9962761D01*
G37*
G36*
X12377102Y-9956761D02*
G01*
X12389860Y-9962045D01*
X12401341Y-9969717D01*
X12411105Y-9979481D01*
X12418777Y-9990962D01*
X12424061Y-10003720D01*
X12426755Y-10017263D01*
X12426755Y-10031071D01*
X12424061Y-10044614D01*
X12418777Y-10057372D01*
X12411105Y-10068853D01*
X12401341Y-10078618D01*
X12389860Y-10086289D01*
X12377102Y-10091573D01*
X12363559Y-10094267D01*
X12349751Y-10094267D01*
X12336208Y-10091573D01*
X12323450Y-10086289D01*
X12311969Y-10078618D01*
X12302204Y-10068853D01*
X12294533Y-10057372D01*
X12289249Y-10044614D01*
X12286555Y-10031071D01*
X12286555Y-10017263D01*
X12289249Y-10003720D01*
X12294533Y-9990962D01*
X12302204Y-9979481D01*
X12311969Y-9969717D01*
X12323450Y-9962045D01*
X12336208Y-9956761D01*
X12349751Y-9954067D01*
X12363559Y-9954067D01*
X12377102Y-9956761D01*
X12377102Y-9956761D01*
G37*
G36*
X11874102Y-9956761D02*
G01*
X11886860Y-9962045D01*
X11898341Y-9969717D01*
X11908105Y-9979481D01*
X11915777Y-9990962D01*
X11921061Y-10003720D01*
X11923755Y-10017263D01*
X11923755Y-10031071D01*
X11921061Y-10044614D01*
X11915777Y-10057372D01*
X11908105Y-10068853D01*
X11898341Y-10078618D01*
X11886860Y-10086289D01*
X11874102Y-10091573D01*
X11860559Y-10094267D01*
X11846751Y-10094267D01*
X11833208Y-10091573D01*
X11820450Y-10086289D01*
X11808969Y-10078618D01*
X11799204Y-10068853D01*
X11791533Y-10057372D01*
X11786249Y-10044614D01*
X11783555Y-10031071D01*
X11783555Y-10017263D01*
X11786249Y-10003720D01*
X11791533Y-9990962D01*
X11799204Y-9979481D01*
X11808969Y-9969717D01*
X11820450Y-9962045D01*
X11833208Y-9956761D01*
X11846751Y-9954067D01*
X11860559Y-9954067D01*
X11874102Y-9956761D01*
X11874102Y-9956761D01*
G37*
G36*
X12123102Y-9956761D02*
G01*
X12135860Y-9962045D01*
X12147341Y-9969717D01*
X12157105Y-9979481D01*
X12164777Y-9990962D01*
X12170061Y-10003720D01*
X12172755Y-10017263D01*
X12172755Y-10031071D01*
X12170061Y-10044614D01*
X12164777Y-10057372D01*
X12157105Y-10068853D01*
X12147341Y-10078618D01*
X12135860Y-10086289D01*
X12123102Y-10091573D01*
X12109559Y-10094267D01*
X12095751Y-10094267D01*
X12082208Y-10091573D01*
X12069450Y-10086289D01*
X12057969Y-10078618D01*
X12048204Y-10068853D01*
X12040533Y-10057372D01*
X12035249Y-10044614D01*
X12032555Y-10031071D01*
X12032555Y-10017263D01*
X12035249Y-10003720D01*
X12040533Y-9990962D01*
X12048204Y-9979481D01*
X12057969Y-9969717D01*
X12069450Y-9962045D01*
X12082208Y-9956761D01*
X12095751Y-9954067D01*
X12109559Y-9954067D01*
X12123102Y-9956761D01*
X12123102Y-9956761D01*
G37*
G36*
X9837102Y-9702761D02*
G01*
X9849860Y-9708045D01*
X9861341Y-9715717D01*
X9871106Y-9725481D01*
X9878777Y-9736962D01*
X9884061Y-9749720D01*
X9886755Y-9763263D01*
X9886755Y-9777071D01*
X9884061Y-9790614D01*
X9878777Y-9803372D01*
X9871106Y-9814853D01*
X9861341Y-9824618D01*
X9849860Y-9832289D01*
X9837102Y-9837573D01*
X9823559Y-9840267D01*
X9809751Y-9840267D01*
X9796208Y-9837573D01*
X9783450Y-9832289D01*
X9771969Y-9824618D01*
X9762205Y-9814853D01*
X9754533Y-9803372D01*
X9749249Y-9790614D01*
X9746555Y-9777071D01*
X9746555Y-9763263D01*
X9749249Y-9749720D01*
X9754533Y-9736962D01*
X9762205Y-9725481D01*
X9771969Y-9715717D01*
X9783450Y-9708045D01*
X9796208Y-9702761D01*
X9809751Y-9700067D01*
X9823559Y-9700067D01*
X9837102Y-9702761D01*
X9837102Y-9702761D01*
G37*
G36*
X9842102Y-9462761D02*
G01*
X9854860Y-9468045D01*
X9866341Y-9475717D01*
X9876106Y-9485481D01*
X9883777Y-9496962D01*
X9889061Y-9509720D01*
X9891755Y-9523263D01*
X9891755Y-9537071D01*
X9889061Y-9550614D01*
X9883777Y-9563372D01*
X9876106Y-9574853D01*
X9866341Y-9584618D01*
X9854860Y-9592289D01*
X9842102Y-9597573D01*
X9828559Y-9600267D01*
X9814751Y-9600267D01*
X9801208Y-9597573D01*
X9788450Y-9592289D01*
X9776969Y-9584618D01*
X9767205Y-9574853D01*
X9759533Y-9563372D01*
X9754249Y-9550614D01*
X9751555Y-9537071D01*
X9751555Y-9523263D01*
X9754249Y-9509720D01*
X9759533Y-9496962D01*
X9767205Y-9485481D01*
X9776969Y-9475717D01*
X9788450Y-9468045D01*
X9801208Y-9462761D01*
X9814751Y-9460067D01*
X9828559Y-9460067D01*
X9842102Y-9462761D01*
X9842102Y-9462761D01*
G37*
G36*
X11874102Y-9454761D02*
G01*
X11886860Y-9460045D01*
X11898341Y-9467717D01*
X11908105Y-9477481D01*
X11915777Y-9488962D01*
X11921061Y-9501720D01*
X11923755Y-9515263D01*
X11923755Y-9529071D01*
X11921061Y-9542614D01*
X11915777Y-9555372D01*
X11908105Y-9566853D01*
X11898341Y-9576618D01*
X11886860Y-9584289D01*
X11874102Y-9589573D01*
X11860559Y-9592267D01*
X11846751Y-9592267D01*
X11833208Y-9589573D01*
X11820450Y-9584289D01*
X11808969Y-9576618D01*
X11799204Y-9566853D01*
X11791533Y-9555372D01*
X11786249Y-9542614D01*
X11783555Y-9529071D01*
X11783555Y-9515263D01*
X11786249Y-9501720D01*
X11791533Y-9488962D01*
X11799204Y-9477481D01*
X11808969Y-9467717D01*
X11820450Y-9460045D01*
X11833208Y-9454761D01*
X11846751Y-9452067D01*
X11860559Y-9452067D01*
X11874102Y-9454761D01*
X11874102Y-9454761D01*
G37*
G36*
X12123102Y-9448761D02*
G01*
X12135860Y-9454045D01*
X12147341Y-9461717D01*
X12157105Y-9471481D01*
X12164777Y-9482962D01*
X12170061Y-9495720D01*
X12172755Y-9509263D01*
X12172755Y-9523071D01*
X12170061Y-9536614D01*
X12164777Y-9549372D01*
X12157105Y-9560853D01*
X12147341Y-9570618D01*
X12135860Y-9578289D01*
X12123102Y-9583573D01*
X12109559Y-9586267D01*
X12095751Y-9586267D01*
X12082208Y-9583573D01*
X12069450Y-9578289D01*
X12057969Y-9570618D01*
X12048204Y-9560853D01*
X12040533Y-9549372D01*
X12035249Y-9536614D01*
X12032555Y-9523071D01*
X12032555Y-9509263D01*
X12035249Y-9495720D01*
X12040533Y-9482962D01*
X12048204Y-9471481D01*
X12057969Y-9461717D01*
X12069450Y-9454045D01*
X12082208Y-9448761D01*
X12095751Y-9446067D01*
X12109559Y-9446067D01*
X12123102Y-9448761D01*
X12123102Y-9448761D01*
G37*
G36*
X12377102Y-9448761D02*
G01*
X12389860Y-9454045D01*
X12401341Y-9461717D01*
X12411105Y-9471481D01*
X12418777Y-9482962D01*
X12424061Y-9495720D01*
X12426755Y-9509263D01*
X12426755Y-9523071D01*
X12424061Y-9536614D01*
X12418777Y-9549372D01*
X12411105Y-9560853D01*
X12401341Y-9570618D01*
X12389860Y-9578289D01*
X12377102Y-9583573D01*
X12363559Y-9586267D01*
X12349751Y-9586267D01*
X12336208Y-9583573D01*
X12323450Y-9578289D01*
X12311969Y-9570618D01*
X12302204Y-9560853D01*
X12294533Y-9549372D01*
X12289249Y-9536614D01*
X12286555Y-9523071D01*
X12286555Y-9509263D01*
X12289249Y-9495720D01*
X12294533Y-9482962D01*
X12302204Y-9471481D01*
X12311969Y-9461717D01*
X12323450Y-9454045D01*
X12336208Y-9448761D01*
X12349751Y-9446067D01*
X12363559Y-9446067D01*
X12377102Y-9448761D01*
X12377102Y-9448761D01*
G37*
G36*
X12123102Y-9194761D02*
G01*
X12135860Y-9200045D01*
X12147341Y-9207717D01*
X12157105Y-9217481D01*
X12164777Y-9228962D01*
X12170061Y-9241720D01*
X12172755Y-9255263D01*
X12172755Y-9269071D01*
X12170061Y-9282614D01*
X12164777Y-9295372D01*
X12157105Y-9306853D01*
X12147341Y-9316618D01*
X12135860Y-9324289D01*
X12123102Y-9329573D01*
X12109559Y-9332267D01*
X12095751Y-9332267D01*
X12082208Y-9329573D01*
X12069450Y-9324289D01*
X12057969Y-9316618D01*
X12048204Y-9306853D01*
X12040533Y-9295372D01*
X12035249Y-9282614D01*
X12032555Y-9269071D01*
X12032555Y-9255263D01*
X12035249Y-9241720D01*
X12040533Y-9228962D01*
X12048204Y-9217481D01*
X12057969Y-9207717D01*
X12069450Y-9200045D01*
X12082208Y-9194761D01*
X12095751Y-9192067D01*
X12109559Y-9192067D01*
X12123102Y-9194761D01*
X12123102Y-9194761D01*
G37*
G36*
X11869102Y-9194761D02*
G01*
X11881860Y-9200045D01*
X11893341Y-9207717D01*
X11903105Y-9217481D01*
X11910777Y-9228962D01*
X11916061Y-9241720D01*
X11918755Y-9255263D01*
X11918755Y-9269071D01*
X11916061Y-9282614D01*
X11910777Y-9295372D01*
X11903105Y-9306853D01*
X11893341Y-9316618D01*
X11881860Y-9324289D01*
X11869102Y-9329573D01*
X11855559Y-9332267D01*
X11841751Y-9332267D01*
X11828208Y-9329573D01*
X11815450Y-9324289D01*
X11803969Y-9316618D01*
X11794204Y-9306853D01*
X11786533Y-9295372D01*
X11781249Y-9282614D01*
X11778555Y-9269071D01*
X11778555Y-9255263D01*
X11781249Y-9241720D01*
X11786533Y-9228962D01*
X11794204Y-9217481D01*
X11803969Y-9207717D01*
X11815450Y-9200045D01*
X11828208Y-9194761D01*
X11841751Y-9192067D01*
X11855559Y-9192067D01*
X11869102Y-9194761D01*
X11869102Y-9194761D01*
G37*
G36*
X14923895Y-8784128D02*
G01*
X14936653Y-8789412D01*
X14948134Y-8797084D01*
X14957898Y-8806848D01*
X14965570Y-8818329D01*
X14970854Y-8831087D01*
X14973548Y-8844630D01*
X14973548Y-8858438D01*
X14970854Y-8871981D01*
X14965570Y-8884739D01*
X14957898Y-8896220D01*
X14948134Y-8905985D01*
X14936653Y-8913656D01*
X14923895Y-8918940D01*
X14910352Y-8921634D01*
X14896544Y-8921634D01*
X14883001Y-8918940D01*
X14870243Y-8913656D01*
X14858762Y-8905985D01*
X14848997Y-8896220D01*
X14841326Y-8884739D01*
X14836042Y-8871981D01*
X14833348Y-8858438D01*
X14833348Y-8844630D01*
X14836042Y-8831087D01*
X14841326Y-8818329D01*
X14848997Y-8806848D01*
X14858762Y-8797084D01*
X14870243Y-8789412D01*
X14883001Y-8784128D01*
X14896544Y-8781434D01*
X14910352Y-8781434D01*
X14923895Y-8784128D01*
X14923895Y-8784128D01*
G37*
G36*
X14669895Y-8784128D02*
G01*
X14682653Y-8789412D01*
X14694134Y-8797084D01*
X14703898Y-8806848D01*
X14711570Y-8818329D01*
X14716854Y-8831087D01*
X14719548Y-8844630D01*
X14719548Y-8858438D01*
X14716854Y-8871981D01*
X14711570Y-8884739D01*
X14703898Y-8896220D01*
X14694134Y-8905985D01*
X14682653Y-8913656D01*
X14669895Y-8918940D01*
X14656352Y-8921634D01*
X14642544Y-8921634D01*
X14629001Y-8918940D01*
X14616243Y-8913656D01*
X14604762Y-8905985D01*
X14594997Y-8896220D01*
X14587326Y-8884739D01*
X14582042Y-8871981D01*
X14579348Y-8858438D01*
X14579348Y-8844630D01*
X14582042Y-8831087D01*
X14587326Y-8818329D01*
X14594997Y-8806848D01*
X14604762Y-8797084D01*
X14616243Y-8789412D01*
X14629001Y-8784128D01*
X14642544Y-8781434D01*
X14656352Y-8781434D01*
X14669895Y-8784128D01*
X14669895Y-8784128D01*
G37*
G36*
X15177895Y-8022128D02*
G01*
X15190653Y-8027412D01*
X15202134Y-8035083D01*
X15211898Y-8044848D01*
X15219570Y-8056329D01*
X15224854Y-8069087D01*
X15227548Y-8082630D01*
X15227548Y-8096438D01*
X15224854Y-8109981D01*
X15219570Y-8122739D01*
X15211898Y-8134220D01*
X15202134Y-8143984D01*
X15190653Y-8151656D01*
X15177895Y-8156940D01*
X15164352Y-8159634D01*
X15150544Y-8159634D01*
X15137001Y-8156940D01*
X15124243Y-8151656D01*
X15112762Y-8143984D01*
X15102997Y-8134220D01*
X15095326Y-8122739D01*
X15090042Y-8109981D01*
X15087348Y-8096438D01*
X15087348Y-8082630D01*
X15090042Y-8069087D01*
X15095326Y-8056329D01*
X15102997Y-8044848D01*
X15112762Y-8035083D01*
X15124243Y-8027412D01*
X15137001Y-8022128D01*
X15150544Y-8019434D01*
X15164352Y-8019434D01*
X15177895Y-8022128D01*
X15177895Y-8022128D01*
G37*
G36*
X15439895Y-8022128D02*
G01*
X15452653Y-8027412D01*
X15464134Y-8035083D01*
X15473898Y-8044848D01*
X15481570Y-8056329D01*
X15486854Y-8069087D01*
X15489548Y-8082630D01*
X15489548Y-8096438D01*
X15486854Y-8109981D01*
X15481570Y-8122739D01*
X15473898Y-8134220D01*
X15464134Y-8143984D01*
X15452653Y-8151656D01*
X15439895Y-8156940D01*
X15426352Y-8159634D01*
X15412544Y-8159634D01*
X15399001Y-8156940D01*
X15386243Y-8151656D01*
X15374762Y-8143984D01*
X15364997Y-8134220D01*
X15357326Y-8122739D01*
X15352042Y-8109981D01*
X15349348Y-8096438D01*
X15349348Y-8082630D01*
X15352042Y-8069087D01*
X15357326Y-8056329D01*
X15364997Y-8044848D01*
X15374762Y-8035083D01*
X15386243Y-8027412D01*
X15399001Y-8022128D01*
X15412544Y-8019434D01*
X15426352Y-8019434D01*
X15439895Y-8022128D01*
X15439895Y-8022128D01*
G37*
G36*
X15939895Y-8022128D02*
G01*
X15952653Y-8027412D01*
X15964134Y-8035083D01*
X15973898Y-8044848D01*
X15981570Y-8056329D01*
X15986854Y-8069087D01*
X15989548Y-8082630D01*
X15989548Y-8096438D01*
X15986854Y-8109981D01*
X15981570Y-8122739D01*
X15973898Y-8134220D01*
X15964134Y-8143984D01*
X15952653Y-8151656D01*
X15939895Y-8156940D01*
X15926352Y-8159634D01*
X15912544Y-8159634D01*
X15899001Y-8156940D01*
X15886243Y-8151656D01*
X15874762Y-8143984D01*
X15864997Y-8134220D01*
X15857326Y-8122739D01*
X15852042Y-8109981D01*
X15849348Y-8096438D01*
X15849348Y-8082630D01*
X15852042Y-8069087D01*
X15857326Y-8056329D01*
X15864997Y-8044848D01*
X15874762Y-8035083D01*
X15886243Y-8027412D01*
X15899001Y-8022128D01*
X15912544Y-8019434D01*
X15926352Y-8019434D01*
X15939895Y-8022128D01*
X15939895Y-8022128D01*
G37*
G36*
X16439895Y-8022128D02*
G01*
X16452653Y-8027412D01*
X16464134Y-8035083D01*
X16473898Y-8044848D01*
X16481570Y-8056329D01*
X16486854Y-8069087D01*
X16489548Y-8082630D01*
X16489548Y-8096438D01*
X16486854Y-8109981D01*
X16481570Y-8122739D01*
X16473898Y-8134220D01*
X16464134Y-8143984D01*
X16452653Y-8151656D01*
X16439895Y-8156940D01*
X16426352Y-8159634D01*
X16412544Y-8159634D01*
X16399001Y-8156940D01*
X16386243Y-8151656D01*
X16374762Y-8143984D01*
X16364997Y-8134220D01*
X16357326Y-8122739D01*
X16352042Y-8109981D01*
X16349348Y-8096438D01*
X16349348Y-8082630D01*
X16352042Y-8069087D01*
X16357326Y-8056329D01*
X16364997Y-8044848D01*
X16374762Y-8035083D01*
X16386243Y-8027412D01*
X16399001Y-8022128D01*
X16412544Y-8019434D01*
X16426352Y-8019434D01*
X16439895Y-8022128D01*
X16439895Y-8022128D01*
G37*
G36*
X14923895Y-8022128D02*
G01*
X14936653Y-8027412D01*
X14948134Y-8035083D01*
X14957898Y-8044848D01*
X14965570Y-8056329D01*
X14970854Y-8069087D01*
X14973548Y-8082630D01*
X14973548Y-8096438D01*
X14970854Y-8109981D01*
X14965570Y-8122739D01*
X14957898Y-8134220D01*
X14948134Y-8143984D01*
X14936653Y-8151656D01*
X14923895Y-8156940D01*
X14910352Y-8159634D01*
X14896544Y-8159634D01*
X14883001Y-8156940D01*
X14870243Y-8151656D01*
X14858762Y-8143984D01*
X14848997Y-8134220D01*
X14841326Y-8122739D01*
X14836042Y-8109981D01*
X14833348Y-8096438D01*
X14833348Y-8082630D01*
X14836042Y-8069087D01*
X14841326Y-8056329D01*
X14848997Y-8044848D01*
X14858762Y-8035083D01*
X14870243Y-8027412D01*
X14883001Y-8022128D01*
X14896544Y-8019434D01*
X14910352Y-8019434D01*
X14923895Y-8022128D01*
X14923895Y-8022128D01*
G37*
G36*
X16199895Y-8017128D02*
G01*
X16212653Y-8022412D01*
X16224134Y-8030083D01*
X16233898Y-8039848D01*
X16241570Y-8051329D01*
X16246854Y-8064087D01*
X16249548Y-8077630D01*
X16249548Y-8091438D01*
X16246854Y-8104981D01*
X16241570Y-8117739D01*
X16233898Y-8129220D01*
X16224134Y-8138984D01*
X16212653Y-8146656D01*
X16199895Y-8151940D01*
X16186352Y-8154634D01*
X16172544Y-8154634D01*
X16159001Y-8151940D01*
X16146243Y-8146656D01*
X16134762Y-8138984D01*
X16124997Y-8129220D01*
X16117326Y-8117739D01*
X16112042Y-8104981D01*
X16109348Y-8091438D01*
X16109348Y-8077630D01*
X16112042Y-8064087D01*
X16117326Y-8051329D01*
X16124997Y-8039848D01*
X16134762Y-8030083D01*
X16146243Y-8022412D01*
X16159001Y-8017128D01*
X16172544Y-8014434D01*
X16186352Y-8014434D01*
X16199895Y-8017128D01*
X16199895Y-8017128D01*
G37*
G36*
X15691895Y-8017128D02*
G01*
X15704653Y-8022412D01*
X15716134Y-8030083D01*
X15725898Y-8039848D01*
X15733570Y-8051329D01*
X15738854Y-8064087D01*
X15741548Y-8077630D01*
X15741548Y-8091438D01*
X15738854Y-8104981D01*
X15733570Y-8117739D01*
X15725898Y-8129220D01*
X15716134Y-8138984D01*
X15704653Y-8146656D01*
X15691895Y-8151940D01*
X15678352Y-8154634D01*
X15664544Y-8154634D01*
X15651001Y-8151940D01*
X15638243Y-8146656D01*
X15626762Y-8138984D01*
X15616997Y-8129220D01*
X15609326Y-8117739D01*
X15604042Y-8104981D01*
X15601348Y-8091438D01*
X15601348Y-8077630D01*
X15604042Y-8064087D01*
X15609326Y-8051329D01*
X15616997Y-8039848D01*
X15626762Y-8030083D01*
X15638243Y-8022412D01*
X15651001Y-8017128D01*
X15664544Y-8014434D01*
X15678352Y-8014434D01*
X15691895Y-8017128D01*
X15691895Y-8017128D01*
G37*
M02*
