%TF.GenerationSoftware,KiCad,Pcbnew,5.1.3-ffb9f22~84~ubuntu18.04.1*%
%TF.CreationDate,2019-07-26T16:35:47+03:00*%
%TF.ProjectId,Des1_2_panel,44657331-5f32-45f7-9061-6e656c2e6b69,rev?*%
%TF.SameCoordinates,Original*%
%TF.FileFunction,Legend,Bot*%
%TF.FilePolarity,Positive*%
%FSLAX45Y45*%
G04 Gerber Fmt 4.5, Leading zero omitted, Abs format (unit mm)*
G04 Created by KiCad (PCBNEW 5.1.3-ffb9f22~84~ubuntu18.04.1) date 2019-07-26 16:35:47*
%MOMM*%
%LPD*%
G04 APERTURE LIST*
%ADD10C,1.402000*%
G04 APERTURE END LIST*
%LPC*%
D10*
%TO.C,U28*%
X14655448Y-10878534D03*
%TD*%
%TO.C,U29*%
X14649448Y-10121534D03*
%TD*%
%TO.C,U30*%
X14903448Y-10629534D03*
%TD*%
%TO.C,U7*%
X9821655Y-11046167D03*
%TD*%
%TO.C,U9*%
X12610655Y-11040167D03*
%TD*%
%TO.C,U10*%
X12356655Y-9516167D03*
%TD*%
%TO.C,U11*%
X12102655Y-10532167D03*
%TD*%
%TO.C,U25*%
X14655448Y-10624534D03*
%TD*%
%TO.C,U18*%
X15674448Y-10393534D03*
%TD*%
%TO.C,U21*%
X14909448Y-10370534D03*
%TD*%
%TO.C,U1*%
X16419448Y-8089534D03*
%TD*%
%TO.C,U2*%
X15419448Y-8089534D03*
%TD*%
%TO.C,U3*%
X16179448Y-8084534D03*
%TD*%
%TO.C,U102*%
X15925448Y-10121534D03*
%TD*%
%TO.C,U8*%
X10583655Y-11046167D03*
%TD*%
%TO.C,U23*%
X15919448Y-10883534D03*
%TD*%
%TO.C,U24*%
X14903448Y-11137534D03*
%TD*%
%TO.C,U27*%
X15671448Y-10878534D03*
%TD*%
%TO.C,U13*%
X15925448Y-10624534D03*
%TD*%
%TO.C,U9*%
X14909448Y-10878534D03*
%TD*%
%TO.C,U26*%
X14649448Y-8851534D03*
%TD*%
%TO.C,U16*%
X12102655Y-9516167D03*
%TD*%
%TO.C,U17*%
X12356655Y-10532167D03*
%TD*%
%TO.C,U18*%
X12125655Y-10275167D03*
%TD*%
%TO.C,U21*%
X12102655Y-11040167D03*
%TD*%
%TO.C,U102*%
X12102655Y-10024167D03*
%TD*%
%TO.C,U23*%
X12615655Y-10030167D03*
%TD*%
%TO.C,U8*%
X14903448Y-8851534D03*
%TD*%
%TO.C,U20*%
X12356655Y-10278167D03*
%TD*%
%TO.C,U25*%
X12356655Y-11294167D03*
%TD*%
%TO.C,U7*%
X14903448Y-8089534D03*
%TD*%
%TO.C,U10*%
X16433448Y-10624534D03*
%TD*%
%TO.C,U11*%
X15417448Y-10370534D03*
%TD*%
%TO.C,U14*%
X15417448Y-10116534D03*
%TD*%
%TO.C,U1*%
X9821655Y-9530167D03*
%TD*%
%TO.C,U2*%
X9821655Y-10530167D03*
%TD*%
%TO.C,U3*%
X9816655Y-9770167D03*
%TD*%
%TO.C,U19*%
X11853655Y-9522167D03*
%TD*%
%TO.C,U4*%
X9821655Y-10030167D03*
%TD*%
%TO.C,U5*%
X9821655Y-10792167D03*
%TD*%
%TO.C,U6*%
X9816655Y-10278167D03*
%TD*%
%TO.C,U15*%
X16687448Y-10116534D03*
%TD*%
%TO.C,U16*%
X16433448Y-10370534D03*
%TD*%
%TO.C,U17*%
X15417448Y-10624534D03*
%TD*%
%TO.C,U4*%
X15919448Y-8089534D03*
%TD*%
%TO.C,U5*%
X15157448Y-8089534D03*
%TD*%
%TO.C,U6*%
X15671448Y-8084534D03*
%TD*%
%TO.C,U32*%
X14649448Y-10375534D03*
%TD*%
%TO.C,U29*%
X11853655Y-11300167D03*
%TD*%
%TO.C,U30*%
X12361655Y-11046167D03*
%TD*%
%TO.C,U32*%
X12107655Y-11300167D03*
%TD*%
%TO.C,U12*%
X12102655Y-9262167D03*
%TD*%
%TO.C,U13*%
X12356655Y-10024167D03*
%TD*%
%TO.C,U14*%
X11848655Y-10532167D03*
%TD*%
%TO.C,U15*%
X11848655Y-9262167D03*
%TD*%
%TO.C,U31*%
X12615655Y-10538167D03*
%TD*%
%TO.C,U33*%
X11853655Y-11046167D03*
%TD*%
%TO.C,U102*%
X15925448Y-10370534D03*
%TD*%
%TO.C,U31*%
X15411448Y-10883534D03*
%TD*%
%TO.C,U33*%
X14903448Y-10121534D03*
%TD*%
%TO.C,U26*%
X10583655Y-11300167D03*
%TD*%
%TO.C,U102*%
X11853655Y-10024167D03*
%TD*%
%TO.C,U24*%
X12869655Y-11046167D03*
%TD*%
%TO.C,U27*%
X12610655Y-10278167D03*
%TD*%
%TO.C,U28*%
X12610655Y-11294167D03*
%TD*%
%TO.C,U12*%
X16687448Y-10370534D03*
%TD*%
%TO.C,U19*%
X16427448Y-10121534D03*
%TD*%
%TO.C,U20*%
X15671448Y-10624534D03*
%TD*%
M02*
