%TF.GenerationSoftware,KiCad,Pcbnew,5.1.3-ffb9f22~84~ubuntu18.04.1*%
%TF.CreationDate,2019-07-26T16:35:47+03:00*%
%TF.ProjectId,Des1_2_panel,44657331-5f32-45f7-9061-6e656c2e6b69,rev?*%
%TF.SameCoordinates,Original*%
%TF.FileFunction,Paste,Top*%
%TF.FilePolarity,Positive*%
%FSLAX45Y45*%
G04 Gerber Fmt 4.5, Leading zero omitted, Abs format (unit mm)*
G04 Created by KiCad (PCBNEW 5.1.3-ffb9f22~84~ubuntu18.04.1) date 2019-07-26 16:35:47*
%MOMM*%
%LPD*%
G04 APERTURE LIST*
%ADD10R,0.750000X0.800000*%
%ADD11C,0.500000*%
%ADD12C,0.100000*%
%ADD13R,0.800000X1.750000*%
%ADD14R,0.950000X0.850000*%
%ADD15R,0.500000X0.600000*%
%ADD16R,1.750000X0.800000*%
%ADD17R,1.800000X1.000000*%
%ADD18R,0.600000X0.500000*%
%ADD19R,1.000000X1.800000*%
%ADD20R,4.700000X4.700000*%
%ADD21O,0.650000X0.200000*%
%ADD22O,0.200000X0.650000*%
%ADD23C,0.750000*%
%ADD24R,0.800000X0.750000*%
%ADD25R,0.850000X0.950000*%
G04 APERTURE END LIST*
D10*
%TO.C,L2*%
X10666797Y-10504633D03*
X10531797Y-10504633D03*
%TD*%
D11*
%TO.C,L3*%
X10354638Y-10651934D03*
D12*
G36*
X10395604Y-10650195D02*
G01*
X10345811Y-10691976D01*
X10313672Y-10653674D01*
X10363465Y-10611892D01*
X10395604Y-10650195D01*
X10395604Y-10650195D01*
G37*
D11*
X10427412Y-10590869D03*
D12*
G36*
X10468378Y-10589130D02*
G01*
X10418585Y-10630911D01*
X10386446Y-10592609D01*
X10436239Y-10550827D01*
X10468378Y-10589130D01*
X10468378Y-10589130D01*
G37*
%TD*%
D13*
%TO.C,Cap_4*%
X11420155Y-8177167D03*
X11165155Y-8177167D03*
%TD*%
D14*
%TO.C,X1*%
X16269085Y-8953114D03*
X16269085Y-8838114D03*
X16414085Y-8838114D03*
X16414085Y-8953114D03*
%TD*%
D15*
%TO.C,C1*%
X16519385Y-8845614D03*
X16519385Y-8945614D03*
%TD*%
D16*
%TO.C,Cap_4*%
X17772448Y-9433034D03*
X17772448Y-9688034D03*
%TD*%
%TO.C,Cap_3*%
X17097448Y-9422534D03*
X17097448Y-9677534D03*
%TD*%
D13*
%TO.C,Cap_2*%
X16913448Y-9417534D03*
X16658448Y-9417534D03*
%TD*%
D15*
%TO.C,C11*%
X15066522Y-9259652D03*
X15066522Y-9359652D03*
%TD*%
D17*
%TO.C,X2*%
X14924282Y-9518472D03*
X14924282Y-9268473D03*
%TD*%
D18*
%TO.C,C2*%
X10577735Y-9785830D03*
X10677735Y-9785830D03*
%TD*%
D15*
%TO.C,C6*%
X10914773Y-9800254D03*
X10914773Y-9700254D03*
%TD*%
D18*
%TO.C,C1*%
X10677735Y-9430230D03*
X10577735Y-9430230D03*
%TD*%
D15*
%TO.C,C7*%
X10825873Y-9700253D03*
X10825873Y-9800253D03*
%TD*%
D19*
%TO.C,X2*%
X11000594Y-11025333D03*
X11250593Y-11025333D03*
%TD*%
D18*
%TO.C,C3*%
X11137493Y-9859473D03*
X11037493Y-9859473D03*
%TD*%
D20*
%TO.C,U1*%
X11087493Y-10278573D03*
D21*
X10784993Y-10498574D03*
X10784993Y-10458574D03*
X10784993Y-10418574D03*
X10784993Y-10378574D03*
X10784993Y-10338574D03*
X10784993Y-10298574D03*
X10784993Y-10258573D03*
X10784993Y-10218574D03*
X10784993Y-10178573D03*
X10784993Y-10138573D03*
X10784993Y-10098574D03*
X10784993Y-10058573D03*
D22*
X10867493Y-9976073D03*
X10907493Y-9976073D03*
X10947493Y-9976073D03*
X10987493Y-9976073D03*
X11027493Y-9976073D03*
X11067493Y-9976073D03*
X11107493Y-9976073D03*
X11147493Y-9976073D03*
X11187493Y-9976073D03*
X11227493Y-9976073D03*
X11267493Y-9976073D03*
X11307493Y-9976073D03*
D21*
X11389993Y-10058573D03*
X11389993Y-10098573D03*
X11389993Y-10138573D03*
X11389993Y-10178573D03*
X11389993Y-10218573D03*
X11389993Y-10258573D03*
X11389993Y-10298573D03*
X11389993Y-10338574D03*
X11389993Y-10378574D03*
X11389993Y-10418573D03*
X11389993Y-10458574D03*
X11389993Y-10498574D03*
D22*
X11307493Y-10581073D03*
X11267493Y-10581073D03*
X11227493Y-10581073D03*
X11187493Y-10581073D03*
X11147493Y-10581073D03*
X11107493Y-10581073D03*
X11067493Y-10581073D03*
X11027493Y-10581073D03*
X10987493Y-10581073D03*
X10947493Y-10581073D03*
X10907493Y-10581073D03*
X10867493Y-10581073D03*
%TD*%
D18*
%TO.C,C5*%
X15436561Y-9764312D03*
X15336561Y-9764312D03*
%TD*%
%TO.C,C4*%
X15187641Y-9167412D03*
X15087641Y-9167412D03*
%TD*%
D13*
%TO.C,Cap_3*%
X11409655Y-8852167D03*
X11154655Y-8852167D03*
%TD*%
D18*
%TO.C,C12*%
X14974281Y-9624612D03*
X14874281Y-9624612D03*
%TD*%
%TO.C,C13*%
X15539762Y-8697512D03*
X15639762Y-8697512D03*
%TD*%
D15*
%TO.C,C3*%
X16090142Y-9305372D03*
X16090142Y-9405372D03*
%TD*%
%TO.C,C2*%
X16163785Y-8945614D03*
X16163785Y-8845614D03*
%TD*%
D18*
%TO.C,C7*%
X16149362Y-9093752D03*
X16249362Y-9093752D03*
%TD*%
D23*
%TO.C,C10*%
X15440182Y-8624252D03*
D12*
G36*
X15433645Y-8678690D02*
G01*
X15385436Y-8621237D01*
X15446719Y-8569814D01*
X15494928Y-8627267D01*
X15433645Y-8678690D01*
X15433645Y-8678690D01*
G37*
D23*
X15353405Y-8520836D03*
D12*
G36*
X15346868Y-8575274D02*
G01*
X15298659Y-8517821D01*
X15359942Y-8466398D01*
X15408151Y-8523851D01*
X15346868Y-8575274D01*
X15346868Y-8575274D01*
G37*
%TD*%
D16*
%TO.C,Cap_2*%
X11149655Y-9291167D03*
X11149655Y-9036167D03*
%TD*%
D23*
%TO.C,C10*%
X10252957Y-10596210D03*
D12*
G36*
X10307395Y-10602747D02*
G01*
X10249942Y-10650956D01*
X10198519Y-10589673D01*
X10255972Y-10541464D01*
X10307395Y-10602747D01*
X10307395Y-10602747D01*
G37*
D23*
X10356373Y-10509433D03*
D12*
G36*
X10410811Y-10515970D02*
G01*
X10353358Y-10564179D01*
X10301935Y-10502896D01*
X10359388Y-10454687D01*
X10410811Y-10515970D01*
X10410811Y-10515970D01*
G37*
%TD*%
D15*
%TO.C,C12*%
X11356733Y-11075334D03*
X11356733Y-10975334D03*
%TD*%
D18*
%TO.C,C6*%
X16249361Y-9182652D03*
X16149361Y-9182652D03*
%TD*%
D10*
%TO.C,C9*%
X15070142Y-9063272D03*
X15205142Y-9063272D03*
%TD*%
D11*
%TO.C,L3*%
X15358746Y-8695291D03*
D12*
G36*
X15360485Y-8736257D02*
G01*
X15318704Y-8686464D01*
X15357006Y-8654325D01*
X15398788Y-8704118D01*
X15360485Y-8736257D01*
X15360485Y-8736257D01*
G37*
D11*
X15297681Y-8622517D03*
D12*
G36*
X15299420Y-8663483D02*
G01*
X15257639Y-8613690D01*
X15295941Y-8581551D01*
X15337723Y-8631344D01*
X15299420Y-8663483D01*
X15299420Y-8663483D01*
G37*
%TD*%
D15*
%TO.C,C13*%
X10429633Y-10309853D03*
X10429633Y-10409853D03*
%TD*%
D18*
%TO.C,C11*%
X11091773Y-10883093D03*
X10991773Y-10883093D03*
%TD*%
D16*
%TO.C,Cap_1*%
X11151655Y-8357167D03*
X11151655Y-8612167D03*
%TD*%
D24*
%TO.C,L2*%
X15444982Y-8799676D03*
X15444982Y-8934676D03*
%TD*%
D15*
%TO.C,C8*%
X16074885Y-8945614D03*
X16074885Y-8845614D03*
%TD*%
D24*
%TO.C,C9*%
X10795393Y-10744473D03*
X10795393Y-10879473D03*
%TD*%
D18*
%TO.C,C8*%
X10577735Y-9874730D03*
X10677735Y-9874730D03*
%TD*%
D21*
%TO.C,U1*%
X15368542Y-9135372D03*
X15368542Y-9175372D03*
X15368542Y-9215372D03*
X15368542Y-9255372D03*
X15368542Y-9295372D03*
X15368542Y-9335372D03*
X15368542Y-9375372D03*
X15368542Y-9415372D03*
X15368542Y-9455372D03*
X15368542Y-9495372D03*
X15368542Y-9535372D03*
X15368542Y-9575372D03*
D22*
X15451041Y-9657872D03*
X15491041Y-9657872D03*
X15531042Y-9657872D03*
X15571041Y-9657872D03*
X15611041Y-9657872D03*
X15651042Y-9657872D03*
X15691042Y-9657872D03*
X15731042Y-9657872D03*
X15771042Y-9657872D03*
X15811042Y-9657872D03*
X15851042Y-9657872D03*
X15891042Y-9657872D03*
D21*
X15973542Y-9575372D03*
X15973542Y-9535372D03*
X15973542Y-9495372D03*
X15973542Y-9455372D03*
X15973542Y-9415372D03*
X15973542Y-9375372D03*
X15973542Y-9335372D03*
X15973542Y-9295372D03*
X15973542Y-9255372D03*
X15973542Y-9215372D03*
X15973542Y-9175372D03*
X15973542Y-9135372D03*
D22*
X15891042Y-9052872D03*
X15851041Y-9052872D03*
X15811042Y-9052872D03*
X15771042Y-9052872D03*
X15731041Y-9052872D03*
X15691042Y-9052872D03*
X15651041Y-9052872D03*
X15611041Y-9052872D03*
X15571041Y-9052872D03*
X15531041Y-9052872D03*
X15491041Y-9052872D03*
X15451041Y-9052872D03*
D20*
X15671042Y-9355372D03*
%TD*%
D25*
%TO.C,X1*%
X10685235Y-9535530D03*
X10570235Y-9535530D03*
X10570235Y-9680530D03*
X10685235Y-9680530D03*
%TD*%
D15*
%TO.C,C5*%
X11496433Y-10613054D03*
X11496433Y-10513054D03*
%TD*%
%TO.C,C4*%
X10899533Y-10861974D03*
X10899533Y-10761974D03*
%TD*%
D13*
%TO.C,Cap_1*%
X17337448Y-9419534D03*
X17592448Y-9419534D03*
%TD*%
D12*
G36*
X17318448Y-9509534D02*
G01*
X17153448Y-9509534D01*
X17153448Y-9329534D01*
X17318448Y-9329534D01*
X17318448Y-9509534D01*
X17318448Y-9509534D01*
G37*
G36*
X11241655Y-8796167D02*
G01*
X11061655Y-8796167D01*
X11061655Y-8631167D01*
X11241655Y-8631167D01*
X11241655Y-8796167D01*
X11241655Y-8796167D01*
G37*
G36*
X17052448Y-9504534D02*
G01*
X16887448Y-9504534D01*
X16887448Y-9329534D01*
X17052448Y-9329534D01*
X17052448Y-9504534D01*
X17052448Y-9504534D01*
G37*
G36*
X11236655Y-9062167D02*
G01*
X11061655Y-9062167D01*
X11061655Y-8897167D01*
X11236655Y-8897167D01*
X11236655Y-9062167D01*
X11236655Y-9062167D01*
G37*
M02*
