%TF.GenerationSoftware,KiCad,Pcbnew,5.1.3-ffb9f22~84~ubuntu18.04.1*%
%TF.CreationDate,2019-07-26T17:01:45+03:00*%
%TF.ProjectId,Des1_2_panel,44657331-5f32-45f7-9061-6e656c2e6b69,rev?*%
%TF.SameCoordinates,Original*%
%TF.FileFunction,Other,Fab,Top*%
%FSLAX45Y45*%
G04 Gerber Fmt 4.5, Leading zero omitted, Abs format (unit mm)*
G04 Created by KiCad (PCBNEW 5.1.3-ffb9f22~84~ubuntu18.04.1) date 2019-07-26 17:01:45*
%MOMM*%
%LPD*%
G04 APERTURE LIST*
%ADD10C,0.100000*%
%ADD11C,0.150000*%
%ADD12C,0.300000*%
%ADD13C,0.400000*%
%ADD14C,0.010000*%
G04 APERTURE END LIST*
D10*
D11*
X17700220Y-16600720D02*
X17700220Y-19800720D01*
X28500220Y-19800720D01*
X28500220Y-16600720D01*
X17700220Y-16600720D01*
D10*
D11*
X1000000Y-1000000D02*
X1000000Y-20000720D01*
X28700220Y-20000720D01*
X28700220Y-1000000D01*
X1000000Y-1000000D01*
D10*
D11*
X1200000Y-1200000D02*
X1200000Y-19800720D01*
X28500220Y-19800720D01*
X28500220Y-1200000D01*
X1200000Y-1200000D01*
D10*
D11*
X6000000Y-1200000D02*
X6000000Y-1000000D01*
D10*
D11*
X11000000Y-1200000D02*
X11000000Y-1000000D01*
D10*
D11*
X16000000Y-1200000D02*
X16000000Y-1000000D01*
D10*
D11*
X21000000Y-1200000D02*
X21000000Y-1000000D01*
D10*
D11*
X26000000Y-1200000D02*
X26000000Y-1000000D01*
D10*
D11*
X3606548Y-1158810D02*
X3532262Y-1158810D01*
X3569405Y-1158810D02*
X3569405Y-1028809D01*
X3557024Y-1047381D01*
X3544643Y-1059762D01*
X3532262Y-1065952D01*
D10*
D11*
X8532262Y-1041190D02*
X8538452Y-1035000D01*
X8550833Y-1028809D01*
X8581786Y-1028809D01*
X8594167Y-1035000D01*
X8600357Y-1041190D01*
X8606548Y-1053571D01*
X8606548Y-1065952D01*
X8600357Y-1084524D01*
X8526071Y-1158810D01*
X8606548Y-1158810D01*
D10*
D11*
X13526071Y-1028809D02*
X13606548Y-1028809D01*
X13563214Y-1078333D01*
X13581786Y-1078333D01*
X13594167Y-1084524D01*
X13600357Y-1090714D01*
X13606548Y-1103095D01*
X13606548Y-1134048D01*
X13600357Y-1146429D01*
X13594167Y-1152619D01*
X13581786Y-1158810D01*
X13544643Y-1158810D01*
X13532262Y-1152619D01*
X13526071Y-1146429D01*
D10*
D11*
X18594167Y-1072143D02*
X18594167Y-1158810D01*
X18563214Y-1022619D02*
X18532262Y-1115476D01*
X18612738Y-1115476D01*
D10*
D11*
X23600357Y-1028809D02*
X23538452Y-1028809D01*
X23532262Y-1090714D01*
X23538452Y-1084524D01*
X23550833Y-1078333D01*
X23581786Y-1078333D01*
X23594167Y-1084524D01*
X23600357Y-1090714D01*
X23606548Y-1103095D01*
X23606548Y-1134048D01*
X23600357Y-1146429D01*
X23594167Y-1152619D01*
X23581786Y-1158810D01*
X23550833Y-1158810D01*
X23538452Y-1152619D01*
X23532262Y-1146429D01*
D10*
D11*
X28594167Y-1028809D02*
X28569405Y-1028809D01*
X28557024Y-1035000D01*
X28550833Y-1041190D01*
X28538452Y-1059762D01*
X28532262Y-1084524D01*
X28532262Y-1134048D01*
X28538452Y-1146429D01*
X28544643Y-1152619D01*
X28557024Y-1158810D01*
X28581786Y-1158810D01*
X28594167Y-1152619D01*
X28600357Y-1146429D01*
X28606548Y-1134048D01*
X28606548Y-1103095D01*
X28600357Y-1090714D01*
X28594167Y-1084524D01*
X28581786Y-1078333D01*
X28557024Y-1078333D01*
X28544643Y-1084524D01*
X28538452Y-1090714D01*
X28532262Y-1103095D01*
D10*
D11*
X6000000Y-19800720D02*
X6000000Y-20000720D01*
D10*
D11*
X11000000Y-19800720D02*
X11000000Y-20000720D01*
D10*
D11*
X16000000Y-19800720D02*
X16000000Y-20000720D01*
D10*
D11*
X21000000Y-19800720D02*
X21000000Y-20000720D01*
D10*
D11*
X26000000Y-19800720D02*
X26000000Y-20000720D01*
D10*
D11*
X3606548Y-19959530D02*
X3532262Y-19959530D01*
X3569405Y-19959530D02*
X3569405Y-19829530D01*
X3557024Y-19848101D01*
X3544643Y-19860482D01*
X3532262Y-19866672D01*
D10*
D11*
X8532262Y-19841910D02*
X8538452Y-19835720D01*
X8550833Y-19829530D01*
X8581786Y-19829530D01*
X8594167Y-19835720D01*
X8600357Y-19841910D01*
X8606548Y-19854291D01*
X8606548Y-19866672D01*
X8600357Y-19885244D01*
X8526071Y-19959530D01*
X8606548Y-19959530D01*
D10*
D11*
X13526071Y-19829530D02*
X13606548Y-19829530D01*
X13563214Y-19879053D01*
X13581786Y-19879053D01*
X13594167Y-19885244D01*
X13600357Y-19891434D01*
X13606548Y-19903815D01*
X13606548Y-19934768D01*
X13600357Y-19947149D01*
X13594167Y-19953339D01*
X13581786Y-19959530D01*
X13544643Y-19959530D01*
X13532262Y-19953339D01*
X13526071Y-19947149D01*
D10*
D11*
X18594167Y-19872863D02*
X18594167Y-19959530D01*
X18563214Y-19823339D02*
X18532262Y-19916196D01*
X18612738Y-19916196D01*
D10*
D11*
X23600357Y-19829530D02*
X23538452Y-19829530D01*
X23532262Y-19891434D01*
X23538452Y-19885244D01*
X23550833Y-19879053D01*
X23581786Y-19879053D01*
X23594167Y-19885244D01*
X23600357Y-19891434D01*
X23606548Y-19903815D01*
X23606548Y-19934768D01*
X23600357Y-19947149D01*
X23594167Y-19953339D01*
X23581786Y-19959530D01*
X23550833Y-19959530D01*
X23538452Y-19953339D01*
X23532262Y-19947149D01*
D10*
D11*
X28594167Y-19829530D02*
X28569405Y-19829530D01*
X28557024Y-19835720D01*
X28550833Y-19841910D01*
X28538452Y-19860482D01*
X28532262Y-19885244D01*
X28532262Y-19934768D01*
X28538452Y-19947149D01*
X28544643Y-19953339D01*
X28557024Y-19959530D01*
X28581786Y-19959530D01*
X28594167Y-19953339D01*
X28600357Y-19947149D01*
X28606548Y-19934768D01*
X28606548Y-19903815D01*
X28600357Y-19891434D01*
X28594167Y-19885244D01*
X28581786Y-19879053D01*
X28557024Y-19879053D01*
X28544643Y-19885244D01*
X28538452Y-19891434D01*
X28532262Y-19903815D01*
D10*
D11*
X1000000Y-6000000D02*
X1200000Y-6000000D01*
D10*
D11*
X1000000Y-11000000D02*
X1200000Y-11000000D01*
D10*
D11*
X1000000Y-16000000D02*
X1200000Y-16000000D01*
D10*
D11*
X1069048Y-3521667D02*
X1130952Y-3521667D01*
X1056667Y-3558809D02*
X1100000Y-3428809D01*
X1143333Y-3558809D01*
D10*
D11*
X1109286Y-8490714D02*
X1127857Y-8496905D01*
X1134048Y-8503095D01*
X1140238Y-8515476D01*
X1140238Y-8534048D01*
X1134048Y-8546429D01*
X1127857Y-8552619D01*
X1115476Y-8558810D01*
X1065952Y-8558810D01*
X1065952Y-8428810D01*
X1109286Y-8428810D01*
X1121667Y-8435000D01*
X1127857Y-8441190D01*
X1134048Y-8453571D01*
X1134048Y-8465952D01*
X1127857Y-8478333D01*
X1121667Y-8484524D01*
X1109286Y-8490714D01*
X1065952Y-8490714D01*
D10*
D11*
X1140238Y-13546428D02*
X1134048Y-13552619D01*
X1115476Y-13558809D01*
X1103095Y-13558809D01*
X1084524Y-13552619D01*
X1072143Y-13540238D01*
X1065952Y-13527857D01*
X1059762Y-13503095D01*
X1059762Y-13484524D01*
X1065952Y-13459762D01*
X1072143Y-13447381D01*
X1084524Y-13435000D01*
X1103095Y-13428809D01*
X1115476Y-13428809D01*
X1134048Y-13435000D01*
X1140238Y-13441190D01*
D10*
D11*
X1065952Y-18558810D02*
X1065952Y-18428810D01*
X1096905Y-18428810D01*
X1115476Y-18435000D01*
X1127857Y-18447381D01*
X1134048Y-18459762D01*
X1140238Y-18484524D01*
X1140238Y-18503095D01*
X1134048Y-18527857D01*
X1127857Y-18540238D01*
X1115476Y-18552619D01*
X1096905Y-18558810D01*
X1065952Y-18558810D01*
D10*
D11*
X28700220Y-6000000D02*
X28500220Y-6000000D01*
D10*
D11*
X28700220Y-11000000D02*
X28500220Y-11000000D01*
D10*
D11*
X28700220Y-16000000D02*
X28500220Y-16000000D01*
D10*
D11*
X28569268Y-3521667D02*
X28631172Y-3521667D01*
X28556887Y-3558809D02*
X28600220Y-3428809D01*
X28643553Y-3558809D01*
D10*
D11*
X28609506Y-8490714D02*
X28628077Y-8496905D01*
X28634268Y-8503095D01*
X28640458Y-8515476D01*
X28640458Y-8534048D01*
X28634268Y-8546429D01*
X28628077Y-8552619D01*
X28615696Y-8558810D01*
X28566172Y-8558810D01*
X28566172Y-8428810D01*
X28609506Y-8428810D01*
X28621887Y-8435000D01*
X28628077Y-8441190D01*
X28634268Y-8453571D01*
X28634268Y-8465952D01*
X28628077Y-8478333D01*
X28621887Y-8484524D01*
X28609506Y-8490714D01*
X28566172Y-8490714D01*
D10*
D11*
X28640458Y-13546428D02*
X28634268Y-13552619D01*
X28615696Y-13558809D01*
X28603315Y-13558809D01*
X28584744Y-13552619D01*
X28572363Y-13540238D01*
X28566172Y-13527857D01*
X28559982Y-13503095D01*
X28559982Y-13484524D01*
X28566172Y-13459762D01*
X28572363Y-13447381D01*
X28584744Y-13435000D01*
X28603315Y-13428809D01*
X28615696Y-13428809D01*
X28634268Y-13435000D01*
X28640458Y-13441190D01*
D10*
D11*
X28566172Y-18558810D02*
X28566172Y-18428810D01*
X28597125Y-18428810D01*
X28615696Y-18435000D01*
X28628077Y-18447381D01*
X28634268Y-18459762D01*
X28640458Y-18484524D01*
X28640458Y-18503095D01*
X28634268Y-18527857D01*
X28628077Y-18540238D01*
X28615696Y-18552619D01*
X28597125Y-18558810D01*
X28566172Y-18558810D01*
D10*
D11*
X20043434Y-19378577D02*
X20043434Y-19228577D01*
X20079149Y-19228577D01*
X20100577Y-19235720D01*
X20114863Y-19250006D01*
X20122006Y-19264291D01*
X20129149Y-19292863D01*
X20129149Y-19314291D01*
X20122006Y-19342863D01*
X20114863Y-19357149D01*
X20100577Y-19371434D01*
X20079149Y-19378577D01*
X20043434Y-19378577D01*
X20257720Y-19378577D02*
X20257720Y-19300006D01*
X20250577Y-19285720D01*
X20236291Y-19278577D01*
X20207720Y-19278577D01*
X20193434Y-19285720D01*
X20257720Y-19371434D02*
X20243434Y-19378577D01*
X20207720Y-19378577D01*
X20193434Y-19371434D01*
X20186291Y-19357149D01*
X20186291Y-19342863D01*
X20193434Y-19328577D01*
X20207720Y-19321434D01*
X20243434Y-19321434D01*
X20257720Y-19314291D01*
X20307720Y-19278577D02*
X20364863Y-19278577D01*
X20329149Y-19228577D02*
X20329149Y-19357149D01*
X20336291Y-19371434D01*
X20350577Y-19378577D01*
X20364863Y-19378577D01*
X20472006Y-19371434D02*
X20457720Y-19378577D01*
X20429149Y-19378577D01*
X20414863Y-19371434D01*
X20407720Y-19357149D01*
X20407720Y-19300006D01*
X20414863Y-19285720D01*
X20429149Y-19278577D01*
X20457720Y-19278577D01*
X20472006Y-19285720D01*
X20479149Y-19300006D01*
X20479149Y-19314291D01*
X20407720Y-19328577D01*
X20543434Y-19364291D02*
X20550577Y-19371434D01*
X20543434Y-19378577D01*
X20536291Y-19371434D01*
X20543434Y-19364291D01*
X20543434Y-19378577D01*
X20543434Y-19285720D02*
X20550577Y-19292863D01*
X20543434Y-19300006D01*
X20536291Y-19292863D01*
X20543434Y-19285720D01*
X20543434Y-19300006D01*
D10*
D11*
X17700220Y-19450720D02*
X28500220Y-19450720D01*
D10*
D11*
X17843434Y-19658577D02*
X17843434Y-19508577D01*
X17929149Y-19658577D02*
X17864863Y-19572863D01*
X17929149Y-19508577D02*
X17843434Y-19594291D01*
X17993434Y-19658577D02*
X17993434Y-19558577D01*
X17993434Y-19508577D02*
X17986291Y-19515720D01*
X17993434Y-19522863D01*
X18000577Y-19515720D01*
X17993434Y-19508577D01*
X17993434Y-19522863D01*
X18150577Y-19644291D02*
X18143434Y-19651434D01*
X18122006Y-19658577D01*
X18107720Y-19658577D01*
X18086291Y-19651434D01*
X18072006Y-19637149D01*
X18064863Y-19622863D01*
X18057720Y-19594291D01*
X18057720Y-19572863D01*
X18064863Y-19544291D01*
X18072006Y-19530006D01*
X18086291Y-19515720D01*
X18107720Y-19508577D01*
X18122006Y-19508577D01*
X18143434Y-19515720D01*
X18150577Y-19522863D01*
X18279149Y-19658577D02*
X18279149Y-19580006D01*
X18272006Y-19565720D01*
X18257720Y-19558577D01*
X18229149Y-19558577D01*
X18214863Y-19565720D01*
X18279149Y-19651434D02*
X18264863Y-19658577D01*
X18229149Y-19658577D01*
X18214863Y-19651434D01*
X18207720Y-19637149D01*
X18207720Y-19622863D01*
X18214863Y-19608577D01*
X18229149Y-19601434D01*
X18264863Y-19601434D01*
X18279149Y-19594291D01*
X18414863Y-19658577D02*
X18414863Y-19508577D01*
X18414863Y-19651434D02*
X18400577Y-19658577D01*
X18372006Y-19658577D01*
X18357720Y-19651434D01*
X18350577Y-19644291D01*
X18343434Y-19630006D01*
X18343434Y-19587149D01*
X18350577Y-19572863D01*
X18357720Y-19565720D01*
X18372006Y-19558577D01*
X18400577Y-19558577D01*
X18414863Y-19565720D01*
X18600577Y-19580006D02*
X18650577Y-19580006D01*
X18672006Y-19658577D02*
X18600577Y-19658577D01*
X18600577Y-19508577D01*
X18672006Y-19508577D01*
X18736291Y-19644291D02*
X18743434Y-19651434D01*
X18736291Y-19658577D01*
X18729149Y-19651434D01*
X18736291Y-19644291D01*
X18736291Y-19658577D01*
X18807720Y-19658577D02*
X18807720Y-19508577D01*
X18843434Y-19508577D01*
X18864863Y-19515720D01*
X18879149Y-19530006D01*
X18886291Y-19544291D01*
X18893434Y-19572863D01*
X18893434Y-19594291D01*
X18886291Y-19622863D01*
X18879149Y-19637149D01*
X18864863Y-19651434D01*
X18843434Y-19658577D01*
X18807720Y-19658577D01*
X18957720Y-19644291D02*
X18964863Y-19651434D01*
X18957720Y-19658577D01*
X18950577Y-19651434D01*
X18957720Y-19644291D01*
X18957720Y-19658577D01*
X19022006Y-19615720D02*
X19093434Y-19615720D01*
X19007720Y-19658577D02*
X19057720Y-19508577D01*
X19107720Y-19658577D01*
X19157720Y-19644291D02*
X19164863Y-19651434D01*
X19157720Y-19658577D01*
X19150577Y-19651434D01*
X19157720Y-19644291D01*
X19157720Y-19658577D01*
X19457720Y-19658577D02*
X19457720Y-19508577D01*
X19472006Y-19601434D02*
X19514863Y-19658577D01*
X19514863Y-19558577D02*
X19457720Y-19615720D01*
X19579149Y-19658577D02*
X19579149Y-19558577D01*
X19579149Y-19508577D02*
X19572006Y-19515720D01*
X19579149Y-19522863D01*
X19586291Y-19515720D01*
X19579149Y-19508577D01*
X19579149Y-19522863D01*
X19714863Y-19651434D02*
X19700577Y-19658577D01*
X19672006Y-19658577D01*
X19657720Y-19651434D01*
X19650577Y-19644291D01*
X19643434Y-19630006D01*
X19643434Y-19587149D01*
X19650577Y-19572863D01*
X19657720Y-19565720D01*
X19672006Y-19558577D01*
X19700577Y-19558577D01*
X19714863Y-19565720D01*
X19843434Y-19658577D02*
X19843434Y-19580006D01*
X19836291Y-19565720D01*
X19822006Y-19558577D01*
X19793434Y-19558577D01*
X19779149Y-19565720D01*
X19843434Y-19651434D02*
X19829149Y-19658577D01*
X19793434Y-19658577D01*
X19779149Y-19651434D01*
X19772006Y-19637149D01*
X19772006Y-19622863D01*
X19779149Y-19608577D01*
X19793434Y-19601434D01*
X19829149Y-19601434D01*
X19843434Y-19594291D01*
X19979149Y-19658577D02*
X19979149Y-19508577D01*
X19979149Y-19651434D02*
X19964863Y-19658577D01*
X19936291Y-19658577D01*
X19922006Y-19651434D01*
X19914863Y-19644291D01*
X19907720Y-19630006D01*
X19907720Y-19587149D01*
X19914863Y-19572863D01*
X19922006Y-19565720D01*
X19936291Y-19558577D01*
X19964863Y-19558577D01*
X19979149Y-19565720D01*
X20236291Y-19508577D02*
X20164863Y-19508577D01*
X20157720Y-19580006D01*
X20164863Y-19572863D01*
X20179149Y-19565720D01*
X20214863Y-19565720D01*
X20229149Y-19572863D01*
X20236291Y-19580006D01*
X20243434Y-19594291D01*
X20243434Y-19630006D01*
X20236291Y-19644291D01*
X20229149Y-19651434D01*
X20214863Y-19658577D01*
X20179149Y-19658577D01*
X20164863Y-19651434D01*
X20157720Y-19644291D01*
X20307720Y-19644291D02*
X20314863Y-19651434D01*
X20307720Y-19658577D01*
X20300577Y-19651434D01*
X20307720Y-19644291D01*
X20307720Y-19658577D01*
X20457720Y-19658577D02*
X20372006Y-19658577D01*
X20414863Y-19658577D02*
X20414863Y-19508577D01*
X20400577Y-19530006D01*
X20386291Y-19544291D01*
X20372006Y-19551434D01*
X20522006Y-19644291D02*
X20529149Y-19651434D01*
X20522006Y-19658577D01*
X20514863Y-19651434D01*
X20522006Y-19644291D01*
X20522006Y-19658577D01*
X20579149Y-19508577D02*
X20672006Y-19508577D01*
X20622006Y-19565720D01*
X20643434Y-19565720D01*
X20657720Y-19572863D01*
X20664863Y-19580006D01*
X20672006Y-19594291D01*
X20672006Y-19630006D01*
X20664863Y-19644291D01*
X20657720Y-19651434D01*
X20643434Y-19658577D01*
X20600577Y-19658577D01*
X20586291Y-19651434D01*
X20579149Y-19644291D01*
X20736291Y-19601434D02*
X20850577Y-19601434D01*
X20900577Y-19558577D02*
X20957720Y-19558577D01*
X20922006Y-19658577D02*
X20922006Y-19530006D01*
X20929149Y-19515720D01*
X20943434Y-19508577D01*
X20957720Y-19508577D01*
X20986291Y-19558577D02*
X21043434Y-19558577D01*
X21007720Y-19658577D02*
X21007720Y-19530006D01*
X21014863Y-19515720D01*
X21029149Y-19508577D01*
X21043434Y-19508577D01*
X21093434Y-19658577D02*
X21093434Y-19508577D01*
X21093434Y-19565720D02*
X21107720Y-19558577D01*
X21136291Y-19558577D01*
X21150577Y-19565720D01*
X21157720Y-19572863D01*
X21164863Y-19587149D01*
X21164863Y-19630006D01*
X21157720Y-19644291D01*
X21150577Y-19651434D01*
X21136291Y-19658577D01*
X21107720Y-19658577D01*
X21093434Y-19651434D01*
X21236291Y-19658577D02*
X21264863Y-19658577D01*
X21279149Y-19651434D01*
X21286291Y-19644291D01*
X21300577Y-19622863D01*
X21307720Y-19594291D01*
X21307720Y-19537149D01*
X21300577Y-19522863D01*
X21293434Y-19515720D01*
X21279149Y-19508577D01*
X21250577Y-19508577D01*
X21236291Y-19515720D01*
X21229149Y-19522863D01*
X21222006Y-19537149D01*
X21222006Y-19572863D01*
X21229149Y-19587149D01*
X21236291Y-19594291D01*
X21250577Y-19601434D01*
X21279149Y-19601434D01*
X21293434Y-19594291D01*
X21300577Y-19587149D01*
X21307720Y-19572863D01*
X21350577Y-19558577D02*
X21407720Y-19558577D01*
X21372006Y-19658577D02*
X21372006Y-19530006D01*
X21379149Y-19515720D01*
X21393434Y-19508577D01*
X21407720Y-19508577D01*
X21450577Y-19522863D02*
X21457720Y-19515720D01*
X21472006Y-19508577D01*
X21507720Y-19508577D01*
X21522006Y-19515720D01*
X21529149Y-19522863D01*
X21536291Y-19537149D01*
X21536291Y-19551434D01*
X21529149Y-19572863D01*
X21443434Y-19658577D01*
X21536291Y-19658577D01*
X21593434Y-19522863D02*
X21600577Y-19515720D01*
X21614863Y-19508577D01*
X21650577Y-19508577D01*
X21664863Y-19515720D01*
X21672006Y-19522863D01*
X21679149Y-19537149D01*
X21679149Y-19551434D01*
X21672006Y-19572863D01*
X21586291Y-19658577D01*
X21679149Y-19658577D01*
X21707720Y-19467720D02*
X21850577Y-19467720D01*
X21764863Y-19572863D02*
X21750577Y-19565720D01*
X21743434Y-19558577D01*
X21736291Y-19544291D01*
X21736291Y-19537149D01*
X21743434Y-19522863D01*
X21750577Y-19515720D01*
X21764863Y-19508577D01*
X21793434Y-19508577D01*
X21807720Y-19515720D01*
X21814863Y-19522863D01*
X21822006Y-19537149D01*
X21822006Y-19544291D01*
X21814863Y-19558577D01*
X21807720Y-19565720D01*
X21793434Y-19572863D01*
X21764863Y-19572863D01*
X21750577Y-19580006D01*
X21743434Y-19587149D01*
X21736291Y-19601434D01*
X21736291Y-19630006D01*
X21743434Y-19644291D01*
X21750577Y-19651434D01*
X21764863Y-19658577D01*
X21793434Y-19658577D01*
X21807720Y-19651434D01*
X21814863Y-19644291D01*
X21822006Y-19630006D01*
X21822006Y-19601434D01*
X21814863Y-19587149D01*
X21807720Y-19580006D01*
X21793434Y-19572863D01*
X21850577Y-19467720D02*
X21993434Y-19467720D01*
X21950577Y-19558577D02*
X21950577Y-19658577D01*
X21914863Y-19501434D02*
X21879149Y-19608577D01*
X21972006Y-19608577D01*
X22093434Y-19558577D02*
X22093434Y-19658577D01*
X22029149Y-19558577D02*
X22029149Y-19637149D01*
X22036291Y-19651434D01*
X22050577Y-19658577D01*
X22072006Y-19658577D01*
X22086291Y-19651434D01*
X22093434Y-19644291D01*
X22164863Y-19658577D02*
X22164863Y-19508577D01*
X22164863Y-19565720D02*
X22179149Y-19558577D01*
X22207720Y-19558577D01*
X22222006Y-19565720D01*
X22229149Y-19572863D01*
X22236291Y-19587149D01*
X22236291Y-19630006D01*
X22229149Y-19644291D01*
X22222006Y-19651434D01*
X22207720Y-19658577D01*
X22179149Y-19658577D01*
X22164863Y-19651434D01*
X22364863Y-19558577D02*
X22364863Y-19658577D01*
X22300577Y-19558577D02*
X22300577Y-19637149D01*
X22307720Y-19651434D01*
X22322006Y-19658577D01*
X22343434Y-19658577D01*
X22357720Y-19651434D01*
X22364863Y-19644291D01*
X22436291Y-19558577D02*
X22436291Y-19658577D01*
X22436291Y-19572863D02*
X22443434Y-19565720D01*
X22457720Y-19558577D01*
X22479148Y-19558577D01*
X22493434Y-19565720D01*
X22500577Y-19580006D01*
X22500577Y-19658577D01*
X22550577Y-19558577D02*
X22607720Y-19558577D01*
X22572006Y-19508577D02*
X22572006Y-19637149D01*
X22579148Y-19651434D01*
X22593434Y-19658577D01*
X22607720Y-19658577D01*
X22722006Y-19558577D02*
X22722006Y-19658577D01*
X22657720Y-19558577D02*
X22657720Y-19637149D01*
X22664863Y-19651434D01*
X22679148Y-19658577D01*
X22700577Y-19658577D01*
X22714863Y-19651434D01*
X22722006Y-19644291D01*
X22872006Y-19658577D02*
X22786291Y-19658577D01*
X22829148Y-19658577D02*
X22829148Y-19508577D01*
X22814863Y-19530006D01*
X22800577Y-19544291D01*
X22786291Y-19551434D01*
X22957720Y-19572863D02*
X22943434Y-19565720D01*
X22936291Y-19558577D01*
X22929148Y-19544291D01*
X22929148Y-19537149D01*
X22936291Y-19522863D01*
X22943434Y-19515720D01*
X22957720Y-19508577D01*
X22986291Y-19508577D01*
X23000577Y-19515720D01*
X23007720Y-19522863D01*
X23014863Y-19537149D01*
X23014863Y-19544291D01*
X23007720Y-19558577D01*
X23000577Y-19565720D01*
X22986291Y-19572863D01*
X22957720Y-19572863D01*
X22943434Y-19580006D01*
X22936291Y-19587149D01*
X22929148Y-19601434D01*
X22929148Y-19630006D01*
X22936291Y-19644291D01*
X22943434Y-19651434D01*
X22957720Y-19658577D01*
X22986291Y-19658577D01*
X23000577Y-19651434D01*
X23007720Y-19644291D01*
X23014863Y-19630006D01*
X23014863Y-19601434D01*
X23007720Y-19587149D01*
X23000577Y-19580006D01*
X22986291Y-19572863D01*
X23079148Y-19644291D02*
X23086291Y-19651434D01*
X23079148Y-19658577D01*
X23072006Y-19651434D01*
X23079148Y-19644291D01*
X23079148Y-19658577D01*
X23179148Y-19508577D02*
X23193434Y-19508577D01*
X23207720Y-19515720D01*
X23214863Y-19522863D01*
X23222006Y-19537149D01*
X23229148Y-19565720D01*
X23229148Y-19601434D01*
X23222006Y-19630006D01*
X23214863Y-19644291D01*
X23207720Y-19651434D01*
X23193434Y-19658577D01*
X23179148Y-19658577D01*
X23164863Y-19651434D01*
X23157720Y-19644291D01*
X23150577Y-19630006D01*
X23143434Y-19601434D01*
X23143434Y-19565720D01*
X23150577Y-19537149D01*
X23157720Y-19522863D01*
X23164863Y-19515720D01*
X23179148Y-19508577D01*
X23357720Y-19558577D02*
X23357720Y-19658577D01*
X23322006Y-19501434D02*
X23286291Y-19608577D01*
X23379148Y-19608577D01*
X23436291Y-19644291D02*
X23443434Y-19651434D01*
X23436291Y-19658577D01*
X23429148Y-19651434D01*
X23436291Y-19644291D01*
X23436291Y-19658577D01*
X23586291Y-19658577D02*
X23500577Y-19658577D01*
X23543434Y-19658577D02*
X23543434Y-19508577D01*
X23529148Y-19530006D01*
X23514863Y-19544291D01*
X23500577Y-19551434D01*
D10*
D11*
X17700220Y-19150720D02*
X28500220Y-19150720D01*
D10*
D12*
X26441148Y-19378577D02*
X26391148Y-19307149D01*
X26355434Y-19378577D02*
X26355434Y-19228577D01*
X26412577Y-19228577D01*
X26426863Y-19235720D01*
X26434006Y-19242863D01*
X26441148Y-19257149D01*
X26441148Y-19278577D01*
X26434006Y-19292863D01*
X26426863Y-19300006D01*
X26412577Y-19307149D01*
X26355434Y-19307149D01*
X26562577Y-19371434D02*
X26548291Y-19378577D01*
X26519720Y-19378577D01*
X26505434Y-19371434D01*
X26498291Y-19357149D01*
X26498291Y-19300006D01*
X26505434Y-19285720D01*
X26519720Y-19278577D01*
X26548291Y-19278577D01*
X26562577Y-19285720D01*
X26569720Y-19300006D01*
X26569720Y-19314291D01*
X26498291Y-19328577D01*
X26619720Y-19278577D02*
X26655434Y-19378577D01*
X26691148Y-19278577D01*
X26748291Y-19364291D02*
X26755434Y-19371434D01*
X26748291Y-19378577D01*
X26741148Y-19371434D01*
X26748291Y-19364291D01*
X26748291Y-19378577D01*
X26748291Y-19285720D02*
X26755434Y-19292863D01*
X26748291Y-19300006D01*
X26741148Y-19292863D01*
X26748291Y-19285720D01*
X26748291Y-19300006D01*
D10*
D11*
X17836291Y-19371434D02*
X17857720Y-19378577D01*
X17893434Y-19378577D01*
X17907720Y-19371434D01*
X17914863Y-19364291D01*
X17922006Y-19350006D01*
X17922006Y-19335720D01*
X17914863Y-19321434D01*
X17907720Y-19314291D01*
X17893434Y-19307149D01*
X17864863Y-19300006D01*
X17850577Y-19292863D01*
X17843434Y-19285720D01*
X17836291Y-19271434D01*
X17836291Y-19257149D01*
X17843434Y-19242863D01*
X17850577Y-19235720D01*
X17864863Y-19228577D01*
X17900577Y-19228577D01*
X17922006Y-19235720D01*
X17986291Y-19378577D02*
X17986291Y-19278577D01*
X17986291Y-19228577D02*
X17979149Y-19235720D01*
X17986291Y-19242863D01*
X17993434Y-19235720D01*
X17986291Y-19228577D01*
X17986291Y-19242863D01*
X18043434Y-19278577D02*
X18122006Y-19278577D01*
X18043434Y-19378577D01*
X18122006Y-19378577D01*
X18236291Y-19371434D02*
X18222006Y-19378577D01*
X18193434Y-19378577D01*
X18179149Y-19371434D01*
X18172006Y-19357149D01*
X18172006Y-19300006D01*
X18179149Y-19285720D01*
X18193434Y-19278577D01*
X18222006Y-19278577D01*
X18236291Y-19285720D01*
X18243434Y-19300006D01*
X18243434Y-19314291D01*
X18172006Y-19328577D01*
X18307720Y-19364291D02*
X18314863Y-19371434D01*
X18307720Y-19378577D01*
X18300577Y-19371434D01*
X18307720Y-19364291D01*
X18307720Y-19378577D01*
X18307720Y-19285720D02*
X18314863Y-19292863D01*
X18307720Y-19300006D01*
X18300577Y-19292863D01*
X18307720Y-19285720D01*
X18307720Y-19300006D01*
X18486291Y-19335720D02*
X18557720Y-19335720D01*
X18472006Y-19378577D02*
X18522006Y-19228577D01*
X18572006Y-19378577D01*
X18686291Y-19278577D02*
X18686291Y-19378577D01*
X18650577Y-19221434D02*
X18614863Y-19328577D01*
X18707720Y-19328577D01*
D10*
D11*
X26343434Y-19658577D02*
X26343434Y-19508577D01*
X26479148Y-19658577D02*
X26479148Y-19508577D01*
X26479148Y-19651434D02*
X26464863Y-19658577D01*
X26436291Y-19658577D01*
X26422006Y-19651434D01*
X26414863Y-19644291D01*
X26407720Y-19630006D01*
X26407720Y-19587149D01*
X26414863Y-19572863D01*
X26422006Y-19565720D01*
X26436291Y-19558577D01*
X26464863Y-19558577D01*
X26479148Y-19565720D01*
X26550577Y-19644291D02*
X26557720Y-19651434D01*
X26550577Y-19658577D01*
X26543434Y-19651434D01*
X26550577Y-19644291D01*
X26550577Y-19658577D01*
X26550577Y-19565720D02*
X26557720Y-19572863D01*
X26550577Y-19580006D01*
X26543434Y-19572863D01*
X26550577Y-19565720D01*
X26550577Y-19580006D01*
X26814863Y-19658577D02*
X26729148Y-19658577D01*
X26772006Y-19658577D02*
X26772006Y-19508577D01*
X26757720Y-19530006D01*
X26743434Y-19544291D01*
X26729148Y-19551434D01*
X26986291Y-19501434D02*
X26857720Y-19694291D01*
X27114863Y-19658577D02*
X27029148Y-19658577D01*
X27072006Y-19658577D02*
X27072006Y-19508577D01*
X27057720Y-19530006D01*
X27043434Y-19544291D01*
X27029148Y-19551434D01*
D10*
D11*
X17700220Y-18750720D02*
X28500220Y-18750720D01*
D10*
D13*
X17871458Y-18821196D02*
X17985744Y-18821196D01*
X17903601Y-19021196D02*
X17928601Y-18821196D01*
X18027410Y-19021196D02*
X18044077Y-18887863D01*
X18052410Y-18821196D02*
X18041696Y-18830720D01*
X18050030Y-18840244D01*
X18060744Y-18830720D01*
X18052410Y-18821196D01*
X18050030Y-18840244D01*
X18110744Y-18887863D02*
X18186934Y-18887863D01*
X18147649Y-18821196D02*
X18126220Y-18992625D01*
X18133363Y-19011672D01*
X18151220Y-19021196D01*
X18170268Y-19021196D01*
X18265506Y-19021196D02*
X18247649Y-19011672D01*
X18240506Y-18992625D01*
X18261934Y-18821196D01*
X18419077Y-19011672D02*
X18398839Y-19021196D01*
X18360744Y-19021196D01*
X18342887Y-19011672D01*
X18335744Y-18992625D01*
X18345268Y-18916434D01*
X18357172Y-18897387D01*
X18377410Y-18887863D01*
X18415506Y-18887863D01*
X18433363Y-18897387D01*
X18440506Y-18916434D01*
X18438125Y-18935482D01*
X18340506Y-18954530D01*
X18515506Y-19002149D02*
X18523839Y-19011672D01*
X18513125Y-19021196D01*
X18504791Y-19011672D01*
X18515506Y-19002149D01*
X18513125Y-19021196D01*
X18528601Y-18897387D02*
X18536934Y-18906910D01*
X18526220Y-18916434D01*
X18517887Y-18906910D01*
X18528601Y-18897387D01*
X18526220Y-18916434D01*
D10*
D11*
X17893434Y-18560006D02*
X17843434Y-18560006D01*
X17843434Y-18638577D02*
X17843434Y-18488577D01*
X17914863Y-18488577D01*
X17972006Y-18638577D02*
X17972006Y-18538577D01*
X17972006Y-18488577D02*
X17964863Y-18495720D01*
X17972006Y-18502863D01*
X17979149Y-18495720D01*
X17972006Y-18488577D01*
X17972006Y-18502863D01*
X18064863Y-18638577D02*
X18050577Y-18631434D01*
X18043434Y-18617149D01*
X18043434Y-18488577D01*
X18179149Y-18631434D02*
X18164863Y-18638577D01*
X18136291Y-18638577D01*
X18122006Y-18631434D01*
X18114863Y-18617149D01*
X18114863Y-18560006D01*
X18122006Y-18545720D01*
X18136291Y-18538577D01*
X18164863Y-18538577D01*
X18179149Y-18545720D01*
X18186291Y-18560006D01*
X18186291Y-18574291D01*
X18114863Y-18588577D01*
X18250577Y-18624291D02*
X18257720Y-18631434D01*
X18250577Y-18638577D01*
X18243434Y-18631434D01*
X18250577Y-18624291D01*
X18250577Y-18638577D01*
X18250577Y-18545720D02*
X18257720Y-18552863D01*
X18250577Y-18560006D01*
X18243434Y-18552863D01*
X18250577Y-18545720D01*
X18250577Y-18560006D01*
X18436291Y-18638577D02*
X18436291Y-18488577D01*
X18472006Y-18488577D01*
X18493434Y-18495720D01*
X18507720Y-18510006D01*
X18514863Y-18524291D01*
X18522006Y-18552863D01*
X18522006Y-18574291D01*
X18514863Y-18602863D01*
X18507720Y-18617149D01*
X18493434Y-18631434D01*
X18472006Y-18638577D01*
X18436291Y-18638577D01*
X18643434Y-18631434D02*
X18629149Y-18638577D01*
X18600577Y-18638577D01*
X18586291Y-18631434D01*
X18579149Y-18617149D01*
X18579149Y-18560006D01*
X18586291Y-18545720D01*
X18600577Y-18538577D01*
X18629149Y-18538577D01*
X18643434Y-18545720D01*
X18650577Y-18560006D01*
X18650577Y-18574291D01*
X18579149Y-18588577D01*
X18707720Y-18631434D02*
X18722006Y-18638577D01*
X18750577Y-18638577D01*
X18764863Y-18631434D01*
X18772006Y-18617149D01*
X18772006Y-18610006D01*
X18764863Y-18595720D01*
X18750577Y-18588577D01*
X18729149Y-18588577D01*
X18714863Y-18581434D01*
X18707720Y-18567149D01*
X18707720Y-18560006D01*
X18714863Y-18545720D01*
X18729149Y-18538577D01*
X18750577Y-18538577D01*
X18764863Y-18545720D01*
X18914863Y-18638577D02*
X18829149Y-18638577D01*
X18872006Y-18638577D02*
X18872006Y-18488577D01*
X18857720Y-18510006D01*
X18843434Y-18524291D01*
X18829149Y-18531434D01*
X18943434Y-18652863D02*
X19057720Y-18652863D01*
X19086291Y-18502863D02*
X19093434Y-18495720D01*
X19107720Y-18488577D01*
X19143434Y-18488577D01*
X19157720Y-18495720D01*
X19164863Y-18502863D01*
X19172006Y-18517149D01*
X19172006Y-18531434D01*
X19164863Y-18552863D01*
X19079149Y-18638577D01*
X19172006Y-18638577D01*
X19200577Y-18652863D02*
X19314863Y-18652863D01*
X19350577Y-18538577D02*
X19350577Y-18688577D01*
X19350577Y-18545720D02*
X19364863Y-18538577D01*
X19393434Y-18538577D01*
X19407720Y-18545720D01*
X19414863Y-18552863D01*
X19422006Y-18567149D01*
X19422006Y-18610006D01*
X19414863Y-18624291D01*
X19407720Y-18631434D01*
X19393434Y-18638577D01*
X19364863Y-18638577D01*
X19350577Y-18631434D01*
X19550577Y-18638577D02*
X19550577Y-18560006D01*
X19543434Y-18545720D01*
X19529149Y-18538577D01*
X19500577Y-18538577D01*
X19486291Y-18545720D01*
X19550577Y-18631434D02*
X19536291Y-18638577D01*
X19500577Y-18638577D01*
X19486291Y-18631434D01*
X19479149Y-18617149D01*
X19479149Y-18602863D01*
X19486291Y-18588577D01*
X19500577Y-18581434D01*
X19536291Y-18581434D01*
X19550577Y-18574291D01*
X19622006Y-18538577D02*
X19622006Y-18638577D01*
X19622006Y-18552863D02*
X19629149Y-18545720D01*
X19643434Y-18538577D01*
X19664863Y-18538577D01*
X19679149Y-18545720D01*
X19686291Y-18560006D01*
X19686291Y-18638577D01*
X19814863Y-18631434D02*
X19800577Y-18638577D01*
X19772006Y-18638577D01*
X19757720Y-18631434D01*
X19750577Y-18617149D01*
X19750577Y-18560006D01*
X19757720Y-18545720D01*
X19772006Y-18538577D01*
X19800577Y-18538577D01*
X19814863Y-18545720D01*
X19822006Y-18560006D01*
X19822006Y-18574291D01*
X19750577Y-18588577D01*
X19907720Y-18638577D02*
X19893434Y-18631434D01*
X19886291Y-18617149D01*
X19886291Y-18488577D01*
X19964863Y-18624291D02*
X19972006Y-18631434D01*
X19964863Y-18638577D01*
X19957720Y-18631434D01*
X19964863Y-18624291D01*
X19964863Y-18638577D01*
X20036291Y-18638577D02*
X20036291Y-18488577D01*
X20050577Y-18581434D02*
X20093434Y-18638577D01*
X20093434Y-18538577D02*
X20036291Y-18595720D01*
X20157720Y-18638577D02*
X20157720Y-18538577D01*
X20157720Y-18488577D02*
X20150577Y-18495720D01*
X20157720Y-18502863D01*
X20164863Y-18495720D01*
X20157720Y-18488577D01*
X20157720Y-18502863D01*
X20293434Y-18631434D02*
X20279149Y-18638577D01*
X20250577Y-18638577D01*
X20236291Y-18631434D01*
X20229149Y-18624291D01*
X20222006Y-18610006D01*
X20222006Y-18567149D01*
X20229149Y-18552863D01*
X20236291Y-18545720D01*
X20250577Y-18538577D01*
X20279149Y-18538577D01*
X20293434Y-18545720D01*
X20422006Y-18638577D02*
X20422006Y-18560006D01*
X20414863Y-18545720D01*
X20400577Y-18538577D01*
X20372006Y-18538577D01*
X20357720Y-18545720D01*
X20422006Y-18631434D02*
X20407720Y-18638577D01*
X20372006Y-18638577D01*
X20357720Y-18631434D01*
X20350577Y-18617149D01*
X20350577Y-18602863D01*
X20357720Y-18588577D01*
X20372006Y-18581434D01*
X20407720Y-18581434D01*
X20422006Y-18574291D01*
X20557720Y-18638577D02*
X20557720Y-18488577D01*
X20557720Y-18631434D02*
X20543434Y-18638577D01*
X20514863Y-18638577D01*
X20500577Y-18631434D01*
X20493434Y-18624291D01*
X20486291Y-18610006D01*
X20486291Y-18567149D01*
X20493434Y-18552863D01*
X20500577Y-18545720D01*
X20514863Y-18538577D01*
X20543434Y-18538577D01*
X20557720Y-18545720D01*
X20593434Y-18652863D02*
X20707720Y-18652863D01*
X20743434Y-18538577D02*
X20743434Y-18688577D01*
X20743434Y-18545720D02*
X20757720Y-18538577D01*
X20786291Y-18538577D01*
X20800577Y-18545720D01*
X20807720Y-18552863D01*
X20814863Y-18567149D01*
X20814863Y-18610006D01*
X20807720Y-18624291D01*
X20800577Y-18631434D01*
X20786291Y-18638577D01*
X20757720Y-18638577D01*
X20743434Y-18631434D01*
X20943434Y-18631434D02*
X20929149Y-18638577D01*
X20900577Y-18638577D01*
X20886291Y-18631434D01*
X20879149Y-18624291D01*
X20872006Y-18610006D01*
X20872006Y-18567149D01*
X20879149Y-18552863D01*
X20886291Y-18545720D01*
X20900577Y-18538577D01*
X20929149Y-18538577D01*
X20943434Y-18545720D01*
X21007720Y-18638577D02*
X21007720Y-18488577D01*
X21007720Y-18545720D02*
X21022006Y-18538577D01*
X21050577Y-18538577D01*
X21064863Y-18545720D01*
X21072006Y-18552863D01*
X21079149Y-18567149D01*
X21079149Y-18610006D01*
X21072006Y-18624291D01*
X21064863Y-18631434D01*
X21050577Y-18638577D01*
X21022006Y-18638577D01*
X21007720Y-18631434D01*
D10*
D11*
X17700220Y-18150720D02*
X28500220Y-18150720D01*
D10*
D11*
X17836291Y-18361434D02*
X17857720Y-18368577D01*
X17893434Y-18368577D01*
X17907720Y-18361434D01*
X17914863Y-18354291D01*
X17922006Y-18340006D01*
X17922006Y-18325720D01*
X17914863Y-18311434D01*
X17907720Y-18304291D01*
X17893434Y-18297149D01*
X17864863Y-18290006D01*
X17850577Y-18282863D01*
X17843434Y-18275720D01*
X17836291Y-18261434D01*
X17836291Y-18247149D01*
X17843434Y-18232863D01*
X17850577Y-18225720D01*
X17864863Y-18218577D01*
X17900577Y-18218577D01*
X17922006Y-18225720D01*
X17986291Y-18368577D02*
X17986291Y-18218577D01*
X18050577Y-18368577D02*
X18050577Y-18290006D01*
X18043434Y-18275720D01*
X18029149Y-18268577D01*
X18007720Y-18268577D01*
X17993434Y-18275720D01*
X17986291Y-18282863D01*
X18179149Y-18361434D02*
X18164863Y-18368577D01*
X18136291Y-18368577D01*
X18122006Y-18361434D01*
X18114863Y-18347149D01*
X18114863Y-18290006D01*
X18122006Y-18275720D01*
X18136291Y-18268577D01*
X18164863Y-18268577D01*
X18179149Y-18275720D01*
X18186291Y-18290006D01*
X18186291Y-18304291D01*
X18114863Y-18318577D01*
X18307720Y-18361434D02*
X18293434Y-18368577D01*
X18264863Y-18368577D01*
X18250577Y-18361434D01*
X18243434Y-18347149D01*
X18243434Y-18290006D01*
X18250577Y-18275720D01*
X18264863Y-18268577D01*
X18293434Y-18268577D01*
X18307720Y-18275720D01*
X18314863Y-18290006D01*
X18314863Y-18304291D01*
X18243434Y-18318577D01*
X18357720Y-18268577D02*
X18414863Y-18268577D01*
X18379149Y-18218577D02*
X18379149Y-18347149D01*
X18386291Y-18361434D01*
X18400577Y-18368577D01*
X18414863Y-18368577D01*
X18464863Y-18354291D02*
X18472006Y-18361434D01*
X18464863Y-18368577D01*
X18457720Y-18361434D01*
X18464863Y-18354291D01*
X18464863Y-18368577D01*
X18464863Y-18275720D02*
X18472006Y-18282863D01*
X18464863Y-18290006D01*
X18457720Y-18282863D01*
X18464863Y-18275720D01*
X18464863Y-18290006D01*
D10*
D11*
X19700220Y-19150720D02*
X19700220Y-19450720D01*
D10*
D11*
X26100220Y-19150720D02*
X26100220Y-19800720D01*
D14*
X11154064Y-7969767D02*
G75*
G03X11154064Y-7969767I-1000J0D01*
G01*
X11066312Y-7961029D02*
X11065359Y-7961029D01*
X11064883Y-7961267D01*
X11064645Y-7961505D01*
X11064169Y-7962219D01*
X11063931Y-7963172D01*
X11063931Y-7965076D01*
X11064169Y-7965553D01*
X11064407Y-7965791D01*
X11064883Y-7966029D01*
X11065835Y-7966029D01*
X11066312Y-7965791D01*
X11066550Y-7965553D01*
X11066788Y-7965076D01*
X11066788Y-7963886D01*
X11066550Y-7963410D01*
X11066312Y-7963172D01*
X11065835Y-7962934D01*
X11064883Y-7962934D01*
X11064407Y-7963172D01*
X11064169Y-7963410D01*
X11063931Y-7963886D01*
X11069883Y-7961029D02*
X11070359Y-7961029D01*
X11070835Y-7961267D01*
X11071074Y-7961505D01*
X11071312Y-7961981D01*
X11071550Y-7962934D01*
X11071550Y-7964124D01*
X11071312Y-7965076D01*
X11071074Y-7965553D01*
X11070835Y-7965791D01*
X11070359Y-7966029D01*
X11069883Y-7966029D01*
X11069407Y-7965791D01*
X11069169Y-7965553D01*
X11068931Y-7965076D01*
X11068693Y-7964124D01*
X11068693Y-7962934D01*
X11068931Y-7961981D01*
X11069169Y-7961505D01*
X11069407Y-7961267D01*
X11069883Y-7961029D01*
X11073693Y-7965553D02*
X11073931Y-7965791D01*
X11073693Y-7966029D01*
X11073454Y-7965791D01*
X11073693Y-7965553D01*
X11073693Y-7966029D01*
X11078454Y-7961029D02*
X11076074Y-7961029D01*
X11075835Y-7963410D01*
X11076074Y-7963172D01*
X11076550Y-7962934D01*
X11077740Y-7962934D01*
X11078216Y-7963172D01*
X11078454Y-7963410D01*
X11078693Y-7963886D01*
X11078693Y-7965076D01*
X11078454Y-7965553D01*
X11078216Y-7965791D01*
X11077740Y-7966029D01*
X11076550Y-7966029D01*
X11076074Y-7965791D01*
X11075835Y-7965553D01*
X11080359Y-7961029D02*
X11083693Y-7961029D01*
X11081550Y-7966029D01*
X11085835Y-7966029D02*
X11086788Y-7966029D01*
X11087264Y-7965791D01*
X11087502Y-7965553D01*
X11087978Y-7964838D01*
X11088216Y-7963886D01*
X11088216Y-7961981D01*
X11087978Y-7961505D01*
X11087740Y-7961267D01*
X11087264Y-7961029D01*
X11086312Y-7961029D01*
X11085835Y-7961267D01*
X11085597Y-7961505D01*
X11085359Y-7961981D01*
X11085359Y-7963172D01*
X11085597Y-7963648D01*
X11085835Y-7963886D01*
X11086312Y-7964124D01*
X11087264Y-7964124D01*
X11087740Y-7963886D01*
X11087978Y-7963648D01*
X11088216Y-7963172D01*
X11090597Y-7965791D02*
X11090597Y-7966029D01*
X11090359Y-7966505D01*
X11090121Y-7966743D01*
X11098693Y-7962695D02*
X11098693Y-7966029D01*
X11097502Y-7960791D02*
X11096312Y-7964362D01*
X11099407Y-7964362D01*
X11101550Y-7966029D02*
X11102502Y-7966029D01*
X11102978Y-7965791D01*
X11103216Y-7965553D01*
X11103693Y-7964838D01*
X11103931Y-7963886D01*
X11103931Y-7961981D01*
X11103693Y-7961505D01*
X11103454Y-7961267D01*
X11102978Y-7961029D01*
X11102026Y-7961029D01*
X11101550Y-7961267D01*
X11101312Y-7961505D01*
X11101074Y-7961981D01*
X11101074Y-7963172D01*
X11101312Y-7963648D01*
X11101550Y-7963886D01*
X11102026Y-7964124D01*
X11102978Y-7964124D01*
X11103454Y-7963886D01*
X11103693Y-7963648D01*
X11103931Y-7963172D01*
X11106074Y-7965553D02*
X11106312Y-7965791D01*
X11106074Y-7966029D01*
X11105835Y-7965791D01*
X11106074Y-7965553D01*
X11106074Y-7966029D01*
X11109407Y-7961029D02*
X11109883Y-7961029D01*
X11110359Y-7961267D01*
X11110597Y-7961505D01*
X11110835Y-7961981D01*
X11111074Y-7962934D01*
X11111074Y-7964124D01*
X11110835Y-7965076D01*
X11110597Y-7965553D01*
X11110359Y-7965791D01*
X11109883Y-7966029D01*
X11109407Y-7966029D01*
X11108931Y-7965791D01*
X11108693Y-7965553D01*
X11108454Y-7965076D01*
X11108216Y-7964124D01*
X11108216Y-7962934D01*
X11108454Y-7961981D01*
X11108693Y-7961505D01*
X11108931Y-7961267D01*
X11109407Y-7961029D01*
X11112978Y-7961505D02*
X11113216Y-7961267D01*
X11113693Y-7961029D01*
X11114883Y-7961029D01*
X11115359Y-7961267D01*
X11115597Y-7961505D01*
X11115835Y-7961981D01*
X11115835Y-7962457D01*
X11115597Y-7963172D01*
X11112740Y-7966029D01*
X11115835Y-7966029D01*
X11117740Y-7961505D02*
X11117978Y-7961267D01*
X11118454Y-7961029D01*
X11119645Y-7961029D01*
X11120121Y-7961267D01*
X11120359Y-7961505D01*
X11120597Y-7961981D01*
X11120597Y-7962457D01*
X11120359Y-7963172D01*
X11117502Y-7966029D01*
X11120597Y-7966029D01*
X17980848Y-9420943D02*
G75*
G03X17980848Y-9420943I-1000J0D01*
G01*
X17988586Y-9334191D02*
X17988586Y-9333238D01*
X17988348Y-9332762D01*
X17988110Y-9332524D01*
X17987396Y-9332048D01*
X17986443Y-9331810D01*
X17984538Y-9331810D01*
X17984062Y-9332048D01*
X17983824Y-9332286D01*
X17983586Y-9332762D01*
X17983586Y-9333714D01*
X17983824Y-9334191D01*
X17984062Y-9334429D01*
X17984538Y-9334667D01*
X17985729Y-9334667D01*
X17986205Y-9334429D01*
X17986443Y-9334191D01*
X17986681Y-9333714D01*
X17986681Y-9332762D01*
X17986443Y-9332286D01*
X17986205Y-9332048D01*
X17985729Y-9331810D01*
X17988586Y-9337762D02*
X17988586Y-9338238D01*
X17988348Y-9338714D01*
X17988110Y-9338953D01*
X17987634Y-9339191D01*
X17986681Y-9339429D01*
X17985491Y-9339429D01*
X17984538Y-9339191D01*
X17984062Y-9338953D01*
X17983824Y-9338714D01*
X17983586Y-9338238D01*
X17983586Y-9337762D01*
X17983824Y-9337286D01*
X17984062Y-9337048D01*
X17984538Y-9336810D01*
X17985491Y-9336572D01*
X17986681Y-9336572D01*
X17987634Y-9336810D01*
X17988110Y-9337048D01*
X17988348Y-9337286D01*
X17988586Y-9337762D01*
X17984062Y-9341572D02*
X17983824Y-9341810D01*
X17983586Y-9341572D01*
X17983824Y-9341333D01*
X17984062Y-9341572D01*
X17983586Y-9341572D01*
X17988586Y-9346333D02*
X17988586Y-9343953D01*
X17986205Y-9343714D01*
X17986443Y-9343953D01*
X17986681Y-9344429D01*
X17986681Y-9345619D01*
X17986443Y-9346095D01*
X17986205Y-9346333D01*
X17985729Y-9346572D01*
X17984538Y-9346572D01*
X17984062Y-9346333D01*
X17983824Y-9346095D01*
X17983586Y-9345619D01*
X17983586Y-9344429D01*
X17983824Y-9343953D01*
X17984062Y-9343714D01*
X17988586Y-9348238D02*
X17988586Y-9351572D01*
X17983586Y-9349429D01*
X17983586Y-9353714D02*
X17983586Y-9354667D01*
X17983824Y-9355143D01*
X17984062Y-9355381D01*
X17984777Y-9355857D01*
X17985729Y-9356095D01*
X17987634Y-9356095D01*
X17988110Y-9355857D01*
X17988348Y-9355619D01*
X17988586Y-9355143D01*
X17988586Y-9354191D01*
X17988348Y-9353714D01*
X17988110Y-9353476D01*
X17987634Y-9353238D01*
X17986443Y-9353238D01*
X17985967Y-9353476D01*
X17985729Y-9353714D01*
X17985491Y-9354191D01*
X17985491Y-9355143D01*
X17985729Y-9355619D01*
X17985967Y-9355857D01*
X17986443Y-9356095D01*
X17983824Y-9358476D02*
X17983586Y-9358476D01*
X17983110Y-9358238D01*
X17982872Y-9358000D01*
X17986919Y-9366572D02*
X17983586Y-9366572D01*
X17988824Y-9365381D02*
X17985253Y-9364191D01*
X17985253Y-9367286D01*
X17983586Y-9369429D02*
X17983586Y-9370381D01*
X17983824Y-9370857D01*
X17984062Y-9371095D01*
X17984777Y-9371572D01*
X17985729Y-9371810D01*
X17987634Y-9371810D01*
X17988110Y-9371572D01*
X17988348Y-9371333D01*
X17988586Y-9370857D01*
X17988586Y-9369905D01*
X17988348Y-9369429D01*
X17988110Y-9369191D01*
X17987634Y-9368953D01*
X17986443Y-9368953D01*
X17985967Y-9369191D01*
X17985729Y-9369429D01*
X17985491Y-9369905D01*
X17985491Y-9370857D01*
X17985729Y-9371333D01*
X17985967Y-9371572D01*
X17986443Y-9371810D01*
X17984062Y-9373953D02*
X17983824Y-9374191D01*
X17983586Y-9373953D01*
X17983824Y-9373714D01*
X17984062Y-9373953D01*
X17983586Y-9373953D01*
X17988586Y-9377286D02*
X17988586Y-9377762D01*
X17988348Y-9378238D01*
X17988110Y-9378476D01*
X17987634Y-9378714D01*
X17986681Y-9378953D01*
X17985491Y-9378953D01*
X17984538Y-9378714D01*
X17984062Y-9378476D01*
X17983824Y-9378238D01*
X17983586Y-9377762D01*
X17983586Y-9377286D01*
X17983824Y-9376810D01*
X17984062Y-9376572D01*
X17984538Y-9376333D01*
X17985491Y-9376095D01*
X17986681Y-9376095D01*
X17987634Y-9376333D01*
X17988110Y-9376572D01*
X17988348Y-9376810D01*
X17988586Y-9377286D01*
X17988110Y-9380857D02*
X17988348Y-9381095D01*
X17988586Y-9381572D01*
X17988586Y-9382762D01*
X17988348Y-9383238D01*
X17988110Y-9383476D01*
X17987634Y-9383714D01*
X17987158Y-9383714D01*
X17986443Y-9383476D01*
X17983586Y-9380619D01*
X17983586Y-9383714D01*
X17988110Y-9385619D02*
X17988348Y-9385857D01*
X17988586Y-9386333D01*
X17988586Y-9387524D01*
X17988348Y-9388000D01*
X17988110Y-9388238D01*
X17987634Y-9388476D01*
X17987158Y-9388476D01*
X17986443Y-9388238D01*
X17983586Y-9385381D01*
X17983586Y-9388476D01*
%TO.C,U28*%
D10*
X14627686Y-10355153D02*
X14637210Y-10355153D01*
X14641972Y-10357534D01*
X14646734Y-10362296D01*
X14649115Y-10371820D01*
X14649115Y-10388486D01*
X14646734Y-10398010D01*
X14641972Y-10402772D01*
X14637210Y-10405153D01*
X14627686Y-10405153D01*
X14622924Y-10402772D01*
X14618162Y-10398010D01*
X14615781Y-10388486D01*
X14615781Y-10371820D01*
X14618162Y-10362296D01*
X14622924Y-10357534D01*
X14627686Y-10355153D01*
%TO.C,U29*%
X14621686Y-9598153D02*
X14631210Y-9598153D01*
X14635972Y-9600534D01*
X14640734Y-9605296D01*
X14643115Y-9614820D01*
X14643115Y-9631486D01*
X14640734Y-9641010D01*
X14635972Y-9645772D01*
X14631210Y-9648153D01*
X14621686Y-9648153D01*
X14616924Y-9645772D01*
X14612162Y-9641010D01*
X14609781Y-9631486D01*
X14609781Y-9614820D01*
X14612162Y-9605296D01*
X14616924Y-9600534D01*
X14621686Y-9598153D01*
%TO.C,U30*%
X14875686Y-10106153D02*
X14885210Y-10106153D01*
X14889972Y-10108534D01*
X14894734Y-10113296D01*
X14897115Y-10122820D01*
X14897115Y-10139486D01*
X14894734Y-10149010D01*
X14889972Y-10153772D01*
X14885210Y-10156153D01*
X14875686Y-10156153D01*
X14870924Y-10153772D01*
X14866162Y-10149010D01*
X14863781Y-10139486D01*
X14863781Y-10122820D01*
X14866162Y-10113296D01*
X14870924Y-10108534D01*
X14875686Y-10106153D01*
%TO.C,U7*%
X9298274Y-11073929D02*
X9298274Y-11064405D01*
X9300655Y-11059643D01*
X9305417Y-11054881D01*
X9314941Y-11052500D01*
X9331607Y-11052500D01*
X9341131Y-11054881D01*
X9345893Y-11059643D01*
X9348274Y-11064405D01*
X9348274Y-11073929D01*
X9345893Y-11078691D01*
X9341131Y-11083453D01*
X9331607Y-11085834D01*
X9314941Y-11085834D01*
X9305417Y-11083453D01*
X9300655Y-11078691D01*
X9298274Y-11073929D01*
%TO.C,U9*%
X12087274Y-11067929D02*
X12087274Y-11058405D01*
X12089655Y-11053643D01*
X12094417Y-11048881D01*
X12103941Y-11046500D01*
X12120607Y-11046500D01*
X12130131Y-11048881D01*
X12134893Y-11053643D01*
X12137274Y-11058405D01*
X12137274Y-11067929D01*
X12134893Y-11072691D01*
X12130131Y-11077453D01*
X12120607Y-11079834D01*
X12103941Y-11079834D01*
X12094417Y-11077453D01*
X12089655Y-11072691D01*
X12087274Y-11067929D01*
%TO.C,U10*%
X11833274Y-9543929D02*
X11833274Y-9534405D01*
X11835655Y-9529643D01*
X11840417Y-9524881D01*
X11849941Y-9522500D01*
X11866607Y-9522500D01*
X11876131Y-9524881D01*
X11880893Y-9529643D01*
X11883274Y-9534405D01*
X11883274Y-9543929D01*
X11880893Y-9548691D01*
X11876131Y-9553453D01*
X11866607Y-9555834D01*
X11849941Y-9555834D01*
X11840417Y-9553453D01*
X11835655Y-9548691D01*
X11833274Y-9543929D01*
%TO.C,U11*%
X11579274Y-10559929D02*
X11579274Y-10550405D01*
X11581655Y-10545643D01*
X11586417Y-10540881D01*
X11595941Y-10538500D01*
X11612607Y-10538500D01*
X11622131Y-10540881D01*
X11626893Y-10545643D01*
X11629274Y-10550405D01*
X11629274Y-10559929D01*
X11626893Y-10564691D01*
X11622131Y-10569453D01*
X11612607Y-10571834D01*
X11595941Y-10571834D01*
X11586417Y-10569453D01*
X11581655Y-10564691D01*
X11579274Y-10559929D01*
%TO.C,U25*%
X14627686Y-10101153D02*
X14637210Y-10101153D01*
X14641972Y-10103534D01*
X14646734Y-10108296D01*
X14649115Y-10117820D01*
X14649115Y-10134486D01*
X14646734Y-10144010D01*
X14641972Y-10148772D01*
X14637210Y-10151153D01*
X14627686Y-10151153D01*
X14622924Y-10148772D01*
X14618162Y-10144010D01*
X14615781Y-10134486D01*
X14615781Y-10117820D01*
X14618162Y-10108296D01*
X14622924Y-10103534D01*
X14627686Y-10101153D01*
%TO.C,U18*%
X15646686Y-9870153D02*
X15656210Y-9870153D01*
X15660972Y-9872534D01*
X15665734Y-9877296D01*
X15668115Y-9886820D01*
X15668115Y-9903486D01*
X15665734Y-9913010D01*
X15660972Y-9917772D01*
X15656210Y-9920153D01*
X15646686Y-9920153D01*
X15641924Y-9917772D01*
X15637162Y-9913010D01*
X15634781Y-9903486D01*
X15634781Y-9886820D01*
X15637162Y-9877296D01*
X15641924Y-9872534D01*
X15646686Y-9870153D01*
%TO.C,U21*%
X14881686Y-9847153D02*
X14891210Y-9847153D01*
X14895972Y-9849534D01*
X14900734Y-9854296D01*
X14903115Y-9863820D01*
X14903115Y-9880486D01*
X14900734Y-9890010D01*
X14895972Y-9894772D01*
X14891210Y-9897153D01*
X14881686Y-9897153D01*
X14876924Y-9894772D01*
X14872162Y-9890010D01*
X14869781Y-9880486D01*
X14869781Y-9863820D01*
X14872162Y-9854296D01*
X14876924Y-9849534D01*
X14881686Y-9847153D01*
%TO.C,U1*%
X16391686Y-7566153D02*
X16401210Y-7566153D01*
X16405972Y-7568534D01*
X16410734Y-7573296D01*
X16413115Y-7582820D01*
X16413115Y-7599486D01*
X16410734Y-7609010D01*
X16405972Y-7613772D01*
X16401210Y-7616153D01*
X16391686Y-7616153D01*
X16386924Y-7613772D01*
X16382162Y-7609010D01*
X16379781Y-7599486D01*
X16379781Y-7582820D01*
X16382162Y-7573296D01*
X16386924Y-7568534D01*
X16391686Y-7566153D01*
%TO.C,U2*%
X15391686Y-7566153D02*
X15401210Y-7566153D01*
X15405972Y-7568534D01*
X15410734Y-7573296D01*
X15413115Y-7582820D01*
X15413115Y-7599486D01*
X15410734Y-7609010D01*
X15405972Y-7613772D01*
X15401210Y-7616153D01*
X15391686Y-7616153D01*
X15386924Y-7613772D01*
X15382162Y-7609010D01*
X15379781Y-7599486D01*
X15379781Y-7582820D01*
X15382162Y-7573296D01*
X15386924Y-7568534D01*
X15391686Y-7566153D01*
%TO.C,U3*%
X16151686Y-7561153D02*
X16161210Y-7561153D01*
X16165972Y-7563534D01*
X16170734Y-7568296D01*
X16173115Y-7577820D01*
X16173115Y-7594486D01*
X16170734Y-7604010D01*
X16165972Y-7608772D01*
X16161210Y-7611153D01*
X16151686Y-7611153D01*
X16146924Y-7608772D01*
X16142162Y-7604010D01*
X16139781Y-7594486D01*
X16139781Y-7577820D01*
X16142162Y-7568296D01*
X16146924Y-7563534D01*
X16151686Y-7561153D01*
%TO.C,Cap_4*%
X11090560Y-7941786D02*
X11061988Y-7941786D01*
X11076274Y-7941786D02*
X11076274Y-7891786D01*
X11071512Y-7898929D01*
X11066750Y-7903691D01*
X11061988Y-7906072D01*
X11109607Y-7896548D02*
X11111988Y-7894167D01*
X11116750Y-7891786D01*
X11128655Y-7891786D01*
X11133417Y-7894167D01*
X11135798Y-7896548D01*
X11138179Y-7901310D01*
X11138179Y-7906072D01*
X11135798Y-7913215D01*
X11107226Y-7941786D01*
X11138179Y-7941786D01*
X11169131Y-7891786D02*
X11173893Y-7891786D01*
X11178655Y-7894167D01*
X11181036Y-7896548D01*
X11183417Y-7901310D01*
X11185798Y-7910834D01*
X11185798Y-7922738D01*
X11183417Y-7932262D01*
X11181036Y-7937024D01*
X11178655Y-7939405D01*
X11173893Y-7941786D01*
X11169131Y-7941786D01*
X11164369Y-7939405D01*
X11161988Y-7937024D01*
X11159607Y-7932262D01*
X11157226Y-7922738D01*
X11157226Y-7910834D01*
X11159607Y-7901310D01*
X11161988Y-7896548D01*
X11164369Y-7894167D01*
X11169131Y-7891786D01*
X11228655Y-7891786D02*
X11219131Y-7891786D01*
X11214369Y-7894167D01*
X11211988Y-7896548D01*
X11207226Y-7903691D01*
X11204845Y-7913215D01*
X11204845Y-7932262D01*
X11207226Y-7937024D01*
X11209607Y-7939405D01*
X11214369Y-7941786D01*
X11223893Y-7941786D01*
X11228655Y-7939405D01*
X11231036Y-7937024D01*
X11233417Y-7932262D01*
X11233417Y-7920357D01*
X11231036Y-7915595D01*
X11228655Y-7913215D01*
X11223893Y-7910834D01*
X11214369Y-7910834D01*
X11209607Y-7913215D01*
X11207226Y-7915595D01*
X11204845Y-7920357D01*
X11242941Y-7946548D02*
X11281036Y-7946548D01*
X11314369Y-7939405D02*
X11309607Y-7941786D01*
X11300083Y-7941786D01*
X11295322Y-7939405D01*
X11292941Y-7937024D01*
X11290560Y-7932262D01*
X11290560Y-7917976D01*
X11292941Y-7913215D01*
X11295322Y-7910834D01*
X11300083Y-7908453D01*
X11309607Y-7908453D01*
X11314369Y-7910834D01*
X11357226Y-7941786D02*
X11357226Y-7915595D01*
X11354845Y-7910834D01*
X11350083Y-7908453D01*
X11340560Y-7908453D01*
X11335798Y-7910834D01*
X11357226Y-7939405D02*
X11352464Y-7941786D01*
X11340560Y-7941786D01*
X11335798Y-7939405D01*
X11333417Y-7934643D01*
X11333417Y-7929881D01*
X11335798Y-7925119D01*
X11340560Y-7922738D01*
X11352464Y-7922738D01*
X11357226Y-7920357D01*
X11381036Y-7908453D02*
X11381036Y-7958453D01*
X11381036Y-7910834D02*
X11385798Y-7908453D01*
X11395322Y-7908453D01*
X11400083Y-7910834D01*
X11402464Y-7913215D01*
X11404845Y-7917976D01*
X11404845Y-7932262D01*
X11402464Y-7937024D01*
X11400083Y-7939405D01*
X11395322Y-7941786D01*
X11385798Y-7941786D01*
X11381036Y-7939405D01*
X11414369Y-7946548D02*
X11452464Y-7946548D01*
X11461988Y-7939405D02*
X11466750Y-7941786D01*
X11476274Y-7941786D01*
X11481036Y-7939405D01*
X11483417Y-7934643D01*
X11483417Y-7932262D01*
X11481036Y-7927500D01*
X11476274Y-7925119D01*
X11469131Y-7925119D01*
X11464369Y-7922738D01*
X11461988Y-7917976D01*
X11461988Y-7915595D01*
X11464369Y-7910834D01*
X11469131Y-7908453D01*
X11476274Y-7908453D01*
X11481036Y-7910834D01*
X11504845Y-7941786D02*
X11504845Y-7908453D01*
X11504845Y-7913215D02*
X11507226Y-7910834D01*
X11511988Y-7908453D01*
X11519131Y-7908453D01*
X11523893Y-7910834D01*
X11526274Y-7915595D01*
X11526274Y-7941786D01*
X11526274Y-7915595D02*
X11528655Y-7910834D01*
X11533417Y-7908453D01*
X11540560Y-7908453D01*
X11545322Y-7910834D01*
X11547703Y-7915595D01*
X11547703Y-7941786D01*
X11592941Y-7941786D02*
X11592941Y-7891786D01*
X11592941Y-7939405D02*
X11588179Y-7941786D01*
X11578655Y-7941786D01*
X11573893Y-7939405D01*
X11571512Y-7937024D01*
X11569131Y-7932262D01*
X11569131Y-7917976D01*
X11571512Y-7913215D01*
X11573893Y-7910834D01*
X11578655Y-7908453D01*
X11588179Y-7908453D01*
X11592941Y-7910834D01*
X18053067Y-9834629D02*
X18053067Y-9863201D01*
X18053067Y-9848915D02*
X18003067Y-9848915D01*
X18010210Y-9853677D01*
X18014972Y-9858439D01*
X18017353Y-9863201D01*
X18007829Y-9815582D02*
X18005448Y-9813201D01*
X18003067Y-9808439D01*
X18003067Y-9796534D01*
X18005448Y-9791772D01*
X18007829Y-9789391D01*
X18012591Y-9787010D01*
X18017353Y-9787010D01*
X18024496Y-9789391D01*
X18053067Y-9817963D01*
X18053067Y-9787010D01*
X18003067Y-9756058D02*
X18003067Y-9751296D01*
X18005448Y-9746534D01*
X18007829Y-9744153D01*
X18012591Y-9741772D01*
X18022115Y-9739391D01*
X18034019Y-9739391D01*
X18043543Y-9741772D01*
X18048305Y-9744153D01*
X18050686Y-9746534D01*
X18053067Y-9751296D01*
X18053067Y-9756058D01*
X18050686Y-9760820D01*
X18048305Y-9763201D01*
X18043543Y-9765582D01*
X18034019Y-9767963D01*
X18022115Y-9767963D01*
X18012591Y-9765582D01*
X18007829Y-9763201D01*
X18005448Y-9760820D01*
X18003067Y-9756058D01*
X18003067Y-9696534D02*
X18003067Y-9706058D01*
X18005448Y-9710820D01*
X18007829Y-9713201D01*
X18014972Y-9717963D01*
X18024496Y-9720344D01*
X18043543Y-9720344D01*
X18048305Y-9717963D01*
X18050686Y-9715582D01*
X18053067Y-9710820D01*
X18053067Y-9701296D01*
X18050686Y-9696534D01*
X18048305Y-9694153D01*
X18043543Y-9691772D01*
X18031638Y-9691772D01*
X18026877Y-9694153D01*
X18024496Y-9696534D01*
X18022115Y-9701296D01*
X18022115Y-9710820D01*
X18024496Y-9715582D01*
X18026877Y-9717963D01*
X18031638Y-9720344D01*
X18057829Y-9682248D02*
X18057829Y-9644153D01*
X18050686Y-9610820D02*
X18053067Y-9615582D01*
X18053067Y-9625105D01*
X18050686Y-9629867D01*
X18048305Y-9632248D01*
X18043543Y-9634629D01*
X18029258Y-9634629D01*
X18024496Y-9632248D01*
X18022115Y-9629867D01*
X18019734Y-9625105D01*
X18019734Y-9615582D01*
X18022115Y-9610820D01*
X18053067Y-9567963D02*
X18026877Y-9567963D01*
X18022115Y-9570344D01*
X18019734Y-9575105D01*
X18019734Y-9584629D01*
X18022115Y-9589391D01*
X18050686Y-9567963D02*
X18053067Y-9572724D01*
X18053067Y-9584629D01*
X18050686Y-9589391D01*
X18045924Y-9591772D01*
X18041162Y-9591772D01*
X18036400Y-9589391D01*
X18034019Y-9584629D01*
X18034019Y-9572724D01*
X18031638Y-9567963D01*
X18019734Y-9544153D02*
X18069734Y-9544153D01*
X18022115Y-9544153D02*
X18019734Y-9539391D01*
X18019734Y-9529867D01*
X18022115Y-9525105D01*
X18024496Y-9522724D01*
X18029258Y-9520344D01*
X18043543Y-9520344D01*
X18048305Y-9522724D01*
X18050686Y-9525105D01*
X18053067Y-9529867D01*
X18053067Y-9539391D01*
X18050686Y-9544153D01*
X18057829Y-9510820D02*
X18057829Y-9472724D01*
X18050686Y-9463201D02*
X18053067Y-9458439D01*
X18053067Y-9448915D01*
X18050686Y-9444153D01*
X18045924Y-9441772D01*
X18043543Y-9441772D01*
X18038781Y-9444153D01*
X18036400Y-9448915D01*
X18036400Y-9456058D01*
X18034019Y-9460820D01*
X18029258Y-9463201D01*
X18026877Y-9463201D01*
X18022115Y-9460820D01*
X18019734Y-9456058D01*
X18019734Y-9448915D01*
X18022115Y-9444153D01*
X18053067Y-9420344D02*
X18019734Y-9420344D01*
X18024496Y-9420344D02*
X18022115Y-9417963D01*
X18019734Y-9413201D01*
X18019734Y-9406058D01*
X18022115Y-9401296D01*
X18026877Y-9398915D01*
X18053067Y-9398915D01*
X18026877Y-9398915D02*
X18022115Y-9396534D01*
X18019734Y-9391772D01*
X18019734Y-9384629D01*
X18022115Y-9379867D01*
X18026877Y-9377486D01*
X18053067Y-9377486D01*
X18053067Y-9332248D02*
X18003067Y-9332248D01*
X18050686Y-9332248D02*
X18053067Y-9337010D01*
X18053067Y-9346534D01*
X18050686Y-9351296D01*
X18048305Y-9353677D01*
X18043543Y-9356058D01*
X18029258Y-9356058D01*
X18024496Y-9353677D01*
X18022115Y-9351296D01*
X18019734Y-9346534D01*
X18019734Y-9337010D01*
X18022115Y-9332248D01*
%TO.C,U102*%
X15897686Y-9598153D02*
X15907210Y-9598153D01*
X15911972Y-9600534D01*
X15916734Y-9605296D01*
X15919115Y-9614820D01*
X15919115Y-9631486D01*
X15916734Y-9641010D01*
X15911972Y-9645772D01*
X15907210Y-9648153D01*
X15897686Y-9648153D01*
X15892924Y-9645772D01*
X15888162Y-9641010D01*
X15885781Y-9631486D01*
X15885781Y-9614820D01*
X15888162Y-9605296D01*
X15892924Y-9600534D01*
X15897686Y-9598153D01*
%TO.C,Cap_3*%
X17148067Y-10255129D02*
X17148067Y-10283701D01*
X17148067Y-10269415D02*
X17098067Y-10269415D01*
X17105210Y-10274177D01*
X17109972Y-10278939D01*
X17112353Y-10283701D01*
X17102829Y-10236082D02*
X17100448Y-10233701D01*
X17098067Y-10228939D01*
X17098067Y-10217034D01*
X17100448Y-10212272D01*
X17102829Y-10209891D01*
X17107591Y-10207510D01*
X17112353Y-10207510D01*
X17119496Y-10209891D01*
X17148067Y-10238463D01*
X17148067Y-10207510D01*
X17098067Y-10176558D02*
X17098067Y-10171796D01*
X17100448Y-10167034D01*
X17102829Y-10164653D01*
X17107591Y-10162272D01*
X17117115Y-10159891D01*
X17129019Y-10159891D01*
X17138543Y-10162272D01*
X17143305Y-10164653D01*
X17145686Y-10167034D01*
X17148067Y-10171796D01*
X17148067Y-10176558D01*
X17145686Y-10181320D01*
X17143305Y-10183701D01*
X17138543Y-10186082D01*
X17129019Y-10188463D01*
X17117115Y-10188463D01*
X17107591Y-10186082D01*
X17102829Y-10183701D01*
X17100448Y-10181320D01*
X17098067Y-10176558D01*
X17098067Y-10117034D02*
X17098067Y-10126558D01*
X17100448Y-10131320D01*
X17102829Y-10133701D01*
X17109972Y-10138463D01*
X17119496Y-10140844D01*
X17138543Y-10140844D01*
X17143305Y-10138463D01*
X17145686Y-10136082D01*
X17148067Y-10131320D01*
X17148067Y-10121796D01*
X17145686Y-10117034D01*
X17143305Y-10114653D01*
X17138543Y-10112272D01*
X17126638Y-10112272D01*
X17121877Y-10114653D01*
X17119496Y-10117034D01*
X17117115Y-10121796D01*
X17117115Y-10131320D01*
X17119496Y-10136082D01*
X17121877Y-10138463D01*
X17126638Y-10140844D01*
X17152829Y-10102748D02*
X17152829Y-10064653D01*
X17145686Y-10031320D02*
X17148067Y-10036082D01*
X17148067Y-10045605D01*
X17145686Y-10050367D01*
X17143305Y-10052748D01*
X17138543Y-10055129D01*
X17124258Y-10055129D01*
X17119496Y-10052748D01*
X17117115Y-10050367D01*
X17114734Y-10045605D01*
X17114734Y-10036082D01*
X17117115Y-10031320D01*
X17148067Y-9988463D02*
X17121877Y-9988463D01*
X17117115Y-9990844D01*
X17114734Y-9995605D01*
X17114734Y-10005129D01*
X17117115Y-10009891D01*
X17145686Y-9988463D02*
X17148067Y-9993224D01*
X17148067Y-10005129D01*
X17145686Y-10009891D01*
X17140924Y-10012272D01*
X17136162Y-10012272D01*
X17131400Y-10009891D01*
X17129019Y-10005129D01*
X17129019Y-9993224D01*
X17126638Y-9988463D01*
X17114734Y-9964653D02*
X17164734Y-9964653D01*
X17117115Y-9964653D02*
X17114734Y-9959891D01*
X17114734Y-9950367D01*
X17117115Y-9945605D01*
X17119496Y-9943224D01*
X17124258Y-9940844D01*
X17138543Y-9940844D01*
X17143305Y-9943224D01*
X17145686Y-9945605D01*
X17148067Y-9950367D01*
X17148067Y-9959891D01*
X17145686Y-9964653D01*
X17152829Y-9931320D02*
X17152829Y-9893224D01*
X17145686Y-9883701D02*
X17148067Y-9878939D01*
X17148067Y-9869415D01*
X17145686Y-9864653D01*
X17140924Y-9862272D01*
X17138543Y-9862272D01*
X17133781Y-9864653D01*
X17131400Y-9869415D01*
X17131400Y-9876558D01*
X17129019Y-9881320D01*
X17124258Y-9883701D01*
X17121877Y-9883701D01*
X17117115Y-9881320D01*
X17114734Y-9876558D01*
X17114734Y-9869415D01*
X17117115Y-9864653D01*
X17148067Y-9840844D02*
X17114734Y-9840844D01*
X17119496Y-9840844D02*
X17117115Y-9838463D01*
X17114734Y-9833701D01*
X17114734Y-9826558D01*
X17117115Y-9821796D01*
X17121877Y-9819415D01*
X17148067Y-9819415D01*
X17121877Y-9819415D02*
X17117115Y-9817034D01*
X17114734Y-9812272D01*
X17114734Y-9805129D01*
X17117115Y-9800367D01*
X17121877Y-9797986D01*
X17148067Y-9797986D01*
X17148067Y-9752748D02*
X17098067Y-9752748D01*
X17145686Y-9752748D02*
X17148067Y-9757510D01*
X17148067Y-9767034D01*
X17145686Y-9771796D01*
X17143305Y-9774177D01*
X17138543Y-9776558D01*
X17124258Y-9776558D01*
X17119496Y-9774177D01*
X17117115Y-9771796D01*
X17114734Y-9767034D01*
X17114734Y-9757510D01*
X17117115Y-9752748D01*
%TO.C,U8*%
X10060274Y-11073929D02*
X10060274Y-11064405D01*
X10062655Y-11059643D01*
X10067417Y-11054881D01*
X10076941Y-11052500D01*
X10093607Y-11052500D01*
X10103131Y-11054881D01*
X10107893Y-11059643D01*
X10110274Y-11064405D01*
X10110274Y-11073929D01*
X10107893Y-11078691D01*
X10103131Y-11083453D01*
X10093607Y-11085834D01*
X10076941Y-11085834D01*
X10067417Y-11083453D01*
X10062655Y-11078691D01*
X10060274Y-11073929D01*
%TO.C,Cap_2*%
X16523353Y-9654153D02*
X16494781Y-9654153D01*
X16509067Y-9654153D02*
X16509067Y-9604153D01*
X16504305Y-9611296D01*
X16499543Y-9616058D01*
X16494781Y-9618439D01*
X16542400Y-9608915D02*
X16544781Y-9606534D01*
X16549543Y-9604153D01*
X16561448Y-9604153D01*
X16566210Y-9606534D01*
X16568591Y-9608915D01*
X16570972Y-9613677D01*
X16570972Y-9618439D01*
X16568591Y-9625582D01*
X16540019Y-9654153D01*
X16570972Y-9654153D01*
X16601924Y-9604153D02*
X16606686Y-9604153D01*
X16611448Y-9606534D01*
X16613829Y-9608915D01*
X16616210Y-9613677D01*
X16618591Y-9623201D01*
X16618591Y-9635105D01*
X16616210Y-9644629D01*
X16613829Y-9649391D01*
X16611448Y-9651772D01*
X16606686Y-9654153D01*
X16601924Y-9654153D01*
X16597162Y-9651772D01*
X16594781Y-9649391D01*
X16592400Y-9644629D01*
X16590019Y-9635105D01*
X16590019Y-9623201D01*
X16592400Y-9613677D01*
X16594781Y-9608915D01*
X16597162Y-9606534D01*
X16601924Y-9604153D01*
X16661448Y-9604153D02*
X16651924Y-9604153D01*
X16647162Y-9606534D01*
X16644781Y-9608915D01*
X16640019Y-9616058D01*
X16637638Y-9625582D01*
X16637638Y-9644629D01*
X16640019Y-9649391D01*
X16642400Y-9651772D01*
X16647162Y-9654153D01*
X16656686Y-9654153D01*
X16661448Y-9651772D01*
X16663829Y-9649391D01*
X16666210Y-9644629D01*
X16666210Y-9632724D01*
X16663829Y-9627963D01*
X16661448Y-9625582D01*
X16656686Y-9623201D01*
X16647162Y-9623201D01*
X16642400Y-9625582D01*
X16640019Y-9627963D01*
X16637638Y-9632724D01*
X16675734Y-9658915D02*
X16713829Y-9658915D01*
X16747162Y-9651772D02*
X16742400Y-9654153D01*
X16732876Y-9654153D01*
X16728115Y-9651772D01*
X16725734Y-9649391D01*
X16723353Y-9644629D01*
X16723353Y-9630344D01*
X16725734Y-9625582D01*
X16728115Y-9623201D01*
X16732876Y-9620820D01*
X16742400Y-9620820D01*
X16747162Y-9623201D01*
X16790019Y-9654153D02*
X16790019Y-9627963D01*
X16787638Y-9623201D01*
X16782877Y-9620820D01*
X16773353Y-9620820D01*
X16768591Y-9623201D01*
X16790019Y-9651772D02*
X16785258Y-9654153D01*
X16773353Y-9654153D01*
X16768591Y-9651772D01*
X16766210Y-9647010D01*
X16766210Y-9642248D01*
X16768591Y-9637486D01*
X16773353Y-9635105D01*
X16785258Y-9635105D01*
X16790019Y-9632724D01*
X16813829Y-9620820D02*
X16813829Y-9670820D01*
X16813829Y-9623201D02*
X16818591Y-9620820D01*
X16828115Y-9620820D01*
X16832877Y-9623201D01*
X16835258Y-9625582D01*
X16837638Y-9630344D01*
X16837638Y-9644629D01*
X16835258Y-9649391D01*
X16832877Y-9651772D01*
X16828115Y-9654153D01*
X16818591Y-9654153D01*
X16813829Y-9651772D01*
X16847162Y-9658915D02*
X16885258Y-9658915D01*
X16894781Y-9651772D02*
X16899543Y-9654153D01*
X16909067Y-9654153D01*
X16913829Y-9651772D01*
X16916210Y-9647010D01*
X16916210Y-9644629D01*
X16913829Y-9639867D01*
X16909067Y-9637486D01*
X16901924Y-9637486D01*
X16897162Y-9635105D01*
X16894781Y-9630344D01*
X16894781Y-9627963D01*
X16897162Y-9623201D01*
X16901924Y-9620820D01*
X16909067Y-9620820D01*
X16913829Y-9623201D01*
X16937638Y-9654153D02*
X16937638Y-9620820D01*
X16937638Y-9625582D02*
X16940019Y-9623201D01*
X16944781Y-9620820D01*
X16951924Y-9620820D01*
X16956686Y-9623201D01*
X16959067Y-9627963D01*
X16959067Y-9654153D01*
X16959067Y-9627963D02*
X16961448Y-9623201D01*
X16966210Y-9620820D01*
X16973353Y-9620820D01*
X16978115Y-9623201D01*
X16980496Y-9627963D01*
X16980496Y-9654153D01*
X17025734Y-9654153D02*
X17025734Y-9604153D01*
X17025734Y-9651772D02*
X17020972Y-9654153D01*
X17011448Y-9654153D01*
X17006686Y-9651772D01*
X17004305Y-9649391D01*
X17001924Y-9644629D01*
X17001924Y-9630344D01*
X17004305Y-9625582D01*
X17006686Y-9623201D01*
X17011448Y-9620820D01*
X17020972Y-9620820D01*
X17025734Y-9623201D01*
%TO.C,U23*%
X15891686Y-10360153D02*
X15901210Y-10360153D01*
X15905972Y-10362534D01*
X15910734Y-10367296D01*
X15913115Y-10376820D01*
X15913115Y-10393486D01*
X15910734Y-10403010D01*
X15905972Y-10407772D01*
X15901210Y-10410153D01*
X15891686Y-10410153D01*
X15886924Y-10407772D01*
X15882162Y-10403010D01*
X15879781Y-10393486D01*
X15879781Y-10376820D01*
X15882162Y-10367296D01*
X15886924Y-10362534D01*
X15891686Y-10360153D01*
%TO.C,U24*%
X14875686Y-10614153D02*
X14885210Y-10614153D01*
X14889972Y-10616534D01*
X14894734Y-10621296D01*
X14897115Y-10630820D01*
X14897115Y-10647486D01*
X14894734Y-10657010D01*
X14889972Y-10661772D01*
X14885210Y-10664153D01*
X14875686Y-10664153D01*
X14870924Y-10661772D01*
X14866162Y-10657010D01*
X14863781Y-10647486D01*
X14863781Y-10630820D01*
X14866162Y-10621296D01*
X14870924Y-10616534D01*
X14875686Y-10614153D01*
%TO.C,U27*%
X15643686Y-10355153D02*
X15653210Y-10355153D01*
X15657972Y-10357534D01*
X15662734Y-10362296D01*
X15665115Y-10371820D01*
X15665115Y-10388486D01*
X15662734Y-10398010D01*
X15657972Y-10402772D01*
X15653210Y-10405153D01*
X15643686Y-10405153D01*
X15638924Y-10402772D01*
X15634162Y-10398010D01*
X15631781Y-10388486D01*
X15631781Y-10371820D01*
X15634162Y-10362296D01*
X15638924Y-10357534D01*
X15643686Y-10355153D01*
%TO.C,U13*%
X15897686Y-10101153D02*
X15907210Y-10101153D01*
X15911972Y-10103534D01*
X15916734Y-10108296D01*
X15919115Y-10117820D01*
X15919115Y-10134486D01*
X15916734Y-10144010D01*
X15911972Y-10148772D01*
X15907210Y-10151153D01*
X15897686Y-10151153D01*
X15892924Y-10148772D01*
X15888162Y-10144010D01*
X15885781Y-10134486D01*
X15885781Y-10117820D01*
X15888162Y-10108296D01*
X15892924Y-10103534D01*
X15897686Y-10101153D01*
%TO.C,U9*%
X14881686Y-10355153D02*
X14891210Y-10355153D01*
X14895972Y-10357534D01*
X14900734Y-10362296D01*
X14903115Y-10371820D01*
X14903115Y-10388486D01*
X14900734Y-10398010D01*
X14895972Y-10402772D01*
X14891210Y-10405153D01*
X14881686Y-10405153D01*
X14876924Y-10402772D01*
X14872162Y-10398010D01*
X14869781Y-10388486D01*
X14869781Y-10371820D01*
X14872162Y-10362296D01*
X14876924Y-10357534D01*
X14881686Y-10355153D01*
%TO.C,U26*%
X14621686Y-8328153D02*
X14631210Y-8328153D01*
X14635972Y-8330534D01*
X14640734Y-8335296D01*
X14643115Y-8344820D01*
X14643115Y-8361486D01*
X14640734Y-8371010D01*
X14635972Y-8375772D01*
X14631210Y-8378153D01*
X14621686Y-8378153D01*
X14616924Y-8375772D01*
X14612162Y-8371010D01*
X14609781Y-8361486D01*
X14609781Y-8344820D01*
X14612162Y-8335296D01*
X14616924Y-8330534D01*
X14621686Y-8328153D01*
%TO.C,U16*%
X11579274Y-9543929D02*
X11579274Y-9534405D01*
X11581655Y-9529643D01*
X11586417Y-9524881D01*
X11595941Y-9522500D01*
X11612607Y-9522500D01*
X11622131Y-9524881D01*
X11626893Y-9529643D01*
X11629274Y-9534405D01*
X11629274Y-9543929D01*
X11626893Y-9548691D01*
X11622131Y-9553453D01*
X11612607Y-9555834D01*
X11595941Y-9555834D01*
X11586417Y-9553453D01*
X11581655Y-9548691D01*
X11579274Y-9543929D01*
%TO.C,U17*%
X11833274Y-10559929D02*
X11833274Y-10550405D01*
X11835655Y-10545643D01*
X11840417Y-10540881D01*
X11849941Y-10538500D01*
X11866607Y-10538500D01*
X11876131Y-10540881D01*
X11880893Y-10545643D01*
X11883274Y-10550405D01*
X11883274Y-10559929D01*
X11880893Y-10564691D01*
X11876131Y-10569453D01*
X11866607Y-10571834D01*
X11849941Y-10571834D01*
X11840417Y-10569453D01*
X11835655Y-10564691D01*
X11833274Y-10559929D01*
%TO.C,U18*%
X11602274Y-10302929D02*
X11602274Y-10293405D01*
X11604655Y-10288643D01*
X11609417Y-10283881D01*
X11618941Y-10281500D01*
X11635607Y-10281500D01*
X11645131Y-10283881D01*
X11649893Y-10288643D01*
X11652274Y-10293405D01*
X11652274Y-10302929D01*
X11649893Y-10307691D01*
X11645131Y-10312453D01*
X11635607Y-10314834D01*
X11618941Y-10314834D01*
X11609417Y-10312453D01*
X11604655Y-10307691D01*
X11602274Y-10302929D01*
%TO.C,U21*%
X11579274Y-11067929D02*
X11579274Y-11058405D01*
X11581655Y-11053643D01*
X11586417Y-11048881D01*
X11595941Y-11046500D01*
X11612607Y-11046500D01*
X11622131Y-11048881D01*
X11626893Y-11053643D01*
X11629274Y-11058405D01*
X11629274Y-11067929D01*
X11626893Y-11072691D01*
X11622131Y-11077453D01*
X11612607Y-11079834D01*
X11595941Y-11079834D01*
X11586417Y-11077453D01*
X11581655Y-11072691D01*
X11579274Y-11067929D01*
%TO.C,U102*%
X11579274Y-10051929D02*
X11579274Y-10042405D01*
X11581655Y-10037643D01*
X11586417Y-10032881D01*
X11595941Y-10030500D01*
X11612607Y-10030500D01*
X11622131Y-10032881D01*
X11626893Y-10037643D01*
X11629274Y-10042405D01*
X11629274Y-10051929D01*
X11626893Y-10056691D01*
X11622131Y-10061453D01*
X11612607Y-10063834D01*
X11595941Y-10063834D01*
X11586417Y-10061453D01*
X11581655Y-10056691D01*
X11579274Y-10051929D01*
%TO.C,U23*%
X12092274Y-10057929D02*
X12092274Y-10048405D01*
X12094655Y-10043643D01*
X12099417Y-10038881D01*
X12108941Y-10036500D01*
X12125607Y-10036500D01*
X12135131Y-10038881D01*
X12139893Y-10043643D01*
X12142274Y-10048405D01*
X12142274Y-10057929D01*
X12139893Y-10062691D01*
X12135131Y-10067453D01*
X12125607Y-10069834D01*
X12108941Y-10069834D01*
X12099417Y-10067453D01*
X12094655Y-10062691D01*
X12092274Y-10057929D01*
%TO.C,U8*%
X14875686Y-8328153D02*
X14885210Y-8328153D01*
X14889972Y-8330534D01*
X14894734Y-8335296D01*
X14897115Y-8344820D01*
X14897115Y-8361486D01*
X14894734Y-8371010D01*
X14889972Y-8375772D01*
X14885210Y-8378153D01*
X14875686Y-8378153D01*
X14870924Y-8375772D01*
X14866162Y-8371010D01*
X14863781Y-8361486D01*
X14863781Y-8344820D01*
X14866162Y-8335296D01*
X14870924Y-8330534D01*
X14875686Y-8328153D01*
%TO.C,U20*%
X11833274Y-10305929D02*
X11833274Y-10296405D01*
X11835655Y-10291643D01*
X11840417Y-10286881D01*
X11849941Y-10284500D01*
X11866607Y-10284500D01*
X11876131Y-10286881D01*
X11880893Y-10291643D01*
X11883274Y-10296405D01*
X11883274Y-10305929D01*
X11880893Y-10310691D01*
X11876131Y-10315453D01*
X11866607Y-10317834D01*
X11849941Y-10317834D01*
X11840417Y-10315453D01*
X11835655Y-10310691D01*
X11833274Y-10305929D01*
%TO.C,U25*%
X11833274Y-11321929D02*
X11833274Y-11312405D01*
X11835655Y-11307643D01*
X11840417Y-11302881D01*
X11849941Y-11300500D01*
X11866607Y-11300500D01*
X11876131Y-11302881D01*
X11880893Y-11307643D01*
X11883274Y-11312405D01*
X11883274Y-11321929D01*
X11880893Y-11326691D01*
X11876131Y-11331453D01*
X11866607Y-11333834D01*
X11849941Y-11333834D01*
X11840417Y-11331453D01*
X11835655Y-11326691D01*
X11833274Y-11321929D01*
%TO.C,U7*%
X14875686Y-7566153D02*
X14885210Y-7566153D01*
X14889972Y-7568534D01*
X14894734Y-7573296D01*
X14897115Y-7582820D01*
X14897115Y-7599486D01*
X14894734Y-7609010D01*
X14889972Y-7613772D01*
X14885210Y-7616153D01*
X14875686Y-7616153D01*
X14870924Y-7613772D01*
X14866162Y-7609010D01*
X14863781Y-7599486D01*
X14863781Y-7582820D01*
X14866162Y-7573296D01*
X14870924Y-7568534D01*
X14875686Y-7566153D01*
%TO.C,Cap_3*%
X11511060Y-8846786D02*
X11482488Y-8846786D01*
X11496774Y-8846786D02*
X11496774Y-8796786D01*
X11492012Y-8803929D01*
X11487250Y-8808691D01*
X11482488Y-8811072D01*
X11530107Y-8801548D02*
X11532488Y-8799167D01*
X11537250Y-8796786D01*
X11549155Y-8796786D01*
X11553917Y-8799167D01*
X11556298Y-8801548D01*
X11558679Y-8806310D01*
X11558679Y-8811072D01*
X11556298Y-8818215D01*
X11527726Y-8846786D01*
X11558679Y-8846786D01*
X11589631Y-8796786D02*
X11594393Y-8796786D01*
X11599155Y-8799167D01*
X11601536Y-8801548D01*
X11603917Y-8806310D01*
X11606298Y-8815834D01*
X11606298Y-8827738D01*
X11603917Y-8837262D01*
X11601536Y-8842024D01*
X11599155Y-8844405D01*
X11594393Y-8846786D01*
X11589631Y-8846786D01*
X11584869Y-8844405D01*
X11582488Y-8842024D01*
X11580107Y-8837262D01*
X11577726Y-8827738D01*
X11577726Y-8815834D01*
X11580107Y-8806310D01*
X11582488Y-8801548D01*
X11584869Y-8799167D01*
X11589631Y-8796786D01*
X11649155Y-8796786D02*
X11639631Y-8796786D01*
X11634869Y-8799167D01*
X11632488Y-8801548D01*
X11627726Y-8808691D01*
X11625345Y-8818215D01*
X11625345Y-8837262D01*
X11627726Y-8842024D01*
X11630107Y-8844405D01*
X11634869Y-8846786D01*
X11644393Y-8846786D01*
X11649155Y-8844405D01*
X11651536Y-8842024D01*
X11653917Y-8837262D01*
X11653917Y-8825357D01*
X11651536Y-8820596D01*
X11649155Y-8818215D01*
X11644393Y-8815834D01*
X11634869Y-8815834D01*
X11630107Y-8818215D01*
X11627726Y-8820596D01*
X11625345Y-8825357D01*
X11663441Y-8851548D02*
X11701536Y-8851548D01*
X11734869Y-8844405D02*
X11730107Y-8846786D01*
X11720583Y-8846786D01*
X11715822Y-8844405D01*
X11713441Y-8842024D01*
X11711060Y-8837262D01*
X11711060Y-8822977D01*
X11713441Y-8818215D01*
X11715822Y-8815834D01*
X11720583Y-8813453D01*
X11730107Y-8813453D01*
X11734869Y-8815834D01*
X11777726Y-8846786D02*
X11777726Y-8820596D01*
X11775345Y-8815834D01*
X11770583Y-8813453D01*
X11761060Y-8813453D01*
X11756298Y-8815834D01*
X11777726Y-8844405D02*
X11772964Y-8846786D01*
X11761060Y-8846786D01*
X11756298Y-8844405D01*
X11753917Y-8839643D01*
X11753917Y-8834881D01*
X11756298Y-8830119D01*
X11761060Y-8827738D01*
X11772964Y-8827738D01*
X11777726Y-8825357D01*
X11801536Y-8813453D02*
X11801536Y-8863453D01*
X11801536Y-8815834D02*
X11806298Y-8813453D01*
X11815822Y-8813453D01*
X11820583Y-8815834D01*
X11822964Y-8818215D01*
X11825345Y-8822977D01*
X11825345Y-8837262D01*
X11822964Y-8842024D01*
X11820583Y-8844405D01*
X11815822Y-8846786D01*
X11806298Y-8846786D01*
X11801536Y-8844405D01*
X11834869Y-8851548D02*
X11872964Y-8851548D01*
X11882488Y-8844405D02*
X11887250Y-8846786D01*
X11896774Y-8846786D01*
X11901536Y-8844405D01*
X11903917Y-8839643D01*
X11903917Y-8837262D01*
X11901536Y-8832500D01*
X11896774Y-8830119D01*
X11889631Y-8830119D01*
X11884869Y-8827738D01*
X11882488Y-8822977D01*
X11882488Y-8820596D01*
X11884869Y-8815834D01*
X11889631Y-8813453D01*
X11896774Y-8813453D01*
X11901536Y-8815834D01*
X11925345Y-8846786D02*
X11925345Y-8813453D01*
X11925345Y-8818215D02*
X11927726Y-8815834D01*
X11932488Y-8813453D01*
X11939631Y-8813453D01*
X11944393Y-8815834D01*
X11946774Y-8820596D01*
X11946774Y-8846786D01*
X11946774Y-8820596D02*
X11949155Y-8815834D01*
X11953917Y-8813453D01*
X11961060Y-8813453D01*
X11965822Y-8815834D01*
X11968203Y-8820596D01*
X11968203Y-8846786D01*
X12013441Y-8846786D02*
X12013441Y-8796786D01*
X12013441Y-8844405D02*
X12008679Y-8846786D01*
X11999155Y-8846786D01*
X11994393Y-8844405D01*
X11992012Y-8842024D01*
X11989631Y-8837262D01*
X11989631Y-8822977D01*
X11992012Y-8818215D01*
X11994393Y-8815834D01*
X11999155Y-8813453D01*
X12008679Y-8813453D01*
X12013441Y-8815834D01*
%TO.C,U10*%
X16405686Y-10101153D02*
X16415210Y-10101153D01*
X16419972Y-10103534D01*
X16424734Y-10108296D01*
X16427115Y-10117820D01*
X16427115Y-10134486D01*
X16424734Y-10144010D01*
X16419972Y-10148772D01*
X16415210Y-10151153D01*
X16405686Y-10151153D01*
X16400924Y-10148772D01*
X16396162Y-10144010D01*
X16393781Y-10134486D01*
X16393781Y-10117820D01*
X16396162Y-10108296D01*
X16400924Y-10103534D01*
X16405686Y-10101153D01*
%TO.C,U11*%
X15389686Y-9847153D02*
X15399210Y-9847153D01*
X15403972Y-9849534D01*
X15408734Y-9854296D01*
X15411115Y-9863820D01*
X15411115Y-9880486D01*
X15408734Y-9890010D01*
X15403972Y-9894772D01*
X15399210Y-9897153D01*
X15389686Y-9897153D01*
X15384924Y-9894772D01*
X15380162Y-9890010D01*
X15377781Y-9880486D01*
X15377781Y-9863820D01*
X15380162Y-9854296D01*
X15384924Y-9849534D01*
X15389686Y-9847153D01*
%TO.C,U14*%
X15389686Y-9593153D02*
X15399210Y-9593153D01*
X15403972Y-9595534D01*
X15408734Y-9600296D01*
X15411115Y-9609820D01*
X15411115Y-9626486D01*
X15408734Y-9636010D01*
X15403972Y-9640772D01*
X15399210Y-9643153D01*
X15389686Y-9643153D01*
X15384924Y-9640772D01*
X15380162Y-9636010D01*
X15377781Y-9626486D01*
X15377781Y-9609820D01*
X15380162Y-9600296D01*
X15384924Y-9595534D01*
X15389686Y-9593153D01*
%TO.C,U1*%
X9298274Y-9557929D02*
X9298274Y-9548405D01*
X9300655Y-9543643D01*
X9305417Y-9538881D01*
X9314941Y-9536500D01*
X9331607Y-9536500D01*
X9341131Y-9538881D01*
X9345893Y-9543643D01*
X9348274Y-9548405D01*
X9348274Y-9557929D01*
X9345893Y-9562691D01*
X9341131Y-9567453D01*
X9331607Y-9569834D01*
X9314941Y-9569834D01*
X9305417Y-9567453D01*
X9300655Y-9562691D01*
X9298274Y-9557929D01*
%TO.C,U2*%
X9298274Y-10557929D02*
X9298274Y-10548405D01*
X9300655Y-10543643D01*
X9305417Y-10538881D01*
X9314941Y-10536500D01*
X9331607Y-10536500D01*
X9341131Y-10538881D01*
X9345893Y-10543643D01*
X9348274Y-10548405D01*
X9348274Y-10557929D01*
X9345893Y-10562691D01*
X9341131Y-10567453D01*
X9331607Y-10569834D01*
X9314941Y-10569834D01*
X9305417Y-10567453D01*
X9300655Y-10562691D01*
X9298274Y-10557929D01*
%TO.C,U3*%
X9293274Y-9797929D02*
X9293274Y-9788405D01*
X9295655Y-9783643D01*
X9300417Y-9778881D01*
X9309941Y-9776500D01*
X9326607Y-9776500D01*
X9336131Y-9778881D01*
X9340893Y-9783643D01*
X9343274Y-9788405D01*
X9343274Y-9797929D01*
X9340893Y-9802691D01*
X9336131Y-9807453D01*
X9326607Y-9809834D01*
X9309941Y-9809834D01*
X9300417Y-9807453D01*
X9295655Y-9802691D01*
X9293274Y-9797929D01*
%TO.C,Cap_2*%
X11386274Y-9426262D02*
X11386274Y-9454834D01*
X11386274Y-9440548D02*
X11336274Y-9440548D01*
X11343417Y-9445310D01*
X11348179Y-9450072D01*
X11350560Y-9454834D01*
X11341036Y-9407215D02*
X11338655Y-9404834D01*
X11336274Y-9400072D01*
X11336274Y-9388167D01*
X11338655Y-9383405D01*
X11341036Y-9381024D01*
X11345798Y-9378643D01*
X11350560Y-9378643D01*
X11357703Y-9381024D01*
X11386274Y-9409596D01*
X11386274Y-9378643D01*
X11336274Y-9347691D02*
X11336274Y-9342929D01*
X11338655Y-9338167D01*
X11341036Y-9335786D01*
X11345798Y-9333405D01*
X11355322Y-9331024D01*
X11367226Y-9331024D01*
X11376750Y-9333405D01*
X11381512Y-9335786D01*
X11383893Y-9338167D01*
X11386274Y-9342929D01*
X11386274Y-9347691D01*
X11383893Y-9352453D01*
X11381512Y-9354834D01*
X11376750Y-9357215D01*
X11367226Y-9359596D01*
X11355322Y-9359596D01*
X11345798Y-9357215D01*
X11341036Y-9354834D01*
X11338655Y-9352453D01*
X11336274Y-9347691D01*
X11336274Y-9288167D02*
X11336274Y-9297691D01*
X11338655Y-9302453D01*
X11341036Y-9304834D01*
X11348179Y-9309596D01*
X11357703Y-9311977D01*
X11376750Y-9311977D01*
X11381512Y-9309596D01*
X11383893Y-9307215D01*
X11386274Y-9302453D01*
X11386274Y-9292929D01*
X11383893Y-9288167D01*
X11381512Y-9285786D01*
X11376750Y-9283405D01*
X11364845Y-9283405D01*
X11360083Y-9285786D01*
X11357703Y-9288167D01*
X11355322Y-9292929D01*
X11355322Y-9302453D01*
X11357703Y-9307215D01*
X11360083Y-9309596D01*
X11364845Y-9311977D01*
X11391036Y-9273881D02*
X11391036Y-9235786D01*
X11383893Y-9202453D02*
X11386274Y-9207215D01*
X11386274Y-9216738D01*
X11383893Y-9221500D01*
X11381512Y-9223881D01*
X11376750Y-9226262D01*
X11362464Y-9226262D01*
X11357703Y-9223881D01*
X11355322Y-9221500D01*
X11352941Y-9216738D01*
X11352941Y-9207215D01*
X11355322Y-9202453D01*
X11386274Y-9159596D02*
X11360083Y-9159596D01*
X11355322Y-9161977D01*
X11352941Y-9166738D01*
X11352941Y-9176262D01*
X11355322Y-9181024D01*
X11383893Y-9159596D02*
X11386274Y-9164357D01*
X11386274Y-9176262D01*
X11383893Y-9181024D01*
X11379131Y-9183405D01*
X11374369Y-9183405D01*
X11369607Y-9181024D01*
X11367226Y-9176262D01*
X11367226Y-9164357D01*
X11364845Y-9159596D01*
X11352941Y-9135786D02*
X11402941Y-9135786D01*
X11355322Y-9135786D02*
X11352941Y-9131024D01*
X11352941Y-9121500D01*
X11355322Y-9116738D01*
X11357703Y-9114357D01*
X11362464Y-9111977D01*
X11376750Y-9111977D01*
X11381512Y-9114357D01*
X11383893Y-9116738D01*
X11386274Y-9121500D01*
X11386274Y-9131024D01*
X11383893Y-9135786D01*
X11391036Y-9102453D02*
X11391036Y-9064357D01*
X11383893Y-9054834D02*
X11386274Y-9050072D01*
X11386274Y-9040548D01*
X11383893Y-9035786D01*
X11379131Y-9033405D01*
X11376750Y-9033405D01*
X11371988Y-9035786D01*
X11369607Y-9040548D01*
X11369607Y-9047691D01*
X11367226Y-9052453D01*
X11362464Y-9054834D01*
X11360083Y-9054834D01*
X11355322Y-9052453D01*
X11352941Y-9047691D01*
X11352941Y-9040548D01*
X11355322Y-9035786D01*
X11386274Y-9011977D02*
X11352941Y-9011977D01*
X11357703Y-9011977D02*
X11355322Y-9009596D01*
X11352941Y-9004834D01*
X11352941Y-8997691D01*
X11355322Y-8992929D01*
X11360083Y-8990548D01*
X11386274Y-8990548D01*
X11360083Y-8990548D02*
X11355322Y-8988167D01*
X11352941Y-8983405D01*
X11352941Y-8976262D01*
X11355322Y-8971500D01*
X11360083Y-8969119D01*
X11386274Y-8969119D01*
X11386274Y-8923881D02*
X11336274Y-8923881D01*
X11383893Y-8923881D02*
X11386274Y-8928643D01*
X11386274Y-8938167D01*
X11383893Y-8942929D01*
X11381512Y-8945310D01*
X11376750Y-8947691D01*
X11362464Y-8947691D01*
X11357703Y-8945310D01*
X11355322Y-8942929D01*
X11352941Y-8938167D01*
X11352941Y-8928643D01*
X11355322Y-8923881D01*
%TO.C,U19*%
X11330274Y-9549929D02*
X11330274Y-9540405D01*
X11332655Y-9535643D01*
X11337417Y-9530881D01*
X11346941Y-9528500D01*
X11363607Y-9528500D01*
X11373131Y-9530881D01*
X11377893Y-9535643D01*
X11380274Y-9540405D01*
X11380274Y-9549929D01*
X11377893Y-9554691D01*
X11373131Y-9559453D01*
X11363607Y-9561834D01*
X11346941Y-9561834D01*
X11337417Y-9559453D01*
X11332655Y-9554691D01*
X11330274Y-9549929D01*
%TO.C,U4*%
X9298274Y-10057929D02*
X9298274Y-10048405D01*
X9300655Y-10043643D01*
X9305417Y-10038881D01*
X9314941Y-10036500D01*
X9331607Y-10036500D01*
X9341131Y-10038881D01*
X9345893Y-10043643D01*
X9348274Y-10048405D01*
X9348274Y-10057929D01*
X9345893Y-10062691D01*
X9341131Y-10067453D01*
X9331607Y-10069834D01*
X9314941Y-10069834D01*
X9305417Y-10067453D01*
X9300655Y-10062691D01*
X9298274Y-10057929D01*
%TO.C,U5*%
X9298274Y-10819929D02*
X9298274Y-10810405D01*
X9300655Y-10805643D01*
X9305417Y-10800881D01*
X9314941Y-10798500D01*
X9331607Y-10798500D01*
X9341131Y-10800881D01*
X9345893Y-10805643D01*
X9348274Y-10810405D01*
X9348274Y-10819929D01*
X9345893Y-10824691D01*
X9341131Y-10829453D01*
X9331607Y-10831834D01*
X9314941Y-10831834D01*
X9305417Y-10829453D01*
X9300655Y-10824691D01*
X9298274Y-10819929D01*
%TO.C,U6*%
X9293274Y-10305929D02*
X9293274Y-10296405D01*
X9295655Y-10291643D01*
X9300417Y-10286881D01*
X9309941Y-10284500D01*
X9326607Y-10284500D01*
X9336131Y-10286881D01*
X9340893Y-10291643D01*
X9343274Y-10296405D01*
X9343274Y-10305929D01*
X9340893Y-10310691D01*
X9336131Y-10315453D01*
X9326607Y-10317834D01*
X9309941Y-10317834D01*
X9300417Y-10315453D01*
X9295655Y-10310691D01*
X9293274Y-10305929D01*
%TO.C,U15*%
X16659686Y-9593153D02*
X16669210Y-9593153D01*
X16673972Y-9595534D01*
X16678734Y-9600296D01*
X16681115Y-9609820D01*
X16681115Y-9626486D01*
X16678734Y-9636010D01*
X16673972Y-9640772D01*
X16669210Y-9643153D01*
X16659686Y-9643153D01*
X16654924Y-9640772D01*
X16650162Y-9636010D01*
X16647781Y-9626486D01*
X16647781Y-9609820D01*
X16650162Y-9600296D01*
X16654924Y-9595534D01*
X16659686Y-9593153D01*
%TO.C,U16*%
X16405686Y-9847153D02*
X16415210Y-9847153D01*
X16419972Y-9849534D01*
X16424734Y-9854296D01*
X16427115Y-9863820D01*
X16427115Y-9880486D01*
X16424734Y-9890010D01*
X16419972Y-9894772D01*
X16415210Y-9897153D01*
X16405686Y-9897153D01*
X16400924Y-9894772D01*
X16396162Y-9890010D01*
X16393781Y-9880486D01*
X16393781Y-9863820D01*
X16396162Y-9854296D01*
X16400924Y-9849534D01*
X16405686Y-9847153D01*
%TO.C,U17*%
X15389686Y-10101153D02*
X15399210Y-10101153D01*
X15403972Y-10103534D01*
X15408734Y-10108296D01*
X15411115Y-10117820D01*
X15411115Y-10134486D01*
X15408734Y-10144010D01*
X15403972Y-10148772D01*
X15399210Y-10151153D01*
X15389686Y-10151153D01*
X15384924Y-10148772D01*
X15380162Y-10144010D01*
X15377781Y-10134486D01*
X15377781Y-10117820D01*
X15380162Y-10108296D01*
X15384924Y-10103534D01*
X15389686Y-10101153D01*
%TO.C,U4*%
X15891686Y-7566153D02*
X15901210Y-7566153D01*
X15905972Y-7568534D01*
X15910734Y-7573296D01*
X15913115Y-7582820D01*
X15913115Y-7599486D01*
X15910734Y-7609010D01*
X15905972Y-7613772D01*
X15901210Y-7616153D01*
X15891686Y-7616153D01*
X15886924Y-7613772D01*
X15882162Y-7609010D01*
X15879781Y-7599486D01*
X15879781Y-7582820D01*
X15882162Y-7573296D01*
X15886924Y-7568534D01*
X15891686Y-7566153D01*
%TO.C,U5*%
X15129686Y-7566153D02*
X15139210Y-7566153D01*
X15143972Y-7568534D01*
X15148734Y-7573296D01*
X15151115Y-7582820D01*
X15151115Y-7599486D01*
X15148734Y-7609010D01*
X15143972Y-7613772D01*
X15139210Y-7616153D01*
X15129686Y-7616153D01*
X15124924Y-7613772D01*
X15120162Y-7609010D01*
X15117781Y-7599486D01*
X15117781Y-7582820D01*
X15120162Y-7573296D01*
X15124924Y-7568534D01*
X15129686Y-7566153D01*
%TO.C,U6*%
X15643686Y-7561153D02*
X15653210Y-7561153D01*
X15657972Y-7563534D01*
X15662734Y-7568296D01*
X15665115Y-7577820D01*
X15665115Y-7594486D01*
X15662734Y-7604010D01*
X15657972Y-7608772D01*
X15653210Y-7611153D01*
X15643686Y-7611153D01*
X15638924Y-7608772D01*
X15634162Y-7604010D01*
X15631781Y-7594486D01*
X15631781Y-7577820D01*
X15634162Y-7568296D01*
X15638924Y-7563534D01*
X15643686Y-7561153D01*
%TO.C,U32*%
X14621686Y-9852153D02*
X14631210Y-9852153D01*
X14635972Y-9854534D01*
X14640734Y-9859296D01*
X14643115Y-9868820D01*
X14643115Y-9885486D01*
X14640734Y-9895010D01*
X14635972Y-9899772D01*
X14631210Y-9902153D01*
X14621686Y-9902153D01*
X14616924Y-9899772D01*
X14612162Y-9895010D01*
X14609781Y-9885486D01*
X14609781Y-9868820D01*
X14612162Y-9859296D01*
X14616924Y-9854534D01*
X14621686Y-9852153D01*
%TO.C,U29*%
X11330274Y-11327929D02*
X11330274Y-11318405D01*
X11332655Y-11313643D01*
X11337417Y-11308881D01*
X11346941Y-11306500D01*
X11363607Y-11306500D01*
X11373131Y-11308881D01*
X11377893Y-11313643D01*
X11380274Y-11318405D01*
X11380274Y-11327929D01*
X11377893Y-11332691D01*
X11373131Y-11337453D01*
X11363607Y-11339834D01*
X11346941Y-11339834D01*
X11337417Y-11337453D01*
X11332655Y-11332691D01*
X11330274Y-11327929D01*
%TO.C,U30*%
X11838274Y-11073929D02*
X11838274Y-11064405D01*
X11840655Y-11059643D01*
X11845417Y-11054881D01*
X11854941Y-11052500D01*
X11871607Y-11052500D01*
X11881131Y-11054881D01*
X11885893Y-11059643D01*
X11888274Y-11064405D01*
X11888274Y-11073929D01*
X11885893Y-11078691D01*
X11881131Y-11083453D01*
X11871607Y-11085834D01*
X11854941Y-11085834D01*
X11845417Y-11083453D01*
X11840655Y-11078691D01*
X11838274Y-11073929D01*
%TO.C,U32*%
X11584274Y-11327929D02*
X11584274Y-11318405D01*
X11586655Y-11313643D01*
X11591417Y-11308881D01*
X11600941Y-11306500D01*
X11617607Y-11306500D01*
X11627131Y-11308881D01*
X11631893Y-11313643D01*
X11634274Y-11318405D01*
X11634274Y-11327929D01*
X11631893Y-11332691D01*
X11627131Y-11337453D01*
X11617607Y-11339834D01*
X11600941Y-11339834D01*
X11591417Y-11337453D01*
X11586655Y-11332691D01*
X11584274Y-11327929D01*
%TO.C,U12*%
X11579274Y-9289929D02*
X11579274Y-9280405D01*
X11581655Y-9275643D01*
X11586417Y-9270881D01*
X11595941Y-9268500D01*
X11612607Y-9268500D01*
X11622131Y-9270881D01*
X11626893Y-9275643D01*
X11629274Y-9280405D01*
X11629274Y-9289929D01*
X11626893Y-9294691D01*
X11622131Y-9299453D01*
X11612607Y-9301834D01*
X11595941Y-9301834D01*
X11586417Y-9299453D01*
X11581655Y-9294691D01*
X11579274Y-9289929D01*
%TO.C,U13*%
X11833274Y-10051929D02*
X11833274Y-10042405D01*
X11835655Y-10037643D01*
X11840417Y-10032881D01*
X11849941Y-10030500D01*
X11866607Y-10030500D01*
X11876131Y-10032881D01*
X11880893Y-10037643D01*
X11883274Y-10042405D01*
X11883274Y-10051929D01*
X11880893Y-10056691D01*
X11876131Y-10061453D01*
X11866607Y-10063834D01*
X11849941Y-10063834D01*
X11840417Y-10061453D01*
X11835655Y-10056691D01*
X11833274Y-10051929D01*
%TO.C,U14*%
X11325274Y-10559929D02*
X11325274Y-10550405D01*
X11327655Y-10545643D01*
X11332417Y-10540881D01*
X11341941Y-10538500D01*
X11358607Y-10538500D01*
X11368131Y-10540881D01*
X11372893Y-10545643D01*
X11375274Y-10550405D01*
X11375274Y-10559929D01*
X11372893Y-10564691D01*
X11368131Y-10569453D01*
X11358607Y-10571834D01*
X11341941Y-10571834D01*
X11332417Y-10569453D01*
X11327655Y-10564691D01*
X11325274Y-10559929D01*
%TO.C,U15*%
X11325274Y-9289929D02*
X11325274Y-9280405D01*
X11327655Y-9275643D01*
X11332417Y-9270881D01*
X11341941Y-9268500D01*
X11358607Y-9268500D01*
X11368131Y-9270881D01*
X11372893Y-9275643D01*
X11375274Y-9280405D01*
X11375274Y-9289929D01*
X11372893Y-9294691D01*
X11368131Y-9299453D01*
X11358607Y-9301834D01*
X11341941Y-9301834D01*
X11332417Y-9299453D01*
X11327655Y-9294691D01*
X11325274Y-9289929D01*
%TO.C,Cap_1*%
X11287560Y-8523286D02*
X11258988Y-8523286D01*
X11273274Y-8523286D02*
X11273274Y-8473286D01*
X11268512Y-8480429D01*
X11263750Y-8485191D01*
X11258988Y-8487572D01*
X11306607Y-8478048D02*
X11308988Y-8475667D01*
X11313750Y-8473286D01*
X11325655Y-8473286D01*
X11330417Y-8475667D01*
X11332798Y-8478048D01*
X11335179Y-8482810D01*
X11335179Y-8487572D01*
X11332798Y-8494715D01*
X11304226Y-8523286D01*
X11335179Y-8523286D01*
X11366131Y-8473286D02*
X11370893Y-8473286D01*
X11375655Y-8475667D01*
X11378036Y-8478048D01*
X11380417Y-8482810D01*
X11382798Y-8492334D01*
X11382798Y-8504238D01*
X11380417Y-8513762D01*
X11378036Y-8518524D01*
X11375655Y-8520905D01*
X11370893Y-8523286D01*
X11366131Y-8523286D01*
X11361369Y-8520905D01*
X11358988Y-8518524D01*
X11356607Y-8513762D01*
X11354226Y-8504238D01*
X11354226Y-8492334D01*
X11356607Y-8482810D01*
X11358988Y-8478048D01*
X11361369Y-8475667D01*
X11366131Y-8473286D01*
X11425655Y-8473286D02*
X11416131Y-8473286D01*
X11411369Y-8475667D01*
X11408988Y-8478048D01*
X11404226Y-8485191D01*
X11401845Y-8494715D01*
X11401845Y-8513762D01*
X11404226Y-8518524D01*
X11406607Y-8520905D01*
X11411369Y-8523286D01*
X11420893Y-8523286D01*
X11425655Y-8520905D01*
X11428036Y-8518524D01*
X11430417Y-8513762D01*
X11430417Y-8501857D01*
X11428036Y-8497096D01*
X11425655Y-8494715D01*
X11420893Y-8492334D01*
X11411369Y-8492334D01*
X11406607Y-8494715D01*
X11404226Y-8497096D01*
X11401845Y-8501857D01*
X11439941Y-8528048D02*
X11478036Y-8528048D01*
X11511369Y-8520905D02*
X11506607Y-8523286D01*
X11497083Y-8523286D01*
X11492322Y-8520905D01*
X11489941Y-8518524D01*
X11487560Y-8513762D01*
X11487560Y-8499477D01*
X11489941Y-8494715D01*
X11492322Y-8492334D01*
X11497083Y-8489953D01*
X11506607Y-8489953D01*
X11511369Y-8492334D01*
X11554226Y-8523286D02*
X11554226Y-8497096D01*
X11551845Y-8492334D01*
X11547083Y-8489953D01*
X11537560Y-8489953D01*
X11532798Y-8492334D01*
X11554226Y-8520905D02*
X11549464Y-8523286D01*
X11537560Y-8523286D01*
X11532798Y-8520905D01*
X11530417Y-8516143D01*
X11530417Y-8511381D01*
X11532798Y-8506619D01*
X11537560Y-8504238D01*
X11549464Y-8504238D01*
X11554226Y-8501857D01*
X11578036Y-8489953D02*
X11578036Y-8539953D01*
X11578036Y-8492334D02*
X11582798Y-8489953D01*
X11592322Y-8489953D01*
X11597083Y-8492334D01*
X11599464Y-8494715D01*
X11601845Y-8499477D01*
X11601845Y-8513762D01*
X11599464Y-8518524D01*
X11597083Y-8520905D01*
X11592322Y-8523286D01*
X11582798Y-8523286D01*
X11578036Y-8520905D01*
X11611369Y-8528048D02*
X11649464Y-8528048D01*
X11658988Y-8520905D02*
X11663750Y-8523286D01*
X11673274Y-8523286D01*
X11678036Y-8520905D01*
X11680417Y-8516143D01*
X11680417Y-8513762D01*
X11678036Y-8509000D01*
X11673274Y-8506619D01*
X11666131Y-8506619D01*
X11661369Y-8504238D01*
X11658988Y-8499477D01*
X11658988Y-8497096D01*
X11661369Y-8492334D01*
X11666131Y-8489953D01*
X11673274Y-8489953D01*
X11678036Y-8492334D01*
X11701845Y-8523286D02*
X11701845Y-8489953D01*
X11701845Y-8494715D02*
X11704226Y-8492334D01*
X11708988Y-8489953D01*
X11716131Y-8489953D01*
X11720893Y-8492334D01*
X11723274Y-8497096D01*
X11723274Y-8523286D01*
X11723274Y-8497096D02*
X11725655Y-8492334D01*
X11730417Y-8489953D01*
X11737560Y-8489953D01*
X11742322Y-8492334D01*
X11744703Y-8497096D01*
X11744703Y-8523286D01*
X11789941Y-8523286D02*
X11789941Y-8473286D01*
X11789941Y-8520905D02*
X11785179Y-8523286D01*
X11775655Y-8523286D01*
X11770893Y-8520905D01*
X11768512Y-8518524D01*
X11766131Y-8513762D01*
X11766131Y-8499477D01*
X11768512Y-8494715D01*
X11770893Y-8492334D01*
X11775655Y-8489953D01*
X11785179Y-8489953D01*
X11789941Y-8492334D01*
%TO.C,U31*%
X12092274Y-10565929D02*
X12092274Y-10556405D01*
X12094655Y-10551643D01*
X12099417Y-10546881D01*
X12108941Y-10544500D01*
X12125607Y-10544500D01*
X12135131Y-10546881D01*
X12139893Y-10551643D01*
X12142274Y-10556405D01*
X12142274Y-10565929D01*
X12139893Y-10570691D01*
X12135131Y-10575453D01*
X12125607Y-10577834D01*
X12108941Y-10577834D01*
X12099417Y-10575453D01*
X12094655Y-10570691D01*
X12092274Y-10565929D01*
%TO.C,U33*%
X11330274Y-11073929D02*
X11330274Y-11064405D01*
X11332655Y-11059643D01*
X11337417Y-11054881D01*
X11346941Y-11052500D01*
X11363607Y-11052500D01*
X11373131Y-11054881D01*
X11377893Y-11059643D01*
X11380274Y-11064405D01*
X11380274Y-11073929D01*
X11377893Y-11078691D01*
X11373131Y-11083453D01*
X11363607Y-11085834D01*
X11346941Y-11085834D01*
X11337417Y-11083453D01*
X11332655Y-11078691D01*
X11330274Y-11073929D01*
%TO.C,U102*%
X15897686Y-9847153D02*
X15907210Y-9847153D01*
X15911972Y-9849534D01*
X15916734Y-9854296D01*
X15919115Y-9863820D01*
X15919115Y-9880486D01*
X15916734Y-9890010D01*
X15911972Y-9894772D01*
X15907210Y-9897153D01*
X15897686Y-9897153D01*
X15892924Y-9894772D01*
X15888162Y-9890010D01*
X15885781Y-9880486D01*
X15885781Y-9863820D01*
X15888162Y-9854296D01*
X15892924Y-9849534D01*
X15897686Y-9847153D01*
%TO.C,U31*%
X15383686Y-10360153D02*
X15393210Y-10360153D01*
X15397972Y-10362534D01*
X15402734Y-10367296D01*
X15405115Y-10376820D01*
X15405115Y-10393486D01*
X15402734Y-10403010D01*
X15397972Y-10407772D01*
X15393210Y-10410153D01*
X15383686Y-10410153D01*
X15378924Y-10407772D01*
X15374162Y-10403010D01*
X15371781Y-10393486D01*
X15371781Y-10376820D01*
X15374162Y-10367296D01*
X15378924Y-10362534D01*
X15383686Y-10360153D01*
%TO.C,U33*%
X14875686Y-9598153D02*
X14885210Y-9598153D01*
X14889972Y-9600534D01*
X14894734Y-9605296D01*
X14897115Y-9614820D01*
X14897115Y-9631486D01*
X14894734Y-9641010D01*
X14889972Y-9645772D01*
X14885210Y-9648153D01*
X14875686Y-9648153D01*
X14870924Y-9645772D01*
X14866162Y-9641010D01*
X14863781Y-9631486D01*
X14863781Y-9614820D01*
X14866162Y-9605296D01*
X14870924Y-9600534D01*
X14875686Y-9598153D01*
%TO.C,U26*%
X10060274Y-11327929D02*
X10060274Y-11318405D01*
X10062655Y-11313643D01*
X10067417Y-11308881D01*
X10076941Y-11306500D01*
X10093607Y-11306500D01*
X10103131Y-11308881D01*
X10107893Y-11313643D01*
X10110274Y-11318405D01*
X10110274Y-11327929D01*
X10107893Y-11332691D01*
X10103131Y-11337453D01*
X10093607Y-11339834D01*
X10076941Y-11339834D01*
X10067417Y-11337453D01*
X10062655Y-11332691D01*
X10060274Y-11327929D01*
%TO.C,U102*%
X11330274Y-10051929D02*
X11330274Y-10042405D01*
X11332655Y-10037643D01*
X11337417Y-10032881D01*
X11346941Y-10030500D01*
X11363607Y-10030500D01*
X11373131Y-10032881D01*
X11377893Y-10037643D01*
X11380274Y-10042405D01*
X11380274Y-10051929D01*
X11377893Y-10056691D01*
X11373131Y-10061453D01*
X11363607Y-10063834D01*
X11346941Y-10063834D01*
X11337417Y-10061453D01*
X11332655Y-10056691D01*
X11330274Y-10051929D01*
%TO.C,U24*%
X12346274Y-11073929D02*
X12346274Y-11064405D01*
X12348655Y-11059643D01*
X12353417Y-11054881D01*
X12362941Y-11052500D01*
X12379607Y-11052500D01*
X12389131Y-11054881D01*
X12393893Y-11059643D01*
X12396274Y-11064405D01*
X12396274Y-11073929D01*
X12393893Y-11078691D01*
X12389131Y-11083453D01*
X12379607Y-11085834D01*
X12362941Y-11085834D01*
X12353417Y-11083453D01*
X12348655Y-11078691D01*
X12346274Y-11073929D01*
%TO.C,U27*%
X12087274Y-10305929D02*
X12087274Y-10296405D01*
X12089655Y-10291643D01*
X12094417Y-10286881D01*
X12103941Y-10284500D01*
X12120607Y-10284500D01*
X12130131Y-10286881D01*
X12134893Y-10291643D01*
X12137274Y-10296405D01*
X12137274Y-10305929D01*
X12134893Y-10310691D01*
X12130131Y-10315453D01*
X12120607Y-10317834D01*
X12103941Y-10317834D01*
X12094417Y-10315453D01*
X12089655Y-10310691D01*
X12087274Y-10305929D01*
%TO.C,U28*%
X12087274Y-11321929D02*
X12087274Y-11312405D01*
X12089655Y-11307643D01*
X12094417Y-11302881D01*
X12103941Y-11300500D01*
X12120607Y-11300500D01*
X12130131Y-11302881D01*
X12134893Y-11307643D01*
X12137274Y-11312405D01*
X12137274Y-11321929D01*
X12134893Y-11326691D01*
X12130131Y-11331453D01*
X12120607Y-11333834D01*
X12103941Y-11333834D01*
X12094417Y-11331453D01*
X12089655Y-11326691D01*
X12087274Y-11321929D01*
%TO.C,U12*%
X16659686Y-9847153D02*
X16669210Y-9847153D01*
X16673972Y-9849534D01*
X16678734Y-9854296D01*
X16681115Y-9863820D01*
X16681115Y-9880486D01*
X16678734Y-9890010D01*
X16673972Y-9894772D01*
X16669210Y-9897153D01*
X16659686Y-9897153D01*
X16654924Y-9894772D01*
X16650162Y-9890010D01*
X16647781Y-9880486D01*
X16647781Y-9863820D01*
X16650162Y-9854296D01*
X16654924Y-9849534D01*
X16659686Y-9847153D01*
%TO.C,U19*%
X16399686Y-9598153D02*
X16409210Y-9598153D01*
X16413972Y-9600534D01*
X16418734Y-9605296D01*
X16421115Y-9614820D01*
X16421115Y-9631486D01*
X16418734Y-9641010D01*
X16413972Y-9645772D01*
X16409210Y-9648153D01*
X16399686Y-9648153D01*
X16394924Y-9645772D01*
X16390162Y-9641010D01*
X16387781Y-9631486D01*
X16387781Y-9614820D01*
X16390162Y-9605296D01*
X16394924Y-9600534D01*
X16399686Y-9598153D01*
%TO.C,U20*%
X15643686Y-10101153D02*
X15653210Y-10101153D01*
X15657972Y-10103534D01*
X15662734Y-10108296D01*
X15665115Y-10117820D01*
X15665115Y-10134486D01*
X15662734Y-10144010D01*
X15657972Y-10148772D01*
X15653210Y-10151153D01*
X15643686Y-10151153D01*
X15638924Y-10148772D01*
X15634162Y-10144010D01*
X15631781Y-10134486D01*
X15631781Y-10117820D01*
X15634162Y-10108296D01*
X15638924Y-10103534D01*
X15643686Y-10101153D01*
%TO.C,Cap_1*%
X17471567Y-10031629D02*
X17471567Y-10060201D01*
X17471567Y-10045915D02*
X17421567Y-10045915D01*
X17428710Y-10050677D01*
X17433472Y-10055439D01*
X17435853Y-10060201D01*
X17426329Y-10012582D02*
X17423948Y-10010201D01*
X17421567Y-10005439D01*
X17421567Y-9993534D01*
X17423948Y-9988772D01*
X17426329Y-9986391D01*
X17431091Y-9984010D01*
X17435853Y-9984010D01*
X17442996Y-9986391D01*
X17471567Y-10014963D01*
X17471567Y-9984010D01*
X17421567Y-9953058D02*
X17421567Y-9948296D01*
X17423948Y-9943534D01*
X17426329Y-9941153D01*
X17431091Y-9938772D01*
X17440615Y-9936391D01*
X17452519Y-9936391D01*
X17462043Y-9938772D01*
X17466805Y-9941153D01*
X17469186Y-9943534D01*
X17471567Y-9948296D01*
X17471567Y-9953058D01*
X17469186Y-9957820D01*
X17466805Y-9960201D01*
X17462043Y-9962582D01*
X17452519Y-9964963D01*
X17440615Y-9964963D01*
X17431091Y-9962582D01*
X17426329Y-9960201D01*
X17423948Y-9957820D01*
X17421567Y-9953058D01*
X17421567Y-9893534D02*
X17421567Y-9903058D01*
X17423948Y-9907820D01*
X17426329Y-9910201D01*
X17433472Y-9914963D01*
X17442996Y-9917344D01*
X17462043Y-9917344D01*
X17466805Y-9914963D01*
X17469186Y-9912582D01*
X17471567Y-9907820D01*
X17471567Y-9898296D01*
X17469186Y-9893534D01*
X17466805Y-9891153D01*
X17462043Y-9888772D01*
X17450138Y-9888772D01*
X17445377Y-9891153D01*
X17442996Y-9893534D01*
X17440615Y-9898296D01*
X17440615Y-9907820D01*
X17442996Y-9912582D01*
X17445377Y-9914963D01*
X17450138Y-9917344D01*
X17476329Y-9879248D02*
X17476329Y-9841153D01*
X17469186Y-9807820D02*
X17471567Y-9812582D01*
X17471567Y-9822105D01*
X17469186Y-9826867D01*
X17466805Y-9829248D01*
X17462043Y-9831629D01*
X17447758Y-9831629D01*
X17442996Y-9829248D01*
X17440615Y-9826867D01*
X17438234Y-9822105D01*
X17438234Y-9812582D01*
X17440615Y-9807820D01*
X17471567Y-9764963D02*
X17445377Y-9764963D01*
X17440615Y-9767344D01*
X17438234Y-9772105D01*
X17438234Y-9781629D01*
X17440615Y-9786391D01*
X17469186Y-9764963D02*
X17471567Y-9769724D01*
X17471567Y-9781629D01*
X17469186Y-9786391D01*
X17464424Y-9788772D01*
X17459662Y-9788772D01*
X17454900Y-9786391D01*
X17452519Y-9781629D01*
X17452519Y-9769724D01*
X17450138Y-9764963D01*
X17438234Y-9741153D02*
X17488234Y-9741153D01*
X17440615Y-9741153D02*
X17438234Y-9736391D01*
X17438234Y-9726867D01*
X17440615Y-9722105D01*
X17442996Y-9719724D01*
X17447758Y-9717344D01*
X17462043Y-9717344D01*
X17466805Y-9719724D01*
X17469186Y-9722105D01*
X17471567Y-9726867D01*
X17471567Y-9736391D01*
X17469186Y-9741153D01*
X17476329Y-9707820D02*
X17476329Y-9669724D01*
X17469186Y-9660201D02*
X17471567Y-9655439D01*
X17471567Y-9645915D01*
X17469186Y-9641153D01*
X17464424Y-9638772D01*
X17462043Y-9638772D01*
X17457281Y-9641153D01*
X17454900Y-9645915D01*
X17454900Y-9653058D01*
X17452519Y-9657820D01*
X17447758Y-9660201D01*
X17445377Y-9660201D01*
X17440615Y-9657820D01*
X17438234Y-9653058D01*
X17438234Y-9645915D01*
X17440615Y-9641153D01*
X17471567Y-9617344D02*
X17438234Y-9617344D01*
X17442996Y-9617344D02*
X17440615Y-9614963D01*
X17438234Y-9610201D01*
X17438234Y-9603058D01*
X17440615Y-9598296D01*
X17445377Y-9595915D01*
X17471567Y-9595915D01*
X17445377Y-9595915D02*
X17440615Y-9593534D01*
X17438234Y-9588772D01*
X17438234Y-9581629D01*
X17440615Y-9576867D01*
X17445377Y-9574486D01*
X17471567Y-9574486D01*
X17471567Y-9529248D02*
X17421567Y-9529248D01*
X17469186Y-9529248D02*
X17471567Y-9534010D01*
X17471567Y-9543534D01*
X17469186Y-9548296D01*
X17466805Y-9550677D01*
X17462043Y-9553058D01*
X17447758Y-9553058D01*
X17442996Y-9550677D01*
X17440615Y-9548296D01*
X17438234Y-9543534D01*
X17438234Y-9534010D01*
X17440615Y-9529248D01*
%TD*%
M02*
