G04 Layer_Color=32768*
%FSAX25Y25*%
%MOIN*%
G70*
G01*
G75*
%ADD24C,0.01000*%
%ADD26C,0.00600*%
%ADD29C,0.00800*%
%ADD31C,0.00200*%
%ADD32C,0.00300*%
%ADD33C,0.00394*%
D24*
X0040700Y-0080000D02*
X0058700D01*
X0040700Y0070000D02*
X0058700D01*
D26*
X0040634Y-0022428D02*
X0039801Y-0021595D01*
Y-0019929D01*
X0040634Y-0019096D01*
X0041467D01*
X0042300Y-0019929D01*
Y-0020762D01*
Y-0019929D01*
X0043133Y-0019096D01*
X0043966D01*
X0044799Y-0019929D01*
Y-0021595D01*
X0043966Y-0022428D01*
X0040634Y-0017430D02*
X0039801Y-0016597D01*
Y-0014931D01*
X0040634Y-0014098D01*
X0041467D01*
X0042300Y-0014931D01*
X0043133Y-0014098D01*
X0043966D01*
X0044799Y-0014931D01*
Y-0016597D01*
X0043966Y-0017430D01*
X0043133D01*
X0042300Y-0016597D01*
X0041467Y-0017430D01*
X0040634D01*
X0042300Y-0016597D02*
Y-0014931D01*
X0044799Y-0012431D02*
X0043966D01*
Y-0011598D01*
X0044799D01*
Y-0012431D01*
Y-0008266D02*
Y-0006600D01*
Y-0007433D01*
X0039801D01*
X0040634Y-0008266D01*
Y-0004101D02*
X0039801Y-0003268D01*
Y-0001602D01*
X0040634Y-0000769D01*
X0043966D01*
X0044799Y-0001602D01*
Y-0003268D01*
X0043966Y-0004101D01*
X0040634D01*
X0044799Y0000898D02*
X0041467D01*
Y0001731D01*
X0042300Y0002564D01*
X0044799D01*
X0042300D01*
X0041467Y0003397D01*
X0042300Y0004230D01*
X0044799D01*
Y0005896D02*
X0041467D01*
Y0006729D01*
X0042300Y0007562D01*
X0044799D01*
X0042300D01*
X0041467Y0008395D01*
X0042300Y0009228D01*
X0044799D01*
D29*
X0041700Y-0080000D02*
Y-0024028D01*
Y0010828D02*
Y0070000D01*
Y-0080000D02*
X0043033Y-0076000D01*
X0040367D02*
X0041700Y-0080000D01*
X0040367Y0066000D02*
X0041700Y0070000D01*
X0043033Y0066000D01*
D31*
X-0031471Y-0010483D02*
X-0031467Y-0011683D01*
X-0030867Y-0011681D01*
X-0030668Y-0011480D01*
X-0030670Y-0010680D01*
X-0030871Y-0010481D01*
X-0031471Y-0010483D01*
X-0029667Y-0011677D02*
X-0030067Y-0011678D01*
X-0030268Y-0011479D01*
X-0030269Y-0011079D01*
X-0030070Y-0010878D01*
X-0029670Y-0010877D01*
X-0029470Y-0011076D01*
X-0029469Y-0011276D01*
X-0030269Y-0011279D01*
X-0029068Y-0011675D02*
X-0028468Y-0011673D01*
X-0028269Y-0011472D01*
X-0028469Y-0011273D01*
X-0028869Y-0011274D01*
X-0029070Y-0011075D01*
X-0028870Y-0010874D01*
X-0028271Y-0010872D01*
X-0027868Y-0011671D02*
X-0027468Y-0011670D01*
X-0027668Y-0011670D01*
X-0027671Y-0010870D01*
X-0027871Y-0010871D01*
X-0026467Y-0012066D02*
X-0026267Y-0012065D01*
X-0026068Y-0011865D01*
X-0026071Y-0010865D01*
X-0026671Y-0010867D01*
X-0026870Y-0011068D01*
X-0026869Y-0011468D01*
X-0026669Y-0011667D01*
X-0026069Y-0011665D01*
X-0025669Y-0011664D02*
X-0025671Y-0010864D01*
X-0025072Y-0010862D01*
X-0024871Y-0011061D01*
X-0024869Y-0011661D01*
X-0024272Y-0010859D02*
X-0023872Y-0010858D01*
X-0023672Y-0011057D01*
X-0023670Y-0011657D01*
X-0024269Y-0011659D01*
X-0024470Y-0011460D01*
X-0024271Y-0011259D01*
X-0023671Y-0011257D01*
X-0023073Y-0010655D02*
X-0023072Y-0010855D01*
X-0023272Y-0010856D01*
X-0022872Y-0010855D01*
X-0023072Y-0010855D01*
X-0023070Y-0011455D01*
X-0022870Y-0011654D01*
X-0022070Y-0011652D02*
X-0021670Y-0011650D01*
X-0021471Y-0011450D01*
X-0021472Y-0011050D01*
X-0021673Y-0010851D01*
X-0022073Y-0010852D01*
X-0022272Y-0011052D01*
X-0022271Y-0011452D01*
X-0022070Y-0011652D01*
X-0021073Y-0010849D02*
X-0021070Y-0011648D01*
X-0021072Y-0011248D01*
X-0020872Y-0011048D01*
X-0020673Y-0010847D01*
X-0020473Y-0010847D01*
X-0004100Y0026300D02*
X-0004300Y0026500D01*
X-0004700D01*
X-0004900Y0026300D01*
Y0025500D01*
X-0004700Y0025300D01*
X-0004300D01*
X-0004100Y0025500D01*
X-0003700Y0025300D02*
X-0003300D01*
X-0003500D01*
Y0026500D01*
X-0003700Y0026300D01*
X-0002701D02*
X-0002501Y0026500D01*
X-0002101D01*
X-0001901Y0026300D01*
Y0026100D01*
X-0002101Y0025900D01*
X-0002301D01*
X-0002101D01*
X-0001901Y0025700D01*
Y0025500D01*
X-0002101Y0025300D01*
X-0002501D01*
X-0002701Y0025500D01*
X-0014131Y0029108D02*
X-0015049Y0028337D01*
X-0014536Y0027724D01*
X-0013513Y0028060D02*
X-0013231Y0028036D01*
X-0012974Y0027729D01*
X-0012999Y0027448D01*
X-0013152Y0027319D01*
X-0013433Y0027344D01*
X-0013562Y0027497D01*
X-0013433Y0027344D01*
X-0013458Y0027062D01*
X-0013611Y0026934D01*
X-0013893Y0026958D01*
X-0014150Y0027264D01*
X-0014125Y0027546D01*
X0020400Y-0001400D02*
Y-0002600D01*
X0021200D01*
X0021600D02*
X0022000D01*
X0021800D01*
Y-0001400D01*
X0021600Y-0001600D01*
X-0023400Y0002700D02*
X-0023200Y0002900D01*
Y0003300D01*
X-0023400Y0003500D01*
X-0024200D01*
X-0024400Y0003300D01*
Y0002900D01*
X-0024200Y0002700D01*
X-0024400Y0002300D02*
Y0001901D01*
Y0002101D01*
X-0023200D01*
X-0023400Y0002300D01*
X-0024400Y0001301D02*
Y0000901D01*
Y0001101D01*
X-0023200D01*
X-0023400Y0001301D01*
X0015500Y0017200D02*
X0015300Y0017000D01*
Y0016601D01*
X0015500Y0016401D01*
X0016299D01*
X0016499Y0016601D01*
Y0017000D01*
X0016299Y0017200D01*
X0015500Y0017600D02*
X0015300Y0017800D01*
Y0018200D01*
X0015500Y0018400D01*
X0015700D01*
X0015900Y0018200D01*
X0016100Y0018400D01*
X0016299D01*
X0016499Y0018200D01*
Y0017800D01*
X0016299Y0017600D01*
X0016100D01*
X0015900Y0017800D01*
X0015700Y0017600D01*
X0015500D01*
X0015900Y0017800D02*
Y0018200D01*
X0019900Y0010700D02*
X0019700Y0010900D01*
X0019300D01*
X0019100Y0010700D01*
Y0009900D01*
X0019300Y0009700D01*
X0019700D01*
X0019900Y0009900D01*
X0020300Y0010900D02*
X0021099D01*
Y0010700D01*
X0020300Y0009900D01*
Y0009700D01*
X0021700Y0006400D02*
X0021900Y0006200D01*
X0022300D01*
X0022500Y0006400D01*
Y0007200D01*
X0022300Y0007400D01*
X0021900D01*
X0021700Y0007200D01*
X0020501Y0006200D02*
X0020900Y0006400D01*
X0021300Y0006800D01*
Y0007200D01*
X0021101Y0007400D01*
X0020701D01*
X0020501Y0007200D01*
Y0007000D01*
X0020701Y0006800D01*
X0021300D01*
X-0010300Y-0016500D02*
X-0010100Y-0016700D01*
X-0009700D01*
X-0009500Y-0016500D01*
Y-0015700D01*
X-0009700Y-0015500D01*
X-0010100D01*
X-0010300Y-0015700D01*
X-0011499Y-0016700D02*
X-0010700D01*
Y-0016100D01*
X-0011100Y-0016300D01*
X-0011299D01*
X-0011499Y-0016100D01*
Y-0015700D01*
X-0011299Y-0015500D01*
X-0010900D01*
X-0010700Y-0015700D01*
X-0020100Y0007000D02*
X-0019900Y0006800D01*
X-0019500D01*
X-0019300Y0007000D01*
Y0007800D01*
X-0019500Y0008000D01*
X-0019900D01*
X-0020100Y0007800D01*
X-0021099Y0008000D02*
Y0006800D01*
X-0020500Y0007400D01*
X-0021299D01*
X0016900Y0000900D02*
X0017100Y0001100D01*
Y0001500D01*
X0016900Y0001700D01*
X0016100D01*
X0015900Y0001500D01*
Y0001100D01*
X0016100Y0000900D01*
X0016900Y0000500D02*
X0017100Y0000301D01*
Y-0000099D01*
X0016900Y-0000299D01*
X0016700D01*
X0016500Y-0000099D01*
Y0000100D01*
Y-0000099D01*
X0016300Y-0000299D01*
X0016100D01*
X0015900Y-0000099D01*
Y0000301D01*
X0016100Y0000500D01*
X0019000Y0017200D02*
X0018800Y0017000D01*
Y0016601D01*
X0019000Y0016401D01*
X0019799D01*
X0019999Y0016601D01*
Y0017000D01*
X0019799Y0017200D01*
X0019999Y0018400D02*
Y0017600D01*
X0019200Y0018400D01*
X0019000D01*
X0018800Y0018200D01*
Y0017800D01*
X0019000Y0017600D01*
X0033799Y0019001D02*
X0033999Y0019201D01*
Y0019601D01*
X0033799Y0019801D01*
X0032999D01*
X0032799Y0019601D01*
Y0019201D01*
X0032999Y0019001D01*
X0032799Y0018601D02*
Y0018201D01*
Y0018401D01*
X0033999D01*
X0033799Y0018601D01*
D32*
X-0027900Y0004799D02*
X-0029400D01*
Y0004050D01*
X-0029150Y0003799D01*
X-0028150D01*
X-0027900Y0004050D01*
Y0004799D01*
X-0029400Y0002550D02*
Y0003050D01*
X-0029150Y0003300D01*
X-0028650D01*
X-0028400Y0003050D01*
Y0002550D01*
X-0028650Y0002300D01*
X-0028900D01*
Y0003300D01*
X-0029400Y0001800D02*
Y0001050D01*
X-0029150Y0000800D01*
X-0028900Y0001050D01*
Y0001550D01*
X-0028650Y0001800D01*
X-0028400Y0001550D01*
Y0000800D01*
X-0029400Y0000301D02*
Y-0000199D01*
Y0000051D01*
X-0028400D01*
Y0000301D01*
X-0029900Y-0001449D02*
Y-0001699D01*
X-0029650Y-0001949D01*
X-0028400D01*
Y-0001199D01*
X-0028650Y-0000949D01*
X-0029150D01*
X-0029400Y-0001199D01*
Y-0001949D01*
Y-0002448D02*
X-0028400D01*
Y-0003198D01*
X-0028650Y-0003448D01*
X-0029400D01*
X-0028400Y-0004198D02*
Y-0004698D01*
X-0028650Y-0004948D01*
X-0029400D01*
Y-0004198D01*
X-0029150Y-0003948D01*
X-0028900Y-0004198D01*
Y-0004948D01*
X-0028150Y-0005697D02*
X-0028400D01*
Y-0005447D01*
Y-0005947D01*
Y-0005697D01*
X-0029150D01*
X-0029400Y-0005947D01*
Y-0006947D02*
Y-0007447D01*
X-0029150Y-0007697D01*
X-0028650D01*
X-0028400Y-0007447D01*
Y-0006947D01*
X-0028650Y-0006697D01*
X-0029150D01*
X-0029400Y-0006947D01*
X-0028400Y-0008197D02*
X-0029400D01*
X-0028900D01*
X-0028650Y-0008447D01*
X-0028400Y-0008697D01*
Y-0008946D01*
X-0030715Y0012472D02*
Y0010973D01*
X-0029965D01*
X-0029715Y0011223D01*
Y0012223D01*
X-0029965Y0012472D01*
X-0030715D01*
X-0028466Y0010973D02*
X-0028965D01*
X-0029215Y0011223D01*
Y0011723D01*
X-0028965Y0011973D01*
X-0028466D01*
X-0028216Y0011723D01*
Y0011473D01*
X-0029215D01*
X-0027716Y0010973D02*
X-0026966D01*
X-0026716Y0011223D01*
X-0026966Y0011473D01*
X-0027466D01*
X-0027716Y0011723D01*
X-0027466Y0011973D01*
X-0026716D01*
X-0026216Y0010973D02*
X-0025716D01*
X-0025966D01*
Y0011973D01*
X-0026216D01*
X-0024467Y0010473D02*
X-0024217D01*
X-0023967Y0010723D01*
Y0011973D01*
X-0024717D01*
X-0024967Y0011723D01*
Y0011223D01*
X-0024717Y0010973D01*
X-0023967D01*
X-0023467D02*
Y0011973D01*
X-0022717D01*
X-0022467Y0011723D01*
Y0010973D01*
X-0021718Y0011973D02*
X-0021218D01*
X-0020968Y0011723D01*
Y0010973D01*
X-0021718D01*
X-0021968Y0011223D01*
X-0021718Y0011473D01*
X-0020968D01*
X-0020218Y0012223D02*
Y0011973D01*
X-0020468D01*
X-0019968D01*
X-0020218D01*
Y0011223D01*
X-0019968Y0010973D01*
X-0018969D02*
X-0018469D01*
X-0018219Y0011223D01*
Y0011723D01*
X-0018469Y0011973D01*
X-0018969D01*
X-0019218Y0011723D01*
Y0011223D01*
X-0018969Y0010973D01*
X-0017719Y0011973D02*
Y0010973D01*
Y0011473D01*
X-0017469Y0011723D01*
X-0017219Y0011973D01*
X-0016969D01*
X0029155Y0017389D02*
X0028156Y0018888D01*
Y0017389D02*
X0029155Y0018888D01*
X0027656D02*
X0027156D01*
X0027406D01*
Y0017389D01*
X0027656Y0017639D01*
X-0004331Y0000712D02*
Y-0000538D01*
X-0004081Y-0000787D01*
X-0003581D01*
X-0003331Y-0000538D01*
Y0000712D01*
X-0002831Y-0000787D02*
X-0002331D01*
X-0002581D01*
Y0000712D01*
X-0002831Y0000462D01*
X-0008188Y0021976D02*
X-0009687D01*
Y0020977D01*
Y0019477D02*
Y0020477D01*
X-0008688Y0019477D01*
X-0008438D01*
X-0008188Y0019727D01*
Y0020227D01*
X-0008438Y0020477D01*
X-0011358Y0032565D02*
X-0011327Y0032917D01*
X-0011648Y0033300D01*
X-0012000Y0033331D01*
X-0012766Y0032688D01*
X-0012797Y0032336D01*
X-0012476Y0031953D01*
X-0012124Y0031922D01*
X-0011994Y0031379D02*
X-0011672Y0030996D01*
X-0011833Y0031187D01*
X-0010684Y0032151D01*
X-0011037Y0032182D01*
X-0010233Y0031225D02*
X-0009881Y0031194D01*
X-0009560Y0030811D01*
X-0009591Y0030459D01*
X-0010357Y0029816D01*
X-0010709Y0029847D01*
X-0011030Y0030230D01*
X-0010999Y0030582D01*
X-0010233Y0031225D01*
D33*
X-0026447Y-0007012D02*
G03*
X-0027235Y-0007799I-0000000J-0000787D01*
G01*
X-0031565D02*
G03*
X-0032353Y-0007012I-0000787J0000000D01*
G01*
X-0032353Y0004012D02*
G03*
X-0031565Y0004799I0000000J0000787D01*
G01*
X-0027235D02*
G03*
X-0026447Y0004012I0000787J0000000D01*
G01*
X-0022772Y0011500D02*
X-0019228D01*
X-0021000Y0009728D02*
Y0013272D01*
X-0025626Y0013468D02*
X-0016374D01*
X-0025626Y0009532D02*
X-0016374D01*
X-0025626D02*
Y0013468D01*
X-0016374Y0009532D02*
Y0013468D01*
X-0003200Y0024817D02*
Y0026983D01*
X-0004283Y0025900D02*
X-0002117D01*
X-0006743Y0024522D02*
Y0027278D01*
X0000343Y0024522D02*
Y0027278D01*
X-0006743D02*
X0000343D01*
X-0006743Y0024522D02*
X0000343D01*
X-0031565Y-0007799D02*
X-0027235D01*
X-0032353Y-0007012D02*
Y0004012D01*
X-0031565Y0004799D02*
X-0027235D01*
X-0026447Y-0007012D02*
Y0004012D01*
X0000000Y-0001969D02*
Y0001969D01*
X-0001969Y0000000D02*
X0001969D01*
X-0014173Y-0014173D02*
X0014173D01*
X-0014173Y0014173D02*
X0014173D01*
Y-0014173D02*
Y0014173D01*
X-0014173Y-0014173D02*
Y0014173D01*
X-0016830Y0029249D02*
X-0014719Y0031020D01*
X-0012275Y0023820D02*
X-0010164Y0025591D01*
X-0014719Y0031020D02*
X-0010164Y0025591D01*
X-0016830Y0029249D02*
X-0012275Y0023820D01*
X-0014193Y0028249D02*
X-0012801Y0026591D01*
X-0014327Y0026724D02*
X-0012668Y0028116D01*
X-0010672Y0019220D02*
X-0007128D01*
X-0008900Y0017449D02*
Y0020992D01*
X-0010869Y0023846D02*
X-0006932D01*
X-0010869Y0014594D02*
X-0006932D01*
Y0023846D01*
X-0010869Y0014594D02*
Y0023846D01*
X0018557Y-0003378D02*
Y-0000622D01*
X0025643Y-0003378D02*
Y-0000622D01*
X0018557D02*
X0025643D01*
X0018557Y-0003378D02*
X0025643D01*
X0021017Y-0002000D02*
X0023183D01*
X0022100Y-0003083D02*
Y-0000917D01*
X-0024883Y0001800D02*
X-0022717D01*
X-0023800Y0000717D02*
Y0002883D01*
X-0025178Y0005343D02*
X-0022422D01*
X-0025178Y-0001743D02*
X-0022422D01*
Y0005343D01*
X-0025178Y-0001743D02*
Y0005343D01*
X-0011936Y0032177D02*
X-0009658Y0029463D01*
X-0012154Y0029681D02*
X-0009440Y0031959D01*
X-0015279Y0033098D02*
X-0009332Y0026011D01*
X-0012263Y0035629D02*
X-0006316Y0028542D01*
X-0009332Y0026011D02*
X-0006316Y0028542D01*
X-0015279Y0033098D02*
X-0012263Y0035629D01*
X0014817Y0018101D02*
X0016982D01*
X0015899Y0017018D02*
Y0019183D01*
X0014521Y0014557D02*
X0017277D01*
X0014521Y0021644D02*
X0017277D01*
X0014521Y0014557D02*
Y0021644D01*
X0017277Y0014557D02*
Y0021644D01*
X0020800Y0009217D02*
Y0011383D01*
X0019717Y0010300D02*
X0021883D01*
X0017257Y0008922D02*
Y0011678D01*
X0024343Y0008922D02*
Y0011678D01*
X0017257D02*
X0024343D01*
X0017257Y0008922D02*
X0024343D01*
X0020800Y0005717D02*
Y0007883D01*
X0019717Y0006800D02*
X0021883D01*
X0024343Y0005422D02*
Y0008178D01*
X0017257Y0005422D02*
Y0008178D01*
Y0005422D02*
X0024343D01*
X0017257Y0008178D02*
X0024343D01*
X-0011200Y-0017183D02*
Y-0015017D01*
X-0012283Y-0016100D02*
X-0010117D01*
X-0007657Y-0017478D02*
Y-0014722D01*
X-0014743Y-0017478D02*
Y-0014722D01*
Y-0017478D02*
X-0007657D01*
X-0014743Y-0014722D02*
X-0007657D01*
X-0021000Y0006317D02*
Y0008483D01*
X-0022083Y0007400D02*
X-0019917D01*
X-0017457Y0006022D02*
Y0008778D01*
X-0024543Y0006022D02*
Y0008778D01*
Y0006022D02*
X-0017457D01*
X-0024543Y0008778D02*
X-0017457D01*
X0015417Y0000000D02*
X0017583D01*
X0016500Y-0001083D02*
Y0001083D01*
X0015122Y0003543D02*
X0017878D01*
X0015122Y-0003543D02*
X0017878D01*
Y0003543D01*
X0015122Y-0003543D02*
Y0003543D01*
X0018317Y0018101D02*
X0020482D01*
X0019399Y0017018D02*
Y0019183D01*
X0018021Y0014557D02*
X0020777D01*
X0018021Y0021644D02*
X0020777D01*
X0018021Y0014557D02*
Y0021644D01*
X0020777Y0014557D02*
Y0021644D01*
X0032317Y0018101D02*
X0034482D01*
X0033399Y0017018D02*
Y0019183D01*
X0032021Y0021644D02*
X0034777D01*
X0032021Y0014557D02*
X0034777D01*
Y0021644D01*
X0032021Y0014557D02*
Y0021644D01*
X-0029400Y-0011683D02*
Y-0009517D01*
X-0030483Y-0010600D02*
X-0028317D01*
X-0025857Y-0011978D02*
Y-0009222D01*
X-0032943Y-0011978D02*
Y-0009222D01*
Y-0011978D02*
X-0025857D01*
X-0032943Y-0009222D02*
X-0025857D01*
X0022856Y0014951D02*
G03*
X0022462Y0015345I-0000394J0000000D01*
G01*
Y0020857D02*
G03*
X0022856Y0021250I0000000J0000394D01*
G01*
X0029943D02*
G03*
X0030336Y0020857I0000394J0000000D01*
G01*
Y0015345D02*
G03*
X0029943Y0014951I0000000J-0000394D01*
G01*
X0023368Y0020739D02*
G03*
X0022974Y0020345I0000000J-0000394D01*
G01*
X0029825D02*
G03*
X0029431Y0020739I-0000394J0000000D01*
G01*
X0022974Y0015857D02*
G03*
X0023368Y0015463I0000394J0000000D01*
G01*
X0029431D02*
G03*
X0029825Y0015857I0000000J0000394D01*
G01*
X-0012090Y0007564D02*
G03*
X-0012090Y0006814I0000000J-0000375D01*
G01*
Y0005990D02*
G03*
X-0012090Y0005240I0000000J-0000375D01*
G01*
Y0004415D02*
G03*
X-0012090Y0003665I0000000J-0000375D01*
G01*
Y0002840D02*
G03*
X-0012090Y0002090I0000000J-0000375D01*
G01*
Y0001265D02*
G03*
X-0012090Y0000515I0000000J-0000375D01*
G01*
Y-0000310D02*
G03*
X-0012090Y-0001060I0000000J-0000375D01*
G01*
Y-0001884D02*
G03*
X-0012090Y-0002634I0000000J-0000375D01*
G01*
Y-0003459D02*
G03*
X-0012090Y-0004209I0000000J-0000375D01*
G01*
Y-0005034D02*
G03*
X-0012090Y-0005784I0000000J-0000375D01*
G01*
Y-0006609D02*
G03*
X-0012090Y-0007359I0000000J-0000375D01*
G01*
Y-0008184D02*
G03*
X-0012090Y-0008934I0000000J-0000375D01*
G01*
Y0009139D02*
G03*
X-0012090Y0008389I0000000J-0000375D01*
G01*
X-0006615Y0007874D02*
G03*
X-0006615Y0007874I-0001259J0000000D01*
G01*
X-0009139Y-0012090D02*
G03*
X-0008389Y-0012090I0000375J0000000D01*
G01*
X0008184D02*
G03*
X0008934Y-0012090I0000375J0000000D01*
G01*
X0006609D02*
G03*
X0007359Y-0012090I0000375J0000000D01*
G01*
X0005034D02*
G03*
X0005784Y-0012090I0000375J0000000D01*
G01*
X0003459Y-0012090D02*
G03*
X0004209Y-0012090I0000375J0000000D01*
G01*
X0001884D02*
G03*
X0002634Y-0012090I0000375J0000000D01*
G01*
X0000310D02*
G03*
X0001060Y-0012090I0000375J0000000D01*
G01*
X-0001265Y-0012090D02*
G03*
X-0000515Y-0012090I0000375J0000000D01*
G01*
X-0002840Y-0012090D02*
G03*
X-0002090Y-0012090I0000375J0000000D01*
G01*
X-0004415Y-0012090D02*
G03*
X-0003665Y-0012090I0000375J0000000D01*
G01*
X-0005990D02*
G03*
X-0005240Y-0012090I0000375J0000000D01*
G01*
X-0007564D02*
G03*
X-0006814Y-0012090I0000375J0000000D01*
G01*
X0012090Y-0009139D02*
G03*
X0012090Y-0008389I0000000J0000375D01*
G01*
Y0008184D02*
G03*
X0012090Y0008934I0000000J0000375D01*
G01*
Y0006609D02*
G03*
X0012090Y0007359I0000000J0000375D01*
G01*
Y0005034D02*
G03*
X0012090Y0005784I0000000J0000375D01*
G01*
X0012090Y0003459D02*
G03*
X0012090Y0004209I0000000J0000375D01*
G01*
Y0001884D02*
G03*
X0012090Y0002634I0000000J0000375D01*
G01*
Y0000310D02*
G03*
X0012090Y0001060I0000000J0000375D01*
G01*
X0012090Y-0001265D02*
G03*
X0012090Y-0000515I0000000J0000375D01*
G01*
X0012090Y-0002840D02*
G03*
X0012090Y-0002090I0000000J0000375D01*
G01*
X0012090Y-0004415D02*
G03*
X0012090Y-0003665I0000000J0000375D01*
G01*
Y-0005990D02*
G03*
X0012090Y-0005240I0000000J0000375D01*
G01*
Y-0007564D02*
G03*
X0012090Y-0006814I0000000J0000375D01*
G01*
X0009139Y0012090D02*
G03*
X0008389Y0012090I-0000375J0000000D01*
G01*
X-0008184D02*
G03*
X-0008934Y0012090I-0000375J0000000D01*
G01*
X-0006609D02*
G03*
X-0007359Y0012090I-0000375J0000000D01*
G01*
X-0005034D02*
G03*
X-0005784Y0012090I-0000375J0000000D01*
G01*
X-0003459Y0012090D02*
G03*
X-0004209Y0012090I-0000375J0000000D01*
G01*
X-0001884D02*
G03*
X-0002634Y0012090I-0000375J0000000D01*
G01*
X-0000310D02*
G03*
X-0001060Y0012090I-0000375J0000000D01*
G01*
X0001265Y0012090D02*
G03*
X0000515Y0012090I-0000375J0000000D01*
G01*
X0002840Y0012090D02*
G03*
X0002090Y0012090I-0000375J0000000D01*
G01*
X0004415Y0012090D02*
G03*
X0003665Y0012090I-0000375J0000000D01*
G01*
X0005990D02*
G03*
X0005240Y0012090I-0000375J0000000D01*
G01*
X0007564D02*
G03*
X0006814Y0012090I-0000375J0000000D01*
G01*
X-0017653Y0009728D02*
Y0013272D01*
X-0024347Y0009728D02*
Y0013272D01*
Y0009728D02*
X-0017653D01*
X-0024347Y0013272D02*
X-0017653D01*
X-0005267Y0024817D02*
X-0001133D01*
X-0005267Y0026983D02*
X-0001133D01*
Y0024817D02*
Y0026983D01*
X-0005267Y0024817D02*
Y0026983D01*
X-0032353Y-0007799D02*
Y0004799D01*
X-0026447D01*
Y-0007799D02*
Y0004799D01*
X-0032353Y-0007799D02*
X-0026447D01*
X0030336Y0015345D02*
Y0020857D01*
X0022856Y0021250D02*
X0029943D01*
X0022462Y0015345D02*
Y0020857D01*
X0022856Y0014951D02*
X0029943D01*
X0023368Y0020739D02*
X0029431D01*
X0023368Y0015463D02*
X0029431D01*
X0029825Y0015857D02*
Y0020345D01*
X0022974Y0015857D02*
Y0020345D01*
X-0011811Y-0011811D02*
X0011811D01*
X-0011811Y0011811D02*
X0011811D01*
Y-0011811D02*
Y0011811D01*
X-0012090Y0006814D02*
X-0011811D01*
X-0012090Y0007564D02*
X-0011811D01*
X-0012090Y0005240D02*
X-0011811D01*
X-0012090Y0005990D02*
X-0011811D01*
X-0012090Y0003665D02*
X-0011811D01*
X-0012090Y0004415D02*
X-0011811D01*
X-0012090Y0002090D02*
X-0011811D01*
X-0012090Y0002840D02*
X-0011811D01*
X-0012090Y0000515D02*
X-0011811D01*
X-0012090Y0001265D02*
X-0011811D01*
X-0012090Y-0001060D02*
X-0011811D01*
X-0012090Y-0000310D02*
X-0011811D01*
X-0012090Y-0002634D02*
X-0011811D01*
X-0012090Y-0001884D02*
X-0011811D01*
X-0012090Y-0004209D02*
X-0011811D01*
X-0012090Y-0003459D02*
X-0011811D01*
X-0012090Y-0005784D02*
X-0011811D01*
X-0012090Y-0005034D02*
X-0011811D01*
X-0012090Y-0007359D02*
X-0011811D01*
X-0012090Y-0006609D02*
X-0011811D01*
X-0012090Y-0008934D02*
X-0011811D01*
X-0012090Y-0008184D02*
X-0011811D01*
X-0012090Y0008389D02*
X-0011811D01*
X-0012090Y0009139D02*
X-0011811D01*
X-0011811Y-0011811D02*
Y0011811D01*
X-0009139Y-0012090D02*
Y-0011811D01*
X-0008389Y-0012090D02*
Y-0011811D01*
X0008184Y-0012090D02*
Y-0011811D01*
X0008934Y-0012090D02*
Y-0011811D01*
X0006609Y-0012090D02*
Y-0011811D01*
X0007359Y-0012090D02*
Y-0011811D01*
X0005034Y-0012090D02*
Y-0011811D01*
X0005784Y-0012090D02*
Y-0011811D01*
X0003459Y-0012090D02*
Y-0011811D01*
X0004209Y-0012090D02*
Y-0011811D01*
X0001884Y-0012090D02*
Y-0011811D01*
X0002634D02*
X0002634Y-0012090D01*
X0000310Y-0012090D02*
Y-0011811D01*
X0001060Y-0012090D02*
Y-0011811D01*
X-0001265Y-0012090D02*
Y-0011811D01*
X-0000515Y-0012090D02*
Y-0011811D01*
X-0002840Y-0012090D02*
X-0002840Y-0011811D01*
X-0002090Y-0012090D02*
Y-0011811D01*
X-0004415D02*
X-0004415Y-0012090D01*
X-0003665Y-0012090D02*
Y-0011811D01*
X-0005990Y-0012090D02*
Y-0011811D01*
X-0005240Y-0012090D02*
Y-0011811D01*
X-0007564D02*
X-0007564Y-0012090D01*
X-0006814Y-0012090D02*
Y-0011811D01*
X0011811Y-0009139D02*
X0012090D01*
X0011811Y-0008389D02*
X0012090D01*
X0011811Y0008184D02*
X0012090D01*
X0011811Y0008934D02*
X0012090D01*
X0011811Y0006609D02*
X0012090D01*
X0011811Y0007359D02*
X0012090D01*
X0011811Y0005034D02*
X0012090D01*
X0011811Y0005784D02*
X0012090D01*
X0011811Y0003459D02*
X0012090D01*
X0011811Y0004209D02*
X0012090D01*
X0011811Y0001884D02*
X0012090D01*
X0011811Y0002634D02*
X0012090Y0002634D01*
X0011811Y0000310D02*
X0012090D01*
X0011811Y0001060D02*
X0012090D01*
X0011811Y-0001265D02*
X0012090D01*
X0011811Y-0000515D02*
X0012090D01*
X0011811Y-0002840D02*
X0012090Y-0002840D01*
X0011811Y-0002090D02*
X0012090D01*
X0011811Y-0004415D02*
X0012090Y-0004415D01*
X0011811Y-0003665D02*
X0012090D01*
X0011811Y-0005990D02*
X0012090D01*
X0011811Y-0005240D02*
X0012090D01*
X0011811Y-0007564D02*
X0012090Y-0007564D01*
X0011811Y-0006814D02*
X0012090D01*
X0009139Y0011811D02*
Y0012090D01*
X0008389Y0011811D02*
Y0012090D01*
X-0008184Y0011811D02*
Y0012090D01*
X-0008934Y0011811D02*
Y0012090D01*
X-0006609Y0011811D02*
Y0012090D01*
X-0007359Y0011811D02*
Y0012090D01*
X-0005034Y0011811D02*
Y0012090D01*
X-0005784Y0011811D02*
Y0012090D01*
X-0003459Y0011811D02*
Y0012090D01*
X-0004209Y0011811D02*
Y0012090D01*
X-0001884Y0011811D02*
Y0012090D01*
X-0002634Y0012090D02*
X-0002634Y0011811D01*
X-0000310D02*
Y0012090D01*
X-0001060Y0011811D02*
Y0012090D01*
X0001265Y0011811D02*
Y0012090D01*
X0000515Y0011811D02*
Y0012090D01*
X0002840Y0011811D02*
X0002840Y0012090D01*
X0002090Y0011811D02*
Y0012090D01*
X0004415Y0012090D02*
X0004415Y0011811D01*
X0003665D02*
Y0012090D01*
X0005990Y0011811D02*
Y0012090D01*
X0005240Y0011811D02*
Y0012090D01*
X0007564Y0012090D02*
X0007564Y0011811D01*
X0006814D02*
Y0012090D01*
X-0015655Y0028307D02*
X-0013996Y0029699D01*
X-0012998Y0025141D02*
X-0011339Y0026533D01*
X-0013996Y0029699D02*
X-0011339Y0026533D01*
X-0015655Y0028307D02*
X-0012998Y0025141D01*
X-0010672Y0015874D02*
Y0022567D01*
X-0007128Y0015874D02*
Y0022567D01*
X-0010672Y0015874D02*
X-0007128D01*
X-0010672Y0022567D02*
X-0007128D01*
X0020033Y-0003083D02*
Y-0000917D01*
X0024167Y-0003083D02*
Y-0000917D01*
X0020033D02*
X0024167D01*
X0020033Y-0003083D02*
X0024167D01*
X-0024883Y-0000267D02*
Y0003867D01*
X-0022717Y-0000267D02*
Y0003867D01*
X-0024883Y-0000267D02*
X-0022717D01*
X-0024883Y0003867D02*
X-0022717D01*
X-0014305Y0032245D02*
X-0011591Y0034522D01*
X-0010003Y0027118D02*
X-0007289Y0029395D01*
X-0011591Y0034522D02*
X-0007289Y0029395D01*
X-0014305Y0032245D02*
X-0010003Y0027118D01*
X0016982Y0016034D02*
Y0020168D01*
X0014817Y0016034D02*
Y0020168D01*
X0016982D01*
X0014817Y0016034D02*
X0016982D01*
X0018733Y0009217D02*
X0022867D01*
X0018733Y0011383D02*
X0022867D01*
Y0009217D02*
Y0011383D01*
X0018733Y0009217D02*
Y0011383D01*
Y0007883D02*
X0022867D01*
X0018733Y0005717D02*
X0022867D01*
X0018733D02*
Y0007883D01*
X0022867Y0005717D02*
Y0007883D01*
X-0013267Y-0015017D02*
X-0009133D01*
X-0013267Y-0017183D02*
X-0009133D01*
X-0013267D02*
Y-0015017D01*
X-0009133Y-0017183D02*
Y-0015017D01*
X-0023067Y0008483D02*
X-0018933D01*
X-0023067Y0006317D02*
X-0018933D01*
X-0023067D02*
Y0008483D01*
X-0018933Y0006317D02*
Y0008483D01*
X0015417Y-0002067D02*
Y0002067D01*
X0017583Y-0002067D02*
Y0002067D01*
X0015417Y-0002067D02*
X0017583D01*
X0015417Y0002067D02*
X0017583D01*
X0020482Y0016034D02*
Y0020168D01*
X0018317Y0016034D02*
Y0020168D01*
X0020482D01*
X0018317Y0016034D02*
X0020482D01*
X0032317D02*
Y0020168D01*
X0034482Y0016034D02*
Y0020168D01*
X0032317Y0016034D02*
X0034482D01*
X0032317Y0020168D02*
X0034482D01*
X-0031467Y-0009517D02*
X-0027333D01*
X-0031467Y-0011683D02*
X-0027333D01*
X-0031467D02*
Y-0009517D01*
X-0027333Y-0011683D02*
Y-0009517D01*
X-0026447Y-0007012D02*
G03*
X-0027235Y-0007799I-0000000J-0000787D01*
G01*
X-0031565D02*
G03*
X-0032353Y-0007012I-0000787J0000000D01*
G01*
X-0032353Y0004012D02*
G03*
X-0031565Y0004799I0000000J0000787D01*
G01*
X-0027235D02*
G03*
X-0026447Y0004012I0000787J0000000D01*
G01*
X-0022772Y0011500D02*
X-0019228D01*
X-0021000Y0009728D02*
Y0013272D01*
X-0025626Y0013468D02*
X-0016374D01*
X-0025626Y0009532D02*
X-0016374D01*
X-0025626D02*
Y0013468D01*
X-0016374Y0009532D02*
Y0013468D01*
X-0003200Y0024817D02*
Y0026983D01*
X-0004283Y0025900D02*
X-0002117D01*
X-0006743Y0024522D02*
Y0027278D01*
X0000343Y0024522D02*
Y0027278D01*
X-0006743D02*
X0000343D01*
X-0006743Y0024522D02*
X0000343D01*
X-0031565Y-0007799D02*
X-0027235D01*
X-0032353Y-0007012D02*
Y0004012D01*
X-0031565Y0004799D02*
X-0027235D01*
X-0026447Y-0007012D02*
Y0004012D01*
X0000000Y-0001969D02*
Y0001969D01*
X-0001969Y0000000D02*
X0001969D01*
X-0014173Y-0014173D02*
X0014173D01*
X-0014173Y0014173D02*
X0014173D01*
Y-0014173D02*
Y0014173D01*
X-0014173Y-0014173D02*
Y0014173D01*
X-0016830Y0029249D02*
X-0014719Y0031020D01*
X-0012275Y0023820D02*
X-0010164Y0025591D01*
X-0014719Y0031020D02*
X-0010164Y0025591D01*
X-0016830Y0029249D02*
X-0012275Y0023820D01*
X-0014193Y0028249D02*
X-0012801Y0026591D01*
X-0014327Y0026724D02*
X-0012668Y0028116D01*
X-0010672Y0019220D02*
X-0007128D01*
X-0008900Y0017449D02*
Y0020992D01*
X-0010869Y0023846D02*
X-0006932D01*
X-0010869Y0014594D02*
X-0006932D01*
Y0023846D01*
X-0010869Y0014594D02*
Y0023846D01*
X0018557Y-0003378D02*
Y-0000622D01*
X0025643Y-0003378D02*
Y-0000622D01*
X0018557D02*
X0025643D01*
X0018557Y-0003378D02*
X0025643D01*
X0021017Y-0002000D02*
X0023183D01*
X0022100Y-0003083D02*
Y-0000917D01*
X-0024883Y0001800D02*
X-0022717D01*
X-0023800Y0000717D02*
Y0002883D01*
X-0025178Y0005343D02*
X-0022422D01*
X-0025178Y-0001743D02*
X-0022422D01*
Y0005343D01*
X-0025178Y-0001743D02*
Y0005343D01*
X-0011936Y0032177D02*
X-0009658Y0029463D01*
X-0012154Y0029681D02*
X-0009440Y0031959D01*
X-0015279Y0033098D02*
X-0009332Y0026011D01*
X-0012263Y0035629D02*
X-0006316Y0028542D01*
X-0009332Y0026011D02*
X-0006316Y0028542D01*
X-0015279Y0033098D02*
X-0012263Y0035629D01*
X0014817Y0018101D02*
X0016982D01*
X0015899Y0017018D02*
Y0019183D01*
X0014521Y0014557D02*
X0017277D01*
X0014521Y0021644D02*
X0017277D01*
X0014521Y0014557D02*
Y0021644D01*
X0017277Y0014557D02*
Y0021644D01*
X0020800Y0009217D02*
Y0011383D01*
X0019717Y0010300D02*
X0021883D01*
X0017257Y0008922D02*
Y0011678D01*
X0024343Y0008922D02*
Y0011678D01*
X0017257D02*
X0024343D01*
X0017257Y0008922D02*
X0024343D01*
X0020800Y0005717D02*
Y0007883D01*
X0019717Y0006800D02*
X0021883D01*
X0024343Y0005422D02*
Y0008178D01*
X0017257Y0005422D02*
Y0008178D01*
Y0005422D02*
X0024343D01*
X0017257Y0008178D02*
X0024343D01*
X-0011200Y-0017183D02*
Y-0015017D01*
X-0012283Y-0016100D02*
X-0010117D01*
X-0007657Y-0017478D02*
Y-0014722D01*
X-0014743Y-0017478D02*
Y-0014722D01*
Y-0017478D02*
X-0007657D01*
X-0014743Y-0014722D02*
X-0007657D01*
X-0021000Y0006317D02*
Y0008483D01*
X-0022083Y0007400D02*
X-0019917D01*
X-0017457Y0006022D02*
Y0008778D01*
X-0024543Y0006022D02*
Y0008778D01*
Y0006022D02*
X-0017457D01*
X-0024543Y0008778D02*
X-0017457D01*
X0015417Y0000000D02*
X0017583D01*
X0016500Y-0001083D02*
Y0001083D01*
X0015122Y0003543D02*
X0017878D01*
X0015122Y-0003543D02*
X0017878D01*
Y0003543D01*
X0015122Y-0003543D02*
Y0003543D01*
X0018317Y0018101D02*
X0020482D01*
X0019399Y0017018D02*
Y0019183D01*
X0018021Y0014557D02*
X0020777D01*
X0018021Y0021644D02*
X0020777D01*
X0018021Y0014557D02*
Y0021644D01*
X0020777Y0014557D02*
Y0021644D01*
X0032317Y0018101D02*
X0034482D01*
X0033399Y0017018D02*
Y0019183D01*
X0032021Y0021644D02*
X0034777D01*
X0032021Y0014557D02*
X0034777D01*
Y0021644D01*
X0032021Y0014557D02*
Y0021644D01*
X-0029400Y-0011683D02*
Y-0009517D01*
X-0030483Y-0010600D02*
X-0028317D01*
X-0025857Y-0011978D02*
Y-0009222D01*
X-0032943Y-0011978D02*
Y-0009222D01*
Y-0011978D02*
X-0025857D01*
X-0032943Y-0009222D02*
X-0025857D01*
M02*
