%TF.GenerationSoftware,KiCad,Pcbnew,5.1.3-ffb9f22~84~ubuntu18.04.1*%
%TF.CreationDate,2019-07-25T20:39:45+03:00*%
%TF.ProjectId,bluetooth,626c7565-746f-46f7-9468-2e6b69636164,rev?*%
%TF.SameCoordinates,Original*%
%TF.FileFunction,Other,Fab,Top*%
%FSLAX45Y45*%
G04 Gerber Fmt 4.5, Leading zero omitted, Abs format (unit mm)*
G04 Created by KiCad (PCBNEW 5.1.3-ffb9f22~84~ubuntu18.04.1) date 2019-07-25 20:39:45*
%MOMM*%
%LPD*%
G04 APERTURE LIST*
%ADD10C,0.100000*%
%ADD11C,0.150000*%
%ADD12C,0.300000*%
%ADD13C,0.400000*%
%ADD14C,0.010000*%
G04 APERTURE END LIST*
D10*
D11*
X17700220Y-16600720D02*
X17700220Y-19800720D01*
X28500220Y-19800720D01*
X28500220Y-16600720D01*
X17700220Y-16600720D01*
D10*
D11*
X1000000Y-1000000D02*
X1000000Y-20000720D01*
X28700220Y-20000720D01*
X28700220Y-1000000D01*
X1000000Y-1000000D01*
D10*
D11*
X1200000Y-1200000D02*
X1200000Y-19800720D01*
X28500220Y-19800720D01*
X28500220Y-1200000D01*
X1200000Y-1200000D01*
D10*
D11*
X6000000Y-1200000D02*
X6000000Y-1000000D01*
D10*
D11*
X11000000Y-1200000D02*
X11000000Y-1000000D01*
D10*
D11*
X16000000Y-1200000D02*
X16000000Y-1000000D01*
D10*
D11*
X21000000Y-1200000D02*
X21000000Y-1000000D01*
D10*
D11*
X26000000Y-1200000D02*
X26000000Y-1000000D01*
D10*
D11*
X3606548Y-1158810D02*
X3532262Y-1158810D01*
X3569405Y-1158810D02*
X3569405Y-1028809D01*
X3557024Y-1047381D01*
X3544643Y-1059762D01*
X3532262Y-1065952D01*
D10*
D11*
X8532262Y-1041190D02*
X8538452Y-1035000D01*
X8550833Y-1028809D01*
X8581786Y-1028809D01*
X8594167Y-1035000D01*
X8600357Y-1041190D01*
X8606548Y-1053571D01*
X8606548Y-1065952D01*
X8600357Y-1084524D01*
X8526071Y-1158810D01*
X8606548Y-1158810D01*
D10*
D11*
X13526071Y-1028809D02*
X13606548Y-1028809D01*
X13563214Y-1078333D01*
X13581786Y-1078333D01*
X13594167Y-1084524D01*
X13600357Y-1090714D01*
X13606548Y-1103095D01*
X13606548Y-1134048D01*
X13600357Y-1146429D01*
X13594167Y-1152619D01*
X13581786Y-1158810D01*
X13544643Y-1158810D01*
X13532262Y-1152619D01*
X13526071Y-1146429D01*
D10*
D11*
X18594167Y-1072143D02*
X18594167Y-1158810D01*
X18563214Y-1022619D02*
X18532262Y-1115476D01*
X18612738Y-1115476D01*
D10*
D11*
X23600357Y-1028809D02*
X23538452Y-1028809D01*
X23532262Y-1090714D01*
X23538452Y-1084524D01*
X23550833Y-1078333D01*
X23581786Y-1078333D01*
X23594167Y-1084524D01*
X23600357Y-1090714D01*
X23606548Y-1103095D01*
X23606548Y-1134048D01*
X23600357Y-1146429D01*
X23594167Y-1152619D01*
X23581786Y-1158810D01*
X23550833Y-1158810D01*
X23538452Y-1152619D01*
X23532262Y-1146429D01*
D10*
D11*
X28594167Y-1028809D02*
X28569405Y-1028809D01*
X28557024Y-1035000D01*
X28550833Y-1041190D01*
X28538452Y-1059762D01*
X28532262Y-1084524D01*
X28532262Y-1134048D01*
X28538452Y-1146429D01*
X28544643Y-1152619D01*
X28557024Y-1158810D01*
X28581786Y-1158810D01*
X28594167Y-1152619D01*
X28600357Y-1146429D01*
X28606548Y-1134048D01*
X28606548Y-1103095D01*
X28600357Y-1090714D01*
X28594167Y-1084524D01*
X28581786Y-1078333D01*
X28557024Y-1078333D01*
X28544643Y-1084524D01*
X28538452Y-1090714D01*
X28532262Y-1103095D01*
D10*
D11*
X6000000Y-19800720D02*
X6000000Y-20000720D01*
D10*
D11*
X11000000Y-19800720D02*
X11000000Y-20000720D01*
D10*
D11*
X16000000Y-19800720D02*
X16000000Y-20000720D01*
D10*
D11*
X21000000Y-19800720D02*
X21000000Y-20000720D01*
D10*
D11*
X26000000Y-19800720D02*
X26000000Y-20000720D01*
D10*
D11*
X3606548Y-19959530D02*
X3532262Y-19959530D01*
X3569405Y-19959530D02*
X3569405Y-19829530D01*
X3557024Y-19848101D01*
X3544643Y-19860482D01*
X3532262Y-19866672D01*
D10*
D11*
X8532262Y-19841910D02*
X8538452Y-19835720D01*
X8550833Y-19829530D01*
X8581786Y-19829530D01*
X8594167Y-19835720D01*
X8600357Y-19841910D01*
X8606548Y-19854291D01*
X8606548Y-19866672D01*
X8600357Y-19885244D01*
X8526071Y-19959530D01*
X8606548Y-19959530D01*
D10*
D11*
X13526071Y-19829530D02*
X13606548Y-19829530D01*
X13563214Y-19879053D01*
X13581786Y-19879053D01*
X13594167Y-19885244D01*
X13600357Y-19891434D01*
X13606548Y-19903815D01*
X13606548Y-19934768D01*
X13600357Y-19947149D01*
X13594167Y-19953339D01*
X13581786Y-19959530D01*
X13544643Y-19959530D01*
X13532262Y-19953339D01*
X13526071Y-19947149D01*
D10*
D11*
X18594167Y-19872863D02*
X18594167Y-19959530D01*
X18563214Y-19823339D02*
X18532262Y-19916196D01*
X18612738Y-19916196D01*
D10*
D11*
X23600357Y-19829530D02*
X23538452Y-19829530D01*
X23532262Y-19891434D01*
X23538452Y-19885244D01*
X23550833Y-19879053D01*
X23581786Y-19879053D01*
X23594167Y-19885244D01*
X23600357Y-19891434D01*
X23606548Y-19903815D01*
X23606548Y-19934768D01*
X23600357Y-19947149D01*
X23594167Y-19953339D01*
X23581786Y-19959530D01*
X23550833Y-19959530D01*
X23538452Y-19953339D01*
X23532262Y-19947149D01*
D10*
D11*
X28594167Y-19829530D02*
X28569405Y-19829530D01*
X28557024Y-19835720D01*
X28550833Y-19841910D01*
X28538452Y-19860482D01*
X28532262Y-19885244D01*
X28532262Y-19934768D01*
X28538452Y-19947149D01*
X28544643Y-19953339D01*
X28557024Y-19959530D01*
X28581786Y-19959530D01*
X28594167Y-19953339D01*
X28600357Y-19947149D01*
X28606548Y-19934768D01*
X28606548Y-19903815D01*
X28600357Y-19891434D01*
X28594167Y-19885244D01*
X28581786Y-19879053D01*
X28557024Y-19879053D01*
X28544643Y-19885244D01*
X28538452Y-19891434D01*
X28532262Y-19903815D01*
D10*
D11*
X1000000Y-6000000D02*
X1200000Y-6000000D01*
D10*
D11*
X1000000Y-11000000D02*
X1200000Y-11000000D01*
D10*
D11*
X1000000Y-16000000D02*
X1200000Y-16000000D01*
D10*
D11*
X1069048Y-3521667D02*
X1130952Y-3521667D01*
X1056667Y-3558809D02*
X1100000Y-3428809D01*
X1143333Y-3558809D01*
D10*
D11*
X1109286Y-8490714D02*
X1127857Y-8496905D01*
X1134048Y-8503095D01*
X1140238Y-8515476D01*
X1140238Y-8534048D01*
X1134048Y-8546429D01*
X1127857Y-8552619D01*
X1115476Y-8558810D01*
X1065952Y-8558810D01*
X1065952Y-8428810D01*
X1109286Y-8428810D01*
X1121667Y-8435000D01*
X1127857Y-8441190D01*
X1134048Y-8453571D01*
X1134048Y-8465952D01*
X1127857Y-8478333D01*
X1121667Y-8484524D01*
X1109286Y-8490714D01*
X1065952Y-8490714D01*
D10*
D11*
X1140238Y-13546428D02*
X1134048Y-13552619D01*
X1115476Y-13558809D01*
X1103095Y-13558809D01*
X1084524Y-13552619D01*
X1072143Y-13540238D01*
X1065952Y-13527857D01*
X1059762Y-13503095D01*
X1059762Y-13484524D01*
X1065952Y-13459762D01*
X1072143Y-13447381D01*
X1084524Y-13435000D01*
X1103095Y-13428809D01*
X1115476Y-13428809D01*
X1134048Y-13435000D01*
X1140238Y-13441190D01*
D10*
D11*
X1065952Y-18558810D02*
X1065952Y-18428810D01*
X1096905Y-18428810D01*
X1115476Y-18435000D01*
X1127857Y-18447381D01*
X1134048Y-18459762D01*
X1140238Y-18484524D01*
X1140238Y-18503095D01*
X1134048Y-18527857D01*
X1127857Y-18540238D01*
X1115476Y-18552619D01*
X1096905Y-18558810D01*
X1065952Y-18558810D01*
D10*
D11*
X28700220Y-6000000D02*
X28500220Y-6000000D01*
D10*
D11*
X28700220Y-11000000D02*
X28500220Y-11000000D01*
D10*
D11*
X28700220Y-16000000D02*
X28500220Y-16000000D01*
D10*
D11*
X28569268Y-3521667D02*
X28631172Y-3521667D01*
X28556887Y-3558809D02*
X28600220Y-3428809D01*
X28643553Y-3558809D01*
D10*
D11*
X28609506Y-8490714D02*
X28628077Y-8496905D01*
X28634268Y-8503095D01*
X28640458Y-8515476D01*
X28640458Y-8534048D01*
X28634268Y-8546429D01*
X28628077Y-8552619D01*
X28615696Y-8558810D01*
X28566172Y-8558810D01*
X28566172Y-8428810D01*
X28609506Y-8428810D01*
X28621887Y-8435000D01*
X28628077Y-8441190D01*
X28634268Y-8453571D01*
X28634268Y-8465952D01*
X28628077Y-8478333D01*
X28621887Y-8484524D01*
X28609506Y-8490714D01*
X28566172Y-8490714D01*
D10*
D11*
X28640458Y-13546428D02*
X28634268Y-13552619D01*
X28615696Y-13558809D01*
X28603315Y-13558809D01*
X28584744Y-13552619D01*
X28572363Y-13540238D01*
X28566172Y-13527857D01*
X28559982Y-13503095D01*
X28559982Y-13484524D01*
X28566172Y-13459762D01*
X28572363Y-13447381D01*
X28584744Y-13435000D01*
X28603315Y-13428809D01*
X28615696Y-13428809D01*
X28634268Y-13435000D01*
X28640458Y-13441190D01*
D10*
D11*
X28566172Y-18558810D02*
X28566172Y-18428810D01*
X28597125Y-18428810D01*
X28615696Y-18435000D01*
X28628077Y-18447381D01*
X28634268Y-18459762D01*
X28640458Y-18484524D01*
X28640458Y-18503095D01*
X28634268Y-18527857D01*
X28628077Y-18540238D01*
X28615696Y-18552619D01*
X28597125Y-18558810D01*
X28566172Y-18558810D01*
D10*
D11*
X20043434Y-19378577D02*
X20043434Y-19228577D01*
X20079149Y-19228577D01*
X20100577Y-19235720D01*
X20114863Y-19250006D01*
X20122006Y-19264291D01*
X20129149Y-19292863D01*
X20129149Y-19314291D01*
X20122006Y-19342863D01*
X20114863Y-19357149D01*
X20100577Y-19371434D01*
X20079149Y-19378577D01*
X20043434Y-19378577D01*
X20257720Y-19378577D02*
X20257720Y-19300006D01*
X20250577Y-19285720D01*
X20236291Y-19278577D01*
X20207720Y-19278577D01*
X20193434Y-19285720D01*
X20257720Y-19371434D02*
X20243434Y-19378577D01*
X20207720Y-19378577D01*
X20193434Y-19371434D01*
X20186291Y-19357149D01*
X20186291Y-19342863D01*
X20193434Y-19328577D01*
X20207720Y-19321434D01*
X20243434Y-19321434D01*
X20257720Y-19314291D01*
X20307720Y-19278577D02*
X20364863Y-19278577D01*
X20329149Y-19228577D02*
X20329149Y-19357149D01*
X20336291Y-19371434D01*
X20350577Y-19378577D01*
X20364863Y-19378577D01*
X20472006Y-19371434D02*
X20457720Y-19378577D01*
X20429149Y-19378577D01*
X20414863Y-19371434D01*
X20407720Y-19357149D01*
X20407720Y-19300006D01*
X20414863Y-19285720D01*
X20429149Y-19278577D01*
X20457720Y-19278577D01*
X20472006Y-19285720D01*
X20479149Y-19300006D01*
X20479149Y-19314291D01*
X20407720Y-19328577D01*
X20543434Y-19364291D02*
X20550577Y-19371434D01*
X20543434Y-19378577D01*
X20536291Y-19371434D01*
X20543434Y-19364291D01*
X20543434Y-19378577D01*
X20543434Y-19285720D02*
X20550577Y-19292863D01*
X20543434Y-19300006D01*
X20536291Y-19292863D01*
X20543434Y-19285720D01*
X20543434Y-19300006D01*
D10*
D11*
X17700220Y-19450720D02*
X28500220Y-19450720D01*
D10*
D11*
X17843434Y-19658577D02*
X17843434Y-19508577D01*
X17929149Y-19658577D02*
X17864863Y-19572863D01*
X17929149Y-19508577D02*
X17843434Y-19594291D01*
X17993434Y-19658577D02*
X17993434Y-19558577D01*
X17993434Y-19508577D02*
X17986291Y-19515720D01*
X17993434Y-19522863D01*
X18000577Y-19515720D01*
X17993434Y-19508577D01*
X17993434Y-19522863D01*
X18150577Y-19644291D02*
X18143434Y-19651434D01*
X18122006Y-19658577D01*
X18107720Y-19658577D01*
X18086291Y-19651434D01*
X18072006Y-19637149D01*
X18064863Y-19622863D01*
X18057720Y-19594291D01*
X18057720Y-19572863D01*
X18064863Y-19544291D01*
X18072006Y-19530006D01*
X18086291Y-19515720D01*
X18107720Y-19508577D01*
X18122006Y-19508577D01*
X18143434Y-19515720D01*
X18150577Y-19522863D01*
X18279149Y-19658577D02*
X18279149Y-19580006D01*
X18272006Y-19565720D01*
X18257720Y-19558577D01*
X18229149Y-19558577D01*
X18214863Y-19565720D01*
X18279149Y-19651434D02*
X18264863Y-19658577D01*
X18229149Y-19658577D01*
X18214863Y-19651434D01*
X18207720Y-19637149D01*
X18207720Y-19622863D01*
X18214863Y-19608577D01*
X18229149Y-19601434D01*
X18264863Y-19601434D01*
X18279149Y-19594291D01*
X18414863Y-19658577D02*
X18414863Y-19508577D01*
X18414863Y-19651434D02*
X18400577Y-19658577D01*
X18372006Y-19658577D01*
X18357720Y-19651434D01*
X18350577Y-19644291D01*
X18343434Y-19630006D01*
X18343434Y-19587149D01*
X18350577Y-19572863D01*
X18357720Y-19565720D01*
X18372006Y-19558577D01*
X18400577Y-19558577D01*
X18414863Y-19565720D01*
X18600577Y-19580006D02*
X18650577Y-19580006D01*
X18672006Y-19658577D02*
X18600577Y-19658577D01*
X18600577Y-19508577D01*
X18672006Y-19508577D01*
X18736291Y-19644291D02*
X18743434Y-19651434D01*
X18736291Y-19658577D01*
X18729149Y-19651434D01*
X18736291Y-19644291D01*
X18736291Y-19658577D01*
X18807720Y-19658577D02*
X18807720Y-19508577D01*
X18843434Y-19508577D01*
X18864863Y-19515720D01*
X18879149Y-19530006D01*
X18886291Y-19544291D01*
X18893434Y-19572863D01*
X18893434Y-19594291D01*
X18886291Y-19622863D01*
X18879149Y-19637149D01*
X18864863Y-19651434D01*
X18843434Y-19658577D01*
X18807720Y-19658577D01*
X18957720Y-19644291D02*
X18964863Y-19651434D01*
X18957720Y-19658577D01*
X18950577Y-19651434D01*
X18957720Y-19644291D01*
X18957720Y-19658577D01*
X19022006Y-19615720D02*
X19093434Y-19615720D01*
X19007720Y-19658577D02*
X19057720Y-19508577D01*
X19107720Y-19658577D01*
X19157720Y-19644291D02*
X19164863Y-19651434D01*
X19157720Y-19658577D01*
X19150577Y-19651434D01*
X19157720Y-19644291D01*
X19157720Y-19658577D01*
X19457720Y-19658577D02*
X19457720Y-19508577D01*
X19472006Y-19601434D02*
X19514863Y-19658577D01*
X19514863Y-19558577D02*
X19457720Y-19615720D01*
X19579149Y-19658577D02*
X19579149Y-19558577D01*
X19579149Y-19508577D02*
X19572006Y-19515720D01*
X19579149Y-19522863D01*
X19586291Y-19515720D01*
X19579149Y-19508577D01*
X19579149Y-19522863D01*
X19714863Y-19651434D02*
X19700577Y-19658577D01*
X19672006Y-19658577D01*
X19657720Y-19651434D01*
X19650577Y-19644291D01*
X19643434Y-19630006D01*
X19643434Y-19587149D01*
X19650577Y-19572863D01*
X19657720Y-19565720D01*
X19672006Y-19558577D01*
X19700577Y-19558577D01*
X19714863Y-19565720D01*
X19843434Y-19658577D02*
X19843434Y-19580006D01*
X19836291Y-19565720D01*
X19822006Y-19558577D01*
X19793434Y-19558577D01*
X19779149Y-19565720D01*
X19843434Y-19651434D02*
X19829149Y-19658577D01*
X19793434Y-19658577D01*
X19779149Y-19651434D01*
X19772006Y-19637149D01*
X19772006Y-19622863D01*
X19779149Y-19608577D01*
X19793434Y-19601434D01*
X19829149Y-19601434D01*
X19843434Y-19594291D01*
X19979149Y-19658577D02*
X19979149Y-19508577D01*
X19979149Y-19651434D02*
X19964863Y-19658577D01*
X19936291Y-19658577D01*
X19922006Y-19651434D01*
X19914863Y-19644291D01*
X19907720Y-19630006D01*
X19907720Y-19587149D01*
X19914863Y-19572863D01*
X19922006Y-19565720D01*
X19936291Y-19558577D01*
X19964863Y-19558577D01*
X19979149Y-19565720D01*
X20236291Y-19508577D02*
X20164863Y-19508577D01*
X20157720Y-19580006D01*
X20164863Y-19572863D01*
X20179149Y-19565720D01*
X20214863Y-19565720D01*
X20229149Y-19572863D01*
X20236291Y-19580006D01*
X20243434Y-19594291D01*
X20243434Y-19630006D01*
X20236291Y-19644291D01*
X20229149Y-19651434D01*
X20214863Y-19658577D01*
X20179149Y-19658577D01*
X20164863Y-19651434D01*
X20157720Y-19644291D01*
X20307720Y-19644291D02*
X20314863Y-19651434D01*
X20307720Y-19658577D01*
X20300577Y-19651434D01*
X20307720Y-19644291D01*
X20307720Y-19658577D01*
X20457720Y-19658577D02*
X20372006Y-19658577D01*
X20414863Y-19658577D02*
X20414863Y-19508577D01*
X20400577Y-19530006D01*
X20386291Y-19544291D01*
X20372006Y-19551434D01*
X20522006Y-19644291D02*
X20529149Y-19651434D01*
X20522006Y-19658577D01*
X20514863Y-19651434D01*
X20522006Y-19644291D01*
X20522006Y-19658577D01*
X20579149Y-19508577D02*
X20672006Y-19508577D01*
X20622006Y-19565720D01*
X20643434Y-19565720D01*
X20657720Y-19572863D01*
X20664863Y-19580006D01*
X20672006Y-19594291D01*
X20672006Y-19630006D01*
X20664863Y-19644291D01*
X20657720Y-19651434D01*
X20643434Y-19658577D01*
X20600577Y-19658577D01*
X20586291Y-19651434D01*
X20579149Y-19644291D01*
X20736291Y-19601434D02*
X20850577Y-19601434D01*
X20900577Y-19558577D02*
X20957720Y-19558577D01*
X20922006Y-19658577D02*
X20922006Y-19530006D01*
X20929149Y-19515720D01*
X20943434Y-19508577D01*
X20957720Y-19508577D01*
X20986291Y-19558577D02*
X21043434Y-19558577D01*
X21007720Y-19658577D02*
X21007720Y-19530006D01*
X21014863Y-19515720D01*
X21029149Y-19508577D01*
X21043434Y-19508577D01*
X21093434Y-19658577D02*
X21093434Y-19508577D01*
X21093434Y-19565720D02*
X21107720Y-19558577D01*
X21136291Y-19558577D01*
X21150577Y-19565720D01*
X21157720Y-19572863D01*
X21164863Y-19587149D01*
X21164863Y-19630006D01*
X21157720Y-19644291D01*
X21150577Y-19651434D01*
X21136291Y-19658577D01*
X21107720Y-19658577D01*
X21093434Y-19651434D01*
X21236291Y-19658577D02*
X21264863Y-19658577D01*
X21279149Y-19651434D01*
X21286291Y-19644291D01*
X21300577Y-19622863D01*
X21307720Y-19594291D01*
X21307720Y-19537149D01*
X21300577Y-19522863D01*
X21293434Y-19515720D01*
X21279149Y-19508577D01*
X21250577Y-19508577D01*
X21236291Y-19515720D01*
X21229149Y-19522863D01*
X21222006Y-19537149D01*
X21222006Y-19572863D01*
X21229149Y-19587149D01*
X21236291Y-19594291D01*
X21250577Y-19601434D01*
X21279149Y-19601434D01*
X21293434Y-19594291D01*
X21300577Y-19587149D01*
X21307720Y-19572863D01*
X21350577Y-19558577D02*
X21407720Y-19558577D01*
X21372006Y-19658577D02*
X21372006Y-19530006D01*
X21379149Y-19515720D01*
X21393434Y-19508577D01*
X21407720Y-19508577D01*
X21450577Y-19522863D02*
X21457720Y-19515720D01*
X21472006Y-19508577D01*
X21507720Y-19508577D01*
X21522006Y-19515720D01*
X21529149Y-19522863D01*
X21536291Y-19537149D01*
X21536291Y-19551434D01*
X21529149Y-19572863D01*
X21443434Y-19658577D01*
X21536291Y-19658577D01*
X21593434Y-19522863D02*
X21600577Y-19515720D01*
X21614863Y-19508577D01*
X21650577Y-19508577D01*
X21664863Y-19515720D01*
X21672006Y-19522863D01*
X21679149Y-19537149D01*
X21679149Y-19551434D01*
X21672006Y-19572863D01*
X21586291Y-19658577D01*
X21679149Y-19658577D01*
X21707720Y-19467720D02*
X21850577Y-19467720D01*
X21764863Y-19572863D02*
X21750577Y-19565720D01*
X21743434Y-19558577D01*
X21736291Y-19544291D01*
X21736291Y-19537149D01*
X21743434Y-19522863D01*
X21750577Y-19515720D01*
X21764863Y-19508577D01*
X21793434Y-19508577D01*
X21807720Y-19515720D01*
X21814863Y-19522863D01*
X21822006Y-19537149D01*
X21822006Y-19544291D01*
X21814863Y-19558577D01*
X21807720Y-19565720D01*
X21793434Y-19572863D01*
X21764863Y-19572863D01*
X21750577Y-19580006D01*
X21743434Y-19587149D01*
X21736291Y-19601434D01*
X21736291Y-19630006D01*
X21743434Y-19644291D01*
X21750577Y-19651434D01*
X21764863Y-19658577D01*
X21793434Y-19658577D01*
X21807720Y-19651434D01*
X21814863Y-19644291D01*
X21822006Y-19630006D01*
X21822006Y-19601434D01*
X21814863Y-19587149D01*
X21807720Y-19580006D01*
X21793434Y-19572863D01*
X21850577Y-19467720D02*
X21993434Y-19467720D01*
X21950577Y-19558577D02*
X21950577Y-19658577D01*
X21914863Y-19501434D02*
X21879149Y-19608577D01*
X21972006Y-19608577D01*
X22093434Y-19558577D02*
X22093434Y-19658577D01*
X22029149Y-19558577D02*
X22029149Y-19637149D01*
X22036291Y-19651434D01*
X22050577Y-19658577D01*
X22072006Y-19658577D01*
X22086291Y-19651434D01*
X22093434Y-19644291D01*
X22164863Y-19658577D02*
X22164863Y-19508577D01*
X22164863Y-19565720D02*
X22179149Y-19558577D01*
X22207720Y-19558577D01*
X22222006Y-19565720D01*
X22229149Y-19572863D01*
X22236291Y-19587149D01*
X22236291Y-19630006D01*
X22229149Y-19644291D01*
X22222006Y-19651434D01*
X22207720Y-19658577D01*
X22179149Y-19658577D01*
X22164863Y-19651434D01*
X22364863Y-19558577D02*
X22364863Y-19658577D01*
X22300577Y-19558577D02*
X22300577Y-19637149D01*
X22307720Y-19651434D01*
X22322006Y-19658577D01*
X22343434Y-19658577D01*
X22357720Y-19651434D01*
X22364863Y-19644291D01*
X22436291Y-19558577D02*
X22436291Y-19658577D01*
X22436291Y-19572863D02*
X22443434Y-19565720D01*
X22457720Y-19558577D01*
X22479148Y-19558577D01*
X22493434Y-19565720D01*
X22500577Y-19580006D01*
X22500577Y-19658577D01*
X22550577Y-19558577D02*
X22607720Y-19558577D01*
X22572006Y-19508577D02*
X22572006Y-19637149D01*
X22579148Y-19651434D01*
X22593434Y-19658577D01*
X22607720Y-19658577D01*
X22722006Y-19558577D02*
X22722006Y-19658577D01*
X22657720Y-19558577D02*
X22657720Y-19637149D01*
X22664863Y-19651434D01*
X22679148Y-19658577D01*
X22700577Y-19658577D01*
X22714863Y-19651434D01*
X22722006Y-19644291D01*
X22872006Y-19658577D02*
X22786291Y-19658577D01*
X22829148Y-19658577D02*
X22829148Y-19508577D01*
X22814863Y-19530006D01*
X22800577Y-19544291D01*
X22786291Y-19551434D01*
X22957720Y-19572863D02*
X22943434Y-19565720D01*
X22936291Y-19558577D01*
X22929148Y-19544291D01*
X22929148Y-19537149D01*
X22936291Y-19522863D01*
X22943434Y-19515720D01*
X22957720Y-19508577D01*
X22986291Y-19508577D01*
X23000577Y-19515720D01*
X23007720Y-19522863D01*
X23014863Y-19537149D01*
X23014863Y-19544291D01*
X23007720Y-19558577D01*
X23000577Y-19565720D01*
X22986291Y-19572863D01*
X22957720Y-19572863D01*
X22943434Y-19580006D01*
X22936291Y-19587149D01*
X22929148Y-19601434D01*
X22929148Y-19630006D01*
X22936291Y-19644291D01*
X22943434Y-19651434D01*
X22957720Y-19658577D01*
X22986291Y-19658577D01*
X23000577Y-19651434D01*
X23007720Y-19644291D01*
X23014863Y-19630006D01*
X23014863Y-19601434D01*
X23007720Y-19587149D01*
X23000577Y-19580006D01*
X22986291Y-19572863D01*
X23079148Y-19644291D02*
X23086291Y-19651434D01*
X23079148Y-19658577D01*
X23072006Y-19651434D01*
X23079148Y-19644291D01*
X23079148Y-19658577D01*
X23179148Y-19508577D02*
X23193434Y-19508577D01*
X23207720Y-19515720D01*
X23214863Y-19522863D01*
X23222006Y-19537149D01*
X23229148Y-19565720D01*
X23229148Y-19601434D01*
X23222006Y-19630006D01*
X23214863Y-19644291D01*
X23207720Y-19651434D01*
X23193434Y-19658577D01*
X23179148Y-19658577D01*
X23164863Y-19651434D01*
X23157720Y-19644291D01*
X23150577Y-19630006D01*
X23143434Y-19601434D01*
X23143434Y-19565720D01*
X23150577Y-19537149D01*
X23157720Y-19522863D01*
X23164863Y-19515720D01*
X23179148Y-19508577D01*
X23357720Y-19558577D02*
X23357720Y-19658577D01*
X23322006Y-19501434D02*
X23286291Y-19608577D01*
X23379148Y-19608577D01*
X23436291Y-19644291D02*
X23443434Y-19651434D01*
X23436291Y-19658577D01*
X23429148Y-19651434D01*
X23436291Y-19644291D01*
X23436291Y-19658577D01*
X23586291Y-19658577D02*
X23500577Y-19658577D01*
X23543434Y-19658577D02*
X23543434Y-19508577D01*
X23529148Y-19530006D01*
X23514863Y-19544291D01*
X23500577Y-19551434D01*
D10*
D11*
X17700220Y-19150720D02*
X28500220Y-19150720D01*
D10*
D12*
X26441148Y-19378577D02*
X26391148Y-19307149D01*
X26355434Y-19378577D02*
X26355434Y-19228577D01*
X26412577Y-19228577D01*
X26426863Y-19235720D01*
X26434006Y-19242863D01*
X26441148Y-19257149D01*
X26441148Y-19278577D01*
X26434006Y-19292863D01*
X26426863Y-19300006D01*
X26412577Y-19307149D01*
X26355434Y-19307149D01*
X26562577Y-19371434D02*
X26548291Y-19378577D01*
X26519720Y-19378577D01*
X26505434Y-19371434D01*
X26498291Y-19357149D01*
X26498291Y-19300006D01*
X26505434Y-19285720D01*
X26519720Y-19278577D01*
X26548291Y-19278577D01*
X26562577Y-19285720D01*
X26569720Y-19300006D01*
X26569720Y-19314291D01*
X26498291Y-19328577D01*
X26619720Y-19278577D02*
X26655434Y-19378577D01*
X26691148Y-19278577D01*
X26748291Y-19364291D02*
X26755434Y-19371434D01*
X26748291Y-19378577D01*
X26741148Y-19371434D01*
X26748291Y-19364291D01*
X26748291Y-19378577D01*
X26748291Y-19285720D02*
X26755434Y-19292863D01*
X26748291Y-19300006D01*
X26741148Y-19292863D01*
X26748291Y-19285720D01*
X26748291Y-19300006D01*
D10*
D11*
X17836291Y-19371434D02*
X17857720Y-19378577D01*
X17893434Y-19378577D01*
X17907720Y-19371434D01*
X17914863Y-19364291D01*
X17922006Y-19350006D01*
X17922006Y-19335720D01*
X17914863Y-19321434D01*
X17907720Y-19314291D01*
X17893434Y-19307149D01*
X17864863Y-19300006D01*
X17850577Y-19292863D01*
X17843434Y-19285720D01*
X17836291Y-19271434D01*
X17836291Y-19257149D01*
X17843434Y-19242863D01*
X17850577Y-19235720D01*
X17864863Y-19228577D01*
X17900577Y-19228577D01*
X17922006Y-19235720D01*
X17986291Y-19378577D02*
X17986291Y-19278577D01*
X17986291Y-19228577D02*
X17979149Y-19235720D01*
X17986291Y-19242863D01*
X17993434Y-19235720D01*
X17986291Y-19228577D01*
X17986291Y-19242863D01*
X18043434Y-19278577D02*
X18122006Y-19278577D01*
X18043434Y-19378577D01*
X18122006Y-19378577D01*
X18236291Y-19371434D02*
X18222006Y-19378577D01*
X18193434Y-19378577D01*
X18179149Y-19371434D01*
X18172006Y-19357149D01*
X18172006Y-19300006D01*
X18179149Y-19285720D01*
X18193434Y-19278577D01*
X18222006Y-19278577D01*
X18236291Y-19285720D01*
X18243434Y-19300006D01*
X18243434Y-19314291D01*
X18172006Y-19328577D01*
X18307720Y-19364291D02*
X18314863Y-19371434D01*
X18307720Y-19378577D01*
X18300577Y-19371434D01*
X18307720Y-19364291D01*
X18307720Y-19378577D01*
X18307720Y-19285720D02*
X18314863Y-19292863D01*
X18307720Y-19300006D01*
X18300577Y-19292863D01*
X18307720Y-19285720D01*
X18307720Y-19300006D01*
X18486291Y-19335720D02*
X18557720Y-19335720D01*
X18472006Y-19378577D02*
X18522006Y-19228577D01*
X18572006Y-19378577D01*
X18686291Y-19278577D02*
X18686291Y-19378577D01*
X18650577Y-19221434D02*
X18614863Y-19328577D01*
X18707720Y-19328577D01*
D10*
D11*
X26343434Y-19658577D02*
X26343434Y-19508577D01*
X26479148Y-19658577D02*
X26479148Y-19508577D01*
X26479148Y-19651434D02*
X26464863Y-19658577D01*
X26436291Y-19658577D01*
X26422006Y-19651434D01*
X26414863Y-19644291D01*
X26407720Y-19630006D01*
X26407720Y-19587149D01*
X26414863Y-19572863D01*
X26422006Y-19565720D01*
X26436291Y-19558577D01*
X26464863Y-19558577D01*
X26479148Y-19565720D01*
X26550577Y-19644291D02*
X26557720Y-19651434D01*
X26550577Y-19658577D01*
X26543434Y-19651434D01*
X26550577Y-19644291D01*
X26550577Y-19658577D01*
X26550577Y-19565720D02*
X26557720Y-19572863D01*
X26550577Y-19580006D01*
X26543434Y-19572863D01*
X26550577Y-19565720D01*
X26550577Y-19580006D01*
X26814863Y-19658577D02*
X26729148Y-19658577D01*
X26772006Y-19658577D02*
X26772006Y-19508577D01*
X26757720Y-19530006D01*
X26743434Y-19544291D01*
X26729148Y-19551434D01*
X26986291Y-19501434D02*
X26857720Y-19694291D01*
X27114863Y-19658577D02*
X27029148Y-19658577D01*
X27072006Y-19658577D02*
X27072006Y-19508577D01*
X27057720Y-19530006D01*
X27043434Y-19544291D01*
X27029148Y-19551434D01*
D10*
D11*
X17700220Y-18750720D02*
X28500220Y-18750720D01*
D10*
D13*
X17871458Y-18821196D02*
X17985744Y-18821196D01*
X17903601Y-19021196D02*
X17928601Y-18821196D01*
X18027410Y-19021196D02*
X18044077Y-18887863D01*
X18052410Y-18821196D02*
X18041696Y-18830720D01*
X18050030Y-18840244D01*
X18060744Y-18830720D01*
X18052410Y-18821196D01*
X18050030Y-18840244D01*
X18110744Y-18887863D02*
X18186934Y-18887863D01*
X18147649Y-18821196D02*
X18126220Y-18992625D01*
X18133363Y-19011672D01*
X18151220Y-19021196D01*
X18170268Y-19021196D01*
X18265506Y-19021196D02*
X18247649Y-19011672D01*
X18240506Y-18992625D01*
X18261934Y-18821196D01*
X18419077Y-19011672D02*
X18398839Y-19021196D01*
X18360744Y-19021196D01*
X18342887Y-19011672D01*
X18335744Y-18992625D01*
X18345268Y-18916434D01*
X18357172Y-18897387D01*
X18377410Y-18887863D01*
X18415506Y-18887863D01*
X18433363Y-18897387D01*
X18440506Y-18916434D01*
X18438125Y-18935482D01*
X18340506Y-18954530D01*
X18515506Y-19002149D02*
X18523839Y-19011672D01*
X18513125Y-19021196D01*
X18504791Y-19011672D01*
X18515506Y-19002149D01*
X18513125Y-19021196D01*
X18528601Y-18897387D02*
X18536934Y-18906910D01*
X18526220Y-18916434D01*
X18517887Y-18906910D01*
X18528601Y-18897387D01*
X18526220Y-18916434D01*
D10*
D11*
X17893434Y-18560006D02*
X17843434Y-18560006D01*
X17843434Y-18638577D02*
X17843434Y-18488577D01*
X17914863Y-18488577D01*
X17972006Y-18638577D02*
X17972006Y-18538577D01*
X17972006Y-18488577D02*
X17964863Y-18495720D01*
X17972006Y-18502863D01*
X17979149Y-18495720D01*
X17972006Y-18488577D01*
X17972006Y-18502863D01*
X18064863Y-18638577D02*
X18050577Y-18631434D01*
X18043434Y-18617149D01*
X18043434Y-18488577D01*
X18179149Y-18631434D02*
X18164863Y-18638577D01*
X18136291Y-18638577D01*
X18122006Y-18631434D01*
X18114863Y-18617149D01*
X18114863Y-18560006D01*
X18122006Y-18545720D01*
X18136291Y-18538577D01*
X18164863Y-18538577D01*
X18179149Y-18545720D01*
X18186291Y-18560006D01*
X18186291Y-18574291D01*
X18114863Y-18588577D01*
X18250577Y-18624291D02*
X18257720Y-18631434D01*
X18250577Y-18638577D01*
X18243434Y-18631434D01*
X18250577Y-18624291D01*
X18250577Y-18638577D01*
X18250577Y-18545720D02*
X18257720Y-18552863D01*
X18250577Y-18560006D01*
X18243434Y-18552863D01*
X18250577Y-18545720D01*
X18250577Y-18560006D01*
X18436291Y-18638577D02*
X18436291Y-18488577D01*
X18436291Y-18545720D02*
X18450577Y-18538577D01*
X18479149Y-18538577D01*
X18493434Y-18545720D01*
X18500577Y-18552863D01*
X18507720Y-18567149D01*
X18507720Y-18610006D01*
X18500577Y-18624291D01*
X18493434Y-18631434D01*
X18479149Y-18638577D01*
X18450577Y-18638577D01*
X18436291Y-18631434D01*
X18593434Y-18638577D02*
X18579149Y-18631434D01*
X18572006Y-18617149D01*
X18572006Y-18488577D01*
X18714863Y-18538577D02*
X18714863Y-18638577D01*
X18650577Y-18538577D02*
X18650577Y-18617149D01*
X18657720Y-18631434D01*
X18672006Y-18638577D01*
X18693434Y-18638577D01*
X18707720Y-18631434D01*
X18714863Y-18624291D01*
X18843434Y-18631434D02*
X18829149Y-18638577D01*
X18800577Y-18638577D01*
X18786291Y-18631434D01*
X18779149Y-18617149D01*
X18779149Y-18560006D01*
X18786291Y-18545720D01*
X18800577Y-18538577D01*
X18829149Y-18538577D01*
X18843434Y-18545720D01*
X18850577Y-18560006D01*
X18850577Y-18574291D01*
X18779149Y-18588577D01*
X18893434Y-18538577D02*
X18950577Y-18538577D01*
X18914863Y-18488577D02*
X18914863Y-18617149D01*
X18922006Y-18631434D01*
X18936291Y-18638577D01*
X18950577Y-18638577D01*
X19022006Y-18638577D02*
X19007720Y-18631434D01*
X19000577Y-18624291D01*
X18993434Y-18610006D01*
X18993434Y-18567149D01*
X19000577Y-18552863D01*
X19007720Y-18545720D01*
X19022006Y-18538577D01*
X19043434Y-18538577D01*
X19057720Y-18545720D01*
X19064863Y-18552863D01*
X19072006Y-18567149D01*
X19072006Y-18610006D01*
X19064863Y-18624291D01*
X19057720Y-18631434D01*
X19043434Y-18638577D01*
X19022006Y-18638577D01*
X19157720Y-18638577D02*
X19143434Y-18631434D01*
X19136291Y-18624291D01*
X19129149Y-18610006D01*
X19129149Y-18567149D01*
X19136291Y-18552863D01*
X19143434Y-18545720D01*
X19157720Y-18538577D01*
X19179149Y-18538577D01*
X19193434Y-18545720D01*
X19200577Y-18552863D01*
X19207720Y-18567149D01*
X19207720Y-18610006D01*
X19200577Y-18624291D01*
X19193434Y-18631434D01*
X19179149Y-18638577D01*
X19157720Y-18638577D01*
X19250577Y-18538577D02*
X19307720Y-18538577D01*
X19272006Y-18488577D02*
X19272006Y-18617149D01*
X19279149Y-18631434D01*
X19293434Y-18638577D01*
X19307720Y-18638577D01*
X19357720Y-18638577D02*
X19357720Y-18488577D01*
X19422006Y-18638577D02*
X19422006Y-18560006D01*
X19414863Y-18545720D01*
X19400577Y-18538577D01*
X19379149Y-18538577D01*
X19364863Y-18545720D01*
X19357720Y-18552863D01*
X19493434Y-18624291D02*
X19500577Y-18631434D01*
X19493434Y-18638577D01*
X19486291Y-18631434D01*
X19493434Y-18624291D01*
X19493434Y-18638577D01*
X19564863Y-18638577D02*
X19564863Y-18488577D01*
X19579149Y-18581434D02*
X19622006Y-18638577D01*
X19622006Y-18538577D02*
X19564863Y-18595720D01*
X19686291Y-18638577D02*
X19686291Y-18538577D01*
X19686291Y-18488577D02*
X19679149Y-18495720D01*
X19686291Y-18502863D01*
X19693434Y-18495720D01*
X19686291Y-18488577D01*
X19686291Y-18502863D01*
X19822006Y-18631434D02*
X19807720Y-18638577D01*
X19779149Y-18638577D01*
X19764863Y-18631434D01*
X19757720Y-18624291D01*
X19750577Y-18610006D01*
X19750577Y-18567149D01*
X19757720Y-18552863D01*
X19764863Y-18545720D01*
X19779149Y-18538577D01*
X19807720Y-18538577D01*
X19822006Y-18545720D01*
X19950577Y-18638577D02*
X19950577Y-18560006D01*
X19943434Y-18545720D01*
X19929149Y-18538577D01*
X19900577Y-18538577D01*
X19886291Y-18545720D01*
X19950577Y-18631434D02*
X19936291Y-18638577D01*
X19900577Y-18638577D01*
X19886291Y-18631434D01*
X19879149Y-18617149D01*
X19879149Y-18602863D01*
X19886291Y-18588577D01*
X19900577Y-18581434D01*
X19936291Y-18581434D01*
X19950577Y-18574291D01*
X20086291Y-18638577D02*
X20086291Y-18488577D01*
X20086291Y-18631434D02*
X20072006Y-18638577D01*
X20043434Y-18638577D01*
X20029149Y-18631434D01*
X20022006Y-18624291D01*
X20014863Y-18610006D01*
X20014863Y-18567149D01*
X20022006Y-18552863D01*
X20029149Y-18545720D01*
X20043434Y-18538577D01*
X20072006Y-18538577D01*
X20086291Y-18545720D01*
X20122006Y-18652863D02*
X20236291Y-18652863D01*
X20272006Y-18538577D02*
X20272006Y-18688577D01*
X20272006Y-18545720D02*
X20286291Y-18538577D01*
X20314863Y-18538577D01*
X20329149Y-18545720D01*
X20336291Y-18552863D01*
X20343434Y-18567149D01*
X20343434Y-18610006D01*
X20336291Y-18624291D01*
X20329149Y-18631434D01*
X20314863Y-18638577D01*
X20286291Y-18638577D01*
X20272006Y-18631434D01*
X20472006Y-18631434D02*
X20457720Y-18638577D01*
X20429149Y-18638577D01*
X20414863Y-18631434D01*
X20407720Y-18624291D01*
X20400577Y-18610006D01*
X20400577Y-18567149D01*
X20407720Y-18552863D01*
X20414863Y-18545720D01*
X20429149Y-18538577D01*
X20457720Y-18538577D01*
X20472006Y-18545720D01*
X20536291Y-18638577D02*
X20536291Y-18488577D01*
X20536291Y-18545720D02*
X20550577Y-18538577D01*
X20579149Y-18538577D01*
X20593434Y-18545720D01*
X20600577Y-18552863D01*
X20607720Y-18567149D01*
X20607720Y-18610006D01*
X20600577Y-18624291D01*
X20593434Y-18631434D01*
X20579149Y-18638577D01*
X20550577Y-18638577D01*
X20536291Y-18631434D01*
D10*
D11*
X17700220Y-18150720D02*
X28500220Y-18150720D01*
D10*
D11*
X17836291Y-18361434D02*
X17857720Y-18368577D01*
X17893434Y-18368577D01*
X17907720Y-18361434D01*
X17914863Y-18354291D01*
X17922006Y-18340006D01*
X17922006Y-18325720D01*
X17914863Y-18311434D01*
X17907720Y-18304291D01*
X17893434Y-18297149D01*
X17864863Y-18290006D01*
X17850577Y-18282863D01*
X17843434Y-18275720D01*
X17836291Y-18261434D01*
X17836291Y-18247149D01*
X17843434Y-18232863D01*
X17850577Y-18225720D01*
X17864863Y-18218577D01*
X17900577Y-18218577D01*
X17922006Y-18225720D01*
X17986291Y-18368577D02*
X17986291Y-18218577D01*
X18050577Y-18368577D02*
X18050577Y-18290006D01*
X18043434Y-18275720D01*
X18029149Y-18268577D01*
X18007720Y-18268577D01*
X17993434Y-18275720D01*
X17986291Y-18282863D01*
X18179149Y-18361434D02*
X18164863Y-18368577D01*
X18136291Y-18368577D01*
X18122006Y-18361434D01*
X18114863Y-18347149D01*
X18114863Y-18290006D01*
X18122006Y-18275720D01*
X18136291Y-18268577D01*
X18164863Y-18268577D01*
X18179149Y-18275720D01*
X18186291Y-18290006D01*
X18186291Y-18304291D01*
X18114863Y-18318577D01*
X18307720Y-18361434D02*
X18293434Y-18368577D01*
X18264863Y-18368577D01*
X18250577Y-18361434D01*
X18243434Y-18347149D01*
X18243434Y-18290006D01*
X18250577Y-18275720D01*
X18264863Y-18268577D01*
X18293434Y-18268577D01*
X18307720Y-18275720D01*
X18314863Y-18290006D01*
X18314863Y-18304291D01*
X18243434Y-18318577D01*
X18357720Y-18268577D02*
X18414863Y-18268577D01*
X18379149Y-18218577D02*
X18379149Y-18347149D01*
X18386291Y-18361434D01*
X18400577Y-18368577D01*
X18414863Y-18368577D01*
X18464863Y-18354291D02*
X18472006Y-18361434D01*
X18464863Y-18368577D01*
X18457720Y-18361434D01*
X18464863Y-18354291D01*
X18464863Y-18368577D01*
X18464863Y-18275720D02*
X18472006Y-18282863D01*
X18464863Y-18290006D01*
X18457720Y-18282863D01*
X18464863Y-18275720D01*
X18464863Y-18290006D01*
D10*
D11*
X19700220Y-19150720D02*
X19700220Y-19450720D01*
D10*
D11*
X26100220Y-19150720D02*
X26100220Y-19800720D01*
D14*
X16067138Y-10583657D02*
X16067138Y-10582704D01*
X16066900Y-10582228D01*
X16066662Y-10581990D01*
X16065948Y-10581514D01*
X16064995Y-10581276D01*
X16063090Y-10581276D01*
X16062614Y-10581514D01*
X16062376Y-10581752D01*
X16062138Y-10582228D01*
X16062138Y-10583180D01*
X16062376Y-10583657D01*
X16062614Y-10583895D01*
X16063090Y-10584133D01*
X16064281Y-10584133D01*
X16064757Y-10583895D01*
X16064995Y-10583657D01*
X16065233Y-10583180D01*
X16065233Y-10582228D01*
X16064995Y-10581752D01*
X16064757Y-10581514D01*
X16064281Y-10581276D01*
X16067138Y-10587228D02*
X16067138Y-10587704D01*
X16066900Y-10588180D01*
X16066662Y-10588419D01*
X16066186Y-10588657D01*
X16065233Y-10588895D01*
X16064043Y-10588895D01*
X16063090Y-10588657D01*
X16062614Y-10588419D01*
X16062376Y-10588180D01*
X16062138Y-10587704D01*
X16062138Y-10587228D01*
X16062376Y-10586752D01*
X16062614Y-10586514D01*
X16063090Y-10586276D01*
X16064043Y-10586038D01*
X16065233Y-10586038D01*
X16066186Y-10586276D01*
X16066662Y-10586514D01*
X16066900Y-10586752D01*
X16067138Y-10587228D01*
X16062614Y-10591038D02*
X16062376Y-10591276D01*
X16062138Y-10591038D01*
X16062376Y-10590799D01*
X16062614Y-10591038D01*
X16062138Y-10591038D01*
X16067138Y-10595799D02*
X16067138Y-10593419D01*
X16064757Y-10593180D01*
X16064995Y-10593419D01*
X16065233Y-10593895D01*
X16065233Y-10595085D01*
X16064995Y-10595561D01*
X16064757Y-10595799D01*
X16064281Y-10596038D01*
X16063090Y-10596038D01*
X16062614Y-10595799D01*
X16062376Y-10595561D01*
X16062138Y-10595085D01*
X16062138Y-10593895D01*
X16062376Y-10593419D01*
X16062614Y-10593180D01*
X16067138Y-10597704D02*
X16067138Y-10601038D01*
X16062138Y-10598895D01*
X16062138Y-10603180D02*
X16062138Y-10604133D01*
X16062376Y-10604609D01*
X16062614Y-10604847D01*
X16063328Y-10605323D01*
X16064281Y-10605561D01*
X16066186Y-10605561D01*
X16066662Y-10605323D01*
X16066900Y-10605085D01*
X16067138Y-10604609D01*
X16067138Y-10603657D01*
X16066900Y-10603180D01*
X16066662Y-10602942D01*
X16066186Y-10602704D01*
X16064995Y-10602704D01*
X16064519Y-10602942D01*
X16064281Y-10603180D01*
X16064043Y-10603657D01*
X16064043Y-10604609D01*
X16064281Y-10605085D01*
X16064519Y-10605323D01*
X16064995Y-10605561D01*
X16062376Y-10607942D02*
X16062138Y-10607942D01*
X16061662Y-10607704D01*
X16061424Y-10607466D01*
X16065471Y-10616038D02*
X16062138Y-10616038D01*
X16067376Y-10614847D02*
X16063805Y-10613657D01*
X16063805Y-10616752D01*
X16062138Y-10618895D02*
X16062138Y-10619847D01*
X16062376Y-10620323D01*
X16062614Y-10620561D01*
X16063328Y-10621038D01*
X16064281Y-10621276D01*
X16066186Y-10621276D01*
X16066662Y-10621038D01*
X16066900Y-10620799D01*
X16067138Y-10620323D01*
X16067138Y-10619371D01*
X16066900Y-10618895D01*
X16066662Y-10618657D01*
X16066186Y-10618419D01*
X16064995Y-10618419D01*
X16064519Y-10618657D01*
X16064281Y-10618895D01*
X16064043Y-10619371D01*
X16064043Y-10620323D01*
X16064281Y-10620799D01*
X16064519Y-10621038D01*
X16064995Y-10621276D01*
X16062614Y-10623419D02*
X16062376Y-10623657D01*
X16062138Y-10623419D01*
X16062376Y-10623180D01*
X16062614Y-10623419D01*
X16062138Y-10623419D01*
X16067138Y-10626752D02*
X16067138Y-10627228D01*
X16066900Y-10627704D01*
X16066662Y-10627942D01*
X16066186Y-10628180D01*
X16065233Y-10628419D01*
X16064043Y-10628419D01*
X16063090Y-10628180D01*
X16062614Y-10627942D01*
X16062376Y-10627704D01*
X16062138Y-10627228D01*
X16062138Y-10626752D01*
X16062376Y-10626276D01*
X16062614Y-10626038D01*
X16063090Y-10625799D01*
X16064043Y-10625561D01*
X16065233Y-10625561D01*
X16066186Y-10625799D01*
X16066662Y-10626038D01*
X16066900Y-10626276D01*
X16067138Y-10626752D01*
X16066662Y-10630323D02*
X16066900Y-10630561D01*
X16067138Y-10631038D01*
X16067138Y-10632228D01*
X16066900Y-10632704D01*
X16066662Y-10632942D01*
X16066186Y-10633180D01*
X16065709Y-10633180D01*
X16064995Y-10632942D01*
X16062138Y-10630085D01*
X16062138Y-10633180D01*
X16066662Y-10635085D02*
X16066900Y-10635323D01*
X16067138Y-10635799D01*
X16067138Y-10636990D01*
X16066900Y-10637466D01*
X16066662Y-10637704D01*
X16066186Y-10637942D01*
X16065709Y-10637942D01*
X16064995Y-10637704D01*
X16062138Y-10634847D01*
X16062138Y-10637942D01*
X16059400Y-10670409D02*
G75*
G03X16059400Y-10670409I-1000J0D01*
G01*
%TO.C,Cap_2*%
D10*
X14601905Y-10903619D02*
X14573333Y-10903619D01*
X14587619Y-10903619D02*
X14587619Y-10853619D01*
X14582857Y-10860762D01*
X14578095Y-10865524D01*
X14573333Y-10867905D01*
X14620952Y-10858381D02*
X14623333Y-10856000D01*
X14628095Y-10853619D01*
X14640000Y-10853619D01*
X14644762Y-10856000D01*
X14647143Y-10858381D01*
X14649524Y-10863143D01*
X14649524Y-10867905D01*
X14647143Y-10875048D01*
X14618571Y-10903619D01*
X14649524Y-10903619D01*
X14680476Y-10853619D02*
X14685238Y-10853619D01*
X14690000Y-10856000D01*
X14692381Y-10858381D01*
X14694762Y-10863143D01*
X14697143Y-10872667D01*
X14697143Y-10884571D01*
X14694762Y-10894095D01*
X14692381Y-10898857D01*
X14690000Y-10901238D01*
X14685238Y-10903619D01*
X14680476Y-10903619D01*
X14675714Y-10901238D01*
X14673333Y-10898857D01*
X14670952Y-10894095D01*
X14668571Y-10884571D01*
X14668571Y-10872667D01*
X14670952Y-10863143D01*
X14673333Y-10858381D01*
X14675714Y-10856000D01*
X14680476Y-10853619D01*
X14740000Y-10853619D02*
X14730476Y-10853619D01*
X14725714Y-10856000D01*
X14723333Y-10858381D01*
X14718571Y-10865524D01*
X14716190Y-10875048D01*
X14716190Y-10894095D01*
X14718571Y-10898857D01*
X14720952Y-10901238D01*
X14725714Y-10903619D01*
X14735238Y-10903619D01*
X14740000Y-10901238D01*
X14742381Y-10898857D01*
X14744762Y-10894095D01*
X14744762Y-10882190D01*
X14742381Y-10877429D01*
X14740000Y-10875048D01*
X14735238Y-10872667D01*
X14725714Y-10872667D01*
X14720952Y-10875048D01*
X14718571Y-10877429D01*
X14716190Y-10882190D01*
X14754286Y-10908381D02*
X14792381Y-10908381D01*
X14825714Y-10901238D02*
X14820952Y-10903619D01*
X14811428Y-10903619D01*
X14806667Y-10901238D01*
X14804286Y-10898857D01*
X14801905Y-10894095D01*
X14801905Y-10879810D01*
X14804286Y-10875048D01*
X14806667Y-10872667D01*
X14811428Y-10870286D01*
X14820952Y-10870286D01*
X14825714Y-10872667D01*
X14868571Y-10903619D02*
X14868571Y-10877429D01*
X14866190Y-10872667D01*
X14861428Y-10870286D01*
X14851905Y-10870286D01*
X14847143Y-10872667D01*
X14868571Y-10901238D02*
X14863809Y-10903619D01*
X14851905Y-10903619D01*
X14847143Y-10901238D01*
X14844762Y-10896476D01*
X14844762Y-10891714D01*
X14847143Y-10886952D01*
X14851905Y-10884571D01*
X14863809Y-10884571D01*
X14868571Y-10882190D01*
X14892381Y-10870286D02*
X14892381Y-10920286D01*
X14892381Y-10872667D02*
X14897143Y-10870286D01*
X14906667Y-10870286D01*
X14911428Y-10872667D01*
X14913809Y-10875048D01*
X14916190Y-10879810D01*
X14916190Y-10894095D01*
X14913809Y-10898857D01*
X14911428Y-10901238D01*
X14906667Y-10903619D01*
X14897143Y-10903619D01*
X14892381Y-10901238D01*
X14925714Y-10908381D02*
X14963809Y-10908381D01*
X14973333Y-10901238D02*
X14978095Y-10903619D01*
X14987619Y-10903619D01*
X14992381Y-10901238D01*
X14994762Y-10896476D01*
X14994762Y-10894095D01*
X14992381Y-10889333D01*
X14987619Y-10886952D01*
X14980476Y-10886952D01*
X14975714Y-10884571D01*
X14973333Y-10879810D01*
X14973333Y-10877429D01*
X14975714Y-10872667D01*
X14980476Y-10870286D01*
X14987619Y-10870286D01*
X14992381Y-10872667D01*
X15016190Y-10903619D02*
X15016190Y-10870286D01*
X15016190Y-10875048D02*
X15018571Y-10872667D01*
X15023333Y-10870286D01*
X15030476Y-10870286D01*
X15035238Y-10872667D01*
X15037619Y-10877429D01*
X15037619Y-10903619D01*
X15037619Y-10877429D02*
X15040000Y-10872667D01*
X15044762Y-10870286D01*
X15051905Y-10870286D01*
X15056667Y-10872667D01*
X15059048Y-10877429D01*
X15059048Y-10903619D01*
X15104286Y-10903619D02*
X15104286Y-10853619D01*
X15104286Y-10901238D02*
X15099524Y-10903619D01*
X15090000Y-10903619D01*
X15085238Y-10901238D01*
X15082857Y-10898857D01*
X15080476Y-10894095D01*
X15080476Y-10879810D01*
X15082857Y-10875048D01*
X15085238Y-10872667D01*
X15090000Y-10870286D01*
X15099524Y-10870286D01*
X15104286Y-10872667D01*
%TO.C,Cap_4*%
X16131619Y-11084095D02*
X16131619Y-11112667D01*
X16131619Y-11098381D02*
X16081619Y-11098381D01*
X16088762Y-11103143D01*
X16093524Y-11107905D01*
X16095905Y-11112667D01*
X16086381Y-11065048D02*
X16084000Y-11062667D01*
X16081619Y-11057905D01*
X16081619Y-11046000D01*
X16084000Y-11041238D01*
X16086381Y-11038857D01*
X16091143Y-11036476D01*
X16095905Y-11036476D01*
X16103048Y-11038857D01*
X16131619Y-11067429D01*
X16131619Y-11036476D01*
X16081619Y-11005524D02*
X16081619Y-11000762D01*
X16084000Y-10996000D01*
X16086381Y-10993619D01*
X16091143Y-10991238D01*
X16100667Y-10988857D01*
X16112571Y-10988857D01*
X16122095Y-10991238D01*
X16126857Y-10993619D01*
X16129238Y-10996000D01*
X16131619Y-11000762D01*
X16131619Y-11005524D01*
X16129238Y-11010286D01*
X16126857Y-11012667D01*
X16122095Y-11015048D01*
X16112571Y-11017429D01*
X16100667Y-11017429D01*
X16091143Y-11015048D01*
X16086381Y-11012667D01*
X16084000Y-11010286D01*
X16081619Y-11005524D01*
X16081619Y-10946000D02*
X16081619Y-10955524D01*
X16084000Y-10960286D01*
X16086381Y-10962667D01*
X16093524Y-10967429D01*
X16103048Y-10969810D01*
X16122095Y-10969810D01*
X16126857Y-10967429D01*
X16129238Y-10965048D01*
X16131619Y-10960286D01*
X16131619Y-10950762D01*
X16129238Y-10946000D01*
X16126857Y-10943619D01*
X16122095Y-10941238D01*
X16110190Y-10941238D01*
X16105428Y-10943619D01*
X16103048Y-10946000D01*
X16100667Y-10950762D01*
X16100667Y-10960286D01*
X16103048Y-10965048D01*
X16105428Y-10967429D01*
X16110190Y-10969810D01*
X16136381Y-10931714D02*
X16136381Y-10893619D01*
X16129238Y-10860286D02*
X16131619Y-10865048D01*
X16131619Y-10874571D01*
X16129238Y-10879333D01*
X16126857Y-10881714D01*
X16122095Y-10884095D01*
X16107809Y-10884095D01*
X16103048Y-10881714D01*
X16100667Y-10879333D01*
X16098286Y-10874571D01*
X16098286Y-10865048D01*
X16100667Y-10860286D01*
X16131619Y-10817429D02*
X16105428Y-10817429D01*
X16100667Y-10819810D01*
X16098286Y-10824571D01*
X16098286Y-10834095D01*
X16100667Y-10838857D01*
X16129238Y-10817429D02*
X16131619Y-10822190D01*
X16131619Y-10834095D01*
X16129238Y-10838857D01*
X16124476Y-10841238D01*
X16119714Y-10841238D01*
X16114952Y-10838857D01*
X16112571Y-10834095D01*
X16112571Y-10822190D01*
X16110190Y-10817429D01*
X16098286Y-10793619D02*
X16148286Y-10793619D01*
X16100667Y-10793619D02*
X16098286Y-10788857D01*
X16098286Y-10779333D01*
X16100667Y-10774571D01*
X16103048Y-10772190D01*
X16107809Y-10769810D01*
X16122095Y-10769810D01*
X16126857Y-10772190D01*
X16129238Y-10774571D01*
X16131619Y-10779333D01*
X16131619Y-10788857D01*
X16129238Y-10793619D01*
X16136381Y-10760286D02*
X16136381Y-10722190D01*
X16129238Y-10712667D02*
X16131619Y-10707905D01*
X16131619Y-10698381D01*
X16129238Y-10693619D01*
X16124476Y-10691238D01*
X16122095Y-10691238D01*
X16117333Y-10693619D01*
X16114952Y-10698381D01*
X16114952Y-10705524D01*
X16112571Y-10710286D01*
X16107809Y-10712667D01*
X16105428Y-10712667D01*
X16100667Y-10710286D01*
X16098286Y-10705524D01*
X16098286Y-10698381D01*
X16100667Y-10693619D01*
X16131619Y-10669810D02*
X16098286Y-10669810D01*
X16103048Y-10669810D02*
X16100667Y-10667429D01*
X16098286Y-10662667D01*
X16098286Y-10655524D01*
X16100667Y-10650762D01*
X16105428Y-10648381D01*
X16131619Y-10648381D01*
X16105428Y-10648381D02*
X16100667Y-10646000D01*
X16098286Y-10641238D01*
X16098286Y-10634095D01*
X16100667Y-10629333D01*
X16105428Y-10626952D01*
X16131619Y-10626952D01*
X16131619Y-10581714D02*
X16081619Y-10581714D01*
X16129238Y-10581714D02*
X16131619Y-10586476D01*
X16131619Y-10596000D01*
X16129238Y-10600762D01*
X16126857Y-10603143D01*
X16122095Y-10605524D01*
X16107809Y-10605524D01*
X16103048Y-10603143D01*
X16100667Y-10600762D01*
X16098286Y-10596000D01*
X16098286Y-10586476D01*
X16100667Y-10581714D01*
%TO.C,Cap_1*%
X15550119Y-11281095D02*
X15550119Y-11309667D01*
X15550119Y-11295381D02*
X15500119Y-11295381D01*
X15507262Y-11300143D01*
X15512024Y-11304905D01*
X15514405Y-11309667D01*
X15504881Y-11262048D02*
X15502500Y-11259667D01*
X15500119Y-11254905D01*
X15500119Y-11243000D01*
X15502500Y-11238238D01*
X15504881Y-11235857D01*
X15509643Y-11233476D01*
X15514405Y-11233476D01*
X15521548Y-11235857D01*
X15550119Y-11264428D01*
X15550119Y-11233476D01*
X15500119Y-11202524D02*
X15500119Y-11197762D01*
X15502500Y-11193000D01*
X15504881Y-11190619D01*
X15509643Y-11188238D01*
X15519167Y-11185857D01*
X15531071Y-11185857D01*
X15540595Y-11188238D01*
X15545357Y-11190619D01*
X15547738Y-11193000D01*
X15550119Y-11197762D01*
X15550119Y-11202524D01*
X15547738Y-11207286D01*
X15545357Y-11209667D01*
X15540595Y-11212048D01*
X15531071Y-11214428D01*
X15519167Y-11214428D01*
X15509643Y-11212048D01*
X15504881Y-11209667D01*
X15502500Y-11207286D01*
X15500119Y-11202524D01*
X15500119Y-11143000D02*
X15500119Y-11152524D01*
X15502500Y-11157286D01*
X15504881Y-11159667D01*
X15512024Y-11164429D01*
X15521548Y-11166810D01*
X15540595Y-11166810D01*
X15545357Y-11164429D01*
X15547738Y-11162048D01*
X15550119Y-11157286D01*
X15550119Y-11147762D01*
X15547738Y-11143000D01*
X15545357Y-11140619D01*
X15540595Y-11138238D01*
X15528690Y-11138238D01*
X15523928Y-11140619D01*
X15521548Y-11143000D01*
X15519167Y-11147762D01*
X15519167Y-11157286D01*
X15521548Y-11162048D01*
X15523928Y-11164429D01*
X15528690Y-11166810D01*
X15554881Y-11128714D02*
X15554881Y-11090619D01*
X15547738Y-11057286D02*
X15550119Y-11062048D01*
X15550119Y-11071571D01*
X15547738Y-11076333D01*
X15545357Y-11078714D01*
X15540595Y-11081095D01*
X15526309Y-11081095D01*
X15521548Y-11078714D01*
X15519167Y-11076333D01*
X15516786Y-11071571D01*
X15516786Y-11062048D01*
X15519167Y-11057286D01*
X15550119Y-11014429D02*
X15523928Y-11014429D01*
X15519167Y-11016810D01*
X15516786Y-11021571D01*
X15516786Y-11031095D01*
X15519167Y-11035857D01*
X15547738Y-11014429D02*
X15550119Y-11019190D01*
X15550119Y-11031095D01*
X15547738Y-11035857D01*
X15542976Y-11038238D01*
X15538214Y-11038238D01*
X15533452Y-11035857D01*
X15531071Y-11031095D01*
X15531071Y-11019190D01*
X15528690Y-11014429D01*
X15516786Y-10990619D02*
X15566786Y-10990619D01*
X15519167Y-10990619D02*
X15516786Y-10985857D01*
X15516786Y-10976333D01*
X15519167Y-10971571D01*
X15521548Y-10969190D01*
X15526309Y-10966810D01*
X15540595Y-10966810D01*
X15545357Y-10969190D01*
X15547738Y-10971571D01*
X15550119Y-10976333D01*
X15550119Y-10985857D01*
X15547738Y-10990619D01*
X15554881Y-10957286D02*
X15554881Y-10919190D01*
X15547738Y-10909667D02*
X15550119Y-10904905D01*
X15550119Y-10895381D01*
X15547738Y-10890619D01*
X15542976Y-10888238D01*
X15540595Y-10888238D01*
X15535833Y-10890619D01*
X15533452Y-10895381D01*
X15533452Y-10902524D01*
X15531071Y-10907286D01*
X15526309Y-10909667D01*
X15523928Y-10909667D01*
X15519167Y-10907286D01*
X15516786Y-10902524D01*
X15516786Y-10895381D01*
X15519167Y-10890619D01*
X15550119Y-10866810D02*
X15516786Y-10866810D01*
X15521548Y-10866810D02*
X15519167Y-10864429D01*
X15516786Y-10859667D01*
X15516786Y-10852524D01*
X15519167Y-10847762D01*
X15523928Y-10845381D01*
X15550119Y-10845381D01*
X15523928Y-10845381D02*
X15519167Y-10843000D01*
X15516786Y-10838238D01*
X15516786Y-10831095D01*
X15519167Y-10826333D01*
X15523928Y-10823952D01*
X15550119Y-10823952D01*
X15550119Y-10778714D02*
X15500119Y-10778714D01*
X15547738Y-10778714D02*
X15550119Y-10783476D01*
X15550119Y-10793000D01*
X15547738Y-10797762D01*
X15545357Y-10800143D01*
X15540595Y-10802524D01*
X15526309Y-10802524D01*
X15521548Y-10800143D01*
X15519167Y-10797762D01*
X15516786Y-10793000D01*
X15516786Y-10783476D01*
X15519167Y-10778714D01*
%TO.C,Cap_3*%
X15226619Y-11504595D02*
X15226619Y-11533167D01*
X15226619Y-11518881D02*
X15176619Y-11518881D01*
X15183762Y-11523643D01*
X15188524Y-11528405D01*
X15190905Y-11533167D01*
X15181381Y-11485548D02*
X15179000Y-11483167D01*
X15176619Y-11478405D01*
X15176619Y-11466500D01*
X15179000Y-11461738D01*
X15181381Y-11459357D01*
X15186143Y-11456976D01*
X15190905Y-11456976D01*
X15198048Y-11459357D01*
X15226619Y-11487928D01*
X15226619Y-11456976D01*
X15176619Y-11426024D02*
X15176619Y-11421262D01*
X15179000Y-11416500D01*
X15181381Y-11414119D01*
X15186143Y-11411738D01*
X15195667Y-11409357D01*
X15207571Y-11409357D01*
X15217095Y-11411738D01*
X15221857Y-11414119D01*
X15224238Y-11416500D01*
X15226619Y-11421262D01*
X15226619Y-11426024D01*
X15224238Y-11430786D01*
X15221857Y-11433167D01*
X15217095Y-11435548D01*
X15207571Y-11437928D01*
X15195667Y-11437928D01*
X15186143Y-11435548D01*
X15181381Y-11433167D01*
X15179000Y-11430786D01*
X15176619Y-11426024D01*
X15176619Y-11366500D02*
X15176619Y-11376024D01*
X15179000Y-11380786D01*
X15181381Y-11383167D01*
X15188524Y-11387928D01*
X15198048Y-11390309D01*
X15217095Y-11390309D01*
X15221857Y-11387928D01*
X15224238Y-11385548D01*
X15226619Y-11380786D01*
X15226619Y-11371262D01*
X15224238Y-11366500D01*
X15221857Y-11364119D01*
X15217095Y-11361738D01*
X15205190Y-11361738D01*
X15200428Y-11364119D01*
X15198048Y-11366500D01*
X15195667Y-11371262D01*
X15195667Y-11380786D01*
X15198048Y-11385548D01*
X15200428Y-11387928D01*
X15205190Y-11390309D01*
X15231381Y-11352214D02*
X15231381Y-11314119D01*
X15224238Y-11280786D02*
X15226619Y-11285548D01*
X15226619Y-11295071D01*
X15224238Y-11299833D01*
X15221857Y-11302214D01*
X15217095Y-11304595D01*
X15202809Y-11304595D01*
X15198048Y-11302214D01*
X15195667Y-11299833D01*
X15193286Y-11295071D01*
X15193286Y-11285548D01*
X15195667Y-11280786D01*
X15226619Y-11237928D02*
X15200428Y-11237928D01*
X15195667Y-11240309D01*
X15193286Y-11245071D01*
X15193286Y-11254595D01*
X15195667Y-11259357D01*
X15224238Y-11237928D02*
X15226619Y-11242690D01*
X15226619Y-11254595D01*
X15224238Y-11259357D01*
X15219476Y-11261738D01*
X15214714Y-11261738D01*
X15209952Y-11259357D01*
X15207571Y-11254595D01*
X15207571Y-11242690D01*
X15205190Y-11237928D01*
X15193286Y-11214119D02*
X15243286Y-11214119D01*
X15195667Y-11214119D02*
X15193286Y-11209357D01*
X15193286Y-11199833D01*
X15195667Y-11195071D01*
X15198048Y-11192690D01*
X15202809Y-11190309D01*
X15217095Y-11190309D01*
X15221857Y-11192690D01*
X15224238Y-11195071D01*
X15226619Y-11199833D01*
X15226619Y-11209357D01*
X15224238Y-11214119D01*
X15231381Y-11180786D02*
X15231381Y-11142690D01*
X15224238Y-11133167D02*
X15226619Y-11128405D01*
X15226619Y-11118881D01*
X15224238Y-11114119D01*
X15219476Y-11111738D01*
X15217095Y-11111738D01*
X15212333Y-11114119D01*
X15209952Y-11118881D01*
X15209952Y-11126024D01*
X15207571Y-11130786D01*
X15202809Y-11133167D01*
X15200428Y-11133167D01*
X15195667Y-11130786D01*
X15193286Y-11126024D01*
X15193286Y-11118881D01*
X15195667Y-11114119D01*
X15226619Y-11090310D02*
X15193286Y-11090310D01*
X15198048Y-11090310D02*
X15195667Y-11087929D01*
X15193286Y-11083167D01*
X15193286Y-11076024D01*
X15195667Y-11071262D01*
X15200428Y-11068881D01*
X15226619Y-11068881D01*
X15200428Y-11068881D02*
X15195667Y-11066500D01*
X15193286Y-11061738D01*
X15193286Y-11054595D01*
X15195667Y-11049833D01*
X15200428Y-11047452D01*
X15226619Y-11047452D01*
X15226619Y-11002214D02*
X15176619Y-11002214D01*
X15224238Y-11002214D02*
X15226619Y-11006976D01*
X15226619Y-11016500D01*
X15224238Y-11021262D01*
X15221857Y-11023643D01*
X15217095Y-11026024D01*
X15202809Y-11026024D01*
X15198048Y-11023643D01*
X15195667Y-11021262D01*
X15193286Y-11016500D01*
X15193286Y-11006976D01*
X15195667Y-11002214D01*
%TO.C,U102*%
X13976238Y-10847619D02*
X13985762Y-10847619D01*
X13990524Y-10850000D01*
X13995286Y-10854762D01*
X13997667Y-10864286D01*
X13997667Y-10880952D01*
X13995286Y-10890476D01*
X13990524Y-10895238D01*
X13985762Y-10897619D01*
X13976238Y-10897619D01*
X13971476Y-10895238D01*
X13966714Y-10890476D01*
X13964333Y-10880952D01*
X13964333Y-10864286D01*
X13966714Y-10854762D01*
X13971476Y-10850000D01*
X13976238Y-10847619D01*
%TO.C,U26*%
X12700238Y-9577619D02*
X12709762Y-9577619D01*
X12714524Y-9580000D01*
X12719286Y-9584762D01*
X12721667Y-9594286D01*
X12721667Y-9610952D01*
X12719286Y-9620476D01*
X12714524Y-9625238D01*
X12709762Y-9627619D01*
X12700238Y-9627619D01*
X12695476Y-9625238D01*
X12690714Y-9620476D01*
X12688333Y-9610952D01*
X12688333Y-9594286D01*
X12690714Y-9584762D01*
X12695476Y-9580000D01*
X12700238Y-9577619D01*
%TO.C,U8*%
X12954238Y-9577619D02*
X12963762Y-9577619D01*
X12968524Y-9580000D01*
X12973286Y-9584762D01*
X12975667Y-9594286D01*
X12975667Y-9610952D01*
X12973286Y-9620476D01*
X12968524Y-9625238D01*
X12963762Y-9627619D01*
X12954238Y-9627619D01*
X12949476Y-9625238D01*
X12944714Y-9620476D01*
X12942333Y-9610952D01*
X12942333Y-9594286D01*
X12944714Y-9584762D01*
X12949476Y-9580000D01*
X12954238Y-9577619D01*
%TO.C,U33*%
X12954238Y-10847619D02*
X12963762Y-10847619D01*
X12968524Y-10850000D01*
X12973286Y-10854762D01*
X12975667Y-10864286D01*
X12975667Y-10880952D01*
X12973286Y-10890476D01*
X12968524Y-10895238D01*
X12963762Y-10897619D01*
X12954238Y-10897619D01*
X12949476Y-10895238D01*
X12944714Y-10890476D01*
X12942333Y-10880952D01*
X12942333Y-10864286D01*
X12944714Y-10854762D01*
X12949476Y-10850000D01*
X12954238Y-10847619D01*
%TO.C,U31*%
X13462238Y-11609619D02*
X13471762Y-11609619D01*
X13476524Y-11612000D01*
X13481286Y-11616762D01*
X13483667Y-11626286D01*
X13483667Y-11642952D01*
X13481286Y-11652476D01*
X13476524Y-11657238D01*
X13471762Y-11659619D01*
X13462238Y-11659619D01*
X13457476Y-11657238D01*
X13452714Y-11652476D01*
X13450333Y-11642952D01*
X13450333Y-11626286D01*
X13452714Y-11616762D01*
X13457476Y-11612000D01*
X13462238Y-11609619D01*
%TO.C,U25*%
X12706238Y-11350619D02*
X12715762Y-11350619D01*
X12720524Y-11353000D01*
X12725286Y-11357762D01*
X12727667Y-11367286D01*
X12727667Y-11383952D01*
X12725286Y-11393476D01*
X12720524Y-11398238D01*
X12715762Y-11400619D01*
X12706238Y-11400619D01*
X12701476Y-11398238D01*
X12696714Y-11393476D01*
X12694333Y-11383952D01*
X12694333Y-11367286D01*
X12696714Y-11357762D01*
X12701476Y-11353000D01*
X12706238Y-11350619D01*
%TO.C,U20*%
X13722238Y-11350619D02*
X13731762Y-11350619D01*
X13736524Y-11353000D01*
X13741286Y-11357762D01*
X13743667Y-11367286D01*
X13743667Y-11383952D01*
X13741286Y-11393476D01*
X13736524Y-11398238D01*
X13731762Y-11400619D01*
X13722238Y-11400619D01*
X13717476Y-11398238D01*
X13712714Y-11393476D01*
X13710333Y-11383952D01*
X13710333Y-11367286D01*
X13712714Y-11357762D01*
X13717476Y-11353000D01*
X13722238Y-11350619D01*
%TO.C,U19*%
X14478238Y-10847619D02*
X14487762Y-10847619D01*
X14492524Y-10850000D01*
X14497286Y-10854762D01*
X14499667Y-10864286D01*
X14499667Y-10880952D01*
X14497286Y-10890476D01*
X14492524Y-10895238D01*
X14487762Y-10897619D01*
X14478238Y-10897619D01*
X14473476Y-10895238D01*
X14468714Y-10890476D01*
X14466333Y-10880952D01*
X14466333Y-10864286D01*
X14468714Y-10854762D01*
X14473476Y-10850000D01*
X14478238Y-10847619D01*
%TO.C,U32*%
X12700238Y-11101619D02*
X12709762Y-11101619D01*
X12714524Y-11104000D01*
X12719286Y-11108762D01*
X12721667Y-11118286D01*
X12721667Y-11134952D01*
X12719286Y-11144476D01*
X12714524Y-11149238D01*
X12709762Y-11151619D01*
X12700238Y-11151619D01*
X12695476Y-11149238D01*
X12690714Y-11144476D01*
X12688333Y-11134952D01*
X12688333Y-11118286D01*
X12690714Y-11108762D01*
X12695476Y-11104000D01*
X12700238Y-11101619D01*
%TO.C,U30*%
X12954238Y-11355619D02*
X12963762Y-11355619D01*
X12968524Y-11358000D01*
X12973286Y-11362762D01*
X12975667Y-11372286D01*
X12975667Y-11388952D01*
X12973286Y-11398476D01*
X12968524Y-11403238D01*
X12963762Y-11405619D01*
X12954238Y-11405619D01*
X12949476Y-11403238D01*
X12944714Y-11398476D01*
X12942333Y-11388952D01*
X12942333Y-11372286D01*
X12944714Y-11362762D01*
X12949476Y-11358000D01*
X12954238Y-11355619D01*
%TO.C,U29*%
X12700238Y-10847619D02*
X12709762Y-10847619D01*
X12714524Y-10850000D01*
X12719286Y-10854762D01*
X12721667Y-10864286D01*
X12721667Y-10880952D01*
X12719286Y-10890476D01*
X12714524Y-10895238D01*
X12709762Y-10897619D01*
X12700238Y-10897619D01*
X12695476Y-10895238D01*
X12690714Y-10890476D01*
X12688333Y-10880952D01*
X12688333Y-10864286D01*
X12690714Y-10854762D01*
X12695476Y-10850000D01*
X12700238Y-10847619D01*
%TO.C,U28*%
X12706238Y-11604619D02*
X12715762Y-11604619D01*
X12720524Y-11607000D01*
X12725286Y-11611762D01*
X12727667Y-11621286D01*
X12727667Y-11637952D01*
X12725286Y-11647476D01*
X12720524Y-11652238D01*
X12715762Y-11654619D01*
X12706238Y-11654619D01*
X12701476Y-11652238D01*
X12696714Y-11647476D01*
X12694333Y-11637952D01*
X12694333Y-11621286D01*
X12696714Y-11611762D01*
X12701476Y-11607000D01*
X12706238Y-11604619D01*
%TO.C,U27*%
X13722238Y-11604619D02*
X13731762Y-11604619D01*
X13736524Y-11607000D01*
X13741286Y-11611762D01*
X13743667Y-11621286D01*
X13743667Y-11637952D01*
X13741286Y-11647476D01*
X13736524Y-11652238D01*
X13731762Y-11654619D01*
X13722238Y-11654619D01*
X13717476Y-11652238D01*
X13712714Y-11647476D01*
X13710333Y-11637952D01*
X13710333Y-11621286D01*
X13712714Y-11611762D01*
X13717476Y-11607000D01*
X13722238Y-11604619D01*
%TO.C,U24*%
X12954238Y-11863619D02*
X12963762Y-11863619D01*
X12968524Y-11866000D01*
X12973286Y-11870762D01*
X12975667Y-11880286D01*
X12975667Y-11896952D01*
X12973286Y-11906476D01*
X12968524Y-11911238D01*
X12963762Y-11913619D01*
X12954238Y-11913619D01*
X12949476Y-11911238D01*
X12944714Y-11906476D01*
X12942333Y-11896952D01*
X12942333Y-11880286D01*
X12944714Y-11870762D01*
X12949476Y-11866000D01*
X12954238Y-11863619D01*
%TO.C,U23*%
X13970238Y-11609619D02*
X13979762Y-11609619D01*
X13984524Y-11612000D01*
X13989286Y-11616762D01*
X13991667Y-11626286D01*
X13991667Y-11642952D01*
X13989286Y-11652476D01*
X13984524Y-11657238D01*
X13979762Y-11659619D01*
X13970238Y-11659619D01*
X13965476Y-11657238D01*
X13960714Y-11652476D01*
X13958333Y-11642952D01*
X13958333Y-11626286D01*
X13960714Y-11616762D01*
X13965476Y-11612000D01*
X13970238Y-11609619D01*
%TO.C,U102*%
X13976238Y-11096619D02*
X13985762Y-11096619D01*
X13990524Y-11099000D01*
X13995286Y-11103762D01*
X13997667Y-11113286D01*
X13997667Y-11129952D01*
X13995286Y-11139476D01*
X13990524Y-11144238D01*
X13985762Y-11146619D01*
X13976238Y-11146619D01*
X13971476Y-11144238D01*
X13966714Y-11139476D01*
X13964333Y-11129952D01*
X13964333Y-11113286D01*
X13966714Y-11103762D01*
X13971476Y-11099000D01*
X13976238Y-11096619D01*
%TO.C,U21*%
X12960238Y-11096619D02*
X12969762Y-11096619D01*
X12974524Y-11099000D01*
X12979286Y-11103762D01*
X12981667Y-11113286D01*
X12981667Y-11129952D01*
X12979286Y-11139476D01*
X12974524Y-11144238D01*
X12969762Y-11146619D01*
X12960238Y-11146619D01*
X12955476Y-11144238D01*
X12950714Y-11139476D01*
X12948333Y-11129952D01*
X12948333Y-11113286D01*
X12950714Y-11103762D01*
X12955476Y-11099000D01*
X12960238Y-11096619D01*
%TO.C,U18*%
X13725238Y-11119619D02*
X13734762Y-11119619D01*
X13739524Y-11122000D01*
X13744286Y-11126762D01*
X13746667Y-11136286D01*
X13746667Y-11152952D01*
X13744286Y-11162476D01*
X13739524Y-11167238D01*
X13734762Y-11169619D01*
X13725238Y-11169619D01*
X13720476Y-11167238D01*
X13715714Y-11162476D01*
X13713333Y-11152952D01*
X13713333Y-11136286D01*
X13715714Y-11126762D01*
X13720476Y-11122000D01*
X13725238Y-11119619D01*
%TO.C,U17*%
X13468238Y-11350619D02*
X13477762Y-11350619D01*
X13482524Y-11353000D01*
X13487286Y-11357762D01*
X13489667Y-11367286D01*
X13489667Y-11383952D01*
X13487286Y-11393476D01*
X13482524Y-11398238D01*
X13477762Y-11400619D01*
X13468238Y-11400619D01*
X13463476Y-11398238D01*
X13458714Y-11393476D01*
X13456333Y-11383952D01*
X13456333Y-11367286D01*
X13458714Y-11357762D01*
X13463476Y-11353000D01*
X13468238Y-11350619D01*
%TO.C,U16*%
X14484238Y-11096619D02*
X14493762Y-11096619D01*
X14498524Y-11099000D01*
X14503286Y-11103762D01*
X14505667Y-11113286D01*
X14505667Y-11129952D01*
X14503286Y-11139476D01*
X14498524Y-11144238D01*
X14493762Y-11146619D01*
X14484238Y-11146619D01*
X14479476Y-11144238D01*
X14474714Y-11139476D01*
X14472333Y-11129952D01*
X14472333Y-11113286D01*
X14474714Y-11103762D01*
X14479476Y-11099000D01*
X14484238Y-11096619D01*
%TO.C,U15*%
X14738238Y-10842619D02*
X14747762Y-10842619D01*
X14752524Y-10845000D01*
X14757286Y-10849762D01*
X14759667Y-10859286D01*
X14759667Y-10875952D01*
X14757286Y-10885476D01*
X14752524Y-10890238D01*
X14747762Y-10892619D01*
X14738238Y-10892619D01*
X14733476Y-10890238D01*
X14728714Y-10885476D01*
X14726333Y-10875952D01*
X14726333Y-10859286D01*
X14728714Y-10849762D01*
X14733476Y-10845000D01*
X14738238Y-10842619D01*
%TO.C,U14*%
X13468238Y-10842619D02*
X13477762Y-10842619D01*
X13482524Y-10845000D01*
X13487286Y-10849762D01*
X13489667Y-10859286D01*
X13489667Y-10875952D01*
X13487286Y-10885476D01*
X13482524Y-10890238D01*
X13477762Y-10892619D01*
X13468238Y-10892619D01*
X13463476Y-10890238D01*
X13458714Y-10885476D01*
X13456333Y-10875952D01*
X13456333Y-10859286D01*
X13458714Y-10849762D01*
X13463476Y-10845000D01*
X13468238Y-10842619D01*
%TO.C,U13*%
X13976238Y-11350619D02*
X13985762Y-11350619D01*
X13990524Y-11353000D01*
X13995286Y-11357762D01*
X13997667Y-11367286D01*
X13997667Y-11383952D01*
X13995286Y-11393476D01*
X13990524Y-11398238D01*
X13985762Y-11400619D01*
X13976238Y-11400619D01*
X13971476Y-11398238D01*
X13966714Y-11393476D01*
X13964333Y-11383952D01*
X13964333Y-11367286D01*
X13966714Y-11357762D01*
X13971476Y-11353000D01*
X13976238Y-11350619D01*
%TO.C,U12*%
X14738238Y-11096619D02*
X14747762Y-11096619D01*
X14752524Y-11099000D01*
X14757286Y-11103762D01*
X14759667Y-11113286D01*
X14759667Y-11129952D01*
X14757286Y-11139476D01*
X14752524Y-11144238D01*
X14747762Y-11146619D01*
X14738238Y-11146619D01*
X14733476Y-11144238D01*
X14728714Y-11139476D01*
X14726333Y-11129952D01*
X14726333Y-11113286D01*
X14728714Y-11103762D01*
X14733476Y-11099000D01*
X14738238Y-11096619D01*
%TO.C,U11*%
X13468238Y-11096619D02*
X13477762Y-11096619D01*
X13482524Y-11099000D01*
X13487286Y-11103762D01*
X13489667Y-11113286D01*
X13489667Y-11129952D01*
X13487286Y-11139476D01*
X13482524Y-11144238D01*
X13477762Y-11146619D01*
X13468238Y-11146619D01*
X13463476Y-11144238D01*
X13458714Y-11139476D01*
X13456333Y-11129952D01*
X13456333Y-11113286D01*
X13458714Y-11103762D01*
X13463476Y-11099000D01*
X13468238Y-11096619D01*
%TO.C,U10*%
X14484238Y-11350619D02*
X14493762Y-11350619D01*
X14498524Y-11353000D01*
X14503286Y-11357762D01*
X14505667Y-11367286D01*
X14505667Y-11383952D01*
X14503286Y-11393476D01*
X14498524Y-11398238D01*
X14493762Y-11400619D01*
X14484238Y-11400619D01*
X14479476Y-11398238D01*
X14474714Y-11393476D01*
X14472333Y-11383952D01*
X14472333Y-11367286D01*
X14474714Y-11357762D01*
X14479476Y-11353000D01*
X14484238Y-11350619D01*
%TO.C,U9*%
X12960238Y-11604619D02*
X12969762Y-11604619D01*
X12974524Y-11607000D01*
X12979286Y-11611762D01*
X12981667Y-11621286D01*
X12981667Y-11637952D01*
X12979286Y-11647476D01*
X12974524Y-11652238D01*
X12969762Y-11654619D01*
X12960238Y-11654619D01*
X12955476Y-11652238D01*
X12950714Y-11647476D01*
X12948333Y-11637952D01*
X12948333Y-11621286D01*
X12950714Y-11611762D01*
X12955476Y-11607000D01*
X12960238Y-11604619D01*
%TO.C,U7*%
X12954238Y-8815619D02*
X12963762Y-8815619D01*
X12968524Y-8818000D01*
X12973286Y-8822762D01*
X12975667Y-8832286D01*
X12975667Y-8848952D01*
X12973286Y-8858476D01*
X12968524Y-8863238D01*
X12963762Y-8865619D01*
X12954238Y-8865619D01*
X12949476Y-8863238D01*
X12944714Y-8858476D01*
X12942333Y-8848952D01*
X12942333Y-8832286D01*
X12944714Y-8822762D01*
X12949476Y-8818000D01*
X12954238Y-8815619D01*
%TO.C,U6*%
X13722238Y-8810619D02*
X13731762Y-8810619D01*
X13736524Y-8813000D01*
X13741286Y-8817762D01*
X13743667Y-8827286D01*
X13743667Y-8843952D01*
X13741286Y-8853476D01*
X13736524Y-8858238D01*
X13731762Y-8860619D01*
X13722238Y-8860619D01*
X13717476Y-8858238D01*
X13712714Y-8853476D01*
X13710333Y-8843952D01*
X13710333Y-8827286D01*
X13712714Y-8817762D01*
X13717476Y-8813000D01*
X13722238Y-8810619D01*
%TO.C,U5*%
X13208238Y-8815619D02*
X13217762Y-8815619D01*
X13222524Y-8818000D01*
X13227286Y-8822762D01*
X13229667Y-8832286D01*
X13229667Y-8848952D01*
X13227286Y-8858476D01*
X13222524Y-8863238D01*
X13217762Y-8865619D01*
X13208238Y-8865619D01*
X13203476Y-8863238D01*
X13198714Y-8858476D01*
X13196333Y-8848952D01*
X13196333Y-8832286D01*
X13198714Y-8822762D01*
X13203476Y-8818000D01*
X13208238Y-8815619D01*
%TO.C,U4*%
X13970238Y-8815619D02*
X13979762Y-8815619D01*
X13984524Y-8818000D01*
X13989286Y-8822762D01*
X13991667Y-8832286D01*
X13991667Y-8848952D01*
X13989286Y-8858476D01*
X13984524Y-8863238D01*
X13979762Y-8865619D01*
X13970238Y-8865619D01*
X13965476Y-8863238D01*
X13960714Y-8858476D01*
X13958333Y-8848952D01*
X13958333Y-8832286D01*
X13960714Y-8822762D01*
X13965476Y-8818000D01*
X13970238Y-8815619D01*
%TO.C,U3*%
X14230238Y-8810619D02*
X14239762Y-8810619D01*
X14244524Y-8813000D01*
X14249286Y-8817762D01*
X14251667Y-8827286D01*
X14251667Y-8843952D01*
X14249286Y-8853476D01*
X14244524Y-8858238D01*
X14239762Y-8860619D01*
X14230238Y-8860619D01*
X14225476Y-8858238D01*
X14220714Y-8853476D01*
X14218333Y-8843952D01*
X14218333Y-8827286D01*
X14220714Y-8817762D01*
X14225476Y-8813000D01*
X14230238Y-8810619D01*
%TO.C,U2*%
X13470238Y-8815619D02*
X13479762Y-8815619D01*
X13484524Y-8818000D01*
X13489286Y-8822762D01*
X13491667Y-8832286D01*
X13491667Y-8848952D01*
X13489286Y-8858476D01*
X13484524Y-8863238D01*
X13479762Y-8865619D01*
X13470238Y-8865619D01*
X13465476Y-8863238D01*
X13460714Y-8858476D01*
X13458333Y-8848952D01*
X13458333Y-8832286D01*
X13460714Y-8822762D01*
X13465476Y-8818000D01*
X13470238Y-8815619D01*
%TO.C,U1*%
X14470238Y-8815619D02*
X14479762Y-8815619D01*
X14484524Y-8818000D01*
X14489286Y-8822762D01*
X14491667Y-8832286D01*
X14491667Y-8848952D01*
X14489286Y-8858476D01*
X14484524Y-8863238D01*
X14479762Y-8865619D01*
X14470238Y-8865619D01*
X14465476Y-8863238D01*
X14460714Y-8858476D01*
X14458333Y-8848952D01*
X14458333Y-8832286D01*
X14460714Y-8822762D01*
X14465476Y-8818000D01*
X14470238Y-8815619D01*
%TD*%
M02*
