%TF.GenerationSoftware,KiCad,Pcbnew,5.1.3-ffb9f22~84~ubuntu18.04.1*%
%TF.CreationDate,2019-07-25T20:39:45+03:00*%
%TF.ProjectId,bluetooth,626c7565-746f-46f7-9468-2e6b69636164,rev?*%
%TF.SameCoordinates,Original*%
%TF.FileFunction,Other,User*%
%FSLAX45Y45*%
G04 Gerber Fmt 4.5, Leading zero omitted, Abs format (unit mm)*
G04 Created by KiCad (PCBNEW 5.1.3-ffb9f22~84~ubuntu18.04.1) date 2019-07-25 20:39:45*
%MOMM*%
%LPD*%
G04 APERTURE LIST*
%ADD10C,0.100000*%
%ADD11C,0.150000*%
%ADD12C,0.300000*%
%ADD13C,0.400000*%
%ADD14C,0.200000*%
G04 APERTURE END LIST*
D10*
D11*
X17700220Y-16600720D02*
X17700220Y-19800720D01*
X28500220Y-19800720D01*
X28500220Y-16600720D01*
X17700220Y-16600720D01*
D10*
D11*
X1000000Y-1000000D02*
X1000000Y-20000720D01*
X28700220Y-20000720D01*
X28700220Y-1000000D01*
X1000000Y-1000000D01*
D10*
D11*
X1200000Y-1200000D02*
X1200000Y-19800720D01*
X28500220Y-19800720D01*
X28500220Y-1200000D01*
X1200000Y-1200000D01*
D10*
D11*
X6000000Y-1200000D02*
X6000000Y-1000000D01*
D10*
D11*
X11000000Y-1200000D02*
X11000000Y-1000000D01*
D10*
D11*
X16000000Y-1200000D02*
X16000000Y-1000000D01*
D10*
D11*
X21000000Y-1200000D02*
X21000000Y-1000000D01*
D10*
D11*
X26000000Y-1200000D02*
X26000000Y-1000000D01*
D10*
D11*
X3606548Y-1158810D02*
X3532262Y-1158810D01*
X3569405Y-1158810D02*
X3569405Y-1028809D01*
X3557024Y-1047381D01*
X3544643Y-1059762D01*
X3532262Y-1065952D01*
D10*
D11*
X8532262Y-1041190D02*
X8538452Y-1035000D01*
X8550833Y-1028809D01*
X8581786Y-1028809D01*
X8594167Y-1035000D01*
X8600357Y-1041190D01*
X8606548Y-1053571D01*
X8606548Y-1065952D01*
X8600357Y-1084524D01*
X8526071Y-1158810D01*
X8606548Y-1158810D01*
D10*
D11*
X13526071Y-1028809D02*
X13606548Y-1028809D01*
X13563214Y-1078333D01*
X13581786Y-1078333D01*
X13594167Y-1084524D01*
X13600357Y-1090714D01*
X13606548Y-1103095D01*
X13606548Y-1134048D01*
X13600357Y-1146429D01*
X13594167Y-1152619D01*
X13581786Y-1158810D01*
X13544643Y-1158810D01*
X13532262Y-1152619D01*
X13526071Y-1146429D01*
D10*
D11*
X18594167Y-1072143D02*
X18594167Y-1158810D01*
X18563214Y-1022619D02*
X18532262Y-1115476D01*
X18612738Y-1115476D01*
D10*
D11*
X23600357Y-1028809D02*
X23538452Y-1028809D01*
X23532262Y-1090714D01*
X23538452Y-1084524D01*
X23550833Y-1078333D01*
X23581786Y-1078333D01*
X23594167Y-1084524D01*
X23600357Y-1090714D01*
X23606548Y-1103095D01*
X23606548Y-1134048D01*
X23600357Y-1146429D01*
X23594167Y-1152619D01*
X23581786Y-1158810D01*
X23550833Y-1158810D01*
X23538452Y-1152619D01*
X23532262Y-1146429D01*
D10*
D11*
X28594167Y-1028809D02*
X28569405Y-1028809D01*
X28557024Y-1035000D01*
X28550833Y-1041190D01*
X28538452Y-1059762D01*
X28532262Y-1084524D01*
X28532262Y-1134048D01*
X28538452Y-1146429D01*
X28544643Y-1152619D01*
X28557024Y-1158810D01*
X28581786Y-1158810D01*
X28594167Y-1152619D01*
X28600357Y-1146429D01*
X28606548Y-1134048D01*
X28606548Y-1103095D01*
X28600357Y-1090714D01*
X28594167Y-1084524D01*
X28581786Y-1078333D01*
X28557024Y-1078333D01*
X28544643Y-1084524D01*
X28538452Y-1090714D01*
X28532262Y-1103095D01*
D10*
D11*
X6000000Y-19800720D02*
X6000000Y-20000720D01*
D10*
D11*
X11000000Y-19800720D02*
X11000000Y-20000720D01*
D10*
D11*
X16000000Y-19800720D02*
X16000000Y-20000720D01*
D10*
D11*
X21000000Y-19800720D02*
X21000000Y-20000720D01*
D10*
D11*
X26000000Y-19800720D02*
X26000000Y-20000720D01*
D10*
D11*
X3606548Y-19959530D02*
X3532262Y-19959530D01*
X3569405Y-19959530D02*
X3569405Y-19829530D01*
X3557024Y-19848101D01*
X3544643Y-19860482D01*
X3532262Y-19866672D01*
D10*
D11*
X8532262Y-19841910D02*
X8538452Y-19835720D01*
X8550833Y-19829530D01*
X8581786Y-19829530D01*
X8594167Y-19835720D01*
X8600357Y-19841910D01*
X8606548Y-19854291D01*
X8606548Y-19866672D01*
X8600357Y-19885244D01*
X8526071Y-19959530D01*
X8606548Y-19959530D01*
D10*
D11*
X13526071Y-19829530D02*
X13606548Y-19829530D01*
X13563214Y-19879053D01*
X13581786Y-19879053D01*
X13594167Y-19885244D01*
X13600357Y-19891434D01*
X13606548Y-19903815D01*
X13606548Y-19934768D01*
X13600357Y-19947149D01*
X13594167Y-19953339D01*
X13581786Y-19959530D01*
X13544643Y-19959530D01*
X13532262Y-19953339D01*
X13526071Y-19947149D01*
D10*
D11*
X18594167Y-19872863D02*
X18594167Y-19959530D01*
X18563214Y-19823339D02*
X18532262Y-19916196D01*
X18612738Y-19916196D01*
D10*
D11*
X23600357Y-19829530D02*
X23538452Y-19829530D01*
X23532262Y-19891434D01*
X23538452Y-19885244D01*
X23550833Y-19879053D01*
X23581786Y-19879053D01*
X23594167Y-19885244D01*
X23600357Y-19891434D01*
X23606548Y-19903815D01*
X23606548Y-19934768D01*
X23600357Y-19947149D01*
X23594167Y-19953339D01*
X23581786Y-19959530D01*
X23550833Y-19959530D01*
X23538452Y-19953339D01*
X23532262Y-19947149D01*
D10*
D11*
X28594167Y-19829530D02*
X28569405Y-19829530D01*
X28557024Y-19835720D01*
X28550833Y-19841910D01*
X28538452Y-19860482D01*
X28532262Y-19885244D01*
X28532262Y-19934768D01*
X28538452Y-19947149D01*
X28544643Y-19953339D01*
X28557024Y-19959530D01*
X28581786Y-19959530D01*
X28594167Y-19953339D01*
X28600357Y-19947149D01*
X28606548Y-19934768D01*
X28606548Y-19903815D01*
X28600357Y-19891434D01*
X28594167Y-19885244D01*
X28581786Y-19879053D01*
X28557024Y-19879053D01*
X28544643Y-19885244D01*
X28538452Y-19891434D01*
X28532262Y-19903815D01*
D10*
D11*
X1000000Y-6000000D02*
X1200000Y-6000000D01*
D10*
D11*
X1000000Y-11000000D02*
X1200000Y-11000000D01*
D10*
D11*
X1000000Y-16000000D02*
X1200000Y-16000000D01*
D10*
D11*
X1069048Y-3521667D02*
X1130952Y-3521667D01*
X1056667Y-3558809D02*
X1100000Y-3428809D01*
X1143333Y-3558809D01*
D10*
D11*
X1109286Y-8490714D02*
X1127857Y-8496905D01*
X1134048Y-8503095D01*
X1140238Y-8515476D01*
X1140238Y-8534048D01*
X1134048Y-8546429D01*
X1127857Y-8552619D01*
X1115476Y-8558810D01*
X1065952Y-8558810D01*
X1065952Y-8428810D01*
X1109286Y-8428810D01*
X1121667Y-8435000D01*
X1127857Y-8441190D01*
X1134048Y-8453571D01*
X1134048Y-8465952D01*
X1127857Y-8478333D01*
X1121667Y-8484524D01*
X1109286Y-8490714D01*
X1065952Y-8490714D01*
D10*
D11*
X1140238Y-13546428D02*
X1134048Y-13552619D01*
X1115476Y-13558809D01*
X1103095Y-13558809D01*
X1084524Y-13552619D01*
X1072143Y-13540238D01*
X1065952Y-13527857D01*
X1059762Y-13503095D01*
X1059762Y-13484524D01*
X1065952Y-13459762D01*
X1072143Y-13447381D01*
X1084524Y-13435000D01*
X1103095Y-13428809D01*
X1115476Y-13428809D01*
X1134048Y-13435000D01*
X1140238Y-13441190D01*
D10*
D11*
X1065952Y-18558810D02*
X1065952Y-18428810D01*
X1096905Y-18428810D01*
X1115476Y-18435000D01*
X1127857Y-18447381D01*
X1134048Y-18459762D01*
X1140238Y-18484524D01*
X1140238Y-18503095D01*
X1134048Y-18527857D01*
X1127857Y-18540238D01*
X1115476Y-18552619D01*
X1096905Y-18558810D01*
X1065952Y-18558810D01*
D10*
D11*
X28700220Y-6000000D02*
X28500220Y-6000000D01*
D10*
D11*
X28700220Y-11000000D02*
X28500220Y-11000000D01*
D10*
D11*
X28700220Y-16000000D02*
X28500220Y-16000000D01*
D10*
D11*
X28569268Y-3521667D02*
X28631172Y-3521667D01*
X28556887Y-3558809D02*
X28600220Y-3428809D01*
X28643553Y-3558809D01*
D10*
D11*
X28609506Y-8490714D02*
X28628077Y-8496905D01*
X28634268Y-8503095D01*
X28640458Y-8515476D01*
X28640458Y-8534048D01*
X28634268Y-8546429D01*
X28628077Y-8552619D01*
X28615696Y-8558810D01*
X28566172Y-8558810D01*
X28566172Y-8428810D01*
X28609506Y-8428810D01*
X28621887Y-8435000D01*
X28628077Y-8441190D01*
X28634268Y-8453571D01*
X28634268Y-8465952D01*
X28628077Y-8478333D01*
X28621887Y-8484524D01*
X28609506Y-8490714D01*
X28566172Y-8490714D01*
D10*
D11*
X28640458Y-13546428D02*
X28634268Y-13552619D01*
X28615696Y-13558809D01*
X28603315Y-13558809D01*
X28584744Y-13552619D01*
X28572363Y-13540238D01*
X28566172Y-13527857D01*
X28559982Y-13503095D01*
X28559982Y-13484524D01*
X28566172Y-13459762D01*
X28572363Y-13447381D01*
X28584744Y-13435000D01*
X28603315Y-13428809D01*
X28615696Y-13428809D01*
X28634268Y-13435000D01*
X28640458Y-13441190D01*
D10*
D11*
X28566172Y-18558810D02*
X28566172Y-18428810D01*
X28597125Y-18428810D01*
X28615696Y-18435000D01*
X28628077Y-18447381D01*
X28634268Y-18459762D01*
X28640458Y-18484524D01*
X28640458Y-18503095D01*
X28634268Y-18527857D01*
X28628077Y-18540238D01*
X28615696Y-18552619D01*
X28597125Y-18558810D01*
X28566172Y-18558810D01*
D10*
D11*
X20043434Y-19378577D02*
X20043434Y-19228577D01*
X20079149Y-19228577D01*
X20100577Y-19235720D01*
X20114863Y-19250006D01*
X20122006Y-19264291D01*
X20129149Y-19292863D01*
X20129149Y-19314291D01*
X20122006Y-19342863D01*
X20114863Y-19357149D01*
X20100577Y-19371434D01*
X20079149Y-19378577D01*
X20043434Y-19378577D01*
X20257720Y-19378577D02*
X20257720Y-19300006D01*
X20250577Y-19285720D01*
X20236291Y-19278577D01*
X20207720Y-19278577D01*
X20193434Y-19285720D01*
X20257720Y-19371434D02*
X20243434Y-19378577D01*
X20207720Y-19378577D01*
X20193434Y-19371434D01*
X20186291Y-19357149D01*
X20186291Y-19342863D01*
X20193434Y-19328577D01*
X20207720Y-19321434D01*
X20243434Y-19321434D01*
X20257720Y-19314291D01*
X20307720Y-19278577D02*
X20364863Y-19278577D01*
X20329149Y-19228577D02*
X20329149Y-19357149D01*
X20336291Y-19371434D01*
X20350577Y-19378577D01*
X20364863Y-19378577D01*
X20472006Y-19371434D02*
X20457720Y-19378577D01*
X20429149Y-19378577D01*
X20414863Y-19371434D01*
X20407720Y-19357149D01*
X20407720Y-19300006D01*
X20414863Y-19285720D01*
X20429149Y-19278577D01*
X20457720Y-19278577D01*
X20472006Y-19285720D01*
X20479149Y-19300006D01*
X20479149Y-19314291D01*
X20407720Y-19328577D01*
X20543434Y-19364291D02*
X20550577Y-19371434D01*
X20543434Y-19378577D01*
X20536291Y-19371434D01*
X20543434Y-19364291D01*
X20543434Y-19378577D01*
X20543434Y-19285720D02*
X20550577Y-19292863D01*
X20543434Y-19300006D01*
X20536291Y-19292863D01*
X20543434Y-19285720D01*
X20543434Y-19300006D01*
D10*
D11*
X17700220Y-19450720D02*
X28500220Y-19450720D01*
D10*
D11*
X17843434Y-19658577D02*
X17843434Y-19508577D01*
X17929149Y-19658577D02*
X17864863Y-19572863D01*
X17929149Y-19508577D02*
X17843434Y-19594291D01*
X17993434Y-19658577D02*
X17993434Y-19558577D01*
X17993434Y-19508577D02*
X17986291Y-19515720D01*
X17993434Y-19522863D01*
X18000577Y-19515720D01*
X17993434Y-19508577D01*
X17993434Y-19522863D01*
X18150577Y-19644291D02*
X18143434Y-19651434D01*
X18122006Y-19658577D01*
X18107720Y-19658577D01*
X18086291Y-19651434D01*
X18072006Y-19637149D01*
X18064863Y-19622863D01*
X18057720Y-19594291D01*
X18057720Y-19572863D01*
X18064863Y-19544291D01*
X18072006Y-19530006D01*
X18086291Y-19515720D01*
X18107720Y-19508577D01*
X18122006Y-19508577D01*
X18143434Y-19515720D01*
X18150577Y-19522863D01*
X18279149Y-19658577D02*
X18279149Y-19580006D01*
X18272006Y-19565720D01*
X18257720Y-19558577D01*
X18229149Y-19558577D01*
X18214863Y-19565720D01*
X18279149Y-19651434D02*
X18264863Y-19658577D01*
X18229149Y-19658577D01*
X18214863Y-19651434D01*
X18207720Y-19637149D01*
X18207720Y-19622863D01*
X18214863Y-19608577D01*
X18229149Y-19601434D01*
X18264863Y-19601434D01*
X18279149Y-19594291D01*
X18414863Y-19658577D02*
X18414863Y-19508577D01*
X18414863Y-19651434D02*
X18400577Y-19658577D01*
X18372006Y-19658577D01*
X18357720Y-19651434D01*
X18350577Y-19644291D01*
X18343434Y-19630006D01*
X18343434Y-19587149D01*
X18350577Y-19572863D01*
X18357720Y-19565720D01*
X18372006Y-19558577D01*
X18400577Y-19558577D01*
X18414863Y-19565720D01*
X18600577Y-19580006D02*
X18650577Y-19580006D01*
X18672006Y-19658577D02*
X18600577Y-19658577D01*
X18600577Y-19508577D01*
X18672006Y-19508577D01*
X18736291Y-19644291D02*
X18743434Y-19651434D01*
X18736291Y-19658577D01*
X18729149Y-19651434D01*
X18736291Y-19644291D01*
X18736291Y-19658577D01*
X18807720Y-19658577D02*
X18807720Y-19508577D01*
X18843434Y-19508577D01*
X18864863Y-19515720D01*
X18879149Y-19530006D01*
X18886291Y-19544291D01*
X18893434Y-19572863D01*
X18893434Y-19594291D01*
X18886291Y-19622863D01*
X18879149Y-19637149D01*
X18864863Y-19651434D01*
X18843434Y-19658577D01*
X18807720Y-19658577D01*
X18957720Y-19644291D02*
X18964863Y-19651434D01*
X18957720Y-19658577D01*
X18950577Y-19651434D01*
X18957720Y-19644291D01*
X18957720Y-19658577D01*
X19022006Y-19615720D02*
X19093434Y-19615720D01*
X19007720Y-19658577D02*
X19057720Y-19508577D01*
X19107720Y-19658577D01*
X19157720Y-19644291D02*
X19164863Y-19651434D01*
X19157720Y-19658577D01*
X19150577Y-19651434D01*
X19157720Y-19644291D01*
X19157720Y-19658577D01*
X19457720Y-19658577D02*
X19457720Y-19508577D01*
X19472006Y-19601434D02*
X19514863Y-19658577D01*
X19514863Y-19558577D02*
X19457720Y-19615720D01*
X19579149Y-19658577D02*
X19579149Y-19558577D01*
X19579149Y-19508577D02*
X19572006Y-19515720D01*
X19579149Y-19522863D01*
X19586291Y-19515720D01*
X19579149Y-19508577D01*
X19579149Y-19522863D01*
X19714863Y-19651434D02*
X19700577Y-19658577D01*
X19672006Y-19658577D01*
X19657720Y-19651434D01*
X19650577Y-19644291D01*
X19643434Y-19630006D01*
X19643434Y-19587149D01*
X19650577Y-19572863D01*
X19657720Y-19565720D01*
X19672006Y-19558577D01*
X19700577Y-19558577D01*
X19714863Y-19565720D01*
X19843434Y-19658577D02*
X19843434Y-19580006D01*
X19836291Y-19565720D01*
X19822006Y-19558577D01*
X19793434Y-19558577D01*
X19779149Y-19565720D01*
X19843434Y-19651434D02*
X19829149Y-19658577D01*
X19793434Y-19658577D01*
X19779149Y-19651434D01*
X19772006Y-19637149D01*
X19772006Y-19622863D01*
X19779149Y-19608577D01*
X19793434Y-19601434D01*
X19829149Y-19601434D01*
X19843434Y-19594291D01*
X19979149Y-19658577D02*
X19979149Y-19508577D01*
X19979149Y-19651434D02*
X19964863Y-19658577D01*
X19936291Y-19658577D01*
X19922006Y-19651434D01*
X19914863Y-19644291D01*
X19907720Y-19630006D01*
X19907720Y-19587149D01*
X19914863Y-19572863D01*
X19922006Y-19565720D01*
X19936291Y-19558577D01*
X19964863Y-19558577D01*
X19979149Y-19565720D01*
X20236291Y-19508577D02*
X20164863Y-19508577D01*
X20157720Y-19580006D01*
X20164863Y-19572863D01*
X20179149Y-19565720D01*
X20214863Y-19565720D01*
X20229149Y-19572863D01*
X20236291Y-19580006D01*
X20243434Y-19594291D01*
X20243434Y-19630006D01*
X20236291Y-19644291D01*
X20229149Y-19651434D01*
X20214863Y-19658577D01*
X20179149Y-19658577D01*
X20164863Y-19651434D01*
X20157720Y-19644291D01*
X20307720Y-19644291D02*
X20314863Y-19651434D01*
X20307720Y-19658577D01*
X20300577Y-19651434D01*
X20307720Y-19644291D01*
X20307720Y-19658577D01*
X20457720Y-19658577D02*
X20372006Y-19658577D01*
X20414863Y-19658577D02*
X20414863Y-19508577D01*
X20400577Y-19530006D01*
X20386291Y-19544291D01*
X20372006Y-19551434D01*
X20522006Y-19644291D02*
X20529149Y-19651434D01*
X20522006Y-19658577D01*
X20514863Y-19651434D01*
X20522006Y-19644291D01*
X20522006Y-19658577D01*
X20579149Y-19508577D02*
X20672006Y-19508577D01*
X20622006Y-19565720D01*
X20643434Y-19565720D01*
X20657720Y-19572863D01*
X20664863Y-19580006D01*
X20672006Y-19594291D01*
X20672006Y-19630006D01*
X20664863Y-19644291D01*
X20657720Y-19651434D01*
X20643434Y-19658577D01*
X20600577Y-19658577D01*
X20586291Y-19651434D01*
X20579149Y-19644291D01*
X20736291Y-19601434D02*
X20850577Y-19601434D01*
X20900577Y-19558577D02*
X20957720Y-19558577D01*
X20922006Y-19658577D02*
X20922006Y-19530006D01*
X20929149Y-19515720D01*
X20943434Y-19508577D01*
X20957720Y-19508577D01*
X20986291Y-19558577D02*
X21043434Y-19558577D01*
X21007720Y-19658577D02*
X21007720Y-19530006D01*
X21014863Y-19515720D01*
X21029149Y-19508577D01*
X21043434Y-19508577D01*
X21093434Y-19658577D02*
X21093434Y-19508577D01*
X21093434Y-19565720D02*
X21107720Y-19558577D01*
X21136291Y-19558577D01*
X21150577Y-19565720D01*
X21157720Y-19572863D01*
X21164863Y-19587149D01*
X21164863Y-19630006D01*
X21157720Y-19644291D01*
X21150577Y-19651434D01*
X21136291Y-19658577D01*
X21107720Y-19658577D01*
X21093434Y-19651434D01*
X21236291Y-19658577D02*
X21264863Y-19658577D01*
X21279149Y-19651434D01*
X21286291Y-19644291D01*
X21300577Y-19622863D01*
X21307720Y-19594291D01*
X21307720Y-19537149D01*
X21300577Y-19522863D01*
X21293434Y-19515720D01*
X21279149Y-19508577D01*
X21250577Y-19508577D01*
X21236291Y-19515720D01*
X21229149Y-19522863D01*
X21222006Y-19537149D01*
X21222006Y-19572863D01*
X21229149Y-19587149D01*
X21236291Y-19594291D01*
X21250577Y-19601434D01*
X21279149Y-19601434D01*
X21293434Y-19594291D01*
X21300577Y-19587149D01*
X21307720Y-19572863D01*
X21350577Y-19558577D02*
X21407720Y-19558577D01*
X21372006Y-19658577D02*
X21372006Y-19530006D01*
X21379149Y-19515720D01*
X21393434Y-19508577D01*
X21407720Y-19508577D01*
X21450577Y-19522863D02*
X21457720Y-19515720D01*
X21472006Y-19508577D01*
X21507720Y-19508577D01*
X21522006Y-19515720D01*
X21529149Y-19522863D01*
X21536291Y-19537149D01*
X21536291Y-19551434D01*
X21529149Y-19572863D01*
X21443434Y-19658577D01*
X21536291Y-19658577D01*
X21593434Y-19522863D02*
X21600577Y-19515720D01*
X21614863Y-19508577D01*
X21650577Y-19508577D01*
X21664863Y-19515720D01*
X21672006Y-19522863D01*
X21679149Y-19537149D01*
X21679149Y-19551434D01*
X21672006Y-19572863D01*
X21586291Y-19658577D01*
X21679149Y-19658577D01*
X21707720Y-19467720D02*
X21850577Y-19467720D01*
X21764863Y-19572863D02*
X21750577Y-19565720D01*
X21743434Y-19558577D01*
X21736291Y-19544291D01*
X21736291Y-19537149D01*
X21743434Y-19522863D01*
X21750577Y-19515720D01*
X21764863Y-19508577D01*
X21793434Y-19508577D01*
X21807720Y-19515720D01*
X21814863Y-19522863D01*
X21822006Y-19537149D01*
X21822006Y-19544291D01*
X21814863Y-19558577D01*
X21807720Y-19565720D01*
X21793434Y-19572863D01*
X21764863Y-19572863D01*
X21750577Y-19580006D01*
X21743434Y-19587149D01*
X21736291Y-19601434D01*
X21736291Y-19630006D01*
X21743434Y-19644291D01*
X21750577Y-19651434D01*
X21764863Y-19658577D01*
X21793434Y-19658577D01*
X21807720Y-19651434D01*
X21814863Y-19644291D01*
X21822006Y-19630006D01*
X21822006Y-19601434D01*
X21814863Y-19587149D01*
X21807720Y-19580006D01*
X21793434Y-19572863D01*
X21850577Y-19467720D02*
X21993434Y-19467720D01*
X21950577Y-19558577D02*
X21950577Y-19658577D01*
X21914863Y-19501434D02*
X21879149Y-19608577D01*
X21972006Y-19608577D01*
X22093434Y-19558577D02*
X22093434Y-19658577D01*
X22029149Y-19558577D02*
X22029149Y-19637149D01*
X22036291Y-19651434D01*
X22050577Y-19658577D01*
X22072006Y-19658577D01*
X22086291Y-19651434D01*
X22093434Y-19644291D01*
X22164863Y-19658577D02*
X22164863Y-19508577D01*
X22164863Y-19565720D02*
X22179149Y-19558577D01*
X22207720Y-19558577D01*
X22222006Y-19565720D01*
X22229149Y-19572863D01*
X22236291Y-19587149D01*
X22236291Y-19630006D01*
X22229149Y-19644291D01*
X22222006Y-19651434D01*
X22207720Y-19658577D01*
X22179149Y-19658577D01*
X22164863Y-19651434D01*
X22364863Y-19558577D02*
X22364863Y-19658577D01*
X22300577Y-19558577D02*
X22300577Y-19637149D01*
X22307720Y-19651434D01*
X22322006Y-19658577D01*
X22343434Y-19658577D01*
X22357720Y-19651434D01*
X22364863Y-19644291D01*
X22436291Y-19558577D02*
X22436291Y-19658577D01*
X22436291Y-19572863D02*
X22443434Y-19565720D01*
X22457720Y-19558577D01*
X22479148Y-19558577D01*
X22493434Y-19565720D01*
X22500577Y-19580006D01*
X22500577Y-19658577D01*
X22550577Y-19558577D02*
X22607720Y-19558577D01*
X22572006Y-19508577D02*
X22572006Y-19637149D01*
X22579148Y-19651434D01*
X22593434Y-19658577D01*
X22607720Y-19658577D01*
X22722006Y-19558577D02*
X22722006Y-19658577D01*
X22657720Y-19558577D02*
X22657720Y-19637149D01*
X22664863Y-19651434D01*
X22679148Y-19658577D01*
X22700577Y-19658577D01*
X22714863Y-19651434D01*
X22722006Y-19644291D01*
X22872006Y-19658577D02*
X22786291Y-19658577D01*
X22829148Y-19658577D02*
X22829148Y-19508577D01*
X22814863Y-19530006D01*
X22800577Y-19544291D01*
X22786291Y-19551434D01*
X22957720Y-19572863D02*
X22943434Y-19565720D01*
X22936291Y-19558577D01*
X22929148Y-19544291D01*
X22929148Y-19537149D01*
X22936291Y-19522863D01*
X22943434Y-19515720D01*
X22957720Y-19508577D01*
X22986291Y-19508577D01*
X23000577Y-19515720D01*
X23007720Y-19522863D01*
X23014863Y-19537149D01*
X23014863Y-19544291D01*
X23007720Y-19558577D01*
X23000577Y-19565720D01*
X22986291Y-19572863D01*
X22957720Y-19572863D01*
X22943434Y-19580006D01*
X22936291Y-19587149D01*
X22929148Y-19601434D01*
X22929148Y-19630006D01*
X22936291Y-19644291D01*
X22943434Y-19651434D01*
X22957720Y-19658577D01*
X22986291Y-19658577D01*
X23000577Y-19651434D01*
X23007720Y-19644291D01*
X23014863Y-19630006D01*
X23014863Y-19601434D01*
X23007720Y-19587149D01*
X23000577Y-19580006D01*
X22986291Y-19572863D01*
X23079148Y-19644291D02*
X23086291Y-19651434D01*
X23079148Y-19658577D01*
X23072006Y-19651434D01*
X23079148Y-19644291D01*
X23079148Y-19658577D01*
X23179148Y-19508577D02*
X23193434Y-19508577D01*
X23207720Y-19515720D01*
X23214863Y-19522863D01*
X23222006Y-19537149D01*
X23229148Y-19565720D01*
X23229148Y-19601434D01*
X23222006Y-19630006D01*
X23214863Y-19644291D01*
X23207720Y-19651434D01*
X23193434Y-19658577D01*
X23179148Y-19658577D01*
X23164863Y-19651434D01*
X23157720Y-19644291D01*
X23150577Y-19630006D01*
X23143434Y-19601434D01*
X23143434Y-19565720D01*
X23150577Y-19537149D01*
X23157720Y-19522863D01*
X23164863Y-19515720D01*
X23179148Y-19508577D01*
X23357720Y-19558577D02*
X23357720Y-19658577D01*
X23322006Y-19501434D02*
X23286291Y-19608577D01*
X23379148Y-19608577D01*
X23436291Y-19644291D02*
X23443434Y-19651434D01*
X23436291Y-19658577D01*
X23429148Y-19651434D01*
X23436291Y-19644291D01*
X23436291Y-19658577D01*
X23586291Y-19658577D02*
X23500577Y-19658577D01*
X23543434Y-19658577D02*
X23543434Y-19508577D01*
X23529148Y-19530006D01*
X23514863Y-19544291D01*
X23500577Y-19551434D01*
D10*
D11*
X17700220Y-19150720D02*
X28500220Y-19150720D01*
D10*
D12*
X26441148Y-19378577D02*
X26391148Y-19307149D01*
X26355434Y-19378577D02*
X26355434Y-19228577D01*
X26412577Y-19228577D01*
X26426863Y-19235720D01*
X26434006Y-19242863D01*
X26441148Y-19257149D01*
X26441148Y-19278577D01*
X26434006Y-19292863D01*
X26426863Y-19300006D01*
X26412577Y-19307149D01*
X26355434Y-19307149D01*
X26562577Y-19371434D02*
X26548291Y-19378577D01*
X26519720Y-19378577D01*
X26505434Y-19371434D01*
X26498291Y-19357149D01*
X26498291Y-19300006D01*
X26505434Y-19285720D01*
X26519720Y-19278577D01*
X26548291Y-19278577D01*
X26562577Y-19285720D01*
X26569720Y-19300006D01*
X26569720Y-19314291D01*
X26498291Y-19328577D01*
X26619720Y-19278577D02*
X26655434Y-19378577D01*
X26691148Y-19278577D01*
X26748291Y-19364291D02*
X26755434Y-19371434D01*
X26748291Y-19378577D01*
X26741148Y-19371434D01*
X26748291Y-19364291D01*
X26748291Y-19378577D01*
X26748291Y-19285720D02*
X26755434Y-19292863D01*
X26748291Y-19300006D01*
X26741148Y-19292863D01*
X26748291Y-19285720D01*
X26748291Y-19300006D01*
D10*
D11*
X17836291Y-19371434D02*
X17857720Y-19378577D01*
X17893434Y-19378577D01*
X17907720Y-19371434D01*
X17914863Y-19364291D01*
X17922006Y-19350006D01*
X17922006Y-19335720D01*
X17914863Y-19321434D01*
X17907720Y-19314291D01*
X17893434Y-19307149D01*
X17864863Y-19300006D01*
X17850577Y-19292863D01*
X17843434Y-19285720D01*
X17836291Y-19271434D01*
X17836291Y-19257149D01*
X17843434Y-19242863D01*
X17850577Y-19235720D01*
X17864863Y-19228577D01*
X17900577Y-19228577D01*
X17922006Y-19235720D01*
X17986291Y-19378577D02*
X17986291Y-19278577D01*
X17986291Y-19228577D02*
X17979149Y-19235720D01*
X17986291Y-19242863D01*
X17993434Y-19235720D01*
X17986291Y-19228577D01*
X17986291Y-19242863D01*
X18043434Y-19278577D02*
X18122006Y-19278577D01*
X18043434Y-19378577D01*
X18122006Y-19378577D01*
X18236291Y-19371434D02*
X18222006Y-19378577D01*
X18193434Y-19378577D01*
X18179149Y-19371434D01*
X18172006Y-19357149D01*
X18172006Y-19300006D01*
X18179149Y-19285720D01*
X18193434Y-19278577D01*
X18222006Y-19278577D01*
X18236291Y-19285720D01*
X18243434Y-19300006D01*
X18243434Y-19314291D01*
X18172006Y-19328577D01*
X18307720Y-19364291D02*
X18314863Y-19371434D01*
X18307720Y-19378577D01*
X18300577Y-19371434D01*
X18307720Y-19364291D01*
X18307720Y-19378577D01*
X18307720Y-19285720D02*
X18314863Y-19292863D01*
X18307720Y-19300006D01*
X18300577Y-19292863D01*
X18307720Y-19285720D01*
X18307720Y-19300006D01*
X18486291Y-19335720D02*
X18557720Y-19335720D01*
X18472006Y-19378577D02*
X18522006Y-19228577D01*
X18572006Y-19378577D01*
X18686291Y-19278577D02*
X18686291Y-19378577D01*
X18650577Y-19221434D02*
X18614863Y-19328577D01*
X18707720Y-19328577D01*
D10*
D11*
X26343434Y-19658577D02*
X26343434Y-19508577D01*
X26479148Y-19658577D02*
X26479148Y-19508577D01*
X26479148Y-19651434D02*
X26464863Y-19658577D01*
X26436291Y-19658577D01*
X26422006Y-19651434D01*
X26414863Y-19644291D01*
X26407720Y-19630006D01*
X26407720Y-19587149D01*
X26414863Y-19572863D01*
X26422006Y-19565720D01*
X26436291Y-19558577D01*
X26464863Y-19558577D01*
X26479148Y-19565720D01*
X26550577Y-19644291D02*
X26557720Y-19651434D01*
X26550577Y-19658577D01*
X26543434Y-19651434D01*
X26550577Y-19644291D01*
X26550577Y-19658577D01*
X26550577Y-19565720D02*
X26557720Y-19572863D01*
X26550577Y-19580006D01*
X26543434Y-19572863D01*
X26550577Y-19565720D01*
X26550577Y-19580006D01*
X26814863Y-19658577D02*
X26729148Y-19658577D01*
X26772006Y-19658577D02*
X26772006Y-19508577D01*
X26757720Y-19530006D01*
X26743434Y-19544291D01*
X26729148Y-19551434D01*
X26986291Y-19501434D02*
X26857720Y-19694291D01*
X27114863Y-19658577D02*
X27029148Y-19658577D01*
X27072006Y-19658577D02*
X27072006Y-19508577D01*
X27057720Y-19530006D01*
X27043434Y-19544291D01*
X27029148Y-19551434D01*
D10*
D11*
X17700220Y-18750720D02*
X28500220Y-18750720D01*
D10*
D13*
X17871458Y-18821196D02*
X17985744Y-18821196D01*
X17903601Y-19021196D02*
X17928601Y-18821196D01*
X18027410Y-19021196D02*
X18044077Y-18887863D01*
X18052410Y-18821196D02*
X18041696Y-18830720D01*
X18050030Y-18840244D01*
X18060744Y-18830720D01*
X18052410Y-18821196D01*
X18050030Y-18840244D01*
X18110744Y-18887863D02*
X18186934Y-18887863D01*
X18147649Y-18821196D02*
X18126220Y-18992625D01*
X18133363Y-19011672D01*
X18151220Y-19021196D01*
X18170268Y-19021196D01*
X18265506Y-19021196D02*
X18247649Y-19011672D01*
X18240506Y-18992625D01*
X18261934Y-18821196D01*
X18419077Y-19011672D02*
X18398839Y-19021196D01*
X18360744Y-19021196D01*
X18342887Y-19011672D01*
X18335744Y-18992625D01*
X18345268Y-18916434D01*
X18357172Y-18897387D01*
X18377410Y-18887863D01*
X18415506Y-18887863D01*
X18433363Y-18897387D01*
X18440506Y-18916434D01*
X18438125Y-18935482D01*
X18340506Y-18954530D01*
X18515506Y-19002149D02*
X18523839Y-19011672D01*
X18513125Y-19021196D01*
X18504791Y-19011672D01*
X18515506Y-19002149D01*
X18513125Y-19021196D01*
X18528601Y-18897387D02*
X18536934Y-18906910D01*
X18526220Y-18916434D01*
X18517887Y-18906910D01*
X18528601Y-18897387D01*
X18526220Y-18916434D01*
D10*
D11*
X17893434Y-18560006D02*
X17843434Y-18560006D01*
X17843434Y-18638577D02*
X17843434Y-18488577D01*
X17914863Y-18488577D01*
X17972006Y-18638577D02*
X17972006Y-18538577D01*
X17972006Y-18488577D02*
X17964863Y-18495720D01*
X17972006Y-18502863D01*
X17979149Y-18495720D01*
X17972006Y-18488577D01*
X17972006Y-18502863D01*
X18064863Y-18638577D02*
X18050577Y-18631434D01*
X18043434Y-18617149D01*
X18043434Y-18488577D01*
X18179149Y-18631434D02*
X18164863Y-18638577D01*
X18136291Y-18638577D01*
X18122006Y-18631434D01*
X18114863Y-18617149D01*
X18114863Y-18560006D01*
X18122006Y-18545720D01*
X18136291Y-18538577D01*
X18164863Y-18538577D01*
X18179149Y-18545720D01*
X18186291Y-18560006D01*
X18186291Y-18574291D01*
X18114863Y-18588577D01*
X18250577Y-18624291D02*
X18257720Y-18631434D01*
X18250577Y-18638577D01*
X18243434Y-18631434D01*
X18250577Y-18624291D01*
X18250577Y-18638577D01*
X18250577Y-18545720D02*
X18257720Y-18552863D01*
X18250577Y-18560006D01*
X18243434Y-18552863D01*
X18250577Y-18545720D01*
X18250577Y-18560006D01*
X18436291Y-18638577D02*
X18436291Y-18488577D01*
X18436291Y-18545720D02*
X18450577Y-18538577D01*
X18479149Y-18538577D01*
X18493434Y-18545720D01*
X18500577Y-18552863D01*
X18507720Y-18567149D01*
X18507720Y-18610006D01*
X18500577Y-18624291D01*
X18493434Y-18631434D01*
X18479149Y-18638577D01*
X18450577Y-18638577D01*
X18436291Y-18631434D01*
X18593434Y-18638577D02*
X18579149Y-18631434D01*
X18572006Y-18617149D01*
X18572006Y-18488577D01*
X18714863Y-18538577D02*
X18714863Y-18638577D01*
X18650577Y-18538577D02*
X18650577Y-18617149D01*
X18657720Y-18631434D01*
X18672006Y-18638577D01*
X18693434Y-18638577D01*
X18707720Y-18631434D01*
X18714863Y-18624291D01*
X18843434Y-18631434D02*
X18829149Y-18638577D01*
X18800577Y-18638577D01*
X18786291Y-18631434D01*
X18779149Y-18617149D01*
X18779149Y-18560006D01*
X18786291Y-18545720D01*
X18800577Y-18538577D01*
X18829149Y-18538577D01*
X18843434Y-18545720D01*
X18850577Y-18560006D01*
X18850577Y-18574291D01*
X18779149Y-18588577D01*
X18893434Y-18538577D02*
X18950577Y-18538577D01*
X18914863Y-18488577D02*
X18914863Y-18617149D01*
X18922006Y-18631434D01*
X18936291Y-18638577D01*
X18950577Y-18638577D01*
X19022006Y-18638577D02*
X19007720Y-18631434D01*
X19000577Y-18624291D01*
X18993434Y-18610006D01*
X18993434Y-18567149D01*
X19000577Y-18552863D01*
X19007720Y-18545720D01*
X19022006Y-18538577D01*
X19043434Y-18538577D01*
X19057720Y-18545720D01*
X19064863Y-18552863D01*
X19072006Y-18567149D01*
X19072006Y-18610006D01*
X19064863Y-18624291D01*
X19057720Y-18631434D01*
X19043434Y-18638577D01*
X19022006Y-18638577D01*
X19157720Y-18638577D02*
X19143434Y-18631434D01*
X19136291Y-18624291D01*
X19129149Y-18610006D01*
X19129149Y-18567149D01*
X19136291Y-18552863D01*
X19143434Y-18545720D01*
X19157720Y-18538577D01*
X19179149Y-18538577D01*
X19193434Y-18545720D01*
X19200577Y-18552863D01*
X19207720Y-18567149D01*
X19207720Y-18610006D01*
X19200577Y-18624291D01*
X19193434Y-18631434D01*
X19179149Y-18638577D01*
X19157720Y-18638577D01*
X19250577Y-18538577D02*
X19307720Y-18538577D01*
X19272006Y-18488577D02*
X19272006Y-18617149D01*
X19279149Y-18631434D01*
X19293434Y-18638577D01*
X19307720Y-18638577D01*
X19357720Y-18638577D02*
X19357720Y-18488577D01*
X19422006Y-18638577D02*
X19422006Y-18560006D01*
X19414863Y-18545720D01*
X19400577Y-18538577D01*
X19379149Y-18538577D01*
X19364863Y-18545720D01*
X19357720Y-18552863D01*
X19493434Y-18624291D02*
X19500577Y-18631434D01*
X19493434Y-18638577D01*
X19486291Y-18631434D01*
X19493434Y-18624291D01*
X19493434Y-18638577D01*
X19564863Y-18638577D02*
X19564863Y-18488577D01*
X19579149Y-18581434D02*
X19622006Y-18638577D01*
X19622006Y-18538577D02*
X19564863Y-18595720D01*
X19686291Y-18638577D02*
X19686291Y-18538577D01*
X19686291Y-18488577D02*
X19679149Y-18495720D01*
X19686291Y-18502863D01*
X19693434Y-18495720D01*
X19686291Y-18488577D01*
X19686291Y-18502863D01*
X19822006Y-18631434D02*
X19807720Y-18638577D01*
X19779149Y-18638577D01*
X19764863Y-18631434D01*
X19757720Y-18624291D01*
X19750577Y-18610006D01*
X19750577Y-18567149D01*
X19757720Y-18552863D01*
X19764863Y-18545720D01*
X19779149Y-18538577D01*
X19807720Y-18538577D01*
X19822006Y-18545720D01*
X19950577Y-18638577D02*
X19950577Y-18560006D01*
X19943434Y-18545720D01*
X19929149Y-18538577D01*
X19900577Y-18538577D01*
X19886291Y-18545720D01*
X19950577Y-18631434D02*
X19936291Y-18638577D01*
X19900577Y-18638577D01*
X19886291Y-18631434D01*
X19879149Y-18617149D01*
X19879149Y-18602863D01*
X19886291Y-18588577D01*
X19900577Y-18581434D01*
X19936291Y-18581434D01*
X19950577Y-18574291D01*
X20086291Y-18638577D02*
X20086291Y-18488577D01*
X20086291Y-18631434D02*
X20072006Y-18638577D01*
X20043434Y-18638577D01*
X20029149Y-18631434D01*
X20022006Y-18624291D01*
X20014863Y-18610006D01*
X20014863Y-18567149D01*
X20022006Y-18552863D01*
X20029149Y-18545720D01*
X20043434Y-18538577D01*
X20072006Y-18538577D01*
X20086291Y-18545720D01*
X20122006Y-18652863D02*
X20236291Y-18652863D01*
X20272006Y-18538577D02*
X20272006Y-18688577D01*
X20272006Y-18545720D02*
X20286291Y-18538577D01*
X20314863Y-18538577D01*
X20329149Y-18545720D01*
X20336291Y-18552863D01*
X20343434Y-18567149D01*
X20343434Y-18610006D01*
X20336291Y-18624291D01*
X20329149Y-18631434D01*
X20314863Y-18638577D01*
X20286291Y-18638577D01*
X20272006Y-18631434D01*
X20472006Y-18631434D02*
X20457720Y-18638577D01*
X20429149Y-18638577D01*
X20414863Y-18631434D01*
X20407720Y-18624291D01*
X20400577Y-18610006D01*
X20400577Y-18567149D01*
X20407720Y-18552863D01*
X20414863Y-18545720D01*
X20429149Y-18538577D01*
X20457720Y-18538577D01*
X20472006Y-18545720D01*
X20536291Y-18638577D02*
X20536291Y-18488577D01*
X20536291Y-18545720D02*
X20550577Y-18538577D01*
X20579149Y-18538577D01*
X20593434Y-18545720D01*
X20600577Y-18552863D01*
X20607720Y-18567149D01*
X20607720Y-18610006D01*
X20600577Y-18624291D01*
X20593434Y-18631434D01*
X20579149Y-18638577D01*
X20550577Y-18638577D01*
X20536291Y-18631434D01*
D10*
D11*
X17700220Y-18150720D02*
X28500220Y-18150720D01*
D10*
D11*
X17836291Y-18361434D02*
X17857720Y-18368577D01*
X17893434Y-18368577D01*
X17907720Y-18361434D01*
X17914863Y-18354291D01*
X17922006Y-18340006D01*
X17922006Y-18325720D01*
X17914863Y-18311434D01*
X17907720Y-18304291D01*
X17893434Y-18297149D01*
X17864863Y-18290006D01*
X17850577Y-18282863D01*
X17843434Y-18275720D01*
X17836291Y-18261434D01*
X17836291Y-18247149D01*
X17843434Y-18232863D01*
X17850577Y-18225720D01*
X17864863Y-18218577D01*
X17900577Y-18218577D01*
X17922006Y-18225720D01*
X17986291Y-18368577D02*
X17986291Y-18218577D01*
X18050577Y-18368577D02*
X18050577Y-18290006D01*
X18043434Y-18275720D01*
X18029149Y-18268577D01*
X18007720Y-18268577D01*
X17993434Y-18275720D01*
X17986291Y-18282863D01*
X18179149Y-18361434D02*
X18164863Y-18368577D01*
X18136291Y-18368577D01*
X18122006Y-18361434D01*
X18114863Y-18347149D01*
X18114863Y-18290006D01*
X18122006Y-18275720D01*
X18136291Y-18268577D01*
X18164863Y-18268577D01*
X18179149Y-18275720D01*
X18186291Y-18290006D01*
X18186291Y-18304291D01*
X18114863Y-18318577D01*
X18307720Y-18361434D02*
X18293434Y-18368577D01*
X18264863Y-18368577D01*
X18250577Y-18361434D01*
X18243434Y-18347149D01*
X18243434Y-18290006D01*
X18250577Y-18275720D01*
X18264863Y-18268577D01*
X18293434Y-18268577D01*
X18307720Y-18275720D01*
X18314863Y-18290006D01*
X18314863Y-18304291D01*
X18243434Y-18318577D01*
X18357720Y-18268577D02*
X18414863Y-18268577D01*
X18379149Y-18218577D02*
X18379149Y-18347149D01*
X18386291Y-18361434D01*
X18400577Y-18368577D01*
X18414863Y-18368577D01*
X18464863Y-18354291D02*
X18472006Y-18361434D01*
X18464863Y-18368577D01*
X18457720Y-18361434D01*
X18464863Y-18354291D01*
X18464863Y-18368577D01*
X18464863Y-18275720D02*
X18472006Y-18282863D01*
X18464863Y-18290006D01*
X18457720Y-18282863D01*
X18464863Y-18275720D01*
X18464863Y-18290006D01*
D10*
D11*
X19700220Y-19150720D02*
X19700220Y-19450720D01*
D10*
D11*
X26100220Y-19150720D02*
X26100220Y-19800720D01*
D14*
X14179021Y-10094773D02*
X14128221Y-10094773D01*
X14128221Y-10094773D02*
X14128221Y-10196373D01*
D10*
X14598137Y-10173089D02*
X14598137Y-10118089D01*
X14563137Y-10055589D02*
X14633137Y-10055589D01*
D14*
X14179021Y-10196373D02*
X14179021Y-10094773D01*
X14227330Y-10318311D02*
X14227330Y-10369111D01*
D10*
X14570637Y-10145589D02*
X14625637Y-10145589D01*
X14368114Y-10378727D02*
X14368114Y-10308727D01*
X14188114Y-10308727D02*
X14368114Y-10308727D01*
X14277537Y-10235589D02*
X14277537Y-10055589D01*
D14*
X13391176Y-9788876D02*
X13494027Y-9911449D01*
D10*
X14133894Y-10695347D02*
X14203893Y-10695347D01*
D14*
X13296397Y-10356244D02*
X13296397Y-10270242D01*
X13136390Y-10356244D02*
X13296397Y-10356244D01*
D10*
X14188637Y-10235589D02*
X14188637Y-10055589D01*
X14278114Y-10371227D02*
X14278114Y-10316227D01*
X14207537Y-10235589D02*
X14277537Y-10235589D01*
D14*
X13571234Y-10197158D02*
X13571234Y-10037151D01*
X13476234Y-10197158D02*
X13571234Y-10197158D01*
X14051793Y-10907347D02*
X14051793Y-10303347D01*
X13447794Y-10907347D02*
X14051793Y-10907347D01*
D10*
X13333893Y-10363247D02*
X13333893Y-10263247D01*
X13361716Y-9764648D02*
X13438320Y-9700370D01*
X14126137Y-10145589D02*
X14181137Y-10145589D01*
X12913033Y-10909587D02*
X12913033Y-10839587D01*
X14188114Y-10378727D02*
X14368114Y-10378727D01*
X14278114Y-10460127D02*
X14278114Y-10405127D01*
D14*
X13476234Y-10037151D02*
X13476234Y-10197158D01*
X13617730Y-9922071D02*
X13617730Y-9972871D01*
X13719330Y-9922071D02*
X13617730Y-9922071D01*
D10*
X12975533Y-10874587D02*
X13030533Y-10874587D01*
X14207537Y-10055589D02*
X14277537Y-10055589D01*
D14*
X12952217Y-10900004D02*
X13053817Y-10900004D01*
X13053817Y-10900004D02*
X13053817Y-10849204D01*
X14572753Y-10094806D02*
X14572753Y-10196406D01*
X14623553Y-10196406D02*
X14623553Y-10094806D01*
D10*
X13389289Y-9887813D02*
X13424642Y-9929945D01*
X13385899Y-9926556D02*
X13428032Y-9891202D01*
X13478733Y-10117151D02*
X13568733Y-10117151D01*
X13523734Y-10162151D02*
X13523734Y-10072151D01*
X13375313Y-11049287D02*
X13555313Y-11049287D01*
X13375313Y-10979287D02*
X13555313Y-10979287D01*
X13216394Y-10444887D02*
X13216394Y-10389887D01*
D14*
X14227297Y-10458044D02*
X14328897Y-10458044D01*
X14227297Y-10407244D02*
X14227297Y-10458044D01*
X14328897Y-10407244D02*
X14227297Y-10407244D01*
D10*
X13117773Y-10559627D02*
X13172774Y-10559627D01*
X13145274Y-10587127D02*
X13145274Y-10532127D01*
X13473733Y-9999651D02*
X13573733Y-9999651D01*
X13473733Y-10234651D02*
X13573733Y-10234651D01*
X13573733Y-10234651D02*
X13573733Y-9999651D01*
X13473733Y-10234651D02*
X13473733Y-9999651D01*
X12948034Y-10483447D02*
G75*
G02X12928034Y-10503447I-20000J0D01*
G01*
X13078034Y-10503447D02*
G75*
G02X13058034Y-10483447I0J20000D01*
G01*
X13438320Y-9700370D02*
X13589375Y-9880390D01*
X13512771Y-9944669D02*
X13589375Y-9880390D01*
X14118637Y-10055589D02*
X14188637Y-10055589D01*
X14118637Y-10235589D02*
X14118637Y-10055589D01*
D14*
X14525318Y-10060603D02*
X14315323Y-10060603D01*
D10*
X14168894Y-10632847D02*
X14168894Y-10577847D01*
X13003034Y-10902087D02*
X13003034Y-10847087D01*
D14*
X14315323Y-10230608D02*
X14525318Y-10230608D01*
X14315323Y-10060603D02*
X14315323Y-10230608D01*
D10*
X13098894Y-10363247D02*
X13333893Y-10363247D01*
X14133894Y-10695347D02*
X14133894Y-10515347D01*
X14207537Y-10235589D02*
X14207537Y-10055589D01*
X13110274Y-10649627D02*
X13110274Y-10469627D01*
X13446620Y-9788047D02*
X13504471Y-9856991D01*
X13093033Y-10909587D02*
X13093033Y-10839587D01*
D14*
X14328930Y-10369111D02*
X14328930Y-10318311D01*
X14227330Y-10369111D02*
X14328930Y-10369111D01*
X14328897Y-10458044D02*
X14328897Y-10407244D01*
D10*
X13699794Y-10605347D02*
X13799793Y-10605347D01*
D14*
X12943033Y-10763447D02*
X13063033Y-10763447D01*
X12943033Y-10523447D02*
X12943033Y-10763447D01*
X14572753Y-10196406D02*
X14623553Y-10196406D01*
D10*
X13438005Y-10000321D02*
X13491628Y-9955325D01*
X13375926Y-9817438D02*
X13491628Y-9955325D01*
X13322303Y-9862432D02*
X13438005Y-10000321D01*
X13441073Y-9851445D02*
X13510017Y-9793594D01*
X13361716Y-9764648D02*
X13512771Y-9944669D01*
D14*
X14267921Y-10094773D02*
X14217121Y-10094773D01*
D10*
X13110274Y-10649627D02*
X13180273Y-10649627D01*
X13180273Y-10649627D02*
X13180273Y-10469627D01*
X12913033Y-10839587D02*
X13093033Y-10839587D01*
D14*
X13267177Y-10442804D02*
X13267177Y-10392004D01*
X13165577Y-10442804D02*
X13267177Y-10442804D01*
X13165577Y-10392004D02*
X13165577Y-10442804D01*
X13267177Y-10392004D02*
X13165577Y-10392004D01*
X14194310Y-10554564D02*
X14143510Y-10554564D01*
X14194310Y-10656164D02*
X14194310Y-10554564D01*
X13136390Y-10270242D02*
X13136390Y-10356244D01*
X13296397Y-10270242D02*
X13136390Y-10270242D01*
X13351865Y-9889860D02*
X13416148Y-9966470D01*
X13571234Y-10037151D02*
X13476234Y-10037151D01*
D10*
X13126393Y-10452387D02*
X13306393Y-10452387D01*
X13126393Y-10382387D02*
X13306393Y-10382387D01*
D14*
X14328930Y-10318311D02*
X14227330Y-10318311D01*
X13063033Y-10523447D02*
X12943033Y-10523447D01*
X14525318Y-10230608D02*
X14525318Y-10060603D01*
X13170690Y-10508844D02*
X13119890Y-10508844D01*
X13719330Y-9972871D02*
X13719330Y-9922071D01*
X13617730Y-9972871D02*
X13719330Y-9972871D01*
D10*
X14133894Y-10515347D02*
X14203893Y-10515347D01*
X14250614Y-10343727D02*
X14305614Y-10343727D01*
X14188114Y-10378727D02*
X14188114Y-10308727D01*
X14563137Y-10235589D02*
X14633137Y-10235589D01*
X14188113Y-10467627D02*
X14368113Y-10467627D01*
X14188113Y-10397627D02*
X14368113Y-10397627D01*
X13465314Y-11041787D02*
X13465314Y-10986787D01*
D14*
X13462112Y-9927902D02*
X13397828Y-9851292D01*
X13416148Y-9966470D02*
X13462112Y-9927902D01*
X14143510Y-10656164D02*
X14194310Y-10656164D01*
X14143510Y-10554564D02*
X14143510Y-10656164D01*
X14217121Y-10196373D02*
X14267921Y-10196373D01*
X14217121Y-10094773D02*
X14217121Y-10196373D01*
X13053817Y-10849204D02*
X12952217Y-10849204D01*
D10*
X12913033Y-10909587D02*
X13093033Y-10909587D01*
X13058033Y-10803447D02*
G75*
G02X13078033Y-10783447I20000J0D01*
G01*
X12928033Y-10783447D02*
G75*
G02X12948033Y-10803447I0J-20000D01*
G01*
X14203893Y-10695347D02*
X14203893Y-10515347D01*
D14*
X13078052Y-10803463D02*
X13078052Y-10483464D01*
X12928058Y-10803463D02*
X13078052Y-10803463D01*
X13457058Y-9733594D02*
X13391176Y-9788876D01*
X14350337Y-10080589D02*
X14350337Y-10210589D01*
X14490337Y-10080589D02*
X14350337Y-10080589D01*
X14490337Y-10210589D02*
X14490337Y-10080589D01*
X14051793Y-10303347D02*
X13447794Y-10303347D01*
D10*
X14633137Y-10235589D02*
X14633137Y-10055589D01*
X13389793Y-10245347D02*
X14109794Y-10245347D01*
D14*
X14267921Y-10196373D02*
X14267921Y-10094773D01*
X13559909Y-9856168D02*
X13457058Y-9733594D01*
X13494027Y-9911449D02*
X13559909Y-9856168D01*
D10*
X13110274Y-10469627D02*
X13180273Y-10469627D01*
X13216394Y-10358247D02*
X13216394Y-10268247D01*
X13098894Y-10263247D02*
X13333893Y-10263247D01*
D14*
X13078052Y-10483464D02*
X12928058Y-10483464D01*
D10*
X13171394Y-10313247D02*
X13261393Y-10313247D01*
X14563137Y-10235589D02*
X14563137Y-10055589D01*
D14*
X13447794Y-10303347D02*
X13447794Y-10907347D01*
X13397828Y-9851292D02*
X13351865Y-9889860D01*
D10*
X14250613Y-10432627D02*
X14305613Y-10432627D01*
X14368113Y-10467627D02*
X14368113Y-10397627D01*
X14188113Y-10467627D02*
X14188113Y-10397627D01*
X13188893Y-10417387D02*
X13243893Y-10417387D01*
X13306393Y-10452387D02*
X13306393Y-10382387D01*
X13126393Y-10452387D02*
X13126393Y-10382387D01*
X14141393Y-10605347D02*
X14196394Y-10605347D01*
X13389793Y-10965347D02*
X14109794Y-10965347D01*
D14*
X13516097Y-10988904D02*
X13414497Y-10988904D01*
X12928058Y-10483464D02*
X12928058Y-10803463D01*
X13063033Y-10763447D02*
X13063033Y-10523447D01*
X12952217Y-10849204D02*
X12952217Y-10900004D01*
D10*
X13668514Y-9974987D02*
X13668514Y-9919987D01*
X13749794Y-10655347D02*
X13749794Y-10555347D01*
X12928033Y-10783447D02*
X12928033Y-10503447D01*
X12948033Y-10483447D02*
X13058034Y-10483447D01*
X12948033Y-10803447D02*
X13058034Y-10803447D01*
X14109794Y-10965347D02*
X14109794Y-10245347D01*
D14*
X13119890Y-10610444D02*
X13170690Y-10610444D01*
D10*
X13578514Y-9982487D02*
X13758514Y-9982487D01*
X13641014Y-9947487D02*
X13696014Y-9947487D01*
X13578514Y-9912487D02*
X13758514Y-9912487D01*
D14*
X13119890Y-10508844D02*
X13119890Y-10610444D01*
D10*
X13758514Y-9982487D02*
X13758514Y-9912487D01*
X13078034Y-10783447D02*
X13078034Y-10503447D01*
X13098894Y-10363247D02*
X13098894Y-10263247D01*
D14*
X13516097Y-11039704D02*
X13516097Y-10988904D01*
X13414497Y-11039704D02*
X13516097Y-11039704D01*
X14128221Y-10196373D02*
X14179021Y-10196373D01*
D10*
X14118637Y-10235589D02*
X14188637Y-10235589D01*
D14*
X13414497Y-10988904D02*
X13414497Y-11039704D01*
D10*
X13322303Y-9862432D02*
X13375926Y-9817438D01*
D14*
X14623553Y-10094806D02*
X14572753Y-10094806D01*
D10*
X14242537Y-10173089D02*
X14242537Y-10118089D01*
X13437813Y-11014287D02*
X13492813Y-11014287D01*
X13555313Y-11049287D02*
X13555313Y-10979287D01*
X13375313Y-11049287D02*
X13375313Y-10979287D01*
X14215037Y-10145589D02*
X14270037Y-10145589D01*
X13578514Y-9982487D02*
X13578514Y-9912487D01*
D14*
X13170690Y-10610444D02*
X13170690Y-10508844D01*
X14350337Y-10210589D02*
X14490337Y-10210589D01*
D10*
X13389793Y-10965347D02*
X13389793Y-10245347D01*
X14153637Y-10173089D02*
X14153637Y-10118089D01*
M02*
