%TF.GenerationSoftware,KiCad,Pcbnew,5.1.3-ffb9f22~84~ubuntu18.04.1*%
%TF.CreationDate,2019-07-25T20:39:45+03:00*%
%TF.ProjectId,bluetooth,626c7565-746f-46f7-9468-2e6b69636164,rev?*%
%TF.SameCoordinates,Original*%
%TF.FileFunction,Legend,Top*%
%TF.FilePolarity,Positive*%
%FSLAX45Y45*%
G04 Gerber Fmt 4.5, Leading zero omitted, Abs format (unit mm)*
G04 Created by KiCad (PCBNEW 5.1.3-ffb9f22~84~ubuntu18.04.1) date 2019-07-25 20:39:45*
%MOMM*%
%LPD*%
G04 APERTURE LIST*
%ADD10C,0.100000*%
%ADD11C,0.150000*%
%ADD12C,0.300000*%
%ADD13C,0.400000*%
%ADD14C,0.152400*%
%ADD15C,0.200000*%
%ADD16C,0.062500*%
%ADD17C,0.050000*%
%ADD18R,0.800000X1.750000*%
%ADD19R,1.750000X0.800000*%
%ADD20C,1.300000*%
%ADD21O,0.650000X0.200000*%
%ADD22O,0.200000X0.650000*%
%ADD23R,4.700000X4.700000*%
%ADD24R,0.600000X0.500000*%
%ADD25C,0.750000*%
%ADD26C,0.500000*%
%ADD27R,0.800000X0.750000*%
%ADD28R,0.500000X0.600000*%
%ADD29R,0.950000X0.850000*%
%ADD30R,0.750000X0.800000*%
%ADD31R,1.800000X1.000000*%
G04 APERTURE END LIST*
D10*
D11*
X17700220Y-16600720D02*
X17700220Y-19800720D01*
X28500220Y-19800720D01*
X28500220Y-16600720D01*
X17700220Y-16600720D01*
D10*
D11*
X1000000Y-1000000D02*
X1000000Y-20000720D01*
X28700220Y-20000720D01*
X28700220Y-1000000D01*
X1000000Y-1000000D01*
D10*
D11*
X1200000Y-1200000D02*
X1200000Y-19800720D01*
X28500220Y-19800720D01*
X28500220Y-1200000D01*
X1200000Y-1200000D01*
D10*
D11*
X6000000Y-1200000D02*
X6000000Y-1000000D01*
D10*
D11*
X11000000Y-1200000D02*
X11000000Y-1000000D01*
D10*
D11*
X16000000Y-1200000D02*
X16000000Y-1000000D01*
D10*
D11*
X21000000Y-1200000D02*
X21000000Y-1000000D01*
D10*
D11*
X26000000Y-1200000D02*
X26000000Y-1000000D01*
D10*
D11*
X3606548Y-1158810D02*
X3532262Y-1158810D01*
X3569405Y-1158810D02*
X3569405Y-1028809D01*
X3557024Y-1047381D01*
X3544643Y-1059762D01*
X3532262Y-1065952D01*
D10*
D11*
X8532262Y-1041190D02*
X8538452Y-1035000D01*
X8550833Y-1028809D01*
X8581786Y-1028809D01*
X8594167Y-1035000D01*
X8600357Y-1041190D01*
X8606548Y-1053571D01*
X8606548Y-1065952D01*
X8600357Y-1084524D01*
X8526071Y-1158810D01*
X8606548Y-1158810D01*
D10*
D11*
X13526071Y-1028809D02*
X13606548Y-1028809D01*
X13563214Y-1078333D01*
X13581786Y-1078333D01*
X13594167Y-1084524D01*
X13600357Y-1090714D01*
X13606548Y-1103095D01*
X13606548Y-1134048D01*
X13600357Y-1146429D01*
X13594167Y-1152619D01*
X13581786Y-1158810D01*
X13544643Y-1158810D01*
X13532262Y-1152619D01*
X13526071Y-1146429D01*
D10*
D11*
X18594167Y-1072143D02*
X18594167Y-1158810D01*
X18563214Y-1022619D02*
X18532262Y-1115476D01*
X18612738Y-1115476D01*
D10*
D11*
X23600357Y-1028809D02*
X23538452Y-1028809D01*
X23532262Y-1090714D01*
X23538452Y-1084524D01*
X23550833Y-1078333D01*
X23581786Y-1078333D01*
X23594167Y-1084524D01*
X23600357Y-1090714D01*
X23606548Y-1103095D01*
X23606548Y-1134048D01*
X23600357Y-1146429D01*
X23594167Y-1152619D01*
X23581786Y-1158810D01*
X23550833Y-1158810D01*
X23538452Y-1152619D01*
X23532262Y-1146429D01*
D10*
D11*
X28594167Y-1028809D02*
X28569405Y-1028809D01*
X28557024Y-1035000D01*
X28550833Y-1041190D01*
X28538452Y-1059762D01*
X28532262Y-1084524D01*
X28532262Y-1134048D01*
X28538452Y-1146429D01*
X28544643Y-1152619D01*
X28557024Y-1158810D01*
X28581786Y-1158810D01*
X28594167Y-1152619D01*
X28600357Y-1146429D01*
X28606548Y-1134048D01*
X28606548Y-1103095D01*
X28600357Y-1090714D01*
X28594167Y-1084524D01*
X28581786Y-1078333D01*
X28557024Y-1078333D01*
X28544643Y-1084524D01*
X28538452Y-1090714D01*
X28532262Y-1103095D01*
D10*
D11*
X6000000Y-19800720D02*
X6000000Y-20000720D01*
D10*
D11*
X11000000Y-19800720D02*
X11000000Y-20000720D01*
D10*
D11*
X16000000Y-19800720D02*
X16000000Y-20000720D01*
D10*
D11*
X21000000Y-19800720D02*
X21000000Y-20000720D01*
D10*
D11*
X26000000Y-19800720D02*
X26000000Y-20000720D01*
D10*
D11*
X3606548Y-19959530D02*
X3532262Y-19959530D01*
X3569405Y-19959530D02*
X3569405Y-19829530D01*
X3557024Y-19848101D01*
X3544643Y-19860482D01*
X3532262Y-19866672D01*
D10*
D11*
X8532262Y-19841910D02*
X8538452Y-19835720D01*
X8550833Y-19829530D01*
X8581786Y-19829530D01*
X8594167Y-19835720D01*
X8600357Y-19841910D01*
X8606548Y-19854291D01*
X8606548Y-19866672D01*
X8600357Y-19885244D01*
X8526071Y-19959530D01*
X8606548Y-19959530D01*
D10*
D11*
X13526071Y-19829530D02*
X13606548Y-19829530D01*
X13563214Y-19879053D01*
X13581786Y-19879053D01*
X13594167Y-19885244D01*
X13600357Y-19891434D01*
X13606548Y-19903815D01*
X13606548Y-19934768D01*
X13600357Y-19947149D01*
X13594167Y-19953339D01*
X13581786Y-19959530D01*
X13544643Y-19959530D01*
X13532262Y-19953339D01*
X13526071Y-19947149D01*
D10*
D11*
X18594167Y-19872863D02*
X18594167Y-19959530D01*
X18563214Y-19823339D02*
X18532262Y-19916196D01*
X18612738Y-19916196D01*
D10*
D11*
X23600357Y-19829530D02*
X23538452Y-19829530D01*
X23532262Y-19891434D01*
X23538452Y-19885244D01*
X23550833Y-19879053D01*
X23581786Y-19879053D01*
X23594167Y-19885244D01*
X23600357Y-19891434D01*
X23606548Y-19903815D01*
X23606548Y-19934768D01*
X23600357Y-19947149D01*
X23594167Y-19953339D01*
X23581786Y-19959530D01*
X23550833Y-19959530D01*
X23538452Y-19953339D01*
X23532262Y-19947149D01*
D10*
D11*
X28594167Y-19829530D02*
X28569405Y-19829530D01*
X28557024Y-19835720D01*
X28550833Y-19841910D01*
X28538452Y-19860482D01*
X28532262Y-19885244D01*
X28532262Y-19934768D01*
X28538452Y-19947149D01*
X28544643Y-19953339D01*
X28557024Y-19959530D01*
X28581786Y-19959530D01*
X28594167Y-19953339D01*
X28600357Y-19947149D01*
X28606548Y-19934768D01*
X28606548Y-19903815D01*
X28600357Y-19891434D01*
X28594167Y-19885244D01*
X28581786Y-19879053D01*
X28557024Y-19879053D01*
X28544643Y-19885244D01*
X28538452Y-19891434D01*
X28532262Y-19903815D01*
D10*
D11*
X1000000Y-6000000D02*
X1200000Y-6000000D01*
D10*
D11*
X1000000Y-11000000D02*
X1200000Y-11000000D01*
D10*
D11*
X1000000Y-16000000D02*
X1200000Y-16000000D01*
D10*
D11*
X1069048Y-3521667D02*
X1130952Y-3521667D01*
X1056667Y-3558809D02*
X1100000Y-3428809D01*
X1143333Y-3558809D01*
D10*
D11*
X1109286Y-8490714D02*
X1127857Y-8496905D01*
X1134048Y-8503095D01*
X1140238Y-8515476D01*
X1140238Y-8534048D01*
X1134048Y-8546429D01*
X1127857Y-8552619D01*
X1115476Y-8558810D01*
X1065952Y-8558810D01*
X1065952Y-8428810D01*
X1109286Y-8428810D01*
X1121667Y-8435000D01*
X1127857Y-8441190D01*
X1134048Y-8453571D01*
X1134048Y-8465952D01*
X1127857Y-8478333D01*
X1121667Y-8484524D01*
X1109286Y-8490714D01*
X1065952Y-8490714D01*
D10*
D11*
X1140238Y-13546428D02*
X1134048Y-13552619D01*
X1115476Y-13558809D01*
X1103095Y-13558809D01*
X1084524Y-13552619D01*
X1072143Y-13540238D01*
X1065952Y-13527857D01*
X1059762Y-13503095D01*
X1059762Y-13484524D01*
X1065952Y-13459762D01*
X1072143Y-13447381D01*
X1084524Y-13435000D01*
X1103095Y-13428809D01*
X1115476Y-13428809D01*
X1134048Y-13435000D01*
X1140238Y-13441190D01*
D10*
D11*
X1065952Y-18558810D02*
X1065952Y-18428810D01*
X1096905Y-18428810D01*
X1115476Y-18435000D01*
X1127857Y-18447381D01*
X1134048Y-18459762D01*
X1140238Y-18484524D01*
X1140238Y-18503095D01*
X1134048Y-18527857D01*
X1127857Y-18540238D01*
X1115476Y-18552619D01*
X1096905Y-18558810D01*
X1065952Y-18558810D01*
D10*
D11*
X28700220Y-6000000D02*
X28500220Y-6000000D01*
D10*
D11*
X28700220Y-11000000D02*
X28500220Y-11000000D01*
D10*
D11*
X28700220Y-16000000D02*
X28500220Y-16000000D01*
D10*
D11*
X28569268Y-3521667D02*
X28631172Y-3521667D01*
X28556887Y-3558809D02*
X28600220Y-3428809D01*
X28643553Y-3558809D01*
D10*
D11*
X28609506Y-8490714D02*
X28628077Y-8496905D01*
X28634268Y-8503095D01*
X28640458Y-8515476D01*
X28640458Y-8534048D01*
X28634268Y-8546429D01*
X28628077Y-8552619D01*
X28615696Y-8558810D01*
X28566172Y-8558810D01*
X28566172Y-8428810D01*
X28609506Y-8428810D01*
X28621887Y-8435000D01*
X28628077Y-8441190D01*
X28634268Y-8453571D01*
X28634268Y-8465952D01*
X28628077Y-8478333D01*
X28621887Y-8484524D01*
X28609506Y-8490714D01*
X28566172Y-8490714D01*
D10*
D11*
X28640458Y-13546428D02*
X28634268Y-13552619D01*
X28615696Y-13558809D01*
X28603315Y-13558809D01*
X28584744Y-13552619D01*
X28572363Y-13540238D01*
X28566172Y-13527857D01*
X28559982Y-13503095D01*
X28559982Y-13484524D01*
X28566172Y-13459762D01*
X28572363Y-13447381D01*
X28584744Y-13435000D01*
X28603315Y-13428809D01*
X28615696Y-13428809D01*
X28634268Y-13435000D01*
X28640458Y-13441190D01*
D10*
D11*
X28566172Y-18558810D02*
X28566172Y-18428810D01*
X28597125Y-18428810D01*
X28615696Y-18435000D01*
X28628077Y-18447381D01*
X28634268Y-18459762D01*
X28640458Y-18484524D01*
X28640458Y-18503095D01*
X28634268Y-18527857D01*
X28628077Y-18540238D01*
X28615696Y-18552619D01*
X28597125Y-18558810D01*
X28566172Y-18558810D01*
D10*
D11*
X20043434Y-19378577D02*
X20043434Y-19228577D01*
X20079149Y-19228577D01*
X20100577Y-19235720D01*
X20114863Y-19250006D01*
X20122006Y-19264291D01*
X20129149Y-19292863D01*
X20129149Y-19314291D01*
X20122006Y-19342863D01*
X20114863Y-19357149D01*
X20100577Y-19371434D01*
X20079149Y-19378577D01*
X20043434Y-19378577D01*
X20257720Y-19378577D02*
X20257720Y-19300006D01*
X20250577Y-19285720D01*
X20236291Y-19278577D01*
X20207720Y-19278577D01*
X20193434Y-19285720D01*
X20257720Y-19371434D02*
X20243434Y-19378577D01*
X20207720Y-19378577D01*
X20193434Y-19371434D01*
X20186291Y-19357149D01*
X20186291Y-19342863D01*
X20193434Y-19328577D01*
X20207720Y-19321434D01*
X20243434Y-19321434D01*
X20257720Y-19314291D01*
X20307720Y-19278577D02*
X20364863Y-19278577D01*
X20329149Y-19228577D02*
X20329149Y-19357149D01*
X20336291Y-19371434D01*
X20350577Y-19378577D01*
X20364863Y-19378577D01*
X20472006Y-19371434D02*
X20457720Y-19378577D01*
X20429149Y-19378577D01*
X20414863Y-19371434D01*
X20407720Y-19357149D01*
X20407720Y-19300006D01*
X20414863Y-19285720D01*
X20429149Y-19278577D01*
X20457720Y-19278577D01*
X20472006Y-19285720D01*
X20479149Y-19300006D01*
X20479149Y-19314291D01*
X20407720Y-19328577D01*
X20543434Y-19364291D02*
X20550577Y-19371434D01*
X20543434Y-19378577D01*
X20536291Y-19371434D01*
X20543434Y-19364291D01*
X20543434Y-19378577D01*
X20543434Y-19285720D02*
X20550577Y-19292863D01*
X20543434Y-19300006D01*
X20536291Y-19292863D01*
X20543434Y-19285720D01*
X20543434Y-19300006D01*
D10*
D11*
X17700220Y-19450720D02*
X28500220Y-19450720D01*
D10*
D11*
X17843434Y-19658577D02*
X17843434Y-19508577D01*
X17929149Y-19658577D02*
X17864863Y-19572863D01*
X17929149Y-19508577D02*
X17843434Y-19594291D01*
X17993434Y-19658577D02*
X17993434Y-19558577D01*
X17993434Y-19508577D02*
X17986291Y-19515720D01*
X17993434Y-19522863D01*
X18000577Y-19515720D01*
X17993434Y-19508577D01*
X17993434Y-19522863D01*
X18150577Y-19644291D02*
X18143434Y-19651434D01*
X18122006Y-19658577D01*
X18107720Y-19658577D01*
X18086291Y-19651434D01*
X18072006Y-19637149D01*
X18064863Y-19622863D01*
X18057720Y-19594291D01*
X18057720Y-19572863D01*
X18064863Y-19544291D01*
X18072006Y-19530006D01*
X18086291Y-19515720D01*
X18107720Y-19508577D01*
X18122006Y-19508577D01*
X18143434Y-19515720D01*
X18150577Y-19522863D01*
X18279149Y-19658577D02*
X18279149Y-19580006D01*
X18272006Y-19565720D01*
X18257720Y-19558577D01*
X18229149Y-19558577D01*
X18214863Y-19565720D01*
X18279149Y-19651434D02*
X18264863Y-19658577D01*
X18229149Y-19658577D01*
X18214863Y-19651434D01*
X18207720Y-19637149D01*
X18207720Y-19622863D01*
X18214863Y-19608577D01*
X18229149Y-19601434D01*
X18264863Y-19601434D01*
X18279149Y-19594291D01*
X18414863Y-19658577D02*
X18414863Y-19508577D01*
X18414863Y-19651434D02*
X18400577Y-19658577D01*
X18372006Y-19658577D01*
X18357720Y-19651434D01*
X18350577Y-19644291D01*
X18343434Y-19630006D01*
X18343434Y-19587149D01*
X18350577Y-19572863D01*
X18357720Y-19565720D01*
X18372006Y-19558577D01*
X18400577Y-19558577D01*
X18414863Y-19565720D01*
X18600577Y-19580006D02*
X18650577Y-19580006D01*
X18672006Y-19658577D02*
X18600577Y-19658577D01*
X18600577Y-19508577D01*
X18672006Y-19508577D01*
X18736291Y-19644291D02*
X18743434Y-19651434D01*
X18736291Y-19658577D01*
X18729149Y-19651434D01*
X18736291Y-19644291D01*
X18736291Y-19658577D01*
X18807720Y-19658577D02*
X18807720Y-19508577D01*
X18843434Y-19508577D01*
X18864863Y-19515720D01*
X18879149Y-19530006D01*
X18886291Y-19544291D01*
X18893434Y-19572863D01*
X18893434Y-19594291D01*
X18886291Y-19622863D01*
X18879149Y-19637149D01*
X18864863Y-19651434D01*
X18843434Y-19658577D01*
X18807720Y-19658577D01*
X18957720Y-19644291D02*
X18964863Y-19651434D01*
X18957720Y-19658577D01*
X18950577Y-19651434D01*
X18957720Y-19644291D01*
X18957720Y-19658577D01*
X19022006Y-19615720D02*
X19093434Y-19615720D01*
X19007720Y-19658577D02*
X19057720Y-19508577D01*
X19107720Y-19658577D01*
X19157720Y-19644291D02*
X19164863Y-19651434D01*
X19157720Y-19658577D01*
X19150577Y-19651434D01*
X19157720Y-19644291D01*
X19157720Y-19658577D01*
X19457720Y-19658577D02*
X19457720Y-19508577D01*
X19472006Y-19601434D02*
X19514863Y-19658577D01*
X19514863Y-19558577D02*
X19457720Y-19615720D01*
X19579149Y-19658577D02*
X19579149Y-19558577D01*
X19579149Y-19508577D02*
X19572006Y-19515720D01*
X19579149Y-19522863D01*
X19586291Y-19515720D01*
X19579149Y-19508577D01*
X19579149Y-19522863D01*
X19714863Y-19651434D02*
X19700577Y-19658577D01*
X19672006Y-19658577D01*
X19657720Y-19651434D01*
X19650577Y-19644291D01*
X19643434Y-19630006D01*
X19643434Y-19587149D01*
X19650577Y-19572863D01*
X19657720Y-19565720D01*
X19672006Y-19558577D01*
X19700577Y-19558577D01*
X19714863Y-19565720D01*
X19843434Y-19658577D02*
X19843434Y-19580006D01*
X19836291Y-19565720D01*
X19822006Y-19558577D01*
X19793434Y-19558577D01*
X19779149Y-19565720D01*
X19843434Y-19651434D02*
X19829149Y-19658577D01*
X19793434Y-19658577D01*
X19779149Y-19651434D01*
X19772006Y-19637149D01*
X19772006Y-19622863D01*
X19779149Y-19608577D01*
X19793434Y-19601434D01*
X19829149Y-19601434D01*
X19843434Y-19594291D01*
X19979149Y-19658577D02*
X19979149Y-19508577D01*
X19979149Y-19651434D02*
X19964863Y-19658577D01*
X19936291Y-19658577D01*
X19922006Y-19651434D01*
X19914863Y-19644291D01*
X19907720Y-19630006D01*
X19907720Y-19587149D01*
X19914863Y-19572863D01*
X19922006Y-19565720D01*
X19936291Y-19558577D01*
X19964863Y-19558577D01*
X19979149Y-19565720D01*
X20236291Y-19508577D02*
X20164863Y-19508577D01*
X20157720Y-19580006D01*
X20164863Y-19572863D01*
X20179149Y-19565720D01*
X20214863Y-19565720D01*
X20229149Y-19572863D01*
X20236291Y-19580006D01*
X20243434Y-19594291D01*
X20243434Y-19630006D01*
X20236291Y-19644291D01*
X20229149Y-19651434D01*
X20214863Y-19658577D01*
X20179149Y-19658577D01*
X20164863Y-19651434D01*
X20157720Y-19644291D01*
X20307720Y-19644291D02*
X20314863Y-19651434D01*
X20307720Y-19658577D01*
X20300577Y-19651434D01*
X20307720Y-19644291D01*
X20307720Y-19658577D01*
X20457720Y-19658577D02*
X20372006Y-19658577D01*
X20414863Y-19658577D02*
X20414863Y-19508577D01*
X20400577Y-19530006D01*
X20386291Y-19544291D01*
X20372006Y-19551434D01*
X20522006Y-19644291D02*
X20529149Y-19651434D01*
X20522006Y-19658577D01*
X20514863Y-19651434D01*
X20522006Y-19644291D01*
X20522006Y-19658577D01*
X20579149Y-19508577D02*
X20672006Y-19508577D01*
X20622006Y-19565720D01*
X20643434Y-19565720D01*
X20657720Y-19572863D01*
X20664863Y-19580006D01*
X20672006Y-19594291D01*
X20672006Y-19630006D01*
X20664863Y-19644291D01*
X20657720Y-19651434D01*
X20643434Y-19658577D01*
X20600577Y-19658577D01*
X20586291Y-19651434D01*
X20579149Y-19644291D01*
X20736291Y-19601434D02*
X20850577Y-19601434D01*
X20900577Y-19558577D02*
X20957720Y-19558577D01*
X20922006Y-19658577D02*
X20922006Y-19530006D01*
X20929149Y-19515720D01*
X20943434Y-19508577D01*
X20957720Y-19508577D01*
X20986291Y-19558577D02*
X21043434Y-19558577D01*
X21007720Y-19658577D02*
X21007720Y-19530006D01*
X21014863Y-19515720D01*
X21029149Y-19508577D01*
X21043434Y-19508577D01*
X21093434Y-19658577D02*
X21093434Y-19508577D01*
X21093434Y-19565720D02*
X21107720Y-19558577D01*
X21136291Y-19558577D01*
X21150577Y-19565720D01*
X21157720Y-19572863D01*
X21164863Y-19587149D01*
X21164863Y-19630006D01*
X21157720Y-19644291D01*
X21150577Y-19651434D01*
X21136291Y-19658577D01*
X21107720Y-19658577D01*
X21093434Y-19651434D01*
X21236291Y-19658577D02*
X21264863Y-19658577D01*
X21279149Y-19651434D01*
X21286291Y-19644291D01*
X21300577Y-19622863D01*
X21307720Y-19594291D01*
X21307720Y-19537149D01*
X21300577Y-19522863D01*
X21293434Y-19515720D01*
X21279149Y-19508577D01*
X21250577Y-19508577D01*
X21236291Y-19515720D01*
X21229149Y-19522863D01*
X21222006Y-19537149D01*
X21222006Y-19572863D01*
X21229149Y-19587149D01*
X21236291Y-19594291D01*
X21250577Y-19601434D01*
X21279149Y-19601434D01*
X21293434Y-19594291D01*
X21300577Y-19587149D01*
X21307720Y-19572863D01*
X21350577Y-19558577D02*
X21407720Y-19558577D01*
X21372006Y-19658577D02*
X21372006Y-19530006D01*
X21379149Y-19515720D01*
X21393434Y-19508577D01*
X21407720Y-19508577D01*
X21450577Y-19522863D02*
X21457720Y-19515720D01*
X21472006Y-19508577D01*
X21507720Y-19508577D01*
X21522006Y-19515720D01*
X21529149Y-19522863D01*
X21536291Y-19537149D01*
X21536291Y-19551434D01*
X21529149Y-19572863D01*
X21443434Y-19658577D01*
X21536291Y-19658577D01*
X21593434Y-19522863D02*
X21600577Y-19515720D01*
X21614863Y-19508577D01*
X21650577Y-19508577D01*
X21664863Y-19515720D01*
X21672006Y-19522863D01*
X21679149Y-19537149D01*
X21679149Y-19551434D01*
X21672006Y-19572863D01*
X21586291Y-19658577D01*
X21679149Y-19658577D01*
X21707720Y-19467720D02*
X21850577Y-19467720D01*
X21764863Y-19572863D02*
X21750577Y-19565720D01*
X21743434Y-19558577D01*
X21736291Y-19544291D01*
X21736291Y-19537149D01*
X21743434Y-19522863D01*
X21750577Y-19515720D01*
X21764863Y-19508577D01*
X21793434Y-19508577D01*
X21807720Y-19515720D01*
X21814863Y-19522863D01*
X21822006Y-19537149D01*
X21822006Y-19544291D01*
X21814863Y-19558577D01*
X21807720Y-19565720D01*
X21793434Y-19572863D01*
X21764863Y-19572863D01*
X21750577Y-19580006D01*
X21743434Y-19587149D01*
X21736291Y-19601434D01*
X21736291Y-19630006D01*
X21743434Y-19644291D01*
X21750577Y-19651434D01*
X21764863Y-19658577D01*
X21793434Y-19658577D01*
X21807720Y-19651434D01*
X21814863Y-19644291D01*
X21822006Y-19630006D01*
X21822006Y-19601434D01*
X21814863Y-19587149D01*
X21807720Y-19580006D01*
X21793434Y-19572863D01*
X21850577Y-19467720D02*
X21993434Y-19467720D01*
X21950577Y-19558577D02*
X21950577Y-19658577D01*
X21914863Y-19501434D02*
X21879149Y-19608577D01*
X21972006Y-19608577D01*
X22093434Y-19558577D02*
X22093434Y-19658577D01*
X22029149Y-19558577D02*
X22029149Y-19637149D01*
X22036291Y-19651434D01*
X22050577Y-19658577D01*
X22072006Y-19658577D01*
X22086291Y-19651434D01*
X22093434Y-19644291D01*
X22164863Y-19658577D02*
X22164863Y-19508577D01*
X22164863Y-19565720D02*
X22179149Y-19558577D01*
X22207720Y-19558577D01*
X22222006Y-19565720D01*
X22229149Y-19572863D01*
X22236291Y-19587149D01*
X22236291Y-19630006D01*
X22229149Y-19644291D01*
X22222006Y-19651434D01*
X22207720Y-19658577D01*
X22179149Y-19658577D01*
X22164863Y-19651434D01*
X22364863Y-19558577D02*
X22364863Y-19658577D01*
X22300577Y-19558577D02*
X22300577Y-19637149D01*
X22307720Y-19651434D01*
X22322006Y-19658577D01*
X22343434Y-19658577D01*
X22357720Y-19651434D01*
X22364863Y-19644291D01*
X22436291Y-19558577D02*
X22436291Y-19658577D01*
X22436291Y-19572863D02*
X22443434Y-19565720D01*
X22457720Y-19558577D01*
X22479148Y-19558577D01*
X22493434Y-19565720D01*
X22500577Y-19580006D01*
X22500577Y-19658577D01*
X22550577Y-19558577D02*
X22607720Y-19558577D01*
X22572006Y-19508577D02*
X22572006Y-19637149D01*
X22579148Y-19651434D01*
X22593434Y-19658577D01*
X22607720Y-19658577D01*
X22722006Y-19558577D02*
X22722006Y-19658577D01*
X22657720Y-19558577D02*
X22657720Y-19637149D01*
X22664863Y-19651434D01*
X22679148Y-19658577D01*
X22700577Y-19658577D01*
X22714863Y-19651434D01*
X22722006Y-19644291D01*
X22872006Y-19658577D02*
X22786291Y-19658577D01*
X22829148Y-19658577D02*
X22829148Y-19508577D01*
X22814863Y-19530006D01*
X22800577Y-19544291D01*
X22786291Y-19551434D01*
X22957720Y-19572863D02*
X22943434Y-19565720D01*
X22936291Y-19558577D01*
X22929148Y-19544291D01*
X22929148Y-19537149D01*
X22936291Y-19522863D01*
X22943434Y-19515720D01*
X22957720Y-19508577D01*
X22986291Y-19508577D01*
X23000577Y-19515720D01*
X23007720Y-19522863D01*
X23014863Y-19537149D01*
X23014863Y-19544291D01*
X23007720Y-19558577D01*
X23000577Y-19565720D01*
X22986291Y-19572863D01*
X22957720Y-19572863D01*
X22943434Y-19580006D01*
X22936291Y-19587149D01*
X22929148Y-19601434D01*
X22929148Y-19630006D01*
X22936291Y-19644291D01*
X22943434Y-19651434D01*
X22957720Y-19658577D01*
X22986291Y-19658577D01*
X23000577Y-19651434D01*
X23007720Y-19644291D01*
X23014863Y-19630006D01*
X23014863Y-19601434D01*
X23007720Y-19587149D01*
X23000577Y-19580006D01*
X22986291Y-19572863D01*
X23079148Y-19644291D02*
X23086291Y-19651434D01*
X23079148Y-19658577D01*
X23072006Y-19651434D01*
X23079148Y-19644291D01*
X23079148Y-19658577D01*
X23179148Y-19508577D02*
X23193434Y-19508577D01*
X23207720Y-19515720D01*
X23214863Y-19522863D01*
X23222006Y-19537149D01*
X23229148Y-19565720D01*
X23229148Y-19601434D01*
X23222006Y-19630006D01*
X23214863Y-19644291D01*
X23207720Y-19651434D01*
X23193434Y-19658577D01*
X23179148Y-19658577D01*
X23164863Y-19651434D01*
X23157720Y-19644291D01*
X23150577Y-19630006D01*
X23143434Y-19601434D01*
X23143434Y-19565720D01*
X23150577Y-19537149D01*
X23157720Y-19522863D01*
X23164863Y-19515720D01*
X23179148Y-19508577D01*
X23357720Y-19558577D02*
X23357720Y-19658577D01*
X23322006Y-19501434D02*
X23286291Y-19608577D01*
X23379148Y-19608577D01*
X23436291Y-19644291D02*
X23443434Y-19651434D01*
X23436291Y-19658577D01*
X23429148Y-19651434D01*
X23436291Y-19644291D01*
X23436291Y-19658577D01*
X23586291Y-19658577D02*
X23500577Y-19658577D01*
X23543434Y-19658577D02*
X23543434Y-19508577D01*
X23529148Y-19530006D01*
X23514863Y-19544291D01*
X23500577Y-19551434D01*
D10*
D11*
X17700220Y-19150720D02*
X28500220Y-19150720D01*
D10*
D12*
X26441148Y-19378577D02*
X26391148Y-19307149D01*
X26355434Y-19378577D02*
X26355434Y-19228577D01*
X26412577Y-19228577D01*
X26426863Y-19235720D01*
X26434006Y-19242863D01*
X26441148Y-19257149D01*
X26441148Y-19278577D01*
X26434006Y-19292863D01*
X26426863Y-19300006D01*
X26412577Y-19307149D01*
X26355434Y-19307149D01*
X26562577Y-19371434D02*
X26548291Y-19378577D01*
X26519720Y-19378577D01*
X26505434Y-19371434D01*
X26498291Y-19357149D01*
X26498291Y-19300006D01*
X26505434Y-19285720D01*
X26519720Y-19278577D01*
X26548291Y-19278577D01*
X26562577Y-19285720D01*
X26569720Y-19300006D01*
X26569720Y-19314291D01*
X26498291Y-19328577D01*
X26619720Y-19278577D02*
X26655434Y-19378577D01*
X26691148Y-19278577D01*
X26748291Y-19364291D02*
X26755434Y-19371434D01*
X26748291Y-19378577D01*
X26741148Y-19371434D01*
X26748291Y-19364291D01*
X26748291Y-19378577D01*
X26748291Y-19285720D02*
X26755434Y-19292863D01*
X26748291Y-19300006D01*
X26741148Y-19292863D01*
X26748291Y-19285720D01*
X26748291Y-19300006D01*
D10*
D11*
X17836291Y-19371434D02*
X17857720Y-19378577D01*
X17893434Y-19378577D01*
X17907720Y-19371434D01*
X17914863Y-19364291D01*
X17922006Y-19350006D01*
X17922006Y-19335720D01*
X17914863Y-19321434D01*
X17907720Y-19314291D01*
X17893434Y-19307149D01*
X17864863Y-19300006D01*
X17850577Y-19292863D01*
X17843434Y-19285720D01*
X17836291Y-19271434D01*
X17836291Y-19257149D01*
X17843434Y-19242863D01*
X17850577Y-19235720D01*
X17864863Y-19228577D01*
X17900577Y-19228577D01*
X17922006Y-19235720D01*
X17986291Y-19378577D02*
X17986291Y-19278577D01*
X17986291Y-19228577D02*
X17979149Y-19235720D01*
X17986291Y-19242863D01*
X17993434Y-19235720D01*
X17986291Y-19228577D01*
X17986291Y-19242863D01*
X18043434Y-19278577D02*
X18122006Y-19278577D01*
X18043434Y-19378577D01*
X18122006Y-19378577D01*
X18236291Y-19371434D02*
X18222006Y-19378577D01*
X18193434Y-19378577D01*
X18179149Y-19371434D01*
X18172006Y-19357149D01*
X18172006Y-19300006D01*
X18179149Y-19285720D01*
X18193434Y-19278577D01*
X18222006Y-19278577D01*
X18236291Y-19285720D01*
X18243434Y-19300006D01*
X18243434Y-19314291D01*
X18172006Y-19328577D01*
X18307720Y-19364291D02*
X18314863Y-19371434D01*
X18307720Y-19378577D01*
X18300577Y-19371434D01*
X18307720Y-19364291D01*
X18307720Y-19378577D01*
X18307720Y-19285720D02*
X18314863Y-19292863D01*
X18307720Y-19300006D01*
X18300577Y-19292863D01*
X18307720Y-19285720D01*
X18307720Y-19300006D01*
X18486291Y-19335720D02*
X18557720Y-19335720D01*
X18472006Y-19378577D02*
X18522006Y-19228577D01*
X18572006Y-19378577D01*
X18686291Y-19278577D02*
X18686291Y-19378577D01*
X18650577Y-19221434D02*
X18614863Y-19328577D01*
X18707720Y-19328577D01*
D10*
D11*
X26343434Y-19658577D02*
X26343434Y-19508577D01*
X26479148Y-19658577D02*
X26479148Y-19508577D01*
X26479148Y-19651434D02*
X26464863Y-19658577D01*
X26436291Y-19658577D01*
X26422006Y-19651434D01*
X26414863Y-19644291D01*
X26407720Y-19630006D01*
X26407720Y-19587149D01*
X26414863Y-19572863D01*
X26422006Y-19565720D01*
X26436291Y-19558577D01*
X26464863Y-19558577D01*
X26479148Y-19565720D01*
X26550577Y-19644291D02*
X26557720Y-19651434D01*
X26550577Y-19658577D01*
X26543434Y-19651434D01*
X26550577Y-19644291D01*
X26550577Y-19658577D01*
X26550577Y-19565720D02*
X26557720Y-19572863D01*
X26550577Y-19580006D01*
X26543434Y-19572863D01*
X26550577Y-19565720D01*
X26550577Y-19580006D01*
X26814863Y-19658577D02*
X26729148Y-19658577D01*
X26772006Y-19658577D02*
X26772006Y-19508577D01*
X26757720Y-19530006D01*
X26743434Y-19544291D01*
X26729148Y-19551434D01*
X26986291Y-19501434D02*
X26857720Y-19694291D01*
X27114863Y-19658577D02*
X27029148Y-19658577D01*
X27072006Y-19658577D02*
X27072006Y-19508577D01*
X27057720Y-19530006D01*
X27043434Y-19544291D01*
X27029148Y-19551434D01*
D10*
D11*
X17700220Y-18750720D02*
X28500220Y-18750720D01*
D10*
D13*
X17871458Y-18821196D02*
X17985744Y-18821196D01*
X17903601Y-19021196D02*
X17928601Y-18821196D01*
X18027410Y-19021196D02*
X18044077Y-18887863D01*
X18052410Y-18821196D02*
X18041696Y-18830720D01*
X18050030Y-18840244D01*
X18060744Y-18830720D01*
X18052410Y-18821196D01*
X18050030Y-18840244D01*
X18110744Y-18887863D02*
X18186934Y-18887863D01*
X18147649Y-18821196D02*
X18126220Y-18992625D01*
X18133363Y-19011672D01*
X18151220Y-19021196D01*
X18170268Y-19021196D01*
X18265506Y-19021196D02*
X18247649Y-19011672D01*
X18240506Y-18992625D01*
X18261934Y-18821196D01*
X18419077Y-19011672D02*
X18398839Y-19021196D01*
X18360744Y-19021196D01*
X18342887Y-19011672D01*
X18335744Y-18992625D01*
X18345268Y-18916434D01*
X18357172Y-18897387D01*
X18377410Y-18887863D01*
X18415506Y-18887863D01*
X18433363Y-18897387D01*
X18440506Y-18916434D01*
X18438125Y-18935482D01*
X18340506Y-18954530D01*
X18515506Y-19002149D02*
X18523839Y-19011672D01*
X18513125Y-19021196D01*
X18504791Y-19011672D01*
X18515506Y-19002149D01*
X18513125Y-19021196D01*
X18528601Y-18897387D02*
X18536934Y-18906910D01*
X18526220Y-18916434D01*
X18517887Y-18906910D01*
X18528601Y-18897387D01*
X18526220Y-18916434D01*
D10*
D11*
X17893434Y-18560006D02*
X17843434Y-18560006D01*
X17843434Y-18638577D02*
X17843434Y-18488577D01*
X17914863Y-18488577D01*
X17972006Y-18638577D02*
X17972006Y-18538577D01*
X17972006Y-18488577D02*
X17964863Y-18495720D01*
X17972006Y-18502863D01*
X17979149Y-18495720D01*
X17972006Y-18488577D01*
X17972006Y-18502863D01*
X18064863Y-18638577D02*
X18050577Y-18631434D01*
X18043434Y-18617149D01*
X18043434Y-18488577D01*
X18179149Y-18631434D02*
X18164863Y-18638577D01*
X18136291Y-18638577D01*
X18122006Y-18631434D01*
X18114863Y-18617149D01*
X18114863Y-18560006D01*
X18122006Y-18545720D01*
X18136291Y-18538577D01*
X18164863Y-18538577D01*
X18179149Y-18545720D01*
X18186291Y-18560006D01*
X18186291Y-18574291D01*
X18114863Y-18588577D01*
X18250577Y-18624291D02*
X18257720Y-18631434D01*
X18250577Y-18638577D01*
X18243434Y-18631434D01*
X18250577Y-18624291D01*
X18250577Y-18638577D01*
X18250577Y-18545720D02*
X18257720Y-18552863D01*
X18250577Y-18560006D01*
X18243434Y-18552863D01*
X18250577Y-18545720D01*
X18250577Y-18560006D01*
X18436291Y-18638577D02*
X18436291Y-18488577D01*
X18436291Y-18545720D02*
X18450577Y-18538577D01*
X18479149Y-18538577D01*
X18493434Y-18545720D01*
X18500577Y-18552863D01*
X18507720Y-18567149D01*
X18507720Y-18610006D01*
X18500577Y-18624291D01*
X18493434Y-18631434D01*
X18479149Y-18638577D01*
X18450577Y-18638577D01*
X18436291Y-18631434D01*
X18593434Y-18638577D02*
X18579149Y-18631434D01*
X18572006Y-18617149D01*
X18572006Y-18488577D01*
X18714863Y-18538577D02*
X18714863Y-18638577D01*
X18650577Y-18538577D02*
X18650577Y-18617149D01*
X18657720Y-18631434D01*
X18672006Y-18638577D01*
X18693434Y-18638577D01*
X18707720Y-18631434D01*
X18714863Y-18624291D01*
X18843434Y-18631434D02*
X18829149Y-18638577D01*
X18800577Y-18638577D01*
X18786291Y-18631434D01*
X18779149Y-18617149D01*
X18779149Y-18560006D01*
X18786291Y-18545720D01*
X18800577Y-18538577D01*
X18829149Y-18538577D01*
X18843434Y-18545720D01*
X18850577Y-18560006D01*
X18850577Y-18574291D01*
X18779149Y-18588577D01*
X18893434Y-18538577D02*
X18950577Y-18538577D01*
X18914863Y-18488577D02*
X18914863Y-18617149D01*
X18922006Y-18631434D01*
X18936291Y-18638577D01*
X18950577Y-18638577D01*
X19022006Y-18638577D02*
X19007720Y-18631434D01*
X19000577Y-18624291D01*
X18993434Y-18610006D01*
X18993434Y-18567149D01*
X19000577Y-18552863D01*
X19007720Y-18545720D01*
X19022006Y-18538577D01*
X19043434Y-18538577D01*
X19057720Y-18545720D01*
X19064863Y-18552863D01*
X19072006Y-18567149D01*
X19072006Y-18610006D01*
X19064863Y-18624291D01*
X19057720Y-18631434D01*
X19043434Y-18638577D01*
X19022006Y-18638577D01*
X19157720Y-18638577D02*
X19143434Y-18631434D01*
X19136291Y-18624291D01*
X19129149Y-18610006D01*
X19129149Y-18567149D01*
X19136291Y-18552863D01*
X19143434Y-18545720D01*
X19157720Y-18538577D01*
X19179149Y-18538577D01*
X19193434Y-18545720D01*
X19200577Y-18552863D01*
X19207720Y-18567149D01*
X19207720Y-18610006D01*
X19200577Y-18624291D01*
X19193434Y-18631434D01*
X19179149Y-18638577D01*
X19157720Y-18638577D01*
X19250577Y-18538577D02*
X19307720Y-18538577D01*
X19272006Y-18488577D02*
X19272006Y-18617149D01*
X19279149Y-18631434D01*
X19293434Y-18638577D01*
X19307720Y-18638577D01*
X19357720Y-18638577D02*
X19357720Y-18488577D01*
X19422006Y-18638577D02*
X19422006Y-18560006D01*
X19414863Y-18545720D01*
X19400577Y-18538577D01*
X19379149Y-18538577D01*
X19364863Y-18545720D01*
X19357720Y-18552863D01*
X19493434Y-18624291D02*
X19500577Y-18631434D01*
X19493434Y-18638577D01*
X19486291Y-18631434D01*
X19493434Y-18624291D01*
X19493434Y-18638577D01*
X19564863Y-18638577D02*
X19564863Y-18488577D01*
X19579149Y-18581434D02*
X19622006Y-18638577D01*
X19622006Y-18538577D02*
X19564863Y-18595720D01*
X19686291Y-18638577D02*
X19686291Y-18538577D01*
X19686291Y-18488577D02*
X19679149Y-18495720D01*
X19686291Y-18502863D01*
X19693434Y-18495720D01*
X19686291Y-18488577D01*
X19686291Y-18502863D01*
X19822006Y-18631434D02*
X19807720Y-18638577D01*
X19779149Y-18638577D01*
X19764863Y-18631434D01*
X19757720Y-18624291D01*
X19750577Y-18610006D01*
X19750577Y-18567149D01*
X19757720Y-18552863D01*
X19764863Y-18545720D01*
X19779149Y-18538577D01*
X19807720Y-18538577D01*
X19822006Y-18545720D01*
X19950577Y-18638577D02*
X19950577Y-18560006D01*
X19943434Y-18545720D01*
X19929149Y-18538577D01*
X19900577Y-18538577D01*
X19886291Y-18545720D01*
X19950577Y-18631434D02*
X19936291Y-18638577D01*
X19900577Y-18638577D01*
X19886291Y-18631434D01*
X19879149Y-18617149D01*
X19879149Y-18602863D01*
X19886291Y-18588577D01*
X19900577Y-18581434D01*
X19936291Y-18581434D01*
X19950577Y-18574291D01*
X20086291Y-18638577D02*
X20086291Y-18488577D01*
X20086291Y-18631434D02*
X20072006Y-18638577D01*
X20043434Y-18638577D01*
X20029149Y-18631434D01*
X20022006Y-18624291D01*
X20014863Y-18610006D01*
X20014863Y-18567149D01*
X20022006Y-18552863D01*
X20029149Y-18545720D01*
X20043434Y-18538577D01*
X20072006Y-18538577D01*
X20086291Y-18545720D01*
X20122006Y-18652863D02*
X20236291Y-18652863D01*
X20272006Y-18538577D02*
X20272006Y-18688577D01*
X20272006Y-18545720D02*
X20286291Y-18538577D01*
X20314863Y-18538577D01*
X20329149Y-18545720D01*
X20336291Y-18552863D01*
X20343434Y-18567149D01*
X20343434Y-18610006D01*
X20336291Y-18624291D01*
X20329149Y-18631434D01*
X20314863Y-18638577D01*
X20286291Y-18638577D01*
X20272006Y-18631434D01*
X20472006Y-18631434D02*
X20457720Y-18638577D01*
X20429149Y-18638577D01*
X20414863Y-18631434D01*
X20407720Y-18624291D01*
X20400577Y-18610006D01*
X20400577Y-18567149D01*
X20407720Y-18552863D01*
X20414863Y-18545720D01*
X20429149Y-18538577D01*
X20457720Y-18538577D01*
X20472006Y-18545720D01*
X20536291Y-18638577D02*
X20536291Y-18488577D01*
X20536291Y-18545720D02*
X20550577Y-18538577D01*
X20579149Y-18538577D01*
X20593434Y-18545720D01*
X20600577Y-18552863D01*
X20607720Y-18567149D01*
X20607720Y-18610006D01*
X20600577Y-18624291D01*
X20593434Y-18631434D01*
X20579149Y-18638577D01*
X20550577Y-18638577D01*
X20536291Y-18631434D01*
D10*
D11*
X17700220Y-18150720D02*
X28500220Y-18150720D01*
D10*
D11*
X17836291Y-18361434D02*
X17857720Y-18368577D01*
X17893434Y-18368577D01*
X17907720Y-18361434D01*
X17914863Y-18354291D01*
X17922006Y-18340006D01*
X17922006Y-18325720D01*
X17914863Y-18311434D01*
X17907720Y-18304291D01*
X17893434Y-18297149D01*
X17864863Y-18290006D01*
X17850577Y-18282863D01*
X17843434Y-18275720D01*
X17836291Y-18261434D01*
X17836291Y-18247149D01*
X17843434Y-18232863D01*
X17850577Y-18225720D01*
X17864863Y-18218577D01*
X17900577Y-18218577D01*
X17922006Y-18225720D01*
X17986291Y-18368577D02*
X17986291Y-18218577D01*
X18050577Y-18368577D02*
X18050577Y-18290006D01*
X18043434Y-18275720D01*
X18029149Y-18268577D01*
X18007720Y-18268577D01*
X17993434Y-18275720D01*
X17986291Y-18282863D01*
X18179149Y-18361434D02*
X18164863Y-18368577D01*
X18136291Y-18368577D01*
X18122006Y-18361434D01*
X18114863Y-18347149D01*
X18114863Y-18290006D01*
X18122006Y-18275720D01*
X18136291Y-18268577D01*
X18164863Y-18268577D01*
X18179149Y-18275720D01*
X18186291Y-18290006D01*
X18186291Y-18304291D01*
X18114863Y-18318577D01*
X18307720Y-18361434D02*
X18293434Y-18368577D01*
X18264863Y-18368577D01*
X18250577Y-18361434D01*
X18243434Y-18347149D01*
X18243434Y-18290006D01*
X18250577Y-18275720D01*
X18264863Y-18268577D01*
X18293434Y-18268577D01*
X18307720Y-18275720D01*
X18314863Y-18290006D01*
X18314863Y-18304291D01*
X18243434Y-18318577D01*
X18357720Y-18268577D02*
X18414863Y-18268577D01*
X18379149Y-18218577D02*
X18379149Y-18347149D01*
X18386291Y-18361434D01*
X18400577Y-18368577D01*
X18414863Y-18368577D01*
X18464863Y-18354291D02*
X18472006Y-18361434D01*
X18464863Y-18368577D01*
X18457720Y-18361434D01*
X18464863Y-18354291D01*
X18464863Y-18368577D01*
X18464863Y-18275720D02*
X18472006Y-18282863D01*
X18464863Y-18290006D01*
X18457720Y-18282863D01*
X18464863Y-18275720D01*
X18464863Y-18290006D01*
D10*
D11*
X19700220Y-19150720D02*
X19700220Y-19450720D01*
D10*
D11*
X26100220Y-19150720D02*
X26100220Y-19800720D01*
D14*
X14203885Y-10695339D02*
X14203885Y-10630339D01*
X13473733Y-10234651D02*
X13573733Y-10234651D01*
X13473733Y-9999651D02*
X13573733Y-9999651D01*
D15*
X13493733Y-10127151D02*
X13493733Y-10107151D01*
D14*
X13473733Y-10234651D02*
X13473733Y-10142151D01*
X14207545Y-10055598D02*
X14277545Y-10055598D01*
X14563129Y-10235581D02*
X14563129Y-10170581D01*
X14563129Y-10120581D02*
X14563129Y-10055581D01*
X13098894Y-10363247D02*
X13098894Y-10263247D01*
X13578505Y-9912495D02*
X13643505Y-9912495D01*
X13693505Y-9982495D02*
X13758505Y-9982495D01*
X13578505Y-9982495D02*
X13578505Y-9912495D01*
X13578505Y-9982495D02*
X13643505Y-9982495D01*
X14207545Y-10120598D02*
X14207545Y-10055598D01*
X14207545Y-10235597D02*
X14207545Y-10170598D01*
X14207545Y-10235597D02*
X14277545Y-10235597D01*
D15*
X14049793Y-10905347D02*
X14049793Y-10855347D01*
D14*
X13333893Y-10363247D02*
X13333893Y-10263247D01*
D15*
X13446136Y-9834142D02*
X13458992Y-9849463D01*
D14*
X13453313Y-9873810D02*
X13512771Y-9944669D01*
X13110265Y-10649619D02*
X13110265Y-10584619D01*
X13110265Y-10534619D02*
X13110265Y-10469619D01*
X13241393Y-10263247D02*
X13333893Y-10263247D01*
X13098894Y-10363247D02*
X13191394Y-10363247D01*
X13375914Y-9817436D02*
X13417696Y-9867229D01*
X13449835Y-9905531D02*
X13491616Y-9955325D01*
X14188645Y-10120598D02*
X14188645Y-10055598D01*
X14188645Y-10235597D02*
X14188645Y-10170598D01*
D16*
X13372294Y-10385347D02*
G75*
G03X13372294Y-10385347I-12500J0D01*
G01*
D14*
X12913042Y-10909579D02*
X12978042Y-10909579D01*
X13028042Y-10909579D02*
X13093042Y-10909579D01*
X13110265Y-10469619D02*
X13180265Y-10469619D01*
X13110265Y-10649619D02*
X13180265Y-10649619D01*
X13473733Y-10092151D02*
X13473733Y-9999651D01*
D15*
X13553733Y-10127151D02*
X13553733Y-10107151D01*
D14*
X13241402Y-10452379D02*
X13306402Y-10452379D01*
X13306402Y-10452379D02*
X13306402Y-10382379D01*
X13126402Y-10452379D02*
X13126402Y-10382379D01*
X13529917Y-9809531D02*
X13589375Y-9880390D01*
X13438320Y-9700370D02*
X13497778Y-9771229D01*
X14133885Y-10695339D02*
X14133885Y-10630339D01*
X14133885Y-10580339D02*
X14133885Y-10515339D01*
D15*
X13206394Y-10343247D02*
X13226394Y-10343247D01*
D14*
X13490322Y-11049279D02*
X13555322Y-11049279D01*
X13555322Y-11049279D02*
X13555322Y-10979279D01*
X13375322Y-11049279D02*
X13375322Y-10979279D01*
X13437993Y-10000320D02*
X13491616Y-9955325D01*
X13693505Y-9912495D02*
X13758505Y-9912495D01*
X14404337Y-10233589D02*
X14436337Y-10233589D01*
D15*
X13449794Y-10355347D02*
X13499794Y-10305347D01*
D14*
X13490322Y-10979279D02*
X13555322Y-10979279D01*
X13375322Y-11049279D02*
X13440322Y-11049279D01*
X13361716Y-9764648D02*
X13421173Y-9835507D01*
D15*
X13492099Y-9795575D02*
X13504955Y-9810896D01*
D14*
X14303122Y-10397619D02*
X14368122Y-10397619D01*
X14188122Y-10467619D02*
X14253122Y-10467619D01*
X14303122Y-10467619D02*
X14368122Y-10467619D01*
X14368122Y-10467619D02*
X14368122Y-10397619D01*
D15*
X13999794Y-10905347D02*
X14049793Y-10905347D01*
D14*
X13126402Y-10382379D02*
X13191402Y-10382379D01*
X13241402Y-10382379D02*
X13306402Y-10382379D01*
X13126402Y-10452379D02*
X13191402Y-10452379D01*
X14188122Y-10467619D02*
X14188122Y-10397619D01*
X13375322Y-10979279D02*
X13440322Y-10979279D01*
X14633129Y-10235581D02*
X14633129Y-10170581D01*
X14633129Y-10120581D02*
X14633129Y-10055581D01*
X14563129Y-10055581D02*
X14633129Y-10055581D01*
X14188105Y-10308735D02*
X14253105Y-10308735D01*
X14188105Y-10378735D02*
X14188105Y-10308735D01*
X14368105Y-10378735D02*
X14368105Y-10308735D01*
X14188122Y-10397619D02*
X14253122Y-10397619D01*
X13093042Y-10909579D02*
X13093042Y-10839579D01*
X12913042Y-10909579D02*
X12913042Y-10839579D01*
X13180265Y-10649619D02*
X13180265Y-10584619D01*
X13180265Y-10534619D02*
X13180265Y-10469619D01*
D15*
X14049793Y-10355347D02*
X14049793Y-10305347D01*
D14*
X13573733Y-10234651D02*
X13573733Y-10142151D01*
X13573733Y-10092151D02*
X13573733Y-9999651D01*
D15*
X13999794Y-10305347D02*
X14049793Y-10305347D01*
D14*
X13758505Y-9982495D02*
X13758505Y-9912495D01*
X14118645Y-10120598D02*
X14118645Y-10055598D01*
X14118645Y-10235597D02*
X14118645Y-10170598D01*
X14118645Y-10235597D02*
X14188645Y-10235597D01*
X14118645Y-10055598D02*
X14188645Y-10055598D01*
X14303105Y-10378735D02*
X14368105Y-10378735D01*
X14188105Y-10378735D02*
X14253105Y-10378735D01*
X14303105Y-10308735D02*
X14368105Y-10308735D01*
X13322292Y-9862431D02*
X13364073Y-9912224D01*
X13396212Y-9950527D02*
X13437993Y-10000320D01*
X14563129Y-10235581D02*
X14633129Y-10235581D01*
X12913042Y-10839579D02*
X12978042Y-10839579D01*
X13028042Y-10839579D02*
X13093042Y-10839579D01*
X14312337Y-10151589D02*
X14312337Y-10139589D01*
X14277545Y-10120598D02*
X14277545Y-10055598D01*
X14277545Y-10235597D02*
X14277545Y-10170598D01*
D15*
X13449794Y-10905347D02*
X13499794Y-10905347D01*
D14*
X13098894Y-10263247D02*
X13191394Y-10263247D01*
D15*
X13078034Y-10703447D02*
X13078034Y-10583447D01*
D14*
X14528337Y-10151589D02*
X14528337Y-10139589D01*
X13322292Y-9862431D02*
X13375914Y-9817436D01*
D15*
X13206394Y-10283247D02*
X13226394Y-10283247D01*
D14*
X14404337Y-10057589D02*
X14436337Y-10057589D01*
X14133885Y-10695339D02*
X14203885Y-10695339D01*
X14133885Y-10515339D02*
X14203885Y-10515339D01*
X14203885Y-10580339D02*
X14203885Y-10515339D01*
D15*
X13449794Y-10905347D02*
X13449794Y-10855347D01*
D14*
X13241393Y-10363247D02*
X13333893Y-10363247D01*
D15*
X12928034Y-10703447D02*
X12928034Y-10583447D01*
D14*
X13361716Y-9764648D02*
X13438320Y-9700370D01*
X13512771Y-9944669D02*
X13589375Y-9880390D01*
D10*
X13229297Y-10933653D02*
X13226031Y-10936919D01*
X13216234Y-10940184D01*
X13209703Y-10940184D01*
X13199906Y-10936919D01*
X13193374Y-10930387D01*
X13190108Y-10923856D01*
X13186843Y-10910793D01*
X13186843Y-10900996D01*
X13190108Y-10887933D01*
X13193374Y-10881401D01*
X13199906Y-10874870D01*
X13209703Y-10871604D01*
X13216234Y-10871604D01*
X13226031Y-10874870D01*
X13229297Y-10878136D01*
X13294611Y-10940184D02*
X13255423Y-10940184D01*
X13275017Y-10940184D02*
X13275017Y-10871604D01*
X13268486Y-10881401D01*
X13261954Y-10887933D01*
X13255423Y-10891199D01*
X13320737Y-10878136D02*
X13324003Y-10874870D01*
X13330534Y-10871604D01*
X13346863Y-10871604D01*
X13353394Y-10874870D01*
X13356660Y-10878136D01*
X13359926Y-10884667D01*
X13359926Y-10891199D01*
X13356660Y-10900996D01*
X13317471Y-10940184D01*
X13359926Y-10940184D01*
X13498915Y-9776550D02*
X13494314Y-9776147D01*
X13485515Y-9770741D01*
X13481317Y-9765738D01*
X13477521Y-9756134D01*
X13478326Y-9746932D01*
X13481230Y-9740232D01*
X13489138Y-9729334D01*
X13496643Y-9723036D01*
X13508749Y-9717141D01*
X13515851Y-9715445D01*
X13525053Y-9716250D01*
X13533852Y-9721655D01*
X13538050Y-9726659D01*
X13541846Y-9736263D01*
X13541444Y-9740864D01*
X13535895Y-9830782D02*
X13510705Y-9800761D01*
X13523300Y-9815771D02*
X13575835Y-9771689D01*
X13564132Y-9772983D01*
X13554930Y-9772178D01*
X13548230Y-9769274D01*
X13615719Y-9819221D02*
X13619918Y-9824224D01*
X13621614Y-9831327D01*
X13621212Y-9835928D01*
X13618308Y-9842628D01*
X13610400Y-9853526D01*
X13597892Y-9864022D01*
X13585786Y-9869917D01*
X13578683Y-9871614D01*
X13574082Y-9871211D01*
X13567382Y-9868307D01*
X13563184Y-9863303D01*
X13561487Y-9856201D01*
X13561890Y-9851600D01*
X13564794Y-9844900D01*
X13572702Y-9834002D01*
X13585210Y-9823506D01*
X13597316Y-9817611D01*
X13604419Y-9815914D01*
X13609019Y-9816317D01*
X13615719Y-9819221D01*
X13312899Y-9988447D02*
X13291908Y-9963430D01*
X13344443Y-9919347D01*
X13375931Y-9956873D02*
X13403220Y-9989394D01*
X13368512Y-9988676D01*
X13374810Y-9996181D01*
X13376506Y-10003284D01*
X13376104Y-10007884D01*
X13373199Y-10014584D01*
X13360691Y-10025080D01*
X13353589Y-10026777D01*
X13348988Y-10026374D01*
X13342288Y-10023470D01*
X13329693Y-10008460D01*
X13327996Y-10001357D01*
X13328399Y-9996757D01*
X13480898Y-10114496D02*
X13480898Y-10147153D01*
X13412318Y-10147153D01*
X13418850Y-10094902D02*
X13415584Y-10091636D01*
X13412318Y-10085105D01*
X13412318Y-10068776D01*
X13415584Y-10062245D01*
X13418850Y-10058979D01*
X13425381Y-10055713D01*
X13431912Y-10055713D01*
X13441710Y-10058979D01*
X13480898Y-10098168D01*
X13480898Y-10055713D01*
X12991017Y-10451493D02*
X12987751Y-10454759D01*
X12977954Y-10458024D01*
X12971423Y-10458024D01*
X12961626Y-10454759D01*
X12955094Y-10448227D01*
X12951828Y-10441696D01*
X12948563Y-10428633D01*
X12948563Y-10418836D01*
X12951828Y-10405773D01*
X12955094Y-10399241D01*
X12961626Y-10392710D01*
X12971423Y-10389444D01*
X12977954Y-10389444D01*
X12987751Y-10392710D01*
X12991017Y-10395976D01*
X13049800Y-10412304D02*
X13049800Y-10458024D01*
X13033471Y-10386179D02*
X13017143Y-10435164D01*
X13059597Y-10435164D01*
X13646502Y-11074619D02*
X13643236Y-11077885D01*
X13633439Y-11081150D01*
X13626908Y-11081150D01*
X13617111Y-11077885D01*
X13610579Y-11071353D01*
X13607313Y-11064822D01*
X13604048Y-11051759D01*
X13604048Y-11041962D01*
X13607313Y-11028899D01*
X13610579Y-11022367D01*
X13617111Y-11015836D01*
X13626908Y-11012570D01*
X13633439Y-11012570D01*
X13643236Y-11015836D01*
X13646502Y-11019102D01*
X13708551Y-11012570D02*
X13675893Y-11012570D01*
X13672628Y-11045227D01*
X13675893Y-11041962D01*
X13682425Y-11038696D01*
X13698753Y-11038696D01*
X13705285Y-11041962D01*
X13708551Y-11045227D01*
X13711816Y-11051759D01*
X13711816Y-11068087D01*
X13708551Y-11074619D01*
X13705285Y-11077885D01*
X13698753Y-11081150D01*
X13682425Y-11081150D01*
X13675893Y-11077885D01*
X13672628Y-11074619D01*
X14498017Y-10372493D02*
X14494751Y-10375759D01*
X14484954Y-10379024D01*
X14478423Y-10379024D01*
X14468626Y-10375759D01*
X14462094Y-10369227D01*
X14458828Y-10362696D01*
X14455563Y-10349633D01*
X14455563Y-10339836D01*
X14458828Y-10326773D01*
X14462094Y-10320241D01*
X14468626Y-10313710D01*
X14478423Y-10310444D01*
X14484954Y-10310444D01*
X14494751Y-10313710D01*
X14498017Y-10316976D01*
X14520877Y-10310444D02*
X14566597Y-10310444D01*
X14537206Y-10379024D01*
X14732493Y-10165983D02*
X14735758Y-10169249D01*
X14739024Y-10179046D01*
X14739024Y-10185577D01*
X14735758Y-10195374D01*
X14729227Y-10201906D01*
X14722696Y-10205171D01*
X14709633Y-10208437D01*
X14699836Y-10208437D01*
X14686773Y-10205171D01*
X14680241Y-10201906D01*
X14673710Y-10195374D01*
X14670444Y-10185577D01*
X14670444Y-10179046D01*
X14673710Y-10169249D01*
X14676976Y-10165983D01*
X14739024Y-10100669D02*
X14739024Y-10139857D01*
X14739024Y-10120263D02*
X14670444Y-10120263D01*
X14680241Y-10126794D01*
X14686773Y-10133326D01*
X14690038Y-10139857D01*
X14388174Y-9985604D02*
X14433894Y-10054184D01*
X14433894Y-9985604D02*
X14388174Y-10054184D01*
X14495943Y-10054184D02*
X14456754Y-10054184D01*
X14476348Y-10054184D02*
X14476348Y-9985604D01*
X14469817Y-9995401D01*
X14463285Y-10001933D01*
X14456754Y-10005199D01*
X14212857Y-9919303D02*
X14216122Y-9922569D01*
X14219388Y-9932366D01*
X14219388Y-9938897D01*
X14216122Y-9948694D01*
X14209591Y-9955226D01*
X14203060Y-9958491D01*
X14189997Y-9961757D01*
X14180200Y-9961757D01*
X14167137Y-9958491D01*
X14160605Y-9955226D01*
X14154074Y-9948694D01*
X14150808Y-9938897D01*
X14150808Y-9932366D01*
X14154074Y-9922569D01*
X14157340Y-9919303D01*
X14180200Y-9880114D02*
X14176934Y-9886646D01*
X14173668Y-9889911D01*
X14167137Y-9893177D01*
X14163871Y-9893177D01*
X14157340Y-9889911D01*
X14154074Y-9886646D01*
X14150808Y-9880114D01*
X14150808Y-9867051D01*
X14154074Y-9860520D01*
X14157340Y-9857254D01*
X14163871Y-9853989D01*
X14167137Y-9853989D01*
X14173668Y-9857254D01*
X14176934Y-9860520D01*
X14180200Y-9867051D01*
X14180200Y-9880114D01*
X14183465Y-9886646D01*
X14186731Y-9889911D01*
X14193262Y-9893177D01*
X14206325Y-9893177D01*
X14212857Y-9889911D01*
X14216122Y-9886646D01*
X14219388Y-9880114D01*
X14219388Y-9867051D01*
X14216122Y-9860520D01*
X14212857Y-9857254D01*
X14206325Y-9853989D01*
X14193262Y-9853989D01*
X14186731Y-9857254D01*
X14183465Y-9860520D01*
X14180200Y-9867051D01*
X13004017Y-10335493D02*
X13000751Y-10338759D01*
X12990954Y-10342024D01*
X12984423Y-10342024D01*
X12974626Y-10338759D01*
X12968094Y-10332227D01*
X12964828Y-10325696D01*
X12961563Y-10312633D01*
X12961563Y-10302836D01*
X12964828Y-10289773D01*
X12968094Y-10283241D01*
X12974626Y-10276710D01*
X12984423Y-10273444D01*
X12990954Y-10273444D01*
X13000751Y-10276710D01*
X13004017Y-10279976D01*
X13036674Y-10342024D02*
X13049737Y-10342024D01*
X13056268Y-10338759D01*
X13059534Y-10335493D01*
X13066066Y-10325696D01*
X13069331Y-10312633D01*
X13069331Y-10286507D01*
X13066066Y-10279976D01*
X13062800Y-10276710D01*
X13056268Y-10273444D01*
X13043206Y-10273444D01*
X13036674Y-10276710D01*
X13033408Y-10279976D01*
X13030143Y-10286507D01*
X13030143Y-10302836D01*
X13033408Y-10309367D01*
X13036674Y-10312633D01*
X13043206Y-10315899D01*
X13056268Y-10315899D01*
X13062800Y-10312633D01*
X13066066Y-10309367D01*
X13069331Y-10302836D01*
X14491017Y-10455493D02*
X14487751Y-10458759D01*
X14477954Y-10462024D01*
X14471423Y-10462024D01*
X14461626Y-10458759D01*
X14455094Y-10452227D01*
X14451828Y-10445696D01*
X14448563Y-10432633D01*
X14448563Y-10422836D01*
X14451828Y-10409773D01*
X14455094Y-10403241D01*
X14461626Y-10396710D01*
X14471423Y-10393444D01*
X14477954Y-10393444D01*
X14487751Y-10396710D01*
X14491017Y-10399976D01*
X14549800Y-10393444D02*
X14536737Y-10393444D01*
X14530206Y-10396710D01*
X14526940Y-10399976D01*
X14520408Y-10409773D01*
X14517143Y-10422836D01*
X14517143Y-10448961D01*
X14520408Y-10455493D01*
X14523674Y-10458759D01*
X14530206Y-10462024D01*
X14543268Y-10462024D01*
X14549800Y-10458759D01*
X14553066Y-10455493D01*
X14556331Y-10448961D01*
X14556331Y-10432633D01*
X14553066Y-10426101D01*
X14549800Y-10422836D01*
X14543268Y-10419570D01*
X14530206Y-10419570D01*
X14523674Y-10422836D01*
X14520408Y-10426101D01*
X14517143Y-10432633D01*
X14301757Y-9919303D02*
X14305022Y-9922569D01*
X14308288Y-9932366D01*
X14308288Y-9938897D01*
X14305022Y-9948694D01*
X14298491Y-9955226D01*
X14291960Y-9958491D01*
X14278897Y-9961757D01*
X14269100Y-9961757D01*
X14256037Y-9958491D01*
X14249505Y-9955226D01*
X14242974Y-9948694D01*
X14239708Y-9938897D01*
X14239708Y-9932366D01*
X14242974Y-9922569D01*
X14246240Y-9919303D01*
X14246240Y-9893177D02*
X14242974Y-9889911D01*
X14239708Y-9883380D01*
X14239708Y-9867051D01*
X14242974Y-9860520D01*
X14246240Y-9857254D01*
X14252771Y-9853989D01*
X14259302Y-9853989D01*
X14269100Y-9857254D01*
X14308288Y-9896443D01*
X14308288Y-9853989D01*
X14228093Y-10821743D02*
X14231358Y-10825009D01*
X14234624Y-10834806D01*
X14234624Y-10841337D01*
X14231358Y-10851134D01*
X14224827Y-10857666D01*
X14218296Y-10860931D01*
X14205233Y-10864197D01*
X14195436Y-10864197D01*
X14182373Y-10860931D01*
X14175841Y-10857666D01*
X14169310Y-10851134D01*
X14166044Y-10841337D01*
X14166044Y-10834806D01*
X14169310Y-10825009D01*
X14172576Y-10821743D01*
X14166044Y-10798883D02*
X14166044Y-10756429D01*
X14192170Y-10779289D01*
X14192170Y-10769491D01*
X14195436Y-10762960D01*
X14198701Y-10759694D01*
X14205233Y-10756429D01*
X14221561Y-10756429D01*
X14228093Y-10759694D01*
X14231358Y-10762960D01*
X14234624Y-10769491D01*
X14234624Y-10789086D01*
X14231358Y-10795617D01*
X14228093Y-10798883D01*
X13141051Y-10765402D02*
X13186771Y-10833982D01*
X13186771Y-10765402D02*
X13141051Y-10833982D01*
X13209631Y-10771934D02*
X13212897Y-10768668D01*
X13219428Y-10765402D01*
X13235757Y-10765402D01*
X13242288Y-10768668D01*
X13245554Y-10771934D01*
X13248820Y-10778465D01*
X13248820Y-10784997D01*
X13245554Y-10794794D01*
X13206365Y-10833982D01*
X13248820Y-10833982D01*
X13294027Y-10586001D02*
X13297292Y-10589267D01*
X13300558Y-10599064D01*
X13300558Y-10605595D01*
X13297292Y-10615392D01*
X13290761Y-10621924D01*
X13284230Y-10625189D01*
X13271167Y-10628455D01*
X13261370Y-10628455D01*
X13248307Y-10625189D01*
X13241775Y-10621924D01*
X13235244Y-10615392D01*
X13231978Y-10605595D01*
X13231978Y-10599064D01*
X13235244Y-10589267D01*
X13238510Y-10586001D01*
X13300558Y-10520687D02*
X13300558Y-10559875D01*
X13300558Y-10540281D02*
X13231978Y-10540281D01*
X13241775Y-10546812D01*
X13248307Y-10553344D01*
X13251572Y-10559875D01*
X13300558Y-10455372D02*
X13300558Y-10494561D01*
X13300558Y-10474967D02*
X13231978Y-10474967D01*
X13241775Y-10481498D01*
X13248307Y-10488029D01*
X13251572Y-10494561D01*
X13849711Y-10007031D02*
X13846445Y-10010297D01*
X13836648Y-10013562D01*
X13830117Y-10013562D01*
X13820320Y-10010297D01*
X13813788Y-10003765D01*
X13810522Y-9997234D01*
X13807257Y-9984171D01*
X13807257Y-9974374D01*
X13810522Y-9961311D01*
X13813788Y-9954779D01*
X13820320Y-9948248D01*
X13830117Y-9944982D01*
X13836648Y-9944982D01*
X13846445Y-9948248D01*
X13849711Y-9951514D01*
X13915025Y-10013562D02*
X13875837Y-10013562D01*
X13895431Y-10013562D02*
X13895431Y-9944982D01*
X13888900Y-9954779D01*
X13882368Y-9961311D01*
X13875837Y-9964577D01*
X13937885Y-9944982D02*
X13980340Y-9944982D01*
X13957480Y-9971108D01*
X13967277Y-9971108D01*
X13973808Y-9974374D01*
X13977074Y-9977639D01*
X13980340Y-9984171D01*
X13980340Y-10000499D01*
X13977074Y-10007031D01*
X13973808Y-10010297D01*
X13967277Y-10013562D01*
X13947682Y-10013562D01*
X13941151Y-10010297D01*
X13937885Y-10007031D01*
X13674024Y-12286095D02*
X13674024Y-12246095D01*
X13689262Y-12246095D01*
X13693071Y-12248000D01*
X13694976Y-12249905D01*
X13696881Y-12253714D01*
X13696881Y-12259428D01*
X13694976Y-12263238D01*
X13693071Y-12265143D01*
X13689262Y-12267048D01*
X13674024Y-12267048D01*
X13721643Y-12246095D02*
X13725452Y-12246095D01*
X13729262Y-12248000D01*
X13731167Y-12249905D01*
X13733071Y-12253714D01*
X13734976Y-12261333D01*
X13734976Y-12270857D01*
X13733071Y-12278476D01*
X13731167Y-12282286D01*
X13729262Y-12284190D01*
X13725452Y-12286095D01*
X13721643Y-12286095D01*
X13717833Y-12284190D01*
X13715928Y-12282286D01*
X13714024Y-12278476D01*
X13712119Y-12270857D01*
X13712119Y-12261333D01*
X13714024Y-12253714D01*
X13715928Y-12249905D01*
X13717833Y-12248000D01*
X13721643Y-12246095D01*
X13752119Y-12282286D02*
X13754024Y-12284190D01*
X13752119Y-12286095D01*
X13750214Y-12284190D01*
X13752119Y-12282286D01*
X13752119Y-12286095D01*
X13792119Y-12286095D02*
X13769262Y-12286095D01*
X13780690Y-12286095D02*
X13780690Y-12246095D01*
X13776881Y-12251809D01*
X13773071Y-12255619D01*
X13769262Y-12257524D01*
X13828309Y-12246095D02*
X13809262Y-12246095D01*
X13807357Y-12265143D01*
X13809262Y-12263238D01*
X13813071Y-12261333D01*
X13822595Y-12261333D01*
X13826405Y-12263238D01*
X13828309Y-12265143D01*
X13830214Y-12268952D01*
X13830214Y-12278476D01*
X13828309Y-12282286D01*
X13826405Y-12284190D01*
X13822595Y-12286095D01*
X13813071Y-12286095D01*
X13809262Y-12284190D01*
X13807357Y-12282286D01*
X13702300Y-11784823D02*
X13702300Y-11744823D01*
X13717538Y-11744823D01*
X13721347Y-11746728D01*
X13723252Y-11748633D01*
X13725157Y-11752442D01*
X13725157Y-11758156D01*
X13723252Y-11761966D01*
X13721347Y-11763871D01*
X13717538Y-11765776D01*
X13702300Y-11765776D01*
X13749919Y-11744823D02*
X13753728Y-11744823D01*
X13757538Y-11746728D01*
X13759443Y-11748633D01*
X13761347Y-11752442D01*
X13763252Y-11760061D01*
X13763252Y-11769585D01*
X13761347Y-11777204D01*
X13759443Y-11781014D01*
X13757538Y-11782918D01*
X13753728Y-11784823D01*
X13749919Y-11784823D01*
X13746109Y-11782918D01*
X13744204Y-11781014D01*
X13742300Y-11777204D01*
X13740395Y-11769585D01*
X13740395Y-11760061D01*
X13742300Y-11752442D01*
X13744204Y-11748633D01*
X13746109Y-11746728D01*
X13749919Y-11744823D01*
X13780395Y-11781014D02*
X13782300Y-11782918D01*
X13780395Y-11784823D01*
X13778490Y-11782918D01*
X13780395Y-11781014D01*
X13780395Y-11784823D01*
X13820395Y-11784823D02*
X13797538Y-11784823D01*
X13808966Y-11784823D02*
X13808966Y-11744823D01*
X13805157Y-11750537D01*
X13801347Y-11754347D01*
X13797538Y-11756252D01*
X13854681Y-11758156D02*
X13854681Y-11784823D01*
X13845157Y-11742918D02*
X13835633Y-11771490D01*
X13860395Y-11771490D01*
X13886691Y-11567680D02*
X13846780Y-11565013D01*
X13847796Y-11549809D01*
X13849951Y-11546135D01*
X13851978Y-11544361D01*
X13855907Y-11542715D01*
X13861608Y-11543096D01*
X13865282Y-11545250D01*
X13867056Y-11547278D01*
X13868702Y-11551206D01*
X13867686Y-11566410D01*
X13849956Y-11517500D02*
X13850210Y-11513699D01*
X13852364Y-11510025D01*
X13854392Y-11508251D01*
X13858320Y-11506605D01*
X13866049Y-11505212D01*
X13875551Y-11505848D01*
X13883026Y-11508256D01*
X13886700Y-11510411D01*
X13888474Y-11512438D01*
X13890121Y-11516366D01*
X13889866Y-11520167D01*
X13887712Y-11523841D01*
X13885684Y-11525615D01*
X13881756Y-11527261D01*
X13874027Y-11528654D01*
X13864525Y-11528019D01*
X13857050Y-11525610D01*
X13853376Y-11523456D01*
X13851602Y-11521428D01*
X13849956Y-11517500D01*
X13888098Y-11489505D02*
X13890125Y-11487731D01*
X13891899Y-11489759D01*
X13889871Y-11491532D01*
X13888098Y-11489505D01*
X13891899Y-11489759D01*
X13894566Y-11449848D02*
X13893042Y-11472654D01*
X13893804Y-11461251D02*
X13853893Y-11458584D01*
X13859340Y-11462766D01*
X13862887Y-11466821D01*
X13864534Y-11470749D01*
X13855544Y-11433877D02*
X13857322Y-11407270D01*
X13896090Y-11427042D01*
X13421024Y-12284095D02*
X13421024Y-12244095D01*
X13436262Y-12244095D01*
X13440071Y-12246000D01*
X13441976Y-12247905D01*
X13443881Y-12251714D01*
X13443881Y-12257428D01*
X13441976Y-12261238D01*
X13440071Y-12263143D01*
X13436262Y-12265048D01*
X13421024Y-12265048D01*
X13468643Y-12244095D02*
X13472452Y-12244095D01*
X13476262Y-12246000D01*
X13478167Y-12247905D01*
X13480071Y-12251714D01*
X13481976Y-12259333D01*
X13481976Y-12268857D01*
X13480071Y-12276476D01*
X13478167Y-12280286D01*
X13476262Y-12282190D01*
X13472452Y-12284095D01*
X13468643Y-12284095D01*
X13464833Y-12282190D01*
X13462928Y-12280286D01*
X13461024Y-12276476D01*
X13459119Y-12268857D01*
X13459119Y-12259333D01*
X13461024Y-12251714D01*
X13462928Y-12247905D01*
X13464833Y-12246000D01*
X13468643Y-12244095D01*
X13499119Y-12280286D02*
X13501024Y-12282190D01*
X13499119Y-12284095D01*
X13497214Y-12282190D01*
X13499119Y-12280286D01*
X13499119Y-12284095D01*
X13539119Y-12284095D02*
X13516262Y-12284095D01*
X13527690Y-12284095D02*
X13527690Y-12244095D01*
X13523881Y-12249809D01*
X13520071Y-12253619D01*
X13516262Y-12255524D01*
X13573405Y-12244095D02*
X13565786Y-12244095D01*
X13561976Y-12246000D01*
X13560071Y-12247905D01*
X13556262Y-12253619D01*
X13554357Y-12261238D01*
X13554357Y-12276476D01*
X13556262Y-12280286D01*
X13558167Y-12282190D01*
X13561976Y-12284095D01*
X13569595Y-12284095D01*
X13573405Y-12282190D01*
X13575309Y-12280286D01*
X13577214Y-12276476D01*
X13577214Y-12266952D01*
X13575309Y-12263143D01*
X13573405Y-12261238D01*
X13569595Y-12259333D01*
X13561976Y-12259333D01*
X13558167Y-12261238D01*
X13556262Y-12263143D01*
X13554357Y-12266952D01*
X13425890Y-11787795D02*
X13425890Y-11747795D01*
X13441128Y-11747795D01*
X13444937Y-11749700D01*
X13446842Y-11751605D01*
X13448747Y-11755414D01*
X13448747Y-11761128D01*
X13446842Y-11764938D01*
X13444937Y-11766843D01*
X13441128Y-11768748D01*
X13425890Y-11768748D01*
X13473509Y-11747795D02*
X13477318Y-11747795D01*
X13481128Y-11749700D01*
X13483033Y-11751605D01*
X13484937Y-11755414D01*
X13486842Y-11763033D01*
X13486842Y-11772557D01*
X13484937Y-11780176D01*
X13483033Y-11783986D01*
X13481128Y-11785890D01*
X13477318Y-11787795D01*
X13473509Y-11787795D01*
X13469699Y-11785890D01*
X13467794Y-11783986D01*
X13465890Y-11780176D01*
X13463985Y-11772557D01*
X13463985Y-11763033D01*
X13465890Y-11755414D01*
X13467794Y-11751605D01*
X13469699Y-11749700D01*
X13473509Y-11747795D01*
X13503985Y-11783986D02*
X13505890Y-11785890D01*
X13503985Y-11787795D01*
X13502080Y-11785890D01*
X13503985Y-11783986D01*
X13503985Y-11787795D01*
X13543985Y-11787795D02*
X13521128Y-11787795D01*
X13532556Y-11787795D02*
X13532556Y-11747795D01*
X13528747Y-11753509D01*
X13524937Y-11757319D01*
X13521128Y-11759224D01*
X13557318Y-11747795D02*
X13582080Y-11747795D01*
X13568747Y-11763033D01*
X13574461Y-11763033D01*
X13578271Y-11764938D01*
X13580175Y-11766843D01*
X13582080Y-11770652D01*
X13582080Y-11780176D01*
X13580175Y-11783986D01*
X13578271Y-11785890D01*
X13574461Y-11787795D01*
X13563033Y-11787795D01*
X13559223Y-11785890D01*
X13557318Y-11783986D01*
X13425890Y-11538135D02*
X13425890Y-11498135D01*
X13441128Y-11498135D01*
X13444937Y-11500040D01*
X13446842Y-11501945D01*
X13448747Y-11505754D01*
X13448747Y-11511468D01*
X13446842Y-11515278D01*
X13444937Y-11517183D01*
X13441128Y-11519088D01*
X13425890Y-11519088D01*
X13473509Y-11498135D02*
X13477318Y-11498135D01*
X13481128Y-11500040D01*
X13483033Y-11501945D01*
X13484937Y-11505754D01*
X13486842Y-11513373D01*
X13486842Y-11522897D01*
X13484937Y-11530516D01*
X13483033Y-11534326D01*
X13481128Y-11536230D01*
X13477318Y-11538135D01*
X13473509Y-11538135D01*
X13469699Y-11536230D01*
X13467794Y-11534326D01*
X13465890Y-11530516D01*
X13463985Y-11522897D01*
X13463985Y-11513373D01*
X13465890Y-11505754D01*
X13467794Y-11501945D01*
X13469699Y-11500040D01*
X13473509Y-11498135D01*
X13503985Y-11534326D02*
X13505890Y-11536230D01*
X13503985Y-11538135D01*
X13502080Y-11536230D01*
X13503985Y-11534326D01*
X13503985Y-11538135D01*
X13543985Y-11538135D02*
X13521128Y-11538135D01*
X13532556Y-11538135D02*
X13532556Y-11498135D01*
X13528747Y-11503849D01*
X13524937Y-11507659D01*
X13521128Y-11509564D01*
X13559223Y-11501945D02*
X13561128Y-11500040D01*
X13564937Y-11498135D01*
X13574461Y-11498135D01*
X13578271Y-11500040D01*
X13580175Y-11501945D01*
X13582080Y-11505754D01*
X13582080Y-11509564D01*
X13580175Y-11515278D01*
X13557318Y-11538135D01*
X13582080Y-11538135D01*
X13442237Y-11275100D02*
X13442237Y-11235100D01*
X13457475Y-11235100D01*
X13461284Y-11237005D01*
X13463189Y-11238910D01*
X13465094Y-11242719D01*
X13465094Y-11248433D01*
X13463189Y-11252243D01*
X13461284Y-11254148D01*
X13457475Y-11256053D01*
X13442237Y-11256053D01*
X13489856Y-11235100D02*
X13493665Y-11235100D01*
X13497475Y-11237005D01*
X13499380Y-11238910D01*
X13501284Y-11242719D01*
X13503189Y-11250338D01*
X13503189Y-11259862D01*
X13501284Y-11267481D01*
X13499380Y-11271291D01*
X13497475Y-11273195D01*
X13493665Y-11275100D01*
X13489856Y-11275100D01*
X13486046Y-11273195D01*
X13484141Y-11271291D01*
X13482237Y-11267481D01*
X13480332Y-11259862D01*
X13480332Y-11250338D01*
X13482237Y-11242719D01*
X13484141Y-11238910D01*
X13486046Y-11237005D01*
X13489856Y-11235100D01*
X13520332Y-11271291D02*
X13522237Y-11273195D01*
X13520332Y-11275100D01*
X13518427Y-11273195D01*
X13520332Y-11271291D01*
X13520332Y-11275100D01*
X13560332Y-11275100D02*
X13537475Y-11275100D01*
X13548903Y-11275100D02*
X13548903Y-11235100D01*
X13545094Y-11240814D01*
X13541284Y-11244624D01*
X13537475Y-11246529D01*
X13598427Y-11275100D02*
X13575570Y-11275100D01*
X13586999Y-11275100D02*
X13586999Y-11235100D01*
X13583189Y-11240814D01*
X13579380Y-11244624D01*
X13575570Y-11246529D01*
X12566945Y-12044880D02*
X12566945Y-12004880D01*
X12582183Y-12004880D01*
X12585992Y-12006785D01*
X12587897Y-12008690D01*
X12589802Y-12012499D01*
X12589802Y-12018213D01*
X12587897Y-12022023D01*
X12585992Y-12023928D01*
X12582183Y-12025833D01*
X12566945Y-12025833D01*
X12614564Y-12004880D02*
X12618373Y-12004880D01*
X12622183Y-12006785D01*
X12624088Y-12008690D01*
X12625992Y-12012499D01*
X12627897Y-12020118D01*
X12627897Y-12029642D01*
X12625992Y-12037261D01*
X12624088Y-12041071D01*
X12622183Y-12042975D01*
X12618373Y-12044880D01*
X12614564Y-12044880D01*
X12610754Y-12042975D01*
X12608849Y-12041071D01*
X12606945Y-12037261D01*
X12605040Y-12029642D01*
X12605040Y-12020118D01*
X12606945Y-12012499D01*
X12608849Y-12008690D01*
X12610754Y-12006785D01*
X12614564Y-12004880D01*
X12645040Y-12041071D02*
X12646945Y-12042975D01*
X12645040Y-12044880D01*
X12643135Y-12042975D01*
X12645040Y-12041071D01*
X12645040Y-12044880D01*
X12671707Y-12004880D02*
X12675516Y-12004880D01*
X12679326Y-12006785D01*
X12681230Y-12008690D01*
X12683135Y-12012499D01*
X12685040Y-12020118D01*
X12685040Y-12029642D01*
X12683135Y-12037261D01*
X12681230Y-12041071D01*
X12679326Y-12042975D01*
X12675516Y-12044880D01*
X12671707Y-12044880D01*
X12667897Y-12042975D01*
X12665992Y-12041071D01*
X12664088Y-12037261D01*
X12662183Y-12029642D01*
X12662183Y-12020118D01*
X12664088Y-12012499D01*
X12665992Y-12008690D01*
X12667897Y-12006785D01*
X12671707Y-12004880D01*
X12707897Y-12022023D02*
X12704088Y-12020118D01*
X12702183Y-12018213D01*
X12700278Y-12014404D01*
X12700278Y-12012499D01*
X12702183Y-12008690D01*
X12704088Y-12006785D01*
X12707897Y-12004880D01*
X12715516Y-12004880D01*
X12719326Y-12006785D01*
X12721230Y-12008690D01*
X12723135Y-12012499D01*
X12723135Y-12014404D01*
X12721230Y-12018213D01*
X12719326Y-12020118D01*
X12715516Y-12022023D01*
X12707897Y-12022023D01*
X12704088Y-12023928D01*
X12702183Y-12025833D01*
X12700278Y-12029642D01*
X12700278Y-12037261D01*
X12702183Y-12041071D01*
X12704088Y-12042975D01*
X12707897Y-12044880D01*
X12715516Y-12044880D01*
X12719326Y-12042975D01*
X12721230Y-12041071D01*
X12723135Y-12037261D01*
X12723135Y-12029642D01*
X12721230Y-12025833D01*
X12719326Y-12023928D01*
X12715516Y-12022023D01*
X12565459Y-11790761D02*
X12565459Y-11750761D01*
X12580697Y-11750761D01*
X12584506Y-11752666D01*
X12586411Y-11754571D01*
X12588316Y-11758380D01*
X12588316Y-11764094D01*
X12586411Y-11767904D01*
X12584506Y-11769809D01*
X12580697Y-11771714D01*
X12565459Y-11771714D01*
X12613078Y-11750761D02*
X12616887Y-11750761D01*
X12620697Y-11752666D01*
X12622602Y-11754571D01*
X12624506Y-11758380D01*
X12626411Y-11765999D01*
X12626411Y-11775523D01*
X12624506Y-11783142D01*
X12622602Y-11786952D01*
X12620697Y-11788856D01*
X12616887Y-11790761D01*
X12613078Y-11790761D01*
X12609268Y-11788856D01*
X12607363Y-11786952D01*
X12605459Y-11783142D01*
X12603554Y-11775523D01*
X12603554Y-11765999D01*
X12605459Y-11758380D01*
X12607363Y-11754571D01*
X12609268Y-11752666D01*
X12613078Y-11750761D01*
X12643554Y-11786952D02*
X12645459Y-11788856D01*
X12643554Y-11790761D01*
X12641649Y-11788856D01*
X12643554Y-11786952D01*
X12643554Y-11790761D01*
X12670221Y-11750761D02*
X12674030Y-11750761D01*
X12677840Y-11752666D01*
X12679744Y-11754571D01*
X12681649Y-11758380D01*
X12683554Y-11765999D01*
X12683554Y-11775523D01*
X12681649Y-11783142D01*
X12679744Y-11786952D01*
X12677840Y-11788856D01*
X12674030Y-11790761D01*
X12670221Y-11790761D01*
X12666411Y-11788856D01*
X12664506Y-11786952D01*
X12662602Y-11783142D01*
X12660697Y-11775523D01*
X12660697Y-11765999D01*
X12662602Y-11758380D01*
X12664506Y-11754571D01*
X12666411Y-11752666D01*
X12670221Y-11750761D01*
X12717840Y-11750761D02*
X12710221Y-11750761D01*
X12706411Y-11752666D01*
X12704506Y-11754571D01*
X12700697Y-11760285D01*
X12698792Y-11767904D01*
X12698792Y-11783142D01*
X12700697Y-11786952D01*
X12702602Y-11788856D01*
X12706411Y-11790761D01*
X12714030Y-11790761D01*
X12717840Y-11788856D01*
X12719744Y-11786952D01*
X12721649Y-11783142D01*
X12721649Y-11773618D01*
X12719744Y-11769809D01*
X12717840Y-11767904D01*
X12714030Y-11765999D01*
X12706411Y-11765999D01*
X12702602Y-11767904D01*
X12700697Y-11769809D01*
X12698792Y-11773618D01*
X12373755Y-11533670D02*
X12373755Y-11493670D01*
X12388993Y-11493670D01*
X12392802Y-11495575D01*
X12394707Y-11497480D01*
X12396612Y-11501289D01*
X12396612Y-11507003D01*
X12394707Y-11510813D01*
X12392802Y-11512718D01*
X12388993Y-11514623D01*
X12373755Y-11514623D01*
X12421374Y-11493670D02*
X12425183Y-11493670D01*
X12428993Y-11495575D01*
X12430898Y-11497480D01*
X12432802Y-11501289D01*
X12434707Y-11508908D01*
X12434707Y-11518432D01*
X12432802Y-11526051D01*
X12430898Y-11529861D01*
X12428993Y-11531765D01*
X12425183Y-11533670D01*
X12421374Y-11533670D01*
X12417564Y-11531765D01*
X12415659Y-11529861D01*
X12413755Y-11526051D01*
X12411850Y-11518432D01*
X12411850Y-11508908D01*
X12413755Y-11501289D01*
X12415659Y-11497480D01*
X12417564Y-11495575D01*
X12421374Y-11493670D01*
X12451850Y-11529861D02*
X12453755Y-11531765D01*
X12451850Y-11533670D01*
X12449945Y-11531765D01*
X12451850Y-11529861D01*
X12451850Y-11533670D01*
X12478517Y-11493670D02*
X12482326Y-11493670D01*
X12486136Y-11495575D01*
X12488040Y-11497480D01*
X12489945Y-11501289D01*
X12491850Y-11508908D01*
X12491850Y-11518432D01*
X12489945Y-11526051D01*
X12488040Y-11529861D01*
X12486136Y-11531765D01*
X12482326Y-11533670D01*
X12478517Y-11533670D01*
X12474707Y-11531765D01*
X12472802Y-11529861D01*
X12470898Y-11526051D01*
X12468993Y-11518432D01*
X12468993Y-11508908D01*
X12470898Y-11501289D01*
X12472802Y-11497480D01*
X12474707Y-11495575D01*
X12478517Y-11493670D01*
X12526136Y-11507003D02*
X12526136Y-11533670D01*
X12516612Y-11491765D02*
X12507088Y-11520337D01*
X12531850Y-11520337D01*
X12575659Y-11491765D02*
X12541374Y-11543194D01*
X12587088Y-11522242D02*
X12606136Y-11522242D01*
X12583279Y-11533670D02*
X12596612Y-11493670D01*
X12609945Y-11533670D01*
X12623279Y-11533670D02*
X12623279Y-11493670D01*
X12642326Y-11533670D02*
X12642326Y-11493670D01*
X12665183Y-11533670D01*
X12665183Y-11493670D01*
X12682326Y-11497480D02*
X12684231Y-11495575D01*
X12688040Y-11493670D01*
X12697564Y-11493670D01*
X12701374Y-11495575D01*
X12703279Y-11497480D01*
X12705183Y-11501289D01*
X12705183Y-11505099D01*
X12703279Y-11510813D01*
X12680421Y-11533670D01*
X12705183Y-11533670D01*
X12375241Y-11281038D02*
X12375241Y-11241038D01*
X12390479Y-11241038D01*
X12394288Y-11242943D01*
X12396193Y-11244848D01*
X12398098Y-11248657D01*
X12398098Y-11254371D01*
X12396193Y-11258181D01*
X12394288Y-11260086D01*
X12390479Y-11261991D01*
X12375241Y-11261991D01*
X12422860Y-11241038D02*
X12426669Y-11241038D01*
X12430479Y-11242943D01*
X12432384Y-11244848D01*
X12434288Y-11248657D01*
X12436193Y-11256276D01*
X12436193Y-11265800D01*
X12434288Y-11273419D01*
X12432384Y-11277229D01*
X12430479Y-11279133D01*
X12426669Y-11281038D01*
X12422860Y-11281038D01*
X12419050Y-11279133D01*
X12417145Y-11277229D01*
X12415241Y-11273419D01*
X12413336Y-11265800D01*
X12413336Y-11256276D01*
X12415241Y-11248657D01*
X12417145Y-11244848D01*
X12419050Y-11242943D01*
X12422860Y-11241038D01*
X12453336Y-11277229D02*
X12455241Y-11279133D01*
X12453336Y-11281038D01*
X12451431Y-11279133D01*
X12453336Y-11277229D01*
X12453336Y-11281038D01*
X12480003Y-11241038D02*
X12483812Y-11241038D01*
X12487622Y-11242943D01*
X12489526Y-11244848D01*
X12491431Y-11248657D01*
X12493336Y-11256276D01*
X12493336Y-11265800D01*
X12491431Y-11273419D01*
X12489526Y-11277229D01*
X12487622Y-11279133D01*
X12483812Y-11281038D01*
X12480003Y-11281038D01*
X12476193Y-11279133D01*
X12474288Y-11277229D01*
X12472384Y-11273419D01*
X12470479Y-11265800D01*
X12470479Y-11256276D01*
X12472384Y-11248657D01*
X12474288Y-11244848D01*
X12476193Y-11242943D01*
X12480003Y-11241038D01*
X12508574Y-11244848D02*
X12510479Y-11242943D01*
X12514288Y-11241038D01*
X12523812Y-11241038D01*
X12527622Y-11242943D01*
X12529526Y-11244848D01*
X12531431Y-11248657D01*
X12531431Y-11252467D01*
X12529526Y-11258181D01*
X12506669Y-11281038D01*
X12531431Y-11281038D01*
X12577145Y-11239133D02*
X12542860Y-11290562D01*
X12588574Y-11269610D02*
X12607622Y-11269610D01*
X12584765Y-11281038D02*
X12598098Y-11241038D01*
X12611431Y-11281038D01*
X12624765Y-11281038D02*
X12624765Y-11241038D01*
X12643812Y-11281038D02*
X12643812Y-11241038D01*
X12666669Y-11281038D01*
X12666669Y-11241038D01*
X12693336Y-11241038D02*
X12697145Y-11241038D01*
X12700955Y-11242943D01*
X12702860Y-11244848D01*
X12704765Y-11248657D01*
X12706669Y-11256276D01*
X12706669Y-11265800D01*
X12704765Y-11273419D01*
X12702860Y-11277229D01*
X12700955Y-11279133D01*
X12697145Y-11281038D01*
X12693336Y-11281038D01*
X12689526Y-11279133D01*
X12687622Y-11277229D01*
X12685717Y-11273419D01*
X12683812Y-11265800D01*
X12683812Y-11256276D01*
X12685717Y-11248657D01*
X12687622Y-11244848D01*
X12689526Y-11242943D01*
X12693336Y-11241038D01*
X12901312Y-11289954D02*
X12901312Y-11249954D01*
X12916550Y-11249954D01*
X12920359Y-11251859D01*
X12922264Y-11253764D01*
X12924169Y-11257573D01*
X12924169Y-11263287D01*
X12922264Y-11267097D01*
X12920359Y-11269002D01*
X12916550Y-11270907D01*
X12901312Y-11270907D01*
X12948931Y-11249954D02*
X12952740Y-11249954D01*
X12956550Y-11251859D01*
X12958455Y-11253764D01*
X12960359Y-11257573D01*
X12962264Y-11265192D01*
X12962264Y-11274716D01*
X12960359Y-11282335D01*
X12958455Y-11286145D01*
X12956550Y-11288049D01*
X12952740Y-11289954D01*
X12948931Y-11289954D01*
X12945121Y-11288049D01*
X12943216Y-11286145D01*
X12941312Y-11282335D01*
X12939407Y-11274716D01*
X12939407Y-11265192D01*
X12941312Y-11257573D01*
X12943216Y-11253764D01*
X12945121Y-11251859D01*
X12948931Y-11249954D01*
X12979407Y-11286145D02*
X12981312Y-11288049D01*
X12979407Y-11289954D01*
X12977502Y-11288049D01*
X12979407Y-11286145D01*
X12979407Y-11289954D01*
X13006074Y-11249954D02*
X13009883Y-11249954D01*
X13013693Y-11251859D01*
X13015597Y-11253764D01*
X13017502Y-11257573D01*
X13019407Y-11265192D01*
X13019407Y-11274716D01*
X13017502Y-11282335D01*
X13015597Y-11286145D01*
X13013693Y-11288049D01*
X13009883Y-11289954D01*
X13006074Y-11289954D01*
X13002264Y-11288049D01*
X13000359Y-11286145D01*
X12998455Y-11282335D01*
X12996550Y-11274716D01*
X12996550Y-11265192D01*
X12998455Y-11257573D01*
X13000359Y-11253764D01*
X13002264Y-11251859D01*
X13006074Y-11249954D01*
X13032740Y-11249954D02*
X13057502Y-11249954D01*
X13044169Y-11265192D01*
X13049883Y-11265192D01*
X13053693Y-11267097D01*
X13055597Y-11269002D01*
X13057502Y-11272811D01*
X13057502Y-11282335D01*
X13055597Y-11286145D01*
X13053693Y-11288049D01*
X13049883Y-11289954D01*
X13038455Y-11289954D01*
X13034645Y-11288049D01*
X13032740Y-11286145D01*
X13103216Y-11248049D02*
X13068931Y-11299478D01*
X13114645Y-11278526D02*
X13133693Y-11278526D01*
X13110836Y-11289954D02*
X13124169Y-11249954D01*
X13137502Y-11289954D01*
X13150836Y-11289954D02*
X13150836Y-11249954D01*
X13169883Y-11289954D02*
X13169883Y-11249954D01*
X13192740Y-11289954D01*
X13192740Y-11249954D01*
X13232740Y-11289954D02*
X13209883Y-11289954D01*
X13221312Y-11289954D02*
X13221312Y-11249954D01*
X13217502Y-11255668D01*
X13213693Y-11259478D01*
X13209883Y-11261383D01*
X12881989Y-11538133D02*
X12881989Y-11498133D01*
X12897227Y-11498133D01*
X12901036Y-11500038D01*
X12902941Y-11501943D01*
X12904846Y-11505752D01*
X12904846Y-11511466D01*
X12902941Y-11515276D01*
X12901036Y-11517181D01*
X12897227Y-11519086D01*
X12881989Y-11519086D01*
X12929608Y-11498133D02*
X12933417Y-11498133D01*
X12937227Y-11500038D01*
X12939132Y-11501943D01*
X12941036Y-11505752D01*
X12942941Y-11513371D01*
X12942941Y-11522895D01*
X12941036Y-11530514D01*
X12939132Y-11534324D01*
X12937227Y-11536228D01*
X12933417Y-11538133D01*
X12929608Y-11538133D01*
X12925798Y-11536228D01*
X12923893Y-11534324D01*
X12921989Y-11530514D01*
X12920084Y-11522895D01*
X12920084Y-11513371D01*
X12921989Y-11505752D01*
X12923893Y-11501943D01*
X12925798Y-11500038D01*
X12929608Y-11498133D01*
X12960084Y-11534324D02*
X12961989Y-11536228D01*
X12960084Y-11538133D01*
X12958179Y-11536228D01*
X12960084Y-11534324D01*
X12960084Y-11538133D01*
X12986751Y-11498133D02*
X12990560Y-11498133D01*
X12994370Y-11500038D01*
X12996274Y-11501943D01*
X12998179Y-11505752D01*
X13000084Y-11513371D01*
X13000084Y-11522895D01*
X12998179Y-11530514D01*
X12996274Y-11534324D01*
X12994370Y-11536228D01*
X12990560Y-11538133D01*
X12986751Y-11538133D01*
X12982941Y-11536228D01*
X12981036Y-11534324D01*
X12979132Y-11530514D01*
X12977227Y-11522895D01*
X12977227Y-11513371D01*
X12979132Y-11505752D01*
X12981036Y-11501943D01*
X12982941Y-11500038D01*
X12986751Y-11498133D01*
X13036274Y-11498133D02*
X13017227Y-11498133D01*
X13015322Y-11517181D01*
X13017227Y-11515276D01*
X13021036Y-11513371D01*
X13030560Y-11513371D01*
X13034370Y-11515276D01*
X13036274Y-11517181D01*
X13038179Y-11520990D01*
X13038179Y-11530514D01*
X13036274Y-11534324D01*
X13034370Y-11536228D01*
X13030560Y-11538133D01*
X13021036Y-11538133D01*
X13017227Y-11536228D01*
X13015322Y-11534324D01*
X13083893Y-11496228D02*
X13049608Y-11547657D01*
X13095322Y-11526705D02*
X13114370Y-11526705D01*
X13091513Y-11538133D02*
X13104846Y-11498133D01*
X13118179Y-11538133D01*
X13131513Y-11538133D02*
X13131513Y-11498133D01*
X13150560Y-11538133D02*
X13150560Y-11498133D01*
X13173417Y-11538133D01*
X13173417Y-11498133D01*
X13188655Y-11498133D02*
X13213417Y-11498133D01*
X13200084Y-11513371D01*
X13205798Y-11513371D01*
X13209608Y-11515276D01*
X13211513Y-11517181D01*
X13213417Y-11520990D01*
X13213417Y-11530514D01*
X13211513Y-11534324D01*
X13209608Y-11536228D01*
X13205798Y-11538133D01*
X13194370Y-11538133D01*
X13190560Y-11536228D01*
X13188655Y-11534324D01*
X12928057Y-11784821D02*
X12928057Y-11744821D01*
X12943295Y-11744821D01*
X12947104Y-11746726D01*
X12949009Y-11748631D01*
X12950914Y-11752440D01*
X12950914Y-11758154D01*
X12949009Y-11761964D01*
X12947104Y-11763869D01*
X12943295Y-11765774D01*
X12928057Y-11765774D01*
X12975676Y-11744821D02*
X12979485Y-11744821D01*
X12983295Y-11746726D01*
X12985200Y-11748631D01*
X12987104Y-11752440D01*
X12989009Y-11760059D01*
X12989009Y-11769583D01*
X12987104Y-11777202D01*
X12985200Y-11781012D01*
X12983295Y-11782916D01*
X12979485Y-11784821D01*
X12975676Y-11784821D01*
X12971866Y-11782916D01*
X12969961Y-11781012D01*
X12968057Y-11777202D01*
X12966152Y-11769583D01*
X12966152Y-11760059D01*
X12968057Y-11752440D01*
X12969961Y-11748631D01*
X12971866Y-11746726D01*
X12975676Y-11744821D01*
X13006152Y-11781012D02*
X13008057Y-11782916D01*
X13006152Y-11784821D01*
X13004247Y-11782916D01*
X13006152Y-11781012D01*
X13006152Y-11784821D01*
X13032819Y-11744821D02*
X13036628Y-11744821D01*
X13040438Y-11746726D01*
X13042342Y-11748631D01*
X13044247Y-11752440D01*
X13046152Y-11760059D01*
X13046152Y-11769583D01*
X13044247Y-11777202D01*
X13042342Y-11781012D01*
X13040438Y-11782916D01*
X13036628Y-11784821D01*
X13032819Y-11784821D01*
X13029009Y-11782916D01*
X13027104Y-11781012D01*
X13025200Y-11777202D01*
X13023295Y-11769583D01*
X13023295Y-11760059D01*
X13025200Y-11752440D01*
X13027104Y-11748631D01*
X13029009Y-11746726D01*
X13032819Y-11744821D01*
X13059485Y-11744821D02*
X13086152Y-11744821D01*
X13069009Y-11784821D01*
X12910224Y-12041912D02*
X12910224Y-12001912D01*
X12925462Y-12001912D01*
X12929271Y-12003817D01*
X12931176Y-12005722D01*
X12933081Y-12009531D01*
X12933081Y-12015245D01*
X12931176Y-12019055D01*
X12929271Y-12020960D01*
X12925462Y-12022865D01*
X12910224Y-12022865D01*
X12957843Y-12001912D02*
X12961652Y-12001912D01*
X12965462Y-12003817D01*
X12967367Y-12005722D01*
X12969271Y-12009531D01*
X12971176Y-12017150D01*
X12971176Y-12026674D01*
X12969271Y-12034293D01*
X12967367Y-12038103D01*
X12965462Y-12040007D01*
X12961652Y-12041912D01*
X12957843Y-12041912D01*
X12954033Y-12040007D01*
X12952128Y-12038103D01*
X12950224Y-12034293D01*
X12948319Y-12026674D01*
X12948319Y-12017150D01*
X12950224Y-12009531D01*
X12952128Y-12005722D01*
X12954033Y-12003817D01*
X12957843Y-12001912D01*
X12988319Y-12038103D02*
X12990224Y-12040007D01*
X12988319Y-12041912D01*
X12986414Y-12040007D01*
X12988319Y-12038103D01*
X12988319Y-12041912D01*
X13014986Y-12001912D02*
X13018795Y-12001912D01*
X13022605Y-12003817D01*
X13024509Y-12005722D01*
X13026414Y-12009531D01*
X13028319Y-12017150D01*
X13028319Y-12026674D01*
X13026414Y-12034293D01*
X13024509Y-12038103D01*
X13022605Y-12040007D01*
X13018795Y-12041912D01*
X13014986Y-12041912D01*
X13011176Y-12040007D01*
X13009271Y-12038103D01*
X13007367Y-12034293D01*
X13005462Y-12026674D01*
X13005462Y-12017150D01*
X13007367Y-12009531D01*
X13009271Y-12005722D01*
X13011176Y-12003817D01*
X13014986Y-12001912D01*
X13047367Y-12041912D02*
X13054986Y-12041912D01*
X13058795Y-12040007D01*
X13060700Y-12038103D01*
X13064509Y-12032388D01*
X13066414Y-12024769D01*
X13066414Y-12009531D01*
X13064509Y-12005722D01*
X13062605Y-12003817D01*
X13058795Y-12001912D01*
X13051176Y-12001912D01*
X13047367Y-12003817D01*
X13045462Y-12005722D01*
X13043557Y-12009531D01*
X13043557Y-12019055D01*
X13045462Y-12022865D01*
X13047367Y-12024769D01*
X13051176Y-12026674D01*
X13058795Y-12026674D01*
X13062605Y-12024769D01*
X13064509Y-12022865D01*
X13066414Y-12019055D01*
X12923599Y-12293058D02*
X12923599Y-12253058D01*
X12938837Y-12253058D01*
X12942646Y-12254963D01*
X12944551Y-12256868D01*
X12946456Y-12260677D01*
X12946456Y-12266391D01*
X12944551Y-12270201D01*
X12942646Y-12272106D01*
X12938837Y-12274011D01*
X12923599Y-12274011D01*
X12971218Y-12253058D02*
X12975027Y-12253058D01*
X12978837Y-12254963D01*
X12980742Y-12256868D01*
X12982646Y-12260677D01*
X12984551Y-12268296D01*
X12984551Y-12277820D01*
X12982646Y-12285439D01*
X12980742Y-12289249D01*
X12978837Y-12291153D01*
X12975027Y-12293058D01*
X12971218Y-12293058D01*
X12967408Y-12291153D01*
X12965503Y-12289249D01*
X12963599Y-12285439D01*
X12961694Y-12277820D01*
X12961694Y-12268296D01*
X12963599Y-12260677D01*
X12965503Y-12256868D01*
X12967408Y-12254963D01*
X12971218Y-12253058D01*
X13001694Y-12289249D02*
X13003599Y-12291153D01*
X13001694Y-12293058D01*
X12999789Y-12291153D01*
X13001694Y-12289249D01*
X13001694Y-12293058D01*
X13041694Y-12293058D02*
X13018837Y-12293058D01*
X13030265Y-12293058D02*
X13030265Y-12253058D01*
X13026456Y-12258772D01*
X13022646Y-12262582D01*
X13018837Y-12264487D01*
X13066456Y-12253058D02*
X13070265Y-12253058D01*
X13074075Y-12254963D01*
X13075980Y-12256868D01*
X13077884Y-12260677D01*
X13079789Y-12268296D01*
X13079789Y-12277820D01*
X13077884Y-12285439D01*
X13075980Y-12289249D01*
X13074075Y-12291153D01*
X13070265Y-12293058D01*
X13066456Y-12293058D01*
X13062646Y-12291153D01*
X13060742Y-12289249D01*
X13058837Y-12285439D01*
X13056932Y-12277820D01*
X13056932Y-12268296D01*
X13058837Y-12260677D01*
X13060742Y-12256868D01*
X13062646Y-12254963D01*
X13066456Y-12253058D01*
X13935620Y-11293403D02*
X13935620Y-11253403D01*
X13950858Y-11253403D01*
X13954667Y-11255308D01*
X13956572Y-11257213D01*
X13958477Y-11261022D01*
X13958477Y-11266736D01*
X13956572Y-11270546D01*
X13954667Y-11272451D01*
X13950858Y-11274356D01*
X13935620Y-11274356D01*
X13983239Y-11253403D02*
X13987048Y-11253403D01*
X13990858Y-11255308D01*
X13992763Y-11257213D01*
X13994667Y-11261022D01*
X13996572Y-11268641D01*
X13996572Y-11278165D01*
X13994667Y-11285784D01*
X13992763Y-11289594D01*
X13990858Y-11291498D01*
X13987048Y-11293403D01*
X13983239Y-11293403D01*
X13979429Y-11291498D01*
X13977524Y-11289594D01*
X13975620Y-11285784D01*
X13973715Y-11278165D01*
X13973715Y-11268641D01*
X13975620Y-11261022D01*
X13977524Y-11257213D01*
X13979429Y-11255308D01*
X13983239Y-11253403D01*
X14013715Y-11289594D02*
X14015620Y-11291498D01*
X14013715Y-11293403D01*
X14011810Y-11291498D01*
X14013715Y-11289594D01*
X14013715Y-11293403D01*
X14030858Y-11257213D02*
X14032763Y-11255308D01*
X14036572Y-11253403D01*
X14046096Y-11253403D01*
X14049905Y-11255308D01*
X14051810Y-11257213D01*
X14053715Y-11261022D01*
X14053715Y-11264832D01*
X14051810Y-11270546D01*
X14028953Y-11293403D01*
X14053715Y-11293403D01*
X14091810Y-11293403D02*
X14068953Y-11293403D01*
X14080382Y-11293403D02*
X14080382Y-11253403D01*
X14076572Y-11259117D01*
X14072763Y-11262927D01*
X14068953Y-11264832D01*
X13931757Y-11551073D02*
X13931757Y-11511073D01*
X13946995Y-11511073D01*
X13950804Y-11512978D01*
X13952709Y-11514883D01*
X13954614Y-11518692D01*
X13954614Y-11524406D01*
X13952709Y-11528216D01*
X13950804Y-11530121D01*
X13946995Y-11532026D01*
X13931757Y-11532026D01*
X13979376Y-11511073D02*
X13983185Y-11511073D01*
X13986995Y-11512978D01*
X13988900Y-11514883D01*
X13990804Y-11518692D01*
X13992709Y-11526311D01*
X13992709Y-11535835D01*
X13990804Y-11543454D01*
X13988900Y-11547264D01*
X13986995Y-11549168D01*
X13983185Y-11551073D01*
X13979376Y-11551073D01*
X13975566Y-11549168D01*
X13973661Y-11547264D01*
X13971757Y-11543454D01*
X13969852Y-11535835D01*
X13969852Y-11526311D01*
X13971757Y-11518692D01*
X13973661Y-11514883D01*
X13975566Y-11512978D01*
X13979376Y-11511073D01*
X14009852Y-11547264D02*
X14011757Y-11549168D01*
X14009852Y-11551073D01*
X14007947Y-11549168D01*
X14009852Y-11547264D01*
X14009852Y-11551073D01*
X14026995Y-11514883D02*
X14028900Y-11512978D01*
X14032709Y-11511073D01*
X14042233Y-11511073D01*
X14046042Y-11512978D01*
X14047947Y-11514883D01*
X14049852Y-11518692D01*
X14049852Y-11522502D01*
X14047947Y-11528216D01*
X14025090Y-11551073D01*
X14049852Y-11551073D01*
X14074614Y-11511073D02*
X14078423Y-11511073D01*
X14082233Y-11512978D01*
X14084138Y-11514883D01*
X14086042Y-11518692D01*
X14087947Y-11526311D01*
X14087947Y-11535835D01*
X14086042Y-11543454D01*
X14084138Y-11547264D01*
X14082233Y-11549168D01*
X14078423Y-11551073D01*
X14074614Y-11551073D01*
X14070804Y-11549168D01*
X14068900Y-11547264D01*
X14066995Y-11543454D01*
X14065090Y-11535835D01*
X14065090Y-11526311D01*
X14066995Y-11518692D01*
X14068900Y-11514883D01*
X14070804Y-11512978D01*
X14074614Y-11511073D01*
X13938142Y-11803232D02*
X13938142Y-11763232D01*
X13953380Y-11763232D01*
X13957189Y-11765137D01*
X13959094Y-11767042D01*
X13960999Y-11770851D01*
X13960999Y-11776565D01*
X13959094Y-11780375D01*
X13957189Y-11782280D01*
X13953380Y-11784185D01*
X13938142Y-11784185D01*
X13985761Y-11763232D02*
X13989570Y-11763232D01*
X13993380Y-11765137D01*
X13995285Y-11767042D01*
X13997189Y-11770851D01*
X13999094Y-11778470D01*
X13999094Y-11787994D01*
X13997189Y-11795613D01*
X13995285Y-11799423D01*
X13993380Y-11801327D01*
X13989570Y-11803232D01*
X13985761Y-11803232D01*
X13981951Y-11801327D01*
X13980046Y-11799423D01*
X13978142Y-11795613D01*
X13976237Y-11787994D01*
X13976237Y-11778470D01*
X13978142Y-11770851D01*
X13980046Y-11767042D01*
X13981951Y-11765137D01*
X13985761Y-11763232D01*
X14016237Y-11799423D02*
X14018142Y-11801327D01*
X14016237Y-11803232D01*
X14014332Y-11801327D01*
X14016237Y-11799423D01*
X14016237Y-11803232D01*
X14056237Y-11803232D02*
X14033380Y-11803232D01*
X14044808Y-11803232D02*
X14044808Y-11763232D01*
X14040999Y-11768946D01*
X14037189Y-11772756D01*
X14033380Y-11774661D01*
X14075285Y-11803232D02*
X14082904Y-11803232D01*
X14086713Y-11801327D01*
X14088618Y-11799423D01*
X14092427Y-11793708D01*
X14094332Y-11786089D01*
X14094332Y-11770851D01*
X14092427Y-11767042D01*
X14090523Y-11765137D01*
X14086713Y-11763232D01*
X14079094Y-11763232D01*
X14075285Y-11765137D01*
X14073380Y-11767042D01*
X14071475Y-11770851D01*
X14071475Y-11780375D01*
X14073380Y-11784185D01*
X14075285Y-11786089D01*
X14079094Y-11787994D01*
X14086713Y-11787994D01*
X14090523Y-11786089D01*
X14092427Y-11784185D01*
X14094332Y-11780375D01*
X13945024Y-12286095D02*
X13945024Y-12246095D01*
X13960262Y-12246095D01*
X13964071Y-12248000D01*
X13965976Y-12249905D01*
X13967881Y-12253714D01*
X13967881Y-12259428D01*
X13965976Y-12263238D01*
X13964071Y-12265143D01*
X13960262Y-12267048D01*
X13945024Y-12267048D01*
X13992643Y-12246095D02*
X13996452Y-12246095D01*
X14000262Y-12248000D01*
X14002167Y-12249905D01*
X14004071Y-12253714D01*
X14005976Y-12261333D01*
X14005976Y-12270857D01*
X14004071Y-12278476D01*
X14002167Y-12282286D01*
X14000262Y-12284190D01*
X13996452Y-12286095D01*
X13992643Y-12286095D01*
X13988833Y-12284190D01*
X13986928Y-12282286D01*
X13985024Y-12278476D01*
X13983119Y-12270857D01*
X13983119Y-12261333D01*
X13985024Y-12253714D01*
X13986928Y-12249905D01*
X13988833Y-12248000D01*
X13992643Y-12246095D01*
X14023119Y-12282286D02*
X14025024Y-12284190D01*
X14023119Y-12286095D01*
X14021214Y-12284190D01*
X14023119Y-12282286D01*
X14023119Y-12286095D01*
X14063119Y-12286095D02*
X14040262Y-12286095D01*
X14051690Y-12286095D02*
X14051690Y-12246095D01*
X14047881Y-12251809D01*
X14044071Y-12255619D01*
X14040262Y-12257524D01*
X14085976Y-12263238D02*
X14082167Y-12261333D01*
X14080262Y-12259428D01*
X14078357Y-12255619D01*
X14078357Y-12253714D01*
X14080262Y-12249905D01*
X14082167Y-12248000D01*
X14085976Y-12246095D01*
X14093595Y-12246095D01*
X14097405Y-12248000D01*
X14099309Y-12249905D01*
X14101214Y-12253714D01*
X14101214Y-12255619D01*
X14099309Y-12259428D01*
X14097405Y-12261333D01*
X14093595Y-12263238D01*
X14085976Y-12263238D01*
X14082167Y-12265143D01*
X14080262Y-12267048D01*
X14078357Y-12270857D01*
X14078357Y-12278476D01*
X14080262Y-12282286D01*
X14082167Y-12284190D01*
X14085976Y-12286095D01*
X14093595Y-12286095D01*
X14097405Y-12284190D01*
X14099309Y-12282286D01*
X14101214Y-12278476D01*
X14101214Y-12270857D01*
X14099309Y-12267048D01*
X14097405Y-12265143D01*
X14093595Y-12263238D01*
X14435868Y-11288416D02*
X14435868Y-11248416D01*
X14451106Y-11248416D01*
X14454915Y-11250321D01*
X14456820Y-11252226D01*
X14458725Y-11256035D01*
X14458725Y-11261749D01*
X14456820Y-11265559D01*
X14454915Y-11267464D01*
X14451106Y-11269369D01*
X14435868Y-11269369D01*
X14483487Y-11248416D02*
X14487296Y-11248416D01*
X14491106Y-11250321D01*
X14493011Y-11252226D01*
X14494915Y-11256035D01*
X14496820Y-11263654D01*
X14496820Y-11273178D01*
X14494915Y-11280797D01*
X14493011Y-11284607D01*
X14491106Y-11286511D01*
X14487296Y-11288416D01*
X14483487Y-11288416D01*
X14479677Y-11286511D01*
X14477772Y-11284607D01*
X14475868Y-11280797D01*
X14473963Y-11273178D01*
X14473963Y-11263654D01*
X14475868Y-11256035D01*
X14477772Y-11252226D01*
X14479677Y-11250321D01*
X14483487Y-11248416D01*
X14513963Y-11284607D02*
X14515868Y-11286511D01*
X14513963Y-11288416D01*
X14512058Y-11286511D01*
X14513963Y-11284607D01*
X14513963Y-11288416D01*
X14531106Y-11252226D02*
X14533011Y-11250321D01*
X14536820Y-11248416D01*
X14546344Y-11248416D01*
X14550153Y-11250321D01*
X14552058Y-11252226D01*
X14553963Y-11256035D01*
X14553963Y-11259845D01*
X14552058Y-11265559D01*
X14529201Y-11288416D01*
X14553963Y-11288416D01*
X14567296Y-11248416D02*
X14592058Y-11248416D01*
X14578725Y-11263654D01*
X14584439Y-11263654D01*
X14588249Y-11265559D01*
X14590153Y-11267464D01*
X14592058Y-11271273D01*
X14592058Y-11280797D01*
X14590153Y-11284607D01*
X14588249Y-11286511D01*
X14584439Y-11288416D01*
X14573011Y-11288416D01*
X14569201Y-11286511D01*
X14567296Y-11284607D01*
X14441005Y-11532986D02*
X14446719Y-11534891D01*
X14456243Y-11534891D01*
X14460053Y-11532986D01*
X14461957Y-11531082D01*
X14463862Y-11527272D01*
X14463862Y-11523463D01*
X14461957Y-11519653D01*
X14460053Y-11517748D01*
X14456243Y-11515844D01*
X14448624Y-11513939D01*
X14444814Y-11512034D01*
X14442910Y-11510129D01*
X14441005Y-11506320D01*
X14441005Y-11502510D01*
X14442910Y-11498701D01*
X14444814Y-11496796D01*
X14448624Y-11494891D01*
X14458148Y-11494891D01*
X14463862Y-11496796D01*
X14477195Y-11494891D02*
X14486719Y-11534891D01*
X14494338Y-11506320D01*
X14501957Y-11534891D01*
X14511481Y-11494891D01*
X14526719Y-11534891D02*
X14526719Y-11494891D01*
X14536243Y-11494891D01*
X14541957Y-11496796D01*
X14545767Y-11500605D01*
X14547672Y-11504415D01*
X14549576Y-11512034D01*
X14549576Y-11517748D01*
X14547672Y-11525367D01*
X14545767Y-11529177D01*
X14541957Y-11532986D01*
X14536243Y-11534891D01*
X14526719Y-11534891D01*
X14566719Y-11534891D02*
X14566719Y-11494891D01*
X14593386Y-11494891D02*
X14601005Y-11494891D01*
X14604814Y-11496796D01*
X14608624Y-11500605D01*
X14610529Y-11508224D01*
X14610529Y-11521558D01*
X14608624Y-11529177D01*
X14604814Y-11532986D01*
X14601005Y-11534891D01*
X14593386Y-11534891D01*
X14589576Y-11532986D01*
X14585767Y-11529177D01*
X14583862Y-11521558D01*
X14583862Y-11508224D01*
X14585767Y-11500605D01*
X14589576Y-11496796D01*
X14593386Y-11494891D01*
X14585119Y-12015190D02*
X14590833Y-12017095D01*
X14600357Y-12017095D01*
X14604167Y-12015190D01*
X14606071Y-12013286D01*
X14607976Y-12009476D01*
X14607976Y-12005667D01*
X14606071Y-12001857D01*
X14604167Y-11999952D01*
X14600357Y-11998048D01*
X14592738Y-11996143D01*
X14588928Y-11994238D01*
X14587024Y-11992333D01*
X14585119Y-11988524D01*
X14585119Y-11984714D01*
X14587024Y-11980905D01*
X14588928Y-11979000D01*
X14592738Y-11977095D01*
X14602262Y-11977095D01*
X14607976Y-11979000D01*
X14621309Y-11977095D02*
X14630833Y-12017095D01*
X14638452Y-11988524D01*
X14646071Y-12017095D01*
X14655595Y-11977095D01*
X14670833Y-12017095D02*
X14670833Y-11977095D01*
X14680357Y-11977095D01*
X14686071Y-11979000D01*
X14689881Y-11982809D01*
X14691786Y-11986619D01*
X14693690Y-11994238D01*
X14693690Y-11999952D01*
X14691786Y-12007571D01*
X14689881Y-12011381D01*
X14686071Y-12015190D01*
X14680357Y-12017095D01*
X14670833Y-12017095D01*
X14733690Y-12013286D02*
X14731786Y-12015190D01*
X14726071Y-12017095D01*
X14722262Y-12017095D01*
X14716548Y-12015190D01*
X14712738Y-12011381D01*
X14710833Y-12007571D01*
X14708928Y-11999952D01*
X14708928Y-11994238D01*
X14710833Y-11986619D01*
X14712738Y-11982809D01*
X14716548Y-11979000D01*
X14722262Y-11977095D01*
X14726071Y-11977095D01*
X14731786Y-11979000D01*
X14733690Y-11980905D01*
X14769881Y-12017095D02*
X14750833Y-12017095D01*
X14750833Y-11977095D01*
X14783214Y-12017095D02*
X14783214Y-11977095D01*
X14806071Y-12017095D02*
X14788928Y-11994238D01*
X14806071Y-11977095D02*
X14783214Y-11999952D01*
X14714033Y-11547214D02*
X14714033Y-11507214D01*
X14729271Y-11507214D01*
X14733080Y-11509119D01*
X14734985Y-11511024D01*
X14736890Y-11514833D01*
X14736890Y-11520547D01*
X14734985Y-11524357D01*
X14733080Y-11526262D01*
X14729271Y-11528167D01*
X14714033Y-11528167D01*
X14761652Y-11507214D02*
X14765461Y-11507214D01*
X14769271Y-11509119D01*
X14771176Y-11511024D01*
X14773080Y-11514833D01*
X14774985Y-11522452D01*
X14774985Y-11531976D01*
X14773080Y-11539595D01*
X14771176Y-11543405D01*
X14769271Y-11545309D01*
X14765461Y-11547214D01*
X14761652Y-11547214D01*
X14757842Y-11545309D01*
X14755937Y-11543405D01*
X14754033Y-11539595D01*
X14752128Y-11531976D01*
X14752128Y-11522452D01*
X14754033Y-11514833D01*
X14755937Y-11511024D01*
X14757842Y-11509119D01*
X14761652Y-11507214D01*
X14792128Y-11543405D02*
X14794033Y-11545309D01*
X14792128Y-11547214D01*
X14790223Y-11545309D01*
X14792128Y-11543405D01*
X14792128Y-11547214D01*
X14809271Y-11511024D02*
X14811176Y-11509119D01*
X14814985Y-11507214D01*
X14824509Y-11507214D01*
X14828318Y-11509119D01*
X14830223Y-11511024D01*
X14832128Y-11514833D01*
X14832128Y-11518643D01*
X14830223Y-11524357D01*
X14807366Y-11547214D01*
X14832128Y-11547214D01*
X14847366Y-11511024D02*
X14849271Y-11509119D01*
X14853080Y-11507214D01*
X14862604Y-11507214D01*
X14866414Y-11509119D01*
X14868318Y-11511024D01*
X14870223Y-11514833D01*
X14870223Y-11518643D01*
X14868318Y-11524357D01*
X14845461Y-11547214D01*
X14870223Y-11547214D01*
X14719314Y-11286655D02*
X14719314Y-11246655D01*
X14734552Y-11246655D01*
X14738361Y-11248560D01*
X14740266Y-11250465D01*
X14742171Y-11254274D01*
X14742171Y-11259988D01*
X14740266Y-11263798D01*
X14738361Y-11265703D01*
X14734552Y-11267608D01*
X14719314Y-11267608D01*
X14766933Y-11246655D02*
X14770742Y-11246655D01*
X14774552Y-11248560D01*
X14776457Y-11250465D01*
X14778361Y-11254274D01*
X14780266Y-11261893D01*
X14780266Y-11271417D01*
X14778361Y-11279036D01*
X14776457Y-11282846D01*
X14774552Y-11284750D01*
X14770742Y-11286655D01*
X14766933Y-11286655D01*
X14763123Y-11284750D01*
X14761218Y-11282846D01*
X14759314Y-11279036D01*
X14757409Y-11271417D01*
X14757409Y-11261893D01*
X14759314Y-11254274D01*
X14761218Y-11250465D01*
X14763123Y-11248560D01*
X14766933Y-11246655D01*
X14797409Y-11282846D02*
X14799314Y-11284750D01*
X14797409Y-11286655D01*
X14795504Y-11284750D01*
X14797409Y-11282846D01*
X14797409Y-11286655D01*
X14814552Y-11250465D02*
X14816457Y-11248560D01*
X14820266Y-11246655D01*
X14829790Y-11246655D01*
X14833599Y-11248560D01*
X14835504Y-11250465D01*
X14837409Y-11254274D01*
X14837409Y-11258084D01*
X14835504Y-11263798D01*
X14812647Y-11286655D01*
X14837409Y-11286655D01*
X14871695Y-11259988D02*
X14871695Y-11286655D01*
X14862171Y-11244750D02*
X14852647Y-11273322D01*
X14877409Y-11273322D01*
X12913151Y-9248962D02*
X12884284Y-9221273D01*
X12894832Y-9210276D01*
X12898844Y-9208845D01*
X12901537Y-9208789D01*
X12905605Y-9210051D01*
X12909728Y-9214007D01*
X12911159Y-9218019D01*
X12911215Y-9220712D01*
X12909953Y-9224780D01*
X12899405Y-9235777D01*
X12917247Y-9186907D02*
X12919884Y-9184158D01*
X12923896Y-9182727D01*
X12926589Y-9182671D01*
X12930656Y-9183933D01*
X12937474Y-9187833D01*
X12944347Y-9194425D01*
X12948527Y-9201074D01*
X12949957Y-9205086D01*
X12950014Y-9207779D01*
X12948751Y-9211847D01*
X12946114Y-9214596D01*
X12942102Y-9216027D01*
X12939409Y-9216083D01*
X12935341Y-9214821D01*
X12928524Y-9210921D01*
X12921651Y-9204328D01*
X12917471Y-9197680D01*
X12916041Y-9193668D01*
X12915984Y-9190975D01*
X12917247Y-9186907D01*
X12964461Y-9189965D02*
X12967154Y-9189909D01*
X12967210Y-9192602D01*
X12964517Y-9192658D01*
X12964461Y-9189965D01*
X12967210Y-9192602D01*
X12948891Y-9153916D02*
X12966032Y-9136046D01*
X12967800Y-9156216D01*
X12971755Y-9152092D01*
X12975767Y-9150662D01*
X12978460Y-9150606D01*
X12982528Y-9151868D01*
X12989401Y-9158461D01*
X12990832Y-9162472D01*
X12990888Y-9165165D01*
X12989625Y-9169233D01*
X12981714Y-9177481D01*
X12977703Y-9178912D01*
X12975009Y-9178968D01*
X13021270Y-9136242D02*
X13005448Y-9152738D01*
X13013359Y-9144490D02*
X12984492Y-9116801D01*
X12985978Y-9123506D01*
X12986091Y-9128892D01*
X12984828Y-9132960D01*
X13022673Y-9074243D02*
X13036054Y-9134587D01*
X13052578Y-9087092D02*
X13065763Y-9073346D01*
X13058189Y-9097752D02*
X13038551Y-9060441D01*
X13076648Y-9078508D01*
X13085878Y-9068885D02*
X13057010Y-9041196D01*
X13099063Y-9055139D02*
X13070196Y-9027450D01*
X13114885Y-9038643D01*
X13086018Y-9010954D01*
X13096566Y-8999957D02*
X13115025Y-8980712D01*
X13132026Y-9020773D01*
X13158069Y-9247208D02*
X13130670Y-9218065D01*
X13141773Y-9207627D01*
X13145853Y-9206406D01*
X13148545Y-9206489D01*
X13152542Y-9207960D01*
X13156457Y-9212123D01*
X13157678Y-9216203D01*
X13157595Y-9218896D01*
X13156124Y-9222893D01*
X13145022Y-9233330D01*
X13165365Y-9185448D02*
X13168140Y-9182838D01*
X13172220Y-9181617D01*
X13174913Y-9181700D01*
X13178910Y-9183171D01*
X13185517Y-9187417D01*
X13192040Y-9194356D01*
X13195871Y-9201211D01*
X13197093Y-9205292D01*
X13197010Y-9207984D01*
X13195539Y-9211981D01*
X13192763Y-9214591D01*
X13188683Y-9215812D01*
X13185991Y-9215729D01*
X13181993Y-9214258D01*
X13175387Y-9210012D01*
X13168863Y-9203073D01*
X13165032Y-9196217D01*
X13163811Y-9192137D01*
X13163894Y-9189445D01*
X13165365Y-9185448D01*
X13212358Y-9190940D02*
X13215051Y-9191023D01*
X13214967Y-9193716D01*
X13212275Y-9193633D01*
X13212358Y-9190940D01*
X13214967Y-9193716D01*
X13198671Y-9154135D02*
X13216712Y-9137174D01*
X13217435Y-9157409D01*
X13221598Y-9153495D01*
X13225679Y-9152273D01*
X13228371Y-9152356D01*
X13232368Y-9153827D01*
X13238892Y-9160766D01*
X13240113Y-9164846D01*
X13240030Y-9167539D01*
X13238559Y-9171536D01*
X13230233Y-9179364D01*
X13226153Y-9180586D01*
X13223460Y-9180502D01*
X13234753Y-9120213D02*
X13237528Y-9117604D01*
X13241609Y-9116382D01*
X13244301Y-9116465D01*
X13248298Y-9117936D01*
X13254905Y-9122182D01*
X13261428Y-9129121D01*
X13265259Y-9135977D01*
X13266481Y-9140057D01*
X13266398Y-9142749D01*
X13264927Y-9146747D01*
X13262151Y-9149356D01*
X13258071Y-9150578D01*
X13255379Y-9150495D01*
X13251382Y-9149024D01*
X13244775Y-9144777D01*
X13238252Y-9137839D01*
X13234421Y-9130983D01*
X13233199Y-9126903D01*
X13233282Y-9124210D01*
X13234753Y-9120213D01*
X13276469Y-9078380D02*
X13286716Y-9139334D01*
X13305671Y-9092756D02*
X13319548Y-9079709D01*
X13310723Y-9103692D02*
X13293039Y-9065416D01*
X13330152Y-9085426D01*
X13339866Y-9076293D02*
X13312468Y-9047150D01*
X13353744Y-9063246D02*
X13326345Y-9034103D01*
X13370397Y-9047590D01*
X13342999Y-9018447D01*
X13369366Y-8993658D02*
X13363815Y-8998876D01*
X13362344Y-9002874D01*
X13362261Y-9005566D01*
X13363400Y-9012339D01*
X13367231Y-9019194D01*
X13377668Y-9030297D01*
X13381665Y-9031767D01*
X13384358Y-9031850D01*
X13388438Y-9030629D01*
X13393989Y-9025410D01*
X13395460Y-9021413D01*
X13395543Y-9018720D01*
X13394321Y-9014640D01*
X13387798Y-9007701D01*
X13383801Y-9006231D01*
X13381108Y-9006148D01*
X13377028Y-9007369D01*
X13371477Y-9012588D01*
X13370006Y-9016585D01*
X13369923Y-9019278D01*
X13371145Y-9023358D01*
X13411092Y-9259944D02*
X13383376Y-9231103D01*
X13394363Y-9220545D01*
X13398430Y-9219278D01*
X13401123Y-9219332D01*
X13405136Y-9220759D01*
X13409095Y-9224879D01*
X13410362Y-9228946D01*
X13410308Y-9231639D01*
X13408881Y-9235652D01*
X13397894Y-9246210D01*
X13417711Y-9198108D02*
X13420458Y-9195468D01*
X13424524Y-9194202D01*
X13427217Y-9194256D01*
X13431231Y-9195683D01*
X13437883Y-9199856D01*
X13444482Y-9206723D01*
X13448388Y-9213537D01*
X13449654Y-9217603D01*
X13449601Y-9220297D01*
X13448174Y-9224310D01*
X13445427Y-9226949D01*
X13441360Y-9228215D01*
X13438667Y-9228162D01*
X13434654Y-9226735D01*
X13428001Y-9222561D01*
X13421402Y-9215694D01*
X13417497Y-9208881D01*
X13416230Y-9204814D01*
X13416284Y-9202121D01*
X13417711Y-9198108D01*
X13464762Y-9203086D02*
X13467455Y-9203139D01*
X13467401Y-9205832D01*
X13464708Y-9205779D01*
X13464762Y-9203086D01*
X13467401Y-9205832D01*
X13454686Y-9167860D02*
X13454739Y-9165166D01*
X13456166Y-9161153D01*
X13463033Y-9154554D01*
X13467100Y-9153288D01*
X13469793Y-9153342D01*
X13473806Y-9154769D01*
X13476446Y-9157515D01*
X13479032Y-9162955D01*
X13478388Y-9195274D01*
X13496243Y-9178116D01*
X13509977Y-9164918D02*
X13515470Y-9159639D01*
X13516897Y-9155626D01*
X13516951Y-9152933D01*
X13515738Y-9146173D01*
X13511832Y-9139360D01*
X13501274Y-9128373D01*
X13497261Y-9126946D01*
X13494568Y-9126892D01*
X13490501Y-9128158D01*
X13485008Y-9133437D01*
X13483581Y-9137450D01*
X13483527Y-9140144D01*
X13484793Y-9144210D01*
X13491392Y-9151077D01*
X13495405Y-9152504D01*
X13498098Y-9152558D01*
X13502165Y-9151292D01*
X13507659Y-9146012D01*
X13509086Y-9141999D01*
X13509139Y-9139306D01*
X13507873Y-9135240D01*
X13527637Y-9089830D02*
X13538550Y-9150668D01*
X13556994Y-9103886D02*
X13570728Y-9090688D01*
X13562166Y-9114766D02*
X13544064Y-9076686D01*
X13581393Y-9096288D01*
X13591007Y-9087050D02*
X13563291Y-9058208D01*
X13604741Y-9073852D02*
X13577025Y-9045010D01*
X13621222Y-9058014D01*
X13593506Y-9029173D01*
X13620974Y-9002777D02*
X13607240Y-9015975D01*
X13619065Y-9031028D01*
X13619118Y-9028335D01*
X13620545Y-9024322D01*
X13627412Y-9017723D01*
X13631479Y-9016457D01*
X13634172Y-9016511D01*
X13638185Y-9017938D01*
X13644784Y-9024805D01*
X13646051Y-9028871D01*
X13645997Y-9031564D01*
X13644570Y-9035577D01*
X13637703Y-9042176D01*
X13633636Y-9043443D01*
X13630943Y-9043389D01*
X13664085Y-9260032D02*
X13636474Y-9231090D01*
X13647500Y-9220572D01*
X13651571Y-9219320D01*
X13654264Y-9219384D01*
X13658272Y-9220825D01*
X13662216Y-9224960D01*
X13663467Y-9229031D01*
X13663404Y-9231724D01*
X13661962Y-9235732D01*
X13650937Y-9246250D01*
X13670929Y-9198220D02*
X13673686Y-9195591D01*
X13677757Y-9194340D01*
X13680450Y-9194403D01*
X13684458Y-9195845D01*
X13691095Y-9200043D01*
X13697669Y-9206934D01*
X13701550Y-9213761D01*
X13702801Y-9217833D01*
X13702738Y-9220526D01*
X13701296Y-9224533D01*
X13698540Y-9227163D01*
X13694469Y-9228414D01*
X13691776Y-9228351D01*
X13687768Y-9226909D01*
X13681131Y-9222711D01*
X13674557Y-9215820D01*
X13670676Y-9208992D01*
X13669424Y-9204921D01*
X13669488Y-9202228D01*
X13670929Y-9198220D01*
X13717962Y-9203370D02*
X13720655Y-9203433D01*
X13720591Y-9206126D01*
X13717898Y-9206063D01*
X13717962Y-9203370D01*
X13720591Y-9206126D01*
X13708014Y-9168107D02*
X13708078Y-9165414D01*
X13709519Y-9161407D01*
X13716410Y-9154833D01*
X13720482Y-9153581D01*
X13723175Y-9153645D01*
X13727182Y-9155086D01*
X13729812Y-9157843D01*
X13732378Y-9163292D01*
X13731617Y-9195608D01*
X13749534Y-9178516D01*
X13750295Y-9146200D02*
X13746224Y-9147451D01*
X13743531Y-9147388D01*
X13739523Y-9145946D01*
X13738208Y-9144568D01*
X13736957Y-9140497D01*
X13737020Y-9137804D01*
X13738462Y-9133796D01*
X13743975Y-9128537D01*
X13748046Y-9127286D01*
X13750739Y-9127349D01*
X13754747Y-9128791D01*
X13756061Y-9130169D01*
X13757313Y-9134240D01*
X13757249Y-9136933D01*
X13755808Y-9140941D01*
X13750295Y-9146200D01*
X13748853Y-9150208D01*
X13748790Y-9152901D01*
X13750041Y-9156972D01*
X13755300Y-9162485D01*
X13759308Y-9163926D01*
X13762001Y-9163990D01*
X13766072Y-9162739D01*
X13771585Y-9157479D01*
X13773027Y-9153472D01*
X13773090Y-9150779D01*
X13771839Y-9146707D01*
X13766580Y-9141195D01*
X13762572Y-9139753D01*
X13759879Y-9139690D01*
X13755808Y-9140941D01*
X13781250Y-9090345D02*
X13791941Y-9151223D01*
X13810556Y-9104508D02*
X13824338Y-9091360D01*
X13815688Y-9115406D02*
X13797725Y-9077260D01*
X13834983Y-9096999D01*
X13844630Y-9087796D02*
X13817020Y-9058854D01*
X13858412Y-9074648D02*
X13830802Y-9045706D01*
X13874951Y-9058871D01*
X13847340Y-9029928D01*
X13882730Y-9014595D02*
X13901137Y-9033890D01*
X13865321Y-9010143D02*
X13878151Y-9037390D01*
X13896068Y-9020298D01*
X13940024Y-9214095D02*
X13940024Y-9174095D01*
X13955262Y-9174095D01*
X13959071Y-9176000D01*
X13960976Y-9177905D01*
X13962881Y-9181714D01*
X13962881Y-9187429D01*
X13960976Y-9191238D01*
X13959071Y-9193143D01*
X13955262Y-9195048D01*
X13940024Y-9195048D01*
X13987643Y-9174095D02*
X13991452Y-9174095D01*
X13995262Y-9176000D01*
X13997167Y-9177905D01*
X13999071Y-9181714D01*
X14000976Y-9189333D01*
X14000976Y-9198857D01*
X13999071Y-9206476D01*
X13997167Y-9210286D01*
X13995262Y-9212190D01*
X13991452Y-9214095D01*
X13987643Y-9214095D01*
X13983833Y-9212190D01*
X13981928Y-9210286D01*
X13980024Y-9206476D01*
X13978119Y-9198857D01*
X13978119Y-9189333D01*
X13980024Y-9181714D01*
X13981928Y-9177905D01*
X13983833Y-9176000D01*
X13987643Y-9174095D01*
X14018119Y-9210286D02*
X14020024Y-9212190D01*
X14018119Y-9214095D01*
X14016214Y-9212190D01*
X14018119Y-9210286D01*
X14018119Y-9214095D01*
X14035262Y-9177905D02*
X14037167Y-9176000D01*
X14040976Y-9174095D01*
X14050500Y-9174095D01*
X14054309Y-9176000D01*
X14056214Y-9177905D01*
X14058119Y-9181714D01*
X14058119Y-9185524D01*
X14056214Y-9191238D01*
X14033357Y-9214095D01*
X14058119Y-9214095D01*
X14071452Y-9174095D02*
X14098119Y-9174095D01*
X14080976Y-9214095D01*
X14203024Y-9222095D02*
X14203024Y-9182095D01*
X14218262Y-9182095D01*
X14222071Y-9184000D01*
X14223976Y-9185905D01*
X14225881Y-9189714D01*
X14225881Y-9195429D01*
X14223976Y-9199238D01*
X14222071Y-9201143D01*
X14218262Y-9203048D01*
X14203024Y-9203048D01*
X14250643Y-9182095D02*
X14254452Y-9182095D01*
X14258262Y-9184000D01*
X14260167Y-9185905D01*
X14262071Y-9189714D01*
X14263976Y-9197333D01*
X14263976Y-9206857D01*
X14262071Y-9214476D01*
X14260167Y-9218286D01*
X14258262Y-9220190D01*
X14254452Y-9222095D01*
X14250643Y-9222095D01*
X14246833Y-9220190D01*
X14244928Y-9218286D01*
X14243024Y-9214476D01*
X14241119Y-9206857D01*
X14241119Y-9197333D01*
X14243024Y-9189714D01*
X14244928Y-9185905D01*
X14246833Y-9184000D01*
X14250643Y-9182095D01*
X14281119Y-9218286D02*
X14283024Y-9220190D01*
X14281119Y-9222095D01*
X14279214Y-9220190D01*
X14281119Y-9218286D01*
X14281119Y-9222095D01*
X14298262Y-9185905D02*
X14300167Y-9184000D01*
X14303976Y-9182095D01*
X14313500Y-9182095D01*
X14317309Y-9184000D01*
X14319214Y-9185905D01*
X14321119Y-9189714D01*
X14321119Y-9193524D01*
X14319214Y-9199238D01*
X14296357Y-9222095D01*
X14321119Y-9222095D01*
X14355405Y-9182095D02*
X14347786Y-9182095D01*
X14343976Y-9184000D01*
X14342071Y-9185905D01*
X14338262Y-9191619D01*
X14336357Y-9199238D01*
X14336357Y-9214476D01*
X14338262Y-9218286D01*
X14340167Y-9220190D01*
X14343976Y-9222095D01*
X14351595Y-9222095D01*
X14355405Y-9220190D01*
X14357309Y-9218286D01*
X14359214Y-9214476D01*
X14359214Y-9204952D01*
X14357309Y-9201143D01*
X14355405Y-9199238D01*
X14351595Y-9197333D01*
X14343976Y-9197333D01*
X14340167Y-9199238D01*
X14338262Y-9201143D01*
X14336357Y-9204952D01*
X14440024Y-9222095D02*
X14440024Y-9182095D01*
X14455262Y-9182095D01*
X14459071Y-9184000D01*
X14460976Y-9185905D01*
X14462881Y-9189714D01*
X14462881Y-9195429D01*
X14460976Y-9199238D01*
X14459071Y-9201143D01*
X14455262Y-9203048D01*
X14440024Y-9203048D01*
X14487643Y-9182095D02*
X14491452Y-9182095D01*
X14495262Y-9184000D01*
X14497167Y-9185905D01*
X14499071Y-9189714D01*
X14500976Y-9197333D01*
X14500976Y-9206857D01*
X14499071Y-9214476D01*
X14497167Y-9218286D01*
X14495262Y-9220190D01*
X14491452Y-9222095D01*
X14487643Y-9222095D01*
X14483833Y-9220190D01*
X14481928Y-9218286D01*
X14480024Y-9214476D01*
X14478119Y-9206857D01*
X14478119Y-9197333D01*
X14480024Y-9189714D01*
X14481928Y-9185905D01*
X14483833Y-9184000D01*
X14487643Y-9182095D01*
X14518119Y-9218286D02*
X14520024Y-9220190D01*
X14518119Y-9222095D01*
X14516214Y-9220190D01*
X14518119Y-9218286D01*
X14518119Y-9222095D01*
X14535262Y-9185905D02*
X14537167Y-9184000D01*
X14540976Y-9182095D01*
X14550500Y-9182095D01*
X14554309Y-9184000D01*
X14556214Y-9185905D01*
X14558119Y-9189714D01*
X14558119Y-9193524D01*
X14556214Y-9199238D01*
X14533357Y-9222095D01*
X14558119Y-9222095D01*
X14594309Y-9182095D02*
X14575262Y-9182095D01*
X14573357Y-9201143D01*
X14575262Y-9199238D01*
X14579071Y-9197333D01*
X14588595Y-9197333D01*
X14592405Y-9199238D01*
X14594309Y-9201143D01*
X14596214Y-9204952D01*
X14596214Y-9214476D01*
X14594309Y-9218286D01*
X14592405Y-9220190D01*
X14588595Y-9222095D01*
X14579071Y-9222095D01*
X14575262Y-9220190D01*
X14573357Y-9218286D01*
X12520089Y-10215019D02*
X12510510Y-10210371D01*
X12496225Y-10210541D01*
X12481997Y-10215473D01*
X12472587Y-10225109D01*
X12467939Y-10234689D01*
X12463404Y-10253792D01*
X12463574Y-10268077D01*
X12468562Y-10287066D01*
X12473437Y-10296533D01*
X12483074Y-10305942D01*
X12497415Y-10310534D01*
X12506938Y-10310421D01*
X12521166Y-10305489D01*
X12525871Y-10300671D01*
X12525474Y-10267340D01*
X12506428Y-10267567D01*
X12568839Y-10309684D02*
X12567648Y-10209691D01*
X12625978Y-10309004D01*
X12624787Y-10209011D01*
X12673593Y-10308437D02*
X12672403Y-10208444D01*
X12696211Y-10208160D01*
X12710552Y-10212752D01*
X12720189Y-10222162D01*
X12725063Y-10231628D01*
X12730052Y-10250618D01*
X12730222Y-10264902D01*
X12725687Y-10284005D01*
X12721039Y-10293585D01*
X12711629Y-10303222D01*
X12697401Y-10308153D01*
X12673593Y-10308437D01*
X12883371Y-9919051D02*
X12917892Y-10018647D01*
X12950033Y-9918258D01*
X13041579Y-10007651D02*
X13036875Y-10012469D01*
X13022646Y-10017400D01*
X13013123Y-10017514D01*
X12998782Y-10012922D01*
X12989145Y-10003512D01*
X12984271Y-9994046D01*
X12979282Y-9975056D01*
X12979112Y-9960772D01*
X12983647Y-9941669D01*
X12988295Y-9932089D01*
X12997705Y-9922452D01*
X13011933Y-9917521D01*
X13021456Y-9917408D01*
X13035798Y-9921999D01*
X13040616Y-9926704D01*
X13141572Y-10006460D02*
X13136867Y-10011279D01*
X13122639Y-10016210D01*
X13113116Y-10016324D01*
X13098775Y-10011732D01*
X13089138Y-10002322D01*
X13084263Y-9992856D01*
X13079275Y-9973866D01*
X13079105Y-9959581D01*
X13083640Y-9940479D01*
X13088288Y-9930899D01*
X13097698Y-9921262D01*
X13111926Y-9916331D01*
X13121449Y-9916217D01*
X13135791Y-9920809D01*
X13140609Y-9925514D01*
X12813071Y-9923571D02*
X12789262Y-9923571D01*
X12789262Y-9780714D01*
X12813071Y-9780714D01*
X12841643Y-9790238D02*
X12903548Y-9790238D01*
X12870214Y-9828333D01*
X12884500Y-9828333D01*
X12894024Y-9833095D01*
X12898786Y-9837857D01*
X12903548Y-9847381D01*
X12903548Y-9871190D01*
X12898786Y-9880714D01*
X12894024Y-9885476D01*
X12884500Y-9890238D01*
X12855928Y-9890238D01*
X12846405Y-9885476D01*
X12841643Y-9880714D01*
X12932119Y-9790238D02*
X12965452Y-9890238D01*
X12998786Y-9790238D01*
X13046405Y-9890238D02*
X13036881Y-9885476D01*
X13032119Y-9880714D01*
X13027357Y-9871190D01*
X13027357Y-9842619D01*
X13032119Y-9833095D01*
X13036881Y-9828333D01*
X13046405Y-9823571D01*
X13060690Y-9823571D01*
X13070214Y-9828333D01*
X13074976Y-9833095D01*
X13079738Y-9842619D01*
X13079738Y-9871190D01*
X13074976Y-9880714D01*
X13070214Y-9885476D01*
X13060690Y-9890238D01*
X13046405Y-9890238D01*
X13136881Y-9890238D02*
X13127357Y-9885476D01*
X13122595Y-9875952D01*
X13122595Y-9790238D01*
X13160690Y-9823571D02*
X13198786Y-9823571D01*
X13174976Y-9790238D02*
X13174976Y-9875952D01*
X13179738Y-9885476D01*
X13189262Y-9890238D01*
X13198786Y-9890238D01*
X13222595Y-9923571D02*
X13246405Y-9923571D01*
X13246405Y-9780714D01*
X13222595Y-9780714D01*
D17*
%TO.C,Cap_2*%
X15039500Y-10767000D02*
X14689500Y-10767000D01*
X14689500Y-10767000D02*
X14689500Y-10567000D01*
X14689500Y-10567000D02*
X15039500Y-10567000D01*
X15039500Y-10567000D02*
X15039500Y-10767000D01*
%TO.C,Cap_4*%
X15951000Y-10635000D02*
X15951000Y-10985000D01*
X15951000Y-10985000D02*
X15751000Y-10985000D01*
X15751000Y-10985000D02*
X15751000Y-10635000D01*
X15751000Y-10635000D02*
X15951000Y-10635000D01*
%TO.C,Cap_1*%
X15368500Y-10569000D02*
X15718500Y-10569000D01*
X15718500Y-10569000D02*
X15718500Y-10769000D01*
X15718500Y-10769000D02*
X15368500Y-10769000D01*
X15368500Y-10769000D02*
X15368500Y-10569000D01*
%TO.C,Cap_3*%
X15276000Y-10624500D02*
X15276000Y-10974500D01*
X15276000Y-10974500D02*
X15076000Y-10974500D01*
X15076000Y-10974500D02*
X15076000Y-10624500D01*
X15076000Y-10624500D02*
X15276000Y-10624500D01*
%TO.C,Cap_2*%
D10*
X14793581Y-10852366D02*
X14791200Y-10854747D01*
X14784057Y-10857128D01*
X14779295Y-10857128D01*
X14772152Y-10854747D01*
X14767390Y-10849985D01*
X14765009Y-10845223D01*
X14762628Y-10835699D01*
X14762628Y-10828557D01*
X14765009Y-10819033D01*
X14767390Y-10814271D01*
X14772152Y-10809509D01*
X14779295Y-10807128D01*
X14784057Y-10807128D01*
X14791200Y-10809509D01*
X14793581Y-10811890D01*
X14836438Y-10857128D02*
X14836438Y-10830938D01*
X14834057Y-10826176D01*
X14829295Y-10823795D01*
X14819771Y-10823795D01*
X14815009Y-10826176D01*
X14836438Y-10854747D02*
X14831676Y-10857128D01*
X14819771Y-10857128D01*
X14815009Y-10854747D01*
X14812628Y-10849985D01*
X14812628Y-10845223D01*
X14815009Y-10840461D01*
X14819771Y-10838080D01*
X14831676Y-10838080D01*
X14836438Y-10835699D01*
X14860248Y-10823795D02*
X14860248Y-10873795D01*
X14860248Y-10826176D02*
X14865009Y-10823795D01*
X14874533Y-10823795D01*
X14879295Y-10826176D01*
X14881676Y-10828557D01*
X14884057Y-10833319D01*
X14884057Y-10847604D01*
X14881676Y-10852366D01*
X14879295Y-10854747D01*
X14874533Y-10857128D01*
X14865009Y-10857128D01*
X14860248Y-10854747D01*
X14893581Y-10861890D02*
X14931676Y-10861890D01*
X14941200Y-10811890D02*
X14943581Y-10809509D01*
X14948343Y-10807128D01*
X14960248Y-10807128D01*
X14965009Y-10809509D01*
X14967390Y-10811890D01*
X14969771Y-10816652D01*
X14969771Y-10821414D01*
X14967390Y-10828557D01*
X14938819Y-10857128D01*
X14969771Y-10857128D01*
%TO.C,Cap_4*%
X15866857Y-10896619D02*
X15869238Y-10899000D01*
X15871619Y-10906143D01*
X15871619Y-10910905D01*
X15869238Y-10918048D01*
X15864476Y-10922810D01*
X15859714Y-10925190D01*
X15850190Y-10927571D01*
X15843048Y-10927571D01*
X15833524Y-10925190D01*
X15828762Y-10922810D01*
X15824000Y-10918048D01*
X15821619Y-10910905D01*
X15821619Y-10906143D01*
X15824000Y-10899000D01*
X15826381Y-10896619D01*
X15871619Y-10853762D02*
X15845428Y-10853762D01*
X15840667Y-10856143D01*
X15838286Y-10860905D01*
X15838286Y-10870429D01*
X15840667Y-10875190D01*
X15869238Y-10853762D02*
X15871619Y-10858524D01*
X15871619Y-10870429D01*
X15869238Y-10875190D01*
X15864476Y-10877571D01*
X15859714Y-10877571D01*
X15854952Y-10875190D01*
X15852571Y-10870429D01*
X15852571Y-10858524D01*
X15850190Y-10853762D01*
X15838286Y-10829952D02*
X15888286Y-10829952D01*
X15840667Y-10829952D02*
X15838286Y-10825190D01*
X15838286Y-10815667D01*
X15840667Y-10810905D01*
X15843048Y-10808524D01*
X15847809Y-10806143D01*
X15862095Y-10806143D01*
X15866857Y-10808524D01*
X15869238Y-10810905D01*
X15871619Y-10815667D01*
X15871619Y-10825190D01*
X15869238Y-10829952D01*
X15876381Y-10796619D02*
X15876381Y-10758524D01*
X15838286Y-10725190D02*
X15871619Y-10725190D01*
X15819238Y-10737095D02*
X15854952Y-10749000D01*
X15854952Y-10718048D01*
%TO.C,Cap_1*%
X15376581Y-10853366D02*
X15374200Y-10855747D01*
X15367057Y-10858128D01*
X15362295Y-10858128D01*
X15355152Y-10855747D01*
X15350390Y-10850985D01*
X15348009Y-10846223D01*
X15345628Y-10836699D01*
X15345628Y-10829557D01*
X15348009Y-10820033D01*
X15350390Y-10815271D01*
X15355152Y-10810509D01*
X15362295Y-10808128D01*
X15367057Y-10808128D01*
X15374200Y-10810509D01*
X15376581Y-10812890D01*
X15419438Y-10858128D02*
X15419438Y-10831938D01*
X15417057Y-10827176D01*
X15412295Y-10824795D01*
X15402771Y-10824795D01*
X15398009Y-10827176D01*
X15419438Y-10855747D02*
X15414676Y-10858128D01*
X15402771Y-10858128D01*
X15398009Y-10855747D01*
X15395628Y-10850985D01*
X15395628Y-10846223D01*
X15398009Y-10841461D01*
X15402771Y-10839080D01*
X15414676Y-10839080D01*
X15419438Y-10836699D01*
X15443248Y-10824795D02*
X15443248Y-10874795D01*
X15443248Y-10827176D02*
X15448009Y-10824795D01*
X15457533Y-10824795D01*
X15462295Y-10827176D01*
X15464676Y-10829557D01*
X15467057Y-10834319D01*
X15467057Y-10848604D01*
X15464676Y-10853366D01*
X15462295Y-10855747D01*
X15457533Y-10858128D01*
X15448009Y-10858128D01*
X15443248Y-10855747D01*
X15476581Y-10862890D02*
X15514676Y-10862890D01*
X15552771Y-10858128D02*
X15524200Y-10858128D01*
X15538486Y-10858128D02*
X15538486Y-10808128D01*
X15533724Y-10815271D01*
X15528962Y-10820033D01*
X15524200Y-10822414D01*
%TO.C,Cap_3*%
X15099581Y-10509366D02*
X15097200Y-10511747D01*
X15090057Y-10514128D01*
X15085295Y-10514128D01*
X15078152Y-10511747D01*
X15073390Y-10506985D01*
X15071009Y-10502223D01*
X15068628Y-10492699D01*
X15068628Y-10485557D01*
X15071009Y-10476033D01*
X15073390Y-10471271D01*
X15078152Y-10466509D01*
X15085295Y-10464128D01*
X15090057Y-10464128D01*
X15097200Y-10466509D01*
X15099581Y-10468890D01*
X15142438Y-10514128D02*
X15142438Y-10487938D01*
X15140057Y-10483176D01*
X15135295Y-10480795D01*
X15125771Y-10480795D01*
X15121009Y-10483176D01*
X15142438Y-10511747D02*
X15137676Y-10514128D01*
X15125771Y-10514128D01*
X15121009Y-10511747D01*
X15118628Y-10506985D01*
X15118628Y-10502223D01*
X15121009Y-10497461D01*
X15125771Y-10495080D01*
X15137676Y-10495080D01*
X15142438Y-10492699D01*
X15166248Y-10480795D02*
X15166248Y-10530795D01*
X15166248Y-10483176D02*
X15171009Y-10480795D01*
X15180533Y-10480795D01*
X15185295Y-10483176D01*
X15187676Y-10485557D01*
X15190057Y-10490319D01*
X15190057Y-10504604D01*
X15187676Y-10509366D01*
X15185295Y-10511747D01*
X15180533Y-10514128D01*
X15171009Y-10514128D01*
X15166248Y-10511747D01*
X15199581Y-10518890D02*
X15237676Y-10518890D01*
X15244819Y-10464128D02*
X15275771Y-10464128D01*
X15259105Y-10483176D01*
X15266248Y-10483176D01*
X15271009Y-10485557D01*
X15273390Y-10487938D01*
X15275771Y-10492699D01*
X15275771Y-10504604D01*
X15273390Y-10509366D01*
X15271009Y-10511747D01*
X15266248Y-10514128D01*
X15251962Y-10514128D01*
X15247200Y-10511747D01*
X15244819Y-10509366D01*
%TO.C,U102*%
X14230286Y-10840619D02*
X14230286Y-10881095D01*
X14232667Y-10885857D01*
X14235048Y-10888238D01*
X14239809Y-10890619D01*
X14249333Y-10890619D01*
X14254095Y-10888238D01*
X14256476Y-10885857D01*
X14258857Y-10881095D01*
X14258857Y-10840619D01*
X14308857Y-10890619D02*
X14280286Y-10890619D01*
X14294571Y-10890619D02*
X14294571Y-10840619D01*
X14289809Y-10847762D01*
X14285048Y-10852524D01*
X14280286Y-10854905D01*
X14339809Y-10840619D02*
X14344571Y-10840619D01*
X14349333Y-10843000D01*
X14351714Y-10845381D01*
X14354095Y-10850143D01*
X14356476Y-10859667D01*
X14356476Y-10871571D01*
X14354095Y-10881095D01*
X14351714Y-10885857D01*
X14349333Y-10888238D01*
X14344571Y-10890619D01*
X14339809Y-10890619D01*
X14335048Y-10888238D01*
X14332667Y-10885857D01*
X14330286Y-10881095D01*
X14327905Y-10871571D01*
X14327905Y-10859667D01*
X14330286Y-10850143D01*
X14332667Y-10845381D01*
X14335048Y-10843000D01*
X14339809Y-10840619D01*
X14375524Y-10845381D02*
X14377905Y-10843000D01*
X14382667Y-10840619D01*
X14394571Y-10840619D01*
X14399333Y-10843000D01*
X14401714Y-10845381D01*
X14404095Y-10850143D01*
X14404095Y-10854905D01*
X14401714Y-10862048D01*
X14373143Y-10890619D01*
X14404095Y-10890619D01*
%TO.C,U26*%
X12492095Y-9992619D02*
X12492095Y-10033095D01*
X12494476Y-10037857D01*
X12496857Y-10040238D01*
X12501619Y-10042619D01*
X12511143Y-10042619D01*
X12515905Y-10040238D01*
X12518286Y-10037857D01*
X12520667Y-10033095D01*
X12520667Y-9992619D01*
X12542095Y-9997381D02*
X12544476Y-9995000D01*
X12549238Y-9992619D01*
X12561143Y-9992619D01*
X12565905Y-9995000D01*
X12568286Y-9997381D01*
X12570667Y-10002143D01*
X12570667Y-10006905D01*
X12568286Y-10014048D01*
X12539714Y-10042619D01*
X12570667Y-10042619D01*
X12613524Y-9992619D02*
X12604000Y-9992619D01*
X12599238Y-9995000D01*
X12596857Y-9997381D01*
X12592095Y-10004524D01*
X12589714Y-10014048D01*
X12589714Y-10033095D01*
X12592095Y-10037857D01*
X12594476Y-10040238D01*
X12599238Y-10042619D01*
X12608762Y-10042619D01*
X12613524Y-10040238D01*
X12615905Y-10037857D01*
X12618286Y-10033095D01*
X12618286Y-10021190D01*
X12615905Y-10016429D01*
X12613524Y-10014048D01*
X12608762Y-10011667D01*
X12599238Y-10011667D01*
X12594476Y-10014048D01*
X12592095Y-10016429D01*
X12589714Y-10021190D01*
%TO.C,U8*%
X13255905Y-9570619D02*
X13255905Y-9611095D01*
X13258286Y-9615857D01*
X13260667Y-9618238D01*
X13265428Y-9620619D01*
X13274952Y-9620619D01*
X13279714Y-9618238D01*
X13282095Y-9615857D01*
X13284476Y-9611095D01*
X13284476Y-9570619D01*
X13315428Y-9592048D02*
X13310667Y-9589667D01*
X13308286Y-9587286D01*
X13305905Y-9582524D01*
X13305905Y-9580143D01*
X13308286Y-9575381D01*
X13310667Y-9573000D01*
X13315428Y-9570619D01*
X13324952Y-9570619D01*
X13329714Y-9573000D01*
X13332095Y-9575381D01*
X13334476Y-9580143D01*
X13334476Y-9582524D01*
X13332095Y-9587286D01*
X13329714Y-9589667D01*
X13324952Y-9592048D01*
X13315428Y-9592048D01*
X13310667Y-9594429D01*
X13308286Y-9596810D01*
X13305905Y-9601571D01*
X13305905Y-9611095D01*
X13308286Y-9615857D01*
X13310667Y-9618238D01*
X13315428Y-9620619D01*
X13324952Y-9620619D01*
X13329714Y-9618238D01*
X13332095Y-9615857D01*
X13334476Y-9611095D01*
X13334476Y-9601571D01*
X13332095Y-9596810D01*
X13329714Y-9594429D01*
X13324952Y-9592048D01*
%TO.C,U1*%
D17*
X13633480Y-10521381D02*
X13633480Y-10644752D01*
X13640737Y-10659267D01*
X13647994Y-10666524D01*
X13662508Y-10673781D01*
X13691537Y-10673781D01*
X13706051Y-10666524D01*
X13713308Y-10659267D01*
X13720565Y-10644752D01*
X13720565Y-10521381D01*
X13872965Y-10673781D02*
X13785880Y-10673781D01*
X13829422Y-10673781D02*
X13829422Y-10521381D01*
X13814908Y-10543152D01*
X13800394Y-10557667D01*
X13785880Y-10564924D01*
X8020080Y-10673781D02*
X8020080Y-10521381D01*
X8070880Y-10630238D01*
X8121680Y-10521381D01*
X8121680Y-10673781D01*
X8259565Y-10572181D02*
X8259565Y-10673781D01*
X8194251Y-10572181D02*
X8194251Y-10652009D01*
X8201508Y-10666524D01*
X8216022Y-10673781D01*
X8237794Y-10673781D01*
X8252308Y-10666524D01*
X8259565Y-10659267D01*
X8353908Y-10673781D02*
X8339394Y-10666524D01*
X8332137Y-10652009D01*
X8332137Y-10521381D01*
X8390194Y-10572181D02*
X8448251Y-10572181D01*
X8411965Y-10521381D02*
X8411965Y-10652009D01*
X8419223Y-10666524D01*
X8433737Y-10673781D01*
X8448251Y-10673781D01*
X8499051Y-10673781D02*
X8499051Y-10572181D01*
X8499051Y-10521381D02*
X8491794Y-10528638D01*
X8499051Y-10535895D01*
X8506308Y-10528638D01*
X8499051Y-10521381D01*
X8499051Y-10535895D01*
X8571623Y-10615724D02*
X8687737Y-10615724D01*
X8760308Y-10572181D02*
X8760308Y-10724581D01*
X8760308Y-10579438D02*
X8774823Y-10572181D01*
X8803851Y-10572181D01*
X8818365Y-10579438D01*
X8825623Y-10586695D01*
X8832880Y-10601209D01*
X8832880Y-10644752D01*
X8825623Y-10659267D01*
X8818365Y-10666524D01*
X8803851Y-10673781D01*
X8774823Y-10673781D01*
X8760308Y-10666524D01*
X8898194Y-10673781D02*
X8898194Y-10572181D01*
X8898194Y-10601209D02*
X8905451Y-10586695D01*
X8912708Y-10579438D01*
X8927223Y-10572181D01*
X8941737Y-10572181D01*
X9014308Y-10673781D02*
X8999794Y-10666524D01*
X8992537Y-10659267D01*
X8985280Y-10644752D01*
X8985280Y-10601209D01*
X8992537Y-10586695D01*
X8999794Y-10579438D01*
X9014308Y-10572181D01*
X9036080Y-10572181D01*
X9050594Y-10579438D01*
X9057851Y-10586695D01*
X9065108Y-10601209D01*
X9065108Y-10644752D01*
X9057851Y-10659267D01*
X9050594Y-10666524D01*
X9036080Y-10673781D01*
X9014308Y-10673781D01*
X9108651Y-10572181D02*
X9166708Y-10572181D01*
X9130423Y-10521381D02*
X9130423Y-10652009D01*
X9137680Y-10666524D01*
X9152194Y-10673781D01*
X9166708Y-10673781D01*
X9239280Y-10673781D02*
X9224765Y-10666524D01*
X9217508Y-10659267D01*
X9210251Y-10644752D01*
X9210251Y-10601209D01*
X9217508Y-10586695D01*
X9224765Y-10579438D01*
X9239280Y-10572181D01*
X9261051Y-10572181D01*
X9275565Y-10579438D01*
X9282823Y-10586695D01*
X9290080Y-10601209D01*
X9290080Y-10644752D01*
X9282823Y-10659267D01*
X9275565Y-10666524D01*
X9261051Y-10673781D01*
X9239280Y-10673781D01*
X9420708Y-10666524D02*
X9406194Y-10673781D01*
X9377165Y-10673781D01*
X9362651Y-10666524D01*
X9355394Y-10659267D01*
X9348137Y-10644752D01*
X9348137Y-10601209D01*
X9355394Y-10586695D01*
X9362651Y-10579438D01*
X9377165Y-10572181D01*
X9406194Y-10572181D01*
X9420708Y-10579438D01*
X9507794Y-10673781D02*
X9493280Y-10666524D01*
X9486023Y-10659267D01*
X9478765Y-10644752D01*
X9478765Y-10601209D01*
X9486023Y-10586695D01*
X9493280Y-10579438D01*
X9507794Y-10572181D01*
X9529565Y-10572181D01*
X9544080Y-10579438D01*
X9551337Y-10586695D01*
X9558594Y-10601209D01*
X9558594Y-10644752D01*
X9551337Y-10659267D01*
X9544080Y-10666524D01*
X9529565Y-10673781D01*
X9507794Y-10673781D01*
X9645680Y-10673781D02*
X9631165Y-10666524D01*
X9623908Y-10652009D01*
X9623908Y-10521381D01*
X9870651Y-10593952D02*
X9892423Y-10601209D01*
X9899680Y-10608467D01*
X9906937Y-10622981D01*
X9906937Y-10644752D01*
X9899680Y-10659267D01*
X9892423Y-10666524D01*
X9877908Y-10673781D01*
X9819851Y-10673781D01*
X9819851Y-10521381D01*
X9870651Y-10521381D01*
X9885165Y-10528638D01*
X9892423Y-10535895D01*
X9899680Y-10550409D01*
X9899680Y-10564924D01*
X9892423Y-10579438D01*
X9885165Y-10586695D01*
X9870651Y-10593952D01*
X9819851Y-10593952D01*
X9994023Y-10673781D02*
X9979508Y-10666524D01*
X9972251Y-10652009D01*
X9972251Y-10521381D01*
X10117394Y-10572181D02*
X10117394Y-10673781D01*
X10052080Y-10572181D02*
X10052080Y-10652009D01*
X10059337Y-10666524D01*
X10073851Y-10673781D01*
X10095623Y-10673781D01*
X10110137Y-10666524D01*
X10117394Y-10659267D01*
X10248023Y-10666524D02*
X10233508Y-10673781D01*
X10204480Y-10673781D01*
X10189965Y-10666524D01*
X10182708Y-10652009D01*
X10182708Y-10593952D01*
X10189965Y-10579438D01*
X10204480Y-10572181D01*
X10233508Y-10572181D01*
X10248023Y-10579438D01*
X10255280Y-10593952D01*
X10255280Y-10608467D01*
X10182708Y-10622981D01*
X10298823Y-10572181D02*
X10356880Y-10572181D01*
X10320594Y-10521381D02*
X10320594Y-10652009D01*
X10327851Y-10666524D01*
X10342365Y-10673781D01*
X10356880Y-10673781D01*
X10429451Y-10673781D02*
X10414937Y-10666524D01*
X10407680Y-10659267D01*
X10400423Y-10644752D01*
X10400423Y-10601209D01*
X10407680Y-10586695D01*
X10414937Y-10579438D01*
X10429451Y-10572181D01*
X10451223Y-10572181D01*
X10465737Y-10579438D01*
X10472994Y-10586695D01*
X10480251Y-10601209D01*
X10480251Y-10644752D01*
X10472994Y-10659267D01*
X10465737Y-10666524D01*
X10451223Y-10673781D01*
X10429451Y-10673781D01*
X10567337Y-10673781D02*
X10552823Y-10666524D01*
X10545565Y-10659267D01*
X10538308Y-10644752D01*
X10538308Y-10601209D01*
X10545565Y-10586695D01*
X10552823Y-10579438D01*
X10567337Y-10572181D01*
X10589108Y-10572181D01*
X10603623Y-10579438D01*
X10610880Y-10586695D01*
X10618137Y-10601209D01*
X10618137Y-10644752D01*
X10610880Y-10659267D01*
X10603623Y-10666524D01*
X10589108Y-10673781D01*
X10567337Y-10673781D01*
X10661680Y-10572181D02*
X10719737Y-10572181D01*
X10683451Y-10521381D02*
X10683451Y-10652009D01*
X10690708Y-10666524D01*
X10705223Y-10673781D01*
X10719737Y-10673781D01*
X10770537Y-10673781D02*
X10770537Y-10521381D01*
X10835851Y-10673781D02*
X10835851Y-10593952D01*
X10828594Y-10579438D01*
X10814080Y-10572181D01*
X10792308Y-10572181D01*
X10777794Y-10579438D01*
X10770537Y-10586695D01*
X11097108Y-10673781D02*
X11024537Y-10673781D01*
X11024537Y-10521381D01*
X11169680Y-10673781D02*
X11155165Y-10666524D01*
X11147908Y-10659267D01*
X11140651Y-10644752D01*
X11140651Y-10601209D01*
X11147908Y-10586695D01*
X11155165Y-10579438D01*
X11169680Y-10572181D01*
X11191451Y-10572181D01*
X11205965Y-10579438D01*
X11213222Y-10586695D01*
X11220480Y-10601209D01*
X11220480Y-10644752D01*
X11213222Y-10659267D01*
X11205965Y-10666524D01*
X11191451Y-10673781D01*
X11169680Y-10673781D01*
X11271280Y-10572181D02*
X11300308Y-10673781D01*
X11329337Y-10601209D01*
X11358365Y-10673781D01*
X11387394Y-10572181D01*
X11561565Y-10593952D02*
X11612365Y-10593952D01*
X11634137Y-10673781D02*
X11561565Y-10673781D01*
X11561565Y-10521381D01*
X11634137Y-10521381D01*
X11699451Y-10572181D02*
X11699451Y-10673781D01*
X11699451Y-10586695D02*
X11706708Y-10579438D01*
X11721222Y-10572181D01*
X11742994Y-10572181D01*
X11757508Y-10579438D01*
X11764765Y-10593952D01*
X11764765Y-10673781D01*
X11895394Y-10666524D02*
X11880880Y-10673781D01*
X11851851Y-10673781D01*
X11837337Y-10666524D01*
X11830080Y-10652009D01*
X11830080Y-10593952D01*
X11837337Y-10579438D01*
X11851851Y-10572181D01*
X11880880Y-10572181D01*
X11895394Y-10579438D01*
X11902651Y-10593952D01*
X11902651Y-10608467D01*
X11830080Y-10622981D01*
X11967965Y-10673781D02*
X11967965Y-10572181D01*
X11967965Y-10601209D02*
X11975222Y-10586695D01*
X11982480Y-10579438D01*
X11996994Y-10572181D01*
X12011508Y-10572181D01*
X12127622Y-10572181D02*
X12127622Y-10695552D01*
X12120365Y-10710067D01*
X12113108Y-10717324D01*
X12098594Y-10724581D01*
X12076822Y-10724581D01*
X12062308Y-10717324D01*
X12127622Y-10666524D02*
X12113108Y-10673781D01*
X12084080Y-10673781D01*
X12069565Y-10666524D01*
X12062308Y-10659267D01*
X12055051Y-10644752D01*
X12055051Y-10601209D01*
X12062308Y-10586695D01*
X12069565Y-10579438D01*
X12084080Y-10572181D01*
X12113108Y-10572181D01*
X12127622Y-10579438D01*
X12185680Y-10572181D02*
X12221965Y-10673781D01*
X12258251Y-10572181D02*
X12221965Y-10673781D01*
X12207451Y-10710067D01*
X12200194Y-10717324D01*
X12185680Y-10724581D01*
X12323565Y-10666524D02*
X12323565Y-10673781D01*
X12316308Y-10688295D01*
X12309051Y-10695552D01*
X12504994Y-10673781D02*
X12504994Y-10521381D01*
X12577565Y-10593952D02*
X12628365Y-10593952D01*
X12650137Y-10673781D02*
X12577565Y-10673781D01*
X12577565Y-10521381D01*
X12650137Y-10521381D01*
X12715451Y-10593952D02*
X12766251Y-10593952D01*
X12788022Y-10673781D02*
X12715451Y-10673781D01*
X12715451Y-10521381D01*
X12788022Y-10521381D01*
X12853337Y-10593952D02*
X12904137Y-10593952D01*
X12925908Y-10673781D02*
X12853337Y-10673781D01*
X12853337Y-10521381D01*
X12925908Y-10521381D01*
X13129108Y-10586695D02*
X13114594Y-10579438D01*
X13107337Y-10572181D01*
X13100080Y-10557667D01*
X13100080Y-10550409D01*
X13107337Y-10535895D01*
X13114594Y-10528638D01*
X13129108Y-10521381D01*
X13158137Y-10521381D01*
X13172651Y-10528638D01*
X13179908Y-10535895D01*
X13187165Y-10550409D01*
X13187165Y-10557667D01*
X13179908Y-10572181D01*
X13172651Y-10579438D01*
X13158137Y-10586695D01*
X13129108Y-10586695D01*
X13114594Y-10593952D01*
X13107337Y-10601209D01*
X13100080Y-10615724D01*
X13100080Y-10644752D01*
X13107337Y-10659267D01*
X13114594Y-10666524D01*
X13129108Y-10673781D01*
X13158137Y-10673781D01*
X13172651Y-10666524D01*
X13179908Y-10659267D01*
X13187165Y-10644752D01*
X13187165Y-10615724D01*
X13179908Y-10601209D01*
X13172651Y-10593952D01*
X13158137Y-10586695D01*
X13281508Y-10521381D02*
X13296022Y-10521381D01*
X13310537Y-10528638D01*
X13317794Y-10535895D01*
X13325051Y-10550409D01*
X13332308Y-10579438D01*
X13332308Y-10615724D01*
X13325051Y-10644752D01*
X13317794Y-10659267D01*
X13310537Y-10666524D01*
X13296022Y-10673781D01*
X13281508Y-10673781D01*
X13266994Y-10666524D01*
X13259737Y-10659267D01*
X13252480Y-10644752D01*
X13245222Y-10615724D01*
X13245222Y-10579438D01*
X13252480Y-10550409D01*
X13259737Y-10535895D01*
X13266994Y-10528638D01*
X13281508Y-10521381D01*
X13390365Y-10535895D02*
X13397622Y-10528638D01*
X13412137Y-10521381D01*
X13448422Y-10521381D01*
X13462937Y-10528638D01*
X13470194Y-10535895D01*
X13477451Y-10550409D01*
X13477451Y-10564924D01*
X13470194Y-10586695D01*
X13383108Y-10673781D01*
X13477451Y-10673781D01*
X13542765Y-10659267D02*
X13550022Y-10666524D01*
X13542765Y-10673781D01*
X13535508Y-10666524D01*
X13542765Y-10659267D01*
X13542765Y-10673781D01*
X13695165Y-10673781D02*
X13608080Y-10673781D01*
X13651622Y-10673781D02*
X13651622Y-10521381D01*
X13637108Y-10543152D01*
X13622594Y-10557667D01*
X13608080Y-10564924D01*
X13833051Y-10521381D02*
X13760480Y-10521381D01*
X13753222Y-10593952D01*
X13760480Y-10586695D01*
X13774994Y-10579438D01*
X13811280Y-10579438D01*
X13825794Y-10586695D01*
X13833051Y-10593952D01*
X13840308Y-10608467D01*
X13840308Y-10644752D01*
X13833051Y-10659267D01*
X13825794Y-10666524D01*
X13811280Y-10673781D01*
X13774994Y-10673781D01*
X13760480Y-10666524D01*
X13753222Y-10659267D01*
X13905622Y-10659267D02*
X13912880Y-10666524D01*
X13905622Y-10673781D01*
X13898365Y-10666524D01*
X13905622Y-10659267D01*
X13905622Y-10673781D01*
X14043508Y-10572181D02*
X14043508Y-10673781D01*
X14007222Y-10514124D02*
X13970937Y-10622981D01*
X14065280Y-10622981D01*
X14130594Y-10666524D02*
X14130594Y-10673781D01*
X14123337Y-10688295D01*
X14116080Y-10695552D01*
X14304765Y-10630238D02*
X14377337Y-10630238D01*
X14290251Y-10673781D02*
X14341051Y-10521381D01*
X14391851Y-10673781D01*
X14442651Y-10673781D02*
X14442651Y-10521381D01*
X14529737Y-10673781D01*
X14529737Y-10521381D01*
X14580537Y-10521381D02*
X14667622Y-10521381D01*
X14624080Y-10673781D02*
X14624080Y-10521381D01*
X14899851Y-10673781D02*
X14899851Y-10593952D01*
X14892594Y-10579438D01*
X14878080Y-10572181D01*
X14849051Y-10572181D01*
X14834537Y-10579438D01*
X14899851Y-10666524D02*
X14885337Y-10673781D01*
X14849051Y-10673781D01*
X14834537Y-10666524D01*
X14827280Y-10652009D01*
X14827280Y-10637495D01*
X14834537Y-10622981D01*
X14849051Y-10615724D01*
X14885337Y-10615724D01*
X14899851Y-10608467D01*
X14972422Y-10572181D02*
X14972422Y-10673781D01*
X14972422Y-10586695D02*
X14979680Y-10579438D01*
X14994194Y-10572181D01*
X15015965Y-10572181D01*
X15030480Y-10579438D01*
X15037737Y-10593952D01*
X15037737Y-10673781D01*
X15175622Y-10673781D02*
X15175622Y-10521381D01*
X15175622Y-10666524D02*
X15161108Y-10673781D01*
X15132080Y-10673781D01*
X15117565Y-10666524D01*
X15110308Y-10659267D01*
X15103051Y-10644752D01*
X15103051Y-10601209D01*
X15110308Y-10586695D01*
X15117565Y-10579438D01*
X15132080Y-10572181D01*
X15161108Y-10572181D01*
X15175622Y-10579438D01*
X15357051Y-10535895D02*
X15364308Y-10528638D01*
X15378822Y-10521381D01*
X15415108Y-10521381D01*
X15429622Y-10528638D01*
X15436880Y-10535895D01*
X15444137Y-10550409D01*
X15444137Y-10564924D01*
X15436880Y-10586695D01*
X15349794Y-10673781D01*
X15444137Y-10673781D01*
X15509451Y-10659267D02*
X15516708Y-10666524D01*
X15509451Y-10673781D01*
X15502194Y-10666524D01*
X15509451Y-10659267D01*
X15509451Y-10673781D01*
X15647337Y-10572181D02*
X15647337Y-10673781D01*
X15611051Y-10514124D02*
X15574765Y-10622981D01*
X15669108Y-10622981D01*
X15806994Y-10528638D02*
X15792480Y-10521381D01*
X15770708Y-10521381D01*
X15748937Y-10528638D01*
X15734422Y-10543152D01*
X15727165Y-10557667D01*
X15719908Y-10586695D01*
X15719908Y-10608467D01*
X15727165Y-10637495D01*
X15734422Y-10652009D01*
X15748937Y-10666524D01*
X15770708Y-10673781D01*
X15785222Y-10673781D01*
X15806994Y-10666524D01*
X15814251Y-10659267D01*
X15814251Y-10608467D01*
X15785222Y-10608467D01*
X15879565Y-10673781D02*
X15879565Y-10521381D01*
X15879565Y-10593952D02*
X15966651Y-10593952D01*
X15966651Y-10673781D02*
X15966651Y-10521381D01*
X16024708Y-10572181D02*
X16104537Y-10572181D01*
X16024708Y-10673781D01*
X16104537Y-10673781D01*
X16278708Y-10572181D02*
X16278708Y-10724581D01*
X16278708Y-10579438D02*
X16293222Y-10572181D01*
X16322251Y-10572181D01*
X16336765Y-10579438D01*
X16344022Y-10586695D01*
X16351280Y-10601209D01*
X16351280Y-10644752D01*
X16344022Y-10659267D01*
X16336765Y-10666524D01*
X16322251Y-10673781D01*
X16293222Y-10673781D01*
X16278708Y-10666524D01*
X16416594Y-10673781D02*
X16416594Y-10572181D01*
X16416594Y-10601209D02*
X16423851Y-10586695D01*
X16431108Y-10579438D01*
X16445622Y-10572181D01*
X16460137Y-10572181D01*
X16532708Y-10673781D02*
X16518194Y-10666524D01*
X16510937Y-10659267D01*
X16503680Y-10644752D01*
X16503680Y-10601209D01*
X16510937Y-10586695D01*
X16518194Y-10579438D01*
X16532708Y-10572181D01*
X16554480Y-10572181D01*
X16568994Y-10579438D01*
X16576251Y-10586695D01*
X16583508Y-10601209D01*
X16583508Y-10644752D01*
X16576251Y-10659267D01*
X16568994Y-10666524D01*
X16554480Y-10673781D01*
X16532708Y-10673781D01*
X16648822Y-10572181D02*
X16648822Y-10724581D01*
X16648822Y-10579438D02*
X16663337Y-10572181D01*
X16692365Y-10572181D01*
X16706880Y-10579438D01*
X16714137Y-10586695D01*
X16721394Y-10601209D01*
X16721394Y-10644752D01*
X16714137Y-10659267D01*
X16706880Y-10666524D01*
X16692365Y-10673781D01*
X16663337Y-10673781D01*
X16648822Y-10666524D01*
X16786708Y-10673781D02*
X16786708Y-10572181D01*
X16786708Y-10601209D02*
X16793965Y-10586695D01*
X16801223Y-10579438D01*
X16815737Y-10572181D01*
X16830251Y-10572181D01*
X16881051Y-10673781D02*
X16881051Y-10572181D01*
X16881051Y-10521381D02*
X16873794Y-10528638D01*
X16881051Y-10535895D01*
X16888308Y-10528638D01*
X16881051Y-10521381D01*
X16881051Y-10535895D01*
X17011680Y-10666524D02*
X16997165Y-10673781D01*
X16968137Y-10673781D01*
X16953623Y-10666524D01*
X16946365Y-10652009D01*
X16946365Y-10593952D01*
X16953623Y-10579438D01*
X16968137Y-10572181D01*
X16997165Y-10572181D01*
X17011680Y-10579438D01*
X17018937Y-10593952D01*
X17018937Y-10608467D01*
X16946365Y-10622981D01*
X17062480Y-10572181D02*
X17120537Y-10572181D01*
X17084251Y-10521381D02*
X17084251Y-10652009D01*
X17091508Y-10666524D01*
X17106023Y-10673781D01*
X17120537Y-10673781D01*
X17236651Y-10673781D02*
X17236651Y-10593952D01*
X17229394Y-10579438D01*
X17214880Y-10572181D01*
X17185851Y-10572181D01*
X17171337Y-10579438D01*
X17236651Y-10666524D02*
X17222137Y-10673781D01*
X17185851Y-10673781D01*
X17171337Y-10666524D01*
X17164080Y-10652009D01*
X17164080Y-10637495D01*
X17171337Y-10622981D01*
X17185851Y-10615724D01*
X17222137Y-10615724D01*
X17236651Y-10608467D01*
X17309223Y-10673781D02*
X17309223Y-10572181D01*
X17309223Y-10601209D02*
X17316480Y-10586695D01*
X17323737Y-10579438D01*
X17338251Y-10572181D01*
X17352765Y-10572181D01*
X17389051Y-10572181D02*
X17425337Y-10673781D01*
X17461623Y-10572181D02*
X17425337Y-10673781D01*
X17410823Y-10710067D01*
X17403565Y-10717324D01*
X17389051Y-10724581D01*
X17628537Y-10666524D02*
X17643051Y-10673781D01*
X17672080Y-10673781D01*
X17686594Y-10666524D01*
X17693851Y-10652009D01*
X17693851Y-10644752D01*
X17686594Y-10630238D01*
X17672080Y-10622981D01*
X17650308Y-10622981D01*
X17635794Y-10615724D01*
X17628537Y-10601209D01*
X17628537Y-10593952D01*
X17635794Y-10579438D01*
X17650308Y-10572181D01*
X17672080Y-10572181D01*
X17686594Y-10579438D01*
X17744651Y-10572181D02*
X17780937Y-10673781D01*
X17817223Y-10572181D02*
X17780937Y-10673781D01*
X17766423Y-10710067D01*
X17759165Y-10717324D01*
X17744651Y-10724581D01*
X17868023Y-10666524D02*
X17882537Y-10673781D01*
X17911565Y-10673781D01*
X17926080Y-10666524D01*
X17933337Y-10652009D01*
X17933337Y-10644752D01*
X17926080Y-10630238D01*
X17911565Y-10622981D01*
X17889794Y-10622981D01*
X17875280Y-10615724D01*
X17868023Y-10601209D01*
X17868023Y-10593952D01*
X17875280Y-10579438D01*
X17889794Y-10572181D01*
X17911565Y-10572181D01*
X17926080Y-10579438D01*
X17976880Y-10572181D02*
X18034937Y-10572181D01*
X17998651Y-10521381D02*
X17998651Y-10652009D01*
X18005908Y-10666524D01*
X18020423Y-10673781D01*
X18034937Y-10673781D01*
X18143794Y-10666524D02*
X18129280Y-10673781D01*
X18100251Y-10673781D01*
X18085737Y-10666524D01*
X18078480Y-10652009D01*
X18078480Y-10593952D01*
X18085737Y-10579438D01*
X18100251Y-10572181D01*
X18129280Y-10572181D01*
X18143794Y-10579438D01*
X18151051Y-10593952D01*
X18151051Y-10608467D01*
X18078480Y-10622981D01*
X18216365Y-10673781D02*
X18216365Y-10572181D01*
X18216365Y-10586695D02*
X18223623Y-10579438D01*
X18238137Y-10572181D01*
X18259908Y-10572181D01*
X18274423Y-10579438D01*
X18281680Y-10593952D01*
X18281680Y-10673781D01*
X18281680Y-10593952D02*
X18288937Y-10579438D01*
X18303451Y-10572181D01*
X18325223Y-10572181D01*
X18339737Y-10579438D01*
X18346994Y-10593952D01*
X18346994Y-10673781D01*
X18419565Y-10615724D02*
X18535680Y-10615724D01*
X18630023Y-10673781D02*
X18615508Y-10666524D01*
X18608251Y-10659267D01*
X18600994Y-10644752D01*
X18600994Y-10601209D01*
X18608251Y-10586695D01*
X18615508Y-10579438D01*
X18630023Y-10572181D01*
X18651794Y-10572181D01*
X18666308Y-10579438D01*
X18673565Y-10586695D01*
X18680823Y-10601209D01*
X18680823Y-10644752D01*
X18673565Y-10659267D01*
X18666308Y-10666524D01*
X18651794Y-10673781D01*
X18630023Y-10673781D01*
X18746137Y-10572181D02*
X18746137Y-10673781D01*
X18746137Y-10586695D02*
X18753394Y-10579438D01*
X18767908Y-10572181D01*
X18789680Y-10572181D01*
X18804194Y-10579438D01*
X18811451Y-10593952D01*
X18811451Y-10673781D01*
X18884023Y-10615724D02*
X19000137Y-10615724D01*
X19138023Y-10666524D02*
X19123508Y-10673781D01*
X19094480Y-10673781D01*
X19079965Y-10666524D01*
X19072708Y-10659267D01*
X19065451Y-10644752D01*
X19065451Y-10601209D01*
X19072708Y-10586695D01*
X19079965Y-10579438D01*
X19094480Y-10572181D01*
X19123508Y-10572181D01*
X19138023Y-10579438D01*
X19203337Y-10673781D02*
X19203337Y-10521381D01*
X19268651Y-10673781D02*
X19268651Y-10593952D01*
X19261394Y-10579438D01*
X19246880Y-10572181D01*
X19225108Y-10572181D01*
X19210594Y-10579438D01*
X19203337Y-10586695D01*
X19341223Y-10673781D02*
X19341223Y-10572181D01*
X19341223Y-10521381D02*
X19333965Y-10528638D01*
X19341223Y-10535895D01*
X19348480Y-10528638D01*
X19341223Y-10521381D01*
X19341223Y-10535895D01*
X19413794Y-10572181D02*
X19413794Y-10724581D01*
X19413794Y-10579438D02*
X19428308Y-10572181D01*
X19457337Y-10572181D01*
X19471851Y-10579438D01*
X19479108Y-10586695D01*
X19486365Y-10601209D01*
X19486365Y-10644752D01*
X19479108Y-10659267D01*
X19471851Y-10666524D01*
X19457337Y-10673781D01*
X19428308Y-10673781D01*
X19413794Y-10666524D01*
%TO.C,U33*%
D10*
X13232095Y-10840619D02*
X13232095Y-10881095D01*
X13234476Y-10885857D01*
X13236857Y-10888238D01*
X13241619Y-10890619D01*
X13251143Y-10890619D01*
X13255905Y-10888238D01*
X13258286Y-10885857D01*
X13260667Y-10881095D01*
X13260667Y-10840619D01*
X13279714Y-10840619D02*
X13310667Y-10840619D01*
X13294000Y-10859667D01*
X13301143Y-10859667D01*
X13305905Y-10862048D01*
X13308286Y-10864429D01*
X13310667Y-10869190D01*
X13310667Y-10881095D01*
X13308286Y-10885857D01*
X13305905Y-10888238D01*
X13301143Y-10890619D01*
X13286857Y-10890619D01*
X13282095Y-10888238D01*
X13279714Y-10885857D01*
X13327333Y-10840619D02*
X13358286Y-10840619D01*
X13341619Y-10859667D01*
X13348762Y-10859667D01*
X13353524Y-10862048D01*
X13355905Y-10864429D01*
X13358286Y-10869190D01*
X13358286Y-10881095D01*
X13355905Y-10885857D01*
X13353524Y-10888238D01*
X13348762Y-10890619D01*
X13334476Y-10890619D01*
X13329714Y-10888238D01*
X13327333Y-10885857D01*
%TO.C,U31*%
X13740095Y-11602619D02*
X13740095Y-11643095D01*
X13742476Y-11647857D01*
X13744857Y-11650238D01*
X13749619Y-11652619D01*
X13759143Y-11652619D01*
X13763905Y-11650238D01*
X13766286Y-11647857D01*
X13768667Y-11643095D01*
X13768667Y-11602619D01*
X13787714Y-11602619D02*
X13818667Y-11602619D01*
X13802000Y-11621667D01*
X13809143Y-11621667D01*
X13813905Y-11624048D01*
X13816286Y-11626428D01*
X13818667Y-11631190D01*
X13818667Y-11643095D01*
X13816286Y-11647857D01*
X13813905Y-11650238D01*
X13809143Y-11652619D01*
X13794857Y-11652619D01*
X13790095Y-11650238D01*
X13787714Y-11647857D01*
X13866286Y-11652619D02*
X13837714Y-11652619D01*
X13852000Y-11652619D02*
X13852000Y-11602619D01*
X13847238Y-11609762D01*
X13842476Y-11614524D01*
X13837714Y-11616905D01*
%TO.C,U25*%
X12984095Y-11343619D02*
X12984095Y-11384095D01*
X12986476Y-11388857D01*
X12988857Y-11391238D01*
X12993619Y-11393619D01*
X13003143Y-11393619D01*
X13007905Y-11391238D01*
X13010286Y-11388857D01*
X13012667Y-11384095D01*
X13012667Y-11343619D01*
X13034095Y-11348381D02*
X13036476Y-11346000D01*
X13041238Y-11343619D01*
X13053143Y-11343619D01*
X13057905Y-11346000D01*
X13060286Y-11348381D01*
X13062667Y-11353143D01*
X13062667Y-11357905D01*
X13060286Y-11365048D01*
X13031714Y-11393619D01*
X13062667Y-11393619D01*
X13107905Y-11343619D02*
X13084095Y-11343619D01*
X13081714Y-11367428D01*
X13084095Y-11365048D01*
X13088857Y-11362667D01*
X13100762Y-11362667D01*
X13105524Y-11365048D01*
X13107905Y-11367428D01*
X13110286Y-11372190D01*
X13110286Y-11384095D01*
X13107905Y-11388857D01*
X13105524Y-11391238D01*
X13100762Y-11393619D01*
X13088857Y-11393619D01*
X13084095Y-11391238D01*
X13081714Y-11388857D01*
%TO.C,U20*%
X14000095Y-11343619D02*
X14000095Y-11384095D01*
X14002476Y-11388857D01*
X14004857Y-11391238D01*
X14009619Y-11393619D01*
X14019143Y-11393619D01*
X14023905Y-11391238D01*
X14026286Y-11388857D01*
X14028667Y-11384095D01*
X14028667Y-11343619D01*
X14050095Y-11348381D02*
X14052476Y-11346000D01*
X14057238Y-11343619D01*
X14069143Y-11343619D01*
X14073905Y-11346000D01*
X14076286Y-11348381D01*
X14078667Y-11353143D01*
X14078667Y-11357905D01*
X14076286Y-11365048D01*
X14047714Y-11393619D01*
X14078667Y-11393619D01*
X14109619Y-11343619D02*
X14114381Y-11343619D01*
X14119143Y-11346000D01*
X14121524Y-11348381D01*
X14123905Y-11353143D01*
X14126286Y-11362667D01*
X14126286Y-11374571D01*
X14123905Y-11384095D01*
X14121524Y-11388857D01*
X14119143Y-11391238D01*
X14114381Y-11393619D01*
X14109619Y-11393619D01*
X14104857Y-11391238D01*
X14102476Y-11388857D01*
X14100095Y-11384095D01*
X14097714Y-11374571D01*
X14097714Y-11362667D01*
X14100095Y-11353143D01*
X14102476Y-11348381D01*
X14104857Y-11346000D01*
X14109619Y-11343619D01*
%TO.C,U19*%
X14756095Y-10840619D02*
X14756095Y-10881095D01*
X14758476Y-10885857D01*
X14760857Y-10888238D01*
X14765619Y-10890619D01*
X14775143Y-10890619D01*
X14779905Y-10888238D01*
X14782286Y-10885857D01*
X14784667Y-10881095D01*
X14784667Y-10840619D01*
X14834667Y-10890619D02*
X14806095Y-10890619D01*
X14820381Y-10890619D02*
X14820381Y-10840619D01*
X14815619Y-10847762D01*
X14810857Y-10852524D01*
X14806095Y-10854905D01*
X14858476Y-10890619D02*
X14868000Y-10890619D01*
X14872762Y-10888238D01*
X14875143Y-10885857D01*
X14879905Y-10878714D01*
X14882286Y-10869190D01*
X14882286Y-10850143D01*
X14879905Y-10845381D01*
X14877524Y-10843000D01*
X14872762Y-10840619D01*
X14863238Y-10840619D01*
X14858476Y-10843000D01*
X14856095Y-10845381D01*
X14853714Y-10850143D01*
X14853714Y-10862048D01*
X14856095Y-10866810D01*
X14858476Y-10869190D01*
X14863238Y-10871571D01*
X14872762Y-10871571D01*
X14877524Y-10869190D01*
X14879905Y-10866810D01*
X14882286Y-10862048D01*
%TO.C,C12*%
D17*
X12904862Y-10928507D02*
X12897605Y-10935764D01*
X12875834Y-10943021D01*
X12861320Y-10943021D01*
X12839548Y-10935764D01*
X12825034Y-10921249D01*
X12817777Y-10906735D01*
X12810520Y-10877707D01*
X12810520Y-10855935D01*
X12817777Y-10826907D01*
X12825034Y-10812392D01*
X12839548Y-10797878D01*
X12861320Y-10790621D01*
X12875834Y-10790621D01*
X12897605Y-10797878D01*
X12904862Y-10805135D01*
X13050005Y-10943021D02*
X12962920Y-10943021D01*
X13006462Y-10943021D02*
X13006462Y-10790621D01*
X12991948Y-10812392D01*
X12977434Y-10826907D01*
X12962920Y-10834164D01*
X13108062Y-10805135D02*
X13115320Y-10797878D01*
X13129834Y-10790621D01*
X13166120Y-10790621D01*
X13180634Y-10797878D01*
X13187891Y-10805135D01*
X13195148Y-10819649D01*
X13195148Y-10834164D01*
X13187891Y-10855935D01*
X13100805Y-10943021D01*
X13195148Y-10943021D01*
%TO.C,C10*%
X13377373Y-9876439D02*
X13370116Y-9883696D01*
X13348345Y-9890953D01*
X13333831Y-9890953D01*
X13312059Y-9883696D01*
X13297545Y-9869181D01*
X13290288Y-9854667D01*
X13283031Y-9825639D01*
X13283031Y-9803867D01*
X13290288Y-9774839D01*
X13297545Y-9760324D01*
X13312059Y-9745810D01*
X13333831Y-9738553D01*
X13348345Y-9738553D01*
X13370116Y-9745810D01*
X13377373Y-9753067D01*
X13522516Y-9890953D02*
X13435431Y-9890953D01*
X13478973Y-9890953D02*
X13478973Y-9738553D01*
X13464459Y-9760324D01*
X13449945Y-9774839D01*
X13435431Y-9782096D01*
X13616859Y-9738553D02*
X13631373Y-9738553D01*
X13645888Y-9745810D01*
X13653145Y-9753067D01*
X13660402Y-9767581D01*
X13667659Y-9796610D01*
X13667659Y-9832896D01*
X13660402Y-9861924D01*
X13653145Y-9876439D01*
X13645888Y-9883696D01*
X13631373Y-9890953D01*
X13616859Y-9890953D01*
X13602345Y-9883696D01*
X13595088Y-9876439D01*
X13587831Y-9861924D01*
X13580573Y-9832896D01*
X13580573Y-9796610D01*
X13587831Y-9767581D01*
X13595088Y-9753067D01*
X13602345Y-9745810D01*
X13616859Y-9738553D01*
%TO.C,L3*%
X13381365Y-9977313D02*
X13308793Y-9977313D01*
X13308793Y-9824913D01*
X13417651Y-9824913D02*
X13511993Y-9824913D01*
X13461193Y-9882970D01*
X13482965Y-9882970D01*
X13497479Y-9890227D01*
X13504736Y-9897484D01*
X13511993Y-9911999D01*
X13511993Y-9948284D01*
X13504736Y-9962799D01*
X13497479Y-9970056D01*
X13482965Y-9977313D01*
X13439422Y-9977313D01*
X13424908Y-9970056D01*
X13417651Y-9962799D01*
%TO.C,L2*%
X13498134Y-10185585D02*
X13425562Y-10185585D01*
X13425562Y-10033185D01*
X13541677Y-10047699D02*
X13548934Y-10040442D01*
X13563448Y-10033185D01*
X13599734Y-10033185D01*
X13614248Y-10040442D01*
X13621505Y-10047699D01*
X13628762Y-10062213D01*
X13628762Y-10076728D01*
X13621505Y-10098499D01*
X13534420Y-10185585D01*
X13628762Y-10185585D01*
%TO.C,C4*%
X13190794Y-10471307D02*
X13183537Y-10478564D01*
X13161765Y-10485821D01*
X13147251Y-10485821D01*
X13125480Y-10478564D01*
X13110965Y-10464049D01*
X13103708Y-10449535D01*
X13096451Y-10420507D01*
X13096451Y-10398735D01*
X13103708Y-10369707D01*
X13110965Y-10355192D01*
X13125480Y-10340678D01*
X13147251Y-10333421D01*
X13161765Y-10333421D01*
X13183537Y-10340678D01*
X13190794Y-10347935D01*
X13321422Y-10384221D02*
X13321422Y-10485821D01*
X13285137Y-10326164D02*
X13248851Y-10435021D01*
X13343194Y-10435021D01*
%TO.C,C5*%
X13439714Y-11068207D02*
X13432457Y-11075464D01*
X13410685Y-11082721D01*
X13396171Y-11082721D01*
X13374400Y-11075464D01*
X13359885Y-11060949D01*
X13352628Y-11046435D01*
X13345371Y-11017407D01*
X13345371Y-10995635D01*
X13352628Y-10966607D01*
X13359885Y-10952092D01*
X13374400Y-10937578D01*
X13396171Y-10930321D01*
X13410685Y-10930321D01*
X13432457Y-10937578D01*
X13439714Y-10944835D01*
X13577600Y-10930321D02*
X13505028Y-10930321D01*
X13497771Y-11002892D01*
X13505028Y-10995635D01*
X13519542Y-10988378D01*
X13555828Y-10988378D01*
X13570342Y-10995635D01*
X13577600Y-11002892D01*
X13584857Y-11017407D01*
X13584857Y-11053692D01*
X13577600Y-11068207D01*
X13570342Y-11075464D01*
X13555828Y-11082721D01*
X13519542Y-11082721D01*
X13505028Y-11075464D01*
X13497771Y-11068207D01*
%TO.C,C7*%
X14252514Y-10397647D02*
X14245257Y-10404904D01*
X14223485Y-10412161D01*
X14208971Y-10412161D01*
X14187200Y-10404904D01*
X14172685Y-10390389D01*
X14165428Y-10375875D01*
X14158171Y-10346847D01*
X14158171Y-10325075D01*
X14165428Y-10296047D01*
X14172685Y-10281532D01*
X14187200Y-10267018D01*
X14208971Y-10259761D01*
X14223485Y-10259761D01*
X14245257Y-10267018D01*
X14252514Y-10274275D01*
X14303314Y-10259761D02*
X14404914Y-10259761D01*
X14339600Y-10412161D01*
%TO.C,C1*%
X14572537Y-10199509D02*
X14565280Y-10206766D01*
X14543508Y-10214023D01*
X14528994Y-10214023D01*
X14507223Y-10206766D01*
X14492708Y-10192251D01*
X14485451Y-10177737D01*
X14478194Y-10148709D01*
X14478194Y-10126937D01*
X14485451Y-10097909D01*
X14492708Y-10083394D01*
X14507223Y-10068880D01*
X14528994Y-10061623D01*
X14543508Y-10061623D01*
X14565280Y-10068880D01*
X14572537Y-10076137D01*
X14717680Y-10214023D02*
X14630594Y-10214023D01*
X14674137Y-10214023D02*
X14674137Y-10061623D01*
X14659623Y-10083394D01*
X14645108Y-10097909D01*
X14630594Y-10105166D01*
%TO.C,X1*%
X14296765Y-10061623D02*
X14398365Y-10214023D01*
X14398365Y-10061623D02*
X14296765Y-10214023D01*
X14536251Y-10214023D02*
X14449165Y-10214023D01*
X14492708Y-10214023D02*
X14492708Y-10061623D01*
X14478194Y-10083394D01*
X14463680Y-10097909D01*
X14449165Y-10105166D01*
%TO.C,C8*%
X14128037Y-10199509D02*
X14120780Y-10206766D01*
X14099008Y-10214023D01*
X14084494Y-10214023D01*
X14062723Y-10206766D01*
X14048208Y-10192251D01*
X14040951Y-10177737D01*
X14033694Y-10148709D01*
X14033694Y-10126937D01*
X14040951Y-10097909D01*
X14048208Y-10083394D01*
X14062723Y-10068880D01*
X14084494Y-10061623D01*
X14099008Y-10061623D01*
X14120780Y-10068880D01*
X14128037Y-10076137D01*
X14215123Y-10126937D02*
X14200608Y-10119680D01*
X14193351Y-10112423D01*
X14186094Y-10097909D01*
X14186094Y-10090651D01*
X14193351Y-10076137D01*
X14200608Y-10068880D01*
X14215123Y-10061623D01*
X14244151Y-10061623D01*
X14258665Y-10068880D01*
X14265923Y-10076137D01*
X14273180Y-10090651D01*
X14273180Y-10097909D01*
X14265923Y-10112423D01*
X14258665Y-10119680D01*
X14244151Y-10126937D01*
X14215123Y-10126937D01*
X14200608Y-10134194D01*
X14193351Y-10141451D01*
X14186094Y-10155966D01*
X14186094Y-10184994D01*
X14193351Y-10199509D01*
X14200608Y-10206766D01*
X14215123Y-10214023D01*
X14244151Y-10214023D01*
X14258665Y-10206766D01*
X14265923Y-10199509D01*
X14273180Y-10184994D01*
X14273180Y-10155966D01*
X14265923Y-10141451D01*
X14258665Y-10134194D01*
X14244151Y-10126937D01*
%TO.C,C9*%
X13190794Y-10367167D02*
X13183537Y-10374424D01*
X13161765Y-10381681D01*
X13147251Y-10381681D01*
X13125480Y-10374424D01*
X13110965Y-10359909D01*
X13103708Y-10345395D01*
X13096451Y-10316367D01*
X13096451Y-10294595D01*
X13103708Y-10265567D01*
X13110965Y-10251052D01*
X13125480Y-10236538D01*
X13147251Y-10229281D01*
X13161765Y-10229281D01*
X13183537Y-10236538D01*
X13190794Y-10243795D01*
X13263365Y-10381681D02*
X13292394Y-10381681D01*
X13306908Y-10374424D01*
X13314165Y-10367167D01*
X13328680Y-10345395D01*
X13335937Y-10316367D01*
X13335937Y-10258309D01*
X13328680Y-10243795D01*
X13321422Y-10236538D01*
X13306908Y-10229281D01*
X13277880Y-10229281D01*
X13263365Y-10236538D01*
X13256108Y-10243795D01*
X13248851Y-10258309D01*
X13248851Y-10294595D01*
X13256108Y-10309109D01*
X13263365Y-10316367D01*
X13277880Y-10323624D01*
X13306908Y-10323624D01*
X13321422Y-10316367D01*
X13328680Y-10309109D01*
X13335937Y-10294595D01*
%TO.C,C6*%
X14252514Y-10486547D02*
X14245257Y-10493804D01*
X14223485Y-10501061D01*
X14208971Y-10501061D01*
X14187200Y-10493804D01*
X14172685Y-10479289D01*
X14165428Y-10464775D01*
X14158171Y-10435747D01*
X14158171Y-10413975D01*
X14165428Y-10384947D01*
X14172685Y-10370432D01*
X14187200Y-10355918D01*
X14208971Y-10348661D01*
X14223485Y-10348661D01*
X14245257Y-10355918D01*
X14252514Y-10363175D01*
X14383142Y-10348661D02*
X14354114Y-10348661D01*
X14339600Y-10355918D01*
X14332342Y-10363175D01*
X14317828Y-10384947D01*
X14310571Y-10413975D01*
X14310571Y-10472032D01*
X14317828Y-10486547D01*
X14325085Y-10493804D01*
X14339600Y-10501061D01*
X14368628Y-10501061D01*
X14383142Y-10493804D01*
X14390400Y-10486547D01*
X14397657Y-10472032D01*
X14397657Y-10435747D01*
X14390400Y-10421232D01*
X14383142Y-10413975D01*
X14368628Y-10406718D01*
X14339600Y-10406718D01*
X14325085Y-10413975D01*
X14317828Y-10421232D01*
X14310571Y-10435747D01*
X13577600Y-10501061D02*
X13577600Y-10348661D01*
X13664685Y-10501061D01*
X13664685Y-10348661D01*
X13759028Y-10501061D02*
X13744514Y-10493804D01*
X13737257Y-10486547D01*
X13730000Y-10472032D01*
X13730000Y-10428489D01*
X13737257Y-10413975D01*
X13744514Y-10406718D01*
X13759028Y-10399461D01*
X13780800Y-10399461D01*
X13795314Y-10406718D01*
X13802571Y-10413975D01*
X13809828Y-10428489D01*
X13809828Y-10472032D01*
X13802571Y-10486547D01*
X13795314Y-10493804D01*
X13780800Y-10501061D01*
X13759028Y-10501061D01*
X13853371Y-10399461D02*
X13911428Y-10399461D01*
X13875142Y-10348661D02*
X13875142Y-10479289D01*
X13882400Y-10493804D01*
X13896914Y-10501061D01*
X13911428Y-10501061D01*
X14078342Y-10501061D02*
X14078342Y-10399461D01*
X14078342Y-10413975D02*
X14085600Y-10406718D01*
X14100114Y-10399461D01*
X14121885Y-10399461D01*
X14136400Y-10406718D01*
X14143657Y-10421232D01*
X14143657Y-10501061D01*
X14143657Y-10421232D02*
X14150914Y-10406718D01*
X14165428Y-10399461D01*
X14187200Y-10399461D01*
X14201714Y-10406718D01*
X14208971Y-10421232D01*
X14208971Y-10501061D01*
X14303314Y-10501061D02*
X14288800Y-10493804D01*
X14281542Y-10486547D01*
X14274285Y-10472032D01*
X14274285Y-10428489D01*
X14281542Y-10413975D01*
X14288800Y-10406718D01*
X14303314Y-10399461D01*
X14325085Y-10399461D01*
X14339600Y-10406718D01*
X14346857Y-10413975D01*
X14354114Y-10428489D01*
X14354114Y-10472032D01*
X14346857Y-10486547D01*
X14339600Y-10493804D01*
X14325085Y-10501061D01*
X14303314Y-10501061D01*
X14484742Y-10399461D02*
X14484742Y-10501061D01*
X14419428Y-10399461D02*
X14419428Y-10479289D01*
X14426685Y-10493804D01*
X14441200Y-10501061D01*
X14462971Y-10501061D01*
X14477485Y-10493804D01*
X14484742Y-10486547D01*
X14557314Y-10399461D02*
X14557314Y-10501061D01*
X14557314Y-10413975D02*
X14564571Y-10406718D01*
X14579085Y-10399461D01*
X14600857Y-10399461D01*
X14615371Y-10406718D01*
X14622628Y-10421232D01*
X14622628Y-10501061D01*
X14673428Y-10399461D02*
X14731485Y-10399461D01*
X14695200Y-10348661D02*
X14695200Y-10479289D01*
X14702457Y-10493804D01*
X14716971Y-10501061D01*
X14731485Y-10501061D01*
X14840342Y-10493804D02*
X14825828Y-10501061D01*
X14796800Y-10501061D01*
X14782285Y-10493804D01*
X14775028Y-10479289D01*
X14775028Y-10421232D01*
X14782285Y-10406718D01*
X14796800Y-10399461D01*
X14825828Y-10399461D01*
X14840342Y-10406718D01*
X14847600Y-10421232D01*
X14847600Y-10435747D01*
X14775028Y-10450261D01*
X14978228Y-10501061D02*
X14978228Y-10348661D01*
X14978228Y-10493804D02*
X14963714Y-10501061D01*
X14934685Y-10501061D01*
X14920171Y-10493804D01*
X14912914Y-10486547D01*
X14905657Y-10472032D01*
X14905657Y-10428489D01*
X14912914Y-10413975D01*
X14920171Y-10406718D01*
X14934685Y-10399461D01*
X14963714Y-10399461D01*
X14978228Y-10406718D01*
%TO.C,C2*%
X14216937Y-10199509D02*
X14209680Y-10206766D01*
X14187908Y-10214023D01*
X14173394Y-10214023D01*
X14151623Y-10206766D01*
X14137108Y-10192251D01*
X14129851Y-10177737D01*
X14122594Y-10148709D01*
X14122594Y-10126937D01*
X14129851Y-10097909D01*
X14137108Y-10083394D01*
X14151623Y-10068880D01*
X14173394Y-10061623D01*
X14187908Y-10061623D01*
X14209680Y-10068880D01*
X14216937Y-10076137D01*
X14274994Y-10076137D02*
X14282251Y-10068880D01*
X14296765Y-10061623D01*
X14333051Y-10061623D01*
X14347565Y-10068880D01*
X14354823Y-10076137D01*
X14362080Y-10090651D01*
X14362080Y-10105166D01*
X14354823Y-10126937D01*
X14267737Y-10214023D01*
X14362080Y-10214023D01*
%TO.C,C3*%
X14143294Y-10659267D02*
X14136037Y-10666524D01*
X14114265Y-10673781D01*
X14099751Y-10673781D01*
X14077980Y-10666524D01*
X14063465Y-10652009D01*
X14056208Y-10637495D01*
X14048951Y-10608467D01*
X14048951Y-10586695D01*
X14056208Y-10557667D01*
X14063465Y-10543152D01*
X14077980Y-10528638D01*
X14099751Y-10521381D01*
X14114265Y-10521381D01*
X14136037Y-10528638D01*
X14143294Y-10535895D01*
X14194094Y-10521381D02*
X14288437Y-10521381D01*
X14237637Y-10579438D01*
X14259408Y-10579438D01*
X14273922Y-10586695D01*
X14281180Y-10593952D01*
X14288437Y-10608467D01*
X14288437Y-10644752D01*
X14281180Y-10659267D01*
X14273922Y-10666524D01*
X14259408Y-10673781D01*
X14215865Y-10673781D01*
X14201351Y-10666524D01*
X14194094Y-10659267D01*
%TO.C,X2*%
X12879462Y-10559481D02*
X12981062Y-10711881D01*
X12981062Y-10559481D02*
X12879462Y-10711881D01*
X13031862Y-10573995D02*
X13039120Y-10566738D01*
X13053634Y-10559481D01*
X13089920Y-10559481D01*
X13104434Y-10566738D01*
X13111691Y-10573995D01*
X13118948Y-10588509D01*
X13118948Y-10603024D01*
X13111691Y-10624795D01*
X13024605Y-10711881D01*
X13118948Y-10711881D01*
%TO.C,C11*%
X13047102Y-10613547D02*
X13039845Y-10620804D01*
X13018074Y-10628061D01*
X13003560Y-10628061D01*
X12981788Y-10620804D01*
X12967274Y-10606289D01*
X12960017Y-10591775D01*
X12952760Y-10562747D01*
X12952760Y-10540975D01*
X12960017Y-10511947D01*
X12967274Y-10497432D01*
X12981788Y-10482918D01*
X13003560Y-10475661D01*
X13018074Y-10475661D01*
X13039845Y-10482918D01*
X13047102Y-10490175D01*
X13192245Y-10628061D02*
X13105160Y-10628061D01*
X13148702Y-10628061D02*
X13148702Y-10475661D01*
X13134188Y-10497432D01*
X13119674Y-10511947D01*
X13105160Y-10519204D01*
X13337388Y-10628061D02*
X13250302Y-10628061D01*
X13293845Y-10628061D02*
X13293845Y-10475661D01*
X13279331Y-10497432D01*
X13264817Y-10511947D01*
X13250302Y-10519204D01*
%TO.C,C13*%
X13570342Y-10001407D02*
X13563085Y-10008664D01*
X13541314Y-10015921D01*
X13526800Y-10015921D01*
X13505028Y-10008664D01*
X13490514Y-9994149D01*
X13483257Y-9979635D01*
X13476000Y-9950607D01*
X13476000Y-9928835D01*
X13483257Y-9899807D01*
X13490514Y-9885292D01*
X13505028Y-9870778D01*
X13526800Y-9863521D01*
X13541314Y-9863521D01*
X13563085Y-9870778D01*
X13570342Y-9878035D01*
X13715485Y-10015921D02*
X13628400Y-10015921D01*
X13671942Y-10015921D02*
X13671942Y-9863521D01*
X13657428Y-9885292D01*
X13642914Y-9899807D01*
X13628400Y-9907064D01*
X13766285Y-9863521D02*
X13860628Y-9863521D01*
X13809828Y-9921578D01*
X13831600Y-9921578D01*
X13846114Y-9928835D01*
X13853371Y-9936092D01*
X13860628Y-9950607D01*
X13860628Y-9986892D01*
X13853371Y-10001407D01*
X13846114Y-10008664D01*
X13831600Y-10015921D01*
X13788057Y-10015921D01*
X13773542Y-10008664D01*
X13766285Y-10001407D01*
X12968000Y-10015921D02*
X12968000Y-9863521D01*
X13055085Y-10015921D01*
X13055085Y-9863521D01*
X13149428Y-10015921D02*
X13134914Y-10008664D01*
X13127657Y-10001407D01*
X13120400Y-9986892D01*
X13120400Y-9943349D01*
X13127657Y-9928835D01*
X13134914Y-9921578D01*
X13149428Y-9914321D01*
X13171200Y-9914321D01*
X13185714Y-9921578D01*
X13192971Y-9928835D01*
X13200228Y-9943349D01*
X13200228Y-9986892D01*
X13192971Y-10001407D01*
X13185714Y-10008664D01*
X13171200Y-10015921D01*
X13149428Y-10015921D01*
X13243771Y-9914321D02*
X13301828Y-9914321D01*
X13265542Y-9863521D02*
X13265542Y-9994149D01*
X13272800Y-10008664D01*
X13287314Y-10015921D01*
X13301828Y-10015921D01*
X13468742Y-10015921D02*
X13468742Y-9914321D01*
X13468742Y-9928835D02*
X13476000Y-9921578D01*
X13490514Y-9914321D01*
X13512285Y-9914321D01*
X13526800Y-9921578D01*
X13534057Y-9936092D01*
X13534057Y-10015921D01*
X13534057Y-9936092D02*
X13541314Y-9921578D01*
X13555828Y-9914321D01*
X13577600Y-9914321D01*
X13592114Y-9921578D01*
X13599371Y-9936092D01*
X13599371Y-10015921D01*
X13693714Y-10015921D02*
X13679200Y-10008664D01*
X13671942Y-10001407D01*
X13664685Y-9986892D01*
X13664685Y-9943349D01*
X13671942Y-9928835D01*
X13679200Y-9921578D01*
X13693714Y-9914321D01*
X13715485Y-9914321D01*
X13730000Y-9921578D01*
X13737257Y-9928835D01*
X13744514Y-9943349D01*
X13744514Y-9986892D01*
X13737257Y-10001407D01*
X13730000Y-10008664D01*
X13715485Y-10015921D01*
X13693714Y-10015921D01*
X13875142Y-9914321D02*
X13875142Y-10015921D01*
X13809828Y-9914321D02*
X13809828Y-9994149D01*
X13817085Y-10008664D01*
X13831600Y-10015921D01*
X13853371Y-10015921D01*
X13867885Y-10008664D01*
X13875142Y-10001407D01*
X13947714Y-9914321D02*
X13947714Y-10015921D01*
X13947714Y-9928835D02*
X13954971Y-9921578D01*
X13969485Y-9914321D01*
X13991257Y-9914321D01*
X14005771Y-9921578D01*
X14013028Y-9936092D01*
X14013028Y-10015921D01*
X14063828Y-9914321D02*
X14121885Y-9914321D01*
X14085600Y-9863521D02*
X14085600Y-9994149D01*
X14092857Y-10008664D01*
X14107371Y-10015921D01*
X14121885Y-10015921D01*
X14230742Y-10008664D02*
X14216228Y-10015921D01*
X14187200Y-10015921D01*
X14172685Y-10008664D01*
X14165428Y-9994149D01*
X14165428Y-9936092D01*
X14172685Y-9921578D01*
X14187200Y-9914321D01*
X14216228Y-9914321D01*
X14230742Y-9921578D01*
X14238000Y-9936092D01*
X14238000Y-9950607D01*
X14165428Y-9965121D01*
X14368628Y-10015921D02*
X14368628Y-9863521D01*
X14368628Y-10008664D02*
X14354114Y-10015921D01*
X14325085Y-10015921D01*
X14310571Y-10008664D01*
X14303314Y-10001407D01*
X14296057Y-9986892D01*
X14296057Y-9943349D01*
X14303314Y-9928835D01*
X14310571Y-9921578D01*
X14325085Y-9914321D01*
X14354114Y-9914321D01*
X14368628Y-9921578D01*
%TO.C,U32*%
D10*
X12978095Y-11094619D02*
X12978095Y-11135095D01*
X12980476Y-11139857D01*
X12982857Y-11142238D01*
X12987619Y-11144619D01*
X12997143Y-11144619D01*
X13001905Y-11142238D01*
X13004286Y-11139857D01*
X13006667Y-11135095D01*
X13006667Y-11094619D01*
X13025714Y-11094619D02*
X13056667Y-11094619D01*
X13040000Y-11113667D01*
X13047143Y-11113667D01*
X13051905Y-11116048D01*
X13054286Y-11118429D01*
X13056667Y-11123190D01*
X13056667Y-11135095D01*
X13054286Y-11139857D01*
X13051905Y-11142238D01*
X13047143Y-11144619D01*
X13032857Y-11144619D01*
X13028095Y-11142238D01*
X13025714Y-11139857D01*
X13075714Y-11099381D02*
X13078095Y-11097000D01*
X13082857Y-11094619D01*
X13094762Y-11094619D01*
X13099524Y-11097000D01*
X13101905Y-11099381D01*
X13104286Y-11104143D01*
X13104286Y-11108905D01*
X13101905Y-11116048D01*
X13073333Y-11144619D01*
X13104286Y-11144619D01*
%TO.C,U30*%
X13232095Y-11348619D02*
X13232095Y-11389095D01*
X13234476Y-11393857D01*
X13236857Y-11396238D01*
X13241619Y-11398619D01*
X13251143Y-11398619D01*
X13255905Y-11396238D01*
X13258286Y-11393857D01*
X13260667Y-11389095D01*
X13260667Y-11348619D01*
X13279714Y-11348619D02*
X13310667Y-11348619D01*
X13294000Y-11367667D01*
X13301143Y-11367667D01*
X13305905Y-11370048D01*
X13308286Y-11372428D01*
X13310667Y-11377190D01*
X13310667Y-11389095D01*
X13308286Y-11393857D01*
X13305905Y-11396238D01*
X13301143Y-11398619D01*
X13286857Y-11398619D01*
X13282095Y-11396238D01*
X13279714Y-11393857D01*
X13341619Y-11348619D02*
X13346381Y-11348619D01*
X13351143Y-11351000D01*
X13353524Y-11353381D01*
X13355905Y-11358143D01*
X13358286Y-11367667D01*
X13358286Y-11379571D01*
X13355905Y-11389095D01*
X13353524Y-11393857D01*
X13351143Y-11396238D01*
X13346381Y-11398619D01*
X13341619Y-11398619D01*
X13336857Y-11396238D01*
X13334476Y-11393857D01*
X13332095Y-11389095D01*
X13329714Y-11379571D01*
X13329714Y-11367667D01*
X13332095Y-11358143D01*
X13334476Y-11353381D01*
X13336857Y-11351000D01*
X13341619Y-11348619D01*
%TO.C,U29*%
X12978095Y-10840619D02*
X12978095Y-10881095D01*
X12980476Y-10885857D01*
X12982857Y-10888238D01*
X12987619Y-10890619D01*
X12997143Y-10890619D01*
X13001905Y-10888238D01*
X13004286Y-10885857D01*
X13006667Y-10881095D01*
X13006667Y-10840619D01*
X13028095Y-10845381D02*
X13030476Y-10843000D01*
X13035238Y-10840619D01*
X13047143Y-10840619D01*
X13051905Y-10843000D01*
X13054286Y-10845381D01*
X13056667Y-10850143D01*
X13056667Y-10854905D01*
X13054286Y-10862048D01*
X13025714Y-10890619D01*
X13056667Y-10890619D01*
X13080476Y-10890619D02*
X13090000Y-10890619D01*
X13094762Y-10888238D01*
X13097143Y-10885857D01*
X13101905Y-10878714D01*
X13104286Y-10869190D01*
X13104286Y-10850143D01*
X13101905Y-10845381D01*
X13099524Y-10843000D01*
X13094762Y-10840619D01*
X13085238Y-10840619D01*
X13080476Y-10843000D01*
X13078095Y-10845381D01*
X13075714Y-10850143D01*
X13075714Y-10862048D01*
X13078095Y-10866810D01*
X13080476Y-10869190D01*
X13085238Y-10871571D01*
X13094762Y-10871571D01*
X13099524Y-10869190D01*
X13101905Y-10866810D01*
X13104286Y-10862048D01*
%TO.C,U28*%
X12984095Y-11597619D02*
X12984095Y-11638095D01*
X12986476Y-11642857D01*
X12988857Y-11645238D01*
X12993619Y-11647619D01*
X13003143Y-11647619D01*
X13007905Y-11645238D01*
X13010286Y-11642857D01*
X13012667Y-11638095D01*
X13012667Y-11597619D01*
X13034095Y-11602381D02*
X13036476Y-11600000D01*
X13041238Y-11597619D01*
X13053143Y-11597619D01*
X13057905Y-11600000D01*
X13060286Y-11602381D01*
X13062667Y-11607143D01*
X13062667Y-11611905D01*
X13060286Y-11619048D01*
X13031714Y-11647619D01*
X13062667Y-11647619D01*
X13091238Y-11619048D02*
X13086476Y-11616667D01*
X13084095Y-11614286D01*
X13081714Y-11609524D01*
X13081714Y-11607143D01*
X13084095Y-11602381D01*
X13086476Y-11600000D01*
X13091238Y-11597619D01*
X13100762Y-11597619D01*
X13105524Y-11600000D01*
X13107905Y-11602381D01*
X13110286Y-11607143D01*
X13110286Y-11609524D01*
X13107905Y-11614286D01*
X13105524Y-11616667D01*
X13100762Y-11619048D01*
X13091238Y-11619048D01*
X13086476Y-11621428D01*
X13084095Y-11623809D01*
X13081714Y-11628571D01*
X13081714Y-11638095D01*
X13084095Y-11642857D01*
X13086476Y-11645238D01*
X13091238Y-11647619D01*
X13100762Y-11647619D01*
X13105524Y-11645238D01*
X13107905Y-11642857D01*
X13110286Y-11638095D01*
X13110286Y-11628571D01*
X13107905Y-11623809D01*
X13105524Y-11621428D01*
X13100762Y-11619048D01*
%TO.C,U27*%
X14000095Y-11597619D02*
X14000095Y-11638095D01*
X14002476Y-11642857D01*
X14004857Y-11645238D01*
X14009619Y-11647619D01*
X14019143Y-11647619D01*
X14023905Y-11645238D01*
X14026286Y-11642857D01*
X14028667Y-11638095D01*
X14028667Y-11597619D01*
X14050095Y-11602381D02*
X14052476Y-11600000D01*
X14057238Y-11597619D01*
X14069143Y-11597619D01*
X14073905Y-11600000D01*
X14076286Y-11602381D01*
X14078667Y-11607143D01*
X14078667Y-11611905D01*
X14076286Y-11619048D01*
X14047714Y-11647619D01*
X14078667Y-11647619D01*
X14095333Y-11597619D02*
X14128667Y-11597619D01*
X14107238Y-11647619D01*
%TO.C,U24*%
X13232095Y-11856619D02*
X13232095Y-11897095D01*
X13234476Y-11901857D01*
X13236857Y-11904238D01*
X13241619Y-11906619D01*
X13251143Y-11906619D01*
X13255905Y-11904238D01*
X13258286Y-11901857D01*
X13260667Y-11897095D01*
X13260667Y-11856619D01*
X13282095Y-11861381D02*
X13284476Y-11859000D01*
X13289238Y-11856619D01*
X13301143Y-11856619D01*
X13305905Y-11859000D01*
X13308286Y-11861381D01*
X13310667Y-11866143D01*
X13310667Y-11870905D01*
X13308286Y-11878048D01*
X13279714Y-11906619D01*
X13310667Y-11906619D01*
X13353524Y-11873286D02*
X13353524Y-11906619D01*
X13341619Y-11854238D02*
X13329714Y-11889952D01*
X13360667Y-11889952D01*
%TO.C,U23*%
X14248095Y-11602619D02*
X14248095Y-11643095D01*
X14250476Y-11647857D01*
X14252857Y-11650238D01*
X14257619Y-11652619D01*
X14267143Y-11652619D01*
X14271905Y-11650238D01*
X14274286Y-11647857D01*
X14276667Y-11643095D01*
X14276667Y-11602619D01*
X14298095Y-11607381D02*
X14300476Y-11605000D01*
X14305238Y-11602619D01*
X14317143Y-11602619D01*
X14321905Y-11605000D01*
X14324286Y-11607381D01*
X14326667Y-11612143D01*
X14326667Y-11616905D01*
X14324286Y-11624048D01*
X14295714Y-11652619D01*
X14326667Y-11652619D01*
X14343333Y-11602619D02*
X14374286Y-11602619D01*
X14357619Y-11621667D01*
X14364762Y-11621667D01*
X14369524Y-11624048D01*
X14371905Y-11626428D01*
X14374286Y-11631190D01*
X14374286Y-11643095D01*
X14371905Y-11647857D01*
X14369524Y-11650238D01*
X14364762Y-11652619D01*
X14350476Y-11652619D01*
X14345714Y-11650238D01*
X14343333Y-11647857D01*
%TO.C,U102*%
X14230286Y-11089619D02*
X14230286Y-11130095D01*
X14232667Y-11134857D01*
X14235048Y-11137238D01*
X14239809Y-11139619D01*
X14249333Y-11139619D01*
X14254095Y-11137238D01*
X14256476Y-11134857D01*
X14258857Y-11130095D01*
X14258857Y-11089619D01*
X14308857Y-11139619D02*
X14280286Y-11139619D01*
X14294571Y-11139619D02*
X14294571Y-11089619D01*
X14289809Y-11096762D01*
X14285048Y-11101524D01*
X14280286Y-11103905D01*
X14339809Y-11089619D02*
X14344571Y-11089619D01*
X14349333Y-11092000D01*
X14351714Y-11094381D01*
X14354095Y-11099143D01*
X14356476Y-11108667D01*
X14356476Y-11120571D01*
X14354095Y-11130095D01*
X14351714Y-11134857D01*
X14349333Y-11137238D01*
X14344571Y-11139619D01*
X14339809Y-11139619D01*
X14335048Y-11137238D01*
X14332667Y-11134857D01*
X14330286Y-11130095D01*
X14327905Y-11120571D01*
X14327905Y-11108667D01*
X14330286Y-11099143D01*
X14332667Y-11094381D01*
X14335048Y-11092000D01*
X14339809Y-11089619D01*
X14375524Y-11094381D02*
X14377905Y-11092000D01*
X14382667Y-11089619D01*
X14394571Y-11089619D01*
X14399333Y-11092000D01*
X14401714Y-11094381D01*
X14404095Y-11099143D01*
X14404095Y-11103905D01*
X14401714Y-11111048D01*
X14373143Y-11139619D01*
X14404095Y-11139619D01*
%TO.C,U21*%
X13238095Y-11089619D02*
X13238095Y-11130095D01*
X13240476Y-11134857D01*
X13242857Y-11137238D01*
X13247619Y-11139619D01*
X13257143Y-11139619D01*
X13261905Y-11137238D01*
X13264286Y-11134857D01*
X13266667Y-11130095D01*
X13266667Y-11089619D01*
X13288095Y-11094381D02*
X13290476Y-11092000D01*
X13295238Y-11089619D01*
X13307143Y-11089619D01*
X13311905Y-11092000D01*
X13314286Y-11094381D01*
X13316667Y-11099143D01*
X13316667Y-11103905D01*
X13314286Y-11111048D01*
X13285714Y-11139619D01*
X13316667Y-11139619D01*
X13364286Y-11139619D02*
X13335714Y-11139619D01*
X13350000Y-11139619D02*
X13350000Y-11089619D01*
X13345238Y-11096762D01*
X13340476Y-11101524D01*
X13335714Y-11103905D01*
%TO.C,U18*%
X14003095Y-11112619D02*
X14003095Y-11153095D01*
X14005476Y-11157857D01*
X14007857Y-11160238D01*
X14012619Y-11162619D01*
X14022143Y-11162619D01*
X14026905Y-11160238D01*
X14029286Y-11157857D01*
X14031667Y-11153095D01*
X14031667Y-11112619D01*
X14081667Y-11162619D02*
X14053095Y-11162619D01*
X14067381Y-11162619D02*
X14067381Y-11112619D01*
X14062619Y-11119762D01*
X14057857Y-11124524D01*
X14053095Y-11126905D01*
X14110238Y-11134048D02*
X14105476Y-11131667D01*
X14103095Y-11129286D01*
X14100714Y-11124524D01*
X14100714Y-11122143D01*
X14103095Y-11117381D01*
X14105476Y-11115000D01*
X14110238Y-11112619D01*
X14119762Y-11112619D01*
X14124524Y-11115000D01*
X14126905Y-11117381D01*
X14129286Y-11122143D01*
X14129286Y-11124524D01*
X14126905Y-11129286D01*
X14124524Y-11131667D01*
X14119762Y-11134048D01*
X14110238Y-11134048D01*
X14105476Y-11136429D01*
X14103095Y-11138810D01*
X14100714Y-11143571D01*
X14100714Y-11153095D01*
X14103095Y-11157857D01*
X14105476Y-11160238D01*
X14110238Y-11162619D01*
X14119762Y-11162619D01*
X14124524Y-11160238D01*
X14126905Y-11157857D01*
X14129286Y-11153095D01*
X14129286Y-11143571D01*
X14126905Y-11138810D01*
X14124524Y-11136429D01*
X14119762Y-11134048D01*
%TO.C,U17*%
X13746095Y-11343619D02*
X13746095Y-11384095D01*
X13748476Y-11388857D01*
X13750857Y-11391238D01*
X13755619Y-11393619D01*
X13765143Y-11393619D01*
X13769905Y-11391238D01*
X13772286Y-11388857D01*
X13774667Y-11384095D01*
X13774667Y-11343619D01*
X13824667Y-11393619D02*
X13796095Y-11393619D01*
X13810381Y-11393619D02*
X13810381Y-11343619D01*
X13805619Y-11350762D01*
X13800857Y-11355524D01*
X13796095Y-11357905D01*
X13841333Y-11343619D02*
X13874667Y-11343619D01*
X13853238Y-11393619D01*
%TO.C,U16*%
X14762095Y-11089619D02*
X14762095Y-11130095D01*
X14764476Y-11134857D01*
X14766857Y-11137238D01*
X14771619Y-11139619D01*
X14781143Y-11139619D01*
X14785905Y-11137238D01*
X14788286Y-11134857D01*
X14790667Y-11130095D01*
X14790667Y-11089619D01*
X14840667Y-11139619D02*
X14812095Y-11139619D01*
X14826381Y-11139619D02*
X14826381Y-11089619D01*
X14821619Y-11096762D01*
X14816857Y-11101524D01*
X14812095Y-11103905D01*
X14883524Y-11089619D02*
X14874000Y-11089619D01*
X14869238Y-11092000D01*
X14866857Y-11094381D01*
X14862095Y-11101524D01*
X14859714Y-11111048D01*
X14859714Y-11130095D01*
X14862095Y-11134857D01*
X14864476Y-11137238D01*
X14869238Y-11139619D01*
X14878762Y-11139619D01*
X14883524Y-11137238D01*
X14885905Y-11134857D01*
X14888286Y-11130095D01*
X14888286Y-11118190D01*
X14885905Y-11113429D01*
X14883524Y-11111048D01*
X14878762Y-11108667D01*
X14869238Y-11108667D01*
X14864476Y-11111048D01*
X14862095Y-11113429D01*
X14859714Y-11118190D01*
%TO.C,U15*%
X15016095Y-10835619D02*
X15016095Y-10876095D01*
X15018476Y-10880857D01*
X15020857Y-10883238D01*
X15025619Y-10885619D01*
X15035143Y-10885619D01*
X15039905Y-10883238D01*
X15042286Y-10880857D01*
X15044667Y-10876095D01*
X15044667Y-10835619D01*
X15094667Y-10885619D02*
X15066095Y-10885619D01*
X15080381Y-10885619D02*
X15080381Y-10835619D01*
X15075619Y-10842762D01*
X15070857Y-10847524D01*
X15066095Y-10849905D01*
X15139905Y-10835619D02*
X15116095Y-10835619D01*
X15113714Y-10859429D01*
X15116095Y-10857048D01*
X15120857Y-10854667D01*
X15132762Y-10854667D01*
X15137524Y-10857048D01*
X15139905Y-10859429D01*
X15142286Y-10864190D01*
X15142286Y-10876095D01*
X15139905Y-10880857D01*
X15137524Y-10883238D01*
X15132762Y-10885619D01*
X15120857Y-10885619D01*
X15116095Y-10883238D01*
X15113714Y-10880857D01*
%TO.C,U14*%
X13746095Y-10835619D02*
X13746095Y-10876095D01*
X13748476Y-10880857D01*
X13750857Y-10883238D01*
X13755619Y-10885619D01*
X13765143Y-10885619D01*
X13769905Y-10883238D01*
X13772286Y-10880857D01*
X13774667Y-10876095D01*
X13774667Y-10835619D01*
X13824667Y-10885619D02*
X13796095Y-10885619D01*
X13810381Y-10885619D02*
X13810381Y-10835619D01*
X13805619Y-10842762D01*
X13800857Y-10847524D01*
X13796095Y-10849905D01*
X13867524Y-10852286D02*
X13867524Y-10885619D01*
X13855619Y-10833238D02*
X13843714Y-10868952D01*
X13874667Y-10868952D01*
%TO.C,U13*%
X14254095Y-11343619D02*
X14254095Y-11384095D01*
X14256476Y-11388857D01*
X14258857Y-11391238D01*
X14263619Y-11393619D01*
X14273143Y-11393619D01*
X14277905Y-11391238D01*
X14280286Y-11388857D01*
X14282667Y-11384095D01*
X14282667Y-11343619D01*
X14332667Y-11393619D02*
X14304095Y-11393619D01*
X14318381Y-11393619D02*
X14318381Y-11343619D01*
X14313619Y-11350762D01*
X14308857Y-11355524D01*
X14304095Y-11357905D01*
X14349333Y-11343619D02*
X14380286Y-11343619D01*
X14363619Y-11362667D01*
X14370762Y-11362667D01*
X14375524Y-11365048D01*
X14377905Y-11367428D01*
X14380286Y-11372190D01*
X14380286Y-11384095D01*
X14377905Y-11388857D01*
X14375524Y-11391238D01*
X14370762Y-11393619D01*
X14356476Y-11393619D01*
X14351714Y-11391238D01*
X14349333Y-11388857D01*
%TO.C,U12*%
X15016095Y-11089619D02*
X15016095Y-11130095D01*
X15018476Y-11134857D01*
X15020857Y-11137238D01*
X15025619Y-11139619D01*
X15035143Y-11139619D01*
X15039905Y-11137238D01*
X15042286Y-11134857D01*
X15044667Y-11130095D01*
X15044667Y-11089619D01*
X15094667Y-11139619D02*
X15066095Y-11139619D01*
X15080381Y-11139619D02*
X15080381Y-11089619D01*
X15075619Y-11096762D01*
X15070857Y-11101524D01*
X15066095Y-11103905D01*
X15113714Y-11094381D02*
X15116095Y-11092000D01*
X15120857Y-11089619D01*
X15132762Y-11089619D01*
X15137524Y-11092000D01*
X15139905Y-11094381D01*
X15142286Y-11099143D01*
X15142286Y-11103905D01*
X15139905Y-11111048D01*
X15111333Y-11139619D01*
X15142286Y-11139619D01*
%TO.C,U11*%
X13746095Y-11089619D02*
X13746095Y-11130095D01*
X13748476Y-11134857D01*
X13750857Y-11137238D01*
X13755619Y-11139619D01*
X13765143Y-11139619D01*
X13769905Y-11137238D01*
X13772286Y-11134857D01*
X13774667Y-11130095D01*
X13774667Y-11089619D01*
X13824667Y-11139619D02*
X13796095Y-11139619D01*
X13810381Y-11139619D02*
X13810381Y-11089619D01*
X13805619Y-11096762D01*
X13800857Y-11101524D01*
X13796095Y-11103905D01*
X13872286Y-11139619D02*
X13843714Y-11139619D01*
X13858000Y-11139619D02*
X13858000Y-11089619D01*
X13853238Y-11096762D01*
X13848476Y-11101524D01*
X13843714Y-11103905D01*
%TO.C,U10*%
X14762095Y-11343619D02*
X14762095Y-11384095D01*
X14764476Y-11388857D01*
X14766857Y-11391238D01*
X14771619Y-11393619D01*
X14781143Y-11393619D01*
X14785905Y-11391238D01*
X14788286Y-11388857D01*
X14790667Y-11384095D01*
X14790667Y-11343619D01*
X14840667Y-11393619D02*
X14812095Y-11393619D01*
X14826381Y-11393619D02*
X14826381Y-11343619D01*
X14821619Y-11350762D01*
X14816857Y-11355524D01*
X14812095Y-11357905D01*
X14871619Y-11343619D02*
X14876381Y-11343619D01*
X14881143Y-11346000D01*
X14883524Y-11348381D01*
X14885905Y-11353143D01*
X14888286Y-11362667D01*
X14888286Y-11374571D01*
X14885905Y-11384095D01*
X14883524Y-11388857D01*
X14881143Y-11391238D01*
X14876381Y-11393619D01*
X14871619Y-11393619D01*
X14866857Y-11391238D01*
X14864476Y-11388857D01*
X14862095Y-11384095D01*
X14859714Y-11374571D01*
X14859714Y-11362667D01*
X14862095Y-11353143D01*
X14864476Y-11348381D01*
X14866857Y-11346000D01*
X14871619Y-11343619D01*
%TO.C,U9*%
X13261905Y-11597619D02*
X13261905Y-11638095D01*
X13264286Y-11642857D01*
X13266667Y-11645238D01*
X13271428Y-11647619D01*
X13280952Y-11647619D01*
X13285714Y-11645238D01*
X13288095Y-11642857D01*
X13290476Y-11638095D01*
X13290476Y-11597619D01*
X13316667Y-11647619D02*
X13326190Y-11647619D01*
X13330952Y-11645238D01*
X13333333Y-11642857D01*
X13338095Y-11635714D01*
X13340476Y-11626190D01*
X13340476Y-11607143D01*
X13338095Y-11602381D01*
X13335714Y-11600000D01*
X13330952Y-11597619D01*
X13321428Y-11597619D01*
X13316667Y-11600000D01*
X13314286Y-11602381D01*
X13311905Y-11607143D01*
X13311905Y-11619048D01*
X13314286Y-11623809D01*
X13316667Y-11626190D01*
X13321428Y-11628571D01*
X13330952Y-11628571D01*
X13335714Y-11626190D01*
X13338095Y-11623809D01*
X13340476Y-11619048D01*
%TO.C,U7*%
X13255905Y-8808619D02*
X13255905Y-8849095D01*
X13258286Y-8853857D01*
X13260667Y-8856238D01*
X13265428Y-8858619D01*
X13274952Y-8858619D01*
X13279714Y-8856238D01*
X13282095Y-8853857D01*
X13284476Y-8849095D01*
X13284476Y-8808619D01*
X13303524Y-8808619D02*
X13336857Y-8808619D01*
X13315428Y-8858619D01*
%TO.C,U6*%
X14023905Y-8803619D02*
X14023905Y-8844095D01*
X14026286Y-8848857D01*
X14028667Y-8851238D01*
X14033428Y-8853619D01*
X14042952Y-8853619D01*
X14047714Y-8851238D01*
X14050095Y-8848857D01*
X14052476Y-8844095D01*
X14052476Y-8803619D01*
X14097714Y-8803619D02*
X14088190Y-8803619D01*
X14083428Y-8806000D01*
X14081048Y-8808381D01*
X14076286Y-8815524D01*
X14073905Y-8825048D01*
X14073905Y-8844095D01*
X14076286Y-8848857D01*
X14078667Y-8851238D01*
X14083428Y-8853619D01*
X14092952Y-8853619D01*
X14097714Y-8851238D01*
X14100095Y-8848857D01*
X14102476Y-8844095D01*
X14102476Y-8832190D01*
X14100095Y-8827429D01*
X14097714Y-8825048D01*
X14092952Y-8822667D01*
X14083428Y-8822667D01*
X14078667Y-8825048D01*
X14076286Y-8827429D01*
X14073905Y-8832190D01*
%TO.C,U5*%
X13509905Y-8808619D02*
X13509905Y-8849095D01*
X13512286Y-8853857D01*
X13514667Y-8856238D01*
X13519428Y-8858619D01*
X13528952Y-8858619D01*
X13533714Y-8856238D01*
X13536095Y-8853857D01*
X13538476Y-8849095D01*
X13538476Y-8808619D01*
X13586095Y-8808619D02*
X13562286Y-8808619D01*
X13559905Y-8832429D01*
X13562286Y-8830048D01*
X13567048Y-8827667D01*
X13578952Y-8827667D01*
X13583714Y-8830048D01*
X13586095Y-8832429D01*
X13588476Y-8837190D01*
X13588476Y-8849095D01*
X13586095Y-8853857D01*
X13583714Y-8856238D01*
X13578952Y-8858619D01*
X13567048Y-8858619D01*
X13562286Y-8856238D01*
X13559905Y-8853857D01*
%TO.C,U4*%
X14271905Y-8808619D02*
X14271905Y-8849095D01*
X14274286Y-8853857D01*
X14276667Y-8856238D01*
X14281428Y-8858619D01*
X14290952Y-8858619D01*
X14295714Y-8856238D01*
X14298095Y-8853857D01*
X14300476Y-8849095D01*
X14300476Y-8808619D01*
X14345714Y-8825286D02*
X14345714Y-8858619D01*
X14333809Y-8806238D02*
X14321905Y-8841952D01*
X14352857Y-8841952D01*
%TO.C,U3*%
X14531905Y-8803619D02*
X14531905Y-8844095D01*
X14534286Y-8848857D01*
X14536667Y-8851238D01*
X14541428Y-8853619D01*
X14550952Y-8853619D01*
X14555714Y-8851238D01*
X14558095Y-8848857D01*
X14560476Y-8844095D01*
X14560476Y-8803619D01*
X14579524Y-8803619D02*
X14610476Y-8803619D01*
X14593809Y-8822667D01*
X14600952Y-8822667D01*
X14605714Y-8825048D01*
X14608095Y-8827429D01*
X14610476Y-8832190D01*
X14610476Y-8844095D01*
X14608095Y-8848857D01*
X14605714Y-8851238D01*
X14600952Y-8853619D01*
X14586667Y-8853619D01*
X14581905Y-8851238D01*
X14579524Y-8848857D01*
%TO.C,U2*%
X13771905Y-8808619D02*
X13771905Y-8849095D01*
X13774286Y-8853857D01*
X13776667Y-8856238D01*
X13781428Y-8858619D01*
X13790952Y-8858619D01*
X13795714Y-8856238D01*
X13798095Y-8853857D01*
X13800476Y-8849095D01*
X13800476Y-8808619D01*
X13821905Y-8813381D02*
X13824286Y-8811000D01*
X13829048Y-8808619D01*
X13840952Y-8808619D01*
X13845714Y-8811000D01*
X13848095Y-8813381D01*
X13850476Y-8818143D01*
X13850476Y-8822905D01*
X13848095Y-8830048D01*
X13819524Y-8858619D01*
X13850476Y-8858619D01*
%TO.C,U1*%
X14771905Y-8808619D02*
X14771905Y-8849095D01*
X14774286Y-8853857D01*
X14776667Y-8856238D01*
X14781428Y-8858619D01*
X14790952Y-8858619D01*
X14795714Y-8856238D01*
X14798095Y-8853857D01*
X14800476Y-8849095D01*
X14800476Y-8808619D01*
X14850476Y-8858619D02*
X14821905Y-8858619D01*
X14836190Y-8858619D02*
X14836190Y-8808619D01*
X14831428Y-8815762D01*
X14826667Y-8820524D01*
X14821905Y-8822905D01*
%TD*%
%LPC*%
D18*
%TO.C,Cap_2*%
X14992000Y-10667000D03*
X14737000Y-10667000D03*
%TD*%
D19*
%TO.C,Cap_4*%
X15851000Y-10682500D03*
X15851000Y-10937500D03*
%TD*%
D18*
%TO.C,Cap_1*%
X15416000Y-10669000D03*
X15671000Y-10669000D03*
%TD*%
D19*
%TO.C,Cap_3*%
X15176000Y-10672000D03*
X15176000Y-10927000D03*
%TD*%
D20*
%TO.C,U102*%
X14004000Y-11371000D03*
%TD*%
%TO.C,U26*%
X12728000Y-10101000D03*
%TD*%
%TO.C,U8*%
X12982000Y-10101000D03*
%TD*%
D21*
%TO.C,U1*%
X13447094Y-10384838D03*
X13447094Y-10424838D03*
X13447094Y-10464838D03*
X13447094Y-10504838D03*
X13447094Y-10544838D03*
X13447094Y-10584838D03*
X13447094Y-10624838D03*
X13447094Y-10664838D03*
X13447094Y-10704838D03*
X13447094Y-10744838D03*
X13447094Y-10784838D03*
X13447094Y-10824838D03*
D22*
X13529593Y-10907338D03*
X13569593Y-10907338D03*
X13609594Y-10907338D03*
X13649593Y-10907338D03*
X13689593Y-10907338D03*
X13729594Y-10907338D03*
X13769594Y-10907338D03*
X13809594Y-10907338D03*
X13849594Y-10907338D03*
X13889594Y-10907338D03*
X13929594Y-10907338D03*
X13969594Y-10907338D03*
D21*
X14052094Y-10824838D03*
X14052094Y-10784838D03*
X14052094Y-10744838D03*
X14052094Y-10704838D03*
X14052094Y-10664838D03*
X14052094Y-10624838D03*
X14052094Y-10584838D03*
X14052094Y-10544838D03*
X14052094Y-10504838D03*
X14052094Y-10464838D03*
X14052094Y-10424838D03*
X14052094Y-10384838D03*
D22*
X13969594Y-10302338D03*
X13929593Y-10302338D03*
X13889594Y-10302338D03*
X13849594Y-10302338D03*
X13809593Y-10302338D03*
X13769594Y-10302338D03*
X13729593Y-10302338D03*
X13689593Y-10302338D03*
X13649593Y-10302338D03*
X13609593Y-10302338D03*
X13569593Y-10302338D03*
X13529593Y-10302338D03*
D23*
X13749594Y-10604838D03*
%TD*%
D20*
%TO.C,U33*%
X12982000Y-11371000D03*
%TD*%
%TO.C,U31*%
X13490000Y-12133000D03*
%TD*%
%TO.C,U25*%
X12734000Y-11874000D03*
%TD*%
%TO.C,U20*%
X13750000Y-11874000D03*
%TD*%
%TO.C,U19*%
X14506000Y-11371000D03*
%TD*%
D24*
%TO.C,C12*%
X13052833Y-10874078D03*
X12952833Y-10874078D03*
%TD*%
D25*
%TO.C,C10*%
X13518734Y-9873718D03*
D10*
G36*
X13512197Y-9928156D02*
G01*
X13463988Y-9870703D01*
X13525271Y-9819280D01*
X13573480Y-9876733D01*
X13512197Y-9928156D01*
X13512197Y-9928156D01*
G37*
D25*
X13431957Y-9770302D03*
D10*
G36*
X13425420Y-9824740D02*
G01*
X13377211Y-9767287D01*
X13438494Y-9715864D01*
X13486703Y-9773317D01*
X13425420Y-9824740D01*
X13425420Y-9824740D01*
G37*
%TD*%
D26*
%TO.C,L3*%
X13437298Y-9944757D03*
D10*
G36*
X13439037Y-9985723D02*
G01*
X13397256Y-9935930D01*
X13435558Y-9903791D01*
X13477340Y-9953584D01*
X13439037Y-9985723D01*
X13439037Y-9985723D01*
G37*
D26*
X13376233Y-9871983D03*
D10*
G36*
X13377972Y-9912949D02*
G01*
X13336191Y-9863156D01*
X13374493Y-9831017D01*
X13416275Y-9880810D01*
X13377972Y-9912949D01*
X13377972Y-9912949D01*
G37*
%TD*%
D27*
%TO.C,L2*%
X13523534Y-10049142D03*
X13523534Y-10184142D03*
%TD*%
D24*
%TO.C,C4*%
X13266193Y-10416878D03*
X13166193Y-10416878D03*
%TD*%
%TO.C,C5*%
X13515113Y-11013778D03*
X13415113Y-11013778D03*
%TD*%
%TO.C,C7*%
X14227914Y-10343218D03*
X14327914Y-10343218D03*
%TD*%
D28*
%TO.C,C1*%
X14597937Y-10095080D03*
X14597937Y-10195080D03*
%TD*%
D29*
%TO.C,X1*%
X14347637Y-10202580D03*
X14347637Y-10087580D03*
X14492637Y-10087580D03*
X14492637Y-10202580D03*
%TD*%
D28*
%TO.C,C8*%
X14153437Y-10195080D03*
X14153437Y-10095080D03*
%TD*%
D30*
%TO.C,C9*%
X13148694Y-10312738D03*
X13283694Y-10312738D03*
%TD*%
D24*
%TO.C,C6*%
X14327913Y-10432118D03*
X14227913Y-10432118D03*
%TD*%
D28*
%TO.C,C2*%
X14242337Y-10195080D03*
X14242337Y-10095080D03*
%TD*%
%TO.C,C3*%
X14168694Y-10554838D03*
X14168694Y-10654838D03*
%TD*%
D31*
%TO.C,X2*%
X13002834Y-10767938D03*
X13002834Y-10517939D03*
%TD*%
D28*
%TO.C,C11*%
X13145074Y-10509118D03*
X13145074Y-10609118D03*
%TD*%
D24*
%TO.C,C13*%
X13618314Y-9946978D03*
X13718314Y-9946978D03*
%TD*%
D20*
%TO.C,U32*%
X12728000Y-11625000D03*
%TD*%
%TO.C,U30*%
X12982000Y-11879000D03*
%TD*%
%TO.C,U29*%
X12728000Y-11371000D03*
%TD*%
%TO.C,U28*%
X12734000Y-12128000D03*
%TD*%
%TO.C,U27*%
X13750000Y-12128000D03*
%TD*%
%TO.C,U24*%
X12982000Y-12387000D03*
%TD*%
%TO.C,U23*%
X13998000Y-12133000D03*
%TD*%
%TO.C,U102*%
X14004000Y-11620000D03*
%TD*%
%TO.C,U21*%
X12988000Y-11620000D03*
%TD*%
%TO.C,U18*%
X13753000Y-11643000D03*
%TD*%
%TO.C,U17*%
X13496000Y-11874000D03*
%TD*%
%TO.C,U16*%
X14512000Y-11620000D03*
%TD*%
%TO.C,U15*%
X14766000Y-11366000D03*
%TD*%
%TO.C,U14*%
X13496000Y-11366000D03*
%TD*%
%TO.C,U13*%
X14004000Y-11874000D03*
%TD*%
%TO.C,U12*%
X14766000Y-11620000D03*
%TD*%
%TO.C,U11*%
X13496000Y-11620000D03*
%TD*%
%TO.C,U10*%
X14512000Y-11874000D03*
%TD*%
%TO.C,U9*%
X12988000Y-12128000D03*
%TD*%
%TO.C,U7*%
X12982000Y-9339000D03*
%TD*%
%TO.C,U6*%
X13750000Y-9334000D03*
%TD*%
%TO.C,U5*%
X13236000Y-9339000D03*
%TD*%
%TO.C,U4*%
X13998000Y-9339000D03*
%TD*%
%TO.C,U3*%
X14258000Y-9334000D03*
%TD*%
%TO.C,U2*%
X13498000Y-9339000D03*
%TD*%
%TO.C,U1*%
X14498000Y-9339000D03*
%TD*%
M02*
