G04 Layer_Physical_Order=1*
G04 Layer_Color=255*
%FSAX25Y25*%
%MOIN*%
G70*
G01*
G75*
%ADD10R,0.02953X0.03150*%
%ADD11R,0.02362X0.01968*%
%ADD12R,0.07087X0.03937*%
%ADD13R,0.03740X0.03347*%
%ADD14R,0.18504X0.18504*%
%ADD15O,0.00787X0.02559*%
%ADD16O,0.02559X0.00787*%
G04:AMPARAMS|DCode=17|XSize=19.68mil|YSize=25.59mil|CornerRadius=0mil|HoleSize=0mil|Usage=FLASHONLY|Rotation=40.000|XOffset=0mil|YOffset=0mil|HoleType=Round|Shape=Rectangle|*
%AMROTATEDRECTD17*
4,1,4,0.00069,-0.01613,-0.01576,0.00348,-0.00069,0.01613,0.01576,-0.00348,0.00069,-0.01613,0.0*
%
%ADD17ROTATEDRECTD17*%

%ADD18R,0.03150X0.02953*%
%ADD19R,0.02559X0.01968*%
%ADD20R,0.01968X0.02362*%
G04:AMPARAMS|DCode=21|XSize=31.5mil|YSize=29.53mil|CornerRadius=0mil|HoleSize=0mil|Usage=FLASHONLY|Rotation=40.000|XOffset=0mil|YOffset=0mil|HoleType=Round|Shape=Rectangle|*
%AMROTATEDRECTD21*
4,1,4,-0.00257,-0.02143,-0.02155,0.00119,0.00257,0.02143,0.02155,-0.00119,-0.00257,-0.02143,0.0*
%
%ADD21ROTATEDRECTD21*%

%ADD22R,0.03000X0.03000*%
%ADD23C,0.00900*%
%ADD24C,0.01000*%
%ADD25C,0.01500*%
%ADD26C,0.00600*%
%ADD27C,0.02000*%
%ADD28C,0.03000*%
%ADD29C,0.00800*%
%ADD30C,0.01100*%
%ADD31C,0.00200*%
%ADD32C,0.00300*%
%ADD33C,0.00394*%
%ADD34C,0.05118*%
%ADD35C,0.02400*%
%ADD36C,0.02598*%
G36*
X0059082Y-0079082D02*
X-0059082D01*
Y0069082D01*
X0059082D01*
Y-0079082D01*
D02*
G37*
%LPC*%
G36*
X-0024158Y0014094D02*
X-0025134D01*
X-0025524Y0014017D01*
X-0025855Y0013796D01*
X-0026076Y0013465D01*
X-0026153Y0013075D01*
Y0012000D01*
X-0024158D01*
Y0014094D01*
D02*
G37*
G36*
X0035403Y0015632D02*
X0033899D01*
Y0013931D01*
X0034384D01*
X0034774Y0014009D01*
X0035105Y0014230D01*
X0035326Y0014561D01*
X0035403Y0014951D01*
Y0015632D01*
D02*
G37*
G36*
X-0040500Y0019500D02*
X-0043524D01*
X-0043467Y0019071D01*
X-0043109Y0018205D01*
X-0042538Y0017462D01*
X-0041795Y0016891D01*
X-0040929Y0016533D01*
X-0040500Y0016476D01*
Y0019500D01*
D02*
G37*
G36*
X0000289Y-0057477D02*
X-0000536Y-0057586D01*
X-0001305Y-0057904D01*
X-0001964Y-0058411D01*
X-0002471Y-0059070D01*
X-0002789Y-0059839D01*
X-0002898Y-0060664D01*
X-0002789Y-0061488D01*
X-0002471Y-0062257D01*
X-0001964Y-0062917D01*
X-0001305Y-0063423D01*
X-0000536Y-0063741D01*
X0000289Y-0063850D01*
X0001113Y-0063741D01*
X0001882Y-0063423D01*
X0002542Y-0062917D01*
X0003048Y-0062257D01*
X0003366Y-0061488D01*
X0003475Y-0060664D01*
X0003366Y-0059839D01*
X0003048Y-0059070D01*
X0002542Y-0058411D01*
X0001882Y-0057904D01*
X0001113Y-0057586D01*
X0000289Y-0057477D01*
D02*
G37*
G36*
X-0010000Y-0056814D02*
X-0010825Y-0056922D01*
X-0011593Y-0057241D01*
X-0012253Y-0057747D01*
X-0012759Y-0058407D01*
X-0013078Y-0059175D01*
X-0013186Y-0060000D01*
X-0013078Y-0060825D01*
X-0012759Y-0061593D01*
X-0012253Y-0062253D01*
X-0011593Y-0062759D01*
X-0010825Y-0063078D01*
X-0010000Y-0063186D01*
X-0009175Y-0063078D01*
X-0008407Y-0062759D01*
X-0007747Y-0062253D01*
X-0007241Y-0061593D01*
X-0006922Y-0060825D01*
X-0006814Y-0060000D01*
X-0006922Y-0059175D01*
X-0007241Y-0058407D01*
X-0007747Y-0057747D01*
X-0008407Y-0057241D01*
X-0009175Y-0056922D01*
X-0010000Y-0056814D01*
D02*
G37*
G36*
X-0031868Y-0011100D02*
X-0033569D01*
Y-0011584D01*
X-0033492Y-0011974D01*
X-0033271Y-0012305D01*
X-0032940Y-0012526D01*
X-0032550Y-0012604D01*
X-0031868D01*
Y-0011100D01*
D02*
G37*
G36*
X-0036476Y0019500D02*
X-0039500D01*
Y0016476D01*
X-0039071Y0016533D01*
X-0038205Y0016891D01*
X-0037462Y0017462D01*
X-0036891Y0018205D01*
X-0036533Y0019071D01*
X-0036476Y0019500D01*
D02*
G37*
G36*
X-0010197Y0034140D02*
X-0011801Y0032794D01*
X-0010518Y0031265D01*
X-0009695Y0031956D01*
X-0009446Y0032266D01*
X-0009334Y0032648D01*
X-0009378Y0033044D01*
X-0009569Y0033392D01*
X-0010197Y0034140D01*
D02*
G37*
G36*
X-0012159Y0036015D02*
X-0012555Y0035971D01*
X-0012903Y0035780D01*
X-0013727Y0035089D01*
X-0012444Y0033560D01*
X-0010839Y0034906D01*
X-0011467Y0035654D01*
X-0011777Y0035903D01*
X-0012159Y0036015D01*
D02*
G37*
G36*
X0030000Y0053186D02*
X0029175Y0053078D01*
X0028407Y0052759D01*
X0027747Y0052253D01*
X0027241Y0051593D01*
X0026922Y0050825D01*
X0026814Y0050000D01*
X0026922Y0049175D01*
X0027202Y0048500D01*
X0018990Y0040288D01*
X0012442D01*
X0012250Y0040750D01*
X0018643Y0047143D01*
X0019175Y0046922D01*
X0020000Y0046814D01*
X0020825Y0046922D01*
X0021593Y0047241D01*
X0022253Y0047747D01*
X0022759Y0048407D01*
X0023078Y0049175D01*
X0023186Y0050000D01*
X0023078Y0050825D01*
X0022759Y0051593D01*
X0022253Y0052253D01*
X0021593Y0052759D01*
X0020825Y0053078D01*
X0020000Y0053186D01*
X0019175Y0053078D01*
X0018407Y0052759D01*
X0017747Y0052253D01*
X0017241Y0051593D01*
X0016922Y0050825D01*
X0016814Y0050000D01*
X0016922Y0049175D01*
X0017241Y0048407D01*
X0017272Y0048366D01*
X0007380Y0038474D01*
X0006918Y0038666D01*
Y0045620D01*
X0008500Y0047202D01*
X0009175Y0046922D01*
X0010000Y0046814D01*
X0010825Y0046922D01*
X0011593Y0047241D01*
X0012253Y0047747D01*
X0012759Y0048407D01*
X0013078Y0049175D01*
X0013186Y0050000D01*
X0013078Y0050825D01*
X0012759Y0051593D01*
X0012253Y0052253D01*
X0011593Y0052759D01*
X0010825Y0053078D01*
X0010000Y0053186D01*
X0009175Y0053078D01*
X0008407Y0052759D01*
X0007747Y0052253D01*
X0007241Y0051593D01*
X0006922Y0050825D01*
X0006814Y0050000D01*
X0006922Y0049175D01*
X0007202Y0048500D01*
X0005354Y0046651D01*
X0005351Y0046649D01*
X0004725Y0046573D01*
X0002798Y0048500D01*
X0003078Y0049175D01*
X0003186Y0050000D01*
X0003078Y0050825D01*
X0002759Y0051593D01*
X0002253Y0052253D01*
X0001593Y0052759D01*
X0000825Y0053078D01*
X0000000Y0053186D01*
X-0000825Y0053078D01*
X-0001593Y0052759D01*
X-0002253Y0052253D01*
X-0002759Y0051593D01*
X-0003078Y0050825D01*
X-0003186Y0050000D01*
X-0003078Y0049175D01*
X-0002759Y0048407D01*
X-0002253Y0047747D01*
X-0001593Y0047241D01*
X-0000825Y0046922D01*
X0000000Y0046814D01*
X0000825Y0046922D01*
X0001500Y0047202D01*
X0003882Y0044820D01*
Y0040251D01*
X0003420Y0040060D01*
X-0006858Y0050339D01*
X-0006922Y0050825D01*
X-0007241Y0051593D01*
X-0007747Y0052253D01*
X-0008407Y0052759D01*
X-0009175Y0053078D01*
X-0010000Y0053186D01*
X-0010825Y0053078D01*
X-0011593Y0052759D01*
X-0012253Y0052253D01*
X-0012759Y0051593D01*
X-0013078Y0050825D01*
X-0013186Y0050000D01*
X-0013078Y0049175D01*
X-0012759Y0048407D01*
X-0012253Y0047747D01*
X-0011593Y0047241D01*
X-0010825Y0046922D01*
X-0010000Y0046814D01*
X-0009175Y0046922D01*
X-0008407Y0047241D01*
X-0007747Y0047747D01*
X-0007593Y0047947D01*
X-0007095Y0047980D01*
X-0005402Y0046287D01*
X-0005427Y0046141D01*
X-0005622Y0045799D01*
X-0014502D01*
X-0017202Y0048500D01*
X-0016922Y0049175D01*
X-0016814Y0050000D01*
X-0016922Y0050825D01*
X-0017241Y0051593D01*
X-0017747Y0052253D01*
X-0018407Y0052759D01*
X-0019175Y0053078D01*
X-0020000Y0053186D01*
X-0020825Y0053078D01*
X-0021593Y0052759D01*
X-0022253Y0052253D01*
X-0022759Y0051593D01*
X-0023078Y0050825D01*
X-0023186Y0050000D01*
X-0023078Y0049175D01*
X-0022759Y0048407D01*
X-0022253Y0047747D01*
X-0021593Y0047241D01*
X-0020825Y0046922D01*
X-0020000Y0046814D01*
X-0019175Y0046922D01*
X-0018500Y0047202D01*
X-0016022Y0044725D01*
X-0016230Y0044225D01*
X-0022927D01*
X-0027202Y0048500D01*
X-0026922Y0049175D01*
X-0026814Y0050000D01*
X-0026922Y0050825D01*
X-0027241Y0051593D01*
X-0027747Y0052253D01*
X-0028407Y0052759D01*
X-0029175Y0053078D01*
X-0030000Y0053186D01*
X-0030825Y0053078D01*
X-0031593Y0052759D01*
X-0032253Y0052253D01*
X-0032759Y0051593D01*
X-0033078Y0050825D01*
X-0033186Y0050000D01*
X-0033078Y0049175D01*
X-0032759Y0048407D01*
X-0032253Y0047747D01*
X-0031593Y0047241D01*
X-0030825Y0046922D01*
X-0030000Y0046814D01*
X-0029175Y0046922D01*
X-0028500Y0047202D01*
X-0023956Y0042658D01*
X-0023658Y0042459D01*
X-0023307Y0042390D01*
X-0005987D01*
X0000282Y0036120D01*
Y0028177D01*
X-0000050Y0027904D01*
X-0000732D01*
Y0025900D01*
Y0023896D01*
X-0000050D01*
X0000282Y0023623D01*
Y0016403D01*
X-0001436Y0014684D01*
X-0001635Y0014387D01*
X-0001685Y0014139D01*
X-0001789Y0013992D01*
X-0002205Y0013777D01*
X-0002362Y0013808D01*
X-0002750Y0013731D01*
X-0002907Y0013763D01*
X-0002932Y0013800D01*
X-0003393Y0014108D01*
X-0003437Y0014117D01*
Y0011909D01*
X-0004437D01*
Y0014507D01*
X-0004441Y0014510D01*
Y0014632D01*
X-0004523Y0015042D01*
X-0004755Y0015389D01*
X-0004755Y0015389D01*
X-0005129Y0015764D01*
Y0024266D01*
X-0003987D01*
X-0003791Y0024348D01*
X-0003527Y0024455D01*
X-0003135Y0024197D01*
X-0003133Y0024195D01*
X-0002803Y0023974D01*
X-0002413Y0023896D01*
X-0001732D01*
Y0025900D01*
Y0027904D01*
X-0002413D01*
X-0002803Y0027826D01*
X-0003133Y0027605D01*
X-0003135Y0027603D01*
X-0003527Y0027345D01*
X-0003791Y0027452D01*
X-0003987Y0027534D01*
X-0006120D01*
X-0006526Y0027940D01*
X-0006516Y0028168D01*
X-0006287Y0028609D01*
X-0006436Y0029083D01*
X-0008334Y0031345D01*
X-0008775Y0031574D01*
X-0009249Y0031425D01*
X-0010871Y0030064D01*
X-0011115Y0030111D01*
X-0011231Y0030560D01*
X-0012888Y0032534D01*
X-0014493Y0034446D01*
X-0015316Y0033755D01*
X-0015565Y0033445D01*
X-0015676Y0033063D01*
X-0015633Y0032668D01*
X-0015442Y0032319D01*
X-0014827Y0031586D01*
X-0015004Y0031020D01*
X-0015185Y0030963D01*
X-0016693Y0029698D01*
X-0016923Y0029257D01*
X-0016773Y0028783D01*
X-0015128Y0026822D01*
X-0014687Y0026593D01*
X-0014441Y0026146D01*
X-0014369Y0025918D01*
X-0012724Y0023957D01*
X-0012283Y0023728D01*
X-0011835Y0023869D01*
X-0011124Y0023158D01*
Y0020401D01*
X-0010934Y0019942D01*
X-0010475Y0019752D01*
X-0007325D01*
X-0007271Y0019715D01*
Y0018725D01*
X-0007325Y0018689D01*
X-0010475D01*
X-0010934Y0018498D01*
X-0011124Y0018039D01*
Y0015087D01*
X-0010934Y0014627D01*
X-0010475Y0014437D01*
X-0009588D01*
X-0009230Y0014039D01*
X-0009306Y0013560D01*
X-0009378Y0013512D01*
X-0009597Y0013183D01*
X-0009657Y0012882D01*
X-0016217D01*
Y0013075D01*
X-0016407Y0013534D01*
X-0016866Y0013724D01*
X-0018391D01*
X-0019150Y0014483D01*
X-0019289Y0015179D01*
X-0019687Y0015774D01*
X-0020282Y0016172D01*
X-0020984Y0016312D01*
X-0021687Y0016172D01*
X-0022282Y0015774D01*
X-0022680Y0015179D01*
X-0022820Y0014476D01*
X-0023133Y0014094D01*
X-0023157D01*
Y0011500D01*
X-0023658D01*
Y0011000D01*
X-0026153D01*
Y0009925D01*
X-0026076Y0009535D01*
X-0025855Y0009204D01*
X-0025524Y0008983D01*
X-0025521Y0008983D01*
X-0025140Y0008798D01*
X-0025163Y0008417D01*
X-0025169Y0008384D01*
Y0007900D01*
X-0022968D01*
Y0006900D01*
X-0025169D01*
Y0006416D01*
X-0025134Y0006239D01*
X-0025580Y0005924D01*
X-0025857Y0006039D01*
X-0032943D01*
X-0033402Y0005849D01*
X-0033593Y0005390D01*
Y0001453D01*
X-0033402Y0000993D01*
X-0032943Y0000803D01*
X-0025857D01*
X-0025804Y0000768D01*
Y0000332D01*
X-0023800D01*
Y-0000668D01*
X-0025804D01*
Y-0001350D01*
X-0025726Y-0001740D01*
X-0025505Y-0002071D01*
X-0025174Y-0002292D01*
X-0024784Y-0002369D01*
X-0024481D01*
X-0024290Y-0002831D01*
X-0025436Y-0003978D01*
X-0025857Y-0003803D01*
X-0032943D01*
X-0033402Y-0003994D01*
X-0033593Y-0004453D01*
Y-0008390D01*
X-0033402Y-0008849D01*
X-0033352Y-0009016D01*
X-0033492Y-0009226D01*
X-0033569Y-0009616D01*
Y-0010100D01*
X-0031368D01*
Y-0010600D01*
X-0030869D01*
Y-0012604D01*
X-0030187D01*
X-0029797Y-0012526D01*
X-0029466Y-0012305D01*
X-0029465Y-0012303D01*
X-0029073Y-0012044D01*
X-0028809Y-0012152D01*
X-0028613Y-0012234D01*
X-0026250D01*
X-0026233Y-0012227D01*
X-0025818Y-0012504D01*
Y-0020201D01*
X-0026242Y-0020626D01*
X-0031543D01*
X-0031895Y-0020696D01*
X-0032192Y-0020895D01*
X-0038500Y-0027202D01*
X-0039175Y-0026922D01*
X-0040000Y-0026814D01*
X-0040825Y-0026922D01*
X-0041593Y-0027241D01*
X-0042253Y-0027747D01*
X-0042759Y-0028407D01*
X-0043078Y-0029175D01*
X-0043186Y-0030000D01*
X-0043078Y-0030825D01*
X-0042759Y-0031593D01*
X-0042253Y-0032253D01*
X-0041593Y-0032759D01*
X-0040825Y-0033078D01*
X-0040000Y-0033186D01*
X-0039175Y-0033078D01*
X-0038407Y-0032759D01*
X-0037747Y-0032253D01*
X-0037241Y-0031593D01*
X-0036922Y-0030825D01*
X-0036814Y-0030000D01*
X-0036922Y-0029175D01*
X-0037202Y-0028500D01*
X-0031163Y-0022461D01*
X-0025862D01*
X-0025511Y-0022391D01*
X-0025214Y-0022192D01*
X-0025078Y-0022056D01*
X-0024615Y-0022248D01*
Y-0023318D01*
X-0028500Y-0027202D01*
X-0029175Y-0026922D01*
X-0030000Y-0026814D01*
X-0030825Y-0026922D01*
X-0031593Y-0027241D01*
X-0032253Y-0027747D01*
X-0032759Y-0028407D01*
X-0033078Y-0029175D01*
X-0033186Y-0030000D01*
X-0033078Y-0030825D01*
X-0032759Y-0031593D01*
X-0032253Y-0032253D01*
X-0031593Y-0032759D01*
X-0030825Y-0033078D01*
X-0030000Y-0033186D01*
X-0029175Y-0033078D01*
X-0028407Y-0032759D01*
X-0027747Y-0032253D01*
X-0027241Y-0031593D01*
X-0026922Y-0030825D01*
X-0026814Y-0030000D01*
X-0026922Y-0029175D01*
X-0027202Y-0028500D01*
X-0023875Y-0025173D01*
X-0023414Y-0025365D01*
Y-0029127D01*
X-0028625Y-0034338D01*
X-0035256D01*
X-0035607Y-0034408D01*
X-0035905Y-0034607D01*
X-0038500Y-0037202D01*
X-0039175Y-0036922D01*
X-0040000Y-0036814D01*
X-0040825Y-0036922D01*
X-0041593Y-0037241D01*
X-0042253Y-0037747D01*
X-0042759Y-0038407D01*
X-0043078Y-0039175D01*
X-0043186Y-0040000D01*
X-0043078Y-0040825D01*
X-0042759Y-0041593D01*
X-0042253Y-0042253D01*
X-0041593Y-0042759D01*
X-0040825Y-0043078D01*
X-0040000Y-0043186D01*
X-0039175Y-0043078D01*
X-0038407Y-0042759D01*
X-0037747Y-0042253D01*
X-0037241Y-0041593D01*
X-0036922Y-0040825D01*
X-0036814Y-0040000D01*
X-0036922Y-0039175D01*
X-0037202Y-0038500D01*
X-0034876Y-0036173D01*
X-0028245D01*
X-0028162Y-0036157D01*
X-0027915Y-0036618D01*
X-0028500Y-0037202D01*
X-0029175Y-0036922D01*
X-0030000Y-0036814D01*
X-0030825Y-0036922D01*
X-0031593Y-0037241D01*
X-0032253Y-0037747D01*
X-0032759Y-0038407D01*
X-0033078Y-0039175D01*
X-0033186Y-0040000D01*
X-0033078Y-0040825D01*
X-0032759Y-0041593D01*
X-0032253Y-0042253D01*
X-0031593Y-0042759D01*
X-0030825Y-0043078D01*
X-0030000Y-0043186D01*
X-0029175Y-0043078D01*
X-0028407Y-0042759D01*
X-0027747Y-0042253D01*
X-0027241Y-0041593D01*
X-0026922Y-0040825D01*
X-0026814Y-0040000D01*
X-0026922Y-0039175D01*
X-0027202Y-0038500D01*
X-0021465Y-0032763D01*
X-0021003Y-0032954D01*
Y-0036297D01*
X-0028980Y-0044273D01*
X-0035191D01*
X-0035542Y-0044343D01*
X-0035840Y-0044542D01*
X-0038500Y-0047202D01*
X-0039175Y-0046922D01*
X-0040000Y-0046814D01*
X-0040825Y-0046922D01*
X-0041593Y-0047241D01*
X-0042253Y-0047747D01*
X-0042759Y-0048407D01*
X-0043078Y-0049175D01*
X-0043186Y-0050000D01*
X-0043078Y-0050825D01*
X-0042759Y-0051593D01*
X-0042253Y-0052253D01*
X-0041593Y-0052759D01*
X-0040825Y-0053078D01*
X-0040000Y-0053186D01*
X-0039175Y-0053078D01*
X-0038407Y-0052759D01*
X-0037747Y-0052253D01*
X-0037241Y-0051593D01*
X-0036922Y-0050825D01*
X-0036814Y-0050000D01*
X-0036922Y-0049175D01*
X-0037202Y-0048500D01*
X-0034811Y-0046108D01*
X-0028600D01*
X-0028248Y-0046039D01*
X-0027951Y-0045840D01*
X-0020633Y-0038522D01*
X-0020090Y-0038686D01*
X-0020073Y-0038775D01*
X-0028500Y-0047202D01*
X-0029175Y-0046922D01*
X-0030000Y-0046814D01*
X-0030825Y-0046922D01*
X-0031593Y-0047241D01*
X-0032253Y-0047747D01*
X-0032759Y-0048407D01*
X-0033078Y-0049175D01*
X-0033186Y-0050000D01*
X-0033078Y-0050825D01*
X-0032759Y-0051593D01*
X-0032253Y-0052253D01*
X-0031593Y-0052759D01*
X-0031411Y-0052835D01*
X-0031511Y-0053335D01*
X-0034252D01*
X-0034604Y-0053405D01*
X-0034901Y-0053604D01*
X-0038500Y-0057202D01*
X-0039175Y-0056922D01*
X-0040000Y-0056814D01*
X-0040825Y-0056922D01*
X-0041593Y-0057241D01*
X-0042253Y-0057747D01*
X-0042759Y-0058407D01*
X-0043078Y-0059175D01*
X-0043186Y-0060000D01*
X-0043078Y-0060825D01*
X-0042759Y-0061593D01*
X-0042253Y-0062253D01*
X-0041593Y-0062759D01*
X-0040825Y-0063078D01*
X-0040000Y-0063186D01*
X-0039175Y-0063078D01*
X-0038407Y-0062759D01*
X-0037747Y-0062253D01*
X-0037241Y-0061593D01*
X-0036922Y-0060825D01*
X-0036814Y-0060000D01*
X-0036922Y-0059175D01*
X-0037202Y-0058500D01*
X-0033872Y-0055170D01*
X-0028572D01*
X-0028221Y-0055100D01*
X-0027923Y-0054901D01*
X-0017865Y-0044843D01*
X-0017403Y-0045034D01*
Y-0046105D01*
X-0028500Y-0057202D01*
X-0029175Y-0056922D01*
X-0030000Y-0056814D01*
X-0030825Y-0056922D01*
X-0031593Y-0057241D01*
X-0032253Y-0057747D01*
X-0032759Y-0058407D01*
X-0033078Y-0059175D01*
X-0033186Y-0060000D01*
X-0033078Y-0060825D01*
X-0032759Y-0061593D01*
X-0032253Y-0062253D01*
X-0031593Y-0062759D01*
X-0030825Y-0063078D01*
X-0030000Y-0063186D01*
X-0029175Y-0063078D01*
X-0028407Y-0062759D01*
X-0027747Y-0062253D01*
X-0027241Y-0061593D01*
X-0026922Y-0060825D01*
X-0026814Y-0060000D01*
X-0026922Y-0059175D01*
X-0027202Y-0058500D01*
X-0016665Y-0047963D01*
X-0016203Y-0048154D01*
Y-0054905D01*
X-0028500Y-0067202D01*
X-0029175Y-0066922D01*
X-0030000Y-0066814D01*
X-0030825Y-0066922D01*
X-0031593Y-0067241D01*
X-0032253Y-0067747D01*
X-0032759Y-0068407D01*
X-0033078Y-0069175D01*
X-0033186Y-0070000D01*
X-0033078Y-0070825D01*
X-0032759Y-0071593D01*
X-0032253Y-0072253D01*
X-0031593Y-0072759D01*
X-0030825Y-0073078D01*
X-0030000Y-0073186D01*
X-0029175Y-0073078D01*
X-0028407Y-0072759D01*
X-0027747Y-0072253D01*
X-0027241Y-0071593D01*
X-0026922Y-0070825D01*
X-0026814Y-0070000D01*
X-0026922Y-0069175D01*
X-0027202Y-0068500D01*
X-0014637Y-0055934D01*
X-0014438Y-0055637D01*
X-0014368Y-0055285D01*
Y-0018119D01*
X-0014350Y-0018104D01*
X-0013668D01*
Y-0016100D01*
X-0012668D01*
Y-0018104D01*
X-0011987D01*
X-0011597Y-0018026D01*
X-0011320Y-0017841D01*
X-0011206Y-0017863D01*
X-0011125Y-0017977D01*
X-0011040Y-0018514D01*
X-0011096Y-0018598D01*
X-0011235Y-0019300D01*
X-0011096Y-0020002D01*
X-0010698Y-0020598D01*
X-0010102Y-0020996D01*
X-0009400Y-0021135D01*
X-0008698Y-0020996D01*
X-0008504Y-0020866D01*
X-0008004Y-0021134D01*
Y-0026706D01*
X-0008500Y-0027202D01*
X-0009175Y-0026922D01*
X-0010000Y-0026814D01*
X-0010825Y-0026922D01*
X-0011593Y-0027241D01*
X-0012253Y-0027747D01*
X-0012759Y-0028407D01*
X-0013078Y-0029175D01*
X-0013186Y-0030000D01*
X-0013078Y-0030825D01*
X-0012759Y-0031593D01*
X-0012253Y-0032253D01*
X-0011593Y-0032759D01*
X-0010825Y-0033078D01*
X-0010000Y-0033186D01*
X-0009175Y-0033078D01*
X-0008407Y-0032759D01*
X-0007747Y-0032253D01*
X-0007241Y-0031593D01*
X-0006922Y-0030825D01*
X-0006429Y-0030895D01*
Y-0035132D01*
X-0008500Y-0037202D01*
X-0009175Y-0036922D01*
X-0010000Y-0036814D01*
X-0010825Y-0036922D01*
X-0011593Y-0037241D01*
X-0012253Y-0037747D01*
X-0012759Y-0038407D01*
X-0013078Y-0039175D01*
X-0013186Y-0040000D01*
X-0013078Y-0040825D01*
X-0012759Y-0041593D01*
X-0012253Y-0042253D01*
X-0011593Y-0042759D01*
X-0010825Y-0043078D01*
X-0010000Y-0043186D01*
X-0009175Y-0043078D01*
X-0008407Y-0042759D01*
X-0007747Y-0042253D01*
X-0007241Y-0041593D01*
X-0006922Y-0040825D01*
X-0006814Y-0040000D01*
X-0006922Y-0039175D01*
X-0007202Y-0038500D01*
X-0005355Y-0036652D01*
X-0004855Y-0036860D01*
Y-0043557D01*
X-0008500Y-0047202D01*
X-0009175Y-0046922D01*
X-0010000Y-0046814D01*
X-0010825Y-0046922D01*
X-0011593Y-0047241D01*
X-0012253Y-0047747D01*
X-0012759Y-0048407D01*
X-0013078Y-0049175D01*
X-0013186Y-0050000D01*
X-0013078Y-0050825D01*
X-0012759Y-0051593D01*
X-0012253Y-0052253D01*
X-0011593Y-0052759D01*
X-0010825Y-0053078D01*
X-0010000Y-0053186D01*
X-0009175Y-0053078D01*
X-0008407Y-0052759D01*
X-0007747Y-0052253D01*
X-0007241Y-0051593D01*
X-0006922Y-0050825D01*
X-0006814Y-0050000D01*
X-0006922Y-0049175D01*
X-0007202Y-0048500D01*
X-0003288Y-0044586D01*
X-0003089Y-0044288D01*
X-0003019Y-0043937D01*
Y-0042076D01*
X-0002519Y-0041906D01*
X-0002253Y-0042253D01*
X-0001593Y-0042759D01*
X-0000825Y-0043078D01*
X0000000Y-0043186D01*
X0000825Y-0043078D01*
X0001593Y-0042759D01*
X0002253Y-0042253D01*
X0002519Y-0041906D01*
X0003019Y-0042076D01*
Y-0047924D01*
X0002519Y-0048094D01*
X0002253Y-0047747D01*
X0001593Y-0047241D01*
X0000825Y-0046922D01*
X0000000Y-0046814D01*
X-0000825Y-0046922D01*
X-0001593Y-0047241D01*
X-0002253Y-0047747D01*
X-0002759Y-0048407D01*
X-0003078Y-0049175D01*
X-0003186Y-0050000D01*
X-0003078Y-0050825D01*
X-0002759Y-0051593D01*
X-0002253Y-0052253D01*
X-0001593Y-0052759D01*
X-0000825Y-0053078D01*
X0000000Y-0053186D01*
X0000825Y-0053078D01*
X0001593Y-0052759D01*
X0002253Y-0052253D01*
X0002519Y-0051906D01*
X0003019Y-0052076D01*
Y-0053937D01*
X0003089Y-0054288D01*
X0003288Y-0054586D01*
X0007202Y-0058500D01*
X0006922Y-0059175D01*
X0006814Y-0060000D01*
X0006922Y-0060825D01*
X0007241Y-0061593D01*
X0007747Y-0062253D01*
X0008407Y-0062759D01*
X0009175Y-0063078D01*
X0010000Y-0063186D01*
X0010825Y-0063078D01*
X0011593Y-0062759D01*
X0012253Y-0062253D01*
X0012759Y-0061593D01*
X0013078Y-0060825D01*
X0013186Y-0060000D01*
X0013078Y-0059175D01*
X0012759Y-0058407D01*
X0012253Y-0057747D01*
X0011593Y-0057241D01*
X0010825Y-0056922D01*
X0010000Y-0056814D01*
X0009175Y-0056922D01*
X0008500Y-0057202D01*
X0004855Y-0053557D01*
Y-0046806D01*
X0005317Y-0046614D01*
X0007202Y-0048500D01*
X0006922Y-0049175D01*
X0006814Y-0050000D01*
X0006922Y-0050825D01*
X0007241Y-0051593D01*
X0007747Y-0052253D01*
X0008407Y-0052759D01*
X0009175Y-0053078D01*
X0010000Y-0053186D01*
X0010825Y-0053078D01*
X0011593Y-0052759D01*
X0012253Y-0052253D01*
X0012759Y-0051593D01*
X0013078Y-0050825D01*
X0013186Y-0050000D01*
X0013078Y-0049175D01*
X0012759Y-0048407D01*
X0012253Y-0047747D01*
X0011593Y-0047241D01*
X0010825Y-0046922D01*
X0010000Y-0046814D01*
X0009175Y-0046922D01*
X0008500Y-0047202D01*
X0006259Y-0044961D01*
Y-0038210D01*
X0006720Y-0038018D01*
X0007202Y-0038500D01*
X0006922Y-0039175D01*
X0006814Y-0040000D01*
X0006922Y-0040825D01*
X0007241Y-0041593D01*
X0007747Y-0042253D01*
X0008407Y-0042759D01*
X0009175Y-0043078D01*
X0010000Y-0043186D01*
X0010825Y-0043078D01*
X0011593Y-0042759D01*
X0012253Y-0042253D01*
X0012759Y-0041593D01*
X0013078Y-0040825D01*
X0013186Y-0040000D01*
X0013078Y-0039175D01*
X0012759Y-0038407D01*
X0012253Y-0037747D01*
X0011593Y-0037241D01*
X0010825Y-0036922D01*
X0010000Y-0036814D01*
X0009175Y-0036922D01*
X0008500Y-0037202D01*
X0007459Y-0036161D01*
Y-0032662D01*
X0007959Y-0032415D01*
X0008407Y-0032759D01*
X0009175Y-0033078D01*
X0010000Y-0033186D01*
X0010825Y-0033078D01*
X0011593Y-0032759D01*
X0012253Y-0032253D01*
X0012759Y-0031593D01*
X0013078Y-0030825D01*
X0013186Y-0030000D01*
X0013088Y-0029254D01*
X0013258Y-0029106D01*
X0013540Y-0028998D01*
X0023792Y-0039251D01*
Y-0044710D01*
X0023862Y-0045061D01*
X0024061Y-0045359D01*
X0027202Y-0048500D01*
X0026922Y-0049175D01*
X0026814Y-0050000D01*
X0026922Y-0050825D01*
X0027241Y-0051593D01*
X0027747Y-0052253D01*
X0028407Y-0052759D01*
X0029175Y-0053078D01*
X0030000Y-0053186D01*
X0030825Y-0053078D01*
X0031593Y-0052759D01*
X0032253Y-0052253D01*
X0032759Y-0051593D01*
X0033078Y-0050825D01*
X0033186Y-0050000D01*
X0033078Y-0049175D01*
X0032759Y-0048407D01*
X0032253Y-0047747D01*
X0031593Y-0047241D01*
X0030825Y-0046922D01*
X0030000Y-0046814D01*
X0029175Y-0046922D01*
X0028500Y-0047202D01*
X0025628Y-0044330D01*
Y-0039222D01*
X0026128Y-0039015D01*
X0026849Y-0039736D01*
X0026814Y-0040000D01*
X0026922Y-0040825D01*
X0027241Y-0041593D01*
X0027747Y-0042253D01*
X0028407Y-0042759D01*
X0029175Y-0043078D01*
X0030000Y-0043186D01*
X0030825Y-0043078D01*
X0031593Y-0042759D01*
X0032253Y-0042253D01*
X0032759Y-0041593D01*
X0033078Y-0040825D01*
X0033186Y-0040000D01*
X0033078Y-0039175D01*
X0032759Y-0038407D01*
X0032253Y-0037747D01*
X0031593Y-0037241D01*
X0030825Y-0036922D01*
X0030000Y-0036814D01*
X0029175Y-0036922D01*
X0028407Y-0037241D01*
X0027747Y-0037747D01*
X0027473Y-0037765D01*
X0025490Y-0035782D01*
X0025681Y-0035320D01*
X0034022D01*
X0037202Y-0038500D01*
X0036922Y-0039175D01*
X0036814Y-0040000D01*
X0036922Y-0040825D01*
X0037241Y-0041593D01*
X0037747Y-0042253D01*
X0038407Y-0042759D01*
X0039175Y-0043078D01*
X0040000Y-0043186D01*
X0040825Y-0043078D01*
X0041593Y-0042759D01*
X0042253Y-0042253D01*
X0042759Y-0041593D01*
X0043078Y-0040825D01*
X0043186Y-0040000D01*
X0043078Y-0039175D01*
X0042759Y-0038407D01*
X0042253Y-0037747D01*
X0041593Y-0037241D01*
X0040825Y-0036922D01*
X0040000Y-0036814D01*
X0039175Y-0036922D01*
X0038500Y-0037202D01*
X0035051Y-0033753D01*
X0034754Y-0033555D01*
X0034402Y-0033485D01*
X0031149D01*
X0031049Y-0032985D01*
X0031593Y-0032759D01*
X0032253Y-0032253D01*
X0032759Y-0031593D01*
X0033078Y-0030825D01*
X0033186Y-0030000D01*
X0033078Y-0029175D01*
X0032759Y-0028407D01*
X0032253Y-0027747D01*
X0031593Y-0027241D01*
X0030825Y-0026922D01*
X0030000Y-0026814D01*
X0029175Y-0026922D01*
X0028407Y-0027241D01*
X0027747Y-0027747D01*
X0027241Y-0028407D01*
X0026961Y-0029082D01*
X0024180D01*
X0019002Y-0023904D01*
X0019197Y-0023489D01*
X0019243Y-0023438D01*
X0032140D01*
X0037202Y-0028500D01*
X0036922Y-0029175D01*
X0036814Y-0030000D01*
X0036922Y-0030825D01*
X0037241Y-0031593D01*
X0037747Y-0032253D01*
X0038407Y-0032759D01*
X0039175Y-0033078D01*
X0040000Y-0033186D01*
X0040825Y-0033078D01*
X0041593Y-0032759D01*
X0042253Y-0032253D01*
X0042759Y-0031593D01*
X0043078Y-0030825D01*
X0043186Y-0030000D01*
X0043078Y-0029175D01*
X0042759Y-0028407D01*
X0042253Y-0027747D01*
X0041593Y-0027241D01*
X0040825Y-0026922D01*
X0040000Y-0026814D01*
X0039175Y-0026922D01*
X0038500Y-0027202D01*
X0033169Y-0021872D01*
X0032872Y-0021673D01*
X0032520Y-0021603D01*
X0019601D01*
X0018618Y-0020620D01*
Y-0006633D01*
X0018891Y-0006300D01*
X0022500D01*
Y-0004098D01*
X0023000Y-0003831D01*
X0023182Y-0003953D01*
X0024002Y-0004116D01*
X0031980D01*
X0032000Y-0004124D01*
X0035000D01*
X0035459Y-0003934D01*
X0035649Y-0003475D01*
Y-0000475D01*
X0035459Y-0000016D01*
X0035000Y0000175D01*
X0032000D01*
X0031980Y0000166D01*
X0024002D01*
X0023182Y0000003D01*
X0023000Y-0000118D01*
X0022500Y0000149D01*
Y0004796D01*
X0023950D01*
X0024340Y0004874D01*
X0024671Y0005095D01*
X0024892Y0005426D01*
X0024969Y0005816D01*
Y0006300D01*
X0022769D01*
Y0007300D01*
X0024969D01*
Y0007784D01*
X0024892Y0008174D01*
X0024694Y0008550D01*
X0024892Y0008926D01*
X0024969Y0009316D01*
Y0009800D01*
X0022769D01*
Y0010800D01*
X0024969D01*
Y0011284D01*
X0025214Y0011583D01*
X0025399D01*
X0025750Y0011653D01*
X0026048Y0011851D01*
X0027048Y0012852D01*
X0027247Y0013149D01*
X0027251Y0013170D01*
X0027384Y0013144D01*
X0028754D01*
Y0015837D01*
X0029754D01*
Y0013144D01*
X0031124D01*
X0031514Y0013222D01*
X0031845Y0013443D01*
X0032066Y0013773D01*
X0032109Y0013992D01*
X0032415Y0013931D01*
X0032899D01*
Y0016132D01*
X0033399D01*
Y0016632D01*
X0035403D01*
Y0017313D01*
X0035326Y0017704D01*
X0035105Y0018034D01*
X0035103Y0018035D01*
X0034844Y0018427D01*
X0034952Y0018692D01*
X0035033Y0018888D01*
Y0021250D01*
X0034843Y0021710D01*
X0034384Y0021900D01*
X0032415D01*
X0032273Y0021841D01*
X0031787Y0022032D01*
X0031732Y0022138D01*
X0031583Y0022497D01*
X0031124Y0022687D01*
X0027384D01*
X0026924Y0022497D01*
X0026876Y0022381D01*
X0026357Y0022428D01*
X0026136Y0022759D01*
X0025805Y0022980D01*
X0025415Y0023057D01*
X0024045D01*
Y0020365D01*
X0023045D01*
Y0023057D01*
X0021675D01*
X0021285Y0022980D01*
X0020954Y0022759D01*
X0020733Y0022428D01*
X0020689Y0022209D01*
X0020384Y0022270D01*
X0019899D01*
Y0020069D01*
X0018899D01*
Y0022270D01*
X0018415D01*
X0018025Y0022192D01*
X0017649Y0021995D01*
X0017274Y0022192D01*
X0016884Y0022270D01*
X0016399D01*
Y0020069D01*
X0015899D01*
Y0019569D01*
X0013895D01*
Y0018888D01*
X0013973Y0018498D01*
X0014194Y0018167D01*
X0014196Y0018166D01*
X0014211Y0018144D01*
X0014111Y0017866D01*
X0013802Y0017496D01*
X0013099Y0017636D01*
X0012397Y0017496D01*
X0011802Y0017098D01*
X0011404Y0016503D01*
X0011264Y0015801D01*
X0011404Y0015098D01*
X0011802Y0014503D01*
X0012397Y0014105D01*
X0013007Y0013984D01*
X0013156Y0013710D01*
X0013208Y0013477D01*
X0011107Y0011376D01*
X0010864Y0011012D01*
X0010778Y0010583D01*
X0010778Y0010583D01*
Y0010046D01*
X0010612Y0009909D01*
X0009973Y0009973D01*
X0009642Y0010194D01*
X0009597Y0010636D01*
X0009675Y0011024D01*
Y0012795D01*
X0009597Y0013183D01*
X0009574Y0013218D01*
X0009509Y0013544D01*
X0009318Y0013830D01*
Y0036120D01*
X0011650Y0038452D01*
X0019370D01*
X0019721Y0038522D01*
X0020019Y0038721D01*
X0028500Y0047202D01*
X0029175Y0046922D01*
X0030000Y0046814D01*
X0030825Y0046922D01*
X0031593Y0047241D01*
X0032253Y0047747D01*
X0032759Y0048407D01*
X0033078Y0049175D01*
X0033186Y0050000D01*
X0033078Y0050825D01*
X0032759Y0051593D01*
X0032253Y0052253D01*
X0031593Y0052759D01*
X0030825Y0053078D01*
X0030000Y0053186D01*
D02*
G37*
G36*
X0015399Y0022270D02*
X0014915D01*
X0014525Y0022192D01*
X0014194Y0021971D01*
X0013973Y0021641D01*
X0013895Y0021250D01*
Y0020569D01*
X0015399D01*
Y0022270D01*
D02*
G37*
G36*
X-0030000Y0023186D02*
X-0030825Y0023078D01*
X-0031593Y0022759D01*
X-0032253Y0022253D01*
X-0032759Y0021593D01*
X-0033078Y0020825D01*
X-0033186Y0020000D01*
X-0033078Y0019175D01*
X-0032759Y0018407D01*
X-0032253Y0017747D01*
X-0031593Y0017241D01*
X-0030825Y0016922D01*
X-0030000Y0016814D01*
X-0029175Y0016922D01*
X-0028407Y0017241D01*
X-0027747Y0017747D01*
X-0027241Y0018407D01*
X-0026922Y0019175D01*
X-0026814Y0020000D01*
X-0026922Y0020825D01*
X-0027241Y0021593D01*
X-0027747Y0022253D01*
X-0028407Y0022759D01*
X-0029175Y0023078D01*
X-0030000Y0023186D01*
D02*
G37*
G36*
X-0040500Y0023524D02*
X-0040929Y0023467D01*
X-0041795Y0023109D01*
X-0042538Y0022538D01*
X-0043109Y0021795D01*
X-0043467Y0020929D01*
X-0043524Y0020500D01*
X-0040500D01*
Y0023524D01*
D02*
G37*
G36*
X-0039500D02*
Y0020500D01*
X-0036476D01*
X-0036533Y0020929D01*
X-0036891Y0021795D01*
X-0037462Y0022538D01*
X-0038205Y0023109D01*
X-0039071Y0023467D01*
X-0039500Y0023524D01*
D02*
G37*
%LPD*%
D10*
X-0018342Y0011500D02*
D03*
X-0023658D02*
D03*
D11*
X-0001232Y0025900D02*
D03*
X-0005169D02*
D03*
X0022769Y0010300D02*
D03*
X0018832D02*
D03*
X0018832Y0006800D02*
D03*
X0022769D02*
D03*
X-0013169Y-0016100D02*
D03*
X-0009232D02*
D03*
X-0022968Y0007400D02*
D03*
X-0019031D02*
D03*
X-0031368Y-0010600D02*
D03*
X-0027431D02*
D03*
D12*
X-0029400Y0003421D02*
D03*
Y-0006421D02*
D03*
D13*
X0029254Y0015837D02*
D03*
Y0020365D02*
D03*
X0023545D02*
D03*
Y0015837D02*
D03*
D14*
X0000000Y0000000D02*
D03*
D15*
X-0008661Y0011909D02*
D03*
X-0007087D02*
D03*
X-0005512D02*
D03*
X-0003937D02*
D03*
X-0002362D02*
D03*
X-0000787D02*
D03*
X0000787D02*
D03*
X0002362D02*
D03*
X0003937D02*
D03*
X0005512D02*
D03*
X0007087D02*
D03*
X0008661D02*
D03*
Y-0011909D02*
D03*
X0007087D02*
D03*
X0005512D02*
D03*
X0003937D02*
D03*
X0002362D02*
D03*
X0000787D02*
D03*
X-0000787D02*
D03*
X-0002362D02*
D03*
X-0003937D02*
D03*
X-0005512D02*
D03*
X-0007087D02*
D03*
X-0008661D02*
D03*
D16*
X0011909Y0008661D02*
D03*
Y0007087D02*
D03*
Y0005512D02*
D03*
Y0003937D02*
D03*
Y0002362D02*
D03*
Y0000787D02*
D03*
Y-0000787D02*
D03*
Y-0002362D02*
D03*
Y-0003937D02*
D03*
Y-0005512D02*
D03*
Y-0007087D02*
D03*
Y-0008661D02*
D03*
X-0011909D02*
D03*
Y-0007087D02*
D03*
Y-0005512D02*
D03*
Y-0003937D02*
D03*
Y-0002362D02*
D03*
Y-0000787D02*
D03*
Y0000787D02*
D03*
Y0002362D02*
D03*
Y0003937D02*
D03*
Y0005512D02*
D03*
Y0007087D02*
D03*
Y0008661D02*
D03*
D17*
X-0014699Y0028853D02*
D03*
X-0012295Y0025987D02*
D03*
D18*
X-0008900Y0016563D02*
D03*
Y0021878D02*
D03*
D19*
X0020230Y-0002000D02*
D03*
X0023970D02*
D03*
D20*
X-0023800Y-0000169D02*
D03*
Y0003768D02*
D03*
X0015899Y0020069D02*
D03*
Y0016132D02*
D03*
X0016500Y-0001969D02*
D03*
Y0001969D02*
D03*
X0019399Y0020069D02*
D03*
Y0016132D02*
D03*
X0033399Y0016132D02*
D03*
Y0020069D02*
D03*
D21*
X-0012505Y0032856D02*
D03*
X-0009089Y0028784D02*
D03*
D22*
X0033500Y-0001975D02*
D03*
D23*
X-0014699Y0028853D02*
X-0008953D01*
X-0006200Y0015320D02*
Y0026100D01*
X-0008661Y-0018561D02*
Y-0011909D01*
X-0018327Y0012146D02*
X-0017992Y0011811D01*
X-0020984Y0014476D02*
X-0020658D01*
X-0018327Y0012146D01*
X0014999Y-0002007D02*
X0016532D01*
X-0008900Y0015376D02*
Y0016563D01*
Y0015376D02*
X-0007087Y0013562D01*
Y0011909D02*
Y0013562D01*
X-0006200Y0015320D02*
X-0005512Y0014632D01*
X-0003937Y0008661D02*
Y0011909D01*
X-0009400Y-0019300D02*
X-0008661Y-0018561D01*
X-0017992Y0011811D02*
X-0008700D01*
X0011909Y-0000787D02*
X0013780D01*
X0014999Y-0002007D01*
X0013777Y0000800D02*
X0014907Y0001930D01*
X0016532D01*
X0002431Y0000800D02*
X0013777D01*
X-0005512Y0012030D02*
Y0014632D01*
X-0003937Y0011909D02*
Y0016300D01*
X-0008953Y0028853D02*
X-0006200Y0026100D01*
D24*
X0013168Y0015732D02*
X0015899D01*
Y0016132D01*
Y0014583D02*
Y0015732D01*
X0011900Y0010583D02*
X0015899Y0014583D01*
X0013099Y0015801D02*
X0013168Y0015732D01*
X0011900Y0008769D02*
Y0010583D01*
X0040700Y-0080000D02*
X0058700D01*
X0040700Y0070000D02*
X0058700D01*
D25*
X-0018327Y0011476D02*
Y0012146D01*
X-0009690Y-0019300D02*
X-0009400D01*
D26*
X0028568Y0020069D02*
X0033399D01*
X-0029400Y0003421D02*
X-0018437D01*
X0022965Y0016132D02*
X0023753Y0015345D01*
X0018832Y0006800D02*
X0018900D01*
X0017867D02*
X0018832D01*
X0019399Y0016132D02*
X0022965D01*
X0019199D02*
X0019399D01*
X0017700Y-0021000D02*
Y-0006633D01*
X0013430Y-0002362D02*
X0017700Y-0006633D01*
X0025399Y0012500D02*
X0026399Y0013501D01*
X0019399Y0014399D02*
Y0016101D01*
X0018700Y0013700D02*
X0019399Y0014399D01*
X0017031Y0013700D02*
X0018700D01*
X0014089Y0010758D02*
X0017031Y0013700D01*
X0017542Y0012500D02*
X0025399D01*
X0015289Y0010247D02*
X0017542Y0012500D01*
X0014089Y0008126D02*
Y0010758D01*
X0026399Y0017901D02*
X0028568Y0020069D01*
X0026399Y0013501D02*
Y0017901D01*
X0011909Y-0007087D02*
X0013050D01*
X0014089Y-0008126D01*
Y-0025679D02*
Y-0008126D01*
X0011909Y-0026070D02*
Y-0008661D01*
X-0014771Y0007087D02*
X-0011909D01*
X-0026582Y-0006421D02*
X-0014649Y0005512D01*
X-0011909D01*
X-0024900Y-0006439D02*
X-0014524Y0003937D01*
X-0011909D01*
X-0023698Y-0006937D02*
X-0014398Y0002362D01*
X-0011909D01*
X-0022496Y-0007435D02*
X-0014273Y0000787D01*
X-0011909D01*
X-0021285Y-0007937D02*
X-0014136Y-0000787D01*
X-0011909D01*
X-0017685Y-0009428D02*
X-0013769Y-0005512D01*
X-0011909D01*
X-0016485Y-0009925D02*
X-0013647Y-0007087D01*
X-0011909D01*
X-0020085Y-0008434D02*
X-0014014Y-0002362D01*
X-0011909D01*
X-0018885Y-0008931D02*
X-0013892Y-0003937D01*
X-0011909D01*
X0013185Y-0005512D02*
X0015289Y-0007616D01*
X0013307Y-0003937D02*
X0016500Y-0007130D01*
X-0007087Y-0027087D02*
Y-0011909D01*
X0011909Y-0002362D02*
X0013430D01*
X0011909Y-0003937D02*
X0013307D01*
X0016500Y0008119D02*
X0018406Y0010025D01*
X0011909Y0007087D02*
X0013050D01*
X0014089Y0008126D01*
X0011909Y0005512D02*
X0013185D01*
X0015289Y0007616D01*
X0011909Y0003937D02*
X0013307D01*
X0016500Y0007130D01*
X0016500Y0008119D01*
X0011909Y0002362D02*
X0013430D01*
X0017867Y0006800D01*
X0011909Y-0005512D02*
X0013185D01*
X0016500Y-0022700D02*
Y-0007130D01*
X0015289Y0007616D02*
Y0010247D01*
X0005512Y-0020600D02*
Y-0011909D01*
X-0013525Y-0008661D02*
X-0011909D01*
X-0015285Y-0010422D02*
X-0013525Y-0008661D01*
X-0024900Y-0020581D02*
Y-0006439D01*
X-0029400Y-0006421D02*
X-0026582D01*
X-0027431Y-0010600D02*
Y-0008390D01*
X-0029400Y-0006421D02*
X-0027431Y-0008390D01*
X-0018437Y0003421D02*
X-0014771Y0007087D01*
X0000787Y0011909D02*
Y0013914D01*
X0002362Y0011909D02*
Y0013682D01*
X0003937Y0011909D02*
Y0013559D01*
X0004800Y0014422D01*
X0002362Y0013682D02*
X0003600Y0014919D01*
X0005512Y0011909D02*
Y0013437D01*
X0006000Y0013925D01*
X0007087Y0011909D02*
Y0013315D01*
X0007200Y0013428D01*
X0008661Y0011909D02*
Y0013193D01*
X0008400Y0013454D02*
X0008661Y0013193D01*
X0008400Y0013454D02*
Y0036500D01*
X0000787Y0013914D02*
X0002400Y0015526D01*
X-0000787Y0011909D02*
Y0014036D01*
X0001200Y0016023D01*
Y0036500D01*
X0008400D02*
X0011270Y0039370D01*
X0019370D01*
X0030000Y0050000D01*
X0007200Y0013428D02*
Y0036997D01*
X0020000Y0049797D01*
Y0050000D01*
X0006000Y0013925D02*
Y0046000D01*
X0010000Y0050000D01*
X0004800Y0014422D02*
Y0045200D01*
X0000000Y0050000D02*
X0004800Y0045200D01*
X0003600Y0014919D02*
Y0038583D01*
X-0007817Y0050000D02*
X0003600Y0038583D01*
X-0010000Y0050000D02*
X-0007817D01*
X0002400Y0015526D02*
Y0036997D01*
X-0005485Y0044882D02*
X0002400Y0036997D01*
X-0014882Y0044882D02*
X-0005485D01*
X-0020000Y0050000D02*
X-0014882Y0044882D01*
X-0005607Y0043307D02*
X0001200Y0036500D01*
X-0023307Y0043307D02*
X-0005607D01*
X-0030000Y0050000D02*
X-0023307Y0043307D01*
X0015289Y-0025181D02*
Y-0007616D01*
X-0025862Y-0021543D02*
X-0024900Y-0020581D01*
X-0031543Y-0021543D02*
X-0025862D01*
X-0040000Y-0030000D02*
X-0031543Y-0021543D01*
X-0023698Y-0023698D02*
Y-0006937D01*
X-0030000Y-0030000D02*
X-0023698Y-0023698D01*
X-0021285Y-0031285D02*
Y-0007937D01*
X-0030000Y-0040000D02*
X-0021285Y-0031285D01*
X-0018885Y-0038885D02*
Y-0008931D01*
X-0030000Y-0050000D02*
X-0018885Y-0038885D01*
X-0016485Y-0046485D02*
Y-0009925D01*
X-0030000Y-0060000D02*
X-0016485Y-0046485D01*
X-0030000Y-0070000D02*
X-0015285Y-0055285D01*
Y-0010422D01*
X-0010000Y-0030000D02*
X-0007087Y-0027087D01*
X-0010000Y-0050000D02*
X-0003937Y-0043937D01*
X0008661Y-0028661D02*
Y-0011909D01*
X0005341Y-0020771D02*
X0005512Y-0020600D01*
X0005341Y-0045341D02*
X0010000Y-0050000D01*
X0003937Y-0053937D02*
X0010000Y-0060000D01*
X0007087Y-0021048D02*
Y-0011909D01*
X0006541Y-0021594D02*
X0007087Y-0021048D01*
X0008661Y-0028661D02*
X0010000Y-0030000D01*
X-0000796Y-0011918D02*
X-0000787Y-0011909D01*
X0006541Y-0036541D02*
X0010000Y-0040000D01*
X0003937Y-0053937D02*
Y-0028954D01*
X0005341Y-0024593D02*
Y-0020771D01*
X0006541Y-0024096D02*
Y-0021594D01*
X0003937Y-0028954D02*
X0004141Y-0028750D01*
Y-0027573D01*
X0006541Y-0036541D02*
Y-0028567D01*
X0005341Y-0045341D02*
Y-0028070D01*
X0004141Y-0027573D02*
X0004141Y-0027573D01*
Y-0025090D01*
X0005341Y-0028070D02*
X0005341Y-0028070D01*
Y-0024593D01*
X0005341Y-0024593D02*
X0005341Y-0024593D01*
X0006541Y-0028567D02*
X0006541Y-0028567D01*
Y-0024096D01*
X0006541Y-0024096D02*
X0006541Y-0024096D01*
X0002941Y-0027076D02*
Y-0025587D01*
X0002941Y-0027076D02*
X0002941Y-0027076D01*
X0002941Y-0028253D02*
Y-0027076D01*
X0002362Y-0028831D02*
X0002941Y-0028253D01*
X0002362Y-0034870D02*
Y-0028831D01*
X0016500Y-0022700D02*
X0023800Y-0030000D01*
X0030000D01*
X0015289Y-0025181D02*
X0024510Y-0034402D01*
X0034402D01*
X0040000Y-0040000D01*
X0011909Y-0026070D02*
X0024710Y-0038871D01*
Y-0044710D02*
Y-0038871D01*
Y-0044710D02*
X0030000Y-0050000D01*
X-0040000Y-0060000D02*
X-0034252Y-0054252D01*
X-0028572D01*
X-0017685Y-0043366D01*
Y-0009428D01*
X-0040000Y-0050000D02*
X-0035191Y-0045191D01*
X-0028600D01*
X-0020085Y-0036677D01*
Y-0008434D01*
X-0040000Y-0040000D02*
X-0035256Y-0035256D01*
X-0028245D01*
X-0022496Y-0029507D01*
Y-0007435D01*
X0029339Y-0040661D02*
X0030000Y-0040000D01*
X0029072Y-0040661D02*
X0029339D01*
X0014089Y-0025679D02*
X0029072Y-0040661D01*
X0017700Y-0021000D02*
X0019220Y-0022521D01*
X0032520D01*
X0040000Y-0030000D01*
X-0001259Y-0027790D02*
X-0000058Y-0028991D01*
X-0001259Y-0027790D02*
Y-0026050D01*
X0002362Y-0025008D02*
X0002941Y-0025587D01*
X-0001259Y-0026050D02*
X-0000796Y-0025587D01*
X-0000058Y-0030425D02*
Y-0028991D01*
X-0001274Y-0033437D02*
Y-0032178D01*
X-0010000Y-0040000D02*
X-0005512Y-0035512D01*
Y-0011909D01*
X-0003937Y-0043937D02*
Y-0011909D01*
X0001652Y-0035581D02*
X0002362Y-0034870D01*
X0000787Y-0026866D02*
Y-0011909D01*
X-0002459Y-0012006D02*
X-0002362Y-0011909D01*
X-0002459Y-0030993D02*
X-0001274Y-0032178D01*
X0003937Y-0024886D02*
Y-0011909D01*
Y-0024886D02*
X0004141Y-0025090D01*
X0002362Y-0025008D02*
Y-0011909D01*
X-0002459Y-0030993D02*
Y-0012006D01*
X-0000796Y-0025587D02*
Y-0011918D01*
X0000787Y-0026866D02*
X0000841Y-0026920D01*
X0040634Y-0022428D02*
X0039801Y-0021595D01*
Y-0019929D01*
X0040634Y-0019096D01*
X0041467D01*
X0042300Y-0019929D01*
Y-0020762D01*
Y-0019929D01*
X0043133Y-0019096D01*
X0043966D01*
X0044799Y-0019929D01*
Y-0021595D01*
X0043966Y-0022428D01*
X0040634Y-0017430D02*
X0039801Y-0016597D01*
Y-0014931D01*
X0040634Y-0014098D01*
X0041467D01*
X0042300Y-0014931D01*
X0043133Y-0014098D01*
X0043966D01*
X0044799Y-0014931D01*
Y-0016597D01*
X0043966Y-0017430D01*
X0043133D01*
X0042300Y-0016597D01*
X0041467Y-0017430D01*
X0040634D01*
X0042300Y-0016597D02*
Y-0014931D01*
X0044799Y-0012431D02*
X0043966D01*
Y-0011598D01*
X0044799D01*
Y-0012431D01*
Y-0008266D02*
Y-0006600D01*
Y-0007433D01*
X0039801D01*
X0040634Y-0008266D01*
Y-0004101D02*
X0039801Y-0003268D01*
Y-0001602D01*
X0040634Y-0000769D01*
X0043966D01*
X0044799Y-0001602D01*
Y-0003268D01*
X0043966Y-0004101D01*
X0040634D01*
X0044799Y0000898D02*
X0041467D01*
Y0001731D01*
X0042300Y0002564D01*
X0044799D01*
X0042300D01*
X0041467Y0003397D01*
X0042300Y0004230D01*
X0044799D01*
Y0005896D02*
X0041467D01*
Y0006729D01*
X0042300Y0007562D01*
X0044799D01*
X0042300D01*
X0041467Y0008395D01*
X0042300Y0009228D01*
X0044799D01*
D27*
X0016500Y-0001987D02*
X0020031D01*
D28*
X0024002Y-0001975D02*
X0033500D01*
D29*
X-0017831Y0008661D02*
X-0011909D01*
X-0019016Y0007476D02*
X-0017831Y0008661D01*
X0041700Y-0080000D02*
Y-0024028D01*
Y0010828D02*
Y0070000D01*
Y-0080000D02*
X0043033Y-0076000D01*
X0040367D02*
X0041700Y-0080000D01*
X0040367Y0066000D02*
X0041700Y0070000D01*
X0043033Y0066000D01*
D30*
X-0012295Y0025987D02*
X-0008900Y0022592D01*
Y0021878D02*
Y0022592D01*
D31*
X-0031471Y-0010483D02*
X-0031467Y-0011683D01*
X-0030867Y-0011681D01*
X-0030668Y-0011480D01*
X-0030670Y-0010680D01*
X-0030871Y-0010481D01*
X-0031471Y-0010483D01*
X-0029667Y-0011677D02*
X-0030067Y-0011678D01*
X-0030268Y-0011479D01*
X-0030269Y-0011079D01*
X-0030070Y-0010878D01*
X-0029670Y-0010877D01*
X-0029470Y-0011076D01*
X-0029469Y-0011276D01*
X-0030269Y-0011279D01*
X-0029068Y-0011675D02*
X-0028468Y-0011673D01*
X-0028269Y-0011472D01*
X-0028469Y-0011273D01*
X-0028869Y-0011274D01*
X-0029070Y-0011075D01*
X-0028870Y-0010874D01*
X-0028271Y-0010872D01*
X-0027868Y-0011671D02*
X-0027468Y-0011670D01*
X-0027668Y-0011670D01*
X-0027671Y-0010870D01*
X-0027871Y-0010871D01*
X-0026467Y-0012066D02*
X-0026267Y-0012065D01*
X-0026068Y-0011865D01*
X-0026071Y-0010865D01*
X-0026671Y-0010867D01*
X-0026870Y-0011068D01*
X-0026869Y-0011468D01*
X-0026669Y-0011667D01*
X-0026069Y-0011665D01*
X-0025669Y-0011664D02*
X-0025671Y-0010864D01*
X-0025072Y-0010862D01*
X-0024871Y-0011061D01*
X-0024869Y-0011661D01*
X-0024272Y-0010859D02*
X-0023872Y-0010858D01*
X-0023672Y-0011057D01*
X-0023670Y-0011657D01*
X-0024269Y-0011659D01*
X-0024470Y-0011460D01*
X-0024271Y-0011259D01*
X-0023671Y-0011257D01*
X-0023073Y-0010655D02*
X-0023072Y-0010855D01*
X-0023272Y-0010856D01*
X-0022872Y-0010855D01*
X-0023072Y-0010855D01*
X-0023070Y-0011455D01*
X-0022870Y-0011654D01*
X-0022070Y-0011652D02*
X-0021670Y-0011650D01*
X-0021471Y-0011450D01*
X-0021472Y-0011050D01*
X-0021673Y-0010851D01*
X-0022073Y-0010852D01*
X-0022272Y-0011052D01*
X-0022271Y-0011452D01*
X-0022070Y-0011652D01*
X-0021073Y-0010849D02*
X-0021070Y-0011648D01*
X-0021072Y-0011248D01*
X-0020872Y-0011048D01*
X-0020673Y-0010847D01*
X-0020473Y-0010847D01*
X-0004100Y0026300D02*
X-0004300Y0026500D01*
X-0004700D01*
X-0004900Y0026300D01*
Y0025500D01*
X-0004700Y0025300D01*
X-0004300D01*
X-0004100Y0025500D01*
X-0003700Y0025300D02*
X-0003300D01*
X-0003500D01*
Y0026500D01*
X-0003700Y0026300D01*
X-0002701D02*
X-0002501Y0026500D01*
X-0002101D01*
X-0001901Y0026300D01*
Y0026100D01*
X-0002101Y0025900D01*
X-0002301D01*
X-0002101D01*
X-0001901Y0025700D01*
Y0025500D01*
X-0002101Y0025300D01*
X-0002501D01*
X-0002701Y0025500D01*
X-0014131Y0029108D02*
X-0015049Y0028337D01*
X-0014536Y0027724D01*
X-0013513Y0028060D02*
X-0013231Y0028036D01*
X-0012974Y0027729D01*
X-0012999Y0027448D01*
X-0013152Y0027319D01*
X-0013433Y0027344D01*
X-0013562Y0027497D01*
X-0013433Y0027344D01*
X-0013458Y0027062D01*
X-0013611Y0026934D01*
X-0013893Y0026958D01*
X-0014150Y0027264D01*
X-0014125Y0027546D01*
X0020400Y-0001400D02*
Y-0002600D01*
X0021200D01*
X0021600D02*
X0022000D01*
X0021800D01*
Y-0001400D01*
X0021600Y-0001600D01*
X-0023400Y0002700D02*
X-0023200Y0002900D01*
Y0003300D01*
X-0023400Y0003500D01*
X-0024200D01*
X-0024400Y0003300D01*
Y0002900D01*
X-0024200Y0002700D01*
X-0024400Y0002300D02*
Y0001901D01*
Y0002101D01*
X-0023200D01*
X-0023400Y0002300D01*
X-0024400Y0001301D02*
Y0000901D01*
Y0001101D01*
X-0023200D01*
X-0023400Y0001301D01*
X0015500Y0017200D02*
X0015300Y0017000D01*
Y0016601D01*
X0015500Y0016401D01*
X0016299D01*
X0016499Y0016601D01*
Y0017000D01*
X0016299Y0017200D01*
X0015500Y0017600D02*
X0015300Y0017800D01*
Y0018200D01*
X0015500Y0018400D01*
X0015700D01*
X0015900Y0018200D01*
X0016100Y0018400D01*
X0016299D01*
X0016499Y0018200D01*
Y0017800D01*
X0016299Y0017600D01*
X0016100D01*
X0015900Y0017800D01*
X0015700Y0017600D01*
X0015500D01*
X0015900Y0017800D02*
Y0018200D01*
X0019900Y0010700D02*
X0019700Y0010900D01*
X0019300D01*
X0019100Y0010700D01*
Y0009900D01*
X0019300Y0009700D01*
X0019700D01*
X0019900Y0009900D01*
X0020300Y0010900D02*
X0021099D01*
Y0010700D01*
X0020300Y0009900D01*
Y0009700D01*
X0021700Y0006400D02*
X0021900Y0006200D01*
X0022300D01*
X0022500Y0006400D01*
Y0007200D01*
X0022300Y0007400D01*
X0021900D01*
X0021700Y0007200D01*
X0020501Y0006200D02*
X0020900Y0006400D01*
X0021300Y0006800D01*
Y0007200D01*
X0021101Y0007400D01*
X0020701D01*
X0020501Y0007200D01*
Y0007000D01*
X0020701Y0006800D01*
X0021300D01*
X-0010300Y-0016500D02*
X-0010100Y-0016700D01*
X-0009700D01*
X-0009500Y-0016500D01*
Y-0015700D01*
X-0009700Y-0015500D01*
X-0010100D01*
X-0010300Y-0015700D01*
X-0011499Y-0016700D02*
X-0010700D01*
Y-0016100D01*
X-0011100Y-0016300D01*
X-0011299D01*
X-0011499Y-0016100D01*
Y-0015700D01*
X-0011299Y-0015500D01*
X-0010900D01*
X-0010700Y-0015700D01*
X-0020100Y0007000D02*
X-0019900Y0006800D01*
X-0019500D01*
X-0019300Y0007000D01*
Y0007800D01*
X-0019500Y0008000D01*
X-0019900D01*
X-0020100Y0007800D01*
X-0021099Y0008000D02*
Y0006800D01*
X-0020500Y0007400D01*
X-0021299D01*
X0016900Y0000900D02*
X0017100Y0001100D01*
Y0001500D01*
X0016900Y0001700D01*
X0016100D01*
X0015900Y0001500D01*
Y0001100D01*
X0016100Y0000900D01*
X0016900Y0000500D02*
X0017100Y0000301D01*
Y-0000099D01*
X0016900Y-0000299D01*
X0016700D01*
X0016500Y-0000099D01*
Y0000100D01*
Y-0000099D01*
X0016300Y-0000299D01*
X0016100D01*
X0015900Y-0000099D01*
Y0000301D01*
X0016100Y0000500D01*
X0019000Y0017200D02*
X0018800Y0017000D01*
Y0016601D01*
X0019000Y0016401D01*
X0019799D01*
X0019999Y0016601D01*
Y0017000D01*
X0019799Y0017200D01*
X0019999Y0018400D02*
Y0017600D01*
X0019200Y0018400D01*
X0019000D01*
X0018800Y0018200D01*
Y0017800D01*
X0019000Y0017600D01*
X0033799Y0019001D02*
X0033999Y0019201D01*
Y0019601D01*
X0033799Y0019801D01*
X0032999D01*
X0032799Y0019601D01*
Y0019201D01*
X0032999Y0019001D01*
X0032799Y0018601D02*
Y0018201D01*
Y0018401D01*
X0033999D01*
X0033799Y0018601D01*
D32*
X-0027900Y0004799D02*
X-0029400D01*
Y0004050D01*
X-0029150Y0003799D01*
X-0028150D01*
X-0027900Y0004050D01*
Y0004799D01*
X-0029400Y0002550D02*
Y0003050D01*
X-0029150Y0003300D01*
X-0028650D01*
X-0028400Y0003050D01*
Y0002550D01*
X-0028650Y0002300D01*
X-0028900D01*
Y0003300D01*
X-0029400Y0001800D02*
Y0001050D01*
X-0029150Y0000800D01*
X-0028900Y0001050D01*
Y0001550D01*
X-0028650Y0001800D01*
X-0028400Y0001550D01*
Y0000800D01*
X-0029400Y0000301D02*
Y-0000199D01*
Y0000051D01*
X-0028400D01*
Y0000301D01*
X-0029900Y-0001449D02*
Y-0001699D01*
X-0029650Y-0001949D01*
X-0028400D01*
Y-0001199D01*
X-0028650Y-0000949D01*
X-0029150D01*
X-0029400Y-0001199D01*
Y-0001949D01*
Y-0002448D02*
X-0028400D01*
Y-0003198D01*
X-0028650Y-0003448D01*
X-0029400D01*
X-0028400Y-0004198D02*
Y-0004698D01*
X-0028650Y-0004948D01*
X-0029400D01*
Y-0004198D01*
X-0029150Y-0003948D01*
X-0028900Y-0004198D01*
Y-0004948D01*
X-0028150Y-0005697D02*
X-0028400D01*
Y-0005447D01*
Y-0005947D01*
Y-0005697D01*
X-0029150D01*
X-0029400Y-0005947D01*
Y-0006947D02*
Y-0007447D01*
X-0029150Y-0007697D01*
X-0028650D01*
X-0028400Y-0007447D01*
Y-0006947D01*
X-0028650Y-0006697D01*
X-0029150D01*
X-0029400Y-0006947D01*
X-0028400Y-0008197D02*
X-0029400D01*
X-0028900D01*
X-0028650Y-0008447D01*
X-0028400Y-0008697D01*
Y-0008946D01*
X-0030715Y0012472D02*
Y0010973D01*
X-0029965D01*
X-0029715Y0011223D01*
Y0012223D01*
X-0029965Y0012472D01*
X-0030715D01*
X-0028466Y0010973D02*
X-0028965D01*
X-0029215Y0011223D01*
Y0011723D01*
X-0028965Y0011973D01*
X-0028466D01*
X-0028216Y0011723D01*
Y0011473D01*
X-0029215D01*
X-0027716Y0010973D02*
X-0026966D01*
X-0026716Y0011223D01*
X-0026966Y0011473D01*
X-0027466D01*
X-0027716Y0011723D01*
X-0027466Y0011973D01*
X-0026716D01*
X-0026216Y0010973D02*
X-0025716D01*
X-0025966D01*
Y0011973D01*
X-0026216D01*
X-0024467Y0010473D02*
X-0024217D01*
X-0023967Y0010723D01*
Y0011973D01*
X-0024717D01*
X-0024967Y0011723D01*
Y0011223D01*
X-0024717Y0010973D01*
X-0023967D01*
X-0023467D02*
Y0011973D01*
X-0022717D01*
X-0022467Y0011723D01*
Y0010973D01*
X-0021718Y0011973D02*
X-0021218D01*
X-0020968Y0011723D01*
Y0010973D01*
X-0021718D01*
X-0021968Y0011223D01*
X-0021718Y0011473D01*
X-0020968D01*
X-0020218Y0012223D02*
Y0011973D01*
X-0020468D01*
X-0019968D01*
X-0020218D01*
Y0011223D01*
X-0019968Y0010973D01*
X-0018969D02*
X-0018469D01*
X-0018219Y0011223D01*
Y0011723D01*
X-0018469Y0011973D01*
X-0018969D01*
X-0019218Y0011723D01*
Y0011223D01*
X-0018969Y0010973D01*
X-0017719Y0011973D02*
Y0010973D01*
Y0011473D01*
X-0017469Y0011723D01*
X-0017219Y0011973D01*
X-0016969D01*
X0029155Y0017389D02*
X0028156Y0018888D01*
Y0017389D02*
X0029155Y0018888D01*
X0027656D02*
X0027156D01*
X0027406D01*
Y0017389D01*
X0027656Y0017639D01*
X-0004331Y0000712D02*
Y-0000538D01*
X-0004081Y-0000787D01*
X-0003581D01*
X-0003331Y-0000538D01*
Y0000712D01*
X-0002831Y-0000787D02*
X-0002331D01*
X-0002581D01*
Y0000712D01*
X-0002831Y0000462D01*
X-0008188Y0021976D02*
X-0009687D01*
Y0020977D01*
Y0019477D02*
Y0020477D01*
X-0008688Y0019477D01*
X-0008438D01*
X-0008188Y0019727D01*
Y0020227D01*
X-0008438Y0020477D01*
X-0011358Y0032565D02*
X-0011327Y0032917D01*
X-0011648Y0033300D01*
X-0012000Y0033331D01*
X-0012766Y0032688D01*
X-0012797Y0032336D01*
X-0012476Y0031953D01*
X-0012124Y0031922D01*
X-0011994Y0031379D02*
X-0011672Y0030996D01*
X-0011833Y0031187D01*
X-0010684Y0032151D01*
X-0011037Y0032182D01*
X-0010233Y0031225D02*
X-0009881Y0031194D01*
X-0009560Y0030811D01*
X-0009591Y0030459D01*
X-0010357Y0029816D01*
X-0010709Y0029847D01*
X-0011030Y0030230D01*
X-0010999Y0030582D01*
X-0010233Y0031225D01*
D33*
X0022856Y0014951D02*
G03*
X0022462Y0015345I-0000394J0000000D01*
G01*
Y0020857D02*
G03*
X0022856Y0021250I0000000J0000394D01*
G01*
X0029943D02*
G03*
X0030336Y0020857I0000394J0000000D01*
G01*
Y0015345D02*
G03*
X0029943Y0014951I0000000J-0000394D01*
G01*
X0023368Y0020739D02*
G03*
X0022974Y0020345I0000000J-0000394D01*
G01*
X0029825D02*
G03*
X0029431Y0020739I-0000394J0000000D01*
G01*
X0022974Y0015857D02*
G03*
X0023368Y0015463I0000394J0000000D01*
G01*
X0029431D02*
G03*
X0029825Y0015857I0000000J0000394D01*
G01*
X-0012090Y0007564D02*
G03*
X-0012090Y0006814I0000000J-0000375D01*
G01*
Y0005990D02*
G03*
X-0012090Y0005240I0000000J-0000375D01*
G01*
Y0004415D02*
G03*
X-0012090Y0003665I0000000J-0000375D01*
G01*
Y0002840D02*
G03*
X-0012090Y0002090I0000000J-0000375D01*
G01*
Y0001265D02*
G03*
X-0012090Y0000515I0000000J-0000375D01*
G01*
Y-0000310D02*
G03*
X-0012090Y-0001060I0000000J-0000375D01*
G01*
Y-0001884D02*
G03*
X-0012090Y-0002634I0000000J-0000375D01*
G01*
Y-0003459D02*
G03*
X-0012090Y-0004209I0000000J-0000375D01*
G01*
Y-0005034D02*
G03*
X-0012090Y-0005784I0000000J-0000375D01*
G01*
Y-0006609D02*
G03*
X-0012090Y-0007359I0000000J-0000375D01*
G01*
Y-0008184D02*
G03*
X-0012090Y-0008934I0000000J-0000375D01*
G01*
Y0009139D02*
G03*
X-0012090Y0008389I0000000J-0000375D01*
G01*
X-0006615Y0007874D02*
G03*
X-0006615Y0007874I-0001259J0000000D01*
G01*
X-0009139Y-0012090D02*
G03*
X-0008389Y-0012090I0000375J0000000D01*
G01*
X0008184D02*
G03*
X0008934Y-0012090I0000375J0000000D01*
G01*
X0006609D02*
G03*
X0007359Y-0012090I0000375J0000000D01*
G01*
X0005034D02*
G03*
X0005784Y-0012090I0000375J0000000D01*
G01*
X0003459Y-0012090D02*
G03*
X0004209Y-0012090I0000375J0000000D01*
G01*
X0001884D02*
G03*
X0002634Y-0012090I0000375J0000000D01*
G01*
X0000310D02*
G03*
X0001060Y-0012090I0000375J0000000D01*
G01*
X-0001265Y-0012090D02*
G03*
X-0000515Y-0012090I0000375J0000000D01*
G01*
X-0002840Y-0012090D02*
G03*
X-0002090Y-0012090I0000375J0000000D01*
G01*
X-0004415Y-0012090D02*
G03*
X-0003665Y-0012090I0000375J0000000D01*
G01*
X-0005990D02*
G03*
X-0005240Y-0012090I0000375J0000000D01*
G01*
X-0007564D02*
G03*
X-0006814Y-0012090I0000375J0000000D01*
G01*
X0012090Y-0009139D02*
G03*
X0012090Y-0008389I0000000J0000375D01*
G01*
Y0008184D02*
G03*
X0012090Y0008934I0000000J0000375D01*
G01*
Y0006609D02*
G03*
X0012090Y0007359I0000000J0000375D01*
G01*
Y0005034D02*
G03*
X0012090Y0005784I0000000J0000375D01*
G01*
X0012090Y0003459D02*
G03*
X0012090Y0004209I0000000J0000375D01*
G01*
Y0001884D02*
G03*
X0012090Y0002634I0000000J0000375D01*
G01*
Y0000310D02*
G03*
X0012090Y0001060I0000000J0000375D01*
G01*
X0012090Y-0001265D02*
G03*
X0012090Y-0000515I0000000J0000375D01*
G01*
X0012090Y-0002840D02*
G03*
X0012090Y-0002090I0000000J0000375D01*
G01*
X0012090Y-0004415D02*
G03*
X0012090Y-0003665I0000000J0000375D01*
G01*
Y-0005990D02*
G03*
X0012090Y-0005240I0000000J0000375D01*
G01*
Y-0007564D02*
G03*
X0012090Y-0006814I0000000J0000375D01*
G01*
X0009139Y0012090D02*
G03*
X0008389Y0012090I-0000375J0000000D01*
G01*
X-0008184D02*
G03*
X-0008934Y0012090I-0000375J0000000D01*
G01*
X-0006609D02*
G03*
X-0007359Y0012090I-0000375J0000000D01*
G01*
X-0005034D02*
G03*
X-0005784Y0012090I-0000375J0000000D01*
G01*
X-0003459Y0012090D02*
G03*
X-0004209Y0012090I-0000375J0000000D01*
G01*
X-0001884D02*
G03*
X-0002634Y0012090I-0000375J0000000D01*
G01*
X-0000310D02*
G03*
X-0001060Y0012090I-0000375J0000000D01*
G01*
X0001265Y0012090D02*
G03*
X0000515Y0012090I-0000375J0000000D01*
G01*
X0002840Y0012090D02*
G03*
X0002090Y0012090I-0000375J0000000D01*
G01*
X0004415Y0012090D02*
G03*
X0003665Y0012090I-0000375J0000000D01*
G01*
X0005990D02*
G03*
X0005240Y0012090I-0000375J0000000D01*
G01*
X0007564D02*
G03*
X0006814Y0012090I-0000375J0000000D01*
G01*
X-0017653Y0009728D02*
Y0013272D01*
X-0024347Y0009728D02*
Y0013272D01*
Y0009728D02*
X-0017653D01*
X-0024347Y0013272D02*
X-0017653D01*
X-0005267Y0024817D02*
X-0001133D01*
X-0005267Y0026983D02*
X-0001133D01*
Y0024817D02*
Y0026983D01*
X-0005267Y0024817D02*
Y0026983D01*
X-0032353Y-0007799D02*
Y0004799D01*
X-0026447D01*
Y-0007799D02*
Y0004799D01*
X-0032353Y-0007799D02*
X-0026447D01*
X0030336Y0015345D02*
Y0020857D01*
X0022856Y0021250D02*
X0029943D01*
X0022462Y0015345D02*
Y0020857D01*
X0022856Y0014951D02*
X0029943D01*
X0023368Y0020739D02*
X0029431D01*
X0023368Y0015463D02*
X0029431D01*
X0029825Y0015857D02*
Y0020345D01*
X0022974Y0015857D02*
Y0020345D01*
X-0011811Y-0011811D02*
X0011811D01*
X-0011811Y0011811D02*
X0011811D01*
Y-0011811D02*
Y0011811D01*
X-0012090Y0006814D02*
X-0011811D01*
X-0012090Y0007564D02*
X-0011811D01*
X-0012090Y0005240D02*
X-0011811D01*
X-0012090Y0005990D02*
X-0011811D01*
X-0012090Y0003665D02*
X-0011811D01*
X-0012090Y0004415D02*
X-0011811D01*
X-0012090Y0002090D02*
X-0011811D01*
X-0012090Y0002840D02*
X-0011811D01*
X-0012090Y0000515D02*
X-0011811D01*
X-0012090Y0001265D02*
X-0011811D01*
X-0012090Y-0001060D02*
X-0011811D01*
X-0012090Y-0000310D02*
X-0011811D01*
X-0012090Y-0002634D02*
X-0011811D01*
X-0012090Y-0001884D02*
X-0011811D01*
X-0012090Y-0004209D02*
X-0011811D01*
X-0012090Y-0003459D02*
X-0011811D01*
X-0012090Y-0005784D02*
X-0011811D01*
X-0012090Y-0005034D02*
X-0011811D01*
X-0012090Y-0007359D02*
X-0011811D01*
X-0012090Y-0006609D02*
X-0011811D01*
X-0012090Y-0008934D02*
X-0011811D01*
X-0012090Y-0008184D02*
X-0011811D01*
X-0012090Y0008389D02*
X-0011811D01*
X-0012090Y0009139D02*
X-0011811D01*
X-0011811Y-0011811D02*
Y0011811D01*
X-0009139Y-0012090D02*
Y-0011811D01*
X-0008389Y-0012090D02*
Y-0011811D01*
X0008184Y-0012090D02*
Y-0011811D01*
X0008934Y-0012090D02*
Y-0011811D01*
X0006609Y-0012090D02*
Y-0011811D01*
X0007359Y-0012090D02*
Y-0011811D01*
X0005034Y-0012090D02*
Y-0011811D01*
X0005784Y-0012090D02*
Y-0011811D01*
X0003459Y-0012090D02*
Y-0011811D01*
X0004209Y-0012090D02*
Y-0011811D01*
X0001884Y-0012090D02*
Y-0011811D01*
X0002634D02*
X0002634Y-0012090D01*
X0000310Y-0012090D02*
Y-0011811D01*
X0001060Y-0012090D02*
Y-0011811D01*
X-0001265Y-0012090D02*
Y-0011811D01*
X-0000515Y-0012090D02*
Y-0011811D01*
X-0002840Y-0012090D02*
X-0002840Y-0011811D01*
X-0002090Y-0012090D02*
Y-0011811D01*
X-0004415D02*
X-0004415Y-0012090D01*
X-0003665Y-0012090D02*
Y-0011811D01*
X-0005990Y-0012090D02*
Y-0011811D01*
X-0005240Y-0012090D02*
Y-0011811D01*
X-0007564D02*
X-0007564Y-0012090D01*
X-0006814Y-0012090D02*
Y-0011811D01*
X0011811Y-0009139D02*
X0012090D01*
X0011811Y-0008389D02*
X0012090D01*
X0011811Y0008184D02*
X0012090D01*
X0011811Y0008934D02*
X0012090D01*
X0011811Y0006609D02*
X0012090D01*
X0011811Y0007359D02*
X0012090D01*
X0011811Y0005034D02*
X0012090D01*
X0011811Y0005784D02*
X0012090D01*
X0011811Y0003459D02*
X0012090D01*
X0011811Y0004209D02*
X0012090D01*
X0011811Y0001884D02*
X0012090D01*
X0011811Y0002634D02*
X0012090Y0002634D01*
X0011811Y0000310D02*
X0012090D01*
X0011811Y0001060D02*
X0012090D01*
X0011811Y-0001265D02*
X0012090D01*
X0011811Y-0000515D02*
X0012090D01*
X0011811Y-0002840D02*
X0012090Y-0002840D01*
X0011811Y-0002090D02*
X0012090D01*
X0011811Y-0004415D02*
X0012090Y-0004415D01*
X0011811Y-0003665D02*
X0012090D01*
X0011811Y-0005990D02*
X0012090D01*
X0011811Y-0005240D02*
X0012090D01*
X0011811Y-0007564D02*
X0012090Y-0007564D01*
X0011811Y-0006814D02*
X0012090D01*
X0009139Y0011811D02*
Y0012090D01*
X0008389Y0011811D02*
Y0012090D01*
X-0008184Y0011811D02*
Y0012090D01*
X-0008934Y0011811D02*
Y0012090D01*
X-0006609Y0011811D02*
Y0012090D01*
X-0007359Y0011811D02*
Y0012090D01*
X-0005034Y0011811D02*
Y0012090D01*
X-0005784Y0011811D02*
Y0012090D01*
X-0003459Y0011811D02*
Y0012090D01*
X-0004209Y0011811D02*
Y0012090D01*
X-0001884Y0011811D02*
Y0012090D01*
X-0002634Y0012090D02*
X-0002634Y0011811D01*
X-0000310D02*
Y0012090D01*
X-0001060Y0011811D02*
Y0012090D01*
X0001265Y0011811D02*
Y0012090D01*
X0000515Y0011811D02*
Y0012090D01*
X0002840Y0011811D02*
X0002840Y0012090D01*
X0002090Y0011811D02*
Y0012090D01*
X0004415Y0012090D02*
X0004415Y0011811D01*
X0003665D02*
Y0012090D01*
X0005990Y0011811D02*
Y0012090D01*
X0005240Y0011811D02*
Y0012090D01*
X0007564Y0012090D02*
X0007564Y0011811D01*
X0006814D02*
Y0012090D01*
X-0015655Y0028307D02*
X-0013996Y0029699D01*
X-0012998Y0025141D02*
X-0011339Y0026533D01*
X-0013996Y0029699D02*
X-0011339Y0026533D01*
X-0015655Y0028307D02*
X-0012998Y0025141D01*
X-0010672Y0015874D02*
Y0022567D01*
X-0007128Y0015874D02*
Y0022567D01*
X-0010672Y0015874D02*
X-0007128D01*
X-0010672Y0022567D02*
X-0007128D01*
X0020033Y-0003083D02*
Y-0000917D01*
X0024167Y-0003083D02*
Y-0000917D01*
X0020033D02*
X0024167D01*
X0020033Y-0003083D02*
X0024167D01*
X-0024883Y-0000267D02*
Y0003867D01*
X-0022717Y-0000267D02*
Y0003867D01*
X-0024883Y-0000267D02*
X-0022717D01*
X-0024883Y0003867D02*
X-0022717D01*
X-0014305Y0032245D02*
X-0011591Y0034522D01*
X-0010003Y0027118D02*
X-0007289Y0029395D01*
X-0011591Y0034522D02*
X-0007289Y0029395D01*
X-0014305Y0032245D02*
X-0010003Y0027118D01*
X0016982Y0016034D02*
Y0020168D01*
X0014817Y0016034D02*
Y0020168D01*
X0016982D01*
X0014817Y0016034D02*
X0016982D01*
X0018733Y0009217D02*
X0022867D01*
X0018733Y0011383D02*
X0022867D01*
Y0009217D02*
Y0011383D01*
X0018733Y0009217D02*
Y0011383D01*
Y0007883D02*
X0022867D01*
X0018733Y0005717D02*
X0022867D01*
X0018733D02*
Y0007883D01*
X0022867Y0005717D02*
Y0007883D01*
X-0013267Y-0015017D02*
X-0009133D01*
X-0013267Y-0017183D02*
X-0009133D01*
X-0013267D02*
Y-0015017D01*
X-0009133Y-0017183D02*
Y-0015017D01*
X-0023067Y0008483D02*
X-0018933D01*
X-0023067Y0006317D02*
X-0018933D01*
X-0023067D02*
Y0008483D01*
X-0018933Y0006317D02*
Y0008483D01*
X0015417Y-0002067D02*
Y0002067D01*
X0017583Y-0002067D02*
Y0002067D01*
X0015417Y-0002067D02*
X0017583D01*
X0015417Y0002067D02*
X0017583D01*
X0020482Y0016034D02*
Y0020168D01*
X0018317Y0016034D02*
Y0020168D01*
X0020482D01*
X0018317Y0016034D02*
X0020482D01*
X0032317D02*
Y0020168D01*
X0034482Y0016034D02*
Y0020168D01*
X0032317Y0016034D02*
X0034482D01*
X0032317Y0020168D02*
X0034482D01*
X-0031467Y-0009517D02*
X-0027333D01*
X-0031467Y-0011683D02*
X-0027333D01*
X-0031467D02*
Y-0009517D01*
X-0027333Y-0011683D02*
Y-0009517D01*
X-0026447Y-0007012D02*
G03*
X-0027235Y-0007799I-0000000J-0000787D01*
G01*
X-0031565D02*
G03*
X-0032353Y-0007012I-0000787J0000000D01*
G01*
X-0032353Y0004012D02*
G03*
X-0031565Y0004799I0000000J0000787D01*
G01*
X-0027235D02*
G03*
X-0026447Y0004012I0000787J0000000D01*
G01*
X-0022772Y0011500D02*
X-0019228D01*
X-0021000Y0009728D02*
Y0013272D01*
X-0025626Y0013468D02*
X-0016374D01*
X-0025626Y0009532D02*
X-0016374D01*
X-0025626D02*
Y0013468D01*
X-0016374Y0009532D02*
Y0013468D01*
X-0003200Y0024817D02*
Y0026983D01*
X-0004283Y0025900D02*
X-0002117D01*
X-0006743Y0024522D02*
Y0027278D01*
X0000343Y0024522D02*
Y0027278D01*
X-0006743D02*
X0000343D01*
X-0006743Y0024522D02*
X0000343D01*
X-0031565Y-0007799D02*
X-0027235D01*
X-0032353Y-0007012D02*
Y0004012D01*
X-0031565Y0004799D02*
X-0027235D01*
X-0026447Y-0007012D02*
Y0004012D01*
X0000000Y-0001969D02*
Y0001969D01*
X-0001969Y0000000D02*
X0001969D01*
X-0014173Y-0014173D02*
X0014173D01*
X-0014173Y0014173D02*
X0014173D01*
Y-0014173D02*
Y0014173D01*
X-0014173Y-0014173D02*
Y0014173D01*
X-0016830Y0029249D02*
X-0014719Y0031020D01*
X-0012275Y0023820D02*
X-0010164Y0025591D01*
X-0014719Y0031020D02*
X-0010164Y0025591D01*
X-0016830Y0029249D02*
X-0012275Y0023820D01*
X-0014193Y0028249D02*
X-0012801Y0026591D01*
X-0014327Y0026724D02*
X-0012668Y0028116D01*
X-0010672Y0019220D02*
X-0007128D01*
X-0008900Y0017449D02*
Y0020992D01*
X-0010869Y0023846D02*
X-0006932D01*
X-0010869Y0014594D02*
X-0006932D01*
Y0023846D01*
X-0010869Y0014594D02*
Y0023846D01*
X0018557Y-0003378D02*
Y-0000622D01*
X0025643Y-0003378D02*
Y-0000622D01*
X0018557D02*
X0025643D01*
X0018557Y-0003378D02*
X0025643D01*
X0021017Y-0002000D02*
X0023183D01*
X0022100Y-0003083D02*
Y-0000917D01*
X-0024883Y0001800D02*
X-0022717D01*
X-0023800Y0000717D02*
Y0002883D01*
X-0025178Y0005343D02*
X-0022422D01*
X-0025178Y-0001743D02*
X-0022422D01*
Y0005343D01*
X-0025178Y-0001743D02*
Y0005343D01*
X-0011936Y0032177D02*
X-0009658Y0029463D01*
X-0012154Y0029681D02*
X-0009440Y0031959D01*
X-0015279Y0033098D02*
X-0009332Y0026011D01*
X-0012263Y0035629D02*
X-0006316Y0028542D01*
X-0009332Y0026011D02*
X-0006316Y0028542D01*
X-0015279Y0033098D02*
X-0012263Y0035629D01*
X0014817Y0018101D02*
X0016982D01*
X0015899Y0017018D02*
Y0019183D01*
X0014521Y0014557D02*
X0017277D01*
X0014521Y0021644D02*
X0017277D01*
X0014521Y0014557D02*
Y0021644D01*
X0017277Y0014557D02*
Y0021644D01*
X0020800Y0009217D02*
Y0011383D01*
X0019717Y0010300D02*
X0021883D01*
X0017257Y0008922D02*
Y0011678D01*
X0024343Y0008922D02*
Y0011678D01*
X0017257D02*
X0024343D01*
X0017257Y0008922D02*
X0024343D01*
X0020800Y0005717D02*
Y0007883D01*
X0019717Y0006800D02*
X0021883D01*
X0024343Y0005422D02*
Y0008178D01*
X0017257Y0005422D02*
Y0008178D01*
Y0005422D02*
X0024343D01*
X0017257Y0008178D02*
X0024343D01*
X-0011200Y-0017183D02*
Y-0015017D01*
X-0012283Y-0016100D02*
X-0010117D01*
X-0007657Y-0017478D02*
Y-0014722D01*
X-0014743Y-0017478D02*
Y-0014722D01*
Y-0017478D02*
X-0007657D01*
X-0014743Y-0014722D02*
X-0007657D01*
X-0021000Y0006317D02*
Y0008483D01*
X-0022083Y0007400D02*
X-0019917D01*
X-0017457Y0006022D02*
Y0008778D01*
X-0024543Y0006022D02*
Y0008778D01*
Y0006022D02*
X-0017457D01*
X-0024543Y0008778D02*
X-0017457D01*
X0015417Y0000000D02*
X0017583D01*
X0016500Y-0001083D02*
Y0001083D01*
X0015122Y0003543D02*
X0017878D01*
X0015122Y-0003543D02*
X0017878D01*
Y0003543D01*
X0015122Y-0003543D02*
Y0003543D01*
X0018317Y0018101D02*
X0020482D01*
X0019399Y0017018D02*
Y0019183D01*
X0018021Y0014557D02*
X0020777D01*
X0018021Y0021644D02*
X0020777D01*
X0018021Y0014557D02*
Y0021644D01*
X0020777Y0014557D02*
Y0021644D01*
X0032317Y0018101D02*
X0034482D01*
X0033399Y0017018D02*
Y0019183D01*
X0032021Y0021644D02*
X0034777D01*
X0032021Y0014557D02*
X0034777D01*
Y0021644D01*
X0032021Y0014557D02*
Y0021644D01*
X-0029400Y-0011683D02*
Y-0009517D01*
X-0030483Y-0010600D02*
X-0028317D01*
X-0025857Y-0011978D02*
Y-0009222D01*
X-0032943Y-0011978D02*
Y-0009222D01*
Y-0011978D02*
X-0025857D01*
X-0032943Y-0009222D02*
X-0025857D01*
D34*
X-0040000Y0020000D02*
D03*
X-0030000D02*
D03*
X0030000Y-0050000D02*
D03*
X0010000Y-0060000D02*
D03*
X0040000Y-0030000D02*
D03*
X0030000D02*
D03*
Y-0040000D02*
D03*
X0040000D02*
D03*
X0010000Y-0050000D02*
D03*
Y-0040000D02*
D03*
Y-0030000D02*
D03*
X-0010000Y-0050000D02*
D03*
Y-0040000D02*
D03*
Y-0030000D02*
D03*
X-0030000Y-0070000D02*
D03*
Y-0060000D02*
D03*
X-0040000D02*
D03*
X-0030000Y-0050000D02*
D03*
X-0040000D02*
D03*
Y-0040000D02*
D03*
X-0030000D02*
D03*
Y-0030000D02*
D03*
X-0040000D02*
D03*
X0000289Y-0060664D02*
D03*
X0000000Y-0040000D02*
D03*
Y-0050000D02*
D03*
X-0010000Y-0060000D02*
D03*
X-0030000Y0050000D02*
D03*
X-0020000D02*
D03*
X-0010000D02*
D03*
X0000000D02*
D03*
X0010000D02*
D03*
X0020000D02*
D03*
X0030000D02*
D03*
D35*
X0020200Y-0007500D02*
D03*
X0023716Y0001376D02*
D03*
X0025900Y0006800D02*
D03*
Y0010100D02*
D03*
X-0020984Y0014476D02*
D03*
X0029300Y0012720D02*
D03*
X-0022800Y0028900D02*
D03*
X-0027052Y0007860D02*
D03*
X-0011800Y-0011811D02*
D03*
X-0009400Y-0019300D02*
D03*
X-0013100Y-0019400D02*
D03*
X0013099Y0015801D02*
D03*
X-0043184Y0026019D02*
D03*
X-0024217Y0036744D02*
D03*
X-0018951Y0019242D02*
D03*
X-0035400Y0015934D02*
D03*
X-0001337Y0029100D02*
D03*
X0015900Y0023300D02*
D03*
X0019300D02*
D03*
X0033400Y0029200D02*
D03*
X0023099Y0024101D02*
D03*
X0033400Y0012900D02*
D03*
X0033400Y0001325D02*
D03*
X0026265Y-0007484D02*
D03*
X0033400Y-0005275D02*
D03*
X0020200Y-0019300D02*
D03*
X0033400D02*
D03*
X-0031600D02*
D03*
Y-0013800D02*
D03*
X-0027900Y-0000800D02*
D03*
X-0001337Y0035200D02*
D03*
X-0016800Y0035200D02*
D03*
X-0028387Y0031963D02*
D03*
X-0013824Y0016063D02*
D03*
X0010900Y0035200D02*
D03*
X0033400D02*
D03*
X-0003500Y0016400D02*
D03*
X0012699Y0020069D02*
D03*
X-0009100Y0035200D02*
D03*
X-0001300Y0022700D02*
D03*
X-0000058Y-0030425D02*
D03*
X-0001274Y-0033437D02*
D03*
X0001652Y-0035581D02*
D03*
X0000841Y-0026920D02*
D03*
D36*
X0007087Y-0007087D02*
D03*
X0002362D02*
D03*
X-0002362D02*
D03*
X-0007087D02*
D03*
X0007087Y-0002362D02*
D03*
X0002362D02*
D03*
X-0002362D02*
D03*
X-0007087D02*
D03*
X0007087Y0002362D02*
D03*
X0002362D02*
D03*
X-0002362D02*
D03*
X-0007087D02*
D03*
X0007087Y0007087D02*
D03*
X0002362D02*
D03*
X-0002362D02*
D03*
X-0007087D02*
D03*
M02*
