%TF.GenerationSoftware,KiCad,Pcbnew,5.1.3-ffb9f22~84~ubuntu18.04.1*%
%TF.CreationDate,2019-07-25T20:13:38+03:00*%
%TF.ProjectId,bluetooth,626c7565-746f-46f7-9468-2e6b69636164,rev?*%
%TF.SameCoordinates,Original*%
%TF.FileFunction,Copper,L2,Bot*%
%TF.FilePolarity,Positive*%
%FSLAX45Y45*%
G04 Gerber Fmt 4.5, Leading zero omitted, Abs format (unit mm)*
G04 Created by KiCad (PCBNEW 5.1.3-ffb9f22~84~ubuntu18.04.1) date 2019-07-25 20:13:38*
%MOMM*%
%LPD*%
G04 APERTURE LIST*
%ADD10C,0.100000*%
%ADD11C,0.150000*%
%ADD12C,0.300000*%
%ADD13C,0.400000*%
%TA.AperFunction,ComponentPad*%
%ADD14C,1.300000*%
%TD*%
%TA.AperFunction,ViaPad*%
%ADD15C,0.609600*%
%TD*%
%TA.AperFunction,ViaPad*%
%ADD16C,0.400000*%
%TD*%
%TA.AperFunction,ViaPad*%
%ADD17C,0.660000*%
%TD*%
%TA.AperFunction,Conductor*%
%ADD18C,0.152400*%
%TD*%
%TA.AperFunction,Conductor*%
%ADD19C,0.254000*%
%TD*%
%TA.AperFunction,Conductor*%
%ADD20C,0.381000*%
%TD*%
%TA.AperFunction,Conductor*%
%ADD21C,0.025400*%
%TD*%
G04 APERTURE END LIST*
D10*
D11*
X17700220Y-16600720D02*
X17700220Y-19800720D01*
X28500220Y-19800720D01*
X28500220Y-16600720D01*
X17700220Y-16600720D01*
D10*
D11*
X1000000Y-1000000D02*
X1000000Y-20000720D01*
X28700220Y-20000720D01*
X28700220Y-1000000D01*
X1000000Y-1000000D01*
D10*
D11*
X1200000Y-1200000D02*
X1200000Y-19800720D01*
X28500220Y-19800720D01*
X28500220Y-1200000D01*
X1200000Y-1200000D01*
D10*
D11*
X6000000Y-1200000D02*
X6000000Y-1000000D01*
D10*
D11*
X11000000Y-1200000D02*
X11000000Y-1000000D01*
D10*
D11*
X16000000Y-1200000D02*
X16000000Y-1000000D01*
D10*
D11*
X21000000Y-1200000D02*
X21000000Y-1000000D01*
D10*
D11*
X26000000Y-1200000D02*
X26000000Y-1000000D01*
D10*
D11*
X3606548Y-1158810D02*
X3532262Y-1158810D01*
X3569405Y-1158810D02*
X3569405Y-1028809D01*
X3557024Y-1047381D01*
X3544643Y-1059762D01*
X3532262Y-1065952D01*
D10*
D11*
X8532262Y-1041190D02*
X8538452Y-1035000D01*
X8550833Y-1028809D01*
X8581786Y-1028809D01*
X8594167Y-1035000D01*
X8600357Y-1041190D01*
X8606548Y-1053571D01*
X8606548Y-1065952D01*
X8600357Y-1084524D01*
X8526071Y-1158810D01*
X8606548Y-1158810D01*
D10*
D11*
X13526071Y-1028809D02*
X13606548Y-1028809D01*
X13563214Y-1078333D01*
X13581786Y-1078333D01*
X13594167Y-1084524D01*
X13600357Y-1090714D01*
X13606548Y-1103095D01*
X13606548Y-1134048D01*
X13600357Y-1146429D01*
X13594167Y-1152619D01*
X13581786Y-1158810D01*
X13544643Y-1158810D01*
X13532262Y-1152619D01*
X13526071Y-1146429D01*
D10*
D11*
X18594167Y-1072143D02*
X18594167Y-1158810D01*
X18563214Y-1022619D02*
X18532262Y-1115476D01*
X18612738Y-1115476D01*
D10*
D11*
X23600357Y-1028809D02*
X23538452Y-1028809D01*
X23532262Y-1090714D01*
X23538452Y-1084524D01*
X23550833Y-1078333D01*
X23581786Y-1078333D01*
X23594167Y-1084524D01*
X23600357Y-1090714D01*
X23606548Y-1103095D01*
X23606548Y-1134048D01*
X23600357Y-1146429D01*
X23594167Y-1152619D01*
X23581786Y-1158810D01*
X23550833Y-1158810D01*
X23538452Y-1152619D01*
X23532262Y-1146429D01*
D10*
D11*
X28594167Y-1028809D02*
X28569405Y-1028809D01*
X28557024Y-1035000D01*
X28550833Y-1041190D01*
X28538452Y-1059762D01*
X28532262Y-1084524D01*
X28532262Y-1134048D01*
X28538452Y-1146429D01*
X28544643Y-1152619D01*
X28557024Y-1158810D01*
X28581786Y-1158810D01*
X28594167Y-1152619D01*
X28600357Y-1146429D01*
X28606548Y-1134048D01*
X28606548Y-1103095D01*
X28600357Y-1090714D01*
X28594167Y-1084524D01*
X28581786Y-1078333D01*
X28557024Y-1078333D01*
X28544643Y-1084524D01*
X28538452Y-1090714D01*
X28532262Y-1103095D01*
D10*
D11*
X6000000Y-19800720D02*
X6000000Y-20000720D01*
D10*
D11*
X11000000Y-19800720D02*
X11000000Y-20000720D01*
D10*
D11*
X16000000Y-19800720D02*
X16000000Y-20000720D01*
D10*
D11*
X21000000Y-19800720D02*
X21000000Y-20000720D01*
D10*
D11*
X26000000Y-19800720D02*
X26000000Y-20000720D01*
D10*
D11*
X3606548Y-19959530D02*
X3532262Y-19959530D01*
X3569405Y-19959530D02*
X3569405Y-19829530D01*
X3557024Y-19848101D01*
X3544643Y-19860482D01*
X3532262Y-19866672D01*
D10*
D11*
X8532262Y-19841910D02*
X8538452Y-19835720D01*
X8550833Y-19829530D01*
X8581786Y-19829530D01*
X8594167Y-19835720D01*
X8600357Y-19841910D01*
X8606548Y-19854291D01*
X8606548Y-19866672D01*
X8600357Y-19885244D01*
X8526071Y-19959530D01*
X8606548Y-19959530D01*
D10*
D11*
X13526071Y-19829530D02*
X13606548Y-19829530D01*
X13563214Y-19879053D01*
X13581786Y-19879053D01*
X13594167Y-19885244D01*
X13600357Y-19891434D01*
X13606548Y-19903815D01*
X13606548Y-19934768D01*
X13600357Y-19947149D01*
X13594167Y-19953339D01*
X13581786Y-19959530D01*
X13544643Y-19959530D01*
X13532262Y-19953339D01*
X13526071Y-19947149D01*
D10*
D11*
X18594167Y-19872863D02*
X18594167Y-19959530D01*
X18563214Y-19823339D02*
X18532262Y-19916196D01*
X18612738Y-19916196D01*
D10*
D11*
X23600357Y-19829530D02*
X23538452Y-19829530D01*
X23532262Y-19891434D01*
X23538452Y-19885244D01*
X23550833Y-19879053D01*
X23581786Y-19879053D01*
X23594167Y-19885244D01*
X23600357Y-19891434D01*
X23606548Y-19903815D01*
X23606548Y-19934768D01*
X23600357Y-19947149D01*
X23594167Y-19953339D01*
X23581786Y-19959530D01*
X23550833Y-19959530D01*
X23538452Y-19953339D01*
X23532262Y-19947149D01*
D10*
D11*
X28594167Y-19829530D02*
X28569405Y-19829530D01*
X28557024Y-19835720D01*
X28550833Y-19841910D01*
X28538452Y-19860482D01*
X28532262Y-19885244D01*
X28532262Y-19934768D01*
X28538452Y-19947149D01*
X28544643Y-19953339D01*
X28557024Y-19959530D01*
X28581786Y-19959530D01*
X28594167Y-19953339D01*
X28600357Y-19947149D01*
X28606548Y-19934768D01*
X28606548Y-19903815D01*
X28600357Y-19891434D01*
X28594167Y-19885244D01*
X28581786Y-19879053D01*
X28557024Y-19879053D01*
X28544643Y-19885244D01*
X28538452Y-19891434D01*
X28532262Y-19903815D01*
D10*
D11*
X1000000Y-6000000D02*
X1200000Y-6000000D01*
D10*
D11*
X1000000Y-11000000D02*
X1200000Y-11000000D01*
D10*
D11*
X1000000Y-16000000D02*
X1200000Y-16000000D01*
D10*
D11*
X1069048Y-3521667D02*
X1130952Y-3521667D01*
X1056667Y-3558809D02*
X1100000Y-3428809D01*
X1143333Y-3558809D01*
D10*
D11*
X1109286Y-8490714D02*
X1127857Y-8496905D01*
X1134048Y-8503095D01*
X1140238Y-8515476D01*
X1140238Y-8534048D01*
X1134048Y-8546429D01*
X1127857Y-8552619D01*
X1115476Y-8558810D01*
X1065952Y-8558810D01*
X1065952Y-8428810D01*
X1109286Y-8428810D01*
X1121667Y-8435000D01*
X1127857Y-8441190D01*
X1134048Y-8453571D01*
X1134048Y-8465952D01*
X1127857Y-8478333D01*
X1121667Y-8484524D01*
X1109286Y-8490714D01*
X1065952Y-8490714D01*
D10*
D11*
X1140238Y-13546428D02*
X1134048Y-13552619D01*
X1115476Y-13558809D01*
X1103095Y-13558809D01*
X1084524Y-13552619D01*
X1072143Y-13540238D01*
X1065952Y-13527857D01*
X1059762Y-13503095D01*
X1059762Y-13484524D01*
X1065952Y-13459762D01*
X1072143Y-13447381D01*
X1084524Y-13435000D01*
X1103095Y-13428809D01*
X1115476Y-13428809D01*
X1134048Y-13435000D01*
X1140238Y-13441190D01*
D10*
D11*
X1065952Y-18558810D02*
X1065952Y-18428810D01*
X1096905Y-18428810D01*
X1115476Y-18435000D01*
X1127857Y-18447381D01*
X1134048Y-18459762D01*
X1140238Y-18484524D01*
X1140238Y-18503095D01*
X1134048Y-18527857D01*
X1127857Y-18540238D01*
X1115476Y-18552619D01*
X1096905Y-18558810D01*
X1065952Y-18558810D01*
D10*
D11*
X28700220Y-6000000D02*
X28500220Y-6000000D01*
D10*
D11*
X28700220Y-11000000D02*
X28500220Y-11000000D01*
D10*
D11*
X28700220Y-16000000D02*
X28500220Y-16000000D01*
D10*
D11*
X28569268Y-3521667D02*
X28631172Y-3521667D01*
X28556887Y-3558809D02*
X28600220Y-3428809D01*
X28643553Y-3558809D01*
D10*
D11*
X28609506Y-8490714D02*
X28628077Y-8496905D01*
X28634268Y-8503095D01*
X28640458Y-8515476D01*
X28640458Y-8534048D01*
X28634268Y-8546429D01*
X28628077Y-8552619D01*
X28615696Y-8558810D01*
X28566172Y-8558810D01*
X28566172Y-8428810D01*
X28609506Y-8428810D01*
X28621887Y-8435000D01*
X28628077Y-8441190D01*
X28634268Y-8453571D01*
X28634268Y-8465952D01*
X28628077Y-8478333D01*
X28621887Y-8484524D01*
X28609506Y-8490714D01*
X28566172Y-8490714D01*
D10*
D11*
X28640458Y-13546428D02*
X28634268Y-13552619D01*
X28615696Y-13558809D01*
X28603315Y-13558809D01*
X28584744Y-13552619D01*
X28572363Y-13540238D01*
X28566172Y-13527857D01*
X28559982Y-13503095D01*
X28559982Y-13484524D01*
X28566172Y-13459762D01*
X28572363Y-13447381D01*
X28584744Y-13435000D01*
X28603315Y-13428809D01*
X28615696Y-13428809D01*
X28634268Y-13435000D01*
X28640458Y-13441190D01*
D10*
D11*
X28566172Y-18558810D02*
X28566172Y-18428810D01*
X28597125Y-18428810D01*
X28615696Y-18435000D01*
X28628077Y-18447381D01*
X28634268Y-18459762D01*
X28640458Y-18484524D01*
X28640458Y-18503095D01*
X28634268Y-18527857D01*
X28628077Y-18540238D01*
X28615696Y-18552619D01*
X28597125Y-18558810D01*
X28566172Y-18558810D01*
D10*
D11*
X20043434Y-19378577D02*
X20043434Y-19228577D01*
X20079149Y-19228577D01*
X20100577Y-19235720D01*
X20114863Y-19250006D01*
X20122006Y-19264291D01*
X20129149Y-19292863D01*
X20129149Y-19314291D01*
X20122006Y-19342863D01*
X20114863Y-19357149D01*
X20100577Y-19371434D01*
X20079149Y-19378577D01*
X20043434Y-19378577D01*
X20257720Y-19378577D02*
X20257720Y-19300006D01*
X20250577Y-19285720D01*
X20236291Y-19278577D01*
X20207720Y-19278577D01*
X20193434Y-19285720D01*
X20257720Y-19371434D02*
X20243434Y-19378577D01*
X20207720Y-19378577D01*
X20193434Y-19371434D01*
X20186291Y-19357149D01*
X20186291Y-19342863D01*
X20193434Y-19328577D01*
X20207720Y-19321434D01*
X20243434Y-19321434D01*
X20257720Y-19314291D01*
X20307720Y-19278577D02*
X20364863Y-19278577D01*
X20329149Y-19228577D02*
X20329149Y-19357149D01*
X20336291Y-19371434D01*
X20350577Y-19378577D01*
X20364863Y-19378577D01*
X20472006Y-19371434D02*
X20457720Y-19378577D01*
X20429149Y-19378577D01*
X20414863Y-19371434D01*
X20407720Y-19357149D01*
X20407720Y-19300006D01*
X20414863Y-19285720D01*
X20429149Y-19278577D01*
X20457720Y-19278577D01*
X20472006Y-19285720D01*
X20479149Y-19300006D01*
X20479149Y-19314291D01*
X20407720Y-19328577D01*
X20543434Y-19364291D02*
X20550577Y-19371434D01*
X20543434Y-19378577D01*
X20536291Y-19371434D01*
X20543434Y-19364291D01*
X20543434Y-19378577D01*
X20543434Y-19285720D02*
X20550577Y-19292863D01*
X20543434Y-19300006D01*
X20536291Y-19292863D01*
X20543434Y-19285720D01*
X20543434Y-19300006D01*
D10*
D11*
X17700220Y-19450720D02*
X28500220Y-19450720D01*
D10*
D11*
X17843434Y-19658577D02*
X17843434Y-19508577D01*
X17929149Y-19658577D02*
X17864863Y-19572863D01*
X17929149Y-19508577D02*
X17843434Y-19594291D01*
X17993434Y-19658577D02*
X17993434Y-19558577D01*
X17993434Y-19508577D02*
X17986291Y-19515720D01*
X17993434Y-19522863D01*
X18000577Y-19515720D01*
X17993434Y-19508577D01*
X17993434Y-19522863D01*
X18150577Y-19644291D02*
X18143434Y-19651434D01*
X18122006Y-19658577D01*
X18107720Y-19658577D01*
X18086291Y-19651434D01*
X18072006Y-19637149D01*
X18064863Y-19622863D01*
X18057720Y-19594291D01*
X18057720Y-19572863D01*
X18064863Y-19544291D01*
X18072006Y-19530006D01*
X18086291Y-19515720D01*
X18107720Y-19508577D01*
X18122006Y-19508577D01*
X18143434Y-19515720D01*
X18150577Y-19522863D01*
X18279149Y-19658577D02*
X18279149Y-19580006D01*
X18272006Y-19565720D01*
X18257720Y-19558577D01*
X18229149Y-19558577D01*
X18214863Y-19565720D01*
X18279149Y-19651434D02*
X18264863Y-19658577D01*
X18229149Y-19658577D01*
X18214863Y-19651434D01*
X18207720Y-19637149D01*
X18207720Y-19622863D01*
X18214863Y-19608577D01*
X18229149Y-19601434D01*
X18264863Y-19601434D01*
X18279149Y-19594291D01*
X18414863Y-19658577D02*
X18414863Y-19508577D01*
X18414863Y-19651434D02*
X18400577Y-19658577D01*
X18372006Y-19658577D01*
X18357720Y-19651434D01*
X18350577Y-19644291D01*
X18343434Y-19630006D01*
X18343434Y-19587149D01*
X18350577Y-19572863D01*
X18357720Y-19565720D01*
X18372006Y-19558577D01*
X18400577Y-19558577D01*
X18414863Y-19565720D01*
X18600577Y-19580006D02*
X18650577Y-19580006D01*
X18672006Y-19658577D02*
X18600577Y-19658577D01*
X18600577Y-19508577D01*
X18672006Y-19508577D01*
X18736291Y-19644291D02*
X18743434Y-19651434D01*
X18736291Y-19658577D01*
X18729149Y-19651434D01*
X18736291Y-19644291D01*
X18736291Y-19658577D01*
X18807720Y-19658577D02*
X18807720Y-19508577D01*
X18843434Y-19508577D01*
X18864863Y-19515720D01*
X18879149Y-19530006D01*
X18886291Y-19544291D01*
X18893434Y-19572863D01*
X18893434Y-19594291D01*
X18886291Y-19622863D01*
X18879149Y-19637149D01*
X18864863Y-19651434D01*
X18843434Y-19658577D01*
X18807720Y-19658577D01*
X18957720Y-19644291D02*
X18964863Y-19651434D01*
X18957720Y-19658577D01*
X18950577Y-19651434D01*
X18957720Y-19644291D01*
X18957720Y-19658577D01*
X19022006Y-19615720D02*
X19093434Y-19615720D01*
X19007720Y-19658577D02*
X19057720Y-19508577D01*
X19107720Y-19658577D01*
X19157720Y-19644291D02*
X19164863Y-19651434D01*
X19157720Y-19658577D01*
X19150577Y-19651434D01*
X19157720Y-19644291D01*
X19157720Y-19658577D01*
X19457720Y-19658577D02*
X19457720Y-19508577D01*
X19472006Y-19601434D02*
X19514863Y-19658577D01*
X19514863Y-19558577D02*
X19457720Y-19615720D01*
X19579149Y-19658577D02*
X19579149Y-19558577D01*
X19579149Y-19508577D02*
X19572006Y-19515720D01*
X19579149Y-19522863D01*
X19586291Y-19515720D01*
X19579149Y-19508577D01*
X19579149Y-19522863D01*
X19714863Y-19651434D02*
X19700577Y-19658577D01*
X19672006Y-19658577D01*
X19657720Y-19651434D01*
X19650577Y-19644291D01*
X19643434Y-19630006D01*
X19643434Y-19587149D01*
X19650577Y-19572863D01*
X19657720Y-19565720D01*
X19672006Y-19558577D01*
X19700577Y-19558577D01*
X19714863Y-19565720D01*
X19843434Y-19658577D02*
X19843434Y-19580006D01*
X19836291Y-19565720D01*
X19822006Y-19558577D01*
X19793434Y-19558577D01*
X19779149Y-19565720D01*
X19843434Y-19651434D02*
X19829149Y-19658577D01*
X19793434Y-19658577D01*
X19779149Y-19651434D01*
X19772006Y-19637149D01*
X19772006Y-19622863D01*
X19779149Y-19608577D01*
X19793434Y-19601434D01*
X19829149Y-19601434D01*
X19843434Y-19594291D01*
X19979149Y-19658577D02*
X19979149Y-19508577D01*
X19979149Y-19651434D02*
X19964863Y-19658577D01*
X19936291Y-19658577D01*
X19922006Y-19651434D01*
X19914863Y-19644291D01*
X19907720Y-19630006D01*
X19907720Y-19587149D01*
X19914863Y-19572863D01*
X19922006Y-19565720D01*
X19936291Y-19558577D01*
X19964863Y-19558577D01*
X19979149Y-19565720D01*
X20236291Y-19508577D02*
X20164863Y-19508577D01*
X20157720Y-19580006D01*
X20164863Y-19572863D01*
X20179149Y-19565720D01*
X20214863Y-19565720D01*
X20229149Y-19572863D01*
X20236291Y-19580006D01*
X20243434Y-19594291D01*
X20243434Y-19630006D01*
X20236291Y-19644291D01*
X20229149Y-19651434D01*
X20214863Y-19658577D01*
X20179149Y-19658577D01*
X20164863Y-19651434D01*
X20157720Y-19644291D01*
X20307720Y-19644291D02*
X20314863Y-19651434D01*
X20307720Y-19658577D01*
X20300577Y-19651434D01*
X20307720Y-19644291D01*
X20307720Y-19658577D01*
X20457720Y-19658577D02*
X20372006Y-19658577D01*
X20414863Y-19658577D02*
X20414863Y-19508577D01*
X20400577Y-19530006D01*
X20386291Y-19544291D01*
X20372006Y-19551434D01*
X20522006Y-19644291D02*
X20529149Y-19651434D01*
X20522006Y-19658577D01*
X20514863Y-19651434D01*
X20522006Y-19644291D01*
X20522006Y-19658577D01*
X20579149Y-19508577D02*
X20672006Y-19508577D01*
X20622006Y-19565720D01*
X20643434Y-19565720D01*
X20657720Y-19572863D01*
X20664863Y-19580006D01*
X20672006Y-19594291D01*
X20672006Y-19630006D01*
X20664863Y-19644291D01*
X20657720Y-19651434D01*
X20643434Y-19658577D01*
X20600577Y-19658577D01*
X20586291Y-19651434D01*
X20579149Y-19644291D01*
X20736291Y-19601434D02*
X20850577Y-19601434D01*
X20900577Y-19558577D02*
X20957720Y-19558577D01*
X20922006Y-19658577D02*
X20922006Y-19530006D01*
X20929149Y-19515720D01*
X20943434Y-19508577D01*
X20957720Y-19508577D01*
X20986291Y-19558577D02*
X21043434Y-19558577D01*
X21007720Y-19658577D02*
X21007720Y-19530006D01*
X21014863Y-19515720D01*
X21029149Y-19508577D01*
X21043434Y-19508577D01*
X21093434Y-19658577D02*
X21093434Y-19508577D01*
X21093434Y-19565720D02*
X21107720Y-19558577D01*
X21136291Y-19558577D01*
X21150577Y-19565720D01*
X21157720Y-19572863D01*
X21164863Y-19587149D01*
X21164863Y-19630006D01*
X21157720Y-19644291D01*
X21150577Y-19651434D01*
X21136291Y-19658577D01*
X21107720Y-19658577D01*
X21093434Y-19651434D01*
X21236291Y-19658577D02*
X21264863Y-19658577D01*
X21279149Y-19651434D01*
X21286291Y-19644291D01*
X21300577Y-19622863D01*
X21307720Y-19594291D01*
X21307720Y-19537149D01*
X21300577Y-19522863D01*
X21293434Y-19515720D01*
X21279149Y-19508577D01*
X21250577Y-19508577D01*
X21236291Y-19515720D01*
X21229149Y-19522863D01*
X21222006Y-19537149D01*
X21222006Y-19572863D01*
X21229149Y-19587149D01*
X21236291Y-19594291D01*
X21250577Y-19601434D01*
X21279149Y-19601434D01*
X21293434Y-19594291D01*
X21300577Y-19587149D01*
X21307720Y-19572863D01*
X21350577Y-19558577D02*
X21407720Y-19558577D01*
X21372006Y-19658577D02*
X21372006Y-19530006D01*
X21379149Y-19515720D01*
X21393434Y-19508577D01*
X21407720Y-19508577D01*
X21450577Y-19522863D02*
X21457720Y-19515720D01*
X21472006Y-19508577D01*
X21507720Y-19508577D01*
X21522006Y-19515720D01*
X21529149Y-19522863D01*
X21536291Y-19537149D01*
X21536291Y-19551434D01*
X21529149Y-19572863D01*
X21443434Y-19658577D01*
X21536291Y-19658577D01*
X21593434Y-19522863D02*
X21600577Y-19515720D01*
X21614863Y-19508577D01*
X21650577Y-19508577D01*
X21664863Y-19515720D01*
X21672006Y-19522863D01*
X21679149Y-19537149D01*
X21679149Y-19551434D01*
X21672006Y-19572863D01*
X21586291Y-19658577D01*
X21679149Y-19658577D01*
X21707720Y-19467720D02*
X21850577Y-19467720D01*
X21764863Y-19572863D02*
X21750577Y-19565720D01*
X21743434Y-19558577D01*
X21736291Y-19544291D01*
X21736291Y-19537149D01*
X21743434Y-19522863D01*
X21750577Y-19515720D01*
X21764863Y-19508577D01*
X21793434Y-19508577D01*
X21807720Y-19515720D01*
X21814863Y-19522863D01*
X21822006Y-19537149D01*
X21822006Y-19544291D01*
X21814863Y-19558577D01*
X21807720Y-19565720D01*
X21793434Y-19572863D01*
X21764863Y-19572863D01*
X21750577Y-19580006D01*
X21743434Y-19587149D01*
X21736291Y-19601434D01*
X21736291Y-19630006D01*
X21743434Y-19644291D01*
X21750577Y-19651434D01*
X21764863Y-19658577D01*
X21793434Y-19658577D01*
X21807720Y-19651434D01*
X21814863Y-19644291D01*
X21822006Y-19630006D01*
X21822006Y-19601434D01*
X21814863Y-19587149D01*
X21807720Y-19580006D01*
X21793434Y-19572863D01*
X21850577Y-19467720D02*
X21993434Y-19467720D01*
X21950577Y-19558577D02*
X21950577Y-19658577D01*
X21914863Y-19501434D02*
X21879149Y-19608577D01*
X21972006Y-19608577D01*
X22093434Y-19558577D02*
X22093434Y-19658577D01*
X22029149Y-19558577D02*
X22029149Y-19637149D01*
X22036291Y-19651434D01*
X22050577Y-19658577D01*
X22072006Y-19658577D01*
X22086291Y-19651434D01*
X22093434Y-19644291D01*
X22164863Y-19658577D02*
X22164863Y-19508577D01*
X22164863Y-19565720D02*
X22179149Y-19558577D01*
X22207720Y-19558577D01*
X22222006Y-19565720D01*
X22229149Y-19572863D01*
X22236291Y-19587149D01*
X22236291Y-19630006D01*
X22229149Y-19644291D01*
X22222006Y-19651434D01*
X22207720Y-19658577D01*
X22179149Y-19658577D01*
X22164863Y-19651434D01*
X22364863Y-19558577D02*
X22364863Y-19658577D01*
X22300577Y-19558577D02*
X22300577Y-19637149D01*
X22307720Y-19651434D01*
X22322006Y-19658577D01*
X22343434Y-19658577D01*
X22357720Y-19651434D01*
X22364863Y-19644291D01*
X22436291Y-19558577D02*
X22436291Y-19658577D01*
X22436291Y-19572863D02*
X22443434Y-19565720D01*
X22457720Y-19558577D01*
X22479148Y-19558577D01*
X22493434Y-19565720D01*
X22500577Y-19580006D01*
X22500577Y-19658577D01*
X22550577Y-19558577D02*
X22607720Y-19558577D01*
X22572006Y-19508577D02*
X22572006Y-19637149D01*
X22579148Y-19651434D01*
X22593434Y-19658577D01*
X22607720Y-19658577D01*
X22722006Y-19558577D02*
X22722006Y-19658577D01*
X22657720Y-19558577D02*
X22657720Y-19637149D01*
X22664863Y-19651434D01*
X22679148Y-19658577D01*
X22700577Y-19658577D01*
X22714863Y-19651434D01*
X22722006Y-19644291D01*
X22872006Y-19658577D02*
X22786291Y-19658577D01*
X22829148Y-19658577D02*
X22829148Y-19508577D01*
X22814863Y-19530006D01*
X22800577Y-19544291D01*
X22786291Y-19551434D01*
X22957720Y-19572863D02*
X22943434Y-19565720D01*
X22936291Y-19558577D01*
X22929148Y-19544291D01*
X22929148Y-19537149D01*
X22936291Y-19522863D01*
X22943434Y-19515720D01*
X22957720Y-19508577D01*
X22986291Y-19508577D01*
X23000577Y-19515720D01*
X23007720Y-19522863D01*
X23014863Y-19537149D01*
X23014863Y-19544291D01*
X23007720Y-19558577D01*
X23000577Y-19565720D01*
X22986291Y-19572863D01*
X22957720Y-19572863D01*
X22943434Y-19580006D01*
X22936291Y-19587149D01*
X22929148Y-19601434D01*
X22929148Y-19630006D01*
X22936291Y-19644291D01*
X22943434Y-19651434D01*
X22957720Y-19658577D01*
X22986291Y-19658577D01*
X23000577Y-19651434D01*
X23007720Y-19644291D01*
X23014863Y-19630006D01*
X23014863Y-19601434D01*
X23007720Y-19587149D01*
X23000577Y-19580006D01*
X22986291Y-19572863D01*
X23079148Y-19644291D02*
X23086291Y-19651434D01*
X23079148Y-19658577D01*
X23072006Y-19651434D01*
X23079148Y-19644291D01*
X23079148Y-19658577D01*
X23179148Y-19508577D02*
X23193434Y-19508577D01*
X23207720Y-19515720D01*
X23214863Y-19522863D01*
X23222006Y-19537149D01*
X23229148Y-19565720D01*
X23229148Y-19601434D01*
X23222006Y-19630006D01*
X23214863Y-19644291D01*
X23207720Y-19651434D01*
X23193434Y-19658577D01*
X23179148Y-19658577D01*
X23164863Y-19651434D01*
X23157720Y-19644291D01*
X23150577Y-19630006D01*
X23143434Y-19601434D01*
X23143434Y-19565720D01*
X23150577Y-19537149D01*
X23157720Y-19522863D01*
X23164863Y-19515720D01*
X23179148Y-19508577D01*
X23357720Y-19558577D02*
X23357720Y-19658577D01*
X23322006Y-19501434D02*
X23286291Y-19608577D01*
X23379148Y-19608577D01*
X23436291Y-19644291D02*
X23443434Y-19651434D01*
X23436291Y-19658577D01*
X23429148Y-19651434D01*
X23436291Y-19644291D01*
X23436291Y-19658577D01*
X23586291Y-19658577D02*
X23500577Y-19658577D01*
X23543434Y-19658577D02*
X23543434Y-19508577D01*
X23529148Y-19530006D01*
X23514863Y-19544291D01*
X23500577Y-19551434D01*
D10*
D11*
X17700220Y-19150720D02*
X28500220Y-19150720D01*
D10*
D12*
X26441148Y-19378577D02*
X26391148Y-19307149D01*
X26355434Y-19378577D02*
X26355434Y-19228577D01*
X26412577Y-19228577D01*
X26426863Y-19235720D01*
X26434006Y-19242863D01*
X26441148Y-19257149D01*
X26441148Y-19278577D01*
X26434006Y-19292863D01*
X26426863Y-19300006D01*
X26412577Y-19307149D01*
X26355434Y-19307149D01*
X26562577Y-19371434D02*
X26548291Y-19378577D01*
X26519720Y-19378577D01*
X26505434Y-19371434D01*
X26498291Y-19357149D01*
X26498291Y-19300006D01*
X26505434Y-19285720D01*
X26519720Y-19278577D01*
X26548291Y-19278577D01*
X26562577Y-19285720D01*
X26569720Y-19300006D01*
X26569720Y-19314291D01*
X26498291Y-19328577D01*
X26619720Y-19278577D02*
X26655434Y-19378577D01*
X26691148Y-19278577D01*
X26748291Y-19364291D02*
X26755434Y-19371434D01*
X26748291Y-19378577D01*
X26741148Y-19371434D01*
X26748291Y-19364291D01*
X26748291Y-19378577D01*
X26748291Y-19285720D02*
X26755434Y-19292863D01*
X26748291Y-19300006D01*
X26741148Y-19292863D01*
X26748291Y-19285720D01*
X26748291Y-19300006D01*
D10*
D11*
X17836291Y-19371434D02*
X17857720Y-19378577D01*
X17893434Y-19378577D01*
X17907720Y-19371434D01*
X17914863Y-19364291D01*
X17922006Y-19350006D01*
X17922006Y-19335720D01*
X17914863Y-19321434D01*
X17907720Y-19314291D01*
X17893434Y-19307149D01*
X17864863Y-19300006D01*
X17850577Y-19292863D01*
X17843434Y-19285720D01*
X17836291Y-19271434D01*
X17836291Y-19257149D01*
X17843434Y-19242863D01*
X17850577Y-19235720D01*
X17864863Y-19228577D01*
X17900577Y-19228577D01*
X17922006Y-19235720D01*
X17986291Y-19378577D02*
X17986291Y-19278577D01*
X17986291Y-19228577D02*
X17979149Y-19235720D01*
X17986291Y-19242863D01*
X17993434Y-19235720D01*
X17986291Y-19228577D01*
X17986291Y-19242863D01*
X18043434Y-19278577D02*
X18122006Y-19278577D01*
X18043434Y-19378577D01*
X18122006Y-19378577D01*
X18236291Y-19371434D02*
X18222006Y-19378577D01*
X18193434Y-19378577D01*
X18179149Y-19371434D01*
X18172006Y-19357149D01*
X18172006Y-19300006D01*
X18179149Y-19285720D01*
X18193434Y-19278577D01*
X18222006Y-19278577D01*
X18236291Y-19285720D01*
X18243434Y-19300006D01*
X18243434Y-19314291D01*
X18172006Y-19328577D01*
X18307720Y-19364291D02*
X18314863Y-19371434D01*
X18307720Y-19378577D01*
X18300577Y-19371434D01*
X18307720Y-19364291D01*
X18307720Y-19378577D01*
X18307720Y-19285720D02*
X18314863Y-19292863D01*
X18307720Y-19300006D01*
X18300577Y-19292863D01*
X18307720Y-19285720D01*
X18307720Y-19300006D01*
X18486291Y-19335720D02*
X18557720Y-19335720D01*
X18472006Y-19378577D02*
X18522006Y-19228577D01*
X18572006Y-19378577D01*
X18686291Y-19278577D02*
X18686291Y-19378577D01*
X18650577Y-19221434D02*
X18614863Y-19328577D01*
X18707720Y-19328577D01*
D10*
D11*
X26343434Y-19658577D02*
X26343434Y-19508577D01*
X26479148Y-19658577D02*
X26479148Y-19508577D01*
X26479148Y-19651434D02*
X26464863Y-19658577D01*
X26436291Y-19658577D01*
X26422006Y-19651434D01*
X26414863Y-19644291D01*
X26407720Y-19630006D01*
X26407720Y-19587149D01*
X26414863Y-19572863D01*
X26422006Y-19565720D01*
X26436291Y-19558577D01*
X26464863Y-19558577D01*
X26479148Y-19565720D01*
X26550577Y-19644291D02*
X26557720Y-19651434D01*
X26550577Y-19658577D01*
X26543434Y-19651434D01*
X26550577Y-19644291D01*
X26550577Y-19658577D01*
X26550577Y-19565720D02*
X26557720Y-19572863D01*
X26550577Y-19580006D01*
X26543434Y-19572863D01*
X26550577Y-19565720D01*
X26550577Y-19580006D01*
X26814863Y-19658577D02*
X26729148Y-19658577D01*
X26772006Y-19658577D02*
X26772006Y-19508577D01*
X26757720Y-19530006D01*
X26743434Y-19544291D01*
X26729148Y-19551434D01*
X26986291Y-19501434D02*
X26857720Y-19694291D01*
X27114863Y-19658577D02*
X27029148Y-19658577D01*
X27072006Y-19658577D02*
X27072006Y-19508577D01*
X27057720Y-19530006D01*
X27043434Y-19544291D01*
X27029148Y-19551434D01*
D10*
D11*
X17700220Y-18750720D02*
X28500220Y-18750720D01*
D10*
D13*
X17871458Y-18821196D02*
X17985744Y-18821196D01*
X17903601Y-19021196D02*
X17928601Y-18821196D01*
X18027410Y-19021196D02*
X18044077Y-18887863D01*
X18052410Y-18821196D02*
X18041696Y-18830720D01*
X18050030Y-18840244D01*
X18060744Y-18830720D01*
X18052410Y-18821196D01*
X18050030Y-18840244D01*
X18110744Y-18887863D02*
X18186934Y-18887863D01*
X18147649Y-18821196D02*
X18126220Y-18992625D01*
X18133363Y-19011672D01*
X18151220Y-19021196D01*
X18170268Y-19021196D01*
X18265506Y-19021196D02*
X18247649Y-19011672D01*
X18240506Y-18992625D01*
X18261934Y-18821196D01*
X18419077Y-19011672D02*
X18398839Y-19021196D01*
X18360744Y-19021196D01*
X18342887Y-19011672D01*
X18335744Y-18992625D01*
X18345268Y-18916434D01*
X18357172Y-18897387D01*
X18377410Y-18887863D01*
X18415506Y-18887863D01*
X18433363Y-18897387D01*
X18440506Y-18916434D01*
X18438125Y-18935482D01*
X18340506Y-18954530D01*
X18515506Y-19002149D02*
X18523839Y-19011672D01*
X18513125Y-19021196D01*
X18504791Y-19011672D01*
X18515506Y-19002149D01*
X18513125Y-19021196D01*
X18528601Y-18897387D02*
X18536934Y-18906910D01*
X18526220Y-18916434D01*
X18517887Y-18906910D01*
X18528601Y-18897387D01*
X18526220Y-18916434D01*
D10*
D11*
X17893434Y-18560006D02*
X17843434Y-18560006D01*
X17843434Y-18638577D02*
X17843434Y-18488577D01*
X17914863Y-18488577D01*
X17972006Y-18638577D02*
X17972006Y-18538577D01*
X17972006Y-18488577D02*
X17964863Y-18495720D01*
X17972006Y-18502863D01*
X17979149Y-18495720D01*
X17972006Y-18488577D01*
X17972006Y-18502863D01*
X18064863Y-18638577D02*
X18050577Y-18631434D01*
X18043434Y-18617149D01*
X18043434Y-18488577D01*
X18179149Y-18631434D02*
X18164863Y-18638577D01*
X18136291Y-18638577D01*
X18122006Y-18631434D01*
X18114863Y-18617149D01*
X18114863Y-18560006D01*
X18122006Y-18545720D01*
X18136291Y-18538577D01*
X18164863Y-18538577D01*
X18179149Y-18545720D01*
X18186291Y-18560006D01*
X18186291Y-18574291D01*
X18114863Y-18588577D01*
X18250577Y-18624291D02*
X18257720Y-18631434D01*
X18250577Y-18638577D01*
X18243434Y-18631434D01*
X18250577Y-18624291D01*
X18250577Y-18638577D01*
X18250577Y-18545720D02*
X18257720Y-18552863D01*
X18250577Y-18560006D01*
X18243434Y-18552863D01*
X18250577Y-18545720D01*
X18250577Y-18560006D01*
X18436291Y-18638577D02*
X18436291Y-18488577D01*
X18436291Y-18545720D02*
X18450577Y-18538577D01*
X18479149Y-18538577D01*
X18493434Y-18545720D01*
X18500577Y-18552863D01*
X18507720Y-18567149D01*
X18507720Y-18610006D01*
X18500577Y-18624291D01*
X18493434Y-18631434D01*
X18479149Y-18638577D01*
X18450577Y-18638577D01*
X18436291Y-18631434D01*
X18593434Y-18638577D02*
X18579149Y-18631434D01*
X18572006Y-18617149D01*
X18572006Y-18488577D01*
X18714863Y-18538577D02*
X18714863Y-18638577D01*
X18650577Y-18538577D02*
X18650577Y-18617149D01*
X18657720Y-18631434D01*
X18672006Y-18638577D01*
X18693434Y-18638577D01*
X18707720Y-18631434D01*
X18714863Y-18624291D01*
X18843434Y-18631434D02*
X18829149Y-18638577D01*
X18800577Y-18638577D01*
X18786291Y-18631434D01*
X18779149Y-18617149D01*
X18779149Y-18560006D01*
X18786291Y-18545720D01*
X18800577Y-18538577D01*
X18829149Y-18538577D01*
X18843434Y-18545720D01*
X18850577Y-18560006D01*
X18850577Y-18574291D01*
X18779149Y-18588577D01*
X18893434Y-18538577D02*
X18950577Y-18538577D01*
X18914863Y-18488577D02*
X18914863Y-18617149D01*
X18922006Y-18631434D01*
X18936291Y-18638577D01*
X18950577Y-18638577D01*
X19022006Y-18638577D02*
X19007720Y-18631434D01*
X19000577Y-18624291D01*
X18993434Y-18610006D01*
X18993434Y-18567149D01*
X19000577Y-18552863D01*
X19007720Y-18545720D01*
X19022006Y-18538577D01*
X19043434Y-18538577D01*
X19057720Y-18545720D01*
X19064863Y-18552863D01*
X19072006Y-18567149D01*
X19072006Y-18610006D01*
X19064863Y-18624291D01*
X19057720Y-18631434D01*
X19043434Y-18638577D01*
X19022006Y-18638577D01*
X19157720Y-18638577D02*
X19143434Y-18631434D01*
X19136291Y-18624291D01*
X19129149Y-18610006D01*
X19129149Y-18567149D01*
X19136291Y-18552863D01*
X19143434Y-18545720D01*
X19157720Y-18538577D01*
X19179149Y-18538577D01*
X19193434Y-18545720D01*
X19200577Y-18552863D01*
X19207720Y-18567149D01*
X19207720Y-18610006D01*
X19200577Y-18624291D01*
X19193434Y-18631434D01*
X19179149Y-18638577D01*
X19157720Y-18638577D01*
X19250577Y-18538577D02*
X19307720Y-18538577D01*
X19272006Y-18488577D02*
X19272006Y-18617149D01*
X19279149Y-18631434D01*
X19293434Y-18638577D01*
X19307720Y-18638577D01*
X19357720Y-18638577D02*
X19357720Y-18488577D01*
X19422006Y-18638577D02*
X19422006Y-18560006D01*
X19414863Y-18545720D01*
X19400577Y-18538577D01*
X19379149Y-18538577D01*
X19364863Y-18545720D01*
X19357720Y-18552863D01*
X19493434Y-18624291D02*
X19500577Y-18631434D01*
X19493434Y-18638577D01*
X19486291Y-18631434D01*
X19493434Y-18624291D01*
X19493434Y-18638577D01*
X19564863Y-18638577D02*
X19564863Y-18488577D01*
X19579149Y-18581434D02*
X19622006Y-18638577D01*
X19622006Y-18538577D02*
X19564863Y-18595720D01*
X19686291Y-18638577D02*
X19686291Y-18538577D01*
X19686291Y-18488577D02*
X19679149Y-18495720D01*
X19686291Y-18502863D01*
X19693434Y-18495720D01*
X19686291Y-18488577D01*
X19686291Y-18502863D01*
X19822006Y-18631434D02*
X19807720Y-18638577D01*
X19779149Y-18638577D01*
X19764863Y-18631434D01*
X19757720Y-18624291D01*
X19750577Y-18610006D01*
X19750577Y-18567149D01*
X19757720Y-18552863D01*
X19764863Y-18545720D01*
X19779149Y-18538577D01*
X19807720Y-18538577D01*
X19822006Y-18545720D01*
X19950577Y-18638577D02*
X19950577Y-18560006D01*
X19943434Y-18545720D01*
X19929149Y-18538577D01*
X19900577Y-18538577D01*
X19886291Y-18545720D01*
X19950577Y-18631434D02*
X19936291Y-18638577D01*
X19900577Y-18638577D01*
X19886291Y-18631434D01*
X19879149Y-18617149D01*
X19879149Y-18602863D01*
X19886291Y-18588577D01*
X19900577Y-18581434D01*
X19936291Y-18581434D01*
X19950577Y-18574291D01*
X20086291Y-18638577D02*
X20086291Y-18488577D01*
X20086291Y-18631434D02*
X20072006Y-18638577D01*
X20043434Y-18638577D01*
X20029149Y-18631434D01*
X20022006Y-18624291D01*
X20014863Y-18610006D01*
X20014863Y-18567149D01*
X20022006Y-18552863D01*
X20029149Y-18545720D01*
X20043434Y-18538577D01*
X20072006Y-18538577D01*
X20086291Y-18545720D01*
X20122006Y-18652863D02*
X20236291Y-18652863D01*
X20272006Y-18538577D02*
X20272006Y-18688577D01*
X20272006Y-18545720D02*
X20286291Y-18538577D01*
X20314863Y-18538577D01*
X20329149Y-18545720D01*
X20336291Y-18552863D01*
X20343434Y-18567149D01*
X20343434Y-18610006D01*
X20336291Y-18624291D01*
X20329149Y-18631434D01*
X20314863Y-18638577D01*
X20286291Y-18638577D01*
X20272006Y-18631434D01*
X20472006Y-18631434D02*
X20457720Y-18638577D01*
X20429149Y-18638577D01*
X20414863Y-18631434D01*
X20407720Y-18624291D01*
X20400577Y-18610006D01*
X20400577Y-18567149D01*
X20407720Y-18552863D01*
X20414863Y-18545720D01*
X20429149Y-18538577D01*
X20457720Y-18538577D01*
X20472006Y-18545720D01*
X20536291Y-18638577D02*
X20536291Y-18488577D01*
X20536291Y-18545720D02*
X20550577Y-18538577D01*
X20579149Y-18538577D01*
X20593434Y-18545720D01*
X20600577Y-18552863D01*
X20607720Y-18567149D01*
X20607720Y-18610006D01*
X20600577Y-18624291D01*
X20593434Y-18631434D01*
X20579149Y-18638577D01*
X20550577Y-18638577D01*
X20536291Y-18631434D01*
D10*
D11*
X17700220Y-18150720D02*
X28500220Y-18150720D01*
D10*
D11*
X17836291Y-18361434D02*
X17857720Y-18368577D01*
X17893434Y-18368577D01*
X17907720Y-18361434D01*
X17914863Y-18354291D01*
X17922006Y-18340006D01*
X17922006Y-18325720D01*
X17914863Y-18311434D01*
X17907720Y-18304291D01*
X17893434Y-18297149D01*
X17864863Y-18290006D01*
X17850577Y-18282863D01*
X17843434Y-18275720D01*
X17836291Y-18261434D01*
X17836291Y-18247149D01*
X17843434Y-18232863D01*
X17850577Y-18225720D01*
X17864863Y-18218577D01*
X17900577Y-18218577D01*
X17922006Y-18225720D01*
X17986291Y-18368577D02*
X17986291Y-18218577D01*
X18050577Y-18368577D02*
X18050577Y-18290006D01*
X18043434Y-18275720D01*
X18029149Y-18268577D01*
X18007720Y-18268577D01*
X17993434Y-18275720D01*
X17986291Y-18282863D01*
X18179149Y-18361434D02*
X18164863Y-18368577D01*
X18136291Y-18368577D01*
X18122006Y-18361434D01*
X18114863Y-18347149D01*
X18114863Y-18290006D01*
X18122006Y-18275720D01*
X18136291Y-18268577D01*
X18164863Y-18268577D01*
X18179149Y-18275720D01*
X18186291Y-18290006D01*
X18186291Y-18304291D01*
X18114863Y-18318577D01*
X18307720Y-18361434D02*
X18293434Y-18368577D01*
X18264863Y-18368577D01*
X18250577Y-18361434D01*
X18243434Y-18347149D01*
X18243434Y-18290006D01*
X18250577Y-18275720D01*
X18264863Y-18268577D01*
X18293434Y-18268577D01*
X18307720Y-18275720D01*
X18314863Y-18290006D01*
X18314863Y-18304291D01*
X18243434Y-18318577D01*
X18357720Y-18268577D02*
X18414863Y-18268577D01*
X18379149Y-18218577D02*
X18379149Y-18347149D01*
X18386291Y-18361434D01*
X18400577Y-18368577D01*
X18414863Y-18368577D01*
X18464863Y-18354291D02*
X18472006Y-18361434D01*
X18464863Y-18368577D01*
X18457720Y-18361434D01*
X18464863Y-18354291D01*
X18464863Y-18368577D01*
X18464863Y-18275720D02*
X18472006Y-18282863D01*
X18464863Y-18290006D01*
X18457720Y-18282863D01*
X18464863Y-18275720D01*
X18464863Y-18290006D01*
D10*
D11*
X19700220Y-19150720D02*
X19700220Y-19450720D01*
D10*
D11*
X26100220Y-19150720D02*
X26100220Y-19800720D01*
D14*
%TO.P,U102,1*%
%TO.N,Net-(U102-Pad1)*%
X14719181Y-10243419D03*
%TD*%
%TO.P,U26,GND*%
%TO.N,GND*%
X13449181Y-11519419D03*
%TD*%
%TO.P,U8,1*%
%TO.N,N/C*%
X13449181Y-11265419D03*
%TD*%
%TO.P,U33,1*%
%TO.N,N/C*%
X14719181Y-11265419D03*
%TD*%
%TO.P,U31,1*%
%TO.N,N/C*%
X15481181Y-10757419D03*
%TD*%
%TO.P,U25,1*%
%TO.N,N/C*%
X15222181Y-11513419D03*
%TD*%
%TO.P,U20,1*%
%TO.N,N/C*%
X15222181Y-10497419D03*
%TD*%
%TO.P,U19,1*%
%TO.N,N/C*%
X14719181Y-9741419D03*
%TD*%
%TO.P,U32,1*%
%TO.N,Net-(U32-Pad1)*%
X14973181Y-11519419D03*
%TD*%
%TO.P,U30,1*%
%TO.N,Net-(U30-Pad1)*%
X15227181Y-11265419D03*
%TD*%
%TO.P,U29,1*%
%TO.N,Net-(U29-Pad1)*%
X14719181Y-11519419D03*
%TD*%
%TO.P,U28,1*%
%TO.N,Net-(U28-Pad1)*%
X15476181Y-11513419D03*
%TD*%
%TO.P,U27,1*%
%TO.N,Net-(U27-Pad1)*%
X15476181Y-10497419D03*
%TD*%
%TO.P,U24,1*%
%TO.N,Net-(U24-Pad1)*%
X15735181Y-11265419D03*
%TD*%
%TO.P,U23,1*%
%TO.N,Net-(U23-Pad1)*%
X15481181Y-10249419D03*
%TD*%
%TO.P,U102,1*%
%TO.N,Net-(U102-Pad1)*%
X14968181Y-10243419D03*
%TD*%
%TO.P,U21,1*%
%TO.N,Net-(U21-Pad1)*%
X14968181Y-11259419D03*
%TD*%
%TO.P,U18,1*%
%TO.N,Net-(U18-Pad1)*%
X14991181Y-10494419D03*
%TD*%
%TO.P,U17,1*%
%TO.N,Net-(U17-Pad1)*%
X15222181Y-10751419D03*
%TD*%
%TO.P,U16,1*%
%TO.N,Net-(U16-Pad1)*%
X14968181Y-9735419D03*
%TD*%
%TO.P,U15,1*%
%TO.N,Net-(U15-Pad1)*%
X14714181Y-9481419D03*
%TD*%
%TO.P,U14,1*%
%TO.N,Net-(U14-Pad1)*%
X14714181Y-10751419D03*
%TD*%
%TO.P,U13,1*%
%TO.N,Net-(U13-Pad1)*%
X15222181Y-10243419D03*
%TD*%
%TO.P,U12,1*%
%TO.N,Net-(U12-Pad1)*%
X14968181Y-9481419D03*
%TD*%
%TO.P,U11,1*%
%TO.N,Net-(U11-Pad1)*%
X14968181Y-10751419D03*
%TD*%
%TO.P,U10,1*%
%TO.N,Net-(U10-Pad1)*%
X15222181Y-9735419D03*
%TD*%
%TO.P,U9,1*%
%TO.N,Net-(U9-Pad1)*%
X15476181Y-11259419D03*
%TD*%
%TO.P,U7,1*%
%TO.N,Net-(U7-Pad1)*%
X12687181Y-11265419D03*
%TD*%
%TO.P,U6,1*%
%TO.N,Net-(U6-Pad1)*%
X12682181Y-10497419D03*
%TD*%
%TO.P,U5,1*%
%TO.N,Net-(U5-Pad1)*%
X12687181Y-11011419D03*
%TD*%
%TO.P,U4,1*%
%TO.N,Net-(U4-Pad1)*%
X12687181Y-10249419D03*
%TD*%
%TO.P,U3,1*%
%TO.N,Net-(U3-Pad1)*%
X12682181Y-9989419D03*
%TD*%
%TO.P,U2,1*%
%TO.N,Net-(U2-Pad1)*%
X12687181Y-10749419D03*
%TD*%
%TO.P,U1,1*%
%TO.N,Net-(U1-Pad1)*%
X12687181Y-9749419D03*
%TD*%
D15*
%TO.N,*%
X14856778Y-10455875D03*
X14636783Y-10476465D03*
X14725811Y-10499285D03*
X14802331Y-10530188D03*
X13551681Y-10165102D03*
X14443239Y-10736585D03*
X13585319Y-11030826D03*
D16*
%TO.N,GND*%
X13834200Y-8929619D03*
X14195200Y-8854619D03*
X14180200Y-9234619D03*
X13855200Y-9238619D03*
X13840200Y-9411619D03*
X14185200Y-9418619D03*
X14361200Y-9012619D03*
X14363200Y-9125619D03*
X16316790Y-11979020D03*
X16316790Y-11279020D03*
X16216790Y-8279020D03*
X16016790Y-8279020D03*
X15816790Y-8279020D03*
X16416790Y-8879020D03*
X14275400Y-8264619D03*
X14199200Y-8264619D03*
X14199200Y-8340819D03*
X14199200Y-8417019D03*
X14199200Y-8493219D03*
X14199200Y-8569419D03*
X14199200Y-8645619D03*
D15*
X14143118Y-9830703D03*
X14265790Y-10802020D03*
X14139790Y-9941020D03*
D16*
X14580200Y-8264619D03*
X13818200Y-8569419D03*
X13818200Y-8645619D03*
X13742000Y-8264619D03*
X13665800Y-8264619D03*
X13589600Y-8264619D03*
X13513400Y-8264619D03*
X13361000Y-8264619D03*
X13284800Y-8264619D03*
X14732600Y-8264619D03*
X14808800Y-8264619D03*
X14885000Y-8264619D03*
X14961200Y-8264619D03*
X15037400Y-8264619D03*
X14351600Y-8264619D03*
X13437200Y-8264619D03*
X14504000Y-8264619D03*
X15113600Y-8264619D03*
X13818200Y-8264619D03*
X13818200Y-8340819D03*
X13818200Y-8417019D03*
X13818200Y-8493219D03*
X14656400Y-8264619D03*
X14427800Y-8264619D03*
X12370400Y-8340819D03*
X12370400Y-8569419D03*
X12370400Y-8798019D03*
X12751400Y-8340819D03*
X13132400Y-8340819D03*
X16416790Y-8279020D03*
X16416790Y-8579020D03*
X15916790Y-11979020D03*
X15516790Y-11979020D03*
X16316790Y-11679020D03*
X12370400Y-11922219D03*
X12370400Y-11465019D03*
X12827600Y-11922219D03*
X15189800Y-8264619D03*
X15266000Y-8264619D03*
X15342200Y-8264619D03*
X15418400Y-8264619D03*
D15*
X14303539Y-11300465D03*
X14566790Y-10784020D03*
X13058939Y-10728965D03*
X13443261Y-10175262D03*
X13536450Y-10586734D03*
X13058933Y-9649474D03*
X13067790Y-10192020D03*
X13545006Y-10848958D03*
X13141156Y-11218867D03*
X13058939Y-10924545D03*
X13069790Y-10550020D03*
X13973339Y-11206485D03*
X14443239Y-11300465D03*
X14443239Y-9649465D03*
X14418790Y-9937020D03*
X14117790Y-9652020D03*
X13862790Y-9644020D03*
X13625349Y-9649476D03*
X13340861Y-9911102D03*
X13211333Y-9649474D03*
X13361190Y-10007614D03*
X13361190Y-10093974D03*
X13198790Y-10567020D03*
X13548304Y-11396996D03*
X13464263Y-10979188D03*
X13019735Y-11112947D03*
X13292135Y-11594710D03*
X14477790Y-10833020D03*
X13753373Y-11184950D03*
X13218959Y-11076945D03*
X13656790Y-9745020D03*
D17*
X13773019Y-10677825D03*
X13773019Y-10557826D03*
X13773019Y-10437826D03*
X13773019Y-10317826D03*
X13893019Y-10677825D03*
X13893019Y-10557826D03*
X13893019Y-10437826D03*
X13893019Y-10317826D03*
X14013019Y-10677825D03*
X14013019Y-10557826D03*
X14013019Y-10437826D03*
X14013019Y-10317826D03*
X14133019Y-10677825D03*
X14133019Y-10557826D03*
X14133019Y-10437826D03*
X14133019Y-10317826D03*
D15*
X13718790Y-9812020D03*
X13854790Y-9802020D03*
X13882181Y-9943419D03*
%TD*%
D18*
%TO.N,*%
X14927069Y-10455875D02*
X14856778Y-10455875D01*
X14969019Y-10497825D02*
X14927069Y-10455875D01*
X14636783Y-10520492D02*
X14636783Y-10476465D01*
X14744187Y-10627896D02*
X14636783Y-10520492D01*
X15353090Y-10627896D02*
X14744187Y-10627896D01*
X15477019Y-10751825D02*
X15353090Y-10627896D01*
X14725811Y-10499285D02*
X14864285Y-10360811D01*
X15493876Y-10490497D02*
X15364190Y-10360811D01*
X15364190Y-10360811D02*
X14864285Y-10360811D01*
X14851594Y-10530188D02*
X14802331Y-10530188D01*
X14907092Y-10585686D02*
X14851594Y-10530188D01*
X15135159Y-10585686D02*
X14907092Y-10585686D01*
X15135159Y-10585686D02*
X15223019Y-10497825D01*
D19*
X13617739Y-10998407D02*
X13617739Y-10231160D01*
D20*
X14311288Y-10868537D02*
X14443239Y-10736585D01*
X13809110Y-11030826D02*
X13971399Y-10868537D01*
X14311288Y-10868537D02*
X13971399Y-10868537D01*
D19*
X13617739Y-10231160D02*
X13551681Y-10165102D01*
X13585319Y-11030826D02*
X13617739Y-10998407D01*
D20*
X13809110Y-11030826D02*
X13585319Y-11030826D01*
X13445019Y-11171127D02*
X13585319Y-11030826D01*
X13445019Y-11259825D02*
X13445019Y-11171127D01*
%TD*%
D21*
%TO.N,GND*%
G36*
X16435911Y-8189779D02*
G01*
X16435911Y-12032750D01*
X12263060Y-12032750D01*
X12263060Y-11508952D01*
X13342911Y-11508952D01*
X13342911Y-11529886D01*
X13346995Y-11550417D01*
X13355006Y-11569757D01*
X13366636Y-11587162D01*
X13381438Y-11601964D01*
X13398843Y-11613594D01*
X13418183Y-11621605D01*
X13438714Y-11625689D01*
X13459648Y-11625689D01*
X13480179Y-11621605D01*
X13499519Y-11613594D01*
X13516924Y-11601964D01*
X13531726Y-11587162D01*
X13543356Y-11569757D01*
X13551367Y-11550417D01*
X13555451Y-11529886D01*
X13555451Y-11508952D01*
X14612911Y-11508952D01*
X14612911Y-11529886D01*
X14616995Y-11550417D01*
X14625006Y-11569757D01*
X14636636Y-11587162D01*
X14651438Y-11601964D01*
X14668843Y-11613594D01*
X14688183Y-11621605D01*
X14708714Y-11625689D01*
X14729648Y-11625689D01*
X14750179Y-11621605D01*
X14769519Y-11613594D01*
X14786924Y-11601964D01*
X14801726Y-11587162D01*
X14813356Y-11569757D01*
X14821367Y-11550417D01*
X14825451Y-11529886D01*
X14825451Y-11508952D01*
X14866911Y-11508952D01*
X14866911Y-11529886D01*
X14870995Y-11550417D01*
X14879006Y-11569757D01*
X14890636Y-11587162D01*
X14905438Y-11601964D01*
X14922843Y-11613594D01*
X14942183Y-11621605D01*
X14962714Y-11625689D01*
X14983648Y-11625689D01*
X15004179Y-11621605D01*
X15023519Y-11613594D01*
X15040924Y-11601964D01*
X15055726Y-11587162D01*
X15067356Y-11569757D01*
X15075367Y-11550417D01*
X15079451Y-11529886D01*
X15079451Y-11508952D01*
X15078258Y-11502952D01*
X15115911Y-11502952D01*
X15115911Y-11523886D01*
X15119995Y-11544417D01*
X15128006Y-11563757D01*
X15139636Y-11581162D01*
X15154438Y-11595964D01*
X15171843Y-11607594D01*
X15191183Y-11615605D01*
X15211714Y-11619689D01*
X15232648Y-11619689D01*
X15253179Y-11615605D01*
X15272519Y-11607594D01*
X15289924Y-11595964D01*
X15304726Y-11581162D01*
X15316356Y-11563757D01*
X15324367Y-11544417D01*
X15328451Y-11523886D01*
X15328451Y-11502952D01*
X15369911Y-11502952D01*
X15369911Y-11523886D01*
X15373995Y-11544417D01*
X15382006Y-11563757D01*
X15393636Y-11581162D01*
X15408438Y-11595964D01*
X15425843Y-11607594D01*
X15445183Y-11615605D01*
X15465714Y-11619689D01*
X15486648Y-11619689D01*
X15507179Y-11615605D01*
X15526519Y-11607594D01*
X15543924Y-11595964D01*
X15558726Y-11581162D01*
X15570356Y-11563757D01*
X15578367Y-11544417D01*
X15582451Y-11523886D01*
X15582451Y-11502952D01*
X15578367Y-11482421D01*
X15570356Y-11463081D01*
X15558726Y-11445676D01*
X15543924Y-11430874D01*
X15526519Y-11419244D01*
X15507179Y-11411233D01*
X15486648Y-11407149D01*
X15465714Y-11407149D01*
X15445183Y-11411233D01*
X15425843Y-11419244D01*
X15408438Y-11430874D01*
X15393636Y-11445676D01*
X15382006Y-11463081D01*
X15373995Y-11482421D01*
X15369911Y-11502952D01*
X15328451Y-11502952D01*
X15324367Y-11482421D01*
X15316356Y-11463081D01*
X15304726Y-11445676D01*
X15289924Y-11430874D01*
X15272519Y-11419244D01*
X15253179Y-11411233D01*
X15232648Y-11407149D01*
X15211714Y-11407149D01*
X15191183Y-11411233D01*
X15171843Y-11419244D01*
X15154438Y-11430874D01*
X15139636Y-11445676D01*
X15128006Y-11463081D01*
X15119995Y-11482421D01*
X15115911Y-11502952D01*
X15078258Y-11502952D01*
X15075367Y-11488421D01*
X15067356Y-11469081D01*
X15055726Y-11451676D01*
X15040924Y-11436874D01*
X15023519Y-11425244D01*
X15004179Y-11417233D01*
X14983648Y-11413149D01*
X14962714Y-11413149D01*
X14942183Y-11417233D01*
X14922843Y-11425244D01*
X14905438Y-11436874D01*
X14890636Y-11451676D01*
X14879006Y-11469081D01*
X14870995Y-11488421D01*
X14866911Y-11508952D01*
X14825451Y-11508952D01*
X14821367Y-11488421D01*
X14813356Y-11469081D01*
X14801726Y-11451676D01*
X14786924Y-11436874D01*
X14769519Y-11425244D01*
X14750179Y-11417233D01*
X14729648Y-11413149D01*
X14708714Y-11413149D01*
X14688183Y-11417233D01*
X14668843Y-11425244D01*
X14651438Y-11436874D01*
X14636636Y-11451676D01*
X14625006Y-11469081D01*
X14616995Y-11488421D01*
X14612911Y-11508952D01*
X13555451Y-11508952D01*
X13551367Y-11488421D01*
X13543356Y-11469081D01*
X13531726Y-11451676D01*
X13516924Y-11436874D01*
X13499519Y-11425244D01*
X13480179Y-11417233D01*
X13459648Y-11413149D01*
X13438714Y-11413149D01*
X13418183Y-11417233D01*
X13398843Y-11425244D01*
X13381438Y-11436874D01*
X13366636Y-11451676D01*
X13355006Y-11469081D01*
X13346995Y-11488421D01*
X13342911Y-11508952D01*
X12263060Y-11508952D01*
X12263060Y-11254952D01*
X12580911Y-11254952D01*
X12580911Y-11275886D01*
X12584995Y-11296417D01*
X12593006Y-11315757D01*
X12604636Y-11333162D01*
X12619438Y-11347964D01*
X12636843Y-11359594D01*
X12656183Y-11367605D01*
X12676714Y-11371689D01*
X12697648Y-11371689D01*
X12718179Y-11367605D01*
X12737519Y-11359594D01*
X12754924Y-11347964D01*
X12769726Y-11333162D01*
X12781356Y-11315757D01*
X12789367Y-11296417D01*
X12793451Y-11275886D01*
X12793451Y-11254952D01*
X13342911Y-11254952D01*
X13342911Y-11275886D01*
X13346995Y-11296417D01*
X13355006Y-11315757D01*
X13366636Y-11333162D01*
X13381438Y-11347964D01*
X13398843Y-11359594D01*
X13418183Y-11367605D01*
X13438714Y-11371689D01*
X13459648Y-11371689D01*
X13480179Y-11367605D01*
X13499519Y-11359594D01*
X13516924Y-11347964D01*
X13531726Y-11333162D01*
X13543356Y-11315757D01*
X13551367Y-11296417D01*
X13555451Y-11275886D01*
X13555451Y-11254952D01*
X14612911Y-11254952D01*
X14612911Y-11275886D01*
X14616995Y-11296417D01*
X14625006Y-11315757D01*
X14636636Y-11333162D01*
X14651438Y-11347964D01*
X14668843Y-11359594D01*
X14688183Y-11367605D01*
X14708714Y-11371689D01*
X14729648Y-11371689D01*
X14750179Y-11367605D01*
X14769519Y-11359594D01*
X14786924Y-11347964D01*
X14801726Y-11333162D01*
X14813356Y-11315757D01*
X14821367Y-11296417D01*
X14825451Y-11275886D01*
X14825451Y-11254952D01*
X14824258Y-11248952D01*
X14861911Y-11248952D01*
X14861911Y-11269886D01*
X14865995Y-11290417D01*
X14874006Y-11309757D01*
X14885636Y-11327162D01*
X14900438Y-11341964D01*
X14917843Y-11353594D01*
X14937183Y-11361605D01*
X14957714Y-11365689D01*
X14978648Y-11365689D01*
X14999179Y-11361605D01*
X15018519Y-11353594D01*
X15035924Y-11341964D01*
X15050726Y-11327162D01*
X15062356Y-11309757D01*
X15070367Y-11290417D01*
X15074451Y-11269886D01*
X15074451Y-11254952D01*
X15120911Y-11254952D01*
X15120911Y-11275886D01*
X15124995Y-11296417D01*
X15133006Y-11315757D01*
X15144636Y-11333162D01*
X15159438Y-11347964D01*
X15176843Y-11359594D01*
X15196183Y-11367605D01*
X15216714Y-11371689D01*
X15237648Y-11371689D01*
X15258179Y-11367605D01*
X15277519Y-11359594D01*
X15294924Y-11347964D01*
X15309726Y-11333162D01*
X15321356Y-11315757D01*
X15329367Y-11296417D01*
X15333451Y-11275886D01*
X15333451Y-11254952D01*
X15332258Y-11248952D01*
X15369911Y-11248952D01*
X15369911Y-11269886D01*
X15373995Y-11290417D01*
X15382006Y-11309757D01*
X15393636Y-11327162D01*
X15408438Y-11341964D01*
X15425843Y-11353594D01*
X15445183Y-11361605D01*
X15465714Y-11365689D01*
X15486648Y-11365689D01*
X15507179Y-11361605D01*
X15526519Y-11353594D01*
X15543924Y-11341964D01*
X15558726Y-11327162D01*
X15570356Y-11309757D01*
X15578367Y-11290417D01*
X15582451Y-11269886D01*
X15582451Y-11254952D01*
X15628911Y-11254952D01*
X15628911Y-11275886D01*
X15632995Y-11296417D01*
X15641006Y-11315757D01*
X15652636Y-11333162D01*
X15667438Y-11347964D01*
X15684843Y-11359594D01*
X15704183Y-11367605D01*
X15724714Y-11371689D01*
X15745648Y-11371689D01*
X15766179Y-11367605D01*
X15785519Y-11359594D01*
X15802924Y-11347964D01*
X15817726Y-11333162D01*
X15829356Y-11315757D01*
X15837367Y-11296417D01*
X15841451Y-11275886D01*
X15841451Y-11254952D01*
X15837367Y-11234421D01*
X15829356Y-11215081D01*
X15817726Y-11197676D01*
X15802924Y-11182874D01*
X15785519Y-11171244D01*
X15766179Y-11163233D01*
X15745648Y-11159149D01*
X15724714Y-11159149D01*
X15704183Y-11163233D01*
X15684843Y-11171244D01*
X15667438Y-11182874D01*
X15652636Y-11197676D01*
X15641006Y-11215081D01*
X15632995Y-11234421D01*
X15628911Y-11254952D01*
X15582451Y-11254952D01*
X15582451Y-11248952D01*
X15578367Y-11228421D01*
X15570356Y-11209081D01*
X15558726Y-11191676D01*
X15543924Y-11176874D01*
X15526519Y-11165244D01*
X15507179Y-11157233D01*
X15486648Y-11153149D01*
X15465714Y-11153149D01*
X15445183Y-11157233D01*
X15425843Y-11165244D01*
X15408438Y-11176874D01*
X15393636Y-11191676D01*
X15382006Y-11209081D01*
X15373995Y-11228421D01*
X15369911Y-11248952D01*
X15332258Y-11248952D01*
X15329367Y-11234421D01*
X15321356Y-11215081D01*
X15309726Y-11197676D01*
X15294924Y-11182874D01*
X15277519Y-11171244D01*
X15258179Y-11163233D01*
X15237648Y-11159149D01*
X15216714Y-11159149D01*
X15196183Y-11163233D01*
X15176843Y-11171244D01*
X15159438Y-11182874D01*
X15144636Y-11197676D01*
X15133006Y-11215081D01*
X15124995Y-11234421D01*
X15120911Y-11254952D01*
X15074451Y-11254952D01*
X15074451Y-11248952D01*
X15070367Y-11228421D01*
X15062356Y-11209081D01*
X15050726Y-11191676D01*
X15035924Y-11176874D01*
X15018519Y-11165244D01*
X14999179Y-11157233D01*
X14978648Y-11153149D01*
X14957714Y-11153149D01*
X14937183Y-11157233D01*
X14917843Y-11165244D01*
X14900438Y-11176874D01*
X14885636Y-11191676D01*
X14874006Y-11209081D01*
X14865995Y-11228421D01*
X14861911Y-11248952D01*
X14824258Y-11248952D01*
X14821367Y-11234421D01*
X14813356Y-11215081D01*
X14801726Y-11197676D01*
X14786924Y-11182874D01*
X14769519Y-11171244D01*
X14750179Y-11163233D01*
X14729648Y-11159149D01*
X14708714Y-11159149D01*
X14688183Y-11163233D01*
X14668843Y-11171244D01*
X14651438Y-11182874D01*
X14636636Y-11197676D01*
X14625006Y-11215081D01*
X14616995Y-11234421D01*
X14612911Y-11254952D01*
X13555451Y-11254952D01*
X13551367Y-11234421D01*
X13543356Y-11215081D01*
X13531726Y-11197676D01*
X13517751Y-11183700D01*
X13600486Y-11100965D01*
X13606248Y-11099819D01*
X13619305Y-11094410D01*
X13624190Y-11091146D01*
X13806148Y-11091146D01*
X13809110Y-11091438D01*
X13812072Y-11091146D01*
X13812073Y-11091146D01*
X13820935Y-11090273D01*
X13832305Y-11086824D01*
X13842784Y-11081223D01*
X13851969Y-11073685D01*
X13853858Y-11071383D01*
X13996384Y-10928857D01*
X14308326Y-10928857D01*
X14311288Y-10929149D01*
X14314250Y-10928857D01*
X14314251Y-10928857D01*
X14323113Y-10927984D01*
X14334483Y-10924535D01*
X14344962Y-10918934D01*
X14354147Y-10911396D01*
X14356036Y-10909094D01*
X14458406Y-10806724D01*
X14464168Y-10805578D01*
X14477225Y-10800169D01*
X14488977Y-10792317D01*
X14498971Y-10782323D01*
X14506823Y-10770571D01*
X14512232Y-10757514D01*
X14514989Y-10743652D01*
X14514989Y-10729518D01*
X14512232Y-10715656D01*
X14506823Y-10702599D01*
X14498971Y-10690847D01*
X14488977Y-10680853D01*
X14477225Y-10673001D01*
X14464168Y-10667592D01*
X14450306Y-10664835D01*
X14436172Y-10664835D01*
X14422310Y-10667592D01*
X14409253Y-10673001D01*
X14397501Y-10680853D01*
X14387507Y-10690847D01*
X14379655Y-10702599D01*
X14374246Y-10715656D01*
X14373100Y-10721419D01*
X14286303Y-10808217D01*
X13974361Y-10808217D01*
X13971399Y-10807925D01*
X13968437Y-10808217D01*
X13968436Y-10808217D01*
X13959574Y-10809090D01*
X13948204Y-10812539D01*
X13943326Y-10815146D01*
X13937725Y-10818140D01*
X13933096Y-10821939D01*
X13928540Y-10825678D01*
X13926651Y-10827980D01*
X13784125Y-10970506D01*
X13671709Y-10970506D01*
X13671709Y-10469398D01*
X14565033Y-10469398D01*
X14565033Y-10483532D01*
X14567790Y-10497394D01*
X14573199Y-10510451D01*
X14581051Y-10522203D01*
X14588565Y-10529717D01*
X14588600Y-10530076D01*
X14589244Y-10532197D01*
X14591396Y-10539292D01*
X14595936Y-10547785D01*
X14602045Y-10555230D01*
X14603911Y-10556761D01*
X14694193Y-10647043D01*
X14683183Y-10649233D01*
X14663843Y-10657244D01*
X14646438Y-10668874D01*
X14631636Y-10683676D01*
X14620006Y-10701081D01*
X14611995Y-10720421D01*
X14607911Y-10740952D01*
X14607911Y-10761886D01*
X14611995Y-10782417D01*
X14620006Y-10801757D01*
X14631636Y-10819162D01*
X14646438Y-10833964D01*
X14663843Y-10845594D01*
X14683183Y-10853605D01*
X14703714Y-10857689D01*
X14724648Y-10857689D01*
X14745179Y-10853605D01*
X14764519Y-10845594D01*
X14781924Y-10833964D01*
X14796726Y-10819162D01*
X14808356Y-10801757D01*
X14816367Y-10782417D01*
X14820451Y-10761886D01*
X14820451Y-10740952D01*
X14816367Y-10720421D01*
X14808356Y-10701081D01*
X14796726Y-10683676D01*
X14789836Y-10676786D01*
X14892525Y-10676786D01*
X14885636Y-10683676D01*
X14874006Y-10701081D01*
X14865995Y-10720421D01*
X14861911Y-10740952D01*
X14861911Y-10761886D01*
X14865995Y-10782417D01*
X14874006Y-10801757D01*
X14885636Y-10819162D01*
X14900438Y-10833964D01*
X14917843Y-10845594D01*
X14937183Y-10853605D01*
X14957714Y-10857689D01*
X14978648Y-10857689D01*
X14999179Y-10853605D01*
X15018519Y-10845594D01*
X15035924Y-10833964D01*
X15050726Y-10819162D01*
X15062356Y-10801757D01*
X15070367Y-10782417D01*
X15074451Y-10761886D01*
X15074451Y-10740952D01*
X15070367Y-10720421D01*
X15062356Y-10701081D01*
X15050726Y-10683676D01*
X15043836Y-10676786D01*
X15146525Y-10676786D01*
X15139636Y-10683676D01*
X15128006Y-10701081D01*
X15119995Y-10720421D01*
X15115911Y-10740952D01*
X15115911Y-10761886D01*
X15119995Y-10782417D01*
X15128006Y-10801757D01*
X15139636Y-10819162D01*
X15154438Y-10833964D01*
X15171843Y-10845594D01*
X15191183Y-10853605D01*
X15211714Y-10857689D01*
X15232648Y-10857689D01*
X15253179Y-10853605D01*
X15272519Y-10845594D01*
X15289924Y-10833964D01*
X15304726Y-10819162D01*
X15316356Y-10801757D01*
X15324367Y-10782417D01*
X15328451Y-10761886D01*
X15328451Y-10740952D01*
X15324367Y-10720421D01*
X15316356Y-10701081D01*
X15304726Y-10683676D01*
X15297836Y-10676786D01*
X15332839Y-10676786D01*
X15380014Y-10723961D01*
X15378995Y-10726421D01*
X15374911Y-10746952D01*
X15374911Y-10767886D01*
X15378995Y-10788417D01*
X15387006Y-10807757D01*
X15398636Y-10825162D01*
X15413438Y-10839964D01*
X15430843Y-10851594D01*
X15450183Y-10859605D01*
X15470714Y-10863689D01*
X15491648Y-10863689D01*
X15512179Y-10859605D01*
X15531519Y-10851594D01*
X15548924Y-10839964D01*
X15563726Y-10825162D01*
X15575356Y-10807757D01*
X15583367Y-10788417D01*
X15587451Y-10767886D01*
X15587451Y-10746952D01*
X15583367Y-10726421D01*
X15575356Y-10707081D01*
X15563726Y-10689676D01*
X15548924Y-10674874D01*
X15531519Y-10663244D01*
X15512179Y-10655233D01*
X15491648Y-10651149D01*
X15470714Y-10651149D01*
X15450183Y-10655233D01*
X15449748Y-10655413D01*
X15389359Y-10595024D01*
X15387828Y-10593158D01*
X15380383Y-10587049D01*
X15371890Y-10582509D01*
X15362674Y-10579714D01*
X15355491Y-10579006D01*
X15353090Y-10578770D01*
X15350689Y-10579006D01*
X15290882Y-10579006D01*
X15304726Y-10565162D01*
X15316356Y-10547757D01*
X15324367Y-10528417D01*
X15328451Y-10507886D01*
X15328451Y-10486952D01*
X15324367Y-10466421D01*
X15316356Y-10447081D01*
X15304726Y-10429676D01*
X15289924Y-10414874D01*
X15282183Y-10409701D01*
X15343939Y-10409701D01*
X15381805Y-10447567D01*
X15373995Y-10466421D01*
X15369911Y-10486952D01*
X15369911Y-10507886D01*
X15373995Y-10528417D01*
X15382006Y-10547757D01*
X15393636Y-10565162D01*
X15408438Y-10579964D01*
X15425843Y-10591594D01*
X15445183Y-10599605D01*
X15465714Y-10603689D01*
X15486648Y-10603689D01*
X15507179Y-10599605D01*
X15526519Y-10591594D01*
X15543924Y-10579964D01*
X15558726Y-10565162D01*
X15570356Y-10547757D01*
X15578367Y-10528417D01*
X15582451Y-10507886D01*
X15582451Y-10486952D01*
X15578367Y-10466421D01*
X15570356Y-10447081D01*
X15558726Y-10429676D01*
X15543924Y-10414874D01*
X15526519Y-10403244D01*
X15507179Y-10395233D01*
X15486648Y-10391149D01*
X15465714Y-10391149D01*
X15464008Y-10391488D01*
X15400459Y-10327939D01*
X15398928Y-10326073D01*
X15391483Y-10319964D01*
X15382990Y-10315424D01*
X15373774Y-10312629D01*
X15366591Y-10311921D01*
X15364190Y-10311685D01*
X15361789Y-10311921D01*
X15303967Y-10311921D01*
X15304726Y-10311162D01*
X15316356Y-10293757D01*
X15324367Y-10274417D01*
X15328451Y-10253886D01*
X15328451Y-10238952D01*
X15374911Y-10238952D01*
X15374911Y-10259886D01*
X15378995Y-10280417D01*
X15387006Y-10299757D01*
X15398636Y-10317162D01*
X15413438Y-10331964D01*
X15430843Y-10343594D01*
X15450183Y-10351605D01*
X15470714Y-10355689D01*
X15491648Y-10355689D01*
X15512179Y-10351605D01*
X15531519Y-10343594D01*
X15548924Y-10331964D01*
X15563726Y-10317162D01*
X15575356Y-10299757D01*
X15583367Y-10280417D01*
X15587451Y-10259886D01*
X15587451Y-10238952D01*
X15583367Y-10218421D01*
X15575356Y-10199081D01*
X15563726Y-10181676D01*
X15548924Y-10166874D01*
X15531519Y-10155244D01*
X15512179Y-10147233D01*
X15491648Y-10143149D01*
X15470714Y-10143149D01*
X15450183Y-10147233D01*
X15430843Y-10155244D01*
X15413438Y-10166874D01*
X15398636Y-10181676D01*
X15387006Y-10199081D01*
X15378995Y-10218421D01*
X15374911Y-10238952D01*
X15328451Y-10238952D01*
X15328451Y-10232952D01*
X15324367Y-10212421D01*
X15316356Y-10193081D01*
X15304726Y-10175676D01*
X15289924Y-10160874D01*
X15272519Y-10149244D01*
X15253179Y-10141233D01*
X15232648Y-10137149D01*
X15211714Y-10137149D01*
X15191183Y-10141233D01*
X15171843Y-10149244D01*
X15154438Y-10160874D01*
X15139636Y-10175676D01*
X15128006Y-10193081D01*
X15119995Y-10212421D01*
X15115911Y-10232952D01*
X15115911Y-10253886D01*
X15119995Y-10274417D01*
X15128006Y-10293757D01*
X15139636Y-10311162D01*
X15140394Y-10311921D01*
X15049967Y-10311921D01*
X15050726Y-10311162D01*
X15062356Y-10293757D01*
X15070367Y-10274417D01*
X15074451Y-10253886D01*
X15074451Y-10232952D01*
X15070367Y-10212421D01*
X15062356Y-10193081D01*
X15050726Y-10175676D01*
X15035924Y-10160874D01*
X15018519Y-10149244D01*
X14999179Y-10141233D01*
X14978648Y-10137149D01*
X14957714Y-10137149D01*
X14937183Y-10141233D01*
X14917843Y-10149244D01*
X14900438Y-10160874D01*
X14885636Y-10175676D01*
X14874006Y-10193081D01*
X14865995Y-10212421D01*
X14861911Y-10232952D01*
X14861911Y-10253886D01*
X14865995Y-10274417D01*
X14874006Y-10293757D01*
X14885636Y-10311162D01*
X14886394Y-10311921D01*
X14866686Y-10311921D01*
X14864285Y-10311685D01*
X14854701Y-10312629D01*
X14851905Y-10313477D01*
X14845485Y-10315424D01*
X14836992Y-10319964D01*
X14829547Y-10326073D01*
X14828016Y-10327939D01*
X14728420Y-10427535D01*
X14718744Y-10427535D01*
X14704882Y-10430292D01*
X14694968Y-10434399D01*
X14692515Y-10430727D01*
X14682521Y-10420733D01*
X14670769Y-10412881D01*
X14657712Y-10407472D01*
X14643850Y-10404715D01*
X14629716Y-10404715D01*
X14615854Y-10407472D01*
X14602797Y-10412881D01*
X14591045Y-10420733D01*
X14581051Y-10430727D01*
X14573199Y-10442479D01*
X14567790Y-10455536D01*
X14565033Y-10469398D01*
X13671709Y-10469398D01*
X13671709Y-10233811D01*
X13671793Y-10232952D01*
X14612911Y-10232952D01*
X14612911Y-10253886D01*
X14616995Y-10274417D01*
X14625006Y-10293757D01*
X14636636Y-10311162D01*
X14651438Y-10325964D01*
X14668843Y-10337594D01*
X14688183Y-10345605D01*
X14708714Y-10349689D01*
X14729648Y-10349689D01*
X14750179Y-10345605D01*
X14769519Y-10337594D01*
X14786924Y-10325964D01*
X14801726Y-10311162D01*
X14813356Y-10293757D01*
X14821367Y-10274417D01*
X14825451Y-10253886D01*
X14825451Y-10232952D01*
X14821367Y-10212421D01*
X14813356Y-10193081D01*
X14801726Y-10175676D01*
X14786924Y-10160874D01*
X14769519Y-10149244D01*
X14750179Y-10141233D01*
X14729648Y-10137149D01*
X14708714Y-10137149D01*
X14688183Y-10141233D01*
X14668843Y-10149244D01*
X14651438Y-10160874D01*
X14636636Y-10175676D01*
X14625006Y-10193081D01*
X14616995Y-10212421D01*
X14612911Y-10232952D01*
X13671793Y-10232952D01*
X13671970Y-10231160D01*
X13671709Y-10228509D01*
X13670928Y-10220580D01*
X13667842Y-10210407D01*
X13662830Y-10201031D01*
X13656086Y-10192813D01*
X13654027Y-10191123D01*
X13623431Y-10160527D01*
X13623431Y-10158035D01*
X13620674Y-10144173D01*
X13615265Y-10131116D01*
X13607413Y-10119364D01*
X13597419Y-10109370D01*
X13585667Y-10101518D01*
X13572610Y-10096109D01*
X13558748Y-10093352D01*
X13544614Y-10093352D01*
X13530752Y-10096109D01*
X13517695Y-10101518D01*
X13505943Y-10109370D01*
X13495949Y-10119364D01*
X13488097Y-10131116D01*
X13482688Y-10144173D01*
X13479931Y-10158035D01*
X13479931Y-10172169D01*
X13482688Y-10186031D01*
X13488097Y-10199088D01*
X13495949Y-10210840D01*
X13505943Y-10220834D01*
X13517695Y-10228686D01*
X13530752Y-10234095D01*
X13544614Y-10236852D01*
X13547106Y-10236852D01*
X13563769Y-10253515D01*
X13563769Y-10962091D01*
X13551333Y-10967242D01*
X13539581Y-10975094D01*
X13529587Y-10985088D01*
X13521735Y-10996840D01*
X13516326Y-11009897D01*
X13515180Y-11015660D01*
X13404461Y-11126380D01*
X13402160Y-11128268D01*
X13400272Y-11130569D01*
X13400271Y-11130570D01*
X13394622Y-11137453D01*
X13389021Y-11147932D01*
X13385572Y-11159303D01*
X13385205Y-11163028D01*
X13384699Y-11168164D01*
X13384699Y-11168165D01*
X13384407Y-11171127D01*
X13384699Y-11174089D01*
X13384699Y-11180695D01*
X13381438Y-11182874D01*
X13366636Y-11197676D01*
X13355006Y-11215081D01*
X13346995Y-11234421D01*
X13342911Y-11254952D01*
X12793451Y-11254952D01*
X12789367Y-11234421D01*
X12781356Y-11215081D01*
X12769726Y-11197676D01*
X12754924Y-11182874D01*
X12737519Y-11171244D01*
X12718179Y-11163233D01*
X12697648Y-11159149D01*
X12676714Y-11159149D01*
X12656183Y-11163233D01*
X12636843Y-11171244D01*
X12619438Y-11182874D01*
X12604636Y-11197676D01*
X12593006Y-11215081D01*
X12584995Y-11234421D01*
X12580911Y-11254952D01*
X12263060Y-11254952D01*
X12263060Y-11000952D01*
X12580911Y-11000952D01*
X12580911Y-11021886D01*
X12584995Y-11042417D01*
X12593006Y-11061757D01*
X12604636Y-11079162D01*
X12619438Y-11093964D01*
X12636843Y-11105594D01*
X12656183Y-11113605D01*
X12676714Y-11117689D01*
X12697648Y-11117689D01*
X12718179Y-11113605D01*
X12737519Y-11105594D01*
X12754924Y-11093964D01*
X12769726Y-11079162D01*
X12781356Y-11061757D01*
X12789367Y-11042417D01*
X12793451Y-11021886D01*
X12793451Y-11000952D01*
X12789367Y-10980421D01*
X12781356Y-10961081D01*
X12769726Y-10943676D01*
X12754924Y-10928874D01*
X12737519Y-10917244D01*
X12718179Y-10909233D01*
X12697648Y-10905149D01*
X12676714Y-10905149D01*
X12656183Y-10909233D01*
X12636843Y-10917244D01*
X12619438Y-10928874D01*
X12604636Y-10943676D01*
X12593006Y-10961081D01*
X12584995Y-10980421D01*
X12580911Y-11000952D01*
X12263060Y-11000952D01*
X12263060Y-10738952D01*
X12580911Y-10738952D01*
X12580911Y-10759886D01*
X12584995Y-10780417D01*
X12593006Y-10799757D01*
X12604636Y-10817162D01*
X12619438Y-10831964D01*
X12636843Y-10843594D01*
X12656183Y-10851605D01*
X12676714Y-10855689D01*
X12697648Y-10855689D01*
X12718179Y-10851605D01*
X12737519Y-10843594D01*
X12754924Y-10831964D01*
X12769726Y-10817162D01*
X12781356Y-10799757D01*
X12789367Y-10780417D01*
X12793451Y-10759886D01*
X12793451Y-10738952D01*
X12789367Y-10718421D01*
X12781356Y-10699081D01*
X12769726Y-10681676D01*
X12754924Y-10666874D01*
X12737519Y-10655244D01*
X12718179Y-10647233D01*
X12697648Y-10643149D01*
X12676714Y-10643149D01*
X12656183Y-10647233D01*
X12636843Y-10655244D01*
X12619438Y-10666874D01*
X12604636Y-10681676D01*
X12593006Y-10699081D01*
X12584995Y-10718421D01*
X12580911Y-10738952D01*
X12263060Y-10738952D01*
X12263060Y-10486952D01*
X12575911Y-10486952D01*
X12575911Y-10507886D01*
X12579995Y-10528417D01*
X12588006Y-10547757D01*
X12599636Y-10565162D01*
X12614438Y-10579964D01*
X12631843Y-10591594D01*
X12651183Y-10599605D01*
X12671714Y-10603689D01*
X12692648Y-10603689D01*
X12713179Y-10599605D01*
X12732519Y-10591594D01*
X12749924Y-10579964D01*
X12764726Y-10565162D01*
X12776356Y-10547757D01*
X12784367Y-10528417D01*
X12788451Y-10507886D01*
X12788451Y-10486952D01*
X12784367Y-10466421D01*
X12776356Y-10447081D01*
X12764726Y-10429676D01*
X12749924Y-10414874D01*
X12732519Y-10403244D01*
X12713179Y-10395233D01*
X12692648Y-10391149D01*
X12671714Y-10391149D01*
X12651183Y-10395233D01*
X12631843Y-10403244D01*
X12614438Y-10414874D01*
X12599636Y-10429676D01*
X12588006Y-10447081D01*
X12579995Y-10466421D01*
X12575911Y-10486952D01*
X12263060Y-10486952D01*
X12263060Y-10238952D01*
X12580911Y-10238952D01*
X12580911Y-10259886D01*
X12584995Y-10280417D01*
X12593006Y-10299757D01*
X12604636Y-10317162D01*
X12619438Y-10331964D01*
X12636843Y-10343594D01*
X12656183Y-10351605D01*
X12676714Y-10355689D01*
X12697648Y-10355689D01*
X12718179Y-10351605D01*
X12737519Y-10343594D01*
X12754924Y-10331964D01*
X12769726Y-10317162D01*
X12781356Y-10299757D01*
X12789367Y-10280417D01*
X12793451Y-10259886D01*
X12793451Y-10238952D01*
X12789367Y-10218421D01*
X12781356Y-10199081D01*
X12769726Y-10181676D01*
X12754924Y-10166874D01*
X12737519Y-10155244D01*
X12718179Y-10147233D01*
X12697648Y-10143149D01*
X12676714Y-10143149D01*
X12656183Y-10147233D01*
X12636843Y-10155244D01*
X12619438Y-10166874D01*
X12604636Y-10181676D01*
X12593006Y-10199081D01*
X12584995Y-10218421D01*
X12580911Y-10238952D01*
X12263060Y-10238952D01*
X12263060Y-9978952D01*
X12575911Y-9978952D01*
X12575911Y-9999886D01*
X12579995Y-10020417D01*
X12588006Y-10039757D01*
X12599636Y-10057162D01*
X12614438Y-10071964D01*
X12631843Y-10083594D01*
X12651183Y-10091605D01*
X12671714Y-10095689D01*
X12692648Y-10095689D01*
X12713179Y-10091605D01*
X12732519Y-10083594D01*
X12749924Y-10071964D01*
X12764726Y-10057162D01*
X12776356Y-10039757D01*
X12784367Y-10020417D01*
X12788451Y-9999886D01*
X12788451Y-9978952D01*
X12784367Y-9958421D01*
X12776356Y-9939081D01*
X12764726Y-9921676D01*
X12749924Y-9906874D01*
X12732519Y-9895244D01*
X12713179Y-9887233D01*
X12692648Y-9883149D01*
X12671714Y-9883149D01*
X12651183Y-9887233D01*
X12631843Y-9895244D01*
X12614438Y-9906874D01*
X12599636Y-9921676D01*
X12588006Y-9939081D01*
X12579995Y-9958421D01*
X12575911Y-9978952D01*
X12263060Y-9978952D01*
X12263060Y-9738952D01*
X12580911Y-9738952D01*
X12580911Y-9759886D01*
X12584995Y-9780417D01*
X12593006Y-9799757D01*
X12604636Y-9817162D01*
X12619438Y-9831964D01*
X12636843Y-9843594D01*
X12656183Y-9851605D01*
X12676714Y-9855689D01*
X12697648Y-9855689D01*
X12718179Y-9851605D01*
X12737519Y-9843594D01*
X12754924Y-9831964D01*
X12769726Y-9817162D01*
X12781356Y-9799757D01*
X12789367Y-9780417D01*
X12793451Y-9759886D01*
X12793451Y-9738952D01*
X12791860Y-9730952D01*
X14612911Y-9730952D01*
X14612911Y-9751886D01*
X14616995Y-9772417D01*
X14625006Y-9791757D01*
X14636636Y-9809162D01*
X14651438Y-9823964D01*
X14668843Y-9835594D01*
X14688183Y-9843605D01*
X14708714Y-9847689D01*
X14729648Y-9847689D01*
X14750179Y-9843605D01*
X14769519Y-9835594D01*
X14786924Y-9823964D01*
X14801726Y-9809162D01*
X14813356Y-9791757D01*
X14821367Y-9772417D01*
X14825451Y-9751886D01*
X14825451Y-9730952D01*
X14824258Y-9724952D01*
X14861911Y-9724952D01*
X14861911Y-9745886D01*
X14865995Y-9766417D01*
X14874006Y-9785757D01*
X14885636Y-9803162D01*
X14900438Y-9817964D01*
X14917843Y-9829594D01*
X14937183Y-9837605D01*
X14957714Y-9841689D01*
X14978648Y-9841689D01*
X14999179Y-9837605D01*
X15018519Y-9829594D01*
X15035924Y-9817964D01*
X15050726Y-9803162D01*
X15062356Y-9785757D01*
X15070367Y-9766417D01*
X15074451Y-9745886D01*
X15074451Y-9724952D01*
X15115911Y-9724952D01*
X15115911Y-9745886D01*
X15119995Y-9766417D01*
X15128006Y-9785757D01*
X15139636Y-9803162D01*
X15154438Y-9817964D01*
X15171843Y-9829594D01*
X15191183Y-9837605D01*
X15211714Y-9841689D01*
X15232648Y-9841689D01*
X15253179Y-9837605D01*
X15272519Y-9829594D01*
X15289924Y-9817964D01*
X15304726Y-9803162D01*
X15316356Y-9785757D01*
X15324367Y-9766417D01*
X15328451Y-9745886D01*
X15328451Y-9724952D01*
X15324367Y-9704421D01*
X15316356Y-9685081D01*
X15304726Y-9667676D01*
X15289924Y-9652874D01*
X15272519Y-9641244D01*
X15253179Y-9633233D01*
X15232648Y-9629149D01*
X15211714Y-9629149D01*
X15191183Y-9633233D01*
X15171843Y-9641244D01*
X15154438Y-9652874D01*
X15139636Y-9667676D01*
X15128006Y-9685081D01*
X15119995Y-9704421D01*
X15115911Y-9724952D01*
X15074451Y-9724952D01*
X15070367Y-9704421D01*
X15062356Y-9685081D01*
X15050726Y-9667676D01*
X15035924Y-9652874D01*
X15018519Y-9641244D01*
X14999179Y-9633233D01*
X14978648Y-9629149D01*
X14957714Y-9629149D01*
X14937183Y-9633233D01*
X14917843Y-9641244D01*
X14900438Y-9652874D01*
X14885636Y-9667676D01*
X14874006Y-9685081D01*
X14865995Y-9704421D01*
X14861911Y-9724952D01*
X14824258Y-9724952D01*
X14821367Y-9710421D01*
X14813356Y-9691081D01*
X14801726Y-9673676D01*
X14786924Y-9658874D01*
X14769519Y-9647244D01*
X14750179Y-9639233D01*
X14729648Y-9635149D01*
X14708714Y-9635149D01*
X14688183Y-9639233D01*
X14668843Y-9647244D01*
X14651438Y-9658874D01*
X14636636Y-9673676D01*
X14625006Y-9691081D01*
X14616995Y-9710421D01*
X14612911Y-9730952D01*
X12791860Y-9730952D01*
X12789367Y-9718421D01*
X12781356Y-9699081D01*
X12769726Y-9681676D01*
X12754924Y-9666874D01*
X12737519Y-9655244D01*
X12718179Y-9647233D01*
X12697648Y-9643149D01*
X12676714Y-9643149D01*
X12656183Y-9647233D01*
X12636843Y-9655244D01*
X12619438Y-9666874D01*
X12604636Y-9681676D01*
X12593006Y-9699081D01*
X12584995Y-9718421D01*
X12580911Y-9738952D01*
X12263060Y-9738952D01*
X12263060Y-9470952D01*
X14607911Y-9470952D01*
X14607911Y-9491886D01*
X14611995Y-9512417D01*
X14620006Y-9531757D01*
X14631636Y-9549162D01*
X14646438Y-9563964D01*
X14663843Y-9575594D01*
X14683183Y-9583605D01*
X14703714Y-9587689D01*
X14724648Y-9587689D01*
X14745179Y-9583605D01*
X14764519Y-9575594D01*
X14781924Y-9563964D01*
X14796726Y-9549162D01*
X14808356Y-9531757D01*
X14816367Y-9512417D01*
X14820451Y-9491886D01*
X14820451Y-9470952D01*
X14861911Y-9470952D01*
X14861911Y-9491886D01*
X14865995Y-9512417D01*
X14874006Y-9531757D01*
X14885636Y-9549162D01*
X14900438Y-9563964D01*
X14917843Y-9575594D01*
X14937183Y-9583605D01*
X14957714Y-9587689D01*
X14978648Y-9587689D01*
X14999179Y-9583605D01*
X15018519Y-9575594D01*
X15035924Y-9563964D01*
X15050726Y-9549162D01*
X15062356Y-9531757D01*
X15070367Y-9512417D01*
X15074451Y-9491886D01*
X15074451Y-9470952D01*
X15070367Y-9450421D01*
X15062356Y-9431081D01*
X15050726Y-9413676D01*
X15035924Y-9398874D01*
X15018519Y-9387244D01*
X14999179Y-9379233D01*
X14978648Y-9375149D01*
X14957714Y-9375149D01*
X14937183Y-9379233D01*
X14917843Y-9387244D01*
X14900438Y-9398874D01*
X14885636Y-9413676D01*
X14874006Y-9431081D01*
X14865995Y-9450421D01*
X14861911Y-9470952D01*
X14820451Y-9470952D01*
X14816367Y-9450421D01*
X14808356Y-9431081D01*
X14796726Y-9413676D01*
X14781924Y-9398874D01*
X14764519Y-9387244D01*
X14745179Y-9379233D01*
X14724648Y-9375149D01*
X14703714Y-9375149D01*
X14683183Y-9379233D01*
X14663843Y-9387244D01*
X14646438Y-9398874D01*
X14631636Y-9413676D01*
X14620006Y-9431081D01*
X14611995Y-9450421D01*
X14607911Y-9470952D01*
X12263060Y-9470952D01*
X12263060Y-8189692D01*
X16435911Y-8189779D01*
X16435911Y-8189779D01*
G37*
X16435911Y-8189779D02*
X16435911Y-12032750D01*
X12263060Y-12032750D01*
X12263060Y-11508952D01*
X13342911Y-11508952D01*
X13342911Y-11529886D01*
X13346995Y-11550417D01*
X13355006Y-11569757D01*
X13366636Y-11587162D01*
X13381438Y-11601964D01*
X13398843Y-11613594D01*
X13418183Y-11621605D01*
X13438714Y-11625689D01*
X13459648Y-11625689D01*
X13480179Y-11621605D01*
X13499519Y-11613594D01*
X13516924Y-11601964D01*
X13531726Y-11587162D01*
X13543356Y-11569757D01*
X13551367Y-11550417D01*
X13555451Y-11529886D01*
X13555451Y-11508952D01*
X14612911Y-11508952D01*
X14612911Y-11529886D01*
X14616995Y-11550417D01*
X14625006Y-11569757D01*
X14636636Y-11587162D01*
X14651438Y-11601964D01*
X14668843Y-11613594D01*
X14688183Y-11621605D01*
X14708714Y-11625689D01*
X14729648Y-11625689D01*
X14750179Y-11621605D01*
X14769519Y-11613594D01*
X14786924Y-11601964D01*
X14801726Y-11587162D01*
X14813356Y-11569757D01*
X14821367Y-11550417D01*
X14825451Y-11529886D01*
X14825451Y-11508952D01*
X14866911Y-11508952D01*
X14866911Y-11529886D01*
X14870995Y-11550417D01*
X14879006Y-11569757D01*
X14890636Y-11587162D01*
X14905438Y-11601964D01*
X14922843Y-11613594D01*
X14942183Y-11621605D01*
X14962714Y-11625689D01*
X14983648Y-11625689D01*
X15004179Y-11621605D01*
X15023519Y-11613594D01*
X15040924Y-11601964D01*
X15055726Y-11587162D01*
X15067356Y-11569757D01*
X15075367Y-11550417D01*
X15079451Y-11529886D01*
X15079451Y-11508952D01*
X15078258Y-11502952D01*
X15115911Y-11502952D01*
X15115911Y-11523886D01*
X15119995Y-11544417D01*
X15128006Y-11563757D01*
X15139636Y-11581162D01*
X15154438Y-11595964D01*
X15171843Y-11607594D01*
X15191183Y-11615605D01*
X15211714Y-11619689D01*
X15232648Y-11619689D01*
X15253179Y-11615605D01*
X15272519Y-11607594D01*
X15289924Y-11595964D01*
X15304726Y-11581162D01*
X15316356Y-11563757D01*
X15324367Y-11544417D01*
X15328451Y-11523886D01*
X15328451Y-11502952D01*
X15369911Y-11502952D01*
X15369911Y-11523886D01*
X15373995Y-11544417D01*
X15382006Y-11563757D01*
X15393636Y-11581162D01*
X15408438Y-11595964D01*
X15425843Y-11607594D01*
X15445183Y-11615605D01*
X15465714Y-11619689D01*
X15486648Y-11619689D01*
X15507179Y-11615605D01*
X15526519Y-11607594D01*
X15543924Y-11595964D01*
X15558726Y-11581162D01*
X15570356Y-11563757D01*
X15578367Y-11544417D01*
X15582451Y-11523886D01*
X15582451Y-11502952D01*
X15578367Y-11482421D01*
X15570356Y-11463081D01*
X15558726Y-11445676D01*
X15543924Y-11430874D01*
X15526519Y-11419244D01*
X15507179Y-11411233D01*
X15486648Y-11407149D01*
X15465714Y-11407149D01*
X15445183Y-11411233D01*
X15425843Y-11419244D01*
X15408438Y-11430874D01*
X15393636Y-11445676D01*
X15382006Y-11463081D01*
X15373995Y-11482421D01*
X15369911Y-11502952D01*
X15328451Y-11502952D01*
X15324367Y-11482421D01*
X15316356Y-11463081D01*
X15304726Y-11445676D01*
X15289924Y-11430874D01*
X15272519Y-11419244D01*
X15253179Y-11411233D01*
X15232648Y-11407149D01*
X15211714Y-11407149D01*
X15191183Y-11411233D01*
X15171843Y-11419244D01*
X15154438Y-11430874D01*
X15139636Y-11445676D01*
X15128006Y-11463081D01*
X15119995Y-11482421D01*
X15115911Y-11502952D01*
X15078258Y-11502952D01*
X15075367Y-11488421D01*
X15067356Y-11469081D01*
X15055726Y-11451676D01*
X15040924Y-11436874D01*
X15023519Y-11425244D01*
X15004179Y-11417233D01*
X14983648Y-11413149D01*
X14962714Y-11413149D01*
X14942183Y-11417233D01*
X14922843Y-11425244D01*
X14905438Y-11436874D01*
X14890636Y-11451676D01*
X14879006Y-11469081D01*
X14870995Y-11488421D01*
X14866911Y-11508952D01*
X14825451Y-11508952D01*
X14821367Y-11488421D01*
X14813356Y-11469081D01*
X14801726Y-11451676D01*
X14786924Y-11436874D01*
X14769519Y-11425244D01*
X14750179Y-11417233D01*
X14729648Y-11413149D01*
X14708714Y-11413149D01*
X14688183Y-11417233D01*
X14668843Y-11425244D01*
X14651438Y-11436874D01*
X14636636Y-11451676D01*
X14625006Y-11469081D01*
X14616995Y-11488421D01*
X14612911Y-11508952D01*
X13555451Y-11508952D01*
X13551367Y-11488421D01*
X13543356Y-11469081D01*
X13531726Y-11451676D01*
X13516924Y-11436874D01*
X13499519Y-11425244D01*
X13480179Y-11417233D01*
X13459648Y-11413149D01*
X13438714Y-11413149D01*
X13418183Y-11417233D01*
X13398843Y-11425244D01*
X13381438Y-11436874D01*
X13366636Y-11451676D01*
X13355006Y-11469081D01*
X13346995Y-11488421D01*
X13342911Y-11508952D01*
X12263060Y-11508952D01*
X12263060Y-11254952D01*
X12580911Y-11254952D01*
X12580911Y-11275886D01*
X12584995Y-11296417D01*
X12593006Y-11315757D01*
X12604636Y-11333162D01*
X12619438Y-11347964D01*
X12636843Y-11359594D01*
X12656183Y-11367605D01*
X12676714Y-11371689D01*
X12697648Y-11371689D01*
X12718179Y-11367605D01*
X12737519Y-11359594D01*
X12754924Y-11347964D01*
X12769726Y-11333162D01*
X12781356Y-11315757D01*
X12789367Y-11296417D01*
X12793451Y-11275886D01*
X12793451Y-11254952D01*
X13342911Y-11254952D01*
X13342911Y-11275886D01*
X13346995Y-11296417D01*
X13355006Y-11315757D01*
X13366636Y-11333162D01*
X13381438Y-11347964D01*
X13398843Y-11359594D01*
X13418183Y-11367605D01*
X13438714Y-11371689D01*
X13459648Y-11371689D01*
X13480179Y-11367605D01*
X13499519Y-11359594D01*
X13516924Y-11347964D01*
X13531726Y-11333162D01*
X13543356Y-11315757D01*
X13551367Y-11296417D01*
X13555451Y-11275886D01*
X13555451Y-11254952D01*
X14612911Y-11254952D01*
X14612911Y-11275886D01*
X14616995Y-11296417D01*
X14625006Y-11315757D01*
X14636636Y-11333162D01*
X14651438Y-11347964D01*
X14668843Y-11359594D01*
X14688183Y-11367605D01*
X14708714Y-11371689D01*
X14729648Y-11371689D01*
X14750179Y-11367605D01*
X14769519Y-11359594D01*
X14786924Y-11347964D01*
X14801726Y-11333162D01*
X14813356Y-11315757D01*
X14821367Y-11296417D01*
X14825451Y-11275886D01*
X14825451Y-11254952D01*
X14824258Y-11248952D01*
X14861911Y-11248952D01*
X14861911Y-11269886D01*
X14865995Y-11290417D01*
X14874006Y-11309757D01*
X14885636Y-11327162D01*
X14900438Y-11341964D01*
X14917843Y-11353594D01*
X14937183Y-11361605D01*
X14957714Y-11365689D01*
X14978648Y-11365689D01*
X14999179Y-11361605D01*
X15018519Y-11353594D01*
X15035924Y-11341964D01*
X15050726Y-11327162D01*
X15062356Y-11309757D01*
X15070367Y-11290417D01*
X15074451Y-11269886D01*
X15074451Y-11254952D01*
X15120911Y-11254952D01*
X15120911Y-11275886D01*
X15124995Y-11296417D01*
X15133006Y-11315757D01*
X15144636Y-11333162D01*
X15159438Y-11347964D01*
X15176843Y-11359594D01*
X15196183Y-11367605D01*
X15216714Y-11371689D01*
X15237648Y-11371689D01*
X15258179Y-11367605D01*
X15277519Y-11359594D01*
X15294924Y-11347964D01*
X15309726Y-11333162D01*
X15321356Y-11315757D01*
X15329367Y-11296417D01*
X15333451Y-11275886D01*
X15333451Y-11254952D01*
X15332258Y-11248952D01*
X15369911Y-11248952D01*
X15369911Y-11269886D01*
X15373995Y-11290417D01*
X15382006Y-11309757D01*
X15393636Y-11327162D01*
X15408438Y-11341964D01*
X15425843Y-11353594D01*
X15445183Y-11361605D01*
X15465714Y-11365689D01*
X15486648Y-11365689D01*
X15507179Y-11361605D01*
X15526519Y-11353594D01*
X15543924Y-11341964D01*
X15558726Y-11327162D01*
X15570356Y-11309757D01*
X15578367Y-11290417D01*
X15582451Y-11269886D01*
X15582451Y-11254952D01*
X15628911Y-11254952D01*
X15628911Y-11275886D01*
X15632995Y-11296417D01*
X15641006Y-11315757D01*
X15652636Y-11333162D01*
X15667438Y-11347964D01*
X15684843Y-11359594D01*
X15704183Y-11367605D01*
X15724714Y-11371689D01*
X15745648Y-11371689D01*
X15766179Y-11367605D01*
X15785519Y-11359594D01*
X15802924Y-11347964D01*
X15817726Y-11333162D01*
X15829356Y-11315757D01*
X15837367Y-11296417D01*
X15841451Y-11275886D01*
X15841451Y-11254952D01*
X15837367Y-11234421D01*
X15829356Y-11215081D01*
X15817726Y-11197676D01*
X15802924Y-11182874D01*
X15785519Y-11171244D01*
X15766179Y-11163233D01*
X15745648Y-11159149D01*
X15724714Y-11159149D01*
X15704183Y-11163233D01*
X15684843Y-11171244D01*
X15667438Y-11182874D01*
X15652636Y-11197676D01*
X15641006Y-11215081D01*
X15632995Y-11234421D01*
X15628911Y-11254952D01*
X15582451Y-11254952D01*
X15582451Y-11248952D01*
X15578367Y-11228421D01*
X15570356Y-11209081D01*
X15558726Y-11191676D01*
X15543924Y-11176874D01*
X15526519Y-11165244D01*
X15507179Y-11157233D01*
X15486648Y-11153149D01*
X15465714Y-11153149D01*
X15445183Y-11157233D01*
X15425843Y-11165244D01*
X15408438Y-11176874D01*
X15393636Y-11191676D01*
X15382006Y-11209081D01*
X15373995Y-11228421D01*
X15369911Y-11248952D01*
X15332258Y-11248952D01*
X15329367Y-11234421D01*
X15321356Y-11215081D01*
X15309726Y-11197676D01*
X15294924Y-11182874D01*
X15277519Y-11171244D01*
X15258179Y-11163233D01*
X15237648Y-11159149D01*
X15216714Y-11159149D01*
X15196183Y-11163233D01*
X15176843Y-11171244D01*
X15159438Y-11182874D01*
X15144636Y-11197676D01*
X15133006Y-11215081D01*
X15124995Y-11234421D01*
X15120911Y-11254952D01*
X15074451Y-11254952D01*
X15074451Y-11248952D01*
X15070367Y-11228421D01*
X15062356Y-11209081D01*
X15050726Y-11191676D01*
X15035924Y-11176874D01*
X15018519Y-11165244D01*
X14999179Y-11157233D01*
X14978648Y-11153149D01*
X14957714Y-11153149D01*
X14937183Y-11157233D01*
X14917843Y-11165244D01*
X14900438Y-11176874D01*
X14885636Y-11191676D01*
X14874006Y-11209081D01*
X14865995Y-11228421D01*
X14861911Y-11248952D01*
X14824258Y-11248952D01*
X14821367Y-11234421D01*
X14813356Y-11215081D01*
X14801726Y-11197676D01*
X14786924Y-11182874D01*
X14769519Y-11171244D01*
X14750179Y-11163233D01*
X14729648Y-11159149D01*
X14708714Y-11159149D01*
X14688183Y-11163233D01*
X14668843Y-11171244D01*
X14651438Y-11182874D01*
X14636636Y-11197676D01*
X14625006Y-11215081D01*
X14616995Y-11234421D01*
X14612911Y-11254952D01*
X13555451Y-11254952D01*
X13551367Y-11234421D01*
X13543356Y-11215081D01*
X13531726Y-11197676D01*
X13517751Y-11183700D01*
X13600486Y-11100965D01*
X13606248Y-11099819D01*
X13619305Y-11094410D01*
X13624190Y-11091146D01*
X13806148Y-11091146D01*
X13809110Y-11091438D01*
X13812072Y-11091146D01*
X13812073Y-11091146D01*
X13820935Y-11090273D01*
X13832305Y-11086824D01*
X13842784Y-11081223D01*
X13851969Y-11073685D01*
X13853858Y-11071383D01*
X13996384Y-10928857D01*
X14308326Y-10928857D01*
X14311288Y-10929149D01*
X14314250Y-10928857D01*
X14314251Y-10928857D01*
X14323113Y-10927984D01*
X14334483Y-10924535D01*
X14344962Y-10918934D01*
X14354147Y-10911396D01*
X14356036Y-10909094D01*
X14458406Y-10806724D01*
X14464168Y-10805578D01*
X14477225Y-10800169D01*
X14488977Y-10792317D01*
X14498971Y-10782323D01*
X14506823Y-10770571D01*
X14512232Y-10757514D01*
X14514989Y-10743652D01*
X14514989Y-10729518D01*
X14512232Y-10715656D01*
X14506823Y-10702599D01*
X14498971Y-10690847D01*
X14488977Y-10680853D01*
X14477225Y-10673001D01*
X14464168Y-10667592D01*
X14450306Y-10664835D01*
X14436172Y-10664835D01*
X14422310Y-10667592D01*
X14409253Y-10673001D01*
X14397501Y-10680853D01*
X14387507Y-10690847D01*
X14379655Y-10702599D01*
X14374246Y-10715656D01*
X14373100Y-10721419D01*
X14286303Y-10808217D01*
X13974361Y-10808217D01*
X13971399Y-10807925D01*
X13968437Y-10808217D01*
X13968436Y-10808217D01*
X13959574Y-10809090D01*
X13948204Y-10812539D01*
X13943326Y-10815146D01*
X13937725Y-10818140D01*
X13933096Y-10821939D01*
X13928540Y-10825678D01*
X13926651Y-10827980D01*
X13784125Y-10970506D01*
X13671709Y-10970506D01*
X13671709Y-10469398D01*
X14565033Y-10469398D01*
X14565033Y-10483532D01*
X14567790Y-10497394D01*
X14573199Y-10510451D01*
X14581051Y-10522203D01*
X14588565Y-10529717D01*
X14588600Y-10530076D01*
X14589244Y-10532197D01*
X14591396Y-10539292D01*
X14595936Y-10547785D01*
X14602045Y-10555230D01*
X14603911Y-10556761D01*
X14694193Y-10647043D01*
X14683183Y-10649233D01*
X14663843Y-10657244D01*
X14646438Y-10668874D01*
X14631636Y-10683676D01*
X14620006Y-10701081D01*
X14611995Y-10720421D01*
X14607911Y-10740952D01*
X14607911Y-10761886D01*
X14611995Y-10782417D01*
X14620006Y-10801757D01*
X14631636Y-10819162D01*
X14646438Y-10833964D01*
X14663843Y-10845594D01*
X14683183Y-10853605D01*
X14703714Y-10857689D01*
X14724648Y-10857689D01*
X14745179Y-10853605D01*
X14764519Y-10845594D01*
X14781924Y-10833964D01*
X14796726Y-10819162D01*
X14808356Y-10801757D01*
X14816367Y-10782417D01*
X14820451Y-10761886D01*
X14820451Y-10740952D01*
X14816367Y-10720421D01*
X14808356Y-10701081D01*
X14796726Y-10683676D01*
X14789836Y-10676786D01*
X14892525Y-10676786D01*
X14885636Y-10683676D01*
X14874006Y-10701081D01*
X14865995Y-10720421D01*
X14861911Y-10740952D01*
X14861911Y-10761886D01*
X14865995Y-10782417D01*
X14874006Y-10801757D01*
X14885636Y-10819162D01*
X14900438Y-10833964D01*
X14917843Y-10845594D01*
X14937183Y-10853605D01*
X14957714Y-10857689D01*
X14978648Y-10857689D01*
X14999179Y-10853605D01*
X15018519Y-10845594D01*
X15035924Y-10833964D01*
X15050726Y-10819162D01*
X15062356Y-10801757D01*
X15070367Y-10782417D01*
X15074451Y-10761886D01*
X15074451Y-10740952D01*
X15070367Y-10720421D01*
X15062356Y-10701081D01*
X15050726Y-10683676D01*
X15043836Y-10676786D01*
X15146525Y-10676786D01*
X15139636Y-10683676D01*
X15128006Y-10701081D01*
X15119995Y-10720421D01*
X15115911Y-10740952D01*
X15115911Y-10761886D01*
X15119995Y-10782417D01*
X15128006Y-10801757D01*
X15139636Y-10819162D01*
X15154438Y-10833964D01*
X15171843Y-10845594D01*
X15191183Y-10853605D01*
X15211714Y-10857689D01*
X15232648Y-10857689D01*
X15253179Y-10853605D01*
X15272519Y-10845594D01*
X15289924Y-10833964D01*
X15304726Y-10819162D01*
X15316356Y-10801757D01*
X15324367Y-10782417D01*
X15328451Y-10761886D01*
X15328451Y-10740952D01*
X15324367Y-10720421D01*
X15316356Y-10701081D01*
X15304726Y-10683676D01*
X15297836Y-10676786D01*
X15332839Y-10676786D01*
X15380014Y-10723961D01*
X15378995Y-10726421D01*
X15374911Y-10746952D01*
X15374911Y-10767886D01*
X15378995Y-10788417D01*
X15387006Y-10807757D01*
X15398636Y-10825162D01*
X15413438Y-10839964D01*
X15430843Y-10851594D01*
X15450183Y-10859605D01*
X15470714Y-10863689D01*
X15491648Y-10863689D01*
X15512179Y-10859605D01*
X15531519Y-10851594D01*
X15548924Y-10839964D01*
X15563726Y-10825162D01*
X15575356Y-10807757D01*
X15583367Y-10788417D01*
X15587451Y-10767886D01*
X15587451Y-10746952D01*
X15583367Y-10726421D01*
X15575356Y-10707081D01*
X15563726Y-10689676D01*
X15548924Y-10674874D01*
X15531519Y-10663244D01*
X15512179Y-10655233D01*
X15491648Y-10651149D01*
X15470714Y-10651149D01*
X15450183Y-10655233D01*
X15449748Y-10655413D01*
X15389359Y-10595024D01*
X15387828Y-10593158D01*
X15380383Y-10587049D01*
X15371890Y-10582509D01*
X15362674Y-10579714D01*
X15355491Y-10579006D01*
X15353090Y-10578770D01*
X15350689Y-10579006D01*
X15290882Y-10579006D01*
X15304726Y-10565162D01*
X15316356Y-10547757D01*
X15324367Y-10528417D01*
X15328451Y-10507886D01*
X15328451Y-10486952D01*
X15324367Y-10466421D01*
X15316356Y-10447081D01*
X15304726Y-10429676D01*
X15289924Y-10414874D01*
X15282183Y-10409701D01*
X15343939Y-10409701D01*
X15381805Y-10447567D01*
X15373995Y-10466421D01*
X15369911Y-10486952D01*
X15369911Y-10507886D01*
X15373995Y-10528417D01*
X15382006Y-10547757D01*
X15393636Y-10565162D01*
X15408438Y-10579964D01*
X15425843Y-10591594D01*
X15445183Y-10599605D01*
X15465714Y-10603689D01*
X15486648Y-10603689D01*
X15507179Y-10599605D01*
X15526519Y-10591594D01*
X15543924Y-10579964D01*
X15558726Y-10565162D01*
X15570356Y-10547757D01*
X15578367Y-10528417D01*
X15582451Y-10507886D01*
X15582451Y-10486952D01*
X15578367Y-10466421D01*
X15570356Y-10447081D01*
X15558726Y-10429676D01*
X15543924Y-10414874D01*
X15526519Y-10403244D01*
X15507179Y-10395233D01*
X15486648Y-10391149D01*
X15465714Y-10391149D01*
X15464008Y-10391488D01*
X15400459Y-10327939D01*
X15398928Y-10326073D01*
X15391483Y-10319964D01*
X15382990Y-10315424D01*
X15373774Y-10312629D01*
X15366591Y-10311921D01*
X15364190Y-10311685D01*
X15361789Y-10311921D01*
X15303967Y-10311921D01*
X15304726Y-10311162D01*
X15316356Y-10293757D01*
X15324367Y-10274417D01*
X15328451Y-10253886D01*
X15328451Y-10238952D01*
X15374911Y-10238952D01*
X15374911Y-10259886D01*
X15378995Y-10280417D01*
X15387006Y-10299757D01*
X15398636Y-10317162D01*
X15413438Y-10331964D01*
X15430843Y-10343594D01*
X15450183Y-10351605D01*
X15470714Y-10355689D01*
X15491648Y-10355689D01*
X15512179Y-10351605D01*
X15531519Y-10343594D01*
X15548924Y-10331964D01*
X15563726Y-10317162D01*
X15575356Y-10299757D01*
X15583367Y-10280417D01*
X15587451Y-10259886D01*
X15587451Y-10238952D01*
X15583367Y-10218421D01*
X15575356Y-10199081D01*
X15563726Y-10181676D01*
X15548924Y-10166874D01*
X15531519Y-10155244D01*
X15512179Y-10147233D01*
X15491648Y-10143149D01*
X15470714Y-10143149D01*
X15450183Y-10147233D01*
X15430843Y-10155244D01*
X15413438Y-10166874D01*
X15398636Y-10181676D01*
X15387006Y-10199081D01*
X15378995Y-10218421D01*
X15374911Y-10238952D01*
X15328451Y-10238952D01*
X15328451Y-10232952D01*
X15324367Y-10212421D01*
X15316356Y-10193081D01*
X15304726Y-10175676D01*
X15289924Y-10160874D01*
X15272519Y-10149244D01*
X15253179Y-10141233D01*
X15232648Y-10137149D01*
X15211714Y-10137149D01*
X15191183Y-10141233D01*
X15171843Y-10149244D01*
X15154438Y-10160874D01*
X15139636Y-10175676D01*
X15128006Y-10193081D01*
X15119995Y-10212421D01*
X15115911Y-10232952D01*
X15115911Y-10253886D01*
X15119995Y-10274417D01*
X15128006Y-10293757D01*
X15139636Y-10311162D01*
X15140394Y-10311921D01*
X15049967Y-10311921D01*
X15050726Y-10311162D01*
X15062356Y-10293757D01*
X15070367Y-10274417D01*
X15074451Y-10253886D01*
X15074451Y-10232952D01*
X15070367Y-10212421D01*
X15062356Y-10193081D01*
X15050726Y-10175676D01*
X15035924Y-10160874D01*
X15018519Y-10149244D01*
X14999179Y-10141233D01*
X14978648Y-10137149D01*
X14957714Y-10137149D01*
X14937183Y-10141233D01*
X14917843Y-10149244D01*
X14900438Y-10160874D01*
X14885636Y-10175676D01*
X14874006Y-10193081D01*
X14865995Y-10212421D01*
X14861911Y-10232952D01*
X14861911Y-10253886D01*
X14865995Y-10274417D01*
X14874006Y-10293757D01*
X14885636Y-10311162D01*
X14886394Y-10311921D01*
X14866686Y-10311921D01*
X14864285Y-10311685D01*
X14854701Y-10312629D01*
X14851905Y-10313477D01*
X14845485Y-10315424D01*
X14836992Y-10319964D01*
X14829547Y-10326073D01*
X14828016Y-10327939D01*
X14728420Y-10427535D01*
X14718744Y-10427535D01*
X14704882Y-10430292D01*
X14694968Y-10434399D01*
X14692515Y-10430727D01*
X14682521Y-10420733D01*
X14670769Y-10412881D01*
X14657712Y-10407472D01*
X14643850Y-10404715D01*
X14629716Y-10404715D01*
X14615854Y-10407472D01*
X14602797Y-10412881D01*
X14591045Y-10420733D01*
X14581051Y-10430727D01*
X14573199Y-10442479D01*
X14567790Y-10455536D01*
X14565033Y-10469398D01*
X13671709Y-10469398D01*
X13671709Y-10233811D01*
X13671793Y-10232952D01*
X14612911Y-10232952D01*
X14612911Y-10253886D01*
X14616995Y-10274417D01*
X14625006Y-10293757D01*
X14636636Y-10311162D01*
X14651438Y-10325964D01*
X14668843Y-10337594D01*
X14688183Y-10345605D01*
X14708714Y-10349689D01*
X14729648Y-10349689D01*
X14750179Y-10345605D01*
X14769519Y-10337594D01*
X14786924Y-10325964D01*
X14801726Y-10311162D01*
X14813356Y-10293757D01*
X14821367Y-10274417D01*
X14825451Y-10253886D01*
X14825451Y-10232952D01*
X14821367Y-10212421D01*
X14813356Y-10193081D01*
X14801726Y-10175676D01*
X14786924Y-10160874D01*
X14769519Y-10149244D01*
X14750179Y-10141233D01*
X14729648Y-10137149D01*
X14708714Y-10137149D01*
X14688183Y-10141233D01*
X14668843Y-10149244D01*
X14651438Y-10160874D01*
X14636636Y-10175676D01*
X14625006Y-10193081D01*
X14616995Y-10212421D01*
X14612911Y-10232952D01*
X13671793Y-10232952D01*
X13671970Y-10231160D01*
X13671709Y-10228509D01*
X13670928Y-10220580D01*
X13667842Y-10210407D01*
X13662830Y-10201031D01*
X13656086Y-10192813D01*
X13654027Y-10191123D01*
X13623431Y-10160527D01*
X13623431Y-10158035D01*
X13620674Y-10144173D01*
X13615265Y-10131116D01*
X13607413Y-10119364D01*
X13597419Y-10109370D01*
X13585667Y-10101518D01*
X13572610Y-10096109D01*
X13558748Y-10093352D01*
X13544614Y-10093352D01*
X13530752Y-10096109D01*
X13517695Y-10101518D01*
X13505943Y-10109370D01*
X13495949Y-10119364D01*
X13488097Y-10131116D01*
X13482688Y-10144173D01*
X13479931Y-10158035D01*
X13479931Y-10172169D01*
X13482688Y-10186031D01*
X13488097Y-10199088D01*
X13495949Y-10210840D01*
X13505943Y-10220834D01*
X13517695Y-10228686D01*
X13530752Y-10234095D01*
X13544614Y-10236852D01*
X13547106Y-10236852D01*
X13563769Y-10253515D01*
X13563769Y-10962091D01*
X13551333Y-10967242D01*
X13539581Y-10975094D01*
X13529587Y-10985088D01*
X13521735Y-10996840D01*
X13516326Y-11009897D01*
X13515180Y-11015660D01*
X13404461Y-11126380D01*
X13402160Y-11128268D01*
X13400272Y-11130569D01*
X13400271Y-11130570D01*
X13394622Y-11137453D01*
X13389021Y-11147932D01*
X13385572Y-11159303D01*
X13385205Y-11163028D01*
X13384699Y-11168164D01*
X13384699Y-11168165D01*
X13384407Y-11171127D01*
X13384699Y-11174089D01*
X13384699Y-11180695D01*
X13381438Y-11182874D01*
X13366636Y-11197676D01*
X13355006Y-11215081D01*
X13346995Y-11234421D01*
X13342911Y-11254952D01*
X12793451Y-11254952D01*
X12789367Y-11234421D01*
X12781356Y-11215081D01*
X12769726Y-11197676D01*
X12754924Y-11182874D01*
X12737519Y-11171244D01*
X12718179Y-11163233D01*
X12697648Y-11159149D01*
X12676714Y-11159149D01*
X12656183Y-11163233D01*
X12636843Y-11171244D01*
X12619438Y-11182874D01*
X12604636Y-11197676D01*
X12593006Y-11215081D01*
X12584995Y-11234421D01*
X12580911Y-11254952D01*
X12263060Y-11254952D01*
X12263060Y-11000952D01*
X12580911Y-11000952D01*
X12580911Y-11021886D01*
X12584995Y-11042417D01*
X12593006Y-11061757D01*
X12604636Y-11079162D01*
X12619438Y-11093964D01*
X12636843Y-11105594D01*
X12656183Y-11113605D01*
X12676714Y-11117689D01*
X12697648Y-11117689D01*
X12718179Y-11113605D01*
X12737519Y-11105594D01*
X12754924Y-11093964D01*
X12769726Y-11079162D01*
X12781356Y-11061757D01*
X12789367Y-11042417D01*
X12793451Y-11021886D01*
X12793451Y-11000952D01*
X12789367Y-10980421D01*
X12781356Y-10961081D01*
X12769726Y-10943676D01*
X12754924Y-10928874D01*
X12737519Y-10917244D01*
X12718179Y-10909233D01*
X12697648Y-10905149D01*
X12676714Y-10905149D01*
X12656183Y-10909233D01*
X12636843Y-10917244D01*
X12619438Y-10928874D01*
X12604636Y-10943676D01*
X12593006Y-10961081D01*
X12584995Y-10980421D01*
X12580911Y-11000952D01*
X12263060Y-11000952D01*
X12263060Y-10738952D01*
X12580911Y-10738952D01*
X12580911Y-10759886D01*
X12584995Y-10780417D01*
X12593006Y-10799757D01*
X12604636Y-10817162D01*
X12619438Y-10831964D01*
X12636843Y-10843594D01*
X12656183Y-10851605D01*
X12676714Y-10855689D01*
X12697648Y-10855689D01*
X12718179Y-10851605D01*
X12737519Y-10843594D01*
X12754924Y-10831964D01*
X12769726Y-10817162D01*
X12781356Y-10799757D01*
X12789367Y-10780417D01*
X12793451Y-10759886D01*
X12793451Y-10738952D01*
X12789367Y-10718421D01*
X12781356Y-10699081D01*
X12769726Y-10681676D01*
X12754924Y-10666874D01*
X12737519Y-10655244D01*
X12718179Y-10647233D01*
X12697648Y-10643149D01*
X12676714Y-10643149D01*
X12656183Y-10647233D01*
X12636843Y-10655244D01*
X12619438Y-10666874D01*
X12604636Y-10681676D01*
X12593006Y-10699081D01*
X12584995Y-10718421D01*
X12580911Y-10738952D01*
X12263060Y-10738952D01*
X12263060Y-10486952D01*
X12575911Y-10486952D01*
X12575911Y-10507886D01*
X12579995Y-10528417D01*
X12588006Y-10547757D01*
X12599636Y-10565162D01*
X12614438Y-10579964D01*
X12631843Y-10591594D01*
X12651183Y-10599605D01*
X12671714Y-10603689D01*
X12692648Y-10603689D01*
X12713179Y-10599605D01*
X12732519Y-10591594D01*
X12749924Y-10579964D01*
X12764726Y-10565162D01*
X12776356Y-10547757D01*
X12784367Y-10528417D01*
X12788451Y-10507886D01*
X12788451Y-10486952D01*
X12784367Y-10466421D01*
X12776356Y-10447081D01*
X12764726Y-10429676D01*
X12749924Y-10414874D01*
X12732519Y-10403244D01*
X12713179Y-10395233D01*
X12692648Y-10391149D01*
X12671714Y-10391149D01*
X12651183Y-10395233D01*
X12631843Y-10403244D01*
X12614438Y-10414874D01*
X12599636Y-10429676D01*
X12588006Y-10447081D01*
X12579995Y-10466421D01*
X12575911Y-10486952D01*
X12263060Y-10486952D01*
X12263060Y-10238952D01*
X12580911Y-10238952D01*
X12580911Y-10259886D01*
X12584995Y-10280417D01*
X12593006Y-10299757D01*
X12604636Y-10317162D01*
X12619438Y-10331964D01*
X12636843Y-10343594D01*
X12656183Y-10351605D01*
X12676714Y-10355689D01*
X12697648Y-10355689D01*
X12718179Y-10351605D01*
X12737519Y-10343594D01*
X12754924Y-10331964D01*
X12769726Y-10317162D01*
X12781356Y-10299757D01*
X12789367Y-10280417D01*
X12793451Y-10259886D01*
X12793451Y-10238952D01*
X12789367Y-10218421D01*
X12781356Y-10199081D01*
X12769726Y-10181676D01*
X12754924Y-10166874D01*
X12737519Y-10155244D01*
X12718179Y-10147233D01*
X12697648Y-10143149D01*
X12676714Y-10143149D01*
X12656183Y-10147233D01*
X12636843Y-10155244D01*
X12619438Y-10166874D01*
X12604636Y-10181676D01*
X12593006Y-10199081D01*
X12584995Y-10218421D01*
X12580911Y-10238952D01*
X12263060Y-10238952D01*
X12263060Y-9978952D01*
X12575911Y-9978952D01*
X12575911Y-9999886D01*
X12579995Y-10020417D01*
X12588006Y-10039757D01*
X12599636Y-10057162D01*
X12614438Y-10071964D01*
X12631843Y-10083594D01*
X12651183Y-10091605D01*
X12671714Y-10095689D01*
X12692648Y-10095689D01*
X12713179Y-10091605D01*
X12732519Y-10083594D01*
X12749924Y-10071964D01*
X12764726Y-10057162D01*
X12776356Y-10039757D01*
X12784367Y-10020417D01*
X12788451Y-9999886D01*
X12788451Y-9978952D01*
X12784367Y-9958421D01*
X12776356Y-9939081D01*
X12764726Y-9921676D01*
X12749924Y-9906874D01*
X12732519Y-9895244D01*
X12713179Y-9887233D01*
X12692648Y-9883149D01*
X12671714Y-9883149D01*
X12651183Y-9887233D01*
X12631843Y-9895244D01*
X12614438Y-9906874D01*
X12599636Y-9921676D01*
X12588006Y-9939081D01*
X12579995Y-9958421D01*
X12575911Y-9978952D01*
X12263060Y-9978952D01*
X12263060Y-9738952D01*
X12580911Y-9738952D01*
X12580911Y-9759886D01*
X12584995Y-9780417D01*
X12593006Y-9799757D01*
X12604636Y-9817162D01*
X12619438Y-9831964D01*
X12636843Y-9843594D01*
X12656183Y-9851605D01*
X12676714Y-9855689D01*
X12697648Y-9855689D01*
X12718179Y-9851605D01*
X12737519Y-9843594D01*
X12754924Y-9831964D01*
X12769726Y-9817162D01*
X12781356Y-9799757D01*
X12789367Y-9780417D01*
X12793451Y-9759886D01*
X12793451Y-9738952D01*
X12791860Y-9730952D01*
X14612911Y-9730952D01*
X14612911Y-9751886D01*
X14616995Y-9772417D01*
X14625006Y-9791757D01*
X14636636Y-9809162D01*
X14651438Y-9823964D01*
X14668843Y-9835594D01*
X14688183Y-9843605D01*
X14708714Y-9847689D01*
X14729648Y-9847689D01*
X14750179Y-9843605D01*
X14769519Y-9835594D01*
X14786924Y-9823964D01*
X14801726Y-9809162D01*
X14813356Y-9791757D01*
X14821367Y-9772417D01*
X14825451Y-9751886D01*
X14825451Y-9730952D01*
X14824258Y-9724952D01*
X14861911Y-9724952D01*
X14861911Y-9745886D01*
X14865995Y-9766417D01*
X14874006Y-9785757D01*
X14885636Y-9803162D01*
X14900438Y-9817964D01*
X14917843Y-9829594D01*
X14937183Y-9837605D01*
X14957714Y-9841689D01*
X14978648Y-9841689D01*
X14999179Y-9837605D01*
X15018519Y-9829594D01*
X15035924Y-9817964D01*
X15050726Y-9803162D01*
X15062356Y-9785757D01*
X15070367Y-9766417D01*
X15074451Y-9745886D01*
X15074451Y-9724952D01*
X15115911Y-9724952D01*
X15115911Y-9745886D01*
X15119995Y-9766417D01*
X15128006Y-9785757D01*
X15139636Y-9803162D01*
X15154438Y-9817964D01*
X15171843Y-9829594D01*
X15191183Y-9837605D01*
X15211714Y-9841689D01*
X15232648Y-9841689D01*
X15253179Y-9837605D01*
X15272519Y-9829594D01*
X15289924Y-9817964D01*
X15304726Y-9803162D01*
X15316356Y-9785757D01*
X15324367Y-9766417D01*
X15328451Y-9745886D01*
X15328451Y-9724952D01*
X15324367Y-9704421D01*
X15316356Y-9685081D01*
X15304726Y-9667676D01*
X15289924Y-9652874D01*
X15272519Y-9641244D01*
X15253179Y-9633233D01*
X15232648Y-9629149D01*
X15211714Y-9629149D01*
X15191183Y-9633233D01*
X15171843Y-9641244D01*
X15154438Y-9652874D01*
X15139636Y-9667676D01*
X15128006Y-9685081D01*
X15119995Y-9704421D01*
X15115911Y-9724952D01*
X15074451Y-9724952D01*
X15070367Y-9704421D01*
X15062356Y-9685081D01*
X15050726Y-9667676D01*
X15035924Y-9652874D01*
X15018519Y-9641244D01*
X14999179Y-9633233D01*
X14978648Y-9629149D01*
X14957714Y-9629149D01*
X14937183Y-9633233D01*
X14917843Y-9641244D01*
X14900438Y-9652874D01*
X14885636Y-9667676D01*
X14874006Y-9685081D01*
X14865995Y-9704421D01*
X14861911Y-9724952D01*
X14824258Y-9724952D01*
X14821367Y-9710421D01*
X14813356Y-9691081D01*
X14801726Y-9673676D01*
X14786924Y-9658874D01*
X14769519Y-9647244D01*
X14750179Y-9639233D01*
X14729648Y-9635149D01*
X14708714Y-9635149D01*
X14688183Y-9639233D01*
X14668843Y-9647244D01*
X14651438Y-9658874D01*
X14636636Y-9673676D01*
X14625006Y-9691081D01*
X14616995Y-9710421D01*
X14612911Y-9730952D01*
X12791860Y-9730952D01*
X12789367Y-9718421D01*
X12781356Y-9699081D01*
X12769726Y-9681676D01*
X12754924Y-9666874D01*
X12737519Y-9655244D01*
X12718179Y-9647233D01*
X12697648Y-9643149D01*
X12676714Y-9643149D01*
X12656183Y-9647233D01*
X12636843Y-9655244D01*
X12619438Y-9666874D01*
X12604636Y-9681676D01*
X12593006Y-9699081D01*
X12584995Y-9718421D01*
X12580911Y-9738952D01*
X12263060Y-9738952D01*
X12263060Y-9470952D01*
X14607911Y-9470952D01*
X14607911Y-9491886D01*
X14611995Y-9512417D01*
X14620006Y-9531757D01*
X14631636Y-9549162D01*
X14646438Y-9563964D01*
X14663843Y-9575594D01*
X14683183Y-9583605D01*
X14703714Y-9587689D01*
X14724648Y-9587689D01*
X14745179Y-9583605D01*
X14764519Y-9575594D01*
X14781924Y-9563964D01*
X14796726Y-9549162D01*
X14808356Y-9531757D01*
X14816367Y-9512417D01*
X14820451Y-9491886D01*
X14820451Y-9470952D01*
X14861911Y-9470952D01*
X14861911Y-9491886D01*
X14865995Y-9512417D01*
X14874006Y-9531757D01*
X14885636Y-9549162D01*
X14900438Y-9563964D01*
X14917843Y-9575594D01*
X14937183Y-9583605D01*
X14957714Y-9587689D01*
X14978648Y-9587689D01*
X14999179Y-9583605D01*
X15018519Y-9575594D01*
X15035924Y-9563964D01*
X15050726Y-9549162D01*
X15062356Y-9531757D01*
X15070367Y-9512417D01*
X15074451Y-9491886D01*
X15074451Y-9470952D01*
X15070367Y-9450421D01*
X15062356Y-9431081D01*
X15050726Y-9413676D01*
X15035924Y-9398874D01*
X15018519Y-9387244D01*
X14999179Y-9379233D01*
X14978648Y-9375149D01*
X14957714Y-9375149D01*
X14937183Y-9379233D01*
X14917843Y-9387244D01*
X14900438Y-9398874D01*
X14885636Y-9413676D01*
X14874006Y-9431081D01*
X14865995Y-9450421D01*
X14861911Y-9470952D01*
X14820451Y-9470952D01*
X14816367Y-9450421D01*
X14808356Y-9431081D01*
X14796726Y-9413676D01*
X14781924Y-9398874D01*
X14764519Y-9387244D01*
X14745179Y-9379233D01*
X14724648Y-9375149D01*
X14703714Y-9375149D01*
X14683183Y-9379233D01*
X14663843Y-9387244D01*
X14646438Y-9398874D01*
X14631636Y-9413676D01*
X14620006Y-9431081D01*
X14611995Y-9450421D01*
X14607911Y-9470952D01*
X12263060Y-9470952D01*
X12263060Y-8189692D01*
X16435911Y-8189779D01*
%TD*%
M02*
