%TF.GenerationSoftware,KiCad,Pcbnew,5.1.3-ffb9f22~84~ubuntu18.04.1*%
%TF.CreationDate,2019-07-25T20:13:38+03:00*%
%TF.ProjectId,bluetooth,626c7565-746f-46f7-9468-2e6b69636164,rev?*%
%TF.SameCoordinates,Original*%
%TF.FileFunction,Copper,L1,Top*%
%TF.FilePolarity,Positive*%
%FSLAX45Y45*%
G04 Gerber Fmt 4.5, Leading zero omitted, Abs format (unit mm)*
G04 Created by KiCad (PCBNEW 5.1.3-ffb9f22~84~ubuntu18.04.1) date 2019-07-25 20:13:38*
%MOMM*%
%LPD*%
G04 APERTURE LIST*
%ADD10C,0.100000*%
%ADD11C,0.150000*%
%ADD12C,0.300000*%
%ADD13C,0.400000*%
%TA.AperFunction,SMDPad,CuDef*%
%ADD14R,1.750000X0.800000*%
%TD*%
%TA.AperFunction,SMDPad,CuDef*%
%ADD15R,0.800000X1.750000*%
%TD*%
%TA.AperFunction,ComponentPad*%
%ADD16C,1.300000*%
%TD*%
%TA.AperFunction,SMDPad,CuDef*%
%ADD17O,0.200000X0.650000*%
%TD*%
%TA.AperFunction,SMDPad,CuDef*%
%ADD18O,0.650000X0.200000*%
%TD*%
%TA.AperFunction,SMDPad,CuDef*%
%ADD19R,4.700000X4.700000*%
%TD*%
%TA.AperFunction,SMDPad,CuDef*%
%ADD20R,0.500000X0.600000*%
%TD*%
%TA.AperFunction,SMDPad,CuDef*%
%ADD21C,0.750000*%
%TD*%
%TA.AperFunction,Conductor*%
%ADD22C,0.100000*%
%TD*%
%TA.AperFunction,SMDPad,CuDef*%
%ADD23C,0.500000*%
%TD*%
%TA.AperFunction,SMDPad,CuDef*%
%ADD24R,0.750000X0.800000*%
%TD*%
%TA.AperFunction,SMDPad,CuDef*%
%ADD25R,0.600000X0.500000*%
%TD*%
%TA.AperFunction,SMDPad,CuDef*%
%ADD26R,0.850000X0.950000*%
%TD*%
%TA.AperFunction,SMDPad,CuDef*%
%ADD27R,0.800000X0.750000*%
%TD*%
%TA.AperFunction,SMDPad,CuDef*%
%ADD28R,1.000000X1.800000*%
%TD*%
%TA.AperFunction,ViaPad*%
%ADD29C,0.609600*%
%TD*%
%TA.AperFunction,ViaPad*%
%ADD30C,0.400000*%
%TD*%
%TA.AperFunction,ViaPad*%
%ADD31C,0.660000*%
%TD*%
%TA.AperFunction,Conductor*%
%ADD32C,0.152400*%
%TD*%
%TA.AperFunction,Conductor*%
%ADD33C,0.762000*%
%TD*%
%TA.AperFunction,Conductor*%
%ADD34C,0.228600*%
%TD*%
%TA.AperFunction,Conductor*%
%ADD35C,0.508000*%
%TD*%
%TA.AperFunction,Conductor*%
%ADD36C,0.254000*%
%TD*%
%TA.AperFunction,Conductor*%
%ADD37C,0.381000*%
%TD*%
%TA.AperFunction,Conductor*%
%ADD38C,1.651000*%
%TD*%
%TA.AperFunction,Conductor*%
%ADD39C,0.203200*%
%TD*%
%TA.AperFunction,Conductor*%
%ADD40C,0.279400*%
%TD*%
%TA.AperFunction,Conductor*%
%ADD41C,0.025400*%
%TD*%
G04 APERTURE END LIST*
D10*
D11*
X17700220Y-16600720D02*
X17700220Y-19800720D01*
X28500220Y-19800720D01*
X28500220Y-16600720D01*
X17700220Y-16600720D01*
D10*
D11*
X1000000Y-1000000D02*
X1000000Y-20000720D01*
X28700220Y-20000720D01*
X28700220Y-1000000D01*
X1000000Y-1000000D01*
D10*
D11*
X1200000Y-1200000D02*
X1200000Y-19800720D01*
X28500220Y-19800720D01*
X28500220Y-1200000D01*
X1200000Y-1200000D01*
D10*
D11*
X6000000Y-1200000D02*
X6000000Y-1000000D01*
D10*
D11*
X11000000Y-1200000D02*
X11000000Y-1000000D01*
D10*
D11*
X16000000Y-1200000D02*
X16000000Y-1000000D01*
D10*
D11*
X21000000Y-1200000D02*
X21000000Y-1000000D01*
D10*
D11*
X26000000Y-1200000D02*
X26000000Y-1000000D01*
D10*
D11*
X3606548Y-1158810D02*
X3532262Y-1158810D01*
X3569405Y-1158810D02*
X3569405Y-1028809D01*
X3557024Y-1047381D01*
X3544643Y-1059762D01*
X3532262Y-1065952D01*
D10*
D11*
X8532262Y-1041190D02*
X8538452Y-1035000D01*
X8550833Y-1028809D01*
X8581786Y-1028809D01*
X8594167Y-1035000D01*
X8600357Y-1041190D01*
X8606548Y-1053571D01*
X8606548Y-1065952D01*
X8600357Y-1084524D01*
X8526071Y-1158810D01*
X8606548Y-1158810D01*
D10*
D11*
X13526071Y-1028809D02*
X13606548Y-1028809D01*
X13563214Y-1078333D01*
X13581786Y-1078333D01*
X13594167Y-1084524D01*
X13600357Y-1090714D01*
X13606548Y-1103095D01*
X13606548Y-1134048D01*
X13600357Y-1146429D01*
X13594167Y-1152619D01*
X13581786Y-1158810D01*
X13544643Y-1158810D01*
X13532262Y-1152619D01*
X13526071Y-1146429D01*
D10*
D11*
X18594167Y-1072143D02*
X18594167Y-1158810D01*
X18563214Y-1022619D02*
X18532262Y-1115476D01*
X18612738Y-1115476D01*
D10*
D11*
X23600357Y-1028809D02*
X23538452Y-1028809D01*
X23532262Y-1090714D01*
X23538452Y-1084524D01*
X23550833Y-1078333D01*
X23581786Y-1078333D01*
X23594167Y-1084524D01*
X23600357Y-1090714D01*
X23606548Y-1103095D01*
X23606548Y-1134048D01*
X23600357Y-1146429D01*
X23594167Y-1152619D01*
X23581786Y-1158810D01*
X23550833Y-1158810D01*
X23538452Y-1152619D01*
X23532262Y-1146429D01*
D10*
D11*
X28594167Y-1028809D02*
X28569405Y-1028809D01*
X28557024Y-1035000D01*
X28550833Y-1041190D01*
X28538452Y-1059762D01*
X28532262Y-1084524D01*
X28532262Y-1134048D01*
X28538452Y-1146429D01*
X28544643Y-1152619D01*
X28557024Y-1158810D01*
X28581786Y-1158810D01*
X28594167Y-1152619D01*
X28600357Y-1146429D01*
X28606548Y-1134048D01*
X28606548Y-1103095D01*
X28600357Y-1090714D01*
X28594167Y-1084524D01*
X28581786Y-1078333D01*
X28557024Y-1078333D01*
X28544643Y-1084524D01*
X28538452Y-1090714D01*
X28532262Y-1103095D01*
D10*
D11*
X6000000Y-19800720D02*
X6000000Y-20000720D01*
D10*
D11*
X11000000Y-19800720D02*
X11000000Y-20000720D01*
D10*
D11*
X16000000Y-19800720D02*
X16000000Y-20000720D01*
D10*
D11*
X21000000Y-19800720D02*
X21000000Y-20000720D01*
D10*
D11*
X26000000Y-19800720D02*
X26000000Y-20000720D01*
D10*
D11*
X3606548Y-19959530D02*
X3532262Y-19959530D01*
X3569405Y-19959530D02*
X3569405Y-19829530D01*
X3557024Y-19848101D01*
X3544643Y-19860482D01*
X3532262Y-19866672D01*
D10*
D11*
X8532262Y-19841910D02*
X8538452Y-19835720D01*
X8550833Y-19829530D01*
X8581786Y-19829530D01*
X8594167Y-19835720D01*
X8600357Y-19841910D01*
X8606548Y-19854291D01*
X8606548Y-19866672D01*
X8600357Y-19885244D01*
X8526071Y-19959530D01*
X8606548Y-19959530D01*
D10*
D11*
X13526071Y-19829530D02*
X13606548Y-19829530D01*
X13563214Y-19879053D01*
X13581786Y-19879053D01*
X13594167Y-19885244D01*
X13600357Y-19891434D01*
X13606548Y-19903815D01*
X13606548Y-19934768D01*
X13600357Y-19947149D01*
X13594167Y-19953339D01*
X13581786Y-19959530D01*
X13544643Y-19959530D01*
X13532262Y-19953339D01*
X13526071Y-19947149D01*
D10*
D11*
X18594167Y-19872863D02*
X18594167Y-19959530D01*
X18563214Y-19823339D02*
X18532262Y-19916196D01*
X18612738Y-19916196D01*
D10*
D11*
X23600357Y-19829530D02*
X23538452Y-19829530D01*
X23532262Y-19891434D01*
X23538452Y-19885244D01*
X23550833Y-19879053D01*
X23581786Y-19879053D01*
X23594167Y-19885244D01*
X23600357Y-19891434D01*
X23606548Y-19903815D01*
X23606548Y-19934768D01*
X23600357Y-19947149D01*
X23594167Y-19953339D01*
X23581786Y-19959530D01*
X23550833Y-19959530D01*
X23538452Y-19953339D01*
X23532262Y-19947149D01*
D10*
D11*
X28594167Y-19829530D02*
X28569405Y-19829530D01*
X28557024Y-19835720D01*
X28550833Y-19841910D01*
X28538452Y-19860482D01*
X28532262Y-19885244D01*
X28532262Y-19934768D01*
X28538452Y-19947149D01*
X28544643Y-19953339D01*
X28557024Y-19959530D01*
X28581786Y-19959530D01*
X28594167Y-19953339D01*
X28600357Y-19947149D01*
X28606548Y-19934768D01*
X28606548Y-19903815D01*
X28600357Y-19891434D01*
X28594167Y-19885244D01*
X28581786Y-19879053D01*
X28557024Y-19879053D01*
X28544643Y-19885244D01*
X28538452Y-19891434D01*
X28532262Y-19903815D01*
D10*
D11*
X1000000Y-6000000D02*
X1200000Y-6000000D01*
D10*
D11*
X1000000Y-11000000D02*
X1200000Y-11000000D01*
D10*
D11*
X1000000Y-16000000D02*
X1200000Y-16000000D01*
D10*
D11*
X1069048Y-3521667D02*
X1130952Y-3521667D01*
X1056667Y-3558809D02*
X1100000Y-3428809D01*
X1143333Y-3558809D01*
D10*
D11*
X1109286Y-8490714D02*
X1127857Y-8496905D01*
X1134048Y-8503095D01*
X1140238Y-8515476D01*
X1140238Y-8534048D01*
X1134048Y-8546429D01*
X1127857Y-8552619D01*
X1115476Y-8558810D01*
X1065952Y-8558810D01*
X1065952Y-8428810D01*
X1109286Y-8428810D01*
X1121667Y-8435000D01*
X1127857Y-8441190D01*
X1134048Y-8453571D01*
X1134048Y-8465952D01*
X1127857Y-8478333D01*
X1121667Y-8484524D01*
X1109286Y-8490714D01*
X1065952Y-8490714D01*
D10*
D11*
X1140238Y-13546428D02*
X1134048Y-13552619D01*
X1115476Y-13558809D01*
X1103095Y-13558809D01*
X1084524Y-13552619D01*
X1072143Y-13540238D01*
X1065952Y-13527857D01*
X1059762Y-13503095D01*
X1059762Y-13484524D01*
X1065952Y-13459762D01*
X1072143Y-13447381D01*
X1084524Y-13435000D01*
X1103095Y-13428809D01*
X1115476Y-13428809D01*
X1134048Y-13435000D01*
X1140238Y-13441190D01*
D10*
D11*
X1065952Y-18558810D02*
X1065952Y-18428810D01*
X1096905Y-18428810D01*
X1115476Y-18435000D01*
X1127857Y-18447381D01*
X1134048Y-18459762D01*
X1140238Y-18484524D01*
X1140238Y-18503095D01*
X1134048Y-18527857D01*
X1127857Y-18540238D01*
X1115476Y-18552619D01*
X1096905Y-18558810D01*
X1065952Y-18558810D01*
D10*
D11*
X28700220Y-6000000D02*
X28500220Y-6000000D01*
D10*
D11*
X28700220Y-11000000D02*
X28500220Y-11000000D01*
D10*
D11*
X28700220Y-16000000D02*
X28500220Y-16000000D01*
D10*
D11*
X28569268Y-3521667D02*
X28631172Y-3521667D01*
X28556887Y-3558809D02*
X28600220Y-3428809D01*
X28643553Y-3558809D01*
D10*
D11*
X28609506Y-8490714D02*
X28628077Y-8496905D01*
X28634268Y-8503095D01*
X28640458Y-8515476D01*
X28640458Y-8534048D01*
X28634268Y-8546429D01*
X28628077Y-8552619D01*
X28615696Y-8558810D01*
X28566172Y-8558810D01*
X28566172Y-8428810D01*
X28609506Y-8428810D01*
X28621887Y-8435000D01*
X28628077Y-8441190D01*
X28634268Y-8453571D01*
X28634268Y-8465952D01*
X28628077Y-8478333D01*
X28621887Y-8484524D01*
X28609506Y-8490714D01*
X28566172Y-8490714D01*
D10*
D11*
X28640458Y-13546428D02*
X28634268Y-13552619D01*
X28615696Y-13558809D01*
X28603315Y-13558809D01*
X28584744Y-13552619D01*
X28572363Y-13540238D01*
X28566172Y-13527857D01*
X28559982Y-13503095D01*
X28559982Y-13484524D01*
X28566172Y-13459762D01*
X28572363Y-13447381D01*
X28584744Y-13435000D01*
X28603315Y-13428809D01*
X28615696Y-13428809D01*
X28634268Y-13435000D01*
X28640458Y-13441190D01*
D10*
D11*
X28566172Y-18558810D02*
X28566172Y-18428810D01*
X28597125Y-18428810D01*
X28615696Y-18435000D01*
X28628077Y-18447381D01*
X28634268Y-18459762D01*
X28640458Y-18484524D01*
X28640458Y-18503095D01*
X28634268Y-18527857D01*
X28628077Y-18540238D01*
X28615696Y-18552619D01*
X28597125Y-18558810D01*
X28566172Y-18558810D01*
D10*
D11*
X20043434Y-19378577D02*
X20043434Y-19228577D01*
X20079149Y-19228577D01*
X20100577Y-19235720D01*
X20114863Y-19250006D01*
X20122006Y-19264291D01*
X20129149Y-19292863D01*
X20129149Y-19314291D01*
X20122006Y-19342863D01*
X20114863Y-19357149D01*
X20100577Y-19371434D01*
X20079149Y-19378577D01*
X20043434Y-19378577D01*
X20257720Y-19378577D02*
X20257720Y-19300006D01*
X20250577Y-19285720D01*
X20236291Y-19278577D01*
X20207720Y-19278577D01*
X20193434Y-19285720D01*
X20257720Y-19371434D02*
X20243434Y-19378577D01*
X20207720Y-19378577D01*
X20193434Y-19371434D01*
X20186291Y-19357149D01*
X20186291Y-19342863D01*
X20193434Y-19328577D01*
X20207720Y-19321434D01*
X20243434Y-19321434D01*
X20257720Y-19314291D01*
X20307720Y-19278577D02*
X20364863Y-19278577D01*
X20329149Y-19228577D02*
X20329149Y-19357149D01*
X20336291Y-19371434D01*
X20350577Y-19378577D01*
X20364863Y-19378577D01*
X20472006Y-19371434D02*
X20457720Y-19378577D01*
X20429149Y-19378577D01*
X20414863Y-19371434D01*
X20407720Y-19357149D01*
X20407720Y-19300006D01*
X20414863Y-19285720D01*
X20429149Y-19278577D01*
X20457720Y-19278577D01*
X20472006Y-19285720D01*
X20479149Y-19300006D01*
X20479149Y-19314291D01*
X20407720Y-19328577D01*
X20543434Y-19364291D02*
X20550577Y-19371434D01*
X20543434Y-19378577D01*
X20536291Y-19371434D01*
X20543434Y-19364291D01*
X20543434Y-19378577D01*
X20543434Y-19285720D02*
X20550577Y-19292863D01*
X20543434Y-19300006D01*
X20536291Y-19292863D01*
X20543434Y-19285720D01*
X20543434Y-19300006D01*
D10*
D11*
X17700220Y-19450720D02*
X28500220Y-19450720D01*
D10*
D11*
X17843434Y-19658577D02*
X17843434Y-19508577D01*
X17929149Y-19658577D02*
X17864863Y-19572863D01*
X17929149Y-19508577D02*
X17843434Y-19594291D01*
X17993434Y-19658577D02*
X17993434Y-19558577D01*
X17993434Y-19508577D02*
X17986291Y-19515720D01*
X17993434Y-19522863D01*
X18000577Y-19515720D01*
X17993434Y-19508577D01*
X17993434Y-19522863D01*
X18150577Y-19644291D02*
X18143434Y-19651434D01*
X18122006Y-19658577D01*
X18107720Y-19658577D01*
X18086291Y-19651434D01*
X18072006Y-19637149D01*
X18064863Y-19622863D01*
X18057720Y-19594291D01*
X18057720Y-19572863D01*
X18064863Y-19544291D01*
X18072006Y-19530006D01*
X18086291Y-19515720D01*
X18107720Y-19508577D01*
X18122006Y-19508577D01*
X18143434Y-19515720D01*
X18150577Y-19522863D01*
X18279149Y-19658577D02*
X18279149Y-19580006D01*
X18272006Y-19565720D01*
X18257720Y-19558577D01*
X18229149Y-19558577D01*
X18214863Y-19565720D01*
X18279149Y-19651434D02*
X18264863Y-19658577D01*
X18229149Y-19658577D01*
X18214863Y-19651434D01*
X18207720Y-19637149D01*
X18207720Y-19622863D01*
X18214863Y-19608577D01*
X18229149Y-19601434D01*
X18264863Y-19601434D01*
X18279149Y-19594291D01*
X18414863Y-19658577D02*
X18414863Y-19508577D01*
X18414863Y-19651434D02*
X18400577Y-19658577D01*
X18372006Y-19658577D01*
X18357720Y-19651434D01*
X18350577Y-19644291D01*
X18343434Y-19630006D01*
X18343434Y-19587149D01*
X18350577Y-19572863D01*
X18357720Y-19565720D01*
X18372006Y-19558577D01*
X18400577Y-19558577D01*
X18414863Y-19565720D01*
X18600577Y-19580006D02*
X18650577Y-19580006D01*
X18672006Y-19658577D02*
X18600577Y-19658577D01*
X18600577Y-19508577D01*
X18672006Y-19508577D01*
X18736291Y-19644291D02*
X18743434Y-19651434D01*
X18736291Y-19658577D01*
X18729149Y-19651434D01*
X18736291Y-19644291D01*
X18736291Y-19658577D01*
X18807720Y-19658577D02*
X18807720Y-19508577D01*
X18843434Y-19508577D01*
X18864863Y-19515720D01*
X18879149Y-19530006D01*
X18886291Y-19544291D01*
X18893434Y-19572863D01*
X18893434Y-19594291D01*
X18886291Y-19622863D01*
X18879149Y-19637149D01*
X18864863Y-19651434D01*
X18843434Y-19658577D01*
X18807720Y-19658577D01*
X18957720Y-19644291D02*
X18964863Y-19651434D01*
X18957720Y-19658577D01*
X18950577Y-19651434D01*
X18957720Y-19644291D01*
X18957720Y-19658577D01*
X19022006Y-19615720D02*
X19093434Y-19615720D01*
X19007720Y-19658577D02*
X19057720Y-19508577D01*
X19107720Y-19658577D01*
X19157720Y-19644291D02*
X19164863Y-19651434D01*
X19157720Y-19658577D01*
X19150577Y-19651434D01*
X19157720Y-19644291D01*
X19157720Y-19658577D01*
X19457720Y-19658577D02*
X19457720Y-19508577D01*
X19472006Y-19601434D02*
X19514863Y-19658577D01*
X19514863Y-19558577D02*
X19457720Y-19615720D01*
X19579149Y-19658577D02*
X19579149Y-19558577D01*
X19579149Y-19508577D02*
X19572006Y-19515720D01*
X19579149Y-19522863D01*
X19586291Y-19515720D01*
X19579149Y-19508577D01*
X19579149Y-19522863D01*
X19714863Y-19651434D02*
X19700577Y-19658577D01*
X19672006Y-19658577D01*
X19657720Y-19651434D01*
X19650577Y-19644291D01*
X19643434Y-19630006D01*
X19643434Y-19587149D01*
X19650577Y-19572863D01*
X19657720Y-19565720D01*
X19672006Y-19558577D01*
X19700577Y-19558577D01*
X19714863Y-19565720D01*
X19843434Y-19658577D02*
X19843434Y-19580006D01*
X19836291Y-19565720D01*
X19822006Y-19558577D01*
X19793434Y-19558577D01*
X19779149Y-19565720D01*
X19843434Y-19651434D02*
X19829149Y-19658577D01*
X19793434Y-19658577D01*
X19779149Y-19651434D01*
X19772006Y-19637149D01*
X19772006Y-19622863D01*
X19779149Y-19608577D01*
X19793434Y-19601434D01*
X19829149Y-19601434D01*
X19843434Y-19594291D01*
X19979149Y-19658577D02*
X19979149Y-19508577D01*
X19979149Y-19651434D02*
X19964863Y-19658577D01*
X19936291Y-19658577D01*
X19922006Y-19651434D01*
X19914863Y-19644291D01*
X19907720Y-19630006D01*
X19907720Y-19587149D01*
X19914863Y-19572863D01*
X19922006Y-19565720D01*
X19936291Y-19558577D01*
X19964863Y-19558577D01*
X19979149Y-19565720D01*
X20236291Y-19508577D02*
X20164863Y-19508577D01*
X20157720Y-19580006D01*
X20164863Y-19572863D01*
X20179149Y-19565720D01*
X20214863Y-19565720D01*
X20229149Y-19572863D01*
X20236291Y-19580006D01*
X20243434Y-19594291D01*
X20243434Y-19630006D01*
X20236291Y-19644291D01*
X20229149Y-19651434D01*
X20214863Y-19658577D01*
X20179149Y-19658577D01*
X20164863Y-19651434D01*
X20157720Y-19644291D01*
X20307720Y-19644291D02*
X20314863Y-19651434D01*
X20307720Y-19658577D01*
X20300577Y-19651434D01*
X20307720Y-19644291D01*
X20307720Y-19658577D01*
X20457720Y-19658577D02*
X20372006Y-19658577D01*
X20414863Y-19658577D02*
X20414863Y-19508577D01*
X20400577Y-19530006D01*
X20386291Y-19544291D01*
X20372006Y-19551434D01*
X20522006Y-19644291D02*
X20529149Y-19651434D01*
X20522006Y-19658577D01*
X20514863Y-19651434D01*
X20522006Y-19644291D01*
X20522006Y-19658577D01*
X20579149Y-19508577D02*
X20672006Y-19508577D01*
X20622006Y-19565720D01*
X20643434Y-19565720D01*
X20657720Y-19572863D01*
X20664863Y-19580006D01*
X20672006Y-19594291D01*
X20672006Y-19630006D01*
X20664863Y-19644291D01*
X20657720Y-19651434D01*
X20643434Y-19658577D01*
X20600577Y-19658577D01*
X20586291Y-19651434D01*
X20579149Y-19644291D01*
X20736291Y-19601434D02*
X20850577Y-19601434D01*
X20900577Y-19558577D02*
X20957720Y-19558577D01*
X20922006Y-19658577D02*
X20922006Y-19530006D01*
X20929149Y-19515720D01*
X20943434Y-19508577D01*
X20957720Y-19508577D01*
X20986291Y-19558577D02*
X21043434Y-19558577D01*
X21007720Y-19658577D02*
X21007720Y-19530006D01*
X21014863Y-19515720D01*
X21029149Y-19508577D01*
X21043434Y-19508577D01*
X21093434Y-19658577D02*
X21093434Y-19508577D01*
X21093434Y-19565720D02*
X21107720Y-19558577D01*
X21136291Y-19558577D01*
X21150577Y-19565720D01*
X21157720Y-19572863D01*
X21164863Y-19587149D01*
X21164863Y-19630006D01*
X21157720Y-19644291D01*
X21150577Y-19651434D01*
X21136291Y-19658577D01*
X21107720Y-19658577D01*
X21093434Y-19651434D01*
X21236291Y-19658577D02*
X21264863Y-19658577D01*
X21279149Y-19651434D01*
X21286291Y-19644291D01*
X21300577Y-19622863D01*
X21307720Y-19594291D01*
X21307720Y-19537149D01*
X21300577Y-19522863D01*
X21293434Y-19515720D01*
X21279149Y-19508577D01*
X21250577Y-19508577D01*
X21236291Y-19515720D01*
X21229149Y-19522863D01*
X21222006Y-19537149D01*
X21222006Y-19572863D01*
X21229149Y-19587149D01*
X21236291Y-19594291D01*
X21250577Y-19601434D01*
X21279149Y-19601434D01*
X21293434Y-19594291D01*
X21300577Y-19587149D01*
X21307720Y-19572863D01*
X21350577Y-19558577D02*
X21407720Y-19558577D01*
X21372006Y-19658577D02*
X21372006Y-19530006D01*
X21379149Y-19515720D01*
X21393434Y-19508577D01*
X21407720Y-19508577D01*
X21450577Y-19522863D02*
X21457720Y-19515720D01*
X21472006Y-19508577D01*
X21507720Y-19508577D01*
X21522006Y-19515720D01*
X21529149Y-19522863D01*
X21536291Y-19537149D01*
X21536291Y-19551434D01*
X21529149Y-19572863D01*
X21443434Y-19658577D01*
X21536291Y-19658577D01*
X21593434Y-19522863D02*
X21600577Y-19515720D01*
X21614863Y-19508577D01*
X21650577Y-19508577D01*
X21664863Y-19515720D01*
X21672006Y-19522863D01*
X21679149Y-19537149D01*
X21679149Y-19551434D01*
X21672006Y-19572863D01*
X21586291Y-19658577D01*
X21679149Y-19658577D01*
X21707720Y-19467720D02*
X21850577Y-19467720D01*
X21764863Y-19572863D02*
X21750577Y-19565720D01*
X21743434Y-19558577D01*
X21736291Y-19544291D01*
X21736291Y-19537149D01*
X21743434Y-19522863D01*
X21750577Y-19515720D01*
X21764863Y-19508577D01*
X21793434Y-19508577D01*
X21807720Y-19515720D01*
X21814863Y-19522863D01*
X21822006Y-19537149D01*
X21822006Y-19544291D01*
X21814863Y-19558577D01*
X21807720Y-19565720D01*
X21793434Y-19572863D01*
X21764863Y-19572863D01*
X21750577Y-19580006D01*
X21743434Y-19587149D01*
X21736291Y-19601434D01*
X21736291Y-19630006D01*
X21743434Y-19644291D01*
X21750577Y-19651434D01*
X21764863Y-19658577D01*
X21793434Y-19658577D01*
X21807720Y-19651434D01*
X21814863Y-19644291D01*
X21822006Y-19630006D01*
X21822006Y-19601434D01*
X21814863Y-19587149D01*
X21807720Y-19580006D01*
X21793434Y-19572863D01*
X21850577Y-19467720D02*
X21993434Y-19467720D01*
X21950577Y-19558577D02*
X21950577Y-19658577D01*
X21914863Y-19501434D02*
X21879149Y-19608577D01*
X21972006Y-19608577D01*
X22093434Y-19558577D02*
X22093434Y-19658577D01*
X22029149Y-19558577D02*
X22029149Y-19637149D01*
X22036291Y-19651434D01*
X22050577Y-19658577D01*
X22072006Y-19658577D01*
X22086291Y-19651434D01*
X22093434Y-19644291D01*
X22164863Y-19658577D02*
X22164863Y-19508577D01*
X22164863Y-19565720D02*
X22179149Y-19558577D01*
X22207720Y-19558577D01*
X22222006Y-19565720D01*
X22229149Y-19572863D01*
X22236291Y-19587149D01*
X22236291Y-19630006D01*
X22229149Y-19644291D01*
X22222006Y-19651434D01*
X22207720Y-19658577D01*
X22179149Y-19658577D01*
X22164863Y-19651434D01*
X22364863Y-19558577D02*
X22364863Y-19658577D01*
X22300577Y-19558577D02*
X22300577Y-19637149D01*
X22307720Y-19651434D01*
X22322006Y-19658577D01*
X22343434Y-19658577D01*
X22357720Y-19651434D01*
X22364863Y-19644291D01*
X22436291Y-19558577D02*
X22436291Y-19658577D01*
X22436291Y-19572863D02*
X22443434Y-19565720D01*
X22457720Y-19558577D01*
X22479148Y-19558577D01*
X22493434Y-19565720D01*
X22500577Y-19580006D01*
X22500577Y-19658577D01*
X22550577Y-19558577D02*
X22607720Y-19558577D01*
X22572006Y-19508577D02*
X22572006Y-19637149D01*
X22579148Y-19651434D01*
X22593434Y-19658577D01*
X22607720Y-19658577D01*
X22722006Y-19558577D02*
X22722006Y-19658577D01*
X22657720Y-19558577D02*
X22657720Y-19637149D01*
X22664863Y-19651434D01*
X22679148Y-19658577D01*
X22700577Y-19658577D01*
X22714863Y-19651434D01*
X22722006Y-19644291D01*
X22872006Y-19658577D02*
X22786291Y-19658577D01*
X22829148Y-19658577D02*
X22829148Y-19508577D01*
X22814863Y-19530006D01*
X22800577Y-19544291D01*
X22786291Y-19551434D01*
X22957720Y-19572863D02*
X22943434Y-19565720D01*
X22936291Y-19558577D01*
X22929148Y-19544291D01*
X22929148Y-19537149D01*
X22936291Y-19522863D01*
X22943434Y-19515720D01*
X22957720Y-19508577D01*
X22986291Y-19508577D01*
X23000577Y-19515720D01*
X23007720Y-19522863D01*
X23014863Y-19537149D01*
X23014863Y-19544291D01*
X23007720Y-19558577D01*
X23000577Y-19565720D01*
X22986291Y-19572863D01*
X22957720Y-19572863D01*
X22943434Y-19580006D01*
X22936291Y-19587149D01*
X22929148Y-19601434D01*
X22929148Y-19630006D01*
X22936291Y-19644291D01*
X22943434Y-19651434D01*
X22957720Y-19658577D01*
X22986291Y-19658577D01*
X23000577Y-19651434D01*
X23007720Y-19644291D01*
X23014863Y-19630006D01*
X23014863Y-19601434D01*
X23007720Y-19587149D01*
X23000577Y-19580006D01*
X22986291Y-19572863D01*
X23079148Y-19644291D02*
X23086291Y-19651434D01*
X23079148Y-19658577D01*
X23072006Y-19651434D01*
X23079148Y-19644291D01*
X23079148Y-19658577D01*
X23179148Y-19508577D02*
X23193434Y-19508577D01*
X23207720Y-19515720D01*
X23214863Y-19522863D01*
X23222006Y-19537149D01*
X23229148Y-19565720D01*
X23229148Y-19601434D01*
X23222006Y-19630006D01*
X23214863Y-19644291D01*
X23207720Y-19651434D01*
X23193434Y-19658577D01*
X23179148Y-19658577D01*
X23164863Y-19651434D01*
X23157720Y-19644291D01*
X23150577Y-19630006D01*
X23143434Y-19601434D01*
X23143434Y-19565720D01*
X23150577Y-19537149D01*
X23157720Y-19522863D01*
X23164863Y-19515720D01*
X23179148Y-19508577D01*
X23357720Y-19558577D02*
X23357720Y-19658577D01*
X23322006Y-19501434D02*
X23286291Y-19608577D01*
X23379148Y-19608577D01*
X23436291Y-19644291D02*
X23443434Y-19651434D01*
X23436291Y-19658577D01*
X23429148Y-19651434D01*
X23436291Y-19644291D01*
X23436291Y-19658577D01*
X23586291Y-19658577D02*
X23500577Y-19658577D01*
X23543434Y-19658577D02*
X23543434Y-19508577D01*
X23529148Y-19530006D01*
X23514863Y-19544291D01*
X23500577Y-19551434D01*
D10*
D11*
X17700220Y-19150720D02*
X28500220Y-19150720D01*
D10*
D12*
X26441148Y-19378577D02*
X26391148Y-19307149D01*
X26355434Y-19378577D02*
X26355434Y-19228577D01*
X26412577Y-19228577D01*
X26426863Y-19235720D01*
X26434006Y-19242863D01*
X26441148Y-19257149D01*
X26441148Y-19278577D01*
X26434006Y-19292863D01*
X26426863Y-19300006D01*
X26412577Y-19307149D01*
X26355434Y-19307149D01*
X26562577Y-19371434D02*
X26548291Y-19378577D01*
X26519720Y-19378577D01*
X26505434Y-19371434D01*
X26498291Y-19357149D01*
X26498291Y-19300006D01*
X26505434Y-19285720D01*
X26519720Y-19278577D01*
X26548291Y-19278577D01*
X26562577Y-19285720D01*
X26569720Y-19300006D01*
X26569720Y-19314291D01*
X26498291Y-19328577D01*
X26619720Y-19278577D02*
X26655434Y-19378577D01*
X26691148Y-19278577D01*
X26748291Y-19364291D02*
X26755434Y-19371434D01*
X26748291Y-19378577D01*
X26741148Y-19371434D01*
X26748291Y-19364291D01*
X26748291Y-19378577D01*
X26748291Y-19285720D02*
X26755434Y-19292863D01*
X26748291Y-19300006D01*
X26741148Y-19292863D01*
X26748291Y-19285720D01*
X26748291Y-19300006D01*
D10*
D11*
X17836291Y-19371434D02*
X17857720Y-19378577D01*
X17893434Y-19378577D01*
X17907720Y-19371434D01*
X17914863Y-19364291D01*
X17922006Y-19350006D01*
X17922006Y-19335720D01*
X17914863Y-19321434D01*
X17907720Y-19314291D01*
X17893434Y-19307149D01*
X17864863Y-19300006D01*
X17850577Y-19292863D01*
X17843434Y-19285720D01*
X17836291Y-19271434D01*
X17836291Y-19257149D01*
X17843434Y-19242863D01*
X17850577Y-19235720D01*
X17864863Y-19228577D01*
X17900577Y-19228577D01*
X17922006Y-19235720D01*
X17986291Y-19378577D02*
X17986291Y-19278577D01*
X17986291Y-19228577D02*
X17979149Y-19235720D01*
X17986291Y-19242863D01*
X17993434Y-19235720D01*
X17986291Y-19228577D01*
X17986291Y-19242863D01*
X18043434Y-19278577D02*
X18122006Y-19278577D01*
X18043434Y-19378577D01*
X18122006Y-19378577D01*
X18236291Y-19371434D02*
X18222006Y-19378577D01*
X18193434Y-19378577D01*
X18179149Y-19371434D01*
X18172006Y-19357149D01*
X18172006Y-19300006D01*
X18179149Y-19285720D01*
X18193434Y-19278577D01*
X18222006Y-19278577D01*
X18236291Y-19285720D01*
X18243434Y-19300006D01*
X18243434Y-19314291D01*
X18172006Y-19328577D01*
X18307720Y-19364291D02*
X18314863Y-19371434D01*
X18307720Y-19378577D01*
X18300577Y-19371434D01*
X18307720Y-19364291D01*
X18307720Y-19378577D01*
X18307720Y-19285720D02*
X18314863Y-19292863D01*
X18307720Y-19300006D01*
X18300577Y-19292863D01*
X18307720Y-19285720D01*
X18307720Y-19300006D01*
X18486291Y-19335720D02*
X18557720Y-19335720D01*
X18472006Y-19378577D02*
X18522006Y-19228577D01*
X18572006Y-19378577D01*
X18686291Y-19278577D02*
X18686291Y-19378577D01*
X18650577Y-19221434D02*
X18614863Y-19328577D01*
X18707720Y-19328577D01*
D10*
D11*
X26343434Y-19658577D02*
X26343434Y-19508577D01*
X26479148Y-19658577D02*
X26479148Y-19508577D01*
X26479148Y-19651434D02*
X26464863Y-19658577D01*
X26436291Y-19658577D01*
X26422006Y-19651434D01*
X26414863Y-19644291D01*
X26407720Y-19630006D01*
X26407720Y-19587149D01*
X26414863Y-19572863D01*
X26422006Y-19565720D01*
X26436291Y-19558577D01*
X26464863Y-19558577D01*
X26479148Y-19565720D01*
X26550577Y-19644291D02*
X26557720Y-19651434D01*
X26550577Y-19658577D01*
X26543434Y-19651434D01*
X26550577Y-19644291D01*
X26550577Y-19658577D01*
X26550577Y-19565720D02*
X26557720Y-19572863D01*
X26550577Y-19580006D01*
X26543434Y-19572863D01*
X26550577Y-19565720D01*
X26550577Y-19580006D01*
X26814863Y-19658577D02*
X26729148Y-19658577D01*
X26772006Y-19658577D02*
X26772006Y-19508577D01*
X26757720Y-19530006D01*
X26743434Y-19544291D01*
X26729148Y-19551434D01*
X26986291Y-19501434D02*
X26857720Y-19694291D01*
X27114863Y-19658577D02*
X27029148Y-19658577D01*
X27072006Y-19658577D02*
X27072006Y-19508577D01*
X27057720Y-19530006D01*
X27043434Y-19544291D01*
X27029148Y-19551434D01*
D10*
D11*
X17700220Y-18750720D02*
X28500220Y-18750720D01*
D10*
D13*
X17871458Y-18821196D02*
X17985744Y-18821196D01*
X17903601Y-19021196D02*
X17928601Y-18821196D01*
X18027410Y-19021196D02*
X18044077Y-18887863D01*
X18052410Y-18821196D02*
X18041696Y-18830720D01*
X18050030Y-18840244D01*
X18060744Y-18830720D01*
X18052410Y-18821196D01*
X18050030Y-18840244D01*
X18110744Y-18887863D02*
X18186934Y-18887863D01*
X18147649Y-18821196D02*
X18126220Y-18992625D01*
X18133363Y-19011672D01*
X18151220Y-19021196D01*
X18170268Y-19021196D01*
X18265506Y-19021196D02*
X18247649Y-19011672D01*
X18240506Y-18992625D01*
X18261934Y-18821196D01*
X18419077Y-19011672D02*
X18398839Y-19021196D01*
X18360744Y-19021196D01*
X18342887Y-19011672D01*
X18335744Y-18992625D01*
X18345268Y-18916434D01*
X18357172Y-18897387D01*
X18377410Y-18887863D01*
X18415506Y-18887863D01*
X18433363Y-18897387D01*
X18440506Y-18916434D01*
X18438125Y-18935482D01*
X18340506Y-18954530D01*
X18515506Y-19002149D02*
X18523839Y-19011672D01*
X18513125Y-19021196D01*
X18504791Y-19011672D01*
X18515506Y-19002149D01*
X18513125Y-19021196D01*
X18528601Y-18897387D02*
X18536934Y-18906910D01*
X18526220Y-18916434D01*
X18517887Y-18906910D01*
X18528601Y-18897387D01*
X18526220Y-18916434D01*
D10*
D11*
X17893434Y-18560006D02*
X17843434Y-18560006D01*
X17843434Y-18638577D02*
X17843434Y-18488577D01*
X17914863Y-18488577D01*
X17972006Y-18638577D02*
X17972006Y-18538577D01*
X17972006Y-18488577D02*
X17964863Y-18495720D01*
X17972006Y-18502863D01*
X17979149Y-18495720D01*
X17972006Y-18488577D01*
X17972006Y-18502863D01*
X18064863Y-18638577D02*
X18050577Y-18631434D01*
X18043434Y-18617149D01*
X18043434Y-18488577D01*
X18179149Y-18631434D02*
X18164863Y-18638577D01*
X18136291Y-18638577D01*
X18122006Y-18631434D01*
X18114863Y-18617149D01*
X18114863Y-18560006D01*
X18122006Y-18545720D01*
X18136291Y-18538577D01*
X18164863Y-18538577D01*
X18179149Y-18545720D01*
X18186291Y-18560006D01*
X18186291Y-18574291D01*
X18114863Y-18588577D01*
X18250577Y-18624291D02*
X18257720Y-18631434D01*
X18250577Y-18638577D01*
X18243434Y-18631434D01*
X18250577Y-18624291D01*
X18250577Y-18638577D01*
X18250577Y-18545720D02*
X18257720Y-18552863D01*
X18250577Y-18560006D01*
X18243434Y-18552863D01*
X18250577Y-18545720D01*
X18250577Y-18560006D01*
X18436291Y-18638577D02*
X18436291Y-18488577D01*
X18436291Y-18545720D02*
X18450577Y-18538577D01*
X18479149Y-18538577D01*
X18493434Y-18545720D01*
X18500577Y-18552863D01*
X18507720Y-18567149D01*
X18507720Y-18610006D01*
X18500577Y-18624291D01*
X18493434Y-18631434D01*
X18479149Y-18638577D01*
X18450577Y-18638577D01*
X18436291Y-18631434D01*
X18593434Y-18638577D02*
X18579149Y-18631434D01*
X18572006Y-18617149D01*
X18572006Y-18488577D01*
X18714863Y-18538577D02*
X18714863Y-18638577D01*
X18650577Y-18538577D02*
X18650577Y-18617149D01*
X18657720Y-18631434D01*
X18672006Y-18638577D01*
X18693434Y-18638577D01*
X18707720Y-18631434D01*
X18714863Y-18624291D01*
X18843434Y-18631434D02*
X18829149Y-18638577D01*
X18800577Y-18638577D01*
X18786291Y-18631434D01*
X18779149Y-18617149D01*
X18779149Y-18560006D01*
X18786291Y-18545720D01*
X18800577Y-18538577D01*
X18829149Y-18538577D01*
X18843434Y-18545720D01*
X18850577Y-18560006D01*
X18850577Y-18574291D01*
X18779149Y-18588577D01*
X18893434Y-18538577D02*
X18950577Y-18538577D01*
X18914863Y-18488577D02*
X18914863Y-18617149D01*
X18922006Y-18631434D01*
X18936291Y-18638577D01*
X18950577Y-18638577D01*
X19022006Y-18638577D02*
X19007720Y-18631434D01*
X19000577Y-18624291D01*
X18993434Y-18610006D01*
X18993434Y-18567149D01*
X19000577Y-18552863D01*
X19007720Y-18545720D01*
X19022006Y-18538577D01*
X19043434Y-18538577D01*
X19057720Y-18545720D01*
X19064863Y-18552863D01*
X19072006Y-18567149D01*
X19072006Y-18610006D01*
X19064863Y-18624291D01*
X19057720Y-18631434D01*
X19043434Y-18638577D01*
X19022006Y-18638577D01*
X19157720Y-18638577D02*
X19143434Y-18631434D01*
X19136291Y-18624291D01*
X19129149Y-18610006D01*
X19129149Y-18567149D01*
X19136291Y-18552863D01*
X19143434Y-18545720D01*
X19157720Y-18538577D01*
X19179149Y-18538577D01*
X19193434Y-18545720D01*
X19200577Y-18552863D01*
X19207720Y-18567149D01*
X19207720Y-18610006D01*
X19200577Y-18624291D01*
X19193434Y-18631434D01*
X19179149Y-18638577D01*
X19157720Y-18638577D01*
X19250577Y-18538577D02*
X19307720Y-18538577D01*
X19272006Y-18488577D02*
X19272006Y-18617149D01*
X19279149Y-18631434D01*
X19293434Y-18638577D01*
X19307720Y-18638577D01*
X19357720Y-18638577D02*
X19357720Y-18488577D01*
X19422006Y-18638577D02*
X19422006Y-18560006D01*
X19414863Y-18545720D01*
X19400577Y-18538577D01*
X19379149Y-18538577D01*
X19364863Y-18545720D01*
X19357720Y-18552863D01*
X19493434Y-18624291D02*
X19500577Y-18631434D01*
X19493434Y-18638577D01*
X19486291Y-18631434D01*
X19493434Y-18624291D01*
X19493434Y-18638577D01*
X19564863Y-18638577D02*
X19564863Y-18488577D01*
X19579149Y-18581434D02*
X19622006Y-18638577D01*
X19622006Y-18538577D02*
X19564863Y-18595720D01*
X19686291Y-18638577D02*
X19686291Y-18538577D01*
X19686291Y-18488577D02*
X19679149Y-18495720D01*
X19686291Y-18502863D01*
X19693434Y-18495720D01*
X19686291Y-18488577D01*
X19686291Y-18502863D01*
X19822006Y-18631434D02*
X19807720Y-18638577D01*
X19779149Y-18638577D01*
X19764863Y-18631434D01*
X19757720Y-18624291D01*
X19750577Y-18610006D01*
X19750577Y-18567149D01*
X19757720Y-18552863D01*
X19764863Y-18545720D01*
X19779149Y-18538577D01*
X19807720Y-18538577D01*
X19822006Y-18545720D01*
X19950577Y-18638577D02*
X19950577Y-18560006D01*
X19943434Y-18545720D01*
X19929149Y-18538577D01*
X19900577Y-18538577D01*
X19886291Y-18545720D01*
X19950577Y-18631434D02*
X19936291Y-18638577D01*
X19900577Y-18638577D01*
X19886291Y-18631434D01*
X19879149Y-18617149D01*
X19879149Y-18602863D01*
X19886291Y-18588577D01*
X19900577Y-18581434D01*
X19936291Y-18581434D01*
X19950577Y-18574291D01*
X20086291Y-18638577D02*
X20086291Y-18488577D01*
X20086291Y-18631434D02*
X20072006Y-18638577D01*
X20043434Y-18638577D01*
X20029149Y-18631434D01*
X20022006Y-18624291D01*
X20014863Y-18610006D01*
X20014863Y-18567149D01*
X20022006Y-18552863D01*
X20029149Y-18545720D01*
X20043434Y-18538577D01*
X20072006Y-18538577D01*
X20086291Y-18545720D01*
X20122006Y-18652863D02*
X20236291Y-18652863D01*
X20272006Y-18538577D02*
X20272006Y-18688577D01*
X20272006Y-18545720D02*
X20286291Y-18538577D01*
X20314863Y-18538577D01*
X20329149Y-18545720D01*
X20336291Y-18552863D01*
X20343434Y-18567149D01*
X20343434Y-18610006D01*
X20336291Y-18624291D01*
X20329149Y-18631434D01*
X20314863Y-18638577D01*
X20286291Y-18638577D01*
X20272006Y-18631434D01*
X20472006Y-18631434D02*
X20457720Y-18638577D01*
X20429149Y-18638577D01*
X20414863Y-18631434D01*
X20407720Y-18624291D01*
X20400577Y-18610006D01*
X20400577Y-18567149D01*
X20407720Y-18552863D01*
X20414863Y-18545720D01*
X20429149Y-18538577D01*
X20457720Y-18538577D01*
X20472006Y-18545720D01*
X20536291Y-18638577D02*
X20536291Y-18488577D01*
X20536291Y-18545720D02*
X20550577Y-18538577D01*
X20579149Y-18538577D01*
X20593434Y-18545720D01*
X20600577Y-18552863D01*
X20607720Y-18567149D01*
X20607720Y-18610006D01*
X20600577Y-18624291D01*
X20593434Y-18631434D01*
X20579149Y-18638577D01*
X20550577Y-18638577D01*
X20536291Y-18631434D01*
D10*
D11*
X17700220Y-18150720D02*
X28500220Y-18150720D01*
D10*
D11*
X17836291Y-18361434D02*
X17857720Y-18368577D01*
X17893434Y-18368577D01*
X17907720Y-18361434D01*
X17914863Y-18354291D01*
X17922006Y-18340006D01*
X17922006Y-18325720D01*
X17914863Y-18311434D01*
X17907720Y-18304291D01*
X17893434Y-18297149D01*
X17864863Y-18290006D01*
X17850577Y-18282863D01*
X17843434Y-18275720D01*
X17836291Y-18261434D01*
X17836291Y-18247149D01*
X17843434Y-18232863D01*
X17850577Y-18225720D01*
X17864863Y-18218577D01*
X17900577Y-18218577D01*
X17922006Y-18225720D01*
X17986291Y-18368577D02*
X17986291Y-18218577D01*
X18050577Y-18368577D02*
X18050577Y-18290006D01*
X18043434Y-18275720D01*
X18029149Y-18268577D01*
X18007720Y-18268577D01*
X17993434Y-18275720D01*
X17986291Y-18282863D01*
X18179149Y-18361434D02*
X18164863Y-18368577D01*
X18136291Y-18368577D01*
X18122006Y-18361434D01*
X18114863Y-18347149D01*
X18114863Y-18290006D01*
X18122006Y-18275720D01*
X18136291Y-18268577D01*
X18164863Y-18268577D01*
X18179149Y-18275720D01*
X18186291Y-18290006D01*
X18186291Y-18304291D01*
X18114863Y-18318577D01*
X18307720Y-18361434D02*
X18293434Y-18368577D01*
X18264863Y-18368577D01*
X18250577Y-18361434D01*
X18243434Y-18347149D01*
X18243434Y-18290006D01*
X18250577Y-18275720D01*
X18264863Y-18268577D01*
X18293434Y-18268577D01*
X18307720Y-18275720D01*
X18314863Y-18290006D01*
X18314863Y-18304291D01*
X18243434Y-18318577D01*
X18357720Y-18268577D02*
X18414863Y-18268577D01*
X18379149Y-18218577D02*
X18379149Y-18347149D01*
X18386291Y-18361434D01*
X18400577Y-18368577D01*
X18414863Y-18368577D01*
X18464863Y-18354291D02*
X18472006Y-18361434D01*
X18464863Y-18368577D01*
X18457720Y-18361434D01*
X18464863Y-18354291D01*
X18464863Y-18368577D01*
X18464863Y-18275720D02*
X18472006Y-18282863D01*
X18464863Y-18290006D01*
X18457720Y-18282863D01*
X18464863Y-18275720D01*
X18464863Y-18290006D01*
D10*
D11*
X19700220Y-19150720D02*
X19700220Y-19450720D01*
D10*
D11*
X26100220Y-19150720D02*
X26100220Y-19800720D01*
D14*
%TO.P,Cap_2,1*%
%TO.N,Net-(Cap_2-Pad1)*%
X14015181Y-9255419D03*
%TO.P,Cap_2,2*%
%TO.N,N/C*%
X14015181Y-9510419D03*
%TD*%
D15*
%TO.P,Cap_4,1*%
%TO.N,GND*%
X14030681Y-8396419D03*
%TO.P,Cap_4,2*%
X14285681Y-8396419D03*
%TD*%
D14*
%TO.P,Cap_1,1*%
%TO.N,Net-(Cap_1-Pad1)*%
X14017181Y-8831419D03*
%TO.P,Cap_1,2*%
%TO.N,GND*%
X14017181Y-8576419D03*
%TD*%
D15*
%TO.P,Cap_3,1*%
%TO.N,GND*%
X14020181Y-9071419D03*
%TO.P,Cap_3,2*%
X14275181Y-9071419D03*
%TD*%
D16*
%TO.P,U102,1*%
%TO.N,Net-(U102-Pad1)*%
X14719181Y-10243419D03*
%TD*%
%TO.P,U26,GND*%
%TO.N,GND*%
X13449181Y-11519419D03*
%TD*%
%TO.P,U8,1*%
%TO.N,N/C*%
X13449181Y-11265419D03*
%TD*%
D17*
%TO.P,U1,1*%
%TO.N,DEC1*%
X13733019Y-10800325D03*
%TO.P,U1,2*%
%TO.N,P0.00/XL1*%
X13773019Y-10800325D03*
%TO.P,U1,3*%
%TO.N,P0.01/XL2*%
X13813019Y-10800325D03*
%TO.P,U1,4*%
%TO.N,N/C*%
X13853019Y-10800325D03*
%TO.P,U1,5*%
X13893019Y-10800325D03*
%TO.P,U1,6*%
X13933019Y-10800325D03*
%TO.P,U1,7*%
X13973019Y-10800325D03*
%TO.P,U1,8*%
X14013019Y-10800325D03*
%TO.P,U1,9*%
X14053019Y-10800325D03*
%TO.P,U1,10*%
X14093019Y-10800325D03*
%TO.P,U1,11*%
X14133019Y-10800325D03*
%TO.P,U1,12*%
X14173019Y-10800325D03*
D18*
%TO.P,U1,13*%
%TO.N,VDD_NRF*%
X14255519Y-10717826D03*
%TO.P,U1,14*%
%TO.N,N/C*%
X14255519Y-10677826D03*
%TO.P,U1,15*%
X14255519Y-10637825D03*
%TO.P,U1,16*%
X14255519Y-10597826D03*
%TO.P,U1,17*%
X14255519Y-10557826D03*
%TO.P,U1,18*%
X14255519Y-10517825D03*
%TO.P,U1,19*%
X14255519Y-10477825D03*
%TO.P,U1,20*%
X14255519Y-10437825D03*
%TO.P,U1,21*%
X14255519Y-10397825D03*
%TO.P,U1,22*%
X14255519Y-10357825D03*
%TO.P,U1,23*%
X14255519Y-10317825D03*
%TO.P,U1,24*%
X14255519Y-10277825D03*
D17*
%TO.P,U1,25*%
X14173019Y-10195325D03*
%TO.P,U1,26*%
X14133019Y-10195325D03*
%TO.P,U1,27*%
X14093019Y-10195325D03*
%TO.P,U1,28*%
X14053019Y-10195325D03*
%TO.P,U1,29*%
X14013019Y-10195325D03*
%TO.P,U1,30*%
X13973019Y-10195325D03*
%TO.P,U1,31*%
%TO.N,GND*%
X13933019Y-10195325D03*
%TO.P,U1,32*%
%TO.N,DEC2*%
X13893019Y-10195325D03*
%TO.P,U1,33*%
%TO.N,DEC3*%
X13853019Y-10195325D03*
%TO.P,U1,34*%
%TO.N,XC1*%
X13813019Y-10195325D03*
%TO.P,U1,35*%
%TO.N,XC2*%
X13773019Y-10195325D03*
%TO.P,U1,36*%
%TO.N,VDD_NRF*%
X13733019Y-10195325D03*
D18*
%TO.P,U1,37*%
%TO.N,N/C*%
X13650519Y-10277825D03*
%TO.P,U1,38*%
X13650519Y-10317826D03*
%TO.P,U1,39*%
X13650519Y-10357825D03*
%TO.P,U1,40*%
X13650519Y-10397825D03*
%TO.P,U1,41*%
X13650519Y-10437826D03*
%TO.P,U1,42*%
X13650519Y-10477825D03*
%TO.P,U1,43*%
X13650519Y-10517826D03*
%TO.P,U1,44*%
X13650519Y-10557826D03*
%TO.P,U1,45*%
%TO.N,GND*%
X13650519Y-10597826D03*
%TO.P,U1,46*%
%TO.N,DEC4*%
X13650519Y-10637826D03*
%TO.P,U1,47*%
%TO.N,NetL2_2*%
X13650519Y-10677826D03*
%TO.P,U1,48*%
%TO.N,VDD_NRF*%
X13650519Y-10717826D03*
D19*
%TO.P,U1,49*%
%TO.N,GND*%
X13953019Y-10497825D03*
%TD*%
D16*
%TO.P,U33,1*%
%TO.N,N/C*%
X14719181Y-11265419D03*
%TD*%
%TO.P,U31,1*%
%TO.N,N/C*%
X15481181Y-10757419D03*
%TD*%
%TO.P,U25,1*%
%TO.N,N/C*%
X15222181Y-11513419D03*
%TD*%
%TO.P,U20,1*%
%TO.N,N/C*%
X15222181Y-10497419D03*
%TD*%
%TO.P,U19,1*%
%TO.N,N/C*%
X14719181Y-9741419D03*
%TD*%
D20*
%TO.P,C12,1*%
%TO.N,P0.01/XL2*%
X14222259Y-11194586D03*
%TO.P,C12,2*%
%TO.N,GND*%
X14222259Y-11294586D03*
%TD*%
D21*
%TO.P,C10,2*%
%TO.N,DEC4*%
X13221899Y-10728685D03*
D22*
%TD*%
%TO.N,DEC4*%
%TO.C,C10*%
G36*
X13276337Y-10735222D02*
G01*
X13218884Y-10783431D01*
X13167461Y-10722148D01*
X13224914Y-10673939D01*
X13276337Y-10735222D01*
X13276337Y-10735222D01*
G37*
D21*
%TO.P,C10,1*%
%TO.N,GND*%
X13118483Y-10815462D03*
D22*
%TD*%
%TO.N,GND*%
%TO.C,C10*%
G36*
X13172921Y-10821999D02*
G01*
X13115468Y-10870208D01*
X13064045Y-10808925D01*
X13121498Y-10760716D01*
X13172921Y-10821999D01*
X13172921Y-10821999D01*
G37*
D23*
%TO.P,L3,2*%
%TO.N,NetL2_1*%
X13292938Y-10810121D03*
D22*
%TD*%
%TO.N,NetL2_1*%
%TO.C,L3*%
G36*
X13333904Y-10808382D02*
G01*
X13284111Y-10850163D01*
X13251972Y-10811861D01*
X13301765Y-10770079D01*
X13333904Y-10808382D01*
X13333904Y-10808382D01*
G37*
D23*
%TO.P,L3,1*%
%TO.N,DEC4*%
X13220164Y-10871186D03*
D22*
%TD*%
%TO.N,DEC4*%
%TO.C,L3*%
G36*
X13261130Y-10869447D02*
G01*
X13211337Y-10911228D01*
X13179198Y-10872926D01*
X13228991Y-10831144D01*
X13261130Y-10869447D01*
X13261130Y-10869447D01*
G37*
D24*
%TO.P,L2,1*%
%TO.N,NetL2_1*%
X13397323Y-10723885D03*
%TO.P,L2,2*%
%TO.N,NetL2_2*%
X13532323Y-10723885D03*
%TD*%
D20*
%TO.P,C4,1*%
%TO.N,DEC1*%
X13765059Y-10981226D03*
%TO.P,C4,2*%
%TO.N,GND*%
X13765059Y-11081226D03*
%TD*%
%TO.P,C5,1*%
%TO.N,VDD_NRF*%
X14361959Y-10732306D03*
%TO.P,C5,2*%
%TO.N,GND*%
X14361959Y-10832306D03*
%TD*%
%TO.P,C7,1*%
%TO.N,DEC3*%
X13691399Y-10019505D03*
%TO.P,C7,2*%
%TO.N,GND*%
X13691399Y-9919505D03*
%TD*%
D25*
%TO.P,C1,1*%
%TO.N,XC1*%
X13443261Y-9649482D03*
%TO.P,C1,2*%
%TO.N,GND*%
X13543261Y-9649482D03*
%TD*%
D26*
%TO.P,X1,3*%
%TO.N,XC2*%
X13550761Y-9899782D03*
%TO.P,X1,2*%
%TO.N,GND*%
X13435761Y-9899782D03*
%TO.P,X1,1*%
%TO.N,XC1*%
X13435761Y-9754782D03*
%TO.P,X1,4*%
%TO.N,GND*%
X13550761Y-9754782D03*
%TD*%
D25*
%TO.P,C8,1*%
%TO.N,VDD_NRF*%
X13543261Y-10093982D03*
%TO.P,C8,2*%
%TO.N,GND*%
X13443261Y-10093982D03*
%TD*%
D27*
%TO.P,C9,2*%
%TO.N,GND*%
X13660919Y-11098725D03*
%TO.P,C9,1*%
%TO.N,VDD_NRF*%
X13660919Y-10963725D03*
%TD*%
D20*
%TO.P,C6,1*%
%TO.N,GND*%
X13780299Y-9919506D03*
%TO.P,C6,2*%
%TO.N,DEC2*%
X13780299Y-10019506D03*
%TD*%
D25*
%TO.P,C2,1*%
%TO.N,XC2*%
X13543261Y-10005082D03*
%TO.P,C2,2*%
%TO.N,GND*%
X13443261Y-10005082D03*
%TD*%
%TO.P,C3,1*%
%TO.N,GND*%
X13903019Y-10078725D03*
%TO.P,C3,2*%
%TO.N,N/C*%
X14003019Y-10078725D03*
%TD*%
D28*
%TO.P,X2,2*%
%TO.N,P0.01/XL2*%
X14116119Y-11244585D03*
%TO.P,X2,1*%
%TO.N,P0.00/XL1*%
X13866120Y-11244585D03*
%TD*%
D25*
%TO.P,C11,1*%
%TO.N,P0.00/XL1*%
X13857299Y-11102345D03*
%TO.P,C11,2*%
%TO.N,GND*%
X13957299Y-11102345D03*
%TD*%
D20*
%TO.P,C13,1*%
%TO.N,DEC4*%
X13295159Y-10629105D03*
%TO.P,C13,2*%
%TO.N,GND*%
X13295159Y-10529105D03*
%TD*%
D16*
%TO.P,U32,1*%
%TO.N,Net-(U32-Pad1)*%
X14973181Y-11519419D03*
%TD*%
%TO.P,U30,1*%
%TO.N,Net-(U30-Pad1)*%
X15227181Y-11265419D03*
%TD*%
%TO.P,U29,1*%
%TO.N,Net-(U29-Pad1)*%
X14719181Y-11519419D03*
%TD*%
%TO.P,U28,1*%
%TO.N,Net-(U28-Pad1)*%
X15476181Y-11513419D03*
%TD*%
%TO.P,U27,1*%
%TO.N,Net-(U27-Pad1)*%
X15476181Y-10497419D03*
%TD*%
%TO.P,U24,1*%
%TO.N,Net-(U24-Pad1)*%
X15735181Y-11265419D03*
%TD*%
%TO.P,U23,1*%
%TO.N,Net-(U23-Pad1)*%
X15481181Y-10249419D03*
%TD*%
%TO.P,U102,1*%
%TO.N,Net-(U102-Pad1)*%
X14968181Y-10243419D03*
%TD*%
%TO.P,U21,1*%
%TO.N,Net-(U21-Pad1)*%
X14968181Y-11259419D03*
%TD*%
%TO.P,U18,1*%
%TO.N,Net-(U18-Pad1)*%
X14991181Y-10494419D03*
%TD*%
%TO.P,U17,1*%
%TO.N,Net-(U17-Pad1)*%
X15222181Y-10751419D03*
%TD*%
%TO.P,U16,1*%
%TO.N,Net-(U16-Pad1)*%
X14968181Y-9735419D03*
%TD*%
%TO.P,U15,1*%
%TO.N,Net-(U15-Pad1)*%
X14714181Y-9481419D03*
%TD*%
%TO.P,U14,1*%
%TO.N,Net-(U14-Pad1)*%
X14714181Y-10751419D03*
%TD*%
%TO.P,U13,1*%
%TO.N,Net-(U13-Pad1)*%
X15222181Y-10243419D03*
%TD*%
%TO.P,U12,1*%
%TO.N,Net-(U12-Pad1)*%
X14968181Y-9481419D03*
%TD*%
%TO.P,U11,1*%
%TO.N,Net-(U11-Pad1)*%
X14968181Y-10751419D03*
%TD*%
%TO.P,U10,1*%
%TO.N,Net-(U10-Pad1)*%
X15222181Y-9735419D03*
%TD*%
%TO.P,U9,1*%
%TO.N,Net-(U9-Pad1)*%
X15476181Y-11259419D03*
%TD*%
%TO.P,U7,1*%
%TO.N,Net-(U7-Pad1)*%
X12687181Y-11265419D03*
%TD*%
%TO.P,U6,1*%
%TO.N,Net-(U6-Pad1)*%
X12682181Y-10497419D03*
%TD*%
%TO.P,U5,1*%
%TO.N,Net-(U5-Pad1)*%
X12687181Y-11011419D03*
%TD*%
%TO.P,U4,1*%
%TO.N,Net-(U4-Pad1)*%
X12687181Y-10249419D03*
%TD*%
%TO.P,U3,1*%
%TO.N,Net-(U3-Pad1)*%
X12682181Y-9989419D03*
%TD*%
%TO.P,U2,1*%
%TO.N,Net-(U2-Pad1)*%
X12687181Y-10749419D03*
%TD*%
%TO.P,U1,1*%
%TO.N,Net-(U1-Pad1)*%
X12687181Y-9749419D03*
%TD*%
D29*
%TO.N,*%
X14856778Y-10455875D03*
X14636783Y-10476465D03*
X14725811Y-10499285D03*
X14802331Y-10530188D03*
X13551681Y-10165102D03*
X14443239Y-10736585D03*
X13585319Y-11030826D03*
D30*
%TO.N,GND*%
X13834200Y-8929619D03*
X14195200Y-8854619D03*
X14180200Y-9234619D03*
X13855200Y-9238619D03*
X13840200Y-9411619D03*
X14185200Y-9418619D03*
X14361200Y-9012619D03*
X14363200Y-9125619D03*
X16316790Y-11979020D03*
X16316790Y-11279020D03*
X16216790Y-8279020D03*
X16016790Y-8279020D03*
X15816790Y-8279020D03*
X16416790Y-8879020D03*
X14275400Y-8264619D03*
X14199200Y-8264619D03*
X14199200Y-8340819D03*
X14199200Y-8417019D03*
X14199200Y-8493219D03*
X14199200Y-8569419D03*
X14199200Y-8645619D03*
D29*
X14143118Y-9830703D03*
X14265790Y-10802020D03*
X14139790Y-9941020D03*
D30*
X14580200Y-8264619D03*
X13818200Y-8569419D03*
X13818200Y-8645619D03*
X13742000Y-8264619D03*
X13665800Y-8264619D03*
X13589600Y-8264619D03*
X13513400Y-8264619D03*
X13361000Y-8264619D03*
X13284800Y-8264619D03*
X14732600Y-8264619D03*
X14808800Y-8264619D03*
X14885000Y-8264619D03*
X14961200Y-8264619D03*
X15037400Y-8264619D03*
X14351600Y-8264619D03*
X13437200Y-8264619D03*
X14504000Y-8264619D03*
X15113600Y-8264619D03*
X13818200Y-8264619D03*
X13818200Y-8340819D03*
X13818200Y-8417019D03*
X13818200Y-8493219D03*
X14656400Y-8264619D03*
X14427800Y-8264619D03*
X12370400Y-8340819D03*
X12370400Y-8569419D03*
X12370400Y-8798019D03*
X12751400Y-8340819D03*
X13132400Y-8340819D03*
X16416790Y-8279020D03*
X16416790Y-8579020D03*
X15916790Y-11979020D03*
X15516790Y-11979020D03*
X16316790Y-11679020D03*
X12370400Y-11922219D03*
X12370400Y-11465019D03*
X12827600Y-11922219D03*
X15189800Y-8264619D03*
X15266000Y-8264619D03*
X15342200Y-8264619D03*
X15418400Y-8264619D03*
D29*
X14303539Y-11300465D03*
X14566790Y-10784020D03*
X13058939Y-10728965D03*
X13443261Y-10175262D03*
X13536450Y-10586734D03*
X13058933Y-9649474D03*
X13067790Y-10192020D03*
X13545006Y-10848958D03*
X13141156Y-11218867D03*
X13058939Y-10924545D03*
X13069790Y-10550020D03*
X13973339Y-11206485D03*
X14443239Y-11300465D03*
X14443239Y-9649465D03*
X14418790Y-9937020D03*
X14117790Y-9652020D03*
X13862790Y-9644020D03*
X13625349Y-9649476D03*
X13340861Y-9911102D03*
X13211333Y-9649474D03*
X13361190Y-10007614D03*
X13361190Y-10093974D03*
X13198790Y-10567020D03*
X13548304Y-11396996D03*
X13464263Y-10979188D03*
X13019735Y-11112947D03*
X13292135Y-11594710D03*
X14477790Y-10833020D03*
X13753373Y-11184950D03*
X13218959Y-11076945D03*
X13656790Y-9745020D03*
D31*
X13773019Y-10677825D03*
X13773019Y-10557826D03*
X13773019Y-10437826D03*
X13773019Y-10317826D03*
X13893019Y-10677825D03*
X13893019Y-10557826D03*
X13893019Y-10437826D03*
X13893019Y-10317826D03*
X14013019Y-10677825D03*
X14013019Y-10557826D03*
X14013019Y-10437826D03*
X14013019Y-10317826D03*
X14133019Y-10677825D03*
X14133019Y-10557826D03*
X14133019Y-10437826D03*
X14133019Y-10317826D03*
D29*
X13718790Y-9812020D03*
X13854790Y-9802020D03*
X13882181Y-9943419D03*
%TD*%
D32*
%TO.N,*%
X15088655Y-9870190D02*
X15223019Y-9735825D01*
X15088655Y-9870190D02*
X14940335Y-9870190D01*
X14615199Y-10195325D02*
X14940335Y-9870190D01*
X14615199Y-10195325D02*
X14173019Y-10195325D01*
X12683019Y-11259825D02*
X12853019Y-11089826D01*
X12853019Y-11089826D02*
X12853019Y-10640246D01*
X12853019Y-10640246D02*
X13025919Y-10467345D01*
X13546033Y-10467345D02*
X13025919Y-10467345D01*
X13596513Y-10517826D02*
X13546033Y-10467345D01*
X13650519Y-10517826D02*
X13596513Y-10517826D01*
X12683019Y-11005825D02*
X12813019Y-10875825D01*
X12813019Y-10875825D02*
X12813019Y-10637140D01*
X12813019Y-10637140D02*
X13013294Y-10436865D01*
X13558658Y-10436865D02*
X13013294Y-10436865D01*
X13599618Y-10477825D02*
X13558658Y-10436865D01*
X13650519Y-10477825D02*
X13599618Y-10477825D01*
X12683019Y-10497825D02*
X12804939Y-10375905D01*
X13586691Y-10375905D02*
X12804939Y-10375905D01*
X13608611Y-10397826D02*
X13586691Y-10375905D01*
X13650519Y-10397826D02*
X13608611Y-10397826D01*
X14969019Y-11259825D02*
X14747669Y-11038475D01*
X14747669Y-11038475D02*
X14154608Y-11038475D01*
X13973019Y-10856886D02*
X13973019Y-10800325D01*
X14154608Y-11038475D02*
X13973019Y-10856886D01*
X14702498Y-11069220D02*
X14141873Y-11069220D01*
X14848518Y-11215240D02*
X14702498Y-11069220D01*
X14848518Y-11393324D02*
X14848518Y-11215240D01*
X14969019Y-11513825D02*
X14848518Y-11393324D01*
X13933019Y-10860366D02*
X13933019Y-10800325D01*
X14141873Y-11069220D02*
X13933019Y-10860366D01*
X14715019Y-11259825D02*
X14554946Y-11099752D01*
X14554946Y-11099752D02*
X14129225Y-11099752D01*
X13893019Y-10863546D02*
X13893019Y-10800325D01*
X14129225Y-11099752D02*
X13893019Y-10863546D01*
X14715019Y-11513825D02*
X14500224Y-11299030D01*
X14500224Y-11299030D02*
X14500224Y-11154729D01*
X14500224Y-11154729D02*
X14475781Y-11130285D01*
X14475781Y-11130285D02*
X14116579Y-11130285D01*
X13853019Y-10866726D02*
X13853019Y-10800325D01*
X14116579Y-11130285D02*
X13853019Y-10866726D01*
X14605256Y-10139965D02*
X14985812Y-9759409D01*
X14985812Y-9759409D02*
X14985812Y-9752619D01*
X14985812Y-9752619D02*
X14969019Y-9735825D01*
X14605256Y-10139965D02*
X14159409Y-10139965D01*
X14133019Y-10166355D02*
X14159409Y-10139965D01*
X14133019Y-10195325D02*
X14133019Y-10166355D01*
X12784619Y-10345425D02*
X12683019Y-10243825D01*
X13599316Y-10345425D02*
X12784619Y-10345425D01*
X13611716Y-10357825D02*
X13599316Y-10345425D01*
X13650519Y-10357825D02*
X13611716Y-10357825D01*
X12688174Y-9989825D02*
X12683019Y-9989825D01*
X13013294Y-10314945D02*
X12688174Y-9989825D01*
X13611941Y-10314945D02*
X13013294Y-10314945D01*
X13614821Y-10317826D02*
X13611941Y-10314945D01*
X13650519Y-10317826D02*
X13614821Y-10317826D01*
X12953019Y-10005825D02*
X12683019Y-9735825D01*
X12953019Y-10211565D02*
X12953019Y-10005825D01*
X13025919Y-10284465D02*
X12953019Y-10211565D01*
X13611286Y-10284465D02*
X13025919Y-10284465D01*
X13611286Y-10284465D02*
X13617926Y-10277825D01*
X13650519Y-10277825D02*
X13617926Y-10277825D01*
X14715019Y-9893305D02*
X14715019Y-9735825D01*
X14529599Y-10078725D02*
X14715019Y-9893305D01*
X14529599Y-10078725D02*
X14134114Y-10078725D01*
X14053019Y-10195325D02*
X14053019Y-10159820D01*
X14053019Y-10159820D02*
X14134114Y-10078725D01*
X14826838Y-9624007D02*
X14969019Y-9481825D01*
X14826838Y-9875278D02*
X14826838Y-9624007D01*
X14592631Y-10109485D02*
X14826838Y-9875278D01*
X14592631Y-10109485D02*
X14146459Y-10109485D01*
X14093019Y-10195325D02*
X14093019Y-10162925D01*
X14093019Y-10162925D02*
X14146459Y-10109485D01*
X14681019Y-10277825D02*
X14715019Y-10243825D01*
X14681019Y-10277825D02*
X14255519Y-10277825D01*
X14565052Y-10331686D02*
X14565053Y-10331685D01*
X14678626Y-10331685D02*
X14565053Y-10331685D01*
X14678627Y-10331686D02*
X14678626Y-10331685D01*
X14881159Y-10331686D02*
X14678627Y-10331686D01*
X14565052Y-10331686D02*
X14501497Y-10331686D01*
X14881159Y-10331686D02*
X14969019Y-10243825D01*
X14501497Y-10331686D02*
X14487637Y-10317825D01*
X14487637Y-10317825D02*
X14255519Y-10317825D01*
X14577677Y-10362166D02*
X14577678Y-10362165D01*
X14666001Y-10362165D02*
X14577678Y-10362165D01*
X14666002Y-10362166D02*
X14666001Y-10362165D01*
X15104679Y-10362166D02*
X14666002Y-10362166D01*
X14577677Y-10362166D02*
X14480599Y-10362166D01*
X15104679Y-10362166D02*
X15223019Y-10243825D01*
X14480599Y-10362166D02*
X14476259Y-10357825D01*
X14476259Y-10357825D02*
X14255519Y-10357825D01*
X14585123Y-10397825D02*
X14590303Y-10392645D01*
X14585123Y-10397825D02*
X14255519Y-10397825D01*
X14653376Y-10392645D02*
X14590303Y-10392645D01*
X14653377Y-10392646D02*
X14653376Y-10392645D01*
X14683263Y-10392646D02*
X14653377Y-10392646D01*
X14688443Y-10397825D02*
X14683263Y-10392646D01*
X15323019Y-10397825D02*
X14688443Y-10397825D01*
X15323019Y-10397825D02*
X15477019Y-10243825D01*
X14588228Y-10437825D02*
X14255519Y-10437825D01*
X14856778Y-10455875D02*
X14838729Y-10437825D01*
X14588228Y-10437825D02*
X14602928Y-10423125D01*
X14838729Y-10437825D02*
X14685338Y-10437825D01*
X14685338Y-10437825D02*
X14670638Y-10423126D01*
X14670638Y-10423126D02*
X14640751Y-10423126D01*
X14640751Y-10423126D02*
X14640751Y-10423125D01*
X14640751Y-10423125D02*
X14602928Y-10423125D01*
X14635423Y-10477825D02*
X14636783Y-10476465D01*
X14635423Y-10477825D02*
X14255519Y-10477825D01*
X14602928Y-10518044D02*
X14255738Y-10518044D01*
X14725811Y-10499285D02*
X14689397Y-10499285D01*
X14614689Y-10529805D02*
X14602928Y-10518044D01*
X14658877Y-10529805D02*
X14614689Y-10529805D01*
X14658877Y-10529805D02*
X14689397Y-10499285D01*
X14255738Y-10518044D02*
X14255519Y-10517825D01*
X14740245Y-10560285D02*
X14257979Y-10560285D01*
X14740245Y-10560285D02*
X14770343Y-10530188D01*
X14257979Y-10560285D02*
X14255519Y-10557826D01*
X14802331Y-10530188D02*
X14770343Y-10530188D01*
X15069019Y-10597826D02*
X14255519Y-10597826D01*
X15223019Y-10751825D02*
X15069019Y-10597826D01*
X14855019Y-10637825D02*
X14255519Y-10637825D01*
X14969019Y-10751825D02*
X14855019Y-10637825D01*
X14715019Y-10751825D02*
X14641019Y-10677826D01*
X14641019Y-10677826D02*
X14255519Y-10677826D01*
X15357269Y-10886075D02*
X14217734Y-10886075D01*
X15731019Y-11259825D02*
X15357269Y-10886075D01*
X14217734Y-10886075D02*
X14173019Y-10841361D01*
X14173019Y-10841361D02*
X14173019Y-10800325D01*
X15477019Y-11259825D02*
X15133749Y-10916555D01*
X15133749Y-10916555D02*
X14205108Y-10916555D01*
X14133019Y-10844466D02*
X14133019Y-10800325D01*
X14205108Y-10916555D02*
X14133019Y-10844466D01*
X15054508Y-10947035D02*
X14192483Y-10947035D01*
X15331032Y-11223559D02*
X15054508Y-10947035D01*
X15331032Y-11367838D02*
X15331032Y-11223559D01*
X15477019Y-11513825D02*
X15331032Y-11367838D01*
X14093019Y-10847571D02*
X14093019Y-10800325D01*
X14192483Y-10947035D02*
X14093019Y-10847571D01*
X15223019Y-11259825D02*
X14940709Y-10977515D01*
X14940709Y-10977515D02*
X14179858Y-10977515D01*
X14053019Y-10850676D02*
X14053019Y-10800325D01*
X14179858Y-10977515D02*
X14053019Y-10850676D01*
X14884609Y-11007995D02*
X14167233Y-11007995D01*
X15100867Y-11224252D02*
X14884609Y-11007995D01*
X15100867Y-11391673D02*
X15100867Y-11224252D01*
X15223019Y-11513825D02*
X15100867Y-11391673D01*
X14013019Y-10853782D02*
X14013019Y-10800325D01*
X14167233Y-11007995D02*
X14013019Y-10853782D01*
D33*
X14003179Y-9522421D02*
X14015181Y-9510419D01*
X14003179Y-9888185D02*
X14003179Y-9522421D01*
D34*
X13973019Y-10147827D02*
X14003998Y-10116848D01*
X13973019Y-10195325D02*
X13973019Y-10147827D01*
X14003998Y-10116848D02*
X14003998Y-10077925D01*
D35*
X14003499Y-9888505D02*
X14003179Y-9888185D01*
D33*
X14003499Y-10078726D02*
X14003499Y-9888505D01*
D36*
X13730287Y-10195574D02*
X13684212Y-10195574D01*
D34*
X13653019Y-10954826D02*
X13653019Y-10718805D01*
D36*
X13551681Y-10165102D02*
X13553421Y-10163362D01*
D37*
X14443239Y-10743948D02*
X14443239Y-10736585D01*
D34*
X14443239Y-10736585D02*
X14424479Y-10717826D01*
D36*
X13684212Y-10195574D02*
X13582620Y-10093982D01*
X13582620Y-10093982D02*
X13553421Y-10093982D01*
X13553421Y-10093982D02*
X13543261Y-10093982D01*
D34*
X13585319Y-11022526D02*
X13644519Y-10963326D01*
X13585319Y-11030826D02*
X13585319Y-11022526D01*
D37*
X13661519Y-10963326D02*
X13644519Y-10963326D01*
D34*
X13644519Y-10963326D02*
X13653019Y-10954826D01*
D36*
X13553421Y-10163362D02*
X13553421Y-10093982D01*
D32*
X14443238Y-10736585D02*
X14424479Y-10717826D01*
X14443239Y-10736585D02*
X14443238Y-10736585D01*
X14424480Y-10717826D02*
X14443239Y-10736585D01*
X14400774Y-10717826D02*
X14424480Y-10717826D01*
D34*
X14424479Y-10717826D02*
X14400774Y-10717826D01*
D32*
X14347479Y-10717826D02*
X14316774Y-10717826D01*
X14361959Y-10732306D02*
X14347479Y-10717826D01*
D34*
X14400774Y-10717826D02*
X14316774Y-10717826D01*
X14316774Y-10717826D02*
X14255519Y-10717826D01*
D32*
%TO.N,P0.01/XL2*%
X14116120Y-11244585D02*
X14166119Y-11194586D01*
X14222259Y-11194586D02*
X14166119Y-11194586D01*
X14116120Y-11244585D02*
X14116120Y-11173006D01*
X13813019Y-10869906D02*
X13813019Y-10800325D01*
X14116120Y-11173006D02*
X13813019Y-10869906D01*
%TO.N,P0.00/XL1*%
X13866120Y-10966112D02*
X13773019Y-10873011D01*
X13773019Y-10873011D02*
X13773019Y-10800325D01*
X13866120Y-11093524D02*
X13866120Y-11035480D01*
X13857299Y-11102345D02*
X13866120Y-11093524D01*
X13866120Y-11244585D02*
X13866120Y-11035480D01*
X13866120Y-11035480D02*
X13866120Y-10966112D01*
X13857299Y-11102345D02*
X13866120Y-11111166D01*
X13866120Y-11131358D02*
X13866120Y-11244585D01*
X13866120Y-11111166D02*
X13866120Y-11131358D01*
X13866120Y-11244585D02*
X13866120Y-11111166D01*
D34*
%TO.N,DEC4*%
X13220163Y-10725221D02*
X13290079Y-10655305D01*
X13647463Y-10637826D02*
X13581362Y-10637826D01*
X13563883Y-10655305D02*
X13581362Y-10637826D01*
X13563883Y-10655305D02*
X13290079Y-10655305D01*
X13220163Y-10871186D02*
X13220163Y-10725221D01*
D32*
%TO.N,DEC3*%
X13771924Y-10078726D02*
X13746796Y-10078725D01*
X13853019Y-10159820D02*
X13771924Y-10078726D01*
X13853019Y-10195325D02*
X13853019Y-10159820D01*
X13746796Y-10078725D02*
X13698384Y-10030313D01*
%TO.N,GND*%
X13449181Y-11519419D02*
X13449181Y-11472419D01*
D34*
X13650519Y-10597826D02*
X13538990Y-10597826D01*
X13932699Y-10436065D02*
X13932699Y-10147902D01*
X13903998Y-10119201D02*
X13903998Y-10077925D01*
X13932699Y-10147902D02*
X13903998Y-10119201D01*
X13733019Y-10597826D02*
X13650519Y-10597826D01*
D32*
X13292135Y-11369846D02*
X13141156Y-11218867D01*
X13292135Y-11594710D02*
X13292135Y-11369846D01*
X13125655Y-11218867D02*
X13019735Y-11112947D01*
X13141156Y-11218867D02*
X13125655Y-11218867D01*
D38*
X14016790Y-8576028D02*
X14016790Y-7779020D01*
X13800890Y-7779020D02*
X16316790Y-7779020D01*
X13800890Y-8185420D02*
X13800890Y-7779020D01*
D32*
X14265790Y-10802020D02*
X14289288Y-10802020D01*
X14289288Y-10802020D02*
X14308734Y-10821466D01*
X14308734Y-10821466D02*
X14333372Y-10821466D01*
X14344212Y-10832306D02*
X14361959Y-10832306D01*
X14333372Y-10821466D02*
X14344212Y-10832306D01*
D39*
%TO.N,DEC1*%
X13763119Y-10980827D02*
X13733019Y-10950726D01*
X13733019Y-10950726D02*
X13733019Y-10800325D01*
D32*
X13763519Y-10981226D02*
X13733019Y-10950726D01*
X13765059Y-10981226D02*
X13763519Y-10981226D01*
%TO.N,DEC2*%
X13893019Y-10156715D02*
X13780299Y-10043996D01*
X13893019Y-10195325D02*
X13893019Y-10156715D01*
X13780299Y-10043996D02*
X13780299Y-10019506D01*
X13780299Y-10019506D02*
X13780299Y-10017765D01*
D40*
%TO.N,NetL2_1*%
X13292938Y-10810121D02*
X13379174Y-10723885D01*
X13397323Y-10723885D02*
X13379174Y-10723885D01*
D34*
%TO.N,NetL2_2*%
X13650519Y-10677826D02*
X13608540Y-10677826D01*
X13562480Y-10723885D02*
X13608540Y-10677826D01*
X13562480Y-10723885D02*
X13532322Y-10723885D01*
D32*
%TO.N,XC1*%
X13759579Y-10109485D02*
X13692736Y-10109485D01*
X13813019Y-10162925D02*
X13759579Y-10109485D01*
X13813019Y-10195325D02*
X13813019Y-10162925D01*
X13610101Y-9827282D02*
X13498341Y-9827282D01*
X13498341Y-9827282D02*
X13443261Y-9772202D01*
X13692736Y-10109485D02*
X13635510Y-10052259D01*
X13635510Y-10052259D02*
X13635510Y-9852690D01*
X13635510Y-9852690D02*
X13610101Y-9827282D01*
X13443261Y-9772202D02*
X13443261Y-9649482D01*
%TO.N,XC2*%
X13773019Y-10166355D02*
X13746630Y-10139965D01*
X13773019Y-10195325D02*
X13773019Y-10166355D01*
X13746630Y-10139965D02*
X13679759Y-10139965D01*
X13679759Y-10139965D02*
X13605030Y-10065236D01*
X13605030Y-10065236D02*
X13605030Y-10022854D01*
X13605030Y-10022854D02*
X13587274Y-10005098D01*
X13587274Y-10005098D02*
X13544045Y-10005098D01*
X13543261Y-10010162D02*
X13543261Y-10005082D01*
X13543261Y-10005082D02*
X13543261Y-9914503D01*
X13543261Y-9914503D02*
X13563261Y-9894502D01*
%TO.N,Net-(U15-Pad1)*%
X12683019Y-10751825D02*
X12683019Y-10696385D01*
X12683019Y-10696385D02*
X12973019Y-10406385D01*
X13574066Y-10406385D02*
X12973019Y-10406385D01*
X13605506Y-10437826D02*
X13574066Y-10406385D01*
X13650519Y-10437826D02*
X13605506Y-10437826D01*
X14525041Y-9671804D02*
X14715019Y-9481825D01*
X14525041Y-10009624D02*
X14525041Y-9671804D01*
X14486419Y-10048245D02*
X14525041Y-10009624D01*
X14013019Y-10195325D02*
X14013019Y-10156715D01*
X14013019Y-10156715D02*
X14121489Y-10048245D01*
X14486419Y-10048245D02*
X14121489Y-10048245D01*
%TD*%
D36*
%TO.N,GND*%
G36*
X16424481Y-12021320D02*
G01*
X12274490Y-12021320D01*
X12274490Y-9850668D01*
X12625398Y-9849694D01*
X12631429Y-9853723D01*
X12652849Y-9862596D01*
X12675589Y-9867119D01*
X12698773Y-9867119D01*
X12721513Y-9862596D01*
X12723614Y-9861726D01*
X12892699Y-10030811D01*
X12892699Y-10109045D01*
X12797357Y-10013702D01*
X12799881Y-10001011D01*
X12799881Y-9977827D01*
X12795358Y-9955087D01*
X12786485Y-9933667D01*
X12773605Y-9914390D01*
X12757210Y-9897995D01*
X12737933Y-9885115D01*
X12716513Y-9876242D01*
X12693773Y-9871719D01*
X12670589Y-9871719D01*
X12647849Y-9876242D01*
X12626429Y-9885115D01*
X12607152Y-9897995D01*
X12590757Y-9914390D01*
X12577877Y-9933667D01*
X12569004Y-9955087D01*
X12564481Y-9977827D01*
X12564481Y-10001011D01*
X12569004Y-10023751D01*
X12577877Y-10045171D01*
X12590757Y-10064448D01*
X12607152Y-10080843D01*
X12626429Y-10093723D01*
X12647849Y-10102596D01*
X12670589Y-10107119D01*
X12693773Y-10107119D01*
X12715784Y-10102741D01*
X12898149Y-10285105D01*
X12809604Y-10285105D01*
X12801667Y-10277168D01*
X12804881Y-10261011D01*
X12804881Y-10237827D01*
X12800358Y-10215087D01*
X12791485Y-10193667D01*
X12778605Y-10174390D01*
X12762210Y-10157995D01*
X12742933Y-10145115D01*
X12721513Y-10136242D01*
X12698773Y-10131719D01*
X12675589Y-10131719D01*
X12652849Y-10136242D01*
X12631429Y-10145115D01*
X12612152Y-10157995D01*
X12595757Y-10174390D01*
X12582877Y-10193667D01*
X12574004Y-10215087D01*
X12569481Y-10237827D01*
X12569481Y-10261011D01*
X12574004Y-10283751D01*
X12582877Y-10305171D01*
X12595757Y-10324448D01*
X12612152Y-10340843D01*
X12631429Y-10353723D01*
X12652849Y-10362596D01*
X12675589Y-10367119D01*
X12698773Y-10367119D01*
X12717319Y-10363430D01*
X12724714Y-10370825D01*
X12712162Y-10383377D01*
X12693773Y-10379719D01*
X12670589Y-10379719D01*
X12647849Y-10384242D01*
X12626429Y-10393115D01*
X12607152Y-10405995D01*
X12590757Y-10422390D01*
X12577877Y-10441667D01*
X12569004Y-10463087D01*
X12564481Y-10485827D01*
X12564481Y-10509011D01*
X12569004Y-10531751D01*
X12577877Y-10553171D01*
X12590757Y-10572448D01*
X12607152Y-10588843D01*
X12626429Y-10601723D01*
X12647849Y-10610596D01*
X12670589Y-10615119D01*
X12678980Y-10615119D01*
X12659100Y-10634999D01*
X12652849Y-10636242D01*
X12631429Y-10645115D01*
X12612152Y-10657995D01*
X12595757Y-10674390D01*
X12582877Y-10693667D01*
X12574004Y-10715087D01*
X12569481Y-10737827D01*
X12569481Y-10761011D01*
X12574004Y-10783751D01*
X12582877Y-10805171D01*
X12595757Y-10824448D01*
X12612152Y-10840843D01*
X12631429Y-10853723D01*
X12652849Y-10862596D01*
X12675589Y-10867119D01*
X12698773Y-10867119D01*
X12721513Y-10862596D01*
X12742933Y-10853723D01*
X12752699Y-10847198D01*
X12752699Y-10850840D01*
X12707987Y-10895552D01*
X12698773Y-10893719D01*
X12675589Y-10893719D01*
X12652849Y-10898242D01*
X12631429Y-10907115D01*
X12612152Y-10919995D01*
X12595757Y-10936390D01*
X12582877Y-10955667D01*
X12574004Y-10977087D01*
X12569481Y-10999827D01*
X12569481Y-11023011D01*
X12574004Y-11045751D01*
X12582877Y-11067171D01*
X12595757Y-11086448D01*
X12612152Y-11102843D01*
X12631429Y-11115723D01*
X12652849Y-11124596D01*
X12675589Y-11129119D01*
X12698773Y-11129119D01*
X12721513Y-11124596D01*
X12741026Y-11116513D01*
X12707987Y-11149552D01*
X12698773Y-11147719D01*
X12675589Y-11147719D01*
X12652849Y-11152242D01*
X12631429Y-11161115D01*
X12612152Y-11173995D01*
X12595757Y-11190390D01*
X12582877Y-11209667D01*
X12574004Y-11231087D01*
X12569481Y-11253827D01*
X12569481Y-11277011D01*
X12574004Y-11299751D01*
X12582877Y-11321171D01*
X12595757Y-11340448D01*
X12612152Y-11356843D01*
X12631429Y-11369723D01*
X12652849Y-11378596D01*
X12675589Y-11383119D01*
X12698773Y-11383119D01*
X12721513Y-11378596D01*
X12742933Y-11369723D01*
X12762210Y-11356843D01*
X12778605Y-11340448D01*
X12791485Y-11321171D01*
X12800358Y-11299751D01*
X12804881Y-11277011D01*
X12804881Y-11253827D01*
X13331481Y-11253827D01*
X13331481Y-11277011D01*
X13336004Y-11299751D01*
X13344877Y-11321171D01*
X13357757Y-11340448D01*
X13374152Y-11356843D01*
X13393429Y-11369723D01*
X13414849Y-11378596D01*
X13437589Y-11383119D01*
X13460773Y-11383119D01*
X13483513Y-11378596D01*
X13504933Y-11369723D01*
X13524210Y-11356843D01*
X13540605Y-11340448D01*
X13553485Y-11321171D01*
X13562358Y-11299751D01*
X13566881Y-11277011D01*
X13566881Y-11253827D01*
X13562358Y-11231087D01*
X13553485Y-11209667D01*
X13540605Y-11190390D01*
X13524210Y-11173995D01*
X13504933Y-11161115D01*
X13483513Y-11152242D01*
X13460773Y-11147719D01*
X13437589Y-11147719D01*
X13414849Y-11152242D01*
X13393429Y-11161115D01*
X13374152Y-11173995D01*
X13357757Y-11190390D01*
X13344877Y-11209667D01*
X13336004Y-11231087D01*
X13331481Y-11253827D01*
X12804881Y-11253827D01*
X12800358Y-11231087D01*
X12799393Y-11228757D01*
X12893576Y-11134574D01*
X12895878Y-11132685D01*
X12901742Y-11125540D01*
X12903416Y-11123500D01*
X12909017Y-11113021D01*
X12909366Y-11111870D01*
X12912466Y-11101651D01*
X12913339Y-11092789D01*
X12913339Y-11092788D01*
X12913631Y-11089826D01*
X12913339Y-11086864D01*
X12913339Y-10665231D01*
X13050904Y-10527665D01*
X13521047Y-10527665D01*
X13551765Y-10558384D01*
X13553654Y-10560685D01*
X13555955Y-10562573D01*
X13562838Y-10568223D01*
X13562839Y-10568223D01*
X13566218Y-10570029D01*
X13566226Y-10570117D01*
X13567694Y-10574957D01*
X13556702Y-10578291D01*
X13545561Y-10584246D01*
X13537118Y-10591175D01*
X13372333Y-10591175D01*
X13372096Y-10588774D01*
X13369083Y-10578840D01*
X13364189Y-10569685D01*
X13357604Y-10561660D01*
X13349579Y-10555075D01*
X13340424Y-10550181D01*
X13330490Y-10547168D01*
X13320159Y-10546150D01*
X13270159Y-10546150D01*
X13259828Y-10547168D01*
X13249894Y-10550181D01*
X13240739Y-10555075D01*
X13232714Y-10561660D01*
X13226129Y-10569685D01*
X13221235Y-10578840D01*
X13218222Y-10588774D01*
X13217204Y-10599105D01*
X13217204Y-10621708D01*
X13208990Y-10623435D01*
X13199443Y-10627512D01*
X13190875Y-10633373D01*
X13133422Y-10681582D01*
X13126162Y-10689002D01*
X13120489Y-10697696D01*
X13116621Y-10707330D01*
X13114707Y-10717533D01*
X13114821Y-10727913D01*
X13116957Y-10738072D01*
X13121034Y-10747619D01*
X13126895Y-10756187D01*
X13156033Y-10790912D01*
X13156033Y-10823235D01*
X13145159Y-10832360D01*
X13137899Y-10839780D01*
X13132226Y-10848474D01*
X13128359Y-10858107D01*
X13126444Y-10868310D01*
X13126558Y-10878691D01*
X13128694Y-10888849D01*
X13132771Y-10898396D01*
X13138632Y-10906964D01*
X13170771Y-10945266D01*
X13178191Y-10952526D01*
X13186885Y-10958199D01*
X13196519Y-10962067D01*
X13206722Y-10963981D01*
X13217102Y-10963868D01*
X13227261Y-10961732D01*
X13236808Y-10957655D01*
X13245376Y-10951794D01*
X13295169Y-10910012D01*
X13302429Y-10902592D01*
X13305095Y-10898506D01*
X13309582Y-10896590D01*
X13318150Y-10890729D01*
X13367943Y-10848947D01*
X13375203Y-10841527D01*
X13380876Y-10832833D01*
X13384743Y-10823200D01*
X13385936Y-10816840D01*
X13434823Y-10816840D01*
X13445154Y-10815822D01*
X13455088Y-10812809D01*
X13464243Y-10807915D01*
X13464823Y-10807440D01*
X13465403Y-10807915D01*
X13474558Y-10812809D01*
X13484492Y-10815822D01*
X13494823Y-10816840D01*
X13569823Y-10816840D01*
X13580154Y-10815822D01*
X13588889Y-10813173D01*
X13588889Y-10884336D01*
X13583474Y-10888780D01*
X13576889Y-10896805D01*
X13571995Y-10905960D01*
X13568982Y-10915894D01*
X13567964Y-10926225D01*
X13567964Y-10949188D01*
X13567613Y-10949538D01*
X13561056Y-10950843D01*
X13545918Y-10957113D01*
X13532295Y-10966216D01*
X13520709Y-10977802D01*
X13511606Y-10991426D01*
X13505335Y-11006563D01*
X13502139Y-11022634D01*
X13502139Y-11039019D01*
X13505335Y-11055089D01*
X13511606Y-11070227D01*
X13520709Y-11083850D01*
X13532295Y-11095436D01*
X13545918Y-11104539D01*
X13561056Y-11110810D01*
X13577126Y-11114006D01*
X13593511Y-11114006D01*
X13609582Y-11110810D01*
X13624719Y-11104539D01*
X13638343Y-11095436D01*
X13649929Y-11083850D01*
X13659032Y-11070227D01*
X13665302Y-11055089D01*
X13665483Y-11054180D01*
X13700919Y-11054180D01*
X13708426Y-11053441D01*
X13710639Y-11055256D01*
X13719794Y-11060150D01*
X13729728Y-11063163D01*
X13740059Y-11064181D01*
X13776221Y-11064181D01*
X13775362Y-11067014D01*
X13774344Y-11077345D01*
X13774344Y-11122418D01*
X13772090Y-11125165D01*
X13767196Y-11134320D01*
X13764183Y-11144254D01*
X13763165Y-11154585D01*
X13763165Y-11334585D01*
X13764183Y-11344916D01*
X13767196Y-11354850D01*
X13772090Y-11364005D01*
X13778675Y-11372030D01*
X13786700Y-11378615D01*
X13795855Y-11383509D01*
X13805789Y-11386522D01*
X13816120Y-11387540D01*
X13916120Y-11387540D01*
X13926451Y-11386522D01*
X13936385Y-11383509D01*
X13945540Y-11378615D01*
X13953565Y-11372030D01*
X13960150Y-11364005D01*
X13965044Y-11354850D01*
X13968057Y-11344916D01*
X13969075Y-11334585D01*
X13969075Y-11154585D01*
X13968057Y-11144254D01*
X13965044Y-11134320D01*
X13960150Y-11125165D01*
X13953565Y-11117140D01*
X13945540Y-11110555D01*
X13940254Y-11107729D01*
X13940254Y-11082446D01*
X14013164Y-11155356D01*
X14013164Y-11334585D01*
X14014182Y-11344916D01*
X14017195Y-11354850D01*
X14022089Y-11364005D01*
X14028674Y-11372030D01*
X14036699Y-11378615D01*
X14045854Y-11383509D01*
X14055788Y-11386522D01*
X14066119Y-11387540D01*
X14166119Y-11387540D01*
X14176450Y-11386522D01*
X14186384Y-11383509D01*
X14195539Y-11378615D01*
X14203564Y-11372030D01*
X14210149Y-11364005D01*
X14215043Y-11354850D01*
X14218056Y-11344916D01*
X14219074Y-11334585D01*
X14219074Y-11277541D01*
X14247259Y-11277541D01*
X14257590Y-11276523D01*
X14267524Y-11273510D01*
X14276679Y-11268616D01*
X14284704Y-11262031D01*
X14291289Y-11254006D01*
X14296183Y-11244851D01*
X14299196Y-11234917D01*
X14300214Y-11224586D01*
X14300214Y-11190605D01*
X14439904Y-11190605D01*
X14439904Y-11296068D01*
X14439612Y-11299030D01*
X14439904Y-11301992D01*
X14439904Y-11301993D01*
X14440777Y-11310855D01*
X14444226Y-11322225D01*
X14446833Y-11327103D01*
X14449827Y-11332704D01*
X14451371Y-11334585D01*
X14457365Y-11341889D01*
X14459667Y-11343778D01*
X14605170Y-11489281D01*
X14601481Y-11507827D01*
X14601481Y-11531011D01*
X14606004Y-11553751D01*
X14614877Y-11575171D01*
X14627757Y-11594448D01*
X14644152Y-11610843D01*
X14663429Y-11623723D01*
X14684849Y-11632596D01*
X14707589Y-11637119D01*
X14730773Y-11637119D01*
X14753513Y-11632596D01*
X14774933Y-11623723D01*
X14794210Y-11610843D01*
X14810605Y-11594448D01*
X14823485Y-11575171D01*
X14832358Y-11553751D01*
X14836881Y-11531011D01*
X14836881Y-11507827D01*
X14832358Y-11485087D01*
X14823485Y-11463667D01*
X14810605Y-11444390D01*
X14794210Y-11427995D01*
X14774933Y-11415115D01*
X14753513Y-11406242D01*
X14730773Y-11401719D01*
X14707589Y-11401719D01*
X14691432Y-11404933D01*
X14560544Y-11274045D01*
X14560544Y-11190655D01*
X14605170Y-11235281D01*
X14601481Y-11253827D01*
X14601481Y-11277011D01*
X14606004Y-11299751D01*
X14614877Y-11321171D01*
X14627757Y-11340448D01*
X14644152Y-11356843D01*
X14663429Y-11369723D01*
X14684849Y-11378596D01*
X14707589Y-11383119D01*
X14730773Y-11383119D01*
X14753513Y-11378596D01*
X14774933Y-11369723D01*
X14788198Y-11360860D01*
X14788198Y-11390362D01*
X14787906Y-11393324D01*
X14788198Y-11396286D01*
X14788198Y-11396287D01*
X14789071Y-11405149D01*
X14792520Y-11416519D01*
X14792520Y-11416519D01*
X14798121Y-11426998D01*
X14800647Y-11430076D01*
X14805659Y-11436183D01*
X14807961Y-11438072D01*
X14859170Y-11489281D01*
X14855481Y-11507827D01*
X14855481Y-11531011D01*
X14860004Y-11553751D01*
X14868877Y-11575171D01*
X14881757Y-11594448D01*
X14898152Y-11610843D01*
X14917429Y-11623723D01*
X14938849Y-11632596D01*
X14961589Y-11637119D01*
X14984773Y-11637119D01*
X15007513Y-11632596D01*
X15028933Y-11623723D01*
X15048210Y-11610843D01*
X15064605Y-11594448D01*
X15077485Y-11575171D01*
X15086358Y-11553751D01*
X15090881Y-11531011D01*
X15090881Y-11507827D01*
X15086358Y-11485087D01*
X15077485Y-11463667D01*
X15064605Y-11444390D01*
X15048210Y-11427995D01*
X15028933Y-11415115D01*
X15007513Y-11406242D01*
X14984773Y-11401719D01*
X14961589Y-11401719D01*
X14945432Y-11404933D01*
X14908838Y-11368339D01*
X14908838Y-11361324D01*
X14912429Y-11363723D01*
X14933849Y-11372596D01*
X14956589Y-11377119D01*
X14979773Y-11377119D01*
X15002513Y-11372596D01*
X15023933Y-11363723D01*
X15040547Y-11352622D01*
X15040547Y-11388711D01*
X15040255Y-11391673D01*
X15040547Y-11394635D01*
X15040547Y-11394636D01*
X15041420Y-11403498D01*
X15044869Y-11414868D01*
X15046669Y-11418235D01*
X15050470Y-11425347D01*
X15051825Y-11426998D01*
X15058008Y-11434532D01*
X15060310Y-11436421D01*
X15108004Y-11484115D01*
X15104481Y-11501827D01*
X15104481Y-11525011D01*
X15109004Y-11547751D01*
X15117877Y-11569171D01*
X15130757Y-11588448D01*
X15147152Y-11604843D01*
X15166429Y-11617723D01*
X15187849Y-11626596D01*
X15210589Y-11631119D01*
X15233773Y-11631119D01*
X15256513Y-11626596D01*
X15277933Y-11617723D01*
X15297210Y-11604843D01*
X15313605Y-11588448D01*
X15326485Y-11569171D01*
X15335358Y-11547751D01*
X15339881Y-11525011D01*
X15339881Y-11501827D01*
X15335358Y-11479087D01*
X15326485Y-11457667D01*
X15313605Y-11438390D01*
X15297210Y-11421995D01*
X15277933Y-11409115D01*
X15256513Y-11400242D01*
X15233773Y-11395719D01*
X15210589Y-11395719D01*
X15193598Y-11399099D01*
X15161187Y-11366688D01*
X15161187Y-11362880D01*
X15171429Y-11369723D01*
X15192849Y-11378596D01*
X15215589Y-11383119D01*
X15238773Y-11383119D01*
X15261513Y-11378596D01*
X15271089Y-11374629D01*
X15271585Y-11379663D01*
X15275034Y-11391033D01*
X15275034Y-11391033D01*
X15280635Y-11401512D01*
X15282265Y-11403498D01*
X15288173Y-11410697D01*
X15290475Y-11412586D01*
X15362004Y-11484115D01*
X15358481Y-11501827D01*
X15358481Y-11525011D01*
X15363004Y-11547751D01*
X15371877Y-11569171D01*
X15384757Y-11588448D01*
X15401152Y-11604843D01*
X15420429Y-11617723D01*
X15441849Y-11626596D01*
X15464589Y-11631119D01*
X15487773Y-11631119D01*
X15510513Y-11626596D01*
X15531933Y-11617723D01*
X15551210Y-11604843D01*
X15567605Y-11588448D01*
X15580485Y-11569171D01*
X15589358Y-11547751D01*
X15593881Y-11525011D01*
X15593881Y-11501827D01*
X15589358Y-11479087D01*
X15580485Y-11457667D01*
X15567605Y-11438390D01*
X15551210Y-11421995D01*
X15531933Y-11409115D01*
X15510513Y-11400242D01*
X15487773Y-11395719D01*
X15464589Y-11395719D01*
X15447598Y-11399099D01*
X15391352Y-11342853D01*
X15391352Y-11341043D01*
X15401152Y-11350843D01*
X15420429Y-11363723D01*
X15441849Y-11372596D01*
X15464589Y-11377119D01*
X15487773Y-11377119D01*
X15510513Y-11372596D01*
X15531933Y-11363723D01*
X15551210Y-11350843D01*
X15567605Y-11334448D01*
X15580485Y-11315171D01*
X15589358Y-11293751D01*
X15593881Y-11271011D01*
X15593881Y-11247827D01*
X15589358Y-11225087D01*
X15580485Y-11203667D01*
X15567605Y-11184390D01*
X15551210Y-11167995D01*
X15531933Y-11155115D01*
X15510513Y-11146242D01*
X15487773Y-11141719D01*
X15464589Y-11141719D01*
X15447598Y-11145099D01*
X15248894Y-10946395D01*
X15332284Y-10946395D01*
X15621170Y-11235281D01*
X15617481Y-11253827D01*
X15617481Y-11277011D01*
X15622004Y-11299751D01*
X15630877Y-11321171D01*
X15643757Y-11340448D01*
X15660152Y-11356843D01*
X15679429Y-11369723D01*
X15700849Y-11378596D01*
X15723589Y-11383119D01*
X15746773Y-11383119D01*
X15769513Y-11378596D01*
X15790933Y-11369723D01*
X15810210Y-11356843D01*
X15826605Y-11340448D01*
X15839485Y-11321171D01*
X15848358Y-11299751D01*
X15852881Y-11277011D01*
X15852881Y-11253827D01*
X15848358Y-11231087D01*
X15839485Y-11209667D01*
X15826605Y-11190390D01*
X15810210Y-11173995D01*
X15790933Y-11161115D01*
X15769513Y-11152242D01*
X15746773Y-11147719D01*
X15723589Y-11147719D01*
X15707432Y-11150933D01*
X15402017Y-10845518D01*
X15400128Y-10843216D01*
X15390943Y-10835678D01*
X15380464Y-10830077D01*
X15369094Y-10826628D01*
X15360232Y-10825755D01*
X15360231Y-10825755D01*
X15357269Y-10825463D01*
X15354307Y-10825755D01*
X15314068Y-10825755D01*
X15326485Y-10807171D01*
X15335358Y-10785751D01*
X15339881Y-10763011D01*
X15339881Y-10745827D01*
X15363481Y-10745827D01*
X15363481Y-10769011D01*
X15368004Y-10791751D01*
X15376877Y-10813171D01*
X15389757Y-10832448D01*
X15406152Y-10848843D01*
X15425429Y-10861723D01*
X15446849Y-10870596D01*
X15469589Y-10875119D01*
X15492773Y-10875119D01*
X15515513Y-10870596D01*
X15536933Y-10861723D01*
X15556210Y-10848843D01*
X15572605Y-10832448D01*
X15585485Y-10813171D01*
X15594358Y-10791751D01*
X15598881Y-10769011D01*
X15598881Y-10745827D01*
X15594358Y-10723087D01*
X15585485Y-10701667D01*
X15572605Y-10682390D01*
X15556210Y-10665995D01*
X15536933Y-10653115D01*
X15515513Y-10644242D01*
X15492773Y-10639719D01*
X15469589Y-10639719D01*
X15446849Y-10644242D01*
X15425429Y-10653115D01*
X15406152Y-10665995D01*
X15389757Y-10682390D01*
X15376877Y-10701667D01*
X15368004Y-10723087D01*
X15363481Y-10745827D01*
X15339881Y-10745827D01*
X15339881Y-10739827D01*
X15335358Y-10717087D01*
X15326485Y-10695667D01*
X15313605Y-10676390D01*
X15297210Y-10659995D01*
X15277933Y-10647115D01*
X15256513Y-10638242D01*
X15233773Y-10633719D01*
X15210589Y-10633719D01*
X15193597Y-10637099D01*
X15113767Y-10557268D01*
X15111878Y-10554967D01*
X15102693Y-10547429D01*
X15097722Y-10544772D01*
X15104358Y-10528751D01*
X15106383Y-10518572D01*
X15109004Y-10531751D01*
X15117877Y-10553171D01*
X15130757Y-10572448D01*
X15147152Y-10588843D01*
X15166429Y-10601723D01*
X15187849Y-10610596D01*
X15210589Y-10615119D01*
X15233773Y-10615119D01*
X15256513Y-10610596D01*
X15277933Y-10601723D01*
X15297210Y-10588843D01*
X15313605Y-10572448D01*
X15326485Y-10553171D01*
X15335358Y-10531751D01*
X15339881Y-10509011D01*
X15339881Y-10485827D01*
X15358481Y-10485827D01*
X15358481Y-10509011D01*
X15363004Y-10531751D01*
X15371877Y-10553171D01*
X15384757Y-10572448D01*
X15401152Y-10588843D01*
X15420429Y-10601723D01*
X15441849Y-10610596D01*
X15464589Y-10615119D01*
X15487773Y-10615119D01*
X15510513Y-10610596D01*
X15531933Y-10601723D01*
X15551210Y-10588843D01*
X15567605Y-10572448D01*
X15580485Y-10553171D01*
X15589358Y-10531751D01*
X15593881Y-10509011D01*
X15593881Y-10485827D01*
X15589358Y-10463087D01*
X15580485Y-10441667D01*
X15567605Y-10422390D01*
X15551210Y-10405995D01*
X15531933Y-10393115D01*
X15510513Y-10384242D01*
X15487773Y-10379719D01*
X15464589Y-10379719D01*
X15441849Y-10384242D01*
X15420429Y-10393115D01*
X15401152Y-10405995D01*
X15384757Y-10422390D01*
X15371877Y-10441667D01*
X15363004Y-10463087D01*
X15358481Y-10485827D01*
X15339881Y-10485827D01*
X15335358Y-10463087D01*
X15333023Y-10457452D01*
X15334844Y-10457272D01*
X15346214Y-10453823D01*
X15356693Y-10448222D01*
X15365878Y-10440684D01*
X15367767Y-10438382D01*
X15444519Y-10361631D01*
X15446849Y-10362596D01*
X15469589Y-10367119D01*
X15492773Y-10367119D01*
X15515513Y-10362596D01*
X15536933Y-10353723D01*
X15556210Y-10340843D01*
X15572605Y-10324448D01*
X15585485Y-10305171D01*
X15594358Y-10283751D01*
X15598881Y-10261011D01*
X15598881Y-10237827D01*
X15594358Y-10215087D01*
X15585485Y-10193667D01*
X15572605Y-10174390D01*
X15556210Y-10157995D01*
X15536933Y-10145115D01*
X15515513Y-10136242D01*
X15492773Y-10131719D01*
X15469589Y-10131719D01*
X15446849Y-10136242D01*
X15425429Y-10145115D01*
X15406152Y-10157995D01*
X15389757Y-10174390D01*
X15376877Y-10193667D01*
X15368004Y-10215087D01*
X15363481Y-10237827D01*
X15363481Y-10261011D01*
X15365314Y-10270225D01*
X15298034Y-10337505D01*
X15293226Y-10337505D01*
X15297210Y-10334843D01*
X15313605Y-10318448D01*
X15326485Y-10299171D01*
X15335358Y-10277751D01*
X15339881Y-10255011D01*
X15339881Y-10231827D01*
X15335358Y-10209087D01*
X15326485Y-10187667D01*
X15313605Y-10168390D01*
X15297210Y-10151995D01*
X15277933Y-10139115D01*
X15256513Y-10130242D01*
X15233773Y-10125719D01*
X15210589Y-10125719D01*
X15187849Y-10130242D01*
X15166429Y-10139115D01*
X15147152Y-10151995D01*
X15130757Y-10168390D01*
X15117877Y-10187667D01*
X15109004Y-10209087D01*
X15104481Y-10231827D01*
X15104481Y-10255011D01*
X15108139Y-10273401D01*
X15079694Y-10301846D01*
X15070698Y-10301846D01*
X15072485Y-10299171D01*
X15081358Y-10277751D01*
X15085881Y-10255011D01*
X15085881Y-10231827D01*
X15081358Y-10209087D01*
X15072485Y-10187667D01*
X15059605Y-10168390D01*
X15043210Y-10151995D01*
X15023933Y-10139115D01*
X15002513Y-10130242D01*
X14979773Y-10125719D01*
X14956589Y-10125719D01*
X14933849Y-10130242D01*
X14912429Y-10139115D01*
X14893152Y-10151995D01*
X14876757Y-10168390D01*
X14863877Y-10187667D01*
X14855004Y-10209087D01*
X14850481Y-10231827D01*
X14850481Y-10255011D01*
X14853734Y-10271366D01*
X14833628Y-10271366D01*
X14836881Y-10255011D01*
X14836881Y-10231827D01*
X14832358Y-10209087D01*
X14823485Y-10187667D01*
X14810605Y-10168390D01*
X14794210Y-10151995D01*
X14774933Y-10139115D01*
X14762051Y-10133779D01*
X14965320Y-9930510D01*
X15085693Y-9930510D01*
X15088655Y-9930802D01*
X15091617Y-9930510D01*
X15091618Y-9930510D01*
X15100480Y-9929637D01*
X15111850Y-9926188D01*
X15122329Y-9920587D01*
X15131514Y-9913049D01*
X15133403Y-9910747D01*
X15194276Y-9849874D01*
X15210589Y-9853119D01*
X15233773Y-9853119D01*
X15256513Y-9848596D01*
X15277933Y-9839723D01*
X15297210Y-9826843D01*
X15313605Y-9810448D01*
X15326485Y-9791171D01*
X15335358Y-9769751D01*
X15339881Y-9747011D01*
X15339881Y-9723827D01*
X15335358Y-9701087D01*
X15326485Y-9679667D01*
X15313605Y-9660390D01*
X15297210Y-9643995D01*
X15277933Y-9631115D01*
X15256513Y-9622242D01*
X15233773Y-9617719D01*
X15210589Y-9617719D01*
X15187849Y-9622242D01*
X15166429Y-9631115D01*
X15147152Y-9643995D01*
X15130757Y-9660390D01*
X15117877Y-9679667D01*
X15109004Y-9701087D01*
X15104481Y-9723827D01*
X15104481Y-9747011D01*
X15108139Y-9765401D01*
X15063670Y-9809870D01*
X15059991Y-9809870D01*
X15072485Y-9791171D01*
X15081358Y-9769751D01*
X15085881Y-9747011D01*
X15085881Y-9723827D01*
X15081358Y-9701087D01*
X15072485Y-9679667D01*
X15059605Y-9660390D01*
X15043210Y-9643995D01*
X15023933Y-9631115D01*
X15002513Y-9622242D01*
X14979773Y-9617719D01*
X14956589Y-9617719D01*
X14933849Y-9622242D01*
X14912429Y-9631115D01*
X14893152Y-9643995D01*
X14887158Y-9649989D01*
X14887158Y-9648992D01*
X14940276Y-9595874D01*
X14956589Y-9599119D01*
X14979773Y-9599119D01*
X15002513Y-9594596D01*
X15023933Y-9585723D01*
X15043210Y-9572843D01*
X15059605Y-9556448D01*
X15072485Y-9537171D01*
X15081358Y-9515751D01*
X15083032Y-9507336D01*
X16424481Y-9501162D01*
X16424481Y-12021320D01*
X16424481Y-12021320D01*
G37*
X16424481Y-12021320D02*
X12274490Y-12021320D01*
X12274490Y-9850668D01*
X12625398Y-9849694D01*
X12631429Y-9853723D01*
X12652849Y-9862596D01*
X12675589Y-9867119D01*
X12698773Y-9867119D01*
X12721513Y-9862596D01*
X12723614Y-9861726D01*
X12892699Y-10030811D01*
X12892699Y-10109045D01*
X12797357Y-10013702D01*
X12799881Y-10001011D01*
X12799881Y-9977827D01*
X12795358Y-9955087D01*
X12786485Y-9933667D01*
X12773605Y-9914390D01*
X12757210Y-9897995D01*
X12737933Y-9885115D01*
X12716513Y-9876242D01*
X12693773Y-9871719D01*
X12670589Y-9871719D01*
X12647849Y-9876242D01*
X12626429Y-9885115D01*
X12607152Y-9897995D01*
X12590757Y-9914390D01*
X12577877Y-9933667D01*
X12569004Y-9955087D01*
X12564481Y-9977827D01*
X12564481Y-10001011D01*
X12569004Y-10023751D01*
X12577877Y-10045171D01*
X12590757Y-10064448D01*
X12607152Y-10080843D01*
X12626429Y-10093723D01*
X12647849Y-10102596D01*
X12670589Y-10107119D01*
X12693773Y-10107119D01*
X12715784Y-10102741D01*
X12898149Y-10285105D01*
X12809604Y-10285105D01*
X12801667Y-10277168D01*
X12804881Y-10261011D01*
X12804881Y-10237827D01*
X12800358Y-10215087D01*
X12791485Y-10193667D01*
X12778605Y-10174390D01*
X12762210Y-10157995D01*
X12742933Y-10145115D01*
X12721513Y-10136242D01*
X12698773Y-10131719D01*
X12675589Y-10131719D01*
X12652849Y-10136242D01*
X12631429Y-10145115D01*
X12612152Y-10157995D01*
X12595757Y-10174390D01*
X12582877Y-10193667D01*
X12574004Y-10215087D01*
X12569481Y-10237827D01*
X12569481Y-10261011D01*
X12574004Y-10283751D01*
X12582877Y-10305171D01*
X12595757Y-10324448D01*
X12612152Y-10340843D01*
X12631429Y-10353723D01*
X12652849Y-10362596D01*
X12675589Y-10367119D01*
X12698773Y-10367119D01*
X12717319Y-10363430D01*
X12724714Y-10370825D01*
X12712162Y-10383377D01*
X12693773Y-10379719D01*
X12670589Y-10379719D01*
X12647849Y-10384242D01*
X12626429Y-10393115D01*
X12607152Y-10405995D01*
X12590757Y-10422390D01*
X12577877Y-10441667D01*
X12569004Y-10463087D01*
X12564481Y-10485827D01*
X12564481Y-10509011D01*
X12569004Y-10531751D01*
X12577877Y-10553171D01*
X12590757Y-10572448D01*
X12607152Y-10588843D01*
X12626429Y-10601723D01*
X12647849Y-10610596D01*
X12670589Y-10615119D01*
X12678980Y-10615119D01*
X12659100Y-10634999D01*
X12652849Y-10636242D01*
X12631429Y-10645115D01*
X12612152Y-10657995D01*
X12595757Y-10674390D01*
X12582877Y-10693667D01*
X12574004Y-10715087D01*
X12569481Y-10737827D01*
X12569481Y-10761011D01*
X12574004Y-10783751D01*
X12582877Y-10805171D01*
X12595757Y-10824448D01*
X12612152Y-10840843D01*
X12631429Y-10853723D01*
X12652849Y-10862596D01*
X12675589Y-10867119D01*
X12698773Y-10867119D01*
X12721513Y-10862596D01*
X12742933Y-10853723D01*
X12752699Y-10847198D01*
X12752699Y-10850840D01*
X12707987Y-10895552D01*
X12698773Y-10893719D01*
X12675589Y-10893719D01*
X12652849Y-10898242D01*
X12631429Y-10907115D01*
X12612152Y-10919995D01*
X12595757Y-10936390D01*
X12582877Y-10955667D01*
X12574004Y-10977087D01*
X12569481Y-10999827D01*
X12569481Y-11023011D01*
X12574004Y-11045751D01*
X12582877Y-11067171D01*
X12595757Y-11086448D01*
X12612152Y-11102843D01*
X12631429Y-11115723D01*
X12652849Y-11124596D01*
X12675589Y-11129119D01*
X12698773Y-11129119D01*
X12721513Y-11124596D01*
X12741026Y-11116513D01*
X12707987Y-11149552D01*
X12698773Y-11147719D01*
X12675589Y-11147719D01*
X12652849Y-11152242D01*
X12631429Y-11161115D01*
X12612152Y-11173995D01*
X12595757Y-11190390D01*
X12582877Y-11209667D01*
X12574004Y-11231087D01*
X12569481Y-11253827D01*
X12569481Y-11277011D01*
X12574004Y-11299751D01*
X12582877Y-11321171D01*
X12595757Y-11340448D01*
X12612152Y-11356843D01*
X12631429Y-11369723D01*
X12652849Y-11378596D01*
X12675589Y-11383119D01*
X12698773Y-11383119D01*
X12721513Y-11378596D01*
X12742933Y-11369723D01*
X12762210Y-11356843D01*
X12778605Y-11340448D01*
X12791485Y-11321171D01*
X12800358Y-11299751D01*
X12804881Y-11277011D01*
X12804881Y-11253827D01*
X13331481Y-11253827D01*
X13331481Y-11277011D01*
X13336004Y-11299751D01*
X13344877Y-11321171D01*
X13357757Y-11340448D01*
X13374152Y-11356843D01*
X13393429Y-11369723D01*
X13414849Y-11378596D01*
X13437589Y-11383119D01*
X13460773Y-11383119D01*
X13483513Y-11378596D01*
X13504933Y-11369723D01*
X13524210Y-11356843D01*
X13540605Y-11340448D01*
X13553485Y-11321171D01*
X13562358Y-11299751D01*
X13566881Y-11277011D01*
X13566881Y-11253827D01*
X13562358Y-11231087D01*
X13553485Y-11209667D01*
X13540605Y-11190390D01*
X13524210Y-11173995D01*
X13504933Y-11161115D01*
X13483513Y-11152242D01*
X13460773Y-11147719D01*
X13437589Y-11147719D01*
X13414849Y-11152242D01*
X13393429Y-11161115D01*
X13374152Y-11173995D01*
X13357757Y-11190390D01*
X13344877Y-11209667D01*
X13336004Y-11231087D01*
X13331481Y-11253827D01*
X12804881Y-11253827D01*
X12800358Y-11231087D01*
X12799393Y-11228757D01*
X12893576Y-11134574D01*
X12895878Y-11132685D01*
X12901742Y-11125540D01*
X12903416Y-11123500D01*
X12909017Y-11113021D01*
X12909366Y-11111870D01*
X12912466Y-11101651D01*
X12913339Y-11092789D01*
X12913339Y-11092788D01*
X12913631Y-11089826D01*
X12913339Y-11086864D01*
X12913339Y-10665231D01*
X13050904Y-10527665D01*
X13521047Y-10527665D01*
X13551765Y-10558384D01*
X13553654Y-10560685D01*
X13555955Y-10562573D01*
X13562838Y-10568223D01*
X13562839Y-10568223D01*
X13566218Y-10570029D01*
X13566226Y-10570117D01*
X13567694Y-10574957D01*
X13556702Y-10578291D01*
X13545561Y-10584246D01*
X13537118Y-10591175D01*
X13372333Y-10591175D01*
X13372096Y-10588774D01*
X13369083Y-10578840D01*
X13364189Y-10569685D01*
X13357604Y-10561660D01*
X13349579Y-10555075D01*
X13340424Y-10550181D01*
X13330490Y-10547168D01*
X13320159Y-10546150D01*
X13270159Y-10546150D01*
X13259828Y-10547168D01*
X13249894Y-10550181D01*
X13240739Y-10555075D01*
X13232714Y-10561660D01*
X13226129Y-10569685D01*
X13221235Y-10578840D01*
X13218222Y-10588774D01*
X13217204Y-10599105D01*
X13217204Y-10621708D01*
X13208990Y-10623435D01*
X13199443Y-10627512D01*
X13190875Y-10633373D01*
X13133422Y-10681582D01*
X13126162Y-10689002D01*
X13120489Y-10697696D01*
X13116621Y-10707330D01*
X13114707Y-10717533D01*
X13114821Y-10727913D01*
X13116957Y-10738072D01*
X13121034Y-10747619D01*
X13126895Y-10756187D01*
X13156033Y-10790912D01*
X13156033Y-10823235D01*
X13145159Y-10832360D01*
X13137899Y-10839780D01*
X13132226Y-10848474D01*
X13128359Y-10858107D01*
X13126444Y-10868310D01*
X13126558Y-10878691D01*
X13128694Y-10888849D01*
X13132771Y-10898396D01*
X13138632Y-10906964D01*
X13170771Y-10945266D01*
X13178191Y-10952526D01*
X13186885Y-10958199D01*
X13196519Y-10962067D01*
X13206722Y-10963981D01*
X13217102Y-10963868D01*
X13227261Y-10961732D01*
X13236808Y-10957655D01*
X13245376Y-10951794D01*
X13295169Y-10910012D01*
X13302429Y-10902592D01*
X13305095Y-10898506D01*
X13309582Y-10896590D01*
X13318150Y-10890729D01*
X13367943Y-10848947D01*
X13375203Y-10841527D01*
X13380876Y-10832833D01*
X13384743Y-10823200D01*
X13385936Y-10816840D01*
X13434823Y-10816840D01*
X13445154Y-10815822D01*
X13455088Y-10812809D01*
X13464243Y-10807915D01*
X13464823Y-10807440D01*
X13465403Y-10807915D01*
X13474558Y-10812809D01*
X13484492Y-10815822D01*
X13494823Y-10816840D01*
X13569823Y-10816840D01*
X13580154Y-10815822D01*
X13588889Y-10813173D01*
X13588889Y-10884336D01*
X13583474Y-10888780D01*
X13576889Y-10896805D01*
X13571995Y-10905960D01*
X13568982Y-10915894D01*
X13567964Y-10926225D01*
X13567964Y-10949188D01*
X13567613Y-10949538D01*
X13561056Y-10950843D01*
X13545918Y-10957113D01*
X13532295Y-10966216D01*
X13520709Y-10977802D01*
X13511606Y-10991426D01*
X13505335Y-11006563D01*
X13502139Y-11022634D01*
X13502139Y-11039019D01*
X13505335Y-11055089D01*
X13511606Y-11070227D01*
X13520709Y-11083850D01*
X13532295Y-11095436D01*
X13545918Y-11104539D01*
X13561056Y-11110810D01*
X13577126Y-11114006D01*
X13593511Y-11114006D01*
X13609582Y-11110810D01*
X13624719Y-11104539D01*
X13638343Y-11095436D01*
X13649929Y-11083850D01*
X13659032Y-11070227D01*
X13665302Y-11055089D01*
X13665483Y-11054180D01*
X13700919Y-11054180D01*
X13708426Y-11053441D01*
X13710639Y-11055256D01*
X13719794Y-11060150D01*
X13729728Y-11063163D01*
X13740059Y-11064181D01*
X13776221Y-11064181D01*
X13775362Y-11067014D01*
X13774344Y-11077345D01*
X13774344Y-11122418D01*
X13772090Y-11125165D01*
X13767196Y-11134320D01*
X13764183Y-11144254D01*
X13763165Y-11154585D01*
X13763165Y-11334585D01*
X13764183Y-11344916D01*
X13767196Y-11354850D01*
X13772090Y-11364005D01*
X13778675Y-11372030D01*
X13786700Y-11378615D01*
X13795855Y-11383509D01*
X13805789Y-11386522D01*
X13816120Y-11387540D01*
X13916120Y-11387540D01*
X13926451Y-11386522D01*
X13936385Y-11383509D01*
X13945540Y-11378615D01*
X13953565Y-11372030D01*
X13960150Y-11364005D01*
X13965044Y-11354850D01*
X13968057Y-11344916D01*
X13969075Y-11334585D01*
X13969075Y-11154585D01*
X13968057Y-11144254D01*
X13965044Y-11134320D01*
X13960150Y-11125165D01*
X13953565Y-11117140D01*
X13945540Y-11110555D01*
X13940254Y-11107729D01*
X13940254Y-11082446D01*
X14013164Y-11155356D01*
X14013164Y-11334585D01*
X14014182Y-11344916D01*
X14017195Y-11354850D01*
X14022089Y-11364005D01*
X14028674Y-11372030D01*
X14036699Y-11378615D01*
X14045854Y-11383509D01*
X14055788Y-11386522D01*
X14066119Y-11387540D01*
X14166119Y-11387540D01*
X14176450Y-11386522D01*
X14186384Y-11383509D01*
X14195539Y-11378615D01*
X14203564Y-11372030D01*
X14210149Y-11364005D01*
X14215043Y-11354850D01*
X14218056Y-11344916D01*
X14219074Y-11334585D01*
X14219074Y-11277541D01*
X14247259Y-11277541D01*
X14257590Y-11276523D01*
X14267524Y-11273510D01*
X14276679Y-11268616D01*
X14284704Y-11262031D01*
X14291289Y-11254006D01*
X14296183Y-11244851D01*
X14299196Y-11234917D01*
X14300214Y-11224586D01*
X14300214Y-11190605D01*
X14439904Y-11190605D01*
X14439904Y-11296068D01*
X14439612Y-11299030D01*
X14439904Y-11301992D01*
X14439904Y-11301993D01*
X14440777Y-11310855D01*
X14444226Y-11322225D01*
X14446833Y-11327103D01*
X14449827Y-11332704D01*
X14451371Y-11334585D01*
X14457365Y-11341889D01*
X14459667Y-11343778D01*
X14605170Y-11489281D01*
X14601481Y-11507827D01*
X14601481Y-11531011D01*
X14606004Y-11553751D01*
X14614877Y-11575171D01*
X14627757Y-11594448D01*
X14644152Y-11610843D01*
X14663429Y-11623723D01*
X14684849Y-11632596D01*
X14707589Y-11637119D01*
X14730773Y-11637119D01*
X14753513Y-11632596D01*
X14774933Y-11623723D01*
X14794210Y-11610843D01*
X14810605Y-11594448D01*
X14823485Y-11575171D01*
X14832358Y-11553751D01*
X14836881Y-11531011D01*
X14836881Y-11507827D01*
X14832358Y-11485087D01*
X14823485Y-11463667D01*
X14810605Y-11444390D01*
X14794210Y-11427995D01*
X14774933Y-11415115D01*
X14753513Y-11406242D01*
X14730773Y-11401719D01*
X14707589Y-11401719D01*
X14691432Y-11404933D01*
X14560544Y-11274045D01*
X14560544Y-11190655D01*
X14605170Y-11235281D01*
X14601481Y-11253827D01*
X14601481Y-11277011D01*
X14606004Y-11299751D01*
X14614877Y-11321171D01*
X14627757Y-11340448D01*
X14644152Y-11356843D01*
X14663429Y-11369723D01*
X14684849Y-11378596D01*
X14707589Y-11383119D01*
X14730773Y-11383119D01*
X14753513Y-11378596D01*
X14774933Y-11369723D01*
X14788198Y-11360860D01*
X14788198Y-11390362D01*
X14787906Y-11393324D01*
X14788198Y-11396286D01*
X14788198Y-11396287D01*
X14789071Y-11405149D01*
X14792520Y-11416519D01*
X14792520Y-11416519D01*
X14798121Y-11426998D01*
X14800647Y-11430076D01*
X14805659Y-11436183D01*
X14807961Y-11438072D01*
X14859170Y-11489281D01*
X14855481Y-11507827D01*
X14855481Y-11531011D01*
X14860004Y-11553751D01*
X14868877Y-11575171D01*
X14881757Y-11594448D01*
X14898152Y-11610843D01*
X14917429Y-11623723D01*
X14938849Y-11632596D01*
X14961589Y-11637119D01*
X14984773Y-11637119D01*
X15007513Y-11632596D01*
X15028933Y-11623723D01*
X15048210Y-11610843D01*
X15064605Y-11594448D01*
X15077485Y-11575171D01*
X15086358Y-11553751D01*
X15090881Y-11531011D01*
X15090881Y-11507827D01*
X15086358Y-11485087D01*
X15077485Y-11463667D01*
X15064605Y-11444390D01*
X15048210Y-11427995D01*
X15028933Y-11415115D01*
X15007513Y-11406242D01*
X14984773Y-11401719D01*
X14961589Y-11401719D01*
X14945432Y-11404933D01*
X14908838Y-11368339D01*
X14908838Y-11361324D01*
X14912429Y-11363723D01*
X14933849Y-11372596D01*
X14956589Y-11377119D01*
X14979773Y-11377119D01*
X15002513Y-11372596D01*
X15023933Y-11363723D01*
X15040547Y-11352622D01*
X15040547Y-11388711D01*
X15040255Y-11391673D01*
X15040547Y-11394635D01*
X15040547Y-11394636D01*
X15041420Y-11403498D01*
X15044869Y-11414868D01*
X15046669Y-11418235D01*
X15050470Y-11425347D01*
X15051825Y-11426998D01*
X15058008Y-11434532D01*
X15060310Y-11436421D01*
X15108004Y-11484115D01*
X15104481Y-11501827D01*
X15104481Y-11525011D01*
X15109004Y-11547751D01*
X15117877Y-11569171D01*
X15130757Y-11588448D01*
X15147152Y-11604843D01*
X15166429Y-11617723D01*
X15187849Y-11626596D01*
X15210589Y-11631119D01*
X15233773Y-11631119D01*
X15256513Y-11626596D01*
X15277933Y-11617723D01*
X15297210Y-11604843D01*
X15313605Y-11588448D01*
X15326485Y-11569171D01*
X15335358Y-11547751D01*
X15339881Y-11525011D01*
X15339881Y-11501827D01*
X15335358Y-11479087D01*
X15326485Y-11457667D01*
X15313605Y-11438390D01*
X15297210Y-11421995D01*
X15277933Y-11409115D01*
X15256513Y-11400242D01*
X15233773Y-11395719D01*
X15210589Y-11395719D01*
X15193598Y-11399099D01*
X15161187Y-11366688D01*
X15161187Y-11362880D01*
X15171429Y-11369723D01*
X15192849Y-11378596D01*
X15215589Y-11383119D01*
X15238773Y-11383119D01*
X15261513Y-11378596D01*
X15271089Y-11374629D01*
X15271585Y-11379663D01*
X15275034Y-11391033D01*
X15275034Y-11391033D01*
X15280635Y-11401512D01*
X15282265Y-11403498D01*
X15288173Y-11410697D01*
X15290475Y-11412586D01*
X15362004Y-11484115D01*
X15358481Y-11501827D01*
X15358481Y-11525011D01*
X15363004Y-11547751D01*
X15371877Y-11569171D01*
X15384757Y-11588448D01*
X15401152Y-11604843D01*
X15420429Y-11617723D01*
X15441849Y-11626596D01*
X15464589Y-11631119D01*
X15487773Y-11631119D01*
X15510513Y-11626596D01*
X15531933Y-11617723D01*
X15551210Y-11604843D01*
X15567605Y-11588448D01*
X15580485Y-11569171D01*
X15589358Y-11547751D01*
X15593881Y-11525011D01*
X15593881Y-11501827D01*
X15589358Y-11479087D01*
X15580485Y-11457667D01*
X15567605Y-11438390D01*
X15551210Y-11421995D01*
X15531933Y-11409115D01*
X15510513Y-11400242D01*
X15487773Y-11395719D01*
X15464589Y-11395719D01*
X15447598Y-11399099D01*
X15391352Y-11342853D01*
X15391352Y-11341043D01*
X15401152Y-11350843D01*
X15420429Y-11363723D01*
X15441849Y-11372596D01*
X15464589Y-11377119D01*
X15487773Y-11377119D01*
X15510513Y-11372596D01*
X15531933Y-11363723D01*
X15551210Y-11350843D01*
X15567605Y-11334448D01*
X15580485Y-11315171D01*
X15589358Y-11293751D01*
X15593881Y-11271011D01*
X15593881Y-11247827D01*
X15589358Y-11225087D01*
X15580485Y-11203667D01*
X15567605Y-11184390D01*
X15551210Y-11167995D01*
X15531933Y-11155115D01*
X15510513Y-11146242D01*
X15487773Y-11141719D01*
X15464589Y-11141719D01*
X15447598Y-11145099D01*
X15248894Y-10946395D01*
X15332284Y-10946395D01*
X15621170Y-11235281D01*
X15617481Y-11253827D01*
X15617481Y-11277011D01*
X15622004Y-11299751D01*
X15630877Y-11321171D01*
X15643757Y-11340448D01*
X15660152Y-11356843D01*
X15679429Y-11369723D01*
X15700849Y-11378596D01*
X15723589Y-11383119D01*
X15746773Y-11383119D01*
X15769513Y-11378596D01*
X15790933Y-11369723D01*
X15810210Y-11356843D01*
X15826605Y-11340448D01*
X15839485Y-11321171D01*
X15848358Y-11299751D01*
X15852881Y-11277011D01*
X15852881Y-11253827D01*
X15848358Y-11231087D01*
X15839485Y-11209667D01*
X15826605Y-11190390D01*
X15810210Y-11173995D01*
X15790933Y-11161115D01*
X15769513Y-11152242D01*
X15746773Y-11147719D01*
X15723589Y-11147719D01*
X15707432Y-11150933D01*
X15402017Y-10845518D01*
X15400128Y-10843216D01*
X15390943Y-10835678D01*
X15380464Y-10830077D01*
X15369094Y-10826628D01*
X15360232Y-10825755D01*
X15360231Y-10825755D01*
X15357269Y-10825463D01*
X15354307Y-10825755D01*
X15314068Y-10825755D01*
X15326485Y-10807171D01*
X15335358Y-10785751D01*
X15339881Y-10763011D01*
X15339881Y-10745827D01*
X15363481Y-10745827D01*
X15363481Y-10769011D01*
X15368004Y-10791751D01*
X15376877Y-10813171D01*
X15389757Y-10832448D01*
X15406152Y-10848843D01*
X15425429Y-10861723D01*
X15446849Y-10870596D01*
X15469589Y-10875119D01*
X15492773Y-10875119D01*
X15515513Y-10870596D01*
X15536933Y-10861723D01*
X15556210Y-10848843D01*
X15572605Y-10832448D01*
X15585485Y-10813171D01*
X15594358Y-10791751D01*
X15598881Y-10769011D01*
X15598881Y-10745827D01*
X15594358Y-10723087D01*
X15585485Y-10701667D01*
X15572605Y-10682390D01*
X15556210Y-10665995D01*
X15536933Y-10653115D01*
X15515513Y-10644242D01*
X15492773Y-10639719D01*
X15469589Y-10639719D01*
X15446849Y-10644242D01*
X15425429Y-10653115D01*
X15406152Y-10665995D01*
X15389757Y-10682390D01*
X15376877Y-10701667D01*
X15368004Y-10723087D01*
X15363481Y-10745827D01*
X15339881Y-10745827D01*
X15339881Y-10739827D01*
X15335358Y-10717087D01*
X15326485Y-10695667D01*
X15313605Y-10676390D01*
X15297210Y-10659995D01*
X15277933Y-10647115D01*
X15256513Y-10638242D01*
X15233773Y-10633719D01*
X15210589Y-10633719D01*
X15193597Y-10637099D01*
X15113767Y-10557268D01*
X15111878Y-10554967D01*
X15102693Y-10547429D01*
X15097722Y-10544772D01*
X15104358Y-10528751D01*
X15106383Y-10518572D01*
X15109004Y-10531751D01*
X15117877Y-10553171D01*
X15130757Y-10572448D01*
X15147152Y-10588843D01*
X15166429Y-10601723D01*
X15187849Y-10610596D01*
X15210589Y-10615119D01*
X15233773Y-10615119D01*
X15256513Y-10610596D01*
X15277933Y-10601723D01*
X15297210Y-10588843D01*
X15313605Y-10572448D01*
X15326485Y-10553171D01*
X15335358Y-10531751D01*
X15339881Y-10509011D01*
X15339881Y-10485827D01*
X15358481Y-10485827D01*
X15358481Y-10509011D01*
X15363004Y-10531751D01*
X15371877Y-10553171D01*
X15384757Y-10572448D01*
X15401152Y-10588843D01*
X15420429Y-10601723D01*
X15441849Y-10610596D01*
X15464589Y-10615119D01*
X15487773Y-10615119D01*
X15510513Y-10610596D01*
X15531933Y-10601723D01*
X15551210Y-10588843D01*
X15567605Y-10572448D01*
X15580485Y-10553171D01*
X15589358Y-10531751D01*
X15593881Y-10509011D01*
X15593881Y-10485827D01*
X15589358Y-10463087D01*
X15580485Y-10441667D01*
X15567605Y-10422390D01*
X15551210Y-10405995D01*
X15531933Y-10393115D01*
X15510513Y-10384242D01*
X15487773Y-10379719D01*
X15464589Y-10379719D01*
X15441849Y-10384242D01*
X15420429Y-10393115D01*
X15401152Y-10405995D01*
X15384757Y-10422390D01*
X15371877Y-10441667D01*
X15363004Y-10463087D01*
X15358481Y-10485827D01*
X15339881Y-10485827D01*
X15335358Y-10463087D01*
X15333023Y-10457452D01*
X15334844Y-10457272D01*
X15346214Y-10453823D01*
X15356693Y-10448222D01*
X15365878Y-10440684D01*
X15367767Y-10438382D01*
X15444519Y-10361631D01*
X15446849Y-10362596D01*
X15469589Y-10367119D01*
X15492773Y-10367119D01*
X15515513Y-10362596D01*
X15536933Y-10353723D01*
X15556210Y-10340843D01*
X15572605Y-10324448D01*
X15585485Y-10305171D01*
X15594358Y-10283751D01*
X15598881Y-10261011D01*
X15598881Y-10237827D01*
X15594358Y-10215087D01*
X15585485Y-10193667D01*
X15572605Y-10174390D01*
X15556210Y-10157995D01*
X15536933Y-10145115D01*
X15515513Y-10136242D01*
X15492773Y-10131719D01*
X15469589Y-10131719D01*
X15446849Y-10136242D01*
X15425429Y-10145115D01*
X15406152Y-10157995D01*
X15389757Y-10174390D01*
X15376877Y-10193667D01*
X15368004Y-10215087D01*
X15363481Y-10237827D01*
X15363481Y-10261011D01*
X15365314Y-10270225D01*
X15298034Y-10337505D01*
X15293226Y-10337505D01*
X15297210Y-10334843D01*
X15313605Y-10318448D01*
X15326485Y-10299171D01*
X15335358Y-10277751D01*
X15339881Y-10255011D01*
X15339881Y-10231827D01*
X15335358Y-10209087D01*
X15326485Y-10187667D01*
X15313605Y-10168390D01*
X15297210Y-10151995D01*
X15277933Y-10139115D01*
X15256513Y-10130242D01*
X15233773Y-10125719D01*
X15210589Y-10125719D01*
X15187849Y-10130242D01*
X15166429Y-10139115D01*
X15147152Y-10151995D01*
X15130757Y-10168390D01*
X15117877Y-10187667D01*
X15109004Y-10209087D01*
X15104481Y-10231827D01*
X15104481Y-10255011D01*
X15108139Y-10273401D01*
X15079694Y-10301846D01*
X15070698Y-10301846D01*
X15072485Y-10299171D01*
X15081358Y-10277751D01*
X15085881Y-10255011D01*
X15085881Y-10231827D01*
X15081358Y-10209087D01*
X15072485Y-10187667D01*
X15059605Y-10168390D01*
X15043210Y-10151995D01*
X15023933Y-10139115D01*
X15002513Y-10130242D01*
X14979773Y-10125719D01*
X14956589Y-10125719D01*
X14933849Y-10130242D01*
X14912429Y-10139115D01*
X14893152Y-10151995D01*
X14876757Y-10168390D01*
X14863877Y-10187667D01*
X14855004Y-10209087D01*
X14850481Y-10231827D01*
X14850481Y-10255011D01*
X14853734Y-10271366D01*
X14833628Y-10271366D01*
X14836881Y-10255011D01*
X14836881Y-10231827D01*
X14832358Y-10209087D01*
X14823485Y-10187667D01*
X14810605Y-10168390D01*
X14794210Y-10151995D01*
X14774933Y-10139115D01*
X14762051Y-10133779D01*
X14965320Y-9930510D01*
X15085693Y-9930510D01*
X15088655Y-9930802D01*
X15091617Y-9930510D01*
X15091618Y-9930510D01*
X15100480Y-9929637D01*
X15111850Y-9926188D01*
X15122329Y-9920587D01*
X15131514Y-9913049D01*
X15133403Y-9910747D01*
X15194276Y-9849874D01*
X15210589Y-9853119D01*
X15233773Y-9853119D01*
X15256513Y-9848596D01*
X15277933Y-9839723D01*
X15297210Y-9826843D01*
X15313605Y-9810448D01*
X15326485Y-9791171D01*
X15335358Y-9769751D01*
X15339881Y-9747011D01*
X15339881Y-9723827D01*
X15335358Y-9701087D01*
X15326485Y-9679667D01*
X15313605Y-9660390D01*
X15297210Y-9643995D01*
X15277933Y-9631115D01*
X15256513Y-9622242D01*
X15233773Y-9617719D01*
X15210589Y-9617719D01*
X15187849Y-9622242D01*
X15166429Y-9631115D01*
X15147152Y-9643995D01*
X15130757Y-9660390D01*
X15117877Y-9679667D01*
X15109004Y-9701087D01*
X15104481Y-9723827D01*
X15104481Y-9747011D01*
X15108139Y-9765401D01*
X15063670Y-9809870D01*
X15059991Y-9809870D01*
X15072485Y-9791171D01*
X15081358Y-9769751D01*
X15085881Y-9747011D01*
X15085881Y-9723827D01*
X15081358Y-9701087D01*
X15072485Y-9679667D01*
X15059605Y-9660390D01*
X15043210Y-9643995D01*
X15023933Y-9631115D01*
X15002513Y-9622242D01*
X14979773Y-9617719D01*
X14956589Y-9617719D01*
X14933849Y-9622242D01*
X14912429Y-9631115D01*
X14893152Y-9643995D01*
X14887158Y-9649989D01*
X14887158Y-9648992D01*
X14940276Y-9595874D01*
X14956589Y-9599119D01*
X14979773Y-9599119D01*
X15002513Y-9594596D01*
X15023933Y-9585723D01*
X15043210Y-9572843D01*
X15059605Y-9556448D01*
X15072485Y-9537171D01*
X15081358Y-9515751D01*
X15083032Y-9507336D01*
X16424481Y-9501162D01*
X16424481Y-12021320D01*
G36*
X14596481Y-10739827D02*
G01*
X14596481Y-10763011D01*
X14601004Y-10785751D01*
X14609877Y-10807171D01*
X14622294Y-10825755D01*
X14242719Y-10825755D01*
X14235719Y-10818755D01*
X14235719Y-10780526D01*
X14241292Y-10780526D01*
X14242947Y-10781028D01*
X14252369Y-10781956D01*
X14287848Y-10781956D01*
X14288035Y-10782571D01*
X14292929Y-10791726D01*
X14299514Y-10799751D01*
X14307539Y-10806336D01*
X14316694Y-10811230D01*
X14326628Y-10814243D01*
X14336959Y-10815261D01*
X14386959Y-10815261D01*
X14397290Y-10814243D01*
X14406568Y-10811429D01*
X14418976Y-10816569D01*
X14435046Y-10819765D01*
X14451431Y-10819765D01*
X14467502Y-10816569D01*
X14482639Y-10810298D01*
X14496263Y-10801195D01*
X14507849Y-10789609D01*
X14516952Y-10775986D01*
X14523222Y-10760848D01*
X14526419Y-10744778D01*
X14526419Y-10738146D01*
X14596815Y-10738146D01*
X14596481Y-10739827D01*
X14596481Y-10739827D01*
G37*
X14596481Y-10739827D02*
X14596481Y-10763011D01*
X14601004Y-10785751D01*
X14609877Y-10807171D01*
X14622294Y-10825755D01*
X14242719Y-10825755D01*
X14235719Y-10818755D01*
X14235719Y-10780526D01*
X14241292Y-10780526D01*
X14242947Y-10781028D01*
X14252369Y-10781956D01*
X14287848Y-10781956D01*
X14288035Y-10782571D01*
X14292929Y-10791726D01*
X14299514Y-10799751D01*
X14307539Y-10806336D01*
X14316694Y-10811230D01*
X14326628Y-10814243D01*
X14336959Y-10815261D01*
X14386959Y-10815261D01*
X14397290Y-10814243D01*
X14406568Y-10811429D01*
X14418976Y-10816569D01*
X14435046Y-10819765D01*
X14451431Y-10819765D01*
X14467502Y-10816569D01*
X14482639Y-10810298D01*
X14496263Y-10801195D01*
X14507849Y-10789609D01*
X14516952Y-10775986D01*
X14523222Y-10760848D01*
X14526419Y-10744778D01*
X14526419Y-10738146D01*
X14596815Y-10738146D01*
X14596481Y-10739827D01*
G36*
X13938016Y-10270210D02*
G01*
X13948909Y-10276033D01*
X13960728Y-10279618D01*
X13973019Y-10280828D01*
X13985310Y-10279618D01*
X13993019Y-10277279D01*
X14000728Y-10279618D01*
X14013019Y-10280828D01*
X14025310Y-10279618D01*
X14033019Y-10277279D01*
X14040728Y-10279618D01*
X14053019Y-10280828D01*
X14065310Y-10279618D01*
X14073019Y-10277279D01*
X14080728Y-10279618D01*
X14093019Y-10280828D01*
X14105310Y-10279618D01*
X14113019Y-10277279D01*
X14120728Y-10279618D01*
X14133019Y-10280828D01*
X14145310Y-10279618D01*
X14153019Y-10277279D01*
X14160728Y-10279618D01*
X14170285Y-10280559D01*
X14171226Y-10290116D01*
X14173565Y-10297825D01*
X14171226Y-10305534D01*
X14170016Y-10317825D01*
X14171226Y-10330116D01*
X14173565Y-10337825D01*
X14171226Y-10345534D01*
X14170016Y-10357825D01*
X14171226Y-10370116D01*
X14173565Y-10377825D01*
X14171226Y-10385534D01*
X14170016Y-10397825D01*
X14171226Y-10410116D01*
X14173565Y-10417825D01*
X14171226Y-10425534D01*
X14170016Y-10437825D01*
X14171226Y-10450116D01*
X14173565Y-10457825D01*
X14171226Y-10465534D01*
X14170016Y-10477825D01*
X14171226Y-10490116D01*
X14173565Y-10497825D01*
X14171226Y-10505534D01*
X14170016Y-10517825D01*
X14171226Y-10530116D01*
X14173565Y-10537826D01*
X14171226Y-10545535D01*
X14170016Y-10557826D01*
X14171226Y-10570117D01*
X14173565Y-10577826D01*
X14171226Y-10585535D01*
X14170016Y-10597826D01*
X14171226Y-10610117D01*
X14173564Y-10617826D01*
X14171226Y-10625534D01*
X14170016Y-10637825D01*
X14171226Y-10650116D01*
X14173565Y-10657826D01*
X14171226Y-10665535D01*
X14170016Y-10677826D01*
X14171226Y-10690117D01*
X14173565Y-10697826D01*
X14171226Y-10705535D01*
X14170285Y-10715091D01*
X14160728Y-10716032D01*
X14153019Y-10718371D01*
X14145310Y-10716032D01*
X14133019Y-10714822D01*
X14120728Y-10716032D01*
X14113019Y-10718371D01*
X14105310Y-10716032D01*
X14093019Y-10714822D01*
X14080728Y-10716032D01*
X14073019Y-10718371D01*
X14065310Y-10716032D01*
X14053019Y-10714822D01*
X14040728Y-10716032D01*
X14033019Y-10718371D01*
X14025310Y-10716032D01*
X14013019Y-10714822D01*
X14000728Y-10716032D01*
X13993019Y-10718371D01*
X13985310Y-10716032D01*
X13973019Y-10714822D01*
X13960728Y-10716032D01*
X13953019Y-10718371D01*
X13945310Y-10716032D01*
X13933019Y-10714822D01*
X13920728Y-10716032D01*
X13913019Y-10718371D01*
X13905310Y-10716032D01*
X13893019Y-10714822D01*
X13880728Y-10716032D01*
X13873019Y-10718371D01*
X13865310Y-10716032D01*
X13853019Y-10714822D01*
X13840728Y-10716032D01*
X13833019Y-10718371D01*
X13825310Y-10716032D01*
X13813019Y-10714822D01*
X13800728Y-10716032D01*
X13793019Y-10718371D01*
X13785310Y-10716032D01*
X13773019Y-10714822D01*
X13760728Y-10716032D01*
X13753019Y-10718371D01*
X13745310Y-10716032D01*
X13735753Y-10715091D01*
X13734812Y-10705535D01*
X13732473Y-10697826D01*
X13734812Y-10690117D01*
X13736022Y-10677826D01*
X13734812Y-10665535D01*
X13732473Y-10657826D01*
X13734812Y-10650117D01*
X13736022Y-10637826D01*
X13734812Y-10625535D01*
X13731226Y-10613716D01*
X13725404Y-10602823D01*
X13721303Y-10597826D01*
X13725404Y-10592829D01*
X13731226Y-10581936D01*
X13734812Y-10570117D01*
X13736022Y-10557826D01*
X13734812Y-10545535D01*
X13732473Y-10537826D01*
X13734812Y-10530117D01*
X13736022Y-10517826D01*
X13734812Y-10505535D01*
X13732473Y-10497826D01*
X13734812Y-10490116D01*
X13736022Y-10477825D01*
X13734812Y-10465534D01*
X13732473Y-10457826D01*
X13734812Y-10450117D01*
X13736022Y-10437826D01*
X13734812Y-10425535D01*
X13732473Y-10417826D01*
X13734812Y-10410116D01*
X13736022Y-10397825D01*
X13734812Y-10385534D01*
X13732473Y-10377825D01*
X13734812Y-10370116D01*
X13736022Y-10357825D01*
X13734812Y-10345534D01*
X13732473Y-10337826D01*
X13734812Y-10330117D01*
X13736022Y-10317826D01*
X13734812Y-10305535D01*
X13732473Y-10297826D01*
X13734812Y-10290116D01*
X13735753Y-10280559D01*
X13745310Y-10279618D01*
X13753019Y-10277279D01*
X13760728Y-10279618D01*
X13773019Y-10280828D01*
X13785310Y-10279618D01*
X13793019Y-10277279D01*
X13800728Y-10279618D01*
X13813019Y-10280828D01*
X13825310Y-10279618D01*
X13833019Y-10277279D01*
X13840728Y-10279618D01*
X13853019Y-10280828D01*
X13865310Y-10279618D01*
X13873019Y-10277279D01*
X13880728Y-10279618D01*
X13893019Y-10280828D01*
X13905310Y-10279618D01*
X13917129Y-10276033D01*
X13928022Y-10270210D01*
X13933019Y-10266109D01*
X13938016Y-10270210D01*
X13938016Y-10270210D01*
G37*
X13938016Y-10270210D02*
X13948909Y-10276033D01*
X13960728Y-10279618D01*
X13973019Y-10280828D01*
X13985310Y-10279618D01*
X13993019Y-10277279D01*
X14000728Y-10279618D01*
X14013019Y-10280828D01*
X14025310Y-10279618D01*
X14033019Y-10277279D01*
X14040728Y-10279618D01*
X14053019Y-10280828D01*
X14065310Y-10279618D01*
X14073019Y-10277279D01*
X14080728Y-10279618D01*
X14093019Y-10280828D01*
X14105310Y-10279618D01*
X14113019Y-10277279D01*
X14120728Y-10279618D01*
X14133019Y-10280828D01*
X14145310Y-10279618D01*
X14153019Y-10277279D01*
X14160728Y-10279618D01*
X14170285Y-10280559D01*
X14171226Y-10290116D01*
X14173565Y-10297825D01*
X14171226Y-10305534D01*
X14170016Y-10317825D01*
X14171226Y-10330116D01*
X14173565Y-10337825D01*
X14171226Y-10345534D01*
X14170016Y-10357825D01*
X14171226Y-10370116D01*
X14173565Y-10377825D01*
X14171226Y-10385534D01*
X14170016Y-10397825D01*
X14171226Y-10410116D01*
X14173565Y-10417825D01*
X14171226Y-10425534D01*
X14170016Y-10437825D01*
X14171226Y-10450116D01*
X14173565Y-10457825D01*
X14171226Y-10465534D01*
X14170016Y-10477825D01*
X14171226Y-10490116D01*
X14173565Y-10497825D01*
X14171226Y-10505534D01*
X14170016Y-10517825D01*
X14171226Y-10530116D01*
X14173565Y-10537826D01*
X14171226Y-10545535D01*
X14170016Y-10557826D01*
X14171226Y-10570117D01*
X14173565Y-10577826D01*
X14171226Y-10585535D01*
X14170016Y-10597826D01*
X14171226Y-10610117D01*
X14173564Y-10617826D01*
X14171226Y-10625534D01*
X14170016Y-10637825D01*
X14171226Y-10650116D01*
X14173565Y-10657826D01*
X14171226Y-10665535D01*
X14170016Y-10677826D01*
X14171226Y-10690117D01*
X14173565Y-10697826D01*
X14171226Y-10705535D01*
X14170285Y-10715091D01*
X14160728Y-10716032D01*
X14153019Y-10718371D01*
X14145310Y-10716032D01*
X14133019Y-10714822D01*
X14120728Y-10716032D01*
X14113019Y-10718371D01*
X14105310Y-10716032D01*
X14093019Y-10714822D01*
X14080728Y-10716032D01*
X14073019Y-10718371D01*
X14065310Y-10716032D01*
X14053019Y-10714822D01*
X14040728Y-10716032D01*
X14033019Y-10718371D01*
X14025310Y-10716032D01*
X14013019Y-10714822D01*
X14000728Y-10716032D01*
X13993019Y-10718371D01*
X13985310Y-10716032D01*
X13973019Y-10714822D01*
X13960728Y-10716032D01*
X13953019Y-10718371D01*
X13945310Y-10716032D01*
X13933019Y-10714822D01*
X13920728Y-10716032D01*
X13913019Y-10718371D01*
X13905310Y-10716032D01*
X13893019Y-10714822D01*
X13880728Y-10716032D01*
X13873019Y-10718371D01*
X13865310Y-10716032D01*
X13853019Y-10714822D01*
X13840728Y-10716032D01*
X13833019Y-10718371D01*
X13825310Y-10716032D01*
X13813019Y-10714822D01*
X13800728Y-10716032D01*
X13793019Y-10718371D01*
X13785310Y-10716032D01*
X13773019Y-10714822D01*
X13760728Y-10716032D01*
X13753019Y-10718371D01*
X13745310Y-10716032D01*
X13735753Y-10715091D01*
X13734812Y-10705535D01*
X13732473Y-10697826D01*
X13734812Y-10690117D01*
X13736022Y-10677826D01*
X13734812Y-10665535D01*
X13732473Y-10657826D01*
X13734812Y-10650117D01*
X13736022Y-10637826D01*
X13734812Y-10625535D01*
X13731226Y-10613716D01*
X13725404Y-10602823D01*
X13721303Y-10597826D01*
X13725404Y-10592829D01*
X13731226Y-10581936D01*
X13734812Y-10570117D01*
X13736022Y-10557826D01*
X13734812Y-10545535D01*
X13732473Y-10537826D01*
X13734812Y-10530117D01*
X13736022Y-10517826D01*
X13734812Y-10505535D01*
X13732473Y-10497826D01*
X13734812Y-10490116D01*
X13736022Y-10477825D01*
X13734812Y-10465534D01*
X13732473Y-10457826D01*
X13734812Y-10450117D01*
X13736022Y-10437826D01*
X13734812Y-10425535D01*
X13732473Y-10417826D01*
X13734812Y-10410116D01*
X13736022Y-10397825D01*
X13734812Y-10385534D01*
X13732473Y-10377825D01*
X13734812Y-10370116D01*
X13736022Y-10357825D01*
X13734812Y-10345534D01*
X13732473Y-10337826D01*
X13734812Y-10330117D01*
X13736022Y-10317826D01*
X13734812Y-10305535D01*
X13732473Y-10297826D01*
X13734812Y-10290116D01*
X13735753Y-10280559D01*
X13745310Y-10279618D01*
X13753019Y-10277279D01*
X13760728Y-10279618D01*
X13773019Y-10280828D01*
X13785310Y-10279618D01*
X13793019Y-10277279D01*
X13800728Y-10279618D01*
X13813019Y-10280828D01*
X13825310Y-10279618D01*
X13833019Y-10277279D01*
X13840728Y-10279618D01*
X13853019Y-10280828D01*
X13865310Y-10279618D01*
X13873019Y-10277279D01*
X13880728Y-10279618D01*
X13893019Y-10280828D01*
X13905310Y-10279618D01*
X13917129Y-10276033D01*
X13928022Y-10270210D01*
X13933019Y-10266109D01*
X13938016Y-10270210D01*
G36*
X13372996Y-9851206D02*
G01*
X13382930Y-9854219D01*
X13393261Y-9855237D01*
X13440991Y-9855237D01*
X13453594Y-9867840D01*
X13455306Y-9869927D01*
X13455306Y-9947282D01*
X13456324Y-9957613D01*
X13459337Y-9967547D01*
X13461198Y-9971028D01*
X13460306Y-9980082D01*
X13460306Y-10030082D01*
X13461324Y-10040413D01*
X13464090Y-10049532D01*
X13461324Y-10058651D01*
X13460306Y-10068982D01*
X13460306Y-10118982D01*
X13461324Y-10129313D01*
X13464337Y-10139247D01*
X13469231Y-10148402D01*
X13470005Y-10149346D01*
X13468501Y-10156910D01*
X13468501Y-10173295D01*
X13471697Y-10189365D01*
X13477968Y-10204503D01*
X13487071Y-10218126D01*
X13493090Y-10224145D01*
X13050904Y-10224145D01*
X13013339Y-10186580D01*
X13013339Y-10008788D01*
X13013631Y-10005825D01*
X13012466Y-9994000D01*
X13009017Y-9982630D01*
X13003416Y-9972151D01*
X12997767Y-9965267D01*
X12997766Y-9965267D01*
X12995878Y-9962966D01*
X12993577Y-9961078D01*
X12881481Y-9848982D01*
X13366316Y-9847635D01*
X13372996Y-9851206D01*
X13372996Y-9851206D01*
G37*
X13372996Y-9851206D02*
X13382930Y-9854219D01*
X13393261Y-9855237D01*
X13440991Y-9855237D01*
X13453594Y-9867840D01*
X13455306Y-9869927D01*
X13455306Y-9947282D01*
X13456324Y-9957613D01*
X13459337Y-9967547D01*
X13461198Y-9971028D01*
X13460306Y-9980082D01*
X13460306Y-10030082D01*
X13461324Y-10040413D01*
X13464090Y-10049532D01*
X13461324Y-10058651D01*
X13460306Y-10068982D01*
X13460306Y-10118982D01*
X13461324Y-10129313D01*
X13464337Y-10139247D01*
X13469231Y-10148402D01*
X13470005Y-10149346D01*
X13468501Y-10156910D01*
X13468501Y-10173295D01*
X13471697Y-10189365D01*
X13477968Y-10204503D01*
X13487071Y-10218126D01*
X13493090Y-10224145D01*
X13050904Y-10224145D01*
X13013339Y-10186580D01*
X13013339Y-10008788D01*
X13013631Y-10005825D01*
X13012466Y-9994000D01*
X13009017Y-9982630D01*
X13003416Y-9972151D01*
X12997767Y-9965267D01*
X12997766Y-9965267D01*
X12995878Y-9962966D01*
X12993577Y-9961078D01*
X12881481Y-9848982D01*
X13366316Y-9847635D01*
X13372996Y-9851206D01*
G36*
X13912379Y-9892645D02*
G01*
X13912699Y-9895895D01*
X13912699Y-10083186D01*
X13913562Y-10091953D01*
X13858254Y-10036645D01*
X13858254Y-9989506D01*
X13857236Y-9979175D01*
X13854223Y-9969241D01*
X13849329Y-9960086D01*
X13842744Y-9952061D01*
X13834719Y-9945476D01*
X13825564Y-9940582D01*
X13815630Y-9937569D01*
X13805299Y-9936551D01*
X13755299Y-9936551D01*
X13744968Y-9937569D01*
X13735851Y-9940334D01*
X13726730Y-9937568D01*
X13716399Y-9936550D01*
X13695830Y-9936550D01*
X13695830Y-9855651D01*
X13696122Y-9852689D01*
X13695758Y-9848998D01*
X13695534Y-9846721D01*
X13912216Y-9846119D01*
X13912379Y-9846103D01*
X13912379Y-9892645D01*
X13912379Y-9892645D01*
G37*
X13912379Y-9892645D02*
X13912699Y-9895895D01*
X13912699Y-10083186D01*
X13913562Y-10091953D01*
X13858254Y-10036645D01*
X13858254Y-9989506D01*
X13857236Y-9979175D01*
X13854223Y-9969241D01*
X13849329Y-9960086D01*
X13842744Y-9952061D01*
X13834719Y-9945476D01*
X13825564Y-9940582D01*
X13815630Y-9937569D01*
X13805299Y-9936551D01*
X13755299Y-9936551D01*
X13744968Y-9937569D01*
X13735851Y-9940334D01*
X13726730Y-9937568D01*
X13716399Y-9936550D01*
X13695830Y-9936550D01*
X13695830Y-9855651D01*
X13696122Y-9852689D01*
X13695758Y-9848998D01*
X13695534Y-9846721D01*
X13912216Y-9846119D01*
X13912379Y-9846103D01*
X13912379Y-9892645D01*
G36*
X14600139Y-9511400D02*
G01*
X14484483Y-9627057D01*
X14482182Y-9628945D01*
X14480294Y-9631246D01*
X14480293Y-9631247D01*
X14474644Y-9638130D01*
X14469043Y-9648609D01*
X14465594Y-9659979D01*
X14464429Y-9671804D01*
X14464721Y-9674767D01*
X14464721Y-9984638D01*
X14461434Y-9987925D01*
X14124451Y-9987925D01*
X14121489Y-9987633D01*
X14118527Y-9987925D01*
X14118526Y-9987925D01*
X14109664Y-9988798D01*
X14098294Y-9992247D01*
X14094299Y-9994382D01*
X14094299Y-9884045D01*
X14093979Y-9880796D01*
X14093979Y-9603374D01*
X14102681Y-9603374D01*
X14113012Y-9602356D01*
X14122946Y-9599343D01*
X14132101Y-9594449D01*
X14140126Y-9587864D01*
X14146711Y-9579839D01*
X14151605Y-9570684D01*
X14154618Y-9560750D01*
X14155636Y-9550419D01*
X14155636Y-9511604D01*
X14599773Y-9509560D01*
X14600139Y-9511400D01*
X14600139Y-9511400D01*
G37*
X14600139Y-9511400D02*
X14484483Y-9627057D01*
X14482182Y-9628945D01*
X14480294Y-9631246D01*
X14480293Y-9631247D01*
X14474644Y-9638130D01*
X14469043Y-9648609D01*
X14465594Y-9659979D01*
X14464429Y-9671804D01*
X14464721Y-9674767D01*
X14464721Y-9984638D01*
X14461434Y-9987925D01*
X14124451Y-9987925D01*
X14121489Y-9987633D01*
X14118527Y-9987925D01*
X14118526Y-9987925D01*
X14109664Y-9988798D01*
X14098294Y-9992247D01*
X14094299Y-9994382D01*
X14094299Y-9884045D01*
X14093979Y-9880796D01*
X14093979Y-9603374D01*
X14102681Y-9603374D01*
X14113012Y-9602356D01*
X14122946Y-9599343D01*
X14132101Y-9594449D01*
X14140126Y-9587864D01*
X14146711Y-9579839D01*
X14151605Y-9570684D01*
X14154618Y-9560750D01*
X14155636Y-9550419D01*
X14155636Y-9511604D01*
X14599773Y-9509560D01*
X14600139Y-9511400D01*
G36*
X14854139Y-9511400D02*
G01*
X14786280Y-9579260D01*
X14783979Y-9581148D01*
X14782091Y-9583449D01*
X14782090Y-9583450D01*
X14776441Y-9590333D01*
X14770840Y-9600812D01*
X14767391Y-9612183D01*
X14766226Y-9624007D01*
X14766518Y-9626970D01*
X14766518Y-9633629D01*
X14753513Y-9628242D01*
X14730773Y-9623719D01*
X14707589Y-9623719D01*
X14684849Y-9628242D01*
X14663429Y-9637115D01*
X14644152Y-9649995D01*
X14627757Y-9666390D01*
X14614877Y-9685667D01*
X14606004Y-9707087D01*
X14601481Y-9729827D01*
X14601481Y-9753011D01*
X14606004Y-9775751D01*
X14614877Y-9797171D01*
X14627757Y-9816448D01*
X14644152Y-9832843D01*
X14654699Y-9839890D01*
X14654699Y-9868320D01*
X14585361Y-9937658D01*
X14585361Y-9696789D01*
X14686275Y-9595874D01*
X14702589Y-9599119D01*
X14725773Y-9599119D01*
X14748513Y-9594596D01*
X14769933Y-9585723D01*
X14789210Y-9572843D01*
X14805605Y-9556448D01*
X14818485Y-9537171D01*
X14827358Y-9515751D01*
X14828799Y-9508506D01*
X14853540Y-9508392D01*
X14854139Y-9511400D01*
X14854139Y-9511400D01*
G37*
X14854139Y-9511400D02*
X14786280Y-9579260D01*
X14783979Y-9581148D01*
X14782091Y-9583449D01*
X14782090Y-9583450D01*
X14776441Y-9590333D01*
X14770840Y-9600812D01*
X14767391Y-9612183D01*
X14766226Y-9624007D01*
X14766518Y-9626970D01*
X14766518Y-9633629D01*
X14753513Y-9628242D01*
X14730773Y-9623719D01*
X14707589Y-9623719D01*
X14684849Y-9628242D01*
X14663429Y-9637115D01*
X14644152Y-9649995D01*
X14627757Y-9666390D01*
X14614877Y-9685667D01*
X14606004Y-9707087D01*
X14601481Y-9729827D01*
X14601481Y-9753011D01*
X14606004Y-9775751D01*
X14614877Y-9797171D01*
X14627757Y-9816448D01*
X14644152Y-9832843D01*
X14654699Y-9839890D01*
X14654699Y-9868320D01*
X14585361Y-9937658D01*
X14585361Y-9696789D01*
X14686275Y-9595874D01*
X14702589Y-9599119D01*
X14725773Y-9599119D01*
X14748513Y-9594596D01*
X14769933Y-9585723D01*
X14789210Y-9572843D01*
X14805605Y-9556448D01*
X14818485Y-9537171D01*
X14827358Y-9515751D01*
X14828799Y-9508506D01*
X14853540Y-9508392D01*
X14854139Y-9511400D01*
D41*
G36*
X16435911Y-8189778D02*
G01*
X16435911Y-9837308D01*
X15242143Y-9839800D01*
X15253179Y-9837605D01*
X15272519Y-9829594D01*
X15289924Y-9817964D01*
X15304726Y-9803162D01*
X15316356Y-9785757D01*
X15324367Y-9766417D01*
X15328451Y-9745886D01*
X15328451Y-9724952D01*
X15324367Y-9704421D01*
X15316356Y-9685081D01*
X15304726Y-9667676D01*
X15289924Y-9652874D01*
X15272519Y-9641244D01*
X15253179Y-9633233D01*
X15232648Y-9629149D01*
X15211714Y-9629149D01*
X15191183Y-9633233D01*
X15171843Y-9641244D01*
X15154438Y-9652874D01*
X15139636Y-9667676D01*
X15128006Y-9685081D01*
X15119995Y-9704421D01*
X15115911Y-9724952D01*
X15115911Y-9745886D01*
X15119995Y-9766417D01*
X15120959Y-9768745D01*
X15068404Y-9821300D01*
X15030932Y-9821300D01*
X15035924Y-9817964D01*
X15050726Y-9803162D01*
X15062356Y-9785757D01*
X15070367Y-9766417D01*
X15074451Y-9745886D01*
X15074451Y-9724952D01*
X15070367Y-9704421D01*
X15062356Y-9685081D01*
X15050726Y-9667676D01*
X15035924Y-9652874D01*
X15018519Y-9641244D01*
X14999179Y-9633233D01*
X14978648Y-9629149D01*
X14957714Y-9629149D01*
X14937183Y-9633233D01*
X14917843Y-9641244D01*
X14900438Y-9652874D01*
X14885636Y-9667676D01*
X14875728Y-9682504D01*
X14875728Y-9644258D01*
X14936615Y-9583370D01*
X14937183Y-9583605D01*
X14957714Y-9587689D01*
X14978648Y-9587689D01*
X14999179Y-9583605D01*
X15018519Y-9575594D01*
X15035924Y-9563964D01*
X15050726Y-9549162D01*
X15062356Y-9531757D01*
X15070367Y-9512417D01*
X15074451Y-9491886D01*
X15074451Y-9470952D01*
X15070367Y-9450421D01*
X15062356Y-9431081D01*
X15050726Y-9413676D01*
X15035924Y-9398874D01*
X15018519Y-9387244D01*
X14999179Y-9379233D01*
X14978648Y-9375149D01*
X14957714Y-9375149D01*
X14937183Y-9379233D01*
X14917843Y-9387244D01*
X14900438Y-9398874D01*
X14885636Y-9413676D01*
X14874006Y-9431081D01*
X14865995Y-9450421D01*
X14861911Y-9470952D01*
X14861911Y-9491886D01*
X14865995Y-9512417D01*
X14866959Y-9514745D01*
X14793966Y-9587739D01*
X14792100Y-9589269D01*
X14785991Y-9596714D01*
X14785991Y-9596714D01*
X14781451Y-9605207D01*
X14778655Y-9614423D01*
X14777711Y-9624007D01*
X14777948Y-9626409D01*
X14777948Y-9652876D01*
X14769519Y-9647244D01*
X14750179Y-9639233D01*
X14729648Y-9635149D01*
X14708714Y-9635149D01*
X14688183Y-9639233D01*
X14668843Y-9647244D01*
X14651438Y-9658874D01*
X14636636Y-9673676D01*
X14625006Y-9691081D01*
X14616995Y-9710421D01*
X14612911Y-9730952D01*
X14612911Y-9751886D01*
X14616995Y-9772417D01*
X14625006Y-9791757D01*
X14636636Y-9809162D01*
X14651438Y-9823964D01*
X14666129Y-9833781D01*
X14666129Y-9841003D01*
X14573931Y-9841195D01*
X14573931Y-9692055D01*
X14682615Y-9583370D01*
X14683183Y-9583605D01*
X14703714Y-9587689D01*
X14724648Y-9587689D01*
X14745179Y-9583605D01*
X14764519Y-9575594D01*
X14781924Y-9563964D01*
X14796726Y-9549162D01*
X14808356Y-9531757D01*
X14816367Y-9512417D01*
X14820451Y-9491886D01*
X14820451Y-9470952D01*
X14816367Y-9450421D01*
X14808356Y-9431081D01*
X14796726Y-9413676D01*
X14781924Y-9398874D01*
X14764519Y-9387244D01*
X14745179Y-9379233D01*
X14724648Y-9375149D01*
X14703714Y-9375149D01*
X14683183Y-9379233D01*
X14663843Y-9387244D01*
X14646438Y-9398874D01*
X14631636Y-9413676D01*
X14620006Y-9431081D01*
X14611995Y-9450421D01*
X14607911Y-9470952D01*
X14607911Y-9491886D01*
X14611995Y-9512417D01*
X14612959Y-9514745D01*
X14492169Y-9635536D01*
X14490303Y-9637066D01*
X14484194Y-9644511D01*
X14484194Y-9644511D01*
X14479654Y-9653004D01*
X14476858Y-9662220D01*
X14475914Y-9671804D01*
X14476151Y-9674206D01*
X14476151Y-9841399D01*
X14118256Y-9842146D01*
X14119178Y-9588396D01*
X14125720Y-9584900D01*
X14132004Y-9579742D01*
X14137162Y-9573458D01*
X14140994Y-9566289D01*
X14143354Y-9558509D01*
X14144151Y-9550419D01*
X14144151Y-9470419D01*
X14143354Y-9462329D01*
X14140994Y-9454549D01*
X14137162Y-9447380D01*
X14132004Y-9441096D01*
X14125720Y-9435938D01*
X14119744Y-9432744D01*
X14120108Y-9332900D01*
X14125720Y-9329900D01*
X14132004Y-9324742D01*
X14137162Y-9318458D01*
X14140994Y-9311289D01*
X14143354Y-9303509D01*
X14144151Y-9295419D01*
X14144151Y-9215419D01*
X14143354Y-9207329D01*
X14140994Y-9199549D01*
X14137162Y-9192380D01*
X14132004Y-9186096D01*
X14125720Y-9180938D01*
X14120670Y-9178239D01*
X14121649Y-8909145D01*
X14127720Y-8905900D01*
X14134004Y-8900742D01*
X14139162Y-8894458D01*
X14142994Y-8887289D01*
X14145354Y-8879509D01*
X14146151Y-8871419D01*
X14146151Y-8791419D01*
X14145354Y-8783329D01*
X14142994Y-8775549D01*
X14139162Y-8768380D01*
X14134004Y-8762096D01*
X14127720Y-8756938D01*
X14122213Y-8753995D01*
X14122578Y-8653648D01*
X14127720Y-8650900D01*
X14134004Y-8645742D01*
X14139162Y-8639458D01*
X14142994Y-8632289D01*
X14145354Y-8624509D01*
X14146151Y-8616419D01*
X14146151Y-8536419D01*
X14145354Y-8528329D01*
X14142994Y-8520549D01*
X14139162Y-8513380D01*
X14134004Y-8507096D01*
X14127720Y-8501938D01*
X14123139Y-8499489D01*
X14124265Y-8189689D01*
X16435911Y-8189778D01*
X16435911Y-8189778D01*
G37*
X16435911Y-8189778D02*
X16435911Y-9837308D01*
X15242143Y-9839800D01*
X15253179Y-9837605D01*
X15272519Y-9829594D01*
X15289924Y-9817964D01*
X15304726Y-9803162D01*
X15316356Y-9785757D01*
X15324367Y-9766417D01*
X15328451Y-9745886D01*
X15328451Y-9724952D01*
X15324367Y-9704421D01*
X15316356Y-9685081D01*
X15304726Y-9667676D01*
X15289924Y-9652874D01*
X15272519Y-9641244D01*
X15253179Y-9633233D01*
X15232648Y-9629149D01*
X15211714Y-9629149D01*
X15191183Y-9633233D01*
X15171843Y-9641244D01*
X15154438Y-9652874D01*
X15139636Y-9667676D01*
X15128006Y-9685081D01*
X15119995Y-9704421D01*
X15115911Y-9724952D01*
X15115911Y-9745886D01*
X15119995Y-9766417D01*
X15120959Y-9768745D01*
X15068404Y-9821300D01*
X15030932Y-9821300D01*
X15035924Y-9817964D01*
X15050726Y-9803162D01*
X15062356Y-9785757D01*
X15070367Y-9766417D01*
X15074451Y-9745886D01*
X15074451Y-9724952D01*
X15070367Y-9704421D01*
X15062356Y-9685081D01*
X15050726Y-9667676D01*
X15035924Y-9652874D01*
X15018519Y-9641244D01*
X14999179Y-9633233D01*
X14978648Y-9629149D01*
X14957714Y-9629149D01*
X14937183Y-9633233D01*
X14917843Y-9641244D01*
X14900438Y-9652874D01*
X14885636Y-9667676D01*
X14875728Y-9682504D01*
X14875728Y-9644258D01*
X14936615Y-9583370D01*
X14937183Y-9583605D01*
X14957714Y-9587689D01*
X14978648Y-9587689D01*
X14999179Y-9583605D01*
X15018519Y-9575594D01*
X15035924Y-9563964D01*
X15050726Y-9549162D01*
X15062356Y-9531757D01*
X15070367Y-9512417D01*
X15074451Y-9491886D01*
X15074451Y-9470952D01*
X15070367Y-9450421D01*
X15062356Y-9431081D01*
X15050726Y-9413676D01*
X15035924Y-9398874D01*
X15018519Y-9387244D01*
X14999179Y-9379233D01*
X14978648Y-9375149D01*
X14957714Y-9375149D01*
X14937183Y-9379233D01*
X14917843Y-9387244D01*
X14900438Y-9398874D01*
X14885636Y-9413676D01*
X14874006Y-9431081D01*
X14865995Y-9450421D01*
X14861911Y-9470952D01*
X14861911Y-9491886D01*
X14865995Y-9512417D01*
X14866959Y-9514745D01*
X14793966Y-9587739D01*
X14792100Y-9589269D01*
X14785991Y-9596714D01*
X14785991Y-9596714D01*
X14781451Y-9605207D01*
X14778655Y-9614423D01*
X14777711Y-9624007D01*
X14777948Y-9626409D01*
X14777948Y-9652876D01*
X14769519Y-9647244D01*
X14750179Y-9639233D01*
X14729648Y-9635149D01*
X14708714Y-9635149D01*
X14688183Y-9639233D01*
X14668843Y-9647244D01*
X14651438Y-9658874D01*
X14636636Y-9673676D01*
X14625006Y-9691081D01*
X14616995Y-9710421D01*
X14612911Y-9730952D01*
X14612911Y-9751886D01*
X14616995Y-9772417D01*
X14625006Y-9791757D01*
X14636636Y-9809162D01*
X14651438Y-9823964D01*
X14666129Y-9833781D01*
X14666129Y-9841003D01*
X14573931Y-9841195D01*
X14573931Y-9692055D01*
X14682615Y-9583370D01*
X14683183Y-9583605D01*
X14703714Y-9587689D01*
X14724648Y-9587689D01*
X14745179Y-9583605D01*
X14764519Y-9575594D01*
X14781924Y-9563964D01*
X14796726Y-9549162D01*
X14808356Y-9531757D01*
X14816367Y-9512417D01*
X14820451Y-9491886D01*
X14820451Y-9470952D01*
X14816367Y-9450421D01*
X14808356Y-9431081D01*
X14796726Y-9413676D01*
X14781924Y-9398874D01*
X14764519Y-9387244D01*
X14745179Y-9379233D01*
X14724648Y-9375149D01*
X14703714Y-9375149D01*
X14683183Y-9379233D01*
X14663843Y-9387244D01*
X14646438Y-9398874D01*
X14631636Y-9413676D01*
X14620006Y-9431081D01*
X14611995Y-9450421D01*
X14607911Y-9470952D01*
X14607911Y-9491886D01*
X14611995Y-9512417D01*
X14612959Y-9514745D01*
X14492169Y-9635536D01*
X14490303Y-9637066D01*
X14484194Y-9644511D01*
X14484194Y-9644511D01*
X14479654Y-9653004D01*
X14476858Y-9662220D01*
X14475914Y-9671804D01*
X14476151Y-9674206D01*
X14476151Y-9841399D01*
X14118256Y-9842146D01*
X14119178Y-9588396D01*
X14125720Y-9584900D01*
X14132004Y-9579742D01*
X14137162Y-9573458D01*
X14140994Y-9566289D01*
X14143354Y-9558509D01*
X14144151Y-9550419D01*
X14144151Y-9470419D01*
X14143354Y-9462329D01*
X14140994Y-9454549D01*
X14137162Y-9447380D01*
X14132004Y-9441096D01*
X14125720Y-9435938D01*
X14119744Y-9432744D01*
X14120108Y-9332900D01*
X14125720Y-9329900D01*
X14132004Y-9324742D01*
X14137162Y-9318458D01*
X14140994Y-9311289D01*
X14143354Y-9303509D01*
X14144151Y-9295419D01*
X14144151Y-9215419D01*
X14143354Y-9207329D01*
X14140994Y-9199549D01*
X14137162Y-9192380D01*
X14132004Y-9186096D01*
X14125720Y-9180938D01*
X14120670Y-9178239D01*
X14121649Y-8909145D01*
X14127720Y-8905900D01*
X14134004Y-8900742D01*
X14139162Y-8894458D01*
X14142994Y-8887289D01*
X14145354Y-8879509D01*
X14146151Y-8871419D01*
X14146151Y-8791419D01*
X14145354Y-8783329D01*
X14142994Y-8775549D01*
X14139162Y-8768380D01*
X14134004Y-8762096D01*
X14127720Y-8756938D01*
X14122213Y-8753995D01*
X14122578Y-8653648D01*
X14127720Y-8650900D01*
X14134004Y-8645742D01*
X14139162Y-8639458D01*
X14142994Y-8632289D01*
X14145354Y-8624509D01*
X14146151Y-8616419D01*
X14146151Y-8536419D01*
X14145354Y-8528329D01*
X14142994Y-8520549D01*
X14139162Y-8513380D01*
X14134004Y-8507096D01*
X14127720Y-8501938D01*
X14123139Y-8499489D01*
X14124265Y-8189689D01*
X16435911Y-8189778D01*
G36*
X15191183Y-9837605D02*
G01*
X15202633Y-9839883D01*
X15188072Y-9839913D01*
X15190615Y-9837370D01*
X15191183Y-9837605D01*
X15191183Y-9837605D01*
G37*
X15191183Y-9837605D02*
X15202633Y-9839883D01*
X15188072Y-9839913D01*
X15190615Y-9837370D01*
X15191183Y-9837605D01*
G36*
X13910911Y-8499656D02*
G01*
X13906642Y-8501938D01*
X13900358Y-8507096D01*
X13895200Y-8513380D01*
X13891368Y-8520549D01*
X13889008Y-8528329D01*
X13888211Y-8536419D01*
X13888211Y-8616419D01*
X13889008Y-8624509D01*
X13891368Y-8632289D01*
X13895200Y-8639458D01*
X13900358Y-8645742D01*
X13906642Y-8650900D01*
X13910911Y-8653182D01*
X13910911Y-8754656D01*
X13906642Y-8756938D01*
X13900358Y-8762096D01*
X13895200Y-8768380D01*
X13891368Y-8775549D01*
X13889008Y-8783329D01*
X13888211Y-8791419D01*
X13888211Y-8871419D01*
X13889008Y-8879509D01*
X13891368Y-8887289D01*
X13895200Y-8894458D01*
X13900358Y-8900742D01*
X13906642Y-8905900D01*
X13910911Y-8908182D01*
X13910911Y-9177587D01*
X13904642Y-9180938D01*
X13898358Y-9186096D01*
X13893200Y-9192380D01*
X13889368Y-9199549D01*
X13887008Y-9207329D01*
X13886211Y-9215419D01*
X13886211Y-9295419D01*
X13887008Y-9303509D01*
X13889368Y-9311289D01*
X13893200Y-9318458D01*
X13898358Y-9324742D01*
X13904642Y-9329900D01*
X13910911Y-9333251D01*
X13910911Y-9432587D01*
X13904642Y-9435938D01*
X13898358Y-9441096D01*
X13893200Y-9447380D01*
X13889368Y-9454549D01*
X13887008Y-9462329D01*
X13886211Y-9470419D01*
X13886211Y-9550419D01*
X13887008Y-9558509D01*
X13889368Y-9566289D01*
X13893200Y-9573458D01*
X13898358Y-9579742D01*
X13904642Y-9584900D01*
X13910911Y-9588251D01*
X13910911Y-9832153D01*
X13680311Y-9832793D01*
X13676357Y-9825397D01*
X13670248Y-9817952D01*
X13668382Y-9816421D01*
X13646369Y-9794409D01*
X13644839Y-9792544D01*
X13637394Y-9786435D01*
X13628901Y-9781895D01*
X13628900Y-9781895D01*
X13628900Y-9781895D01*
X13626991Y-9781316D01*
X13619685Y-9779100D01*
X13619685Y-9779100D01*
X13619684Y-9779099D01*
X13614563Y-9778595D01*
X13612502Y-9778392D01*
X13612502Y-9778392D01*
X13610100Y-9778156D01*
X13607699Y-9778392D01*
X13519731Y-9778392D01*
X13519731Y-9707282D01*
X13518934Y-9699192D01*
X13516574Y-9691412D01*
X13513179Y-9685061D01*
X13513934Y-9682572D01*
X13514731Y-9674482D01*
X13514731Y-9624482D01*
X13513934Y-9616392D01*
X13511574Y-9608612D01*
X13507742Y-9601443D01*
X13502584Y-9595159D01*
X13496300Y-9590001D01*
X13489131Y-9586169D01*
X13481351Y-9583809D01*
X13473261Y-9583012D01*
X13413261Y-9583012D01*
X13405171Y-9583809D01*
X13397391Y-9586169D01*
X13390222Y-9590001D01*
X13383938Y-9595159D01*
X13378780Y-9601443D01*
X13374948Y-9608612D01*
X13372588Y-9616392D01*
X13371791Y-9624482D01*
X13371791Y-9671962D01*
X13370222Y-9672801D01*
X13363938Y-9677959D01*
X13358780Y-9684243D01*
X13354948Y-9691412D01*
X13352588Y-9699192D01*
X13351791Y-9707282D01*
X13351791Y-9802282D01*
X13352588Y-9810372D01*
X13354948Y-9818152D01*
X13358780Y-9825321D01*
X13360389Y-9827282D01*
X13358780Y-9829243D01*
X13356402Y-9833693D01*
X12851430Y-9835096D01*
X12790592Y-9774257D01*
X12793451Y-9759886D01*
X12793451Y-9738952D01*
X12789367Y-9718421D01*
X12781356Y-9699081D01*
X12769726Y-9681676D01*
X12754924Y-9666874D01*
X12737519Y-9655244D01*
X12718179Y-9647233D01*
X12697648Y-9643149D01*
X12676714Y-9643149D01*
X12656183Y-9647233D01*
X12636843Y-9655244D01*
X12619438Y-9666874D01*
X12604636Y-9681676D01*
X12593006Y-9699081D01*
X12584995Y-9718421D01*
X12580911Y-9738952D01*
X12580911Y-9759886D01*
X12584995Y-9780417D01*
X12593006Y-9799757D01*
X12604636Y-9817162D01*
X12619438Y-9831964D01*
X12625065Y-9835724D01*
X12263060Y-9836730D01*
X12263060Y-8189689D01*
X13910911Y-8189689D01*
X13910911Y-8499656D01*
X13910911Y-8499656D01*
G37*
X13910911Y-8499656D02*
X13906642Y-8501938D01*
X13900358Y-8507096D01*
X13895200Y-8513380D01*
X13891368Y-8520549D01*
X13889008Y-8528329D01*
X13888211Y-8536419D01*
X13888211Y-8616419D01*
X13889008Y-8624509D01*
X13891368Y-8632289D01*
X13895200Y-8639458D01*
X13900358Y-8645742D01*
X13906642Y-8650900D01*
X13910911Y-8653182D01*
X13910911Y-8754656D01*
X13906642Y-8756938D01*
X13900358Y-8762096D01*
X13895200Y-8768380D01*
X13891368Y-8775549D01*
X13889008Y-8783329D01*
X13888211Y-8791419D01*
X13888211Y-8871419D01*
X13889008Y-8879509D01*
X13891368Y-8887289D01*
X13895200Y-8894458D01*
X13900358Y-8900742D01*
X13906642Y-8905900D01*
X13910911Y-8908182D01*
X13910911Y-9177587D01*
X13904642Y-9180938D01*
X13898358Y-9186096D01*
X13893200Y-9192380D01*
X13889368Y-9199549D01*
X13887008Y-9207329D01*
X13886211Y-9215419D01*
X13886211Y-9295419D01*
X13887008Y-9303509D01*
X13889368Y-9311289D01*
X13893200Y-9318458D01*
X13898358Y-9324742D01*
X13904642Y-9329900D01*
X13910911Y-9333251D01*
X13910911Y-9432587D01*
X13904642Y-9435938D01*
X13898358Y-9441096D01*
X13893200Y-9447380D01*
X13889368Y-9454549D01*
X13887008Y-9462329D01*
X13886211Y-9470419D01*
X13886211Y-9550419D01*
X13887008Y-9558509D01*
X13889368Y-9566289D01*
X13893200Y-9573458D01*
X13898358Y-9579742D01*
X13904642Y-9584900D01*
X13910911Y-9588251D01*
X13910911Y-9832153D01*
X13680311Y-9832793D01*
X13676357Y-9825397D01*
X13670248Y-9817952D01*
X13668382Y-9816421D01*
X13646369Y-9794409D01*
X13644839Y-9792544D01*
X13637394Y-9786435D01*
X13628901Y-9781895D01*
X13628900Y-9781895D01*
X13628900Y-9781895D01*
X13626991Y-9781316D01*
X13619685Y-9779100D01*
X13619685Y-9779100D01*
X13619684Y-9779099D01*
X13614563Y-9778595D01*
X13612502Y-9778392D01*
X13612502Y-9778392D01*
X13610100Y-9778156D01*
X13607699Y-9778392D01*
X13519731Y-9778392D01*
X13519731Y-9707282D01*
X13518934Y-9699192D01*
X13516574Y-9691412D01*
X13513179Y-9685061D01*
X13513934Y-9682572D01*
X13514731Y-9674482D01*
X13514731Y-9624482D01*
X13513934Y-9616392D01*
X13511574Y-9608612D01*
X13507742Y-9601443D01*
X13502584Y-9595159D01*
X13496300Y-9590001D01*
X13489131Y-9586169D01*
X13481351Y-9583809D01*
X13473261Y-9583012D01*
X13413261Y-9583012D01*
X13405171Y-9583809D01*
X13397391Y-9586169D01*
X13390222Y-9590001D01*
X13383938Y-9595159D01*
X13378780Y-9601443D01*
X13374948Y-9608612D01*
X13372588Y-9616392D01*
X13371791Y-9624482D01*
X13371791Y-9671962D01*
X13370222Y-9672801D01*
X13363938Y-9677959D01*
X13358780Y-9684243D01*
X13354948Y-9691412D01*
X13352588Y-9699192D01*
X13351791Y-9707282D01*
X13351791Y-9802282D01*
X13352588Y-9810372D01*
X13354948Y-9818152D01*
X13358780Y-9825321D01*
X13360389Y-9827282D01*
X13358780Y-9829243D01*
X13356402Y-9833693D01*
X12851430Y-9835096D01*
X12790592Y-9774257D01*
X12793451Y-9759886D01*
X12793451Y-9738952D01*
X12789367Y-9718421D01*
X12781356Y-9699081D01*
X12769726Y-9681676D01*
X12754924Y-9666874D01*
X12737519Y-9655244D01*
X12718179Y-9647233D01*
X12697648Y-9643149D01*
X12676714Y-9643149D01*
X12656183Y-9647233D01*
X12636843Y-9655244D01*
X12619438Y-9666874D01*
X12604636Y-9681676D01*
X12593006Y-9699081D01*
X12584995Y-9718421D01*
X12580911Y-9738952D01*
X12580911Y-9759886D01*
X12584995Y-9780417D01*
X12593006Y-9799757D01*
X12604636Y-9817162D01*
X12619438Y-9831964D01*
X12625065Y-9835724D01*
X12263060Y-9836730D01*
X12263060Y-8189689D01*
X13910911Y-8189689D01*
X13910911Y-8499656D01*
%TD*%
M02*
