%TF.GenerationSoftware,KiCad,Pcbnew,5.1.3-ffb9f22~84~ubuntu18.04.1*%
%TF.CreationDate,2019-07-25T20:13:38+03:00*%
%TF.ProjectId,bluetooth,626c7565-746f-46f7-9468-2e6b69636164,rev?*%
%TF.SameCoordinates,Original*%
%TF.FileFunction,Legend,Top*%
%TF.FilePolarity,Positive*%
%FSLAX45Y45*%
G04 Gerber Fmt 4.5, Leading zero omitted, Abs format (unit mm)*
G04 Created by KiCad (PCBNEW 5.1.3-ffb9f22~84~ubuntu18.04.1) date 2019-07-25 20:13:38*
%MOMM*%
%LPD*%
G04 APERTURE LIST*
%ADD10C,0.100000*%
%ADD11C,0.150000*%
%ADD12C,0.300000*%
%ADD13C,0.400000*%
%ADD14C,0.152400*%
%ADD15C,0.200000*%
%ADD16C,0.062500*%
%ADD17C,0.050000*%
%ADD18R,1.750000X0.800000*%
%ADD19R,0.800000X1.750000*%
%ADD20C,1.300000*%
%ADD21O,0.200000X0.650000*%
%ADD22O,0.650000X0.200000*%
%ADD23R,4.700000X4.700000*%
%ADD24R,0.500000X0.600000*%
%ADD25C,0.750000*%
%ADD26C,0.500000*%
%ADD27R,0.750000X0.800000*%
%ADD28R,0.600000X0.500000*%
%ADD29R,0.850000X0.950000*%
%ADD30R,0.800000X0.750000*%
%ADD31R,1.000000X1.800000*%
G04 APERTURE END LIST*
D10*
D11*
X17700220Y-16600720D02*
X17700220Y-19800720D01*
X28500220Y-19800720D01*
X28500220Y-16600720D01*
X17700220Y-16600720D01*
D10*
D11*
X1000000Y-1000000D02*
X1000000Y-20000720D01*
X28700220Y-20000720D01*
X28700220Y-1000000D01*
X1000000Y-1000000D01*
D10*
D11*
X1200000Y-1200000D02*
X1200000Y-19800720D01*
X28500220Y-19800720D01*
X28500220Y-1200000D01*
X1200000Y-1200000D01*
D10*
D11*
X6000000Y-1200000D02*
X6000000Y-1000000D01*
D10*
D11*
X11000000Y-1200000D02*
X11000000Y-1000000D01*
D10*
D11*
X16000000Y-1200000D02*
X16000000Y-1000000D01*
D10*
D11*
X21000000Y-1200000D02*
X21000000Y-1000000D01*
D10*
D11*
X26000000Y-1200000D02*
X26000000Y-1000000D01*
D10*
D11*
X3606548Y-1158810D02*
X3532262Y-1158810D01*
X3569405Y-1158810D02*
X3569405Y-1028809D01*
X3557024Y-1047381D01*
X3544643Y-1059762D01*
X3532262Y-1065952D01*
D10*
D11*
X8532262Y-1041190D02*
X8538452Y-1035000D01*
X8550833Y-1028809D01*
X8581786Y-1028809D01*
X8594167Y-1035000D01*
X8600357Y-1041190D01*
X8606548Y-1053571D01*
X8606548Y-1065952D01*
X8600357Y-1084524D01*
X8526071Y-1158810D01*
X8606548Y-1158810D01*
D10*
D11*
X13526071Y-1028809D02*
X13606548Y-1028809D01*
X13563214Y-1078333D01*
X13581786Y-1078333D01*
X13594167Y-1084524D01*
X13600357Y-1090714D01*
X13606548Y-1103095D01*
X13606548Y-1134048D01*
X13600357Y-1146429D01*
X13594167Y-1152619D01*
X13581786Y-1158810D01*
X13544643Y-1158810D01*
X13532262Y-1152619D01*
X13526071Y-1146429D01*
D10*
D11*
X18594167Y-1072143D02*
X18594167Y-1158810D01*
X18563214Y-1022619D02*
X18532262Y-1115476D01*
X18612738Y-1115476D01*
D10*
D11*
X23600357Y-1028809D02*
X23538452Y-1028809D01*
X23532262Y-1090714D01*
X23538452Y-1084524D01*
X23550833Y-1078333D01*
X23581786Y-1078333D01*
X23594167Y-1084524D01*
X23600357Y-1090714D01*
X23606548Y-1103095D01*
X23606548Y-1134048D01*
X23600357Y-1146429D01*
X23594167Y-1152619D01*
X23581786Y-1158810D01*
X23550833Y-1158810D01*
X23538452Y-1152619D01*
X23532262Y-1146429D01*
D10*
D11*
X28594167Y-1028809D02*
X28569405Y-1028809D01*
X28557024Y-1035000D01*
X28550833Y-1041190D01*
X28538452Y-1059762D01*
X28532262Y-1084524D01*
X28532262Y-1134048D01*
X28538452Y-1146429D01*
X28544643Y-1152619D01*
X28557024Y-1158810D01*
X28581786Y-1158810D01*
X28594167Y-1152619D01*
X28600357Y-1146429D01*
X28606548Y-1134048D01*
X28606548Y-1103095D01*
X28600357Y-1090714D01*
X28594167Y-1084524D01*
X28581786Y-1078333D01*
X28557024Y-1078333D01*
X28544643Y-1084524D01*
X28538452Y-1090714D01*
X28532262Y-1103095D01*
D10*
D11*
X6000000Y-19800720D02*
X6000000Y-20000720D01*
D10*
D11*
X11000000Y-19800720D02*
X11000000Y-20000720D01*
D10*
D11*
X16000000Y-19800720D02*
X16000000Y-20000720D01*
D10*
D11*
X21000000Y-19800720D02*
X21000000Y-20000720D01*
D10*
D11*
X26000000Y-19800720D02*
X26000000Y-20000720D01*
D10*
D11*
X3606548Y-19959530D02*
X3532262Y-19959530D01*
X3569405Y-19959530D02*
X3569405Y-19829530D01*
X3557024Y-19848101D01*
X3544643Y-19860482D01*
X3532262Y-19866672D01*
D10*
D11*
X8532262Y-19841910D02*
X8538452Y-19835720D01*
X8550833Y-19829530D01*
X8581786Y-19829530D01*
X8594167Y-19835720D01*
X8600357Y-19841910D01*
X8606548Y-19854291D01*
X8606548Y-19866672D01*
X8600357Y-19885244D01*
X8526071Y-19959530D01*
X8606548Y-19959530D01*
D10*
D11*
X13526071Y-19829530D02*
X13606548Y-19829530D01*
X13563214Y-19879053D01*
X13581786Y-19879053D01*
X13594167Y-19885244D01*
X13600357Y-19891434D01*
X13606548Y-19903815D01*
X13606548Y-19934768D01*
X13600357Y-19947149D01*
X13594167Y-19953339D01*
X13581786Y-19959530D01*
X13544643Y-19959530D01*
X13532262Y-19953339D01*
X13526071Y-19947149D01*
D10*
D11*
X18594167Y-19872863D02*
X18594167Y-19959530D01*
X18563214Y-19823339D02*
X18532262Y-19916196D01*
X18612738Y-19916196D01*
D10*
D11*
X23600357Y-19829530D02*
X23538452Y-19829530D01*
X23532262Y-19891434D01*
X23538452Y-19885244D01*
X23550833Y-19879053D01*
X23581786Y-19879053D01*
X23594167Y-19885244D01*
X23600357Y-19891434D01*
X23606548Y-19903815D01*
X23606548Y-19934768D01*
X23600357Y-19947149D01*
X23594167Y-19953339D01*
X23581786Y-19959530D01*
X23550833Y-19959530D01*
X23538452Y-19953339D01*
X23532262Y-19947149D01*
D10*
D11*
X28594167Y-19829530D02*
X28569405Y-19829530D01*
X28557024Y-19835720D01*
X28550833Y-19841910D01*
X28538452Y-19860482D01*
X28532262Y-19885244D01*
X28532262Y-19934768D01*
X28538452Y-19947149D01*
X28544643Y-19953339D01*
X28557024Y-19959530D01*
X28581786Y-19959530D01*
X28594167Y-19953339D01*
X28600357Y-19947149D01*
X28606548Y-19934768D01*
X28606548Y-19903815D01*
X28600357Y-19891434D01*
X28594167Y-19885244D01*
X28581786Y-19879053D01*
X28557024Y-19879053D01*
X28544643Y-19885244D01*
X28538452Y-19891434D01*
X28532262Y-19903815D01*
D10*
D11*
X1000000Y-6000000D02*
X1200000Y-6000000D01*
D10*
D11*
X1000000Y-11000000D02*
X1200000Y-11000000D01*
D10*
D11*
X1000000Y-16000000D02*
X1200000Y-16000000D01*
D10*
D11*
X1069048Y-3521667D02*
X1130952Y-3521667D01*
X1056667Y-3558809D02*
X1100000Y-3428809D01*
X1143333Y-3558809D01*
D10*
D11*
X1109286Y-8490714D02*
X1127857Y-8496905D01*
X1134048Y-8503095D01*
X1140238Y-8515476D01*
X1140238Y-8534048D01*
X1134048Y-8546429D01*
X1127857Y-8552619D01*
X1115476Y-8558810D01*
X1065952Y-8558810D01*
X1065952Y-8428810D01*
X1109286Y-8428810D01*
X1121667Y-8435000D01*
X1127857Y-8441190D01*
X1134048Y-8453571D01*
X1134048Y-8465952D01*
X1127857Y-8478333D01*
X1121667Y-8484524D01*
X1109286Y-8490714D01*
X1065952Y-8490714D01*
D10*
D11*
X1140238Y-13546428D02*
X1134048Y-13552619D01*
X1115476Y-13558809D01*
X1103095Y-13558809D01*
X1084524Y-13552619D01*
X1072143Y-13540238D01*
X1065952Y-13527857D01*
X1059762Y-13503095D01*
X1059762Y-13484524D01*
X1065952Y-13459762D01*
X1072143Y-13447381D01*
X1084524Y-13435000D01*
X1103095Y-13428809D01*
X1115476Y-13428809D01*
X1134048Y-13435000D01*
X1140238Y-13441190D01*
D10*
D11*
X1065952Y-18558810D02*
X1065952Y-18428810D01*
X1096905Y-18428810D01*
X1115476Y-18435000D01*
X1127857Y-18447381D01*
X1134048Y-18459762D01*
X1140238Y-18484524D01*
X1140238Y-18503095D01*
X1134048Y-18527857D01*
X1127857Y-18540238D01*
X1115476Y-18552619D01*
X1096905Y-18558810D01*
X1065952Y-18558810D01*
D10*
D11*
X28700220Y-6000000D02*
X28500220Y-6000000D01*
D10*
D11*
X28700220Y-11000000D02*
X28500220Y-11000000D01*
D10*
D11*
X28700220Y-16000000D02*
X28500220Y-16000000D01*
D10*
D11*
X28569268Y-3521667D02*
X28631172Y-3521667D01*
X28556887Y-3558809D02*
X28600220Y-3428809D01*
X28643553Y-3558809D01*
D10*
D11*
X28609506Y-8490714D02*
X28628077Y-8496905D01*
X28634268Y-8503095D01*
X28640458Y-8515476D01*
X28640458Y-8534048D01*
X28634268Y-8546429D01*
X28628077Y-8552619D01*
X28615696Y-8558810D01*
X28566172Y-8558810D01*
X28566172Y-8428810D01*
X28609506Y-8428810D01*
X28621887Y-8435000D01*
X28628077Y-8441190D01*
X28634268Y-8453571D01*
X28634268Y-8465952D01*
X28628077Y-8478333D01*
X28621887Y-8484524D01*
X28609506Y-8490714D01*
X28566172Y-8490714D01*
D10*
D11*
X28640458Y-13546428D02*
X28634268Y-13552619D01*
X28615696Y-13558809D01*
X28603315Y-13558809D01*
X28584744Y-13552619D01*
X28572363Y-13540238D01*
X28566172Y-13527857D01*
X28559982Y-13503095D01*
X28559982Y-13484524D01*
X28566172Y-13459762D01*
X28572363Y-13447381D01*
X28584744Y-13435000D01*
X28603315Y-13428809D01*
X28615696Y-13428809D01*
X28634268Y-13435000D01*
X28640458Y-13441190D01*
D10*
D11*
X28566172Y-18558810D02*
X28566172Y-18428810D01*
X28597125Y-18428810D01*
X28615696Y-18435000D01*
X28628077Y-18447381D01*
X28634268Y-18459762D01*
X28640458Y-18484524D01*
X28640458Y-18503095D01*
X28634268Y-18527857D01*
X28628077Y-18540238D01*
X28615696Y-18552619D01*
X28597125Y-18558810D01*
X28566172Y-18558810D01*
D10*
D11*
X20043434Y-19378577D02*
X20043434Y-19228577D01*
X20079149Y-19228577D01*
X20100577Y-19235720D01*
X20114863Y-19250006D01*
X20122006Y-19264291D01*
X20129149Y-19292863D01*
X20129149Y-19314291D01*
X20122006Y-19342863D01*
X20114863Y-19357149D01*
X20100577Y-19371434D01*
X20079149Y-19378577D01*
X20043434Y-19378577D01*
X20257720Y-19378577D02*
X20257720Y-19300006D01*
X20250577Y-19285720D01*
X20236291Y-19278577D01*
X20207720Y-19278577D01*
X20193434Y-19285720D01*
X20257720Y-19371434D02*
X20243434Y-19378577D01*
X20207720Y-19378577D01*
X20193434Y-19371434D01*
X20186291Y-19357149D01*
X20186291Y-19342863D01*
X20193434Y-19328577D01*
X20207720Y-19321434D01*
X20243434Y-19321434D01*
X20257720Y-19314291D01*
X20307720Y-19278577D02*
X20364863Y-19278577D01*
X20329149Y-19228577D02*
X20329149Y-19357149D01*
X20336291Y-19371434D01*
X20350577Y-19378577D01*
X20364863Y-19378577D01*
X20472006Y-19371434D02*
X20457720Y-19378577D01*
X20429149Y-19378577D01*
X20414863Y-19371434D01*
X20407720Y-19357149D01*
X20407720Y-19300006D01*
X20414863Y-19285720D01*
X20429149Y-19278577D01*
X20457720Y-19278577D01*
X20472006Y-19285720D01*
X20479149Y-19300006D01*
X20479149Y-19314291D01*
X20407720Y-19328577D01*
X20543434Y-19364291D02*
X20550577Y-19371434D01*
X20543434Y-19378577D01*
X20536291Y-19371434D01*
X20543434Y-19364291D01*
X20543434Y-19378577D01*
X20543434Y-19285720D02*
X20550577Y-19292863D01*
X20543434Y-19300006D01*
X20536291Y-19292863D01*
X20543434Y-19285720D01*
X20543434Y-19300006D01*
D10*
D11*
X17700220Y-19450720D02*
X28500220Y-19450720D01*
D10*
D11*
X17843434Y-19658577D02*
X17843434Y-19508577D01*
X17929149Y-19658577D02*
X17864863Y-19572863D01*
X17929149Y-19508577D02*
X17843434Y-19594291D01*
X17993434Y-19658577D02*
X17993434Y-19558577D01*
X17993434Y-19508577D02*
X17986291Y-19515720D01*
X17993434Y-19522863D01*
X18000577Y-19515720D01*
X17993434Y-19508577D01*
X17993434Y-19522863D01*
X18150577Y-19644291D02*
X18143434Y-19651434D01*
X18122006Y-19658577D01*
X18107720Y-19658577D01*
X18086291Y-19651434D01*
X18072006Y-19637149D01*
X18064863Y-19622863D01*
X18057720Y-19594291D01*
X18057720Y-19572863D01*
X18064863Y-19544291D01*
X18072006Y-19530006D01*
X18086291Y-19515720D01*
X18107720Y-19508577D01*
X18122006Y-19508577D01*
X18143434Y-19515720D01*
X18150577Y-19522863D01*
X18279149Y-19658577D02*
X18279149Y-19580006D01*
X18272006Y-19565720D01*
X18257720Y-19558577D01*
X18229149Y-19558577D01*
X18214863Y-19565720D01*
X18279149Y-19651434D02*
X18264863Y-19658577D01*
X18229149Y-19658577D01*
X18214863Y-19651434D01*
X18207720Y-19637149D01*
X18207720Y-19622863D01*
X18214863Y-19608577D01*
X18229149Y-19601434D01*
X18264863Y-19601434D01*
X18279149Y-19594291D01*
X18414863Y-19658577D02*
X18414863Y-19508577D01*
X18414863Y-19651434D02*
X18400577Y-19658577D01*
X18372006Y-19658577D01*
X18357720Y-19651434D01*
X18350577Y-19644291D01*
X18343434Y-19630006D01*
X18343434Y-19587149D01*
X18350577Y-19572863D01*
X18357720Y-19565720D01*
X18372006Y-19558577D01*
X18400577Y-19558577D01*
X18414863Y-19565720D01*
X18600577Y-19580006D02*
X18650577Y-19580006D01*
X18672006Y-19658577D02*
X18600577Y-19658577D01*
X18600577Y-19508577D01*
X18672006Y-19508577D01*
X18736291Y-19644291D02*
X18743434Y-19651434D01*
X18736291Y-19658577D01*
X18729149Y-19651434D01*
X18736291Y-19644291D01*
X18736291Y-19658577D01*
X18807720Y-19658577D02*
X18807720Y-19508577D01*
X18843434Y-19508577D01*
X18864863Y-19515720D01*
X18879149Y-19530006D01*
X18886291Y-19544291D01*
X18893434Y-19572863D01*
X18893434Y-19594291D01*
X18886291Y-19622863D01*
X18879149Y-19637149D01*
X18864863Y-19651434D01*
X18843434Y-19658577D01*
X18807720Y-19658577D01*
X18957720Y-19644291D02*
X18964863Y-19651434D01*
X18957720Y-19658577D01*
X18950577Y-19651434D01*
X18957720Y-19644291D01*
X18957720Y-19658577D01*
X19022006Y-19615720D02*
X19093434Y-19615720D01*
X19007720Y-19658577D02*
X19057720Y-19508577D01*
X19107720Y-19658577D01*
X19157720Y-19644291D02*
X19164863Y-19651434D01*
X19157720Y-19658577D01*
X19150577Y-19651434D01*
X19157720Y-19644291D01*
X19157720Y-19658577D01*
X19457720Y-19658577D02*
X19457720Y-19508577D01*
X19472006Y-19601434D02*
X19514863Y-19658577D01*
X19514863Y-19558577D02*
X19457720Y-19615720D01*
X19579149Y-19658577D02*
X19579149Y-19558577D01*
X19579149Y-19508577D02*
X19572006Y-19515720D01*
X19579149Y-19522863D01*
X19586291Y-19515720D01*
X19579149Y-19508577D01*
X19579149Y-19522863D01*
X19714863Y-19651434D02*
X19700577Y-19658577D01*
X19672006Y-19658577D01*
X19657720Y-19651434D01*
X19650577Y-19644291D01*
X19643434Y-19630006D01*
X19643434Y-19587149D01*
X19650577Y-19572863D01*
X19657720Y-19565720D01*
X19672006Y-19558577D01*
X19700577Y-19558577D01*
X19714863Y-19565720D01*
X19843434Y-19658577D02*
X19843434Y-19580006D01*
X19836291Y-19565720D01*
X19822006Y-19558577D01*
X19793434Y-19558577D01*
X19779149Y-19565720D01*
X19843434Y-19651434D02*
X19829149Y-19658577D01*
X19793434Y-19658577D01*
X19779149Y-19651434D01*
X19772006Y-19637149D01*
X19772006Y-19622863D01*
X19779149Y-19608577D01*
X19793434Y-19601434D01*
X19829149Y-19601434D01*
X19843434Y-19594291D01*
X19979149Y-19658577D02*
X19979149Y-19508577D01*
X19979149Y-19651434D02*
X19964863Y-19658577D01*
X19936291Y-19658577D01*
X19922006Y-19651434D01*
X19914863Y-19644291D01*
X19907720Y-19630006D01*
X19907720Y-19587149D01*
X19914863Y-19572863D01*
X19922006Y-19565720D01*
X19936291Y-19558577D01*
X19964863Y-19558577D01*
X19979149Y-19565720D01*
X20236291Y-19508577D02*
X20164863Y-19508577D01*
X20157720Y-19580006D01*
X20164863Y-19572863D01*
X20179149Y-19565720D01*
X20214863Y-19565720D01*
X20229149Y-19572863D01*
X20236291Y-19580006D01*
X20243434Y-19594291D01*
X20243434Y-19630006D01*
X20236291Y-19644291D01*
X20229149Y-19651434D01*
X20214863Y-19658577D01*
X20179149Y-19658577D01*
X20164863Y-19651434D01*
X20157720Y-19644291D01*
X20307720Y-19644291D02*
X20314863Y-19651434D01*
X20307720Y-19658577D01*
X20300577Y-19651434D01*
X20307720Y-19644291D01*
X20307720Y-19658577D01*
X20457720Y-19658577D02*
X20372006Y-19658577D01*
X20414863Y-19658577D02*
X20414863Y-19508577D01*
X20400577Y-19530006D01*
X20386291Y-19544291D01*
X20372006Y-19551434D01*
X20522006Y-19644291D02*
X20529149Y-19651434D01*
X20522006Y-19658577D01*
X20514863Y-19651434D01*
X20522006Y-19644291D01*
X20522006Y-19658577D01*
X20579149Y-19508577D02*
X20672006Y-19508577D01*
X20622006Y-19565720D01*
X20643434Y-19565720D01*
X20657720Y-19572863D01*
X20664863Y-19580006D01*
X20672006Y-19594291D01*
X20672006Y-19630006D01*
X20664863Y-19644291D01*
X20657720Y-19651434D01*
X20643434Y-19658577D01*
X20600577Y-19658577D01*
X20586291Y-19651434D01*
X20579149Y-19644291D01*
X20736291Y-19601434D02*
X20850577Y-19601434D01*
X20900577Y-19558577D02*
X20957720Y-19558577D01*
X20922006Y-19658577D02*
X20922006Y-19530006D01*
X20929149Y-19515720D01*
X20943434Y-19508577D01*
X20957720Y-19508577D01*
X20986291Y-19558577D02*
X21043434Y-19558577D01*
X21007720Y-19658577D02*
X21007720Y-19530006D01*
X21014863Y-19515720D01*
X21029149Y-19508577D01*
X21043434Y-19508577D01*
X21093434Y-19658577D02*
X21093434Y-19508577D01*
X21093434Y-19565720D02*
X21107720Y-19558577D01*
X21136291Y-19558577D01*
X21150577Y-19565720D01*
X21157720Y-19572863D01*
X21164863Y-19587149D01*
X21164863Y-19630006D01*
X21157720Y-19644291D01*
X21150577Y-19651434D01*
X21136291Y-19658577D01*
X21107720Y-19658577D01*
X21093434Y-19651434D01*
X21236291Y-19658577D02*
X21264863Y-19658577D01*
X21279149Y-19651434D01*
X21286291Y-19644291D01*
X21300577Y-19622863D01*
X21307720Y-19594291D01*
X21307720Y-19537149D01*
X21300577Y-19522863D01*
X21293434Y-19515720D01*
X21279149Y-19508577D01*
X21250577Y-19508577D01*
X21236291Y-19515720D01*
X21229149Y-19522863D01*
X21222006Y-19537149D01*
X21222006Y-19572863D01*
X21229149Y-19587149D01*
X21236291Y-19594291D01*
X21250577Y-19601434D01*
X21279149Y-19601434D01*
X21293434Y-19594291D01*
X21300577Y-19587149D01*
X21307720Y-19572863D01*
X21350577Y-19558577D02*
X21407720Y-19558577D01*
X21372006Y-19658577D02*
X21372006Y-19530006D01*
X21379149Y-19515720D01*
X21393434Y-19508577D01*
X21407720Y-19508577D01*
X21450577Y-19522863D02*
X21457720Y-19515720D01*
X21472006Y-19508577D01*
X21507720Y-19508577D01*
X21522006Y-19515720D01*
X21529149Y-19522863D01*
X21536291Y-19537149D01*
X21536291Y-19551434D01*
X21529149Y-19572863D01*
X21443434Y-19658577D01*
X21536291Y-19658577D01*
X21593434Y-19522863D02*
X21600577Y-19515720D01*
X21614863Y-19508577D01*
X21650577Y-19508577D01*
X21664863Y-19515720D01*
X21672006Y-19522863D01*
X21679149Y-19537149D01*
X21679149Y-19551434D01*
X21672006Y-19572863D01*
X21586291Y-19658577D01*
X21679149Y-19658577D01*
X21707720Y-19467720D02*
X21850577Y-19467720D01*
X21764863Y-19572863D02*
X21750577Y-19565720D01*
X21743434Y-19558577D01*
X21736291Y-19544291D01*
X21736291Y-19537149D01*
X21743434Y-19522863D01*
X21750577Y-19515720D01*
X21764863Y-19508577D01*
X21793434Y-19508577D01*
X21807720Y-19515720D01*
X21814863Y-19522863D01*
X21822006Y-19537149D01*
X21822006Y-19544291D01*
X21814863Y-19558577D01*
X21807720Y-19565720D01*
X21793434Y-19572863D01*
X21764863Y-19572863D01*
X21750577Y-19580006D01*
X21743434Y-19587149D01*
X21736291Y-19601434D01*
X21736291Y-19630006D01*
X21743434Y-19644291D01*
X21750577Y-19651434D01*
X21764863Y-19658577D01*
X21793434Y-19658577D01*
X21807720Y-19651434D01*
X21814863Y-19644291D01*
X21822006Y-19630006D01*
X21822006Y-19601434D01*
X21814863Y-19587149D01*
X21807720Y-19580006D01*
X21793434Y-19572863D01*
X21850577Y-19467720D02*
X21993434Y-19467720D01*
X21950577Y-19558577D02*
X21950577Y-19658577D01*
X21914863Y-19501434D02*
X21879149Y-19608577D01*
X21972006Y-19608577D01*
X22093434Y-19558577D02*
X22093434Y-19658577D01*
X22029149Y-19558577D02*
X22029149Y-19637149D01*
X22036291Y-19651434D01*
X22050577Y-19658577D01*
X22072006Y-19658577D01*
X22086291Y-19651434D01*
X22093434Y-19644291D01*
X22164863Y-19658577D02*
X22164863Y-19508577D01*
X22164863Y-19565720D02*
X22179149Y-19558577D01*
X22207720Y-19558577D01*
X22222006Y-19565720D01*
X22229149Y-19572863D01*
X22236291Y-19587149D01*
X22236291Y-19630006D01*
X22229149Y-19644291D01*
X22222006Y-19651434D01*
X22207720Y-19658577D01*
X22179149Y-19658577D01*
X22164863Y-19651434D01*
X22364863Y-19558577D02*
X22364863Y-19658577D01*
X22300577Y-19558577D02*
X22300577Y-19637149D01*
X22307720Y-19651434D01*
X22322006Y-19658577D01*
X22343434Y-19658577D01*
X22357720Y-19651434D01*
X22364863Y-19644291D01*
X22436291Y-19558577D02*
X22436291Y-19658577D01*
X22436291Y-19572863D02*
X22443434Y-19565720D01*
X22457720Y-19558577D01*
X22479148Y-19558577D01*
X22493434Y-19565720D01*
X22500577Y-19580006D01*
X22500577Y-19658577D01*
X22550577Y-19558577D02*
X22607720Y-19558577D01*
X22572006Y-19508577D02*
X22572006Y-19637149D01*
X22579148Y-19651434D01*
X22593434Y-19658577D01*
X22607720Y-19658577D01*
X22722006Y-19558577D02*
X22722006Y-19658577D01*
X22657720Y-19558577D02*
X22657720Y-19637149D01*
X22664863Y-19651434D01*
X22679148Y-19658577D01*
X22700577Y-19658577D01*
X22714863Y-19651434D01*
X22722006Y-19644291D01*
X22872006Y-19658577D02*
X22786291Y-19658577D01*
X22829148Y-19658577D02*
X22829148Y-19508577D01*
X22814863Y-19530006D01*
X22800577Y-19544291D01*
X22786291Y-19551434D01*
X22957720Y-19572863D02*
X22943434Y-19565720D01*
X22936291Y-19558577D01*
X22929148Y-19544291D01*
X22929148Y-19537149D01*
X22936291Y-19522863D01*
X22943434Y-19515720D01*
X22957720Y-19508577D01*
X22986291Y-19508577D01*
X23000577Y-19515720D01*
X23007720Y-19522863D01*
X23014863Y-19537149D01*
X23014863Y-19544291D01*
X23007720Y-19558577D01*
X23000577Y-19565720D01*
X22986291Y-19572863D01*
X22957720Y-19572863D01*
X22943434Y-19580006D01*
X22936291Y-19587149D01*
X22929148Y-19601434D01*
X22929148Y-19630006D01*
X22936291Y-19644291D01*
X22943434Y-19651434D01*
X22957720Y-19658577D01*
X22986291Y-19658577D01*
X23000577Y-19651434D01*
X23007720Y-19644291D01*
X23014863Y-19630006D01*
X23014863Y-19601434D01*
X23007720Y-19587149D01*
X23000577Y-19580006D01*
X22986291Y-19572863D01*
X23079148Y-19644291D02*
X23086291Y-19651434D01*
X23079148Y-19658577D01*
X23072006Y-19651434D01*
X23079148Y-19644291D01*
X23079148Y-19658577D01*
X23179148Y-19508577D02*
X23193434Y-19508577D01*
X23207720Y-19515720D01*
X23214863Y-19522863D01*
X23222006Y-19537149D01*
X23229148Y-19565720D01*
X23229148Y-19601434D01*
X23222006Y-19630006D01*
X23214863Y-19644291D01*
X23207720Y-19651434D01*
X23193434Y-19658577D01*
X23179148Y-19658577D01*
X23164863Y-19651434D01*
X23157720Y-19644291D01*
X23150577Y-19630006D01*
X23143434Y-19601434D01*
X23143434Y-19565720D01*
X23150577Y-19537149D01*
X23157720Y-19522863D01*
X23164863Y-19515720D01*
X23179148Y-19508577D01*
X23357720Y-19558577D02*
X23357720Y-19658577D01*
X23322006Y-19501434D02*
X23286291Y-19608577D01*
X23379148Y-19608577D01*
X23436291Y-19644291D02*
X23443434Y-19651434D01*
X23436291Y-19658577D01*
X23429148Y-19651434D01*
X23436291Y-19644291D01*
X23436291Y-19658577D01*
X23586291Y-19658577D02*
X23500577Y-19658577D01*
X23543434Y-19658577D02*
X23543434Y-19508577D01*
X23529148Y-19530006D01*
X23514863Y-19544291D01*
X23500577Y-19551434D01*
D10*
D11*
X17700220Y-19150720D02*
X28500220Y-19150720D01*
D10*
D12*
X26441148Y-19378577D02*
X26391148Y-19307149D01*
X26355434Y-19378577D02*
X26355434Y-19228577D01*
X26412577Y-19228577D01*
X26426863Y-19235720D01*
X26434006Y-19242863D01*
X26441148Y-19257149D01*
X26441148Y-19278577D01*
X26434006Y-19292863D01*
X26426863Y-19300006D01*
X26412577Y-19307149D01*
X26355434Y-19307149D01*
X26562577Y-19371434D02*
X26548291Y-19378577D01*
X26519720Y-19378577D01*
X26505434Y-19371434D01*
X26498291Y-19357149D01*
X26498291Y-19300006D01*
X26505434Y-19285720D01*
X26519720Y-19278577D01*
X26548291Y-19278577D01*
X26562577Y-19285720D01*
X26569720Y-19300006D01*
X26569720Y-19314291D01*
X26498291Y-19328577D01*
X26619720Y-19278577D02*
X26655434Y-19378577D01*
X26691148Y-19278577D01*
X26748291Y-19364291D02*
X26755434Y-19371434D01*
X26748291Y-19378577D01*
X26741148Y-19371434D01*
X26748291Y-19364291D01*
X26748291Y-19378577D01*
X26748291Y-19285720D02*
X26755434Y-19292863D01*
X26748291Y-19300006D01*
X26741148Y-19292863D01*
X26748291Y-19285720D01*
X26748291Y-19300006D01*
D10*
D11*
X17836291Y-19371434D02*
X17857720Y-19378577D01*
X17893434Y-19378577D01*
X17907720Y-19371434D01*
X17914863Y-19364291D01*
X17922006Y-19350006D01*
X17922006Y-19335720D01*
X17914863Y-19321434D01*
X17907720Y-19314291D01*
X17893434Y-19307149D01*
X17864863Y-19300006D01*
X17850577Y-19292863D01*
X17843434Y-19285720D01*
X17836291Y-19271434D01*
X17836291Y-19257149D01*
X17843434Y-19242863D01*
X17850577Y-19235720D01*
X17864863Y-19228577D01*
X17900577Y-19228577D01*
X17922006Y-19235720D01*
X17986291Y-19378577D02*
X17986291Y-19278577D01*
X17986291Y-19228577D02*
X17979149Y-19235720D01*
X17986291Y-19242863D01*
X17993434Y-19235720D01*
X17986291Y-19228577D01*
X17986291Y-19242863D01*
X18043434Y-19278577D02*
X18122006Y-19278577D01*
X18043434Y-19378577D01*
X18122006Y-19378577D01*
X18236291Y-19371434D02*
X18222006Y-19378577D01*
X18193434Y-19378577D01*
X18179149Y-19371434D01*
X18172006Y-19357149D01*
X18172006Y-19300006D01*
X18179149Y-19285720D01*
X18193434Y-19278577D01*
X18222006Y-19278577D01*
X18236291Y-19285720D01*
X18243434Y-19300006D01*
X18243434Y-19314291D01*
X18172006Y-19328577D01*
X18307720Y-19364291D02*
X18314863Y-19371434D01*
X18307720Y-19378577D01*
X18300577Y-19371434D01*
X18307720Y-19364291D01*
X18307720Y-19378577D01*
X18307720Y-19285720D02*
X18314863Y-19292863D01*
X18307720Y-19300006D01*
X18300577Y-19292863D01*
X18307720Y-19285720D01*
X18307720Y-19300006D01*
X18486291Y-19335720D02*
X18557720Y-19335720D01*
X18472006Y-19378577D02*
X18522006Y-19228577D01*
X18572006Y-19378577D01*
X18686291Y-19278577D02*
X18686291Y-19378577D01*
X18650577Y-19221434D02*
X18614863Y-19328577D01*
X18707720Y-19328577D01*
D10*
D11*
X26343434Y-19658577D02*
X26343434Y-19508577D01*
X26479148Y-19658577D02*
X26479148Y-19508577D01*
X26479148Y-19651434D02*
X26464863Y-19658577D01*
X26436291Y-19658577D01*
X26422006Y-19651434D01*
X26414863Y-19644291D01*
X26407720Y-19630006D01*
X26407720Y-19587149D01*
X26414863Y-19572863D01*
X26422006Y-19565720D01*
X26436291Y-19558577D01*
X26464863Y-19558577D01*
X26479148Y-19565720D01*
X26550577Y-19644291D02*
X26557720Y-19651434D01*
X26550577Y-19658577D01*
X26543434Y-19651434D01*
X26550577Y-19644291D01*
X26550577Y-19658577D01*
X26550577Y-19565720D02*
X26557720Y-19572863D01*
X26550577Y-19580006D01*
X26543434Y-19572863D01*
X26550577Y-19565720D01*
X26550577Y-19580006D01*
X26814863Y-19658577D02*
X26729148Y-19658577D01*
X26772006Y-19658577D02*
X26772006Y-19508577D01*
X26757720Y-19530006D01*
X26743434Y-19544291D01*
X26729148Y-19551434D01*
X26986291Y-19501434D02*
X26857720Y-19694291D01*
X27114863Y-19658577D02*
X27029148Y-19658577D01*
X27072006Y-19658577D02*
X27072006Y-19508577D01*
X27057720Y-19530006D01*
X27043434Y-19544291D01*
X27029148Y-19551434D01*
D10*
D11*
X17700220Y-18750720D02*
X28500220Y-18750720D01*
D10*
D13*
X17871458Y-18821196D02*
X17985744Y-18821196D01*
X17903601Y-19021196D02*
X17928601Y-18821196D01*
X18027410Y-19021196D02*
X18044077Y-18887863D01*
X18052410Y-18821196D02*
X18041696Y-18830720D01*
X18050030Y-18840244D01*
X18060744Y-18830720D01*
X18052410Y-18821196D01*
X18050030Y-18840244D01*
X18110744Y-18887863D02*
X18186934Y-18887863D01*
X18147649Y-18821196D02*
X18126220Y-18992625D01*
X18133363Y-19011672D01*
X18151220Y-19021196D01*
X18170268Y-19021196D01*
X18265506Y-19021196D02*
X18247649Y-19011672D01*
X18240506Y-18992625D01*
X18261934Y-18821196D01*
X18419077Y-19011672D02*
X18398839Y-19021196D01*
X18360744Y-19021196D01*
X18342887Y-19011672D01*
X18335744Y-18992625D01*
X18345268Y-18916434D01*
X18357172Y-18897387D01*
X18377410Y-18887863D01*
X18415506Y-18887863D01*
X18433363Y-18897387D01*
X18440506Y-18916434D01*
X18438125Y-18935482D01*
X18340506Y-18954530D01*
X18515506Y-19002149D02*
X18523839Y-19011672D01*
X18513125Y-19021196D01*
X18504791Y-19011672D01*
X18515506Y-19002149D01*
X18513125Y-19021196D01*
X18528601Y-18897387D02*
X18536934Y-18906910D01*
X18526220Y-18916434D01*
X18517887Y-18906910D01*
X18528601Y-18897387D01*
X18526220Y-18916434D01*
D10*
D11*
X17893434Y-18560006D02*
X17843434Y-18560006D01*
X17843434Y-18638577D02*
X17843434Y-18488577D01*
X17914863Y-18488577D01*
X17972006Y-18638577D02*
X17972006Y-18538577D01*
X17972006Y-18488577D02*
X17964863Y-18495720D01*
X17972006Y-18502863D01*
X17979149Y-18495720D01*
X17972006Y-18488577D01*
X17972006Y-18502863D01*
X18064863Y-18638577D02*
X18050577Y-18631434D01*
X18043434Y-18617149D01*
X18043434Y-18488577D01*
X18179149Y-18631434D02*
X18164863Y-18638577D01*
X18136291Y-18638577D01*
X18122006Y-18631434D01*
X18114863Y-18617149D01*
X18114863Y-18560006D01*
X18122006Y-18545720D01*
X18136291Y-18538577D01*
X18164863Y-18538577D01*
X18179149Y-18545720D01*
X18186291Y-18560006D01*
X18186291Y-18574291D01*
X18114863Y-18588577D01*
X18250577Y-18624291D02*
X18257720Y-18631434D01*
X18250577Y-18638577D01*
X18243434Y-18631434D01*
X18250577Y-18624291D01*
X18250577Y-18638577D01*
X18250577Y-18545720D02*
X18257720Y-18552863D01*
X18250577Y-18560006D01*
X18243434Y-18552863D01*
X18250577Y-18545720D01*
X18250577Y-18560006D01*
X18436291Y-18638577D02*
X18436291Y-18488577D01*
X18436291Y-18545720D02*
X18450577Y-18538577D01*
X18479149Y-18538577D01*
X18493434Y-18545720D01*
X18500577Y-18552863D01*
X18507720Y-18567149D01*
X18507720Y-18610006D01*
X18500577Y-18624291D01*
X18493434Y-18631434D01*
X18479149Y-18638577D01*
X18450577Y-18638577D01*
X18436291Y-18631434D01*
X18593434Y-18638577D02*
X18579149Y-18631434D01*
X18572006Y-18617149D01*
X18572006Y-18488577D01*
X18714863Y-18538577D02*
X18714863Y-18638577D01*
X18650577Y-18538577D02*
X18650577Y-18617149D01*
X18657720Y-18631434D01*
X18672006Y-18638577D01*
X18693434Y-18638577D01*
X18707720Y-18631434D01*
X18714863Y-18624291D01*
X18843434Y-18631434D02*
X18829149Y-18638577D01*
X18800577Y-18638577D01*
X18786291Y-18631434D01*
X18779149Y-18617149D01*
X18779149Y-18560006D01*
X18786291Y-18545720D01*
X18800577Y-18538577D01*
X18829149Y-18538577D01*
X18843434Y-18545720D01*
X18850577Y-18560006D01*
X18850577Y-18574291D01*
X18779149Y-18588577D01*
X18893434Y-18538577D02*
X18950577Y-18538577D01*
X18914863Y-18488577D02*
X18914863Y-18617149D01*
X18922006Y-18631434D01*
X18936291Y-18638577D01*
X18950577Y-18638577D01*
X19022006Y-18638577D02*
X19007720Y-18631434D01*
X19000577Y-18624291D01*
X18993434Y-18610006D01*
X18993434Y-18567149D01*
X19000577Y-18552863D01*
X19007720Y-18545720D01*
X19022006Y-18538577D01*
X19043434Y-18538577D01*
X19057720Y-18545720D01*
X19064863Y-18552863D01*
X19072006Y-18567149D01*
X19072006Y-18610006D01*
X19064863Y-18624291D01*
X19057720Y-18631434D01*
X19043434Y-18638577D01*
X19022006Y-18638577D01*
X19157720Y-18638577D02*
X19143434Y-18631434D01*
X19136291Y-18624291D01*
X19129149Y-18610006D01*
X19129149Y-18567149D01*
X19136291Y-18552863D01*
X19143434Y-18545720D01*
X19157720Y-18538577D01*
X19179149Y-18538577D01*
X19193434Y-18545720D01*
X19200577Y-18552863D01*
X19207720Y-18567149D01*
X19207720Y-18610006D01*
X19200577Y-18624291D01*
X19193434Y-18631434D01*
X19179149Y-18638577D01*
X19157720Y-18638577D01*
X19250577Y-18538577D02*
X19307720Y-18538577D01*
X19272006Y-18488577D02*
X19272006Y-18617149D01*
X19279149Y-18631434D01*
X19293434Y-18638577D01*
X19307720Y-18638577D01*
X19357720Y-18638577D02*
X19357720Y-18488577D01*
X19422006Y-18638577D02*
X19422006Y-18560006D01*
X19414863Y-18545720D01*
X19400577Y-18538577D01*
X19379149Y-18538577D01*
X19364863Y-18545720D01*
X19357720Y-18552863D01*
X19493434Y-18624291D02*
X19500577Y-18631434D01*
X19493434Y-18638577D01*
X19486291Y-18631434D01*
X19493434Y-18624291D01*
X19493434Y-18638577D01*
X19564863Y-18638577D02*
X19564863Y-18488577D01*
X19579149Y-18581434D02*
X19622006Y-18638577D01*
X19622006Y-18538577D02*
X19564863Y-18595720D01*
X19686291Y-18638577D02*
X19686291Y-18538577D01*
X19686291Y-18488577D02*
X19679149Y-18495720D01*
X19686291Y-18502863D01*
X19693434Y-18495720D01*
X19686291Y-18488577D01*
X19686291Y-18502863D01*
X19822006Y-18631434D02*
X19807720Y-18638577D01*
X19779149Y-18638577D01*
X19764863Y-18631434D01*
X19757720Y-18624291D01*
X19750577Y-18610006D01*
X19750577Y-18567149D01*
X19757720Y-18552863D01*
X19764863Y-18545720D01*
X19779149Y-18538577D01*
X19807720Y-18538577D01*
X19822006Y-18545720D01*
X19950577Y-18638577D02*
X19950577Y-18560006D01*
X19943434Y-18545720D01*
X19929149Y-18538577D01*
X19900577Y-18538577D01*
X19886291Y-18545720D01*
X19950577Y-18631434D02*
X19936291Y-18638577D01*
X19900577Y-18638577D01*
X19886291Y-18631434D01*
X19879149Y-18617149D01*
X19879149Y-18602863D01*
X19886291Y-18588577D01*
X19900577Y-18581434D01*
X19936291Y-18581434D01*
X19950577Y-18574291D01*
X20086291Y-18638577D02*
X20086291Y-18488577D01*
X20086291Y-18631434D02*
X20072006Y-18638577D01*
X20043434Y-18638577D01*
X20029149Y-18631434D01*
X20022006Y-18624291D01*
X20014863Y-18610006D01*
X20014863Y-18567149D01*
X20022006Y-18552863D01*
X20029149Y-18545720D01*
X20043434Y-18538577D01*
X20072006Y-18538577D01*
X20086291Y-18545720D01*
X20122006Y-18652863D02*
X20236291Y-18652863D01*
X20272006Y-18538577D02*
X20272006Y-18688577D01*
X20272006Y-18545720D02*
X20286291Y-18538577D01*
X20314863Y-18538577D01*
X20329149Y-18545720D01*
X20336291Y-18552863D01*
X20343434Y-18567149D01*
X20343434Y-18610006D01*
X20336291Y-18624291D01*
X20329149Y-18631434D01*
X20314863Y-18638577D01*
X20286291Y-18638577D01*
X20272006Y-18631434D01*
X20472006Y-18631434D02*
X20457720Y-18638577D01*
X20429149Y-18638577D01*
X20414863Y-18631434D01*
X20407720Y-18624291D01*
X20400577Y-18610006D01*
X20400577Y-18567149D01*
X20407720Y-18552863D01*
X20414863Y-18545720D01*
X20429149Y-18538577D01*
X20457720Y-18538577D01*
X20472006Y-18545720D01*
X20536291Y-18638577D02*
X20536291Y-18488577D01*
X20536291Y-18545720D02*
X20550577Y-18538577D01*
X20579149Y-18538577D01*
X20593434Y-18545720D01*
X20600577Y-18552863D01*
X20607720Y-18567149D01*
X20607720Y-18610006D01*
X20600577Y-18624291D01*
X20593434Y-18631434D01*
X20579149Y-18638577D01*
X20550577Y-18638577D01*
X20536291Y-18631434D01*
D10*
D11*
X17700220Y-18150720D02*
X28500220Y-18150720D01*
D10*
D11*
X17836291Y-18361434D02*
X17857720Y-18368577D01*
X17893434Y-18368577D01*
X17907720Y-18361434D01*
X17914863Y-18354291D01*
X17922006Y-18340006D01*
X17922006Y-18325720D01*
X17914863Y-18311434D01*
X17907720Y-18304291D01*
X17893434Y-18297149D01*
X17864863Y-18290006D01*
X17850577Y-18282863D01*
X17843434Y-18275720D01*
X17836291Y-18261434D01*
X17836291Y-18247149D01*
X17843434Y-18232863D01*
X17850577Y-18225720D01*
X17864863Y-18218577D01*
X17900577Y-18218577D01*
X17922006Y-18225720D01*
X17986291Y-18368577D02*
X17986291Y-18218577D01*
X18050577Y-18368577D02*
X18050577Y-18290006D01*
X18043434Y-18275720D01*
X18029149Y-18268577D01*
X18007720Y-18268577D01*
X17993434Y-18275720D01*
X17986291Y-18282863D01*
X18179149Y-18361434D02*
X18164863Y-18368577D01*
X18136291Y-18368577D01*
X18122006Y-18361434D01*
X18114863Y-18347149D01*
X18114863Y-18290006D01*
X18122006Y-18275720D01*
X18136291Y-18268577D01*
X18164863Y-18268577D01*
X18179149Y-18275720D01*
X18186291Y-18290006D01*
X18186291Y-18304291D01*
X18114863Y-18318577D01*
X18307720Y-18361434D02*
X18293434Y-18368577D01*
X18264863Y-18368577D01*
X18250577Y-18361434D01*
X18243434Y-18347149D01*
X18243434Y-18290006D01*
X18250577Y-18275720D01*
X18264863Y-18268577D01*
X18293434Y-18268577D01*
X18307720Y-18275720D01*
X18314863Y-18290006D01*
X18314863Y-18304291D01*
X18243434Y-18318577D01*
X18357720Y-18268577D02*
X18414863Y-18268577D01*
X18379149Y-18218577D02*
X18379149Y-18347149D01*
X18386291Y-18361434D01*
X18400577Y-18368577D01*
X18414863Y-18368577D01*
X18464863Y-18354291D02*
X18472006Y-18361434D01*
X18464863Y-18368577D01*
X18457720Y-18361434D01*
X18464863Y-18354291D01*
X18464863Y-18368577D01*
X18464863Y-18275720D02*
X18472006Y-18282863D01*
X18464863Y-18290006D01*
X18457720Y-18282863D01*
X18464863Y-18275720D01*
X18464863Y-18290006D01*
D10*
D11*
X19700220Y-19150720D02*
X19700220Y-19450720D01*
D10*
D11*
X26100220Y-19150720D02*
X26100220Y-19800720D01*
D14*
X13581932Y-10773487D02*
X13581932Y-10673487D01*
X13346932Y-10773487D02*
X13346932Y-10673487D01*
D15*
X13474432Y-10753487D02*
X13454432Y-10753487D01*
D14*
X13581932Y-10773487D02*
X13489432Y-10773487D01*
X13402879Y-10039675D02*
X13402879Y-9969675D01*
X13582862Y-9684091D02*
X13517862Y-9684091D01*
X13467862Y-9684091D02*
X13402862Y-9684091D01*
X13710528Y-11148326D02*
X13610528Y-11148326D01*
X13259776Y-10668715D02*
X13259776Y-10603715D01*
X13329776Y-10553715D02*
X13329776Y-10488715D01*
X13329776Y-10668715D02*
X13259776Y-10668715D01*
X13329776Y-10668715D02*
X13329776Y-10603715D01*
X13467879Y-10039675D02*
X13402879Y-10039675D01*
X13582878Y-10039675D02*
X13517879Y-10039675D01*
X13582878Y-10039675D02*
X13582878Y-9969675D01*
D15*
X14252628Y-10197427D02*
X14202628Y-10197427D01*
D14*
X13710528Y-10913327D02*
X13610528Y-10913327D01*
D15*
X13181423Y-10801084D02*
X13196744Y-10788228D01*
D14*
X13221091Y-10793907D02*
X13291950Y-10734449D01*
X13996900Y-11136955D02*
X13931900Y-11136955D01*
X13881900Y-11136955D02*
X13816900Y-11136955D01*
X13610528Y-11005827D02*
X13610528Y-10913327D01*
X13710528Y-11148326D02*
X13710528Y-11055826D01*
X13164717Y-10871306D02*
X13214510Y-10829524D01*
X13252812Y-10797385D02*
X13302606Y-10755604D01*
X13467879Y-10058575D02*
X13402879Y-10058575D01*
X13582878Y-10058575D02*
X13517879Y-10058575D01*
D16*
X13745128Y-10887426D02*
G75*
G03X13745128Y-10887426I-12500J0D01*
G01*
D14*
X14256860Y-11334178D02*
X14256860Y-11269178D01*
X14256860Y-11219178D02*
X14256860Y-11154178D01*
X13816900Y-11136955D02*
X13816900Y-11066955D01*
X13996900Y-11136955D02*
X13996900Y-11066955D01*
X13439432Y-10773487D02*
X13346932Y-10773487D01*
D15*
X13474432Y-10693487D02*
X13454432Y-10693487D01*
D14*
X13799660Y-11005818D02*
X13799660Y-10940818D01*
X13799660Y-10940818D02*
X13729660Y-10940818D01*
X13799660Y-11120818D02*
X13729660Y-11120818D01*
X13156812Y-10717303D02*
X13227671Y-10657845D01*
X13047651Y-10808900D02*
X13118510Y-10749442D01*
X14042620Y-10113335D02*
X13977620Y-10113335D01*
X13927620Y-10113335D02*
X13862620Y-10113335D01*
X14042620Y-10043335D02*
X13977620Y-10043335D01*
D15*
X13690528Y-11040826D02*
X13690528Y-11020826D01*
D14*
X14396560Y-10756898D02*
X14396560Y-10691898D01*
X14396560Y-10691898D02*
X14326560Y-10691898D01*
X14396560Y-10871898D02*
X14326560Y-10871898D01*
X13347601Y-10809227D02*
X13302606Y-10755604D01*
X13259776Y-10553715D02*
X13259776Y-10488715D01*
X13580870Y-9842883D02*
X13580870Y-9810883D01*
D15*
X13702628Y-10797426D02*
X13652628Y-10747426D01*
D14*
X14326560Y-10756898D02*
X14326560Y-10691898D01*
X14396560Y-10871898D02*
X14396560Y-10806898D01*
X13111929Y-10885504D02*
X13182788Y-10826047D01*
D15*
X13142856Y-10755121D02*
X13158177Y-10742265D01*
D14*
X13744900Y-9944098D02*
X13744900Y-9879098D01*
X13814900Y-10059098D02*
X13814900Y-9994098D01*
X13814900Y-9944098D02*
X13814900Y-9879098D01*
X13814900Y-9879098D02*
X13744900Y-9879098D01*
D15*
X14252628Y-10247426D02*
X14252628Y-10197427D01*
D14*
X13729660Y-11120818D02*
X13729660Y-11055818D01*
X13729660Y-11005818D02*
X13729660Y-10940818D01*
X13799660Y-11120818D02*
X13799660Y-11055818D01*
X13814900Y-10059098D02*
X13744900Y-10059098D01*
X14326560Y-10871898D02*
X14326560Y-10806898D01*
X13582862Y-9614091D02*
X13517862Y-9614091D01*
X13467862Y-9614091D02*
X13402862Y-9614091D01*
X13402862Y-9684091D02*
X13402862Y-9614091D01*
X13656016Y-10059115D02*
X13656016Y-9994115D01*
X13726016Y-10059115D02*
X13656016Y-10059115D01*
X13726016Y-9879115D02*
X13656016Y-9879115D01*
X13744900Y-10059098D02*
X13744900Y-9994098D01*
X14256860Y-11154178D02*
X14186860Y-11154178D01*
X14256860Y-11334178D02*
X14186860Y-11334178D01*
X13996900Y-11066955D02*
X13931900Y-11066955D01*
X13881900Y-11066955D02*
X13816900Y-11066955D01*
D15*
X13702628Y-10197427D02*
X13652628Y-10197427D01*
D14*
X13581932Y-10673487D02*
X13489432Y-10673487D01*
X13439432Y-10673487D02*
X13346932Y-10673487D01*
D15*
X13652628Y-10247426D02*
X13652628Y-10197427D01*
D14*
X13329776Y-10488715D02*
X13259776Y-10488715D01*
X13467879Y-10128575D02*
X13402879Y-10128575D01*
X13582878Y-10128575D02*
X13517879Y-10128575D01*
X13582878Y-10128575D02*
X13582878Y-10058575D01*
X13402879Y-10128575D02*
X13402879Y-10058575D01*
X13726016Y-9944115D02*
X13726016Y-9879115D01*
X13726016Y-10059115D02*
X13726016Y-9994115D01*
X13656016Y-9944115D02*
X13656016Y-9879115D01*
X13209712Y-10924928D02*
X13259505Y-10883147D01*
X13297808Y-10851008D02*
X13347601Y-10809227D01*
X13582862Y-9684091D02*
X13582862Y-9614091D01*
X14186860Y-11334178D02*
X14186860Y-11269178D01*
X14186860Y-11219178D02*
X14186860Y-11154178D01*
X13498870Y-9934883D02*
X13486870Y-9934883D01*
X13467879Y-9969675D02*
X13402879Y-9969675D01*
X13582878Y-9969675D02*
X13517879Y-9969675D01*
D15*
X14252628Y-10797426D02*
X14252628Y-10747426D01*
D14*
X13610528Y-11148326D02*
X13610528Y-11055826D01*
D15*
X14050728Y-11169186D02*
X13930728Y-11169186D01*
D14*
X13498870Y-9718883D02*
X13486870Y-9718883D01*
X13209712Y-10924928D02*
X13164717Y-10871306D01*
D15*
X13630528Y-11040826D02*
X13630528Y-11020826D01*
D14*
X13404870Y-9842883D02*
X13404870Y-9810883D01*
D15*
X14252628Y-10797426D02*
X14202628Y-10797426D01*
D14*
X13710528Y-11005827D02*
X13710528Y-10913327D01*
D15*
X14050728Y-11319186D02*
X13930728Y-11319186D01*
D14*
X13111929Y-10885504D02*
X13047651Y-10808900D01*
X13291950Y-10734449D02*
X13227671Y-10657845D01*
X13927620Y-10043335D02*
X13862620Y-10043335D01*
X13862620Y-10113335D02*
X13862620Y-10043335D01*
X14042620Y-10113335D02*
X14042620Y-10043335D01*
D10*
X14281834Y-11018122D02*
X14285099Y-11021388D01*
X14288365Y-11031185D01*
X14288365Y-11037716D01*
X14285099Y-11047513D01*
X14278568Y-11054045D01*
X14272037Y-11057310D01*
X14258974Y-11060576D01*
X14249177Y-11060576D01*
X14236114Y-11057310D01*
X14229582Y-11054045D01*
X14223051Y-11047513D01*
X14219785Y-11037716D01*
X14219785Y-11031185D01*
X14223051Y-11021388D01*
X14226317Y-11018122D01*
X14288365Y-10952808D02*
X14288365Y-10991996D01*
X14288365Y-10972402D02*
X14219785Y-10972402D01*
X14229582Y-10978933D01*
X14236114Y-10985465D01*
X14239379Y-10991996D01*
X14226317Y-10926682D02*
X14223051Y-10923416D01*
X14219785Y-10916885D01*
X14219785Y-10900556D01*
X14223051Y-10894025D01*
X14226317Y-10890759D01*
X14232848Y-10887493D01*
X14239379Y-10887493D01*
X14249177Y-10890759D01*
X14288365Y-10929948D01*
X14288365Y-10887493D01*
X13124730Y-10748504D02*
X13124328Y-10753105D01*
X13118922Y-10761904D01*
X13113919Y-10766102D01*
X13104315Y-10769898D01*
X13095113Y-10769093D01*
X13088413Y-10766189D01*
X13077514Y-10758281D01*
X13071217Y-10750776D01*
X13065322Y-10738670D01*
X13063625Y-10731568D01*
X13064430Y-10722366D01*
X13069836Y-10713567D01*
X13074840Y-10709368D01*
X13084444Y-10705573D01*
X13089045Y-10705975D01*
X13178962Y-10711524D02*
X13148942Y-10736714D01*
X13163952Y-10724119D02*
X13119870Y-10671584D01*
X13121164Y-10683287D01*
X13120359Y-10692489D01*
X13117455Y-10699189D01*
X13167402Y-10631700D02*
X13172405Y-10627501D01*
X13179508Y-10625805D01*
X13184109Y-10626207D01*
X13190809Y-10629111D01*
X13201707Y-10637019D01*
X13212203Y-10649527D01*
X13218098Y-10661633D01*
X13219794Y-10668736D01*
X13219392Y-10673337D01*
X13216488Y-10680037D01*
X13211484Y-10684235D01*
X13204382Y-10685931D01*
X13199781Y-10685529D01*
X13193081Y-10682625D01*
X13182183Y-10674717D01*
X13171687Y-10662209D01*
X13165792Y-10650103D01*
X13164095Y-10643000D01*
X13164498Y-10638400D01*
X13167402Y-10631700D01*
X13336627Y-10934519D02*
X13311611Y-10955511D01*
X13267528Y-10902976D01*
X13305053Y-10871488D02*
X13337575Y-10844199D01*
X13336857Y-10878907D01*
X13344362Y-10872609D01*
X13351464Y-10870913D01*
X13356065Y-10871315D01*
X13362765Y-10874219D01*
X13373261Y-10886728D01*
X13374958Y-10893830D01*
X13374555Y-10898431D01*
X13371651Y-10905131D01*
X13356641Y-10917726D01*
X13349538Y-10919423D01*
X13344938Y-10919020D01*
X13462677Y-10766521D02*
X13495334Y-10766521D01*
X13495334Y-10835101D01*
X13443083Y-10828569D02*
X13439817Y-10831835D01*
X13433286Y-10835101D01*
X13416957Y-10835101D01*
X13410426Y-10831835D01*
X13407160Y-10828569D01*
X13403894Y-10822038D01*
X13403894Y-10815506D01*
X13407160Y-10805709D01*
X13446349Y-10766521D01*
X13403894Y-10766521D01*
X13799674Y-11256402D02*
X13802939Y-11259667D01*
X13806205Y-11269465D01*
X13806205Y-11275996D01*
X13802939Y-11285793D01*
X13796408Y-11292325D01*
X13789877Y-11295590D01*
X13776814Y-11298856D01*
X13767017Y-11298856D01*
X13753954Y-11295590D01*
X13747422Y-11292325D01*
X13740891Y-11285793D01*
X13737625Y-11275996D01*
X13737625Y-11269465D01*
X13740891Y-11259667D01*
X13744157Y-11256402D01*
X13760485Y-11197619D02*
X13806205Y-11197619D01*
X13734359Y-11213947D02*
X13783345Y-11230276D01*
X13783345Y-11187822D01*
X14422800Y-10600917D02*
X14426065Y-10604183D01*
X14429331Y-10613980D01*
X14429331Y-10620511D01*
X14426065Y-10630308D01*
X14419534Y-10636840D01*
X14413003Y-10640105D01*
X14399940Y-10643371D01*
X14390143Y-10643371D01*
X14377080Y-10640105D01*
X14370548Y-10636840D01*
X14364017Y-10630308D01*
X14360751Y-10620511D01*
X14360751Y-10613980D01*
X14364017Y-10604183D01*
X14367283Y-10600917D01*
X14360751Y-10538868D02*
X14360751Y-10571525D01*
X14393408Y-10574791D01*
X14390143Y-10571525D01*
X14386877Y-10564994D01*
X14386877Y-10548665D01*
X14390143Y-10542134D01*
X14393408Y-10538868D01*
X14399940Y-10535603D01*
X14416268Y-10535603D01*
X14422800Y-10538868D01*
X14426065Y-10542134D01*
X14429331Y-10548665D01*
X14429331Y-10564994D01*
X14426065Y-10571525D01*
X14422800Y-10574791D01*
X13720674Y-9749402D02*
X13723939Y-9752668D01*
X13727205Y-9762465D01*
X13727205Y-9768996D01*
X13723939Y-9778793D01*
X13717408Y-9785325D01*
X13710877Y-9788590D01*
X13697814Y-9791856D01*
X13688017Y-9791856D01*
X13674954Y-9788590D01*
X13668422Y-9785325D01*
X13661891Y-9778793D01*
X13658625Y-9768996D01*
X13658625Y-9762465D01*
X13661891Y-9752668D01*
X13665157Y-9749402D01*
X13658625Y-9726542D02*
X13658625Y-9680822D01*
X13727205Y-9710213D01*
X13514164Y-9514926D02*
X13517429Y-9511660D01*
X13527227Y-9508395D01*
X13533758Y-9508395D01*
X13543555Y-9511660D01*
X13550087Y-9518192D01*
X13553352Y-9524723D01*
X13556618Y-9537786D01*
X13556618Y-9547583D01*
X13553352Y-9560646D01*
X13550087Y-9567178D01*
X13543555Y-9573709D01*
X13533758Y-9576975D01*
X13527227Y-9576975D01*
X13517429Y-9573709D01*
X13514164Y-9570443D01*
X13448849Y-9508395D02*
X13488038Y-9508395D01*
X13468444Y-9508395D02*
X13468444Y-9576975D01*
X13474975Y-9567178D01*
X13481507Y-9560646D01*
X13488038Y-9557380D01*
X13333785Y-9859245D02*
X13402365Y-9813525D01*
X13333785Y-9813525D02*
X13402365Y-9859245D01*
X13402365Y-9751476D02*
X13402365Y-9790665D01*
X13402365Y-9771071D02*
X13333785Y-9771071D01*
X13343582Y-9777602D01*
X13350114Y-9784133D01*
X13353379Y-9790665D01*
X13267484Y-10034562D02*
X13270749Y-10031296D01*
X13280547Y-10028031D01*
X13287078Y-10028031D01*
X13296875Y-10031296D01*
X13303407Y-10037828D01*
X13306672Y-10044359D01*
X13309938Y-10057422D01*
X13309938Y-10067219D01*
X13306672Y-10080282D01*
X13303407Y-10086814D01*
X13296875Y-10093345D01*
X13287078Y-10096611D01*
X13280547Y-10096611D01*
X13270749Y-10093345D01*
X13267484Y-10090079D01*
X13228295Y-10067219D02*
X13234827Y-10070485D01*
X13238092Y-10073751D01*
X13241358Y-10080282D01*
X13241358Y-10083548D01*
X13238092Y-10090079D01*
X13234827Y-10093345D01*
X13228295Y-10096611D01*
X13215232Y-10096611D01*
X13208701Y-10093345D01*
X13205435Y-10090079D01*
X13202169Y-10083548D01*
X13202169Y-10080282D01*
X13205435Y-10073751D01*
X13208701Y-10070485D01*
X13215232Y-10067219D01*
X13228295Y-10067219D01*
X13234827Y-10063954D01*
X13238092Y-10060688D01*
X13241358Y-10054156D01*
X13241358Y-10041094D01*
X13238092Y-10034562D01*
X13234827Y-10031296D01*
X13228295Y-10028031D01*
X13215232Y-10028031D01*
X13208701Y-10031296D01*
X13205435Y-10034562D01*
X13202169Y-10041094D01*
X13202169Y-10054156D01*
X13205435Y-10060688D01*
X13208701Y-10063954D01*
X13215232Y-10067219D01*
X13683674Y-11243402D02*
X13686939Y-11246667D01*
X13690205Y-11256465D01*
X13690205Y-11262996D01*
X13686939Y-11272793D01*
X13680408Y-11279325D01*
X13673877Y-11282590D01*
X13660814Y-11285856D01*
X13651017Y-11285856D01*
X13637954Y-11282590D01*
X13631422Y-11279325D01*
X13624891Y-11272793D01*
X13621625Y-11262996D01*
X13621625Y-11256465D01*
X13624891Y-11246667D01*
X13628157Y-11243402D01*
X13690205Y-11210745D02*
X13690205Y-11197682D01*
X13686939Y-11191150D01*
X13683674Y-11187885D01*
X13673877Y-11181353D01*
X13660814Y-11178088D01*
X13634688Y-11178088D01*
X13628157Y-11181353D01*
X13624891Y-11184619D01*
X13621625Y-11191150D01*
X13621625Y-11204213D01*
X13624891Y-11210745D01*
X13628157Y-11214010D01*
X13634688Y-11217276D01*
X13651017Y-11217276D01*
X13657548Y-11214010D01*
X13660814Y-11210745D01*
X13664079Y-11204213D01*
X13664079Y-11191150D01*
X13660814Y-11184619D01*
X13657548Y-11181353D01*
X13651017Y-11178088D01*
X13803674Y-9756402D02*
X13806939Y-9759668D01*
X13810205Y-9769465D01*
X13810205Y-9775996D01*
X13806939Y-9785793D01*
X13800408Y-9792325D01*
X13793877Y-9795590D01*
X13780814Y-9798856D01*
X13771017Y-9798856D01*
X13757954Y-9795590D01*
X13751422Y-9792325D01*
X13744891Y-9785793D01*
X13741625Y-9775996D01*
X13741625Y-9769465D01*
X13744891Y-9759668D01*
X13748157Y-9756402D01*
X13741625Y-9697619D02*
X13741625Y-9710682D01*
X13744891Y-9717213D01*
X13748157Y-9720479D01*
X13757954Y-9727010D01*
X13771017Y-9730276D01*
X13797142Y-9730276D01*
X13803674Y-9727010D01*
X13806939Y-9723745D01*
X13810205Y-9717213D01*
X13810205Y-9704150D01*
X13806939Y-9697619D01*
X13803674Y-9694353D01*
X13797142Y-9691088D01*
X13780814Y-9691088D01*
X13774282Y-9694353D01*
X13771017Y-9697619D01*
X13767751Y-9704150D01*
X13767751Y-9717213D01*
X13771017Y-9723745D01*
X13774282Y-9727010D01*
X13780814Y-9730276D01*
X13267484Y-9945662D02*
X13270749Y-9942396D01*
X13280547Y-9939131D01*
X13287078Y-9939131D01*
X13296875Y-9942396D01*
X13303407Y-9948928D01*
X13306672Y-9955459D01*
X13309938Y-9968522D01*
X13309938Y-9978319D01*
X13306672Y-9991382D01*
X13303407Y-9997914D01*
X13296875Y-10004445D01*
X13287078Y-10007711D01*
X13280547Y-10007711D01*
X13270749Y-10004445D01*
X13267484Y-10001179D01*
X13241358Y-10001179D02*
X13238092Y-10004445D01*
X13231561Y-10007711D01*
X13215232Y-10007711D01*
X13208701Y-10004445D01*
X13205435Y-10001179D01*
X13202169Y-9994648D01*
X13202169Y-9988116D01*
X13205435Y-9978319D01*
X13244624Y-9939131D01*
X13202169Y-9939131D01*
X14169924Y-10019326D02*
X14173189Y-10016060D01*
X14182987Y-10012795D01*
X14189518Y-10012795D01*
X14199315Y-10016060D01*
X14205847Y-10022592D01*
X14209112Y-10029123D01*
X14212378Y-10042186D01*
X14212378Y-10051983D01*
X14209112Y-10065046D01*
X14205847Y-10071578D01*
X14199315Y-10078109D01*
X14189518Y-10081375D01*
X14182987Y-10081375D01*
X14173189Y-10078109D01*
X14169924Y-10074843D01*
X14147064Y-10081375D02*
X14104609Y-10081375D01*
X14127469Y-10055249D01*
X14117672Y-10055249D01*
X14111141Y-10051983D01*
X14107875Y-10048718D01*
X14104609Y-10042186D01*
X14104609Y-10025858D01*
X14107875Y-10019326D01*
X14111141Y-10016060D01*
X14117672Y-10012795D01*
X14137267Y-10012795D01*
X14143798Y-10016060D01*
X14147064Y-10019326D01*
X14113583Y-11106368D02*
X14182163Y-11060648D01*
X14113583Y-11060648D02*
X14182163Y-11106368D01*
X14120115Y-11037788D02*
X14116849Y-11034522D01*
X14113583Y-11027991D01*
X14113583Y-11011662D01*
X14116849Y-11005131D01*
X14120115Y-11001865D01*
X14126646Y-10998599D01*
X14133177Y-10998599D01*
X14142975Y-11001865D01*
X14182163Y-11041054D01*
X14182163Y-10998599D01*
X13934182Y-10953392D02*
X13937447Y-10950126D01*
X13947245Y-10946861D01*
X13953776Y-10946861D01*
X13963573Y-10950126D01*
X13970105Y-10956658D01*
X13973370Y-10963189D01*
X13976636Y-10976252D01*
X13976636Y-10986049D01*
X13973370Y-10999112D01*
X13970105Y-11005644D01*
X13963573Y-11012175D01*
X13953776Y-11015441D01*
X13947245Y-11015441D01*
X13937447Y-11012175D01*
X13934182Y-11008909D01*
X13868867Y-10946861D02*
X13908056Y-10946861D01*
X13888462Y-10946861D02*
X13888462Y-11015441D01*
X13894993Y-11005644D01*
X13901525Y-10999112D01*
X13908056Y-10995846D01*
X13803553Y-10946861D02*
X13842742Y-10946861D01*
X13823147Y-10946861D02*
X13823147Y-11015441D01*
X13829679Y-11005644D01*
X13836210Y-10999112D01*
X13842742Y-10995846D01*
X13355212Y-10397708D02*
X13358477Y-10400974D01*
X13361743Y-10410771D01*
X13361743Y-10417302D01*
X13358477Y-10427099D01*
X13351946Y-10433631D01*
X13345415Y-10436896D01*
X13332352Y-10440162D01*
X13322555Y-10440162D01*
X13309492Y-10436896D01*
X13302960Y-10433631D01*
X13296429Y-10427099D01*
X13293163Y-10417302D01*
X13293163Y-10410771D01*
X13296429Y-10400974D01*
X13299695Y-10397708D01*
X13361743Y-10332394D02*
X13361743Y-10371582D01*
X13361743Y-10351988D02*
X13293163Y-10351988D01*
X13302960Y-10358519D01*
X13309492Y-10365051D01*
X13312757Y-10371582D01*
X13293163Y-10309534D02*
X13293163Y-10267079D01*
X13319289Y-10289939D01*
X13319289Y-10280142D01*
X13322555Y-10273611D01*
X13325820Y-10270345D01*
X13332352Y-10267079D01*
X13348680Y-10267079D01*
X13355212Y-10270345D01*
X13358477Y-10273611D01*
X13361743Y-10280142D01*
X13361743Y-10299736D01*
X13358477Y-10306268D01*
X13355212Y-10309534D01*
X15403469Y-10564438D02*
X15363469Y-10564438D01*
X15363469Y-10549200D01*
X15365374Y-10545391D01*
X15367279Y-10543486D01*
X15371088Y-10541581D01*
X15376802Y-10541581D01*
X15380612Y-10543486D01*
X15382517Y-10545391D01*
X15384422Y-10549200D01*
X15384422Y-10564438D01*
X15363469Y-10516819D02*
X15363469Y-10513010D01*
X15365374Y-10509200D01*
X15367279Y-10507295D01*
X15371088Y-10505391D01*
X15378707Y-10503486D01*
X15388231Y-10503486D01*
X15395850Y-10505391D01*
X15399660Y-10507295D01*
X15401564Y-10509200D01*
X15403469Y-10513010D01*
X15403469Y-10516819D01*
X15401564Y-10520629D01*
X15399660Y-10522533D01*
X15395850Y-10524438D01*
X15388231Y-10526343D01*
X15378707Y-10526343D01*
X15371088Y-10524438D01*
X15367279Y-10522533D01*
X15365374Y-10520629D01*
X15363469Y-10516819D01*
X15399660Y-10486343D02*
X15401564Y-10484438D01*
X15403469Y-10486343D01*
X15401564Y-10488248D01*
X15399660Y-10486343D01*
X15403469Y-10486343D01*
X15403469Y-10446343D02*
X15403469Y-10469200D01*
X15403469Y-10457772D02*
X15363469Y-10457772D01*
X15369183Y-10461581D01*
X15372993Y-10465391D01*
X15374898Y-10469200D01*
X15363469Y-10410152D02*
X15363469Y-10429200D01*
X15382517Y-10431105D01*
X15380612Y-10429200D01*
X15378707Y-10425391D01*
X15378707Y-10415867D01*
X15380612Y-10412057D01*
X15382517Y-10410152D01*
X15386326Y-10408248D01*
X15395850Y-10408248D01*
X15399660Y-10410152D01*
X15401564Y-10412057D01*
X15403469Y-10415867D01*
X15403469Y-10425391D01*
X15401564Y-10429200D01*
X15399660Y-10431105D01*
X15133004Y-10545119D02*
X15093004Y-10545119D01*
X15093004Y-10529881D01*
X15094909Y-10526072D01*
X15096814Y-10524167D01*
X15100623Y-10522262D01*
X15106337Y-10522262D01*
X15110147Y-10524167D01*
X15112052Y-10526072D01*
X15113957Y-10529881D01*
X15113957Y-10545119D01*
X15093004Y-10497500D02*
X15093004Y-10493691D01*
X15094909Y-10489881D01*
X15096814Y-10487976D01*
X15100623Y-10486072D01*
X15108242Y-10484167D01*
X15117766Y-10484167D01*
X15125385Y-10486072D01*
X15129195Y-10487976D01*
X15131099Y-10489881D01*
X15133004Y-10493691D01*
X15133004Y-10497500D01*
X15131099Y-10501310D01*
X15129195Y-10503214D01*
X15125385Y-10505119D01*
X15117766Y-10507024D01*
X15108242Y-10507024D01*
X15100623Y-10505119D01*
X15096814Y-10503214D01*
X15094909Y-10501310D01*
X15093004Y-10497500D01*
X15129195Y-10467024D02*
X15131099Y-10465119D01*
X15133004Y-10467024D01*
X15131099Y-10468929D01*
X15129195Y-10467024D01*
X15133004Y-10467024D01*
X15133004Y-10427024D02*
X15133004Y-10449881D01*
X15133004Y-10438453D02*
X15093004Y-10438453D01*
X15098718Y-10442262D01*
X15102528Y-10446072D01*
X15104433Y-10449881D01*
X15106337Y-10392738D02*
X15133004Y-10392738D01*
X15091099Y-10402262D02*
X15119671Y-10411786D01*
X15119671Y-10387024D01*
X14915861Y-10360728D02*
X14913194Y-10400639D01*
X14897990Y-10399623D01*
X14894316Y-10397468D01*
X14892542Y-10395440D01*
X14890896Y-10391512D01*
X14891277Y-10385811D01*
X14893431Y-10382137D01*
X14895459Y-10380363D01*
X14899387Y-10378717D01*
X14914591Y-10379733D01*
X14865681Y-10397463D02*
X14861880Y-10397209D01*
X14858206Y-10395055D01*
X14856432Y-10393027D01*
X14854786Y-10389099D01*
X14853393Y-10381370D01*
X14854029Y-10371868D01*
X14856437Y-10364392D01*
X14858592Y-10360718D01*
X14860619Y-10358945D01*
X14864547Y-10357298D01*
X14868348Y-10357552D01*
X14872022Y-10359707D01*
X14873796Y-10361734D01*
X14875442Y-10365663D01*
X14876835Y-10373392D01*
X14876200Y-10382894D01*
X14873791Y-10390369D01*
X14871637Y-10394043D01*
X14869609Y-10395817D01*
X14865681Y-10397463D01*
X14837686Y-10359321D02*
X14835912Y-10357294D01*
X14837940Y-10355520D01*
X14839713Y-10357548D01*
X14837686Y-10359321D01*
X14837940Y-10355520D01*
X14798029Y-10352853D02*
X14820835Y-10354377D01*
X14809432Y-10353615D02*
X14806765Y-10393526D01*
X14810947Y-10388079D01*
X14815002Y-10384532D01*
X14818930Y-10382885D01*
X14782058Y-10391875D02*
X14755451Y-10390097D01*
X14775223Y-10351329D01*
X15385636Y-10821529D02*
X15345636Y-10821529D01*
X15345636Y-10806291D01*
X15347541Y-10802482D01*
X15349446Y-10800577D01*
X15353255Y-10798672D01*
X15358969Y-10798672D01*
X15362779Y-10800577D01*
X15364684Y-10802482D01*
X15366589Y-10806291D01*
X15366589Y-10821529D01*
X15345636Y-10773910D02*
X15345636Y-10770101D01*
X15347541Y-10766291D01*
X15349446Y-10764386D01*
X15353255Y-10762482D01*
X15360874Y-10760577D01*
X15370398Y-10760577D01*
X15378017Y-10762482D01*
X15381827Y-10764386D01*
X15383731Y-10766291D01*
X15385636Y-10770101D01*
X15385636Y-10773910D01*
X15383731Y-10777720D01*
X15381827Y-10779624D01*
X15378017Y-10781529D01*
X15370398Y-10783434D01*
X15360874Y-10783434D01*
X15353255Y-10781529D01*
X15349446Y-10779624D01*
X15347541Y-10777720D01*
X15345636Y-10773910D01*
X15381827Y-10743434D02*
X15383731Y-10741529D01*
X15385636Y-10743434D01*
X15383731Y-10745339D01*
X15381827Y-10743434D01*
X15385636Y-10743434D01*
X15385636Y-10703434D02*
X15385636Y-10726291D01*
X15385636Y-10714863D02*
X15345636Y-10714863D01*
X15351350Y-10718672D01*
X15355160Y-10722482D01*
X15357065Y-10726291D01*
X15345636Y-10669148D02*
X15345636Y-10676767D01*
X15347541Y-10680577D01*
X15349446Y-10682482D01*
X15355160Y-10686291D01*
X15362779Y-10688196D01*
X15378017Y-10688196D01*
X15381827Y-10686291D01*
X15383731Y-10684386D01*
X15385636Y-10680577D01*
X15385636Y-10672958D01*
X15383731Y-10669148D01*
X15381827Y-10667243D01*
X15378017Y-10665339D01*
X15368493Y-10665339D01*
X15364684Y-10667243D01*
X15362779Y-10669148D01*
X15360874Y-10672958D01*
X15360874Y-10680577D01*
X15362779Y-10684386D01*
X15364684Y-10686291D01*
X15368493Y-10688196D01*
X15135976Y-10821529D02*
X15095976Y-10821529D01*
X15095976Y-10806291D01*
X15097881Y-10802482D01*
X15099786Y-10800577D01*
X15103595Y-10798672D01*
X15109309Y-10798672D01*
X15113119Y-10800577D01*
X15115024Y-10802482D01*
X15116929Y-10806291D01*
X15116929Y-10821529D01*
X15095976Y-10773910D02*
X15095976Y-10770101D01*
X15097881Y-10766291D01*
X15099786Y-10764386D01*
X15103595Y-10762482D01*
X15111214Y-10760577D01*
X15120738Y-10760577D01*
X15128357Y-10762482D01*
X15132167Y-10764386D01*
X15134071Y-10766291D01*
X15135976Y-10770101D01*
X15135976Y-10773910D01*
X15134071Y-10777720D01*
X15132167Y-10779624D01*
X15128357Y-10781529D01*
X15120738Y-10783434D01*
X15111214Y-10783434D01*
X15103595Y-10781529D01*
X15099786Y-10779624D01*
X15097881Y-10777720D01*
X15095976Y-10773910D01*
X15132167Y-10743434D02*
X15134071Y-10741529D01*
X15135976Y-10743434D01*
X15134071Y-10745339D01*
X15132167Y-10743434D01*
X15135976Y-10743434D01*
X15135976Y-10703434D02*
X15135976Y-10726291D01*
X15135976Y-10714863D02*
X15095976Y-10714863D01*
X15101690Y-10718672D01*
X15105500Y-10722482D01*
X15107405Y-10726291D01*
X15095976Y-10690101D02*
X15095976Y-10665339D01*
X15111214Y-10678672D01*
X15111214Y-10672958D01*
X15113119Y-10669148D01*
X15115024Y-10667243D01*
X15118833Y-10665339D01*
X15128357Y-10665339D01*
X15132167Y-10667243D01*
X15134071Y-10669148D01*
X15135976Y-10672958D01*
X15135976Y-10684386D01*
X15134071Y-10688196D01*
X15132167Y-10690101D01*
X14886316Y-10821529D02*
X14846316Y-10821529D01*
X14846316Y-10806291D01*
X14848221Y-10802482D01*
X14850126Y-10800577D01*
X14853935Y-10798672D01*
X14859649Y-10798672D01*
X14863459Y-10800577D01*
X14865364Y-10802482D01*
X14867269Y-10806291D01*
X14867269Y-10821529D01*
X14846316Y-10773910D02*
X14846316Y-10770101D01*
X14848221Y-10766291D01*
X14850126Y-10764386D01*
X14853935Y-10762482D01*
X14861554Y-10760577D01*
X14871078Y-10760577D01*
X14878697Y-10762482D01*
X14882507Y-10764386D01*
X14884411Y-10766291D01*
X14886316Y-10770101D01*
X14886316Y-10773910D01*
X14884411Y-10777720D01*
X14882507Y-10779624D01*
X14878697Y-10781529D01*
X14871078Y-10783434D01*
X14861554Y-10783434D01*
X14853935Y-10781529D01*
X14850126Y-10779624D01*
X14848221Y-10777720D01*
X14846316Y-10773910D01*
X14882507Y-10743434D02*
X14884411Y-10741529D01*
X14886316Y-10743434D01*
X14884411Y-10745339D01*
X14882507Y-10743434D01*
X14886316Y-10743434D01*
X14886316Y-10703434D02*
X14886316Y-10726291D01*
X14886316Y-10714863D02*
X14846316Y-10714863D01*
X14852030Y-10718672D01*
X14855840Y-10722482D01*
X14857745Y-10726291D01*
X14850126Y-10688196D02*
X14848221Y-10686291D01*
X14846316Y-10682482D01*
X14846316Y-10672958D01*
X14848221Y-10669148D01*
X14850126Y-10667243D01*
X14853935Y-10665339D01*
X14857745Y-10665339D01*
X14863459Y-10667243D01*
X14886316Y-10690101D01*
X14886316Y-10665339D01*
X14623281Y-10805182D02*
X14583281Y-10805182D01*
X14583281Y-10789944D01*
X14585186Y-10786135D01*
X14587091Y-10784230D01*
X14590900Y-10782325D01*
X14596614Y-10782325D01*
X14600424Y-10784230D01*
X14602329Y-10786135D01*
X14604234Y-10789944D01*
X14604234Y-10805182D01*
X14583281Y-10757563D02*
X14583281Y-10753754D01*
X14585186Y-10749944D01*
X14587091Y-10748039D01*
X14590900Y-10746135D01*
X14598519Y-10744230D01*
X14608043Y-10744230D01*
X14615662Y-10746135D01*
X14619472Y-10748039D01*
X14621376Y-10749944D01*
X14623281Y-10753754D01*
X14623281Y-10757563D01*
X14621376Y-10761373D01*
X14619472Y-10763277D01*
X14615662Y-10765182D01*
X14608043Y-10767087D01*
X14598519Y-10767087D01*
X14590900Y-10765182D01*
X14587091Y-10763277D01*
X14585186Y-10761373D01*
X14583281Y-10757563D01*
X14619472Y-10727087D02*
X14621376Y-10725182D01*
X14623281Y-10727087D01*
X14621376Y-10728992D01*
X14619472Y-10727087D01*
X14623281Y-10727087D01*
X14623281Y-10687087D02*
X14623281Y-10709944D01*
X14623281Y-10698516D02*
X14583281Y-10698516D01*
X14588995Y-10702325D01*
X14592805Y-10706135D01*
X14594710Y-10709944D01*
X14623281Y-10648992D02*
X14623281Y-10671849D01*
X14623281Y-10660420D02*
X14583281Y-10660420D01*
X14588995Y-10664230D01*
X14592805Y-10668039D01*
X14594710Y-10671849D01*
X15393061Y-11680474D02*
X15353061Y-11680474D01*
X15353061Y-11665236D01*
X15354966Y-11661426D01*
X15356871Y-11659522D01*
X15360680Y-11657617D01*
X15366394Y-11657617D01*
X15370204Y-11659522D01*
X15372109Y-11661426D01*
X15374014Y-11665236D01*
X15374014Y-11680474D01*
X15353061Y-11632855D02*
X15353061Y-11629046D01*
X15354966Y-11625236D01*
X15356871Y-11623331D01*
X15360680Y-11621426D01*
X15368299Y-11619522D01*
X15377823Y-11619522D01*
X15385442Y-11621426D01*
X15389252Y-11623331D01*
X15391156Y-11625236D01*
X15393061Y-11629046D01*
X15393061Y-11632855D01*
X15391156Y-11636665D01*
X15389252Y-11638569D01*
X15385442Y-11640474D01*
X15377823Y-11642379D01*
X15368299Y-11642379D01*
X15360680Y-11640474D01*
X15356871Y-11638569D01*
X15354966Y-11636665D01*
X15353061Y-11632855D01*
X15389252Y-11602379D02*
X15391156Y-11600474D01*
X15393061Y-11602379D01*
X15391156Y-11604284D01*
X15389252Y-11602379D01*
X15393061Y-11602379D01*
X15353061Y-11575712D02*
X15353061Y-11571903D01*
X15354966Y-11568093D01*
X15356871Y-11566188D01*
X15360680Y-11564284D01*
X15368299Y-11562379D01*
X15377823Y-11562379D01*
X15385442Y-11564284D01*
X15389252Y-11566188D01*
X15391156Y-11568093D01*
X15393061Y-11571903D01*
X15393061Y-11575712D01*
X15391156Y-11579522D01*
X15389252Y-11581426D01*
X15385442Y-11583331D01*
X15377823Y-11585236D01*
X15368299Y-11585236D01*
X15360680Y-11583331D01*
X15356871Y-11581426D01*
X15354966Y-11579522D01*
X15353061Y-11575712D01*
X15370204Y-11539522D02*
X15368299Y-11543331D01*
X15366394Y-11545236D01*
X15362585Y-11547141D01*
X15360680Y-11547141D01*
X15356871Y-11545236D01*
X15354966Y-11543331D01*
X15353061Y-11539522D01*
X15353061Y-11531903D01*
X15354966Y-11528093D01*
X15356871Y-11526188D01*
X15360680Y-11524284D01*
X15362585Y-11524284D01*
X15366394Y-11526188D01*
X15368299Y-11528093D01*
X15370204Y-11531903D01*
X15370204Y-11539522D01*
X15372109Y-11543331D01*
X15374014Y-11545236D01*
X15377823Y-11547141D01*
X15385442Y-11547141D01*
X15389252Y-11545236D01*
X15391156Y-11543331D01*
X15393061Y-11539522D01*
X15393061Y-11531903D01*
X15391156Y-11528093D01*
X15389252Y-11526188D01*
X15385442Y-11524284D01*
X15377823Y-11524284D01*
X15374014Y-11526188D01*
X15372109Y-11528093D01*
X15370204Y-11531903D01*
X15138942Y-11681960D02*
X15098942Y-11681960D01*
X15098942Y-11666722D01*
X15100847Y-11662912D01*
X15102752Y-11661008D01*
X15106561Y-11659103D01*
X15112275Y-11659103D01*
X15116085Y-11661008D01*
X15117990Y-11662912D01*
X15119895Y-11666722D01*
X15119895Y-11681960D01*
X15098942Y-11634341D02*
X15098942Y-11630532D01*
X15100847Y-11626722D01*
X15102752Y-11624817D01*
X15106561Y-11622912D01*
X15114180Y-11621008D01*
X15123704Y-11621008D01*
X15131323Y-11622912D01*
X15135133Y-11624817D01*
X15137037Y-11626722D01*
X15138942Y-11630532D01*
X15138942Y-11634341D01*
X15137037Y-11638151D01*
X15135133Y-11640055D01*
X15131323Y-11641960D01*
X15123704Y-11643865D01*
X15114180Y-11643865D01*
X15106561Y-11641960D01*
X15102752Y-11640055D01*
X15100847Y-11638151D01*
X15098942Y-11634341D01*
X15135133Y-11603865D02*
X15137037Y-11601960D01*
X15138942Y-11603865D01*
X15137037Y-11605770D01*
X15135133Y-11603865D01*
X15138942Y-11603865D01*
X15098942Y-11577198D02*
X15098942Y-11573389D01*
X15100847Y-11569579D01*
X15102752Y-11567674D01*
X15106561Y-11565770D01*
X15114180Y-11563865D01*
X15123704Y-11563865D01*
X15131323Y-11565770D01*
X15135133Y-11567674D01*
X15137037Y-11569579D01*
X15138942Y-11573389D01*
X15138942Y-11577198D01*
X15137037Y-11581008D01*
X15135133Y-11582912D01*
X15131323Y-11584817D01*
X15123704Y-11586722D01*
X15114180Y-11586722D01*
X15106561Y-11584817D01*
X15102752Y-11582912D01*
X15100847Y-11581008D01*
X15098942Y-11577198D01*
X15098942Y-11529579D02*
X15098942Y-11537198D01*
X15100847Y-11541008D01*
X15102752Y-11542912D01*
X15108466Y-11546722D01*
X15116085Y-11548627D01*
X15131323Y-11548627D01*
X15135133Y-11546722D01*
X15137037Y-11544817D01*
X15138942Y-11541008D01*
X15138942Y-11533389D01*
X15137037Y-11529579D01*
X15135133Y-11527674D01*
X15131323Y-11525770D01*
X15121799Y-11525770D01*
X15117990Y-11527674D01*
X15116085Y-11529579D01*
X15114180Y-11533389D01*
X15114180Y-11541008D01*
X15116085Y-11544817D01*
X15117990Y-11546722D01*
X15121799Y-11548627D01*
X14881851Y-11873664D02*
X14841851Y-11873664D01*
X14841851Y-11858426D01*
X14843756Y-11854616D01*
X14845661Y-11852712D01*
X14849470Y-11850807D01*
X14855184Y-11850807D01*
X14858994Y-11852712D01*
X14860899Y-11854616D01*
X14862804Y-11858426D01*
X14862804Y-11873664D01*
X14841851Y-11826045D02*
X14841851Y-11822236D01*
X14843756Y-11818426D01*
X14845661Y-11816521D01*
X14849470Y-11814616D01*
X14857089Y-11812712D01*
X14866613Y-11812712D01*
X14874232Y-11814616D01*
X14878042Y-11816521D01*
X14879946Y-11818426D01*
X14881851Y-11822236D01*
X14881851Y-11826045D01*
X14879946Y-11829855D01*
X14878042Y-11831759D01*
X14874232Y-11833664D01*
X14866613Y-11835569D01*
X14857089Y-11835569D01*
X14849470Y-11833664D01*
X14845661Y-11831759D01*
X14843756Y-11829855D01*
X14841851Y-11826045D01*
X14878042Y-11795569D02*
X14879946Y-11793664D01*
X14881851Y-11795569D01*
X14879946Y-11797474D01*
X14878042Y-11795569D01*
X14881851Y-11795569D01*
X14841851Y-11768902D02*
X14841851Y-11765093D01*
X14843756Y-11761283D01*
X14845661Y-11759378D01*
X14849470Y-11757474D01*
X14857089Y-11755569D01*
X14866613Y-11755569D01*
X14874232Y-11757474D01*
X14878042Y-11759378D01*
X14879946Y-11761283D01*
X14881851Y-11765093D01*
X14881851Y-11768902D01*
X14879946Y-11772712D01*
X14878042Y-11774616D01*
X14874232Y-11776521D01*
X14866613Y-11778426D01*
X14857089Y-11778426D01*
X14849470Y-11776521D01*
X14845661Y-11774616D01*
X14843756Y-11772712D01*
X14841851Y-11768902D01*
X14855184Y-11721283D02*
X14881851Y-11721283D01*
X14839946Y-11730807D02*
X14868518Y-11740331D01*
X14868518Y-11715569D01*
X14839946Y-11671759D02*
X14891375Y-11706045D01*
X14870423Y-11660331D02*
X14870423Y-11641283D01*
X14881851Y-11664140D02*
X14841851Y-11650807D01*
X14881851Y-11637474D01*
X14881851Y-11624140D02*
X14841851Y-11624140D01*
X14881851Y-11605093D02*
X14841851Y-11605093D01*
X14881851Y-11582236D01*
X14841851Y-11582236D01*
X14845661Y-11565093D02*
X14843756Y-11563188D01*
X14841851Y-11559378D01*
X14841851Y-11549855D01*
X14843756Y-11546045D01*
X14845661Y-11544140D01*
X14849470Y-11542236D01*
X14853280Y-11542236D01*
X14858994Y-11544140D01*
X14881851Y-11566997D01*
X14881851Y-11542236D01*
X14629219Y-11872178D02*
X14589219Y-11872178D01*
X14589219Y-11856940D01*
X14591124Y-11853130D01*
X14593029Y-11851226D01*
X14596838Y-11849321D01*
X14602552Y-11849321D01*
X14606362Y-11851226D01*
X14608267Y-11853130D01*
X14610172Y-11856940D01*
X14610172Y-11872178D01*
X14589219Y-11824559D02*
X14589219Y-11820750D01*
X14591124Y-11816940D01*
X14593029Y-11815035D01*
X14596838Y-11813130D01*
X14604457Y-11811226D01*
X14613981Y-11811226D01*
X14621600Y-11813130D01*
X14625410Y-11815035D01*
X14627314Y-11816940D01*
X14629219Y-11820750D01*
X14629219Y-11824559D01*
X14627314Y-11828369D01*
X14625410Y-11830273D01*
X14621600Y-11832178D01*
X14613981Y-11834083D01*
X14604457Y-11834083D01*
X14596838Y-11832178D01*
X14593029Y-11830273D01*
X14591124Y-11828369D01*
X14589219Y-11824559D01*
X14625410Y-11794083D02*
X14627314Y-11792178D01*
X14629219Y-11794083D01*
X14627314Y-11795988D01*
X14625410Y-11794083D01*
X14629219Y-11794083D01*
X14589219Y-11767416D02*
X14589219Y-11763607D01*
X14591124Y-11759797D01*
X14593029Y-11757892D01*
X14596838Y-11755988D01*
X14604457Y-11754083D01*
X14613981Y-11754083D01*
X14621600Y-11755988D01*
X14625410Y-11757892D01*
X14627314Y-11759797D01*
X14629219Y-11763607D01*
X14629219Y-11767416D01*
X14627314Y-11771226D01*
X14625410Y-11773130D01*
X14621600Y-11775035D01*
X14613981Y-11776940D01*
X14604457Y-11776940D01*
X14596838Y-11775035D01*
X14593029Y-11773130D01*
X14591124Y-11771226D01*
X14589219Y-11767416D01*
X14593029Y-11738845D02*
X14591124Y-11736940D01*
X14589219Y-11733130D01*
X14589219Y-11723607D01*
X14591124Y-11719797D01*
X14593029Y-11717892D01*
X14596838Y-11715988D01*
X14600648Y-11715988D01*
X14606362Y-11717892D01*
X14629219Y-11740750D01*
X14629219Y-11715988D01*
X14587314Y-11670273D02*
X14638743Y-11704559D01*
X14617791Y-11658845D02*
X14617791Y-11639797D01*
X14629219Y-11662654D02*
X14589219Y-11649321D01*
X14629219Y-11635988D01*
X14629219Y-11622654D02*
X14589219Y-11622654D01*
X14629219Y-11603607D02*
X14589219Y-11603607D01*
X14629219Y-11580750D01*
X14589219Y-11580750D01*
X14589219Y-11554083D02*
X14589219Y-11550273D01*
X14591124Y-11546464D01*
X14593029Y-11544559D01*
X14596838Y-11542654D01*
X14604457Y-11540750D01*
X14613981Y-11540750D01*
X14621600Y-11542654D01*
X14625410Y-11544559D01*
X14627314Y-11546464D01*
X14629219Y-11550273D01*
X14629219Y-11554083D01*
X14627314Y-11557892D01*
X14625410Y-11559797D01*
X14621600Y-11561702D01*
X14613981Y-11563607D01*
X14604457Y-11563607D01*
X14596838Y-11561702D01*
X14593029Y-11559797D01*
X14591124Y-11557892D01*
X14589219Y-11554083D01*
X14638135Y-11346107D02*
X14598135Y-11346107D01*
X14598135Y-11330869D01*
X14600040Y-11327059D01*
X14601945Y-11325155D01*
X14605754Y-11323250D01*
X14611468Y-11323250D01*
X14615278Y-11325155D01*
X14617183Y-11327059D01*
X14619088Y-11330869D01*
X14619088Y-11346107D01*
X14598135Y-11298488D02*
X14598135Y-11294679D01*
X14600040Y-11290869D01*
X14601945Y-11288964D01*
X14605754Y-11287059D01*
X14613373Y-11285155D01*
X14622897Y-11285155D01*
X14630516Y-11287059D01*
X14634326Y-11288964D01*
X14636230Y-11290869D01*
X14638135Y-11294679D01*
X14638135Y-11298488D01*
X14636230Y-11302298D01*
X14634326Y-11304202D01*
X14630516Y-11306107D01*
X14622897Y-11308012D01*
X14613373Y-11308012D01*
X14605754Y-11306107D01*
X14601945Y-11304202D01*
X14600040Y-11302298D01*
X14598135Y-11298488D01*
X14634326Y-11268012D02*
X14636230Y-11266107D01*
X14638135Y-11268012D01*
X14636230Y-11269917D01*
X14634326Y-11268012D01*
X14638135Y-11268012D01*
X14598135Y-11241345D02*
X14598135Y-11237536D01*
X14600040Y-11233726D01*
X14601945Y-11231821D01*
X14605754Y-11229917D01*
X14613373Y-11228012D01*
X14622897Y-11228012D01*
X14630516Y-11229917D01*
X14634326Y-11231821D01*
X14636230Y-11233726D01*
X14638135Y-11237536D01*
X14638135Y-11241345D01*
X14636230Y-11245155D01*
X14634326Y-11247059D01*
X14630516Y-11248964D01*
X14622897Y-11250869D01*
X14613373Y-11250869D01*
X14605754Y-11248964D01*
X14601945Y-11247059D01*
X14600040Y-11245155D01*
X14598135Y-11241345D01*
X14598135Y-11214679D02*
X14598135Y-11189917D01*
X14613373Y-11203250D01*
X14613373Y-11197536D01*
X14615278Y-11193726D01*
X14617183Y-11191821D01*
X14620992Y-11189917D01*
X14630516Y-11189917D01*
X14634326Y-11191821D01*
X14636230Y-11193726D01*
X14638135Y-11197536D01*
X14638135Y-11208964D01*
X14636230Y-11212774D01*
X14634326Y-11214679D01*
X14596230Y-11144202D02*
X14647659Y-11178488D01*
X14626707Y-11132774D02*
X14626707Y-11113726D01*
X14638135Y-11136583D02*
X14598135Y-11123250D01*
X14638135Y-11109917D01*
X14638135Y-11096583D02*
X14598135Y-11096583D01*
X14638135Y-11077536D02*
X14598135Y-11077536D01*
X14638135Y-11054679D01*
X14598135Y-11054679D01*
X14638135Y-11014679D02*
X14638135Y-11037536D01*
X14638135Y-11026107D02*
X14598135Y-11026107D01*
X14603849Y-11029917D01*
X14607659Y-11033726D01*
X14609564Y-11037536D01*
X14886314Y-11365430D02*
X14846314Y-11365430D01*
X14846314Y-11350192D01*
X14848219Y-11346382D01*
X14850124Y-11344478D01*
X14853933Y-11342573D01*
X14859647Y-11342573D01*
X14863457Y-11344478D01*
X14865362Y-11346382D01*
X14867267Y-11350192D01*
X14867267Y-11365430D01*
X14846314Y-11317811D02*
X14846314Y-11314002D01*
X14848219Y-11310192D01*
X14850124Y-11308287D01*
X14853933Y-11306382D01*
X14861552Y-11304478D01*
X14871076Y-11304478D01*
X14878695Y-11306382D01*
X14882505Y-11308287D01*
X14884409Y-11310192D01*
X14886314Y-11314002D01*
X14886314Y-11317811D01*
X14884409Y-11321621D01*
X14882505Y-11323525D01*
X14878695Y-11325430D01*
X14871076Y-11327335D01*
X14861552Y-11327335D01*
X14853933Y-11325430D01*
X14850124Y-11323525D01*
X14848219Y-11321621D01*
X14846314Y-11317811D01*
X14882505Y-11287335D02*
X14884409Y-11285430D01*
X14886314Y-11287335D01*
X14884409Y-11289240D01*
X14882505Y-11287335D01*
X14886314Y-11287335D01*
X14846314Y-11260668D02*
X14846314Y-11256859D01*
X14848219Y-11253049D01*
X14850124Y-11251144D01*
X14853933Y-11249240D01*
X14861552Y-11247335D01*
X14871076Y-11247335D01*
X14878695Y-11249240D01*
X14882505Y-11251144D01*
X14884409Y-11253049D01*
X14886314Y-11256859D01*
X14886314Y-11260668D01*
X14884409Y-11264478D01*
X14882505Y-11266382D01*
X14878695Y-11268287D01*
X14871076Y-11270192D01*
X14861552Y-11270192D01*
X14853933Y-11268287D01*
X14850124Y-11266382D01*
X14848219Y-11264478D01*
X14846314Y-11260668D01*
X14846314Y-11211144D02*
X14846314Y-11230192D01*
X14865362Y-11232097D01*
X14863457Y-11230192D01*
X14861552Y-11226382D01*
X14861552Y-11216859D01*
X14863457Y-11213049D01*
X14865362Y-11211144D01*
X14869171Y-11209240D01*
X14878695Y-11209240D01*
X14882505Y-11211144D01*
X14884409Y-11213049D01*
X14886314Y-11216859D01*
X14886314Y-11226382D01*
X14884409Y-11230192D01*
X14882505Y-11232097D01*
X14844409Y-11163525D02*
X14895838Y-11197811D01*
X14874886Y-11152097D02*
X14874886Y-11133049D01*
X14886314Y-11155906D02*
X14846314Y-11142573D01*
X14886314Y-11129240D01*
X14886314Y-11115906D02*
X14846314Y-11115906D01*
X14886314Y-11096859D02*
X14846314Y-11096859D01*
X14886314Y-11074002D01*
X14846314Y-11074002D01*
X14846314Y-11058764D02*
X14846314Y-11034002D01*
X14861552Y-11047335D01*
X14861552Y-11041621D01*
X14863457Y-11037811D01*
X14865362Y-11035906D01*
X14869171Y-11034002D01*
X14878695Y-11034002D01*
X14882505Y-11035906D01*
X14884409Y-11037811D01*
X14886314Y-11041621D01*
X14886314Y-11053049D01*
X14884409Y-11056859D01*
X14882505Y-11058764D01*
X15133002Y-11319362D02*
X15093002Y-11319362D01*
X15093002Y-11304124D01*
X15094907Y-11300314D01*
X15096812Y-11298410D01*
X15100621Y-11296505D01*
X15106335Y-11296505D01*
X15110145Y-11298410D01*
X15112050Y-11300314D01*
X15113955Y-11304124D01*
X15113955Y-11319362D01*
X15093002Y-11271743D02*
X15093002Y-11267934D01*
X15094907Y-11264124D01*
X15096812Y-11262219D01*
X15100621Y-11260314D01*
X15108240Y-11258410D01*
X15117764Y-11258410D01*
X15125383Y-11260314D01*
X15129193Y-11262219D01*
X15131097Y-11264124D01*
X15133002Y-11267934D01*
X15133002Y-11271743D01*
X15131097Y-11275553D01*
X15129193Y-11277457D01*
X15125383Y-11279362D01*
X15117764Y-11281267D01*
X15108240Y-11281267D01*
X15100621Y-11279362D01*
X15096812Y-11277457D01*
X15094907Y-11275553D01*
X15093002Y-11271743D01*
X15129193Y-11241267D02*
X15131097Y-11239362D01*
X15133002Y-11241267D01*
X15131097Y-11243172D01*
X15129193Y-11241267D01*
X15133002Y-11241267D01*
X15093002Y-11214600D02*
X15093002Y-11210791D01*
X15094907Y-11206981D01*
X15096812Y-11205076D01*
X15100621Y-11203172D01*
X15108240Y-11201267D01*
X15117764Y-11201267D01*
X15125383Y-11203172D01*
X15129193Y-11205076D01*
X15131097Y-11206981D01*
X15133002Y-11210791D01*
X15133002Y-11214600D01*
X15131097Y-11218410D01*
X15129193Y-11220314D01*
X15125383Y-11222219D01*
X15117764Y-11224124D01*
X15108240Y-11224124D01*
X15100621Y-11222219D01*
X15096812Y-11220314D01*
X15094907Y-11218410D01*
X15093002Y-11214600D01*
X15093002Y-11187934D02*
X15093002Y-11161267D01*
X15133002Y-11178410D01*
X15390093Y-11337195D02*
X15350093Y-11337195D01*
X15350093Y-11321957D01*
X15351998Y-11318147D01*
X15353903Y-11316243D01*
X15357712Y-11314338D01*
X15363426Y-11314338D01*
X15367236Y-11316243D01*
X15369141Y-11318147D01*
X15371046Y-11321957D01*
X15371046Y-11337195D01*
X15350093Y-11289576D02*
X15350093Y-11285767D01*
X15351998Y-11281957D01*
X15353903Y-11280052D01*
X15357712Y-11278147D01*
X15365331Y-11276243D01*
X15374855Y-11276243D01*
X15382474Y-11278147D01*
X15386284Y-11280052D01*
X15388188Y-11281957D01*
X15390093Y-11285767D01*
X15390093Y-11289576D01*
X15388188Y-11293386D01*
X15386284Y-11295290D01*
X15382474Y-11297195D01*
X15374855Y-11299100D01*
X15365331Y-11299100D01*
X15357712Y-11297195D01*
X15353903Y-11295290D01*
X15351998Y-11293386D01*
X15350093Y-11289576D01*
X15386284Y-11259100D02*
X15388188Y-11257195D01*
X15390093Y-11259100D01*
X15388188Y-11261005D01*
X15386284Y-11259100D01*
X15390093Y-11259100D01*
X15350093Y-11232433D02*
X15350093Y-11228624D01*
X15351998Y-11224814D01*
X15353903Y-11222909D01*
X15357712Y-11221005D01*
X15365331Y-11219100D01*
X15374855Y-11219100D01*
X15382474Y-11221005D01*
X15386284Y-11222909D01*
X15388188Y-11224814D01*
X15390093Y-11228624D01*
X15390093Y-11232433D01*
X15388188Y-11236243D01*
X15386284Y-11238147D01*
X15382474Y-11240052D01*
X15374855Y-11241957D01*
X15365331Y-11241957D01*
X15357712Y-11240052D01*
X15353903Y-11238147D01*
X15351998Y-11236243D01*
X15350093Y-11232433D01*
X15390093Y-11200052D02*
X15390093Y-11192433D01*
X15388188Y-11188624D01*
X15386284Y-11186719D01*
X15380569Y-11182909D01*
X15372950Y-11181005D01*
X15357712Y-11181005D01*
X15353903Y-11182909D01*
X15351998Y-11184814D01*
X15350093Y-11188624D01*
X15350093Y-11196243D01*
X15351998Y-11200052D01*
X15353903Y-11201957D01*
X15357712Y-11203862D01*
X15367236Y-11203862D01*
X15371046Y-11201957D01*
X15372950Y-11200052D01*
X15374855Y-11196243D01*
X15374855Y-11188624D01*
X15372950Y-11184814D01*
X15371046Y-11182909D01*
X15367236Y-11181005D01*
X15641239Y-11323820D02*
X15601239Y-11323820D01*
X15601239Y-11308582D01*
X15603144Y-11304772D01*
X15605049Y-11302868D01*
X15608858Y-11300963D01*
X15614572Y-11300963D01*
X15618382Y-11302868D01*
X15620287Y-11304772D01*
X15622192Y-11308582D01*
X15622192Y-11323820D01*
X15601239Y-11276201D02*
X15601239Y-11272392D01*
X15603144Y-11268582D01*
X15605049Y-11266677D01*
X15608858Y-11264772D01*
X15616477Y-11262868D01*
X15626001Y-11262868D01*
X15633620Y-11264772D01*
X15637430Y-11266677D01*
X15639334Y-11268582D01*
X15641239Y-11272392D01*
X15641239Y-11276201D01*
X15639334Y-11280011D01*
X15637430Y-11281915D01*
X15633620Y-11283820D01*
X15626001Y-11285725D01*
X15616477Y-11285725D01*
X15608858Y-11283820D01*
X15605049Y-11281915D01*
X15603144Y-11280011D01*
X15601239Y-11276201D01*
X15637430Y-11245725D02*
X15639334Y-11243820D01*
X15641239Y-11245725D01*
X15639334Y-11247630D01*
X15637430Y-11245725D01*
X15641239Y-11245725D01*
X15641239Y-11205725D02*
X15641239Y-11228582D01*
X15641239Y-11217153D02*
X15601239Y-11217153D01*
X15606953Y-11220963D01*
X15610763Y-11224772D01*
X15612668Y-11228582D01*
X15601239Y-11180963D02*
X15601239Y-11177154D01*
X15603144Y-11173344D01*
X15605049Y-11171439D01*
X15608858Y-11169534D01*
X15616477Y-11167630D01*
X15626001Y-11167630D01*
X15633620Y-11169534D01*
X15637430Y-11171439D01*
X15639334Y-11173344D01*
X15641239Y-11177154D01*
X15641239Y-11180963D01*
X15639334Y-11184773D01*
X15637430Y-11186677D01*
X15633620Y-11188582D01*
X15626001Y-11190487D01*
X15616477Y-11190487D01*
X15608858Y-11188582D01*
X15605049Y-11186677D01*
X15603144Y-11184773D01*
X15601239Y-11180963D01*
X14641584Y-10311799D02*
X14601584Y-10311799D01*
X14601584Y-10296561D01*
X14603489Y-10292752D01*
X14605394Y-10290847D01*
X14609203Y-10288942D01*
X14614917Y-10288942D01*
X14618727Y-10290847D01*
X14620632Y-10292752D01*
X14622537Y-10296561D01*
X14622537Y-10311799D01*
X14601584Y-10264180D02*
X14601584Y-10260371D01*
X14603489Y-10256561D01*
X14605394Y-10254656D01*
X14609203Y-10252752D01*
X14616822Y-10250847D01*
X14626346Y-10250847D01*
X14633965Y-10252752D01*
X14637775Y-10254656D01*
X14639679Y-10256561D01*
X14641584Y-10260371D01*
X14641584Y-10264180D01*
X14639679Y-10267990D01*
X14637775Y-10269894D01*
X14633965Y-10271799D01*
X14626346Y-10273704D01*
X14616822Y-10273704D01*
X14609203Y-10271799D01*
X14605394Y-10269894D01*
X14603489Y-10267990D01*
X14601584Y-10264180D01*
X14637775Y-10233704D02*
X14639679Y-10231799D01*
X14641584Y-10233704D01*
X14639679Y-10235609D01*
X14637775Y-10233704D01*
X14641584Y-10233704D01*
X14605394Y-10216561D02*
X14603489Y-10214656D01*
X14601584Y-10210847D01*
X14601584Y-10201323D01*
X14603489Y-10197513D01*
X14605394Y-10195609D01*
X14609203Y-10193704D01*
X14613013Y-10193704D01*
X14618727Y-10195609D01*
X14641584Y-10218466D01*
X14641584Y-10193704D01*
X14641584Y-10155609D02*
X14641584Y-10178466D01*
X14641584Y-10167037D02*
X14601584Y-10167037D01*
X14607298Y-10170847D01*
X14611108Y-10174656D01*
X14613013Y-10178466D01*
X14899254Y-10315662D02*
X14859254Y-10315662D01*
X14859254Y-10300424D01*
X14861159Y-10296615D01*
X14863064Y-10294710D01*
X14866873Y-10292805D01*
X14872587Y-10292805D01*
X14876397Y-10294710D01*
X14878302Y-10296615D01*
X14880207Y-10300424D01*
X14880207Y-10315662D01*
X14859254Y-10268043D02*
X14859254Y-10264234D01*
X14861159Y-10260424D01*
X14863064Y-10258519D01*
X14866873Y-10256615D01*
X14874492Y-10254710D01*
X14884016Y-10254710D01*
X14891635Y-10256615D01*
X14895445Y-10258519D01*
X14897349Y-10260424D01*
X14899254Y-10264234D01*
X14899254Y-10268043D01*
X14897349Y-10271853D01*
X14895445Y-10273757D01*
X14891635Y-10275662D01*
X14884016Y-10277567D01*
X14874492Y-10277567D01*
X14866873Y-10275662D01*
X14863064Y-10273757D01*
X14861159Y-10271853D01*
X14859254Y-10268043D01*
X14895445Y-10237567D02*
X14897349Y-10235662D01*
X14899254Y-10237567D01*
X14897349Y-10239472D01*
X14895445Y-10237567D01*
X14899254Y-10237567D01*
X14863064Y-10220424D02*
X14861159Y-10218519D01*
X14859254Y-10214710D01*
X14859254Y-10205186D01*
X14861159Y-10201376D01*
X14863064Y-10199472D01*
X14866873Y-10197567D01*
X14870683Y-10197567D01*
X14876397Y-10199472D01*
X14899254Y-10222329D01*
X14899254Y-10197567D01*
X14859254Y-10172805D02*
X14859254Y-10168996D01*
X14861159Y-10165186D01*
X14863064Y-10163281D01*
X14866873Y-10161376D01*
X14874492Y-10159472D01*
X14884016Y-10159472D01*
X14891635Y-10161376D01*
X14895445Y-10163281D01*
X14897349Y-10165186D01*
X14899254Y-10168996D01*
X14899254Y-10172805D01*
X14897349Y-10176615D01*
X14895445Y-10178519D01*
X14891635Y-10180424D01*
X14884016Y-10182329D01*
X14874492Y-10182329D01*
X14866873Y-10180424D01*
X14863064Y-10178519D01*
X14861159Y-10176615D01*
X14859254Y-10172805D01*
X15151413Y-10309277D02*
X15111413Y-10309277D01*
X15111413Y-10294039D01*
X15113318Y-10290230D01*
X15115223Y-10288325D01*
X15119032Y-10286420D01*
X15124746Y-10286420D01*
X15128556Y-10288325D01*
X15130461Y-10290230D01*
X15132366Y-10294039D01*
X15132366Y-10309277D01*
X15111413Y-10261658D02*
X15111413Y-10257849D01*
X15113318Y-10254039D01*
X15115223Y-10252134D01*
X15119032Y-10250230D01*
X15126651Y-10248325D01*
X15136175Y-10248325D01*
X15143794Y-10250230D01*
X15147604Y-10252134D01*
X15149508Y-10254039D01*
X15151413Y-10257849D01*
X15151413Y-10261658D01*
X15149508Y-10265468D01*
X15147604Y-10267372D01*
X15143794Y-10269277D01*
X15136175Y-10271182D01*
X15126651Y-10271182D01*
X15119032Y-10269277D01*
X15115223Y-10267372D01*
X15113318Y-10265468D01*
X15111413Y-10261658D01*
X15147604Y-10231182D02*
X15149508Y-10229277D01*
X15151413Y-10231182D01*
X15149508Y-10233087D01*
X15147604Y-10231182D01*
X15151413Y-10231182D01*
X15151413Y-10191182D02*
X15151413Y-10214039D01*
X15151413Y-10202611D02*
X15111413Y-10202611D01*
X15117127Y-10206420D01*
X15120937Y-10210230D01*
X15122842Y-10214039D01*
X15151413Y-10172134D02*
X15151413Y-10164515D01*
X15149508Y-10160706D01*
X15147604Y-10158801D01*
X15141889Y-10154991D01*
X15134270Y-10153087D01*
X15119032Y-10153087D01*
X15115223Y-10154991D01*
X15113318Y-10156896D01*
X15111413Y-10160706D01*
X15111413Y-10168325D01*
X15113318Y-10172134D01*
X15115223Y-10174039D01*
X15119032Y-10175944D01*
X15128556Y-10175944D01*
X15132366Y-10174039D01*
X15134270Y-10172134D01*
X15136175Y-10168325D01*
X15136175Y-10160706D01*
X15134270Y-10156896D01*
X15132366Y-10154991D01*
X15128556Y-10153087D01*
X15397439Y-10311922D02*
X15357439Y-10311922D01*
X15357439Y-10296684D01*
X15359344Y-10292875D01*
X15361249Y-10290970D01*
X15365058Y-10289065D01*
X15370772Y-10289065D01*
X15374582Y-10290970D01*
X15376487Y-10292875D01*
X15378392Y-10296684D01*
X15378392Y-10311922D01*
X15357439Y-10264303D02*
X15357439Y-10260494D01*
X15359344Y-10256684D01*
X15361249Y-10254779D01*
X15365058Y-10252875D01*
X15372677Y-10250970D01*
X15382201Y-10250970D01*
X15389820Y-10252875D01*
X15393630Y-10254779D01*
X15395534Y-10256684D01*
X15397439Y-10260494D01*
X15397439Y-10264303D01*
X15395534Y-10268113D01*
X15393630Y-10270017D01*
X15389820Y-10271922D01*
X15382201Y-10273827D01*
X15372677Y-10273827D01*
X15365058Y-10271922D01*
X15361249Y-10270017D01*
X15359344Y-10268113D01*
X15357439Y-10264303D01*
X15393630Y-10233827D02*
X15395534Y-10231922D01*
X15397439Y-10233827D01*
X15395534Y-10235732D01*
X15393630Y-10233827D01*
X15397439Y-10233827D01*
X15397439Y-10193827D02*
X15397439Y-10216684D01*
X15397439Y-10205256D02*
X15357439Y-10205256D01*
X15363153Y-10209065D01*
X15366963Y-10212875D01*
X15368868Y-10216684D01*
X15374582Y-10170970D02*
X15372677Y-10174779D01*
X15370772Y-10176684D01*
X15366963Y-10178589D01*
X15365058Y-10178589D01*
X15361249Y-10176684D01*
X15359344Y-10174779D01*
X15357439Y-10170970D01*
X15357439Y-10163351D01*
X15359344Y-10159541D01*
X15361249Y-10157636D01*
X15365058Y-10155732D01*
X15366963Y-10155732D01*
X15370772Y-10157636D01*
X15372677Y-10159541D01*
X15374582Y-10163351D01*
X15374582Y-10170970D01*
X15376487Y-10174779D01*
X15378392Y-10176684D01*
X15382201Y-10178589D01*
X15389820Y-10178589D01*
X15393630Y-10176684D01*
X15395534Y-10174779D01*
X15397439Y-10170970D01*
X15397439Y-10163351D01*
X15395534Y-10159541D01*
X15393630Y-10157636D01*
X15389820Y-10155732D01*
X15382201Y-10155732D01*
X15378392Y-10157636D01*
X15376487Y-10159541D01*
X15374582Y-10163351D01*
X14636597Y-9811551D02*
X14596597Y-9811551D01*
X14596597Y-9796313D01*
X14598502Y-9792504D01*
X14600407Y-9790599D01*
X14604216Y-9788694D01*
X14609930Y-9788694D01*
X14613740Y-9790599D01*
X14615645Y-9792504D01*
X14617550Y-9796313D01*
X14617550Y-9811551D01*
X14596597Y-9763932D02*
X14596597Y-9760123D01*
X14598502Y-9756313D01*
X14600407Y-9754408D01*
X14604216Y-9752504D01*
X14611835Y-9750599D01*
X14621359Y-9750599D01*
X14628978Y-9752504D01*
X14632788Y-9754408D01*
X14634692Y-9756313D01*
X14636597Y-9760123D01*
X14636597Y-9763932D01*
X14634692Y-9767742D01*
X14632788Y-9769646D01*
X14628978Y-9771551D01*
X14621359Y-9773456D01*
X14611835Y-9773456D01*
X14604216Y-9771551D01*
X14600407Y-9769646D01*
X14598502Y-9767742D01*
X14596597Y-9763932D01*
X14632788Y-9733456D02*
X14634692Y-9731551D01*
X14636597Y-9733456D01*
X14634692Y-9735361D01*
X14632788Y-9733456D01*
X14636597Y-9733456D01*
X14600407Y-9716313D02*
X14598502Y-9714408D01*
X14596597Y-9710599D01*
X14596597Y-9701075D01*
X14598502Y-9697265D01*
X14600407Y-9695361D01*
X14604216Y-9693456D01*
X14608026Y-9693456D01*
X14613740Y-9695361D01*
X14636597Y-9718218D01*
X14636597Y-9693456D01*
X14596597Y-9680123D02*
X14596597Y-9655361D01*
X14611835Y-9668694D01*
X14611835Y-9662980D01*
X14613740Y-9659170D01*
X14615645Y-9657265D01*
X14619454Y-9655361D01*
X14628978Y-9655361D01*
X14632788Y-9657265D01*
X14634692Y-9659170D01*
X14636597Y-9662980D01*
X14636597Y-9674408D01*
X14634692Y-9678218D01*
X14632788Y-9680123D01*
X14881167Y-9806414D02*
X14883072Y-9800700D01*
X14883072Y-9791176D01*
X14881167Y-9787366D01*
X14879263Y-9785462D01*
X14875453Y-9783557D01*
X14871644Y-9783557D01*
X14867834Y-9785462D01*
X14865929Y-9787366D01*
X14864025Y-9791176D01*
X14862120Y-9798795D01*
X14860215Y-9802604D01*
X14858310Y-9804509D01*
X14854501Y-9806414D01*
X14850691Y-9806414D01*
X14846882Y-9804509D01*
X14844977Y-9802604D01*
X14843072Y-9798795D01*
X14843072Y-9789271D01*
X14844977Y-9783557D01*
X14843072Y-9770223D02*
X14883072Y-9760700D01*
X14854501Y-9753081D01*
X14883072Y-9745462D01*
X14843072Y-9735938D01*
X14883072Y-9720700D02*
X14843072Y-9720700D01*
X14843072Y-9711176D01*
X14844977Y-9705462D01*
X14848786Y-9701652D01*
X14852596Y-9699747D01*
X14860215Y-9697843D01*
X14865929Y-9697843D01*
X14873548Y-9699747D01*
X14877358Y-9701652D01*
X14881167Y-9705462D01*
X14883072Y-9711176D01*
X14883072Y-9720700D01*
X14883072Y-9680700D02*
X14843072Y-9680700D01*
X14843072Y-9654033D02*
X14843072Y-9646414D01*
X14844977Y-9642604D01*
X14848786Y-9638795D01*
X14856405Y-9636890D01*
X14869739Y-9636890D01*
X14877358Y-9638795D01*
X14881167Y-9642604D01*
X14883072Y-9646414D01*
X14883072Y-9654033D01*
X14881167Y-9657843D01*
X14877358Y-9661652D01*
X14869739Y-9663557D01*
X14856405Y-9663557D01*
X14848786Y-9661652D01*
X14844977Y-9657843D01*
X14843072Y-9654033D01*
X15129402Y-9824019D02*
X15131307Y-9818305D01*
X15131307Y-9808781D01*
X15129402Y-9804971D01*
X15127498Y-9803067D01*
X15123688Y-9801162D01*
X15119879Y-9801162D01*
X15116069Y-9803067D01*
X15114164Y-9804971D01*
X15112260Y-9808781D01*
X15110355Y-9816400D01*
X15108450Y-9820209D01*
X15106545Y-9822114D01*
X15102736Y-9824019D01*
X15098926Y-9824019D01*
X15095117Y-9822114D01*
X15093212Y-9820209D01*
X15091307Y-9816400D01*
X15091307Y-9806876D01*
X15093212Y-9801162D01*
X15091307Y-9787828D02*
X15131307Y-9778305D01*
X15102736Y-9770686D01*
X15131307Y-9763067D01*
X15091307Y-9753543D01*
X15131307Y-9738305D02*
X15091307Y-9738305D01*
X15091307Y-9728781D01*
X15093212Y-9723067D01*
X15097021Y-9719257D01*
X15100831Y-9717352D01*
X15108450Y-9715448D01*
X15114164Y-9715448D01*
X15121783Y-9717352D01*
X15125593Y-9719257D01*
X15129402Y-9723067D01*
X15131307Y-9728781D01*
X15131307Y-9738305D01*
X15127498Y-9675448D02*
X15129402Y-9677352D01*
X15131307Y-9683067D01*
X15131307Y-9686876D01*
X15129402Y-9692590D01*
X15125593Y-9696400D01*
X15121783Y-9698305D01*
X15114164Y-9700209D01*
X15108450Y-9700209D01*
X15100831Y-9698305D01*
X15097021Y-9696400D01*
X15093212Y-9692590D01*
X15091307Y-9686876D01*
X15091307Y-9683067D01*
X15093212Y-9677352D01*
X15095117Y-9675448D01*
X15131307Y-9639257D02*
X15131307Y-9658305D01*
X15091307Y-9658305D01*
X15131307Y-9625924D02*
X15091307Y-9625924D01*
X15131307Y-9603067D02*
X15108450Y-9620209D01*
X15091307Y-9603067D02*
X15114164Y-9625924D01*
X14895395Y-9533386D02*
X14855395Y-9533386D01*
X14855395Y-9518148D01*
X14857300Y-9514339D01*
X14859205Y-9512434D01*
X14863014Y-9510529D01*
X14868728Y-9510529D01*
X14872538Y-9512434D01*
X14874443Y-9514339D01*
X14876348Y-9518148D01*
X14876348Y-9533386D01*
X14855395Y-9485767D02*
X14855395Y-9481958D01*
X14857300Y-9478148D01*
X14859205Y-9476243D01*
X14863014Y-9474339D01*
X14870633Y-9472434D01*
X14880157Y-9472434D01*
X14887776Y-9474339D01*
X14891586Y-9476243D01*
X14893490Y-9478148D01*
X14895395Y-9481958D01*
X14895395Y-9485767D01*
X14893490Y-9489577D01*
X14891586Y-9491481D01*
X14887776Y-9493386D01*
X14880157Y-9495291D01*
X14870633Y-9495291D01*
X14863014Y-9493386D01*
X14859205Y-9491481D01*
X14857300Y-9489577D01*
X14855395Y-9485767D01*
X14891586Y-9455291D02*
X14893490Y-9453386D01*
X14895395Y-9455291D01*
X14893490Y-9457196D01*
X14891586Y-9455291D01*
X14895395Y-9455291D01*
X14859205Y-9438148D02*
X14857300Y-9436243D01*
X14855395Y-9432434D01*
X14855395Y-9422910D01*
X14857300Y-9419100D01*
X14859205Y-9417196D01*
X14863014Y-9415291D01*
X14866824Y-9415291D01*
X14872538Y-9417196D01*
X14895395Y-9440053D01*
X14895395Y-9415291D01*
X14859205Y-9400053D02*
X14857300Y-9398148D01*
X14855395Y-9394339D01*
X14855395Y-9384815D01*
X14857300Y-9381005D01*
X14859205Y-9379100D01*
X14863014Y-9377196D01*
X14866824Y-9377196D01*
X14872538Y-9379100D01*
X14895395Y-9401958D01*
X14895395Y-9377196D01*
X14634836Y-9528105D02*
X14594836Y-9528105D01*
X14594836Y-9512867D01*
X14596741Y-9509058D01*
X14598646Y-9507153D01*
X14602455Y-9505248D01*
X14608169Y-9505248D01*
X14611979Y-9507153D01*
X14613884Y-9509058D01*
X14615789Y-9512867D01*
X14615789Y-9528105D01*
X14594836Y-9480486D02*
X14594836Y-9476677D01*
X14596741Y-9472867D01*
X14598646Y-9470962D01*
X14602455Y-9469058D01*
X14610074Y-9467153D01*
X14619598Y-9467153D01*
X14627217Y-9469058D01*
X14631027Y-9470962D01*
X14632931Y-9472867D01*
X14634836Y-9476677D01*
X14634836Y-9480486D01*
X14632931Y-9484296D01*
X14631027Y-9486200D01*
X14627217Y-9488105D01*
X14619598Y-9490010D01*
X14610074Y-9490010D01*
X14602455Y-9488105D01*
X14598646Y-9486200D01*
X14596741Y-9484296D01*
X14594836Y-9480486D01*
X14631027Y-9450010D02*
X14632931Y-9448105D01*
X14634836Y-9450010D01*
X14632931Y-9451915D01*
X14631027Y-9450010D01*
X14634836Y-9450010D01*
X14598646Y-9432867D02*
X14596741Y-9430962D01*
X14594836Y-9427153D01*
X14594836Y-9417629D01*
X14596741Y-9413819D01*
X14598646Y-9411915D01*
X14602455Y-9410010D01*
X14606265Y-9410010D01*
X14611979Y-9411915D01*
X14634836Y-9434772D01*
X14634836Y-9410010D01*
X14608169Y-9375724D02*
X14634836Y-9375724D01*
X14592931Y-9385248D02*
X14621503Y-9394772D01*
X14621503Y-9370010D01*
X12602537Y-11286761D02*
X12574848Y-11315628D01*
X12563851Y-11305080D01*
X12562420Y-11301068D01*
X12562364Y-11298375D01*
X12563626Y-11294307D01*
X12567582Y-11290183D01*
X12571594Y-11288753D01*
X12574287Y-11288697D01*
X12578354Y-11289959D01*
X12589352Y-11300507D01*
X12540482Y-11282665D02*
X12537733Y-11280028D01*
X12536302Y-11276016D01*
X12536246Y-11273323D01*
X12537508Y-11269255D01*
X12541408Y-11262438D01*
X12548000Y-11255565D01*
X12554649Y-11251385D01*
X12558661Y-11249954D01*
X12561354Y-11249898D01*
X12565422Y-11251161D01*
X12568171Y-11253798D01*
X12569602Y-11257809D01*
X12569658Y-11260503D01*
X12568395Y-11264570D01*
X12564496Y-11271387D01*
X12557903Y-11278261D01*
X12551255Y-11282441D01*
X12547243Y-11283871D01*
X12544550Y-11283927D01*
X12540482Y-11282665D01*
X12543540Y-11235451D02*
X12543484Y-11232757D01*
X12546177Y-11232701D01*
X12546233Y-11235394D01*
X12543540Y-11235451D01*
X12546177Y-11232701D01*
X12507491Y-11251020D02*
X12489621Y-11233880D01*
X12509791Y-11232112D01*
X12505667Y-11228157D01*
X12504237Y-11224145D01*
X12504180Y-11221452D01*
X12505443Y-11217384D01*
X12512036Y-11210511D01*
X12516047Y-11209080D01*
X12518740Y-11209024D01*
X12522808Y-11210286D01*
X12531056Y-11218198D01*
X12532487Y-11222209D01*
X12532543Y-11224902D01*
X12489817Y-11178642D02*
X12506313Y-11194464D01*
X12498065Y-11186553D02*
X12470376Y-11215420D01*
X12477081Y-11213933D01*
X12482467Y-11213821D01*
X12486535Y-11215084D01*
X12427818Y-11177239D02*
X12488162Y-11163858D01*
X12440667Y-11147334D02*
X12426921Y-11134149D01*
X12451327Y-11141723D02*
X12414016Y-11161361D01*
X12432082Y-11123264D01*
X12422460Y-11114034D02*
X12394771Y-11142902D01*
X12408714Y-11100849D02*
X12381025Y-11129716D01*
X12392218Y-11085027D01*
X12364529Y-11113894D01*
X12353532Y-11103346D02*
X12334287Y-11084887D01*
X12374348Y-11067886D01*
X12602604Y-11020203D02*
X12573461Y-11047601D01*
X12563023Y-11036499D01*
X12561802Y-11032419D01*
X12561885Y-11029727D01*
X12563356Y-11025729D01*
X12567519Y-11021815D01*
X12571599Y-11020594D01*
X12574292Y-11020677D01*
X12578289Y-11022148D01*
X12588726Y-11033250D01*
X12540844Y-11012907D02*
X12538234Y-11010132D01*
X12537013Y-11006052D01*
X12537096Y-11003359D01*
X12538566Y-10999362D01*
X12542813Y-10992755D01*
X12549752Y-10986232D01*
X12556607Y-10982401D01*
X12560688Y-10981179D01*
X12563380Y-10981262D01*
X12567377Y-10982733D01*
X12569987Y-10985509D01*
X12571208Y-10989589D01*
X12571125Y-10992281D01*
X12569654Y-10996279D01*
X12565408Y-11002885D01*
X12558469Y-11009409D01*
X12551613Y-11013240D01*
X12547533Y-11014461D01*
X12544841Y-11014378D01*
X12540844Y-11012907D01*
X12546336Y-10965914D02*
X12546419Y-10963221D01*
X12549111Y-10963304D01*
X12549028Y-10965997D01*
X12546336Y-10965914D01*
X12549111Y-10963304D01*
X12509531Y-10979601D02*
X12492570Y-10961560D01*
X12512805Y-10960837D01*
X12508891Y-10956673D01*
X12507669Y-10952593D01*
X12507752Y-10949901D01*
X12509223Y-10945904D01*
X12516162Y-10939380D01*
X12520242Y-10938159D01*
X12522935Y-10938242D01*
X12526932Y-10939712D01*
X12534760Y-10948039D01*
X12535981Y-10952119D01*
X12535898Y-10954812D01*
X12475609Y-10943519D02*
X12472999Y-10940743D01*
X12471778Y-10936663D01*
X12471861Y-10933971D01*
X12473332Y-10929974D01*
X12477578Y-10923367D01*
X12484517Y-10916844D01*
X12491373Y-10913013D01*
X12495453Y-10911791D01*
X12498145Y-10911874D01*
X12502143Y-10913345D01*
X12504752Y-10916120D01*
X12505974Y-10920201D01*
X12505890Y-10922893D01*
X12504420Y-10926890D01*
X12500173Y-10933497D01*
X12493234Y-10940020D01*
X12486379Y-10943851D01*
X12482298Y-10945073D01*
X12479606Y-10944990D01*
X12475609Y-10943519D01*
X12433776Y-10901803D02*
X12494730Y-10891556D01*
X12448152Y-10872601D02*
X12435105Y-10858724D01*
X12459088Y-10867549D02*
X12420812Y-10885233D01*
X12440822Y-10848120D01*
X12431689Y-10838406D02*
X12402546Y-10865804D01*
X12418642Y-10824528D02*
X12389499Y-10851927D01*
X12402986Y-10807875D01*
X12373843Y-10835273D01*
X12349054Y-10808906D02*
X12354272Y-10814457D01*
X12358269Y-10815928D01*
X12360962Y-10816011D01*
X12367735Y-10814872D01*
X12374590Y-10811041D01*
X12385692Y-10800604D01*
X12387163Y-10796607D01*
X12387246Y-10793914D01*
X12386025Y-10789834D01*
X12380806Y-10784283D01*
X12376809Y-10782812D01*
X12374116Y-10782729D01*
X12370036Y-10783950D01*
X12363097Y-10790474D01*
X12361626Y-10794471D01*
X12361543Y-10797164D01*
X12362765Y-10801244D01*
X12367984Y-10806795D01*
X12371981Y-10808266D01*
X12374673Y-10808349D01*
X12378754Y-10807127D01*
X12606713Y-10774221D02*
X12577872Y-10801937D01*
X12567313Y-10790950D01*
X12566047Y-10786883D01*
X12566101Y-10784190D01*
X12567528Y-10780177D01*
X12571648Y-10776218D01*
X12575715Y-10774951D01*
X12578408Y-10775005D01*
X12582421Y-10776432D01*
X12592979Y-10787419D01*
X12544877Y-10767602D02*
X12542237Y-10764855D01*
X12540971Y-10760789D01*
X12541025Y-10758095D01*
X12542452Y-10754082D01*
X12546625Y-10747430D01*
X12553492Y-10740831D01*
X12560306Y-10736925D01*
X12564372Y-10735659D01*
X12567066Y-10735712D01*
X12571079Y-10737139D01*
X12573718Y-10739886D01*
X12574984Y-10743953D01*
X12574931Y-10746646D01*
X12573504Y-10750659D01*
X12569330Y-10757312D01*
X12562463Y-10763911D01*
X12555650Y-10767816D01*
X12551583Y-10769083D01*
X12548890Y-10769029D01*
X12544877Y-10767602D01*
X12549854Y-10720551D02*
X12549908Y-10717858D01*
X12552601Y-10717912D01*
X12552548Y-10720605D01*
X12549854Y-10720551D01*
X12552601Y-10717912D01*
X12514628Y-10730627D02*
X12511935Y-10730574D01*
X12507922Y-10729147D01*
X12501323Y-10722280D01*
X12500057Y-10718213D01*
X12500111Y-10715520D01*
X12501538Y-10711507D01*
X12504284Y-10708867D01*
X12509724Y-10706281D01*
X12542043Y-10706924D01*
X12524885Y-10689070D01*
X12511687Y-10675336D02*
X12506408Y-10669843D01*
X12502395Y-10668416D01*
X12499702Y-10668362D01*
X12492942Y-10669575D01*
X12486129Y-10673481D01*
X12475141Y-10684039D01*
X12473714Y-10688052D01*
X12473661Y-10690745D01*
X12474927Y-10694812D01*
X12480206Y-10700305D01*
X12484219Y-10701732D01*
X12486912Y-10701786D01*
X12490979Y-10700520D01*
X12497846Y-10693921D01*
X12499273Y-10689908D01*
X12499327Y-10687215D01*
X12498060Y-10683148D01*
X12492781Y-10677654D01*
X12488768Y-10676227D01*
X12486075Y-10676174D01*
X12482008Y-10677440D01*
X12436599Y-10657676D02*
X12497437Y-10646763D01*
X12450655Y-10628319D02*
X12437457Y-10614585D01*
X12461535Y-10623147D02*
X12423455Y-10641249D01*
X12443057Y-10603919D01*
X12433819Y-10594306D02*
X12404977Y-10622022D01*
X12420621Y-10580572D02*
X12391779Y-10608288D01*
X12404783Y-10564091D01*
X12375942Y-10591807D01*
X12349545Y-10564339D02*
X12362744Y-10578073D01*
X12377797Y-10566248D01*
X12375104Y-10566194D01*
X12371091Y-10564767D01*
X12364492Y-10557900D01*
X12363226Y-10553834D01*
X12363279Y-10551141D01*
X12364706Y-10547128D01*
X12371573Y-10540529D01*
X12375640Y-10539262D01*
X12378333Y-10539316D01*
X12382346Y-10540743D01*
X12388945Y-10547610D01*
X12390212Y-10551677D01*
X12390158Y-10554370D01*
X12605708Y-10532641D02*
X12576766Y-10560252D01*
X12566248Y-10549226D01*
X12564996Y-10545155D01*
X12565060Y-10542462D01*
X12566501Y-10538454D01*
X12570636Y-10534510D01*
X12574707Y-10533258D01*
X12577400Y-10533322D01*
X12581408Y-10534763D01*
X12591926Y-10545789D01*
X12543896Y-10525797D02*
X12541267Y-10523040D01*
X12540015Y-10518969D01*
X12540079Y-10516276D01*
X12541520Y-10512268D01*
X12545719Y-10505631D01*
X12552610Y-10499057D01*
X12559437Y-10495176D01*
X12563508Y-10493925D01*
X12566201Y-10493988D01*
X12570209Y-10495430D01*
X12572839Y-10498186D01*
X12574090Y-10502257D01*
X12574027Y-10504950D01*
X12572585Y-10508958D01*
X12568387Y-10515595D01*
X12561496Y-10522169D01*
X12554668Y-10526050D01*
X12550597Y-10527302D01*
X12547904Y-10527238D01*
X12543896Y-10525797D01*
X12549046Y-10478764D02*
X12549109Y-10476071D01*
X12551802Y-10476135D01*
X12551739Y-10478828D01*
X12549046Y-10478764D01*
X12551802Y-10476135D01*
X12513783Y-10488712D02*
X12511090Y-10488648D01*
X12507082Y-10487207D01*
X12500509Y-10480316D01*
X12499257Y-10476244D01*
X12499321Y-10473551D01*
X12500762Y-10469544D01*
X12503519Y-10466914D01*
X12508968Y-10464348D01*
X12541284Y-10465109D01*
X12524192Y-10447192D01*
X12491876Y-10446431D02*
X12493127Y-10450502D01*
X12493064Y-10453195D01*
X12491622Y-10457203D01*
X12490244Y-10458518D01*
X12486173Y-10459769D01*
X12483480Y-10459706D01*
X12479472Y-10458264D01*
X12474213Y-10452751D01*
X12472962Y-10448680D01*
X12473025Y-10445987D01*
X12474467Y-10441979D01*
X12475845Y-10440665D01*
X12479916Y-10439413D01*
X12482609Y-10439477D01*
X12486617Y-10440918D01*
X12491876Y-10446431D01*
X12495884Y-10447873D01*
X12498577Y-10447936D01*
X12502648Y-10446685D01*
X12508161Y-10441426D01*
X12509602Y-10437418D01*
X12509666Y-10434725D01*
X12508414Y-10430654D01*
X12503155Y-10425141D01*
X12499148Y-10423699D01*
X12496455Y-10423636D01*
X12492383Y-10424887D01*
X12486871Y-10430146D01*
X12485429Y-10434154D01*
X12485365Y-10436847D01*
X12486617Y-10440918D01*
X12436021Y-10415476D02*
X12496899Y-10404785D01*
X12450183Y-10386170D02*
X12437036Y-10372388D01*
X12461082Y-10381038D02*
X12422936Y-10399001D01*
X12442675Y-10361743D01*
X12433472Y-10352096D02*
X12404529Y-10379706D01*
X12420324Y-10338314D02*
X12391382Y-10365924D01*
X12404547Y-10321775D01*
X12375604Y-10349385D01*
X12360271Y-10313996D02*
X12379566Y-10295589D01*
X12355819Y-10331405D02*
X12383066Y-10318575D01*
X12365974Y-10300658D01*
X12607560Y-10291463D02*
X12567560Y-10291463D01*
X12567560Y-10276225D01*
X12569465Y-10272416D01*
X12571370Y-10270511D01*
X12575179Y-10268606D01*
X12580893Y-10268606D01*
X12584703Y-10270511D01*
X12586608Y-10272416D01*
X12588513Y-10276225D01*
X12588513Y-10291463D01*
X12567560Y-10243844D02*
X12567560Y-10240035D01*
X12569465Y-10236225D01*
X12571370Y-10234320D01*
X12575179Y-10232416D01*
X12582798Y-10230511D01*
X12592322Y-10230511D01*
X12599941Y-10232416D01*
X12603751Y-10234320D01*
X12605655Y-10236225D01*
X12607560Y-10240035D01*
X12607560Y-10243844D01*
X12605655Y-10247654D01*
X12603751Y-10249558D01*
X12599941Y-10251463D01*
X12592322Y-10253368D01*
X12582798Y-10253368D01*
X12575179Y-10251463D01*
X12571370Y-10249558D01*
X12569465Y-10247654D01*
X12567560Y-10243844D01*
X12603751Y-10213368D02*
X12605655Y-10211463D01*
X12607560Y-10213368D01*
X12605655Y-10215273D01*
X12603751Y-10213368D01*
X12607560Y-10213368D01*
X12571370Y-10196225D02*
X12569465Y-10194320D01*
X12567560Y-10190511D01*
X12567560Y-10180987D01*
X12569465Y-10177177D01*
X12571370Y-10175273D01*
X12575179Y-10173368D01*
X12578989Y-10173368D01*
X12584703Y-10175273D01*
X12607560Y-10198130D01*
X12607560Y-10173368D01*
X12567560Y-10160035D02*
X12567560Y-10133368D01*
X12607560Y-10150511D01*
X12610839Y-10050969D02*
X12570839Y-10050969D01*
X12570839Y-10035731D01*
X12572744Y-10031922D01*
X12574649Y-10030017D01*
X12578458Y-10028112D01*
X12584172Y-10028112D01*
X12587982Y-10030017D01*
X12589887Y-10031922D01*
X12591792Y-10035731D01*
X12591792Y-10050969D01*
X12570839Y-10003350D02*
X12570839Y-9999541D01*
X12572744Y-9995731D01*
X12574649Y-9993826D01*
X12578458Y-9991922D01*
X12586077Y-9990017D01*
X12595601Y-9990017D01*
X12603220Y-9991922D01*
X12607030Y-9993826D01*
X12608934Y-9995731D01*
X12610839Y-9999541D01*
X12610839Y-10003350D01*
X12608934Y-10007160D01*
X12607030Y-10009064D01*
X12603220Y-10010969D01*
X12595601Y-10012874D01*
X12586077Y-10012874D01*
X12578458Y-10010969D01*
X12574649Y-10009064D01*
X12572744Y-10007160D01*
X12570839Y-10003350D01*
X12607030Y-9972874D02*
X12608934Y-9970969D01*
X12610839Y-9972874D01*
X12608934Y-9974779D01*
X12607030Y-9972874D01*
X12610839Y-9972874D01*
X12574649Y-9955731D02*
X12572744Y-9953826D01*
X12570839Y-9950017D01*
X12570839Y-9940493D01*
X12572744Y-9936683D01*
X12574649Y-9934779D01*
X12578458Y-9932874D01*
X12582268Y-9932874D01*
X12587982Y-9934779D01*
X12610839Y-9957636D01*
X12610839Y-9932874D01*
X12570839Y-9898588D02*
X12570839Y-9906207D01*
X12572744Y-9910017D01*
X12574649Y-9911922D01*
X12580363Y-9915731D01*
X12587982Y-9917636D01*
X12603220Y-9917636D01*
X12607030Y-9915731D01*
X12608934Y-9913826D01*
X12610839Y-9910017D01*
X12610839Y-9902398D01*
X12608934Y-9898588D01*
X12607030Y-9896683D01*
X12603220Y-9894779D01*
X12593696Y-9894779D01*
X12589887Y-9896683D01*
X12587982Y-9898588D01*
X12586077Y-9902398D01*
X12586077Y-9910017D01*
X12587982Y-9913826D01*
X12589887Y-9915731D01*
X12593696Y-9917636D01*
X12608653Y-9795171D02*
X12568653Y-9795171D01*
X12568653Y-9779933D01*
X12570558Y-9776124D01*
X12572463Y-9774219D01*
X12576272Y-9772314D01*
X12581986Y-9772314D01*
X12585796Y-9774219D01*
X12587701Y-9776124D01*
X12589606Y-9779933D01*
X12589606Y-9795171D01*
X12568653Y-9747552D02*
X12568653Y-9743743D01*
X12570558Y-9739933D01*
X12572463Y-9738028D01*
X12576272Y-9736124D01*
X12583891Y-9734219D01*
X12593415Y-9734219D01*
X12601034Y-9736124D01*
X12604844Y-9738028D01*
X12606748Y-9739933D01*
X12608653Y-9743743D01*
X12608653Y-9747552D01*
X12606748Y-9751362D01*
X12604844Y-9753266D01*
X12601034Y-9755171D01*
X12593415Y-9757076D01*
X12583891Y-9757076D01*
X12576272Y-9755171D01*
X12572463Y-9753266D01*
X12570558Y-9751362D01*
X12568653Y-9747552D01*
X12604844Y-9717076D02*
X12606748Y-9715171D01*
X12608653Y-9717076D01*
X12606748Y-9718981D01*
X12604844Y-9717076D01*
X12608653Y-9717076D01*
X12572463Y-9699933D02*
X12570558Y-9698028D01*
X12568653Y-9694219D01*
X12568653Y-9684695D01*
X12570558Y-9680885D01*
X12572463Y-9678981D01*
X12576272Y-9677076D01*
X12580082Y-9677076D01*
X12585796Y-9678981D01*
X12608653Y-9701838D01*
X12608653Y-9677076D01*
X12568653Y-9640885D02*
X12568653Y-9659933D01*
X12587701Y-9661838D01*
X12585796Y-9659933D01*
X12583891Y-9656124D01*
X12583891Y-9646600D01*
X12585796Y-9642790D01*
X12587701Y-9640885D01*
X12591510Y-9638981D01*
X12601034Y-9638981D01*
X12604844Y-9640885D01*
X12606748Y-9642790D01*
X12608653Y-9646600D01*
X12608653Y-9656124D01*
X12606748Y-9659933D01*
X12604844Y-9661838D01*
X13563200Y-11727329D02*
X13558552Y-11736909D01*
X13558722Y-11751194D01*
X13563654Y-11765422D01*
X13573290Y-11774832D01*
X13582870Y-11779480D01*
X13601973Y-11784015D01*
X13616258Y-11783845D01*
X13635247Y-11778856D01*
X13644714Y-11773982D01*
X13654123Y-11764345D01*
X13658715Y-11750004D01*
X13658602Y-11740480D01*
X13653670Y-11726252D01*
X13648852Y-11721548D01*
X13615521Y-11721944D01*
X13615747Y-11740991D01*
X13657865Y-11678580D02*
X13557872Y-11679770D01*
X13657184Y-11621441D01*
X13557191Y-11622632D01*
X13656618Y-11573826D02*
X13556625Y-11575016D01*
X13556341Y-11551208D01*
X13560933Y-11536867D01*
X13570342Y-11527230D01*
X13579809Y-11522355D01*
X13598799Y-11517367D01*
X13613083Y-11517197D01*
X13632186Y-11521732D01*
X13641766Y-11526380D01*
X13651403Y-11535790D01*
X13656334Y-11550018D01*
X13656618Y-11573826D01*
X13267232Y-11364048D02*
X13366828Y-11329527D01*
X13266439Y-11297386D01*
X13355831Y-11205839D02*
X13360650Y-11210544D01*
X13365581Y-11224772D01*
X13365695Y-11234295D01*
X13361103Y-11248637D01*
X13351693Y-11258273D01*
X13342227Y-11263148D01*
X13323237Y-11268137D01*
X13308953Y-11268307D01*
X13289850Y-11263772D01*
X13280270Y-11259124D01*
X13270633Y-11249714D01*
X13265702Y-11235486D01*
X13265588Y-11225963D01*
X13270180Y-11211621D01*
X13274885Y-11206803D01*
X13354641Y-11105847D02*
X13359459Y-11110551D01*
X13364391Y-11124779D01*
X13364504Y-11134303D01*
X13359913Y-11148644D01*
X13350503Y-11158281D01*
X13341037Y-11163155D01*
X13322047Y-11168144D01*
X13307762Y-11168314D01*
X13288659Y-11163779D01*
X13279080Y-11159131D01*
X13269443Y-11149721D01*
X13264511Y-11135493D01*
X13264398Y-11125970D01*
X13268990Y-11111628D01*
X13273695Y-11106810D01*
X13271752Y-11434347D02*
X13271752Y-11458157D01*
X13128895Y-11458157D01*
X13128895Y-11434347D01*
X13138419Y-11405776D02*
X13138419Y-11343871D01*
X13176514Y-11377205D01*
X13176514Y-11362919D01*
X13181276Y-11353395D01*
X13186038Y-11348633D01*
X13195562Y-11343871D01*
X13219371Y-11343871D01*
X13228895Y-11348633D01*
X13233657Y-11353395D01*
X13238419Y-11362919D01*
X13238419Y-11391490D01*
X13233657Y-11401014D01*
X13228895Y-11405776D01*
X13138419Y-11315300D02*
X13238419Y-11281967D01*
X13138419Y-11248633D01*
X13238419Y-11201014D02*
X13233657Y-11210538D01*
X13228895Y-11215300D01*
X13219371Y-11220062D01*
X13190800Y-11220062D01*
X13181276Y-11215300D01*
X13176514Y-11210538D01*
X13171752Y-11201014D01*
X13171752Y-11186728D01*
X13176514Y-11177205D01*
X13181276Y-11172443D01*
X13190800Y-11167681D01*
X13219371Y-11167681D01*
X13228895Y-11172443D01*
X13233657Y-11177205D01*
X13238419Y-11186728D01*
X13238419Y-11201014D01*
X13238419Y-11110538D02*
X13233657Y-11120062D01*
X13224133Y-11124824D01*
X13138419Y-11124824D01*
X13171752Y-11086729D02*
X13171752Y-11048633D01*
X13138419Y-11072443D02*
X13224133Y-11072443D01*
X13233657Y-11067681D01*
X13238419Y-11058157D01*
X13238419Y-11048633D01*
X13271752Y-11024824D02*
X13271752Y-11001014D01*
X13128895Y-11001014D01*
X13128895Y-11024824D01*
D17*
%TO.C,Cap_2*%
X14115181Y-9207919D02*
X14115181Y-9557919D01*
X14115181Y-9557919D02*
X13915181Y-9557919D01*
X13915181Y-9557919D02*
X13915181Y-9207919D01*
X13915181Y-9207919D02*
X14115181Y-9207919D01*
%TO.C,Cap_4*%
X13983181Y-8296419D02*
X14333181Y-8296419D01*
X14333181Y-8296419D02*
X14333181Y-8496419D01*
X14333181Y-8496419D02*
X13983181Y-8496419D01*
X13983181Y-8496419D02*
X13983181Y-8296419D01*
%TO.C,Cap_1*%
X13917181Y-8878919D02*
X13917181Y-8528919D01*
X13917181Y-8528919D02*
X14117181Y-8528919D01*
X14117181Y-8528919D02*
X14117181Y-8878919D01*
X14117181Y-8878919D02*
X13917181Y-8878919D01*
%TO.C,Cap_3*%
X13972681Y-8971419D02*
X14322681Y-8971419D01*
X14322681Y-8971419D02*
X14322681Y-9171419D01*
X14322681Y-9171419D02*
X13972681Y-9171419D01*
X13972681Y-9171419D02*
X13972681Y-8971419D01*
%TO.C,Cap_2*%
D10*
X14248105Y-9471685D02*
X14250486Y-9474066D01*
X14252867Y-9481209D01*
X14252867Y-9485971D01*
X14250486Y-9493114D01*
X14245724Y-9497876D01*
X14240962Y-9500256D01*
X14231438Y-9502637D01*
X14224296Y-9502637D01*
X14214772Y-9500256D01*
X14210010Y-9497876D01*
X14205248Y-9493114D01*
X14202867Y-9485971D01*
X14202867Y-9481209D01*
X14205248Y-9474066D01*
X14207629Y-9471685D01*
X14252867Y-9428828D02*
X14226676Y-9428828D01*
X14221915Y-9431209D01*
X14219534Y-9435971D01*
X14219534Y-9445495D01*
X14221915Y-9450256D01*
X14250486Y-9428828D02*
X14252867Y-9433590D01*
X14252867Y-9445495D01*
X14250486Y-9450256D01*
X14245724Y-9452637D01*
X14240962Y-9452637D01*
X14236200Y-9450256D01*
X14233819Y-9445495D01*
X14233819Y-9433590D01*
X14231438Y-9428828D01*
X14219534Y-9405018D02*
X14269534Y-9405018D01*
X14221915Y-9405018D02*
X14219534Y-9400256D01*
X14219534Y-9390733D01*
X14221915Y-9385971D01*
X14224296Y-9383590D01*
X14229057Y-9381209D01*
X14243343Y-9381209D01*
X14248105Y-9383590D01*
X14250486Y-9385971D01*
X14252867Y-9390733D01*
X14252867Y-9400256D01*
X14250486Y-9405018D01*
X14257629Y-9371685D02*
X14257629Y-9333590D01*
X14207629Y-9324066D02*
X14205248Y-9321685D01*
X14202867Y-9316923D01*
X14202867Y-9305018D01*
X14205248Y-9300256D01*
X14207629Y-9297876D01*
X14212391Y-9295495D01*
X14217153Y-9295495D01*
X14224296Y-9297876D01*
X14252867Y-9326447D01*
X14252867Y-9295495D01*
%TO.C,Cap_4*%
X14382419Y-8405749D02*
X14380038Y-8408130D01*
X14372895Y-8410511D01*
X14368133Y-8410511D01*
X14360990Y-8408130D01*
X14356228Y-8403368D01*
X14353847Y-8398606D01*
X14351466Y-8389082D01*
X14351466Y-8381940D01*
X14353847Y-8372416D01*
X14356228Y-8367654D01*
X14360990Y-8362892D01*
X14368133Y-8360511D01*
X14372895Y-8360511D01*
X14380038Y-8362892D01*
X14382419Y-8365273D01*
X14425276Y-8410511D02*
X14425276Y-8384320D01*
X14422895Y-8379559D01*
X14418133Y-8377178D01*
X14408609Y-8377178D01*
X14403847Y-8379559D01*
X14425276Y-8408130D02*
X14420514Y-8410511D01*
X14408609Y-8410511D01*
X14403847Y-8408130D01*
X14401466Y-8403368D01*
X14401466Y-8398606D01*
X14403847Y-8393844D01*
X14408609Y-8391463D01*
X14420514Y-8391463D01*
X14425276Y-8389082D01*
X14449086Y-8377178D02*
X14449086Y-8427178D01*
X14449086Y-8379559D02*
X14453847Y-8377178D01*
X14463371Y-8377178D01*
X14468133Y-8379559D01*
X14470514Y-8381940D01*
X14472895Y-8386701D01*
X14472895Y-8400987D01*
X14470514Y-8405749D01*
X14468133Y-8408130D01*
X14463371Y-8410511D01*
X14453847Y-8410511D01*
X14449086Y-8408130D01*
X14482419Y-8415273D02*
X14520514Y-8415273D01*
X14553847Y-8377178D02*
X14553847Y-8410511D01*
X14541943Y-8358130D02*
X14530038Y-8393844D01*
X14560990Y-8393844D01*
%TO.C,Cap_1*%
X13778713Y-8763025D02*
X13781094Y-8765406D01*
X13783475Y-8772549D01*
X13783475Y-8777311D01*
X13781094Y-8784454D01*
X13776332Y-8789216D01*
X13771570Y-8791596D01*
X13762046Y-8793977D01*
X13754904Y-8793977D01*
X13745380Y-8791596D01*
X13740618Y-8789216D01*
X13735856Y-8784454D01*
X13733475Y-8777311D01*
X13733475Y-8772549D01*
X13735856Y-8765406D01*
X13738237Y-8763025D01*
X13783475Y-8720168D02*
X13757284Y-8720168D01*
X13752523Y-8722549D01*
X13750142Y-8727311D01*
X13750142Y-8736835D01*
X13752523Y-8741596D01*
X13781094Y-8720168D02*
X13783475Y-8724930D01*
X13783475Y-8736835D01*
X13781094Y-8741596D01*
X13776332Y-8743977D01*
X13771570Y-8743977D01*
X13766808Y-8741596D01*
X13764427Y-8736835D01*
X13764427Y-8724930D01*
X13762046Y-8720168D01*
X13750142Y-8696358D02*
X13800142Y-8696358D01*
X13752523Y-8696358D02*
X13750142Y-8691596D01*
X13750142Y-8682073D01*
X13752523Y-8677311D01*
X13754904Y-8674930D01*
X13759665Y-8672549D01*
X13773951Y-8672549D01*
X13778713Y-8674930D01*
X13781094Y-8677311D01*
X13783475Y-8682073D01*
X13783475Y-8691596D01*
X13781094Y-8696358D01*
X13788237Y-8663025D02*
X13788237Y-8624930D01*
X13783475Y-8586835D02*
X13783475Y-8615406D01*
X13783475Y-8601120D02*
X13733475Y-8601120D01*
X13740618Y-8605882D01*
X13745380Y-8610644D01*
X13747761Y-8615406D01*
%TO.C,Cap_3*%
X14381149Y-9085961D02*
X14378768Y-9088342D01*
X14371625Y-9090723D01*
X14366863Y-9090723D01*
X14359720Y-9088342D01*
X14354958Y-9083580D01*
X14352577Y-9078818D01*
X14350196Y-9069294D01*
X14350196Y-9062152D01*
X14352577Y-9052628D01*
X14354958Y-9047866D01*
X14359720Y-9043104D01*
X14366863Y-9040723D01*
X14371625Y-9040723D01*
X14378768Y-9043104D01*
X14381149Y-9045485D01*
X14424006Y-9090723D02*
X14424006Y-9064533D01*
X14421625Y-9059771D01*
X14416863Y-9057390D01*
X14407339Y-9057390D01*
X14402577Y-9059771D01*
X14424006Y-9088342D02*
X14419244Y-9090723D01*
X14407339Y-9090723D01*
X14402577Y-9088342D01*
X14400196Y-9083580D01*
X14400196Y-9078818D01*
X14402577Y-9074056D01*
X14407339Y-9071675D01*
X14419244Y-9071675D01*
X14424006Y-9069294D01*
X14447816Y-9057390D02*
X14447816Y-9107390D01*
X14447816Y-9059771D02*
X14452577Y-9057390D01*
X14462101Y-9057390D01*
X14466863Y-9059771D01*
X14469244Y-9062152D01*
X14471625Y-9066914D01*
X14471625Y-9081199D01*
X14469244Y-9085961D01*
X14466863Y-9088342D01*
X14462101Y-9090723D01*
X14452577Y-9090723D01*
X14447816Y-9088342D01*
X14481149Y-9095485D02*
X14519244Y-9095485D01*
X14526387Y-9040723D02*
X14557339Y-9040723D01*
X14540673Y-9059771D01*
X14547816Y-9059771D01*
X14552577Y-9062152D01*
X14554958Y-9064533D01*
X14557339Y-9069294D01*
X14557339Y-9081199D01*
X14554958Y-9085961D01*
X14552577Y-9088342D01*
X14547816Y-9090723D01*
X14533530Y-9090723D01*
X14528768Y-9088342D01*
X14526387Y-9085961D01*
%TO.C,U102*%
X14188800Y-10017133D02*
X14229276Y-10017133D01*
X14234038Y-10014752D01*
X14236419Y-10012371D01*
X14238800Y-10007609D01*
X14238800Y-9998086D01*
X14236419Y-9993324D01*
X14234038Y-9990943D01*
X14229276Y-9988562D01*
X14188800Y-9988562D01*
X14238800Y-9938562D02*
X14238800Y-9967133D01*
X14238800Y-9952848D02*
X14188800Y-9952848D01*
X14195943Y-9957609D01*
X14200705Y-9962371D01*
X14203086Y-9967133D01*
X14188800Y-9907609D02*
X14188800Y-9902848D01*
X14191181Y-9898086D01*
X14193562Y-9895705D01*
X14198324Y-9893324D01*
X14207848Y-9890943D01*
X14219752Y-9890943D01*
X14229276Y-9893324D01*
X14234038Y-9895705D01*
X14236419Y-9898086D01*
X14238800Y-9902848D01*
X14238800Y-9907609D01*
X14236419Y-9912371D01*
X14234038Y-9914752D01*
X14229276Y-9917133D01*
X14219752Y-9919514D01*
X14207848Y-9919514D01*
X14198324Y-9917133D01*
X14193562Y-9914752D01*
X14191181Y-9912371D01*
X14188800Y-9907609D01*
X14193562Y-9871895D02*
X14191181Y-9869514D01*
X14188800Y-9864752D01*
X14188800Y-9852848D01*
X14191181Y-9848086D01*
X14193562Y-9845705D01*
X14198324Y-9843324D01*
X14203086Y-9843324D01*
X14210229Y-9845705D01*
X14238800Y-9874276D01*
X14238800Y-9843324D01*
%TO.C,U26*%
X13340800Y-11755324D02*
X13381276Y-11755324D01*
X13386038Y-11752943D01*
X13388419Y-11750562D01*
X13390800Y-11745800D01*
X13390800Y-11736276D01*
X13388419Y-11731514D01*
X13386038Y-11729133D01*
X13381276Y-11726752D01*
X13340800Y-11726752D01*
X13345562Y-11705324D02*
X13343181Y-11702943D01*
X13340800Y-11698181D01*
X13340800Y-11686276D01*
X13343181Y-11681514D01*
X13345562Y-11679133D01*
X13350324Y-11676752D01*
X13355086Y-11676752D01*
X13362229Y-11679133D01*
X13390800Y-11707705D01*
X13390800Y-11676752D01*
X13340800Y-11633895D02*
X13340800Y-11643419D01*
X13343181Y-11648181D01*
X13345562Y-11650562D01*
X13352705Y-11655324D01*
X13362229Y-11657705D01*
X13381276Y-11657705D01*
X13386038Y-11655324D01*
X13388419Y-11652943D01*
X13390800Y-11648181D01*
X13390800Y-11638657D01*
X13388419Y-11633895D01*
X13386038Y-11631514D01*
X13381276Y-11629133D01*
X13369371Y-11629133D01*
X13364609Y-11631514D01*
X13362229Y-11633895D01*
X13359848Y-11638657D01*
X13359848Y-11648181D01*
X13362229Y-11652943D01*
X13364609Y-11655324D01*
X13369371Y-11657705D01*
%TO.C,U8*%
X12918800Y-10991514D02*
X12959276Y-10991514D01*
X12964038Y-10989133D01*
X12966419Y-10986752D01*
X12968800Y-10981990D01*
X12968800Y-10972467D01*
X12966419Y-10967705D01*
X12964038Y-10965324D01*
X12959276Y-10962943D01*
X12918800Y-10962943D01*
X12940229Y-10931990D02*
X12937848Y-10936752D01*
X12935467Y-10939133D01*
X12930705Y-10941514D01*
X12928324Y-10941514D01*
X12923562Y-10939133D01*
X12921181Y-10936752D01*
X12918800Y-10931990D01*
X12918800Y-10922467D01*
X12921181Y-10917705D01*
X12923562Y-10915324D01*
X12928324Y-10912943D01*
X12930705Y-10912943D01*
X12935467Y-10915324D01*
X12937848Y-10917705D01*
X12940229Y-10922467D01*
X12940229Y-10931990D01*
X12942609Y-10936752D01*
X12944990Y-10939133D01*
X12949752Y-10941514D01*
X12959276Y-10941514D01*
X12964038Y-10939133D01*
X12966419Y-10936752D01*
X12968800Y-10931990D01*
X12968800Y-10922467D01*
X12966419Y-10917705D01*
X12964038Y-10915324D01*
X12959276Y-10912943D01*
X12949752Y-10912943D01*
X12944990Y-10915324D01*
X12942609Y-10917705D01*
X12940229Y-10922467D01*
%TO.C,U1*%
D17*
X13869562Y-10613939D02*
X13992933Y-10613939D01*
X14007447Y-10606682D01*
X14014705Y-10599425D01*
X14021962Y-10584911D01*
X14021962Y-10555882D01*
X14014705Y-10541368D01*
X14007447Y-10534111D01*
X13992933Y-10526854D01*
X13869562Y-10526854D01*
X14021962Y-10374454D02*
X14021962Y-10461539D01*
X14021962Y-10417996D02*
X13869562Y-10417996D01*
X13891333Y-10432511D01*
X13905847Y-10447025D01*
X13913105Y-10461539D01*
X14021962Y-16227339D02*
X13869562Y-16227339D01*
X13978419Y-16176539D01*
X13869562Y-16125739D01*
X14021962Y-16125739D01*
X13920362Y-15987853D02*
X14021962Y-15987853D01*
X13920362Y-16053168D02*
X14000190Y-16053168D01*
X14014705Y-16045911D01*
X14021962Y-16031396D01*
X14021962Y-16009625D01*
X14014705Y-15995111D01*
X14007447Y-15987853D01*
X14021962Y-15893511D02*
X14014705Y-15908025D01*
X14000190Y-15915282D01*
X13869562Y-15915282D01*
X13920362Y-15857225D02*
X13920362Y-15799168D01*
X13869562Y-15835453D02*
X14000190Y-15835453D01*
X14014705Y-15828196D01*
X14021962Y-15813682D01*
X14021962Y-15799168D01*
X14021962Y-15748368D02*
X13920362Y-15748368D01*
X13869562Y-15748368D02*
X13876819Y-15755625D01*
X13884076Y-15748368D01*
X13876819Y-15741111D01*
X13869562Y-15748368D01*
X13884076Y-15748368D01*
X13963905Y-15675796D02*
X13963905Y-15559682D01*
X13920362Y-15487111D02*
X14072762Y-15487111D01*
X13927619Y-15487111D02*
X13920362Y-15472596D01*
X13920362Y-15443568D01*
X13927619Y-15429053D01*
X13934876Y-15421796D01*
X13949390Y-15414539D01*
X13992933Y-15414539D01*
X14007447Y-15421796D01*
X14014705Y-15429053D01*
X14021962Y-15443568D01*
X14021962Y-15472596D01*
X14014705Y-15487111D01*
X14021962Y-15349225D02*
X13920362Y-15349225D01*
X13949390Y-15349225D02*
X13934876Y-15341968D01*
X13927619Y-15334711D01*
X13920362Y-15320196D01*
X13920362Y-15305682D01*
X14021962Y-15233111D02*
X14014705Y-15247625D01*
X14007447Y-15254882D01*
X13992933Y-15262139D01*
X13949390Y-15262139D01*
X13934876Y-15254882D01*
X13927619Y-15247625D01*
X13920362Y-15233111D01*
X13920362Y-15211339D01*
X13927619Y-15196825D01*
X13934876Y-15189568D01*
X13949390Y-15182311D01*
X13992933Y-15182311D01*
X14007447Y-15189568D01*
X14014705Y-15196825D01*
X14021962Y-15211339D01*
X14021962Y-15233111D01*
X13920362Y-15138768D02*
X13920362Y-15080711D01*
X13869562Y-15116996D02*
X14000190Y-15116996D01*
X14014705Y-15109739D01*
X14021962Y-15095225D01*
X14021962Y-15080711D01*
X14021962Y-15008139D02*
X14014705Y-15022653D01*
X14007447Y-15029911D01*
X13992933Y-15037168D01*
X13949390Y-15037168D01*
X13934876Y-15029911D01*
X13927619Y-15022653D01*
X13920362Y-15008139D01*
X13920362Y-14986368D01*
X13927619Y-14971853D01*
X13934876Y-14964596D01*
X13949390Y-14957339D01*
X13992933Y-14957339D01*
X14007447Y-14964596D01*
X14014705Y-14971853D01*
X14021962Y-14986368D01*
X14021962Y-15008139D01*
X14014705Y-14826711D02*
X14021962Y-14841225D01*
X14021962Y-14870253D01*
X14014705Y-14884768D01*
X14007447Y-14892025D01*
X13992933Y-14899282D01*
X13949390Y-14899282D01*
X13934876Y-14892025D01*
X13927619Y-14884768D01*
X13920362Y-14870253D01*
X13920362Y-14841225D01*
X13927619Y-14826711D01*
X14021962Y-14739625D02*
X14014705Y-14754139D01*
X14007447Y-14761396D01*
X13992933Y-14768653D01*
X13949390Y-14768653D01*
X13934876Y-14761396D01*
X13927619Y-14754139D01*
X13920362Y-14739625D01*
X13920362Y-14717853D01*
X13927619Y-14703339D01*
X13934876Y-14696082D01*
X13949390Y-14688825D01*
X13992933Y-14688825D01*
X14007447Y-14696082D01*
X14014705Y-14703339D01*
X14021962Y-14717853D01*
X14021962Y-14739625D01*
X14021962Y-14601739D02*
X14014705Y-14616253D01*
X14000190Y-14623511D01*
X13869562Y-14623511D01*
X13942133Y-14376768D02*
X13949390Y-14354996D01*
X13956647Y-14347739D01*
X13971162Y-14340482D01*
X13992933Y-14340482D01*
X14007447Y-14347739D01*
X14014705Y-14354996D01*
X14021962Y-14369511D01*
X14021962Y-14427568D01*
X13869562Y-14427568D01*
X13869562Y-14376768D01*
X13876819Y-14362253D01*
X13884076Y-14354996D01*
X13898590Y-14347739D01*
X13913105Y-14347739D01*
X13927619Y-14354996D01*
X13934876Y-14362253D01*
X13942133Y-14376768D01*
X13942133Y-14427568D01*
X14021962Y-14253396D02*
X14014705Y-14267911D01*
X14000190Y-14275168D01*
X13869562Y-14275168D01*
X13920362Y-14130025D02*
X14021962Y-14130025D01*
X13920362Y-14195339D02*
X14000190Y-14195339D01*
X14014705Y-14188082D01*
X14021962Y-14173568D01*
X14021962Y-14151796D01*
X14014705Y-14137282D01*
X14007447Y-14130025D01*
X14014705Y-13999396D02*
X14021962Y-14013911D01*
X14021962Y-14042939D01*
X14014705Y-14057453D01*
X14000190Y-14064711D01*
X13942133Y-14064711D01*
X13927619Y-14057453D01*
X13920362Y-14042939D01*
X13920362Y-14013911D01*
X13927619Y-13999396D01*
X13942133Y-13992139D01*
X13956647Y-13992139D01*
X13971162Y-14064711D01*
X13920362Y-13948596D02*
X13920362Y-13890539D01*
X13869562Y-13926825D02*
X14000190Y-13926825D01*
X14014705Y-13919568D01*
X14021962Y-13905053D01*
X14021962Y-13890539D01*
X14021962Y-13817968D02*
X14014705Y-13832482D01*
X14007447Y-13839739D01*
X13992933Y-13846996D01*
X13949390Y-13846996D01*
X13934876Y-13839739D01*
X13927619Y-13832482D01*
X13920362Y-13817968D01*
X13920362Y-13796196D01*
X13927619Y-13781682D01*
X13934876Y-13774425D01*
X13949390Y-13767168D01*
X13992933Y-13767168D01*
X14007447Y-13774425D01*
X14014705Y-13781682D01*
X14021962Y-13796196D01*
X14021962Y-13817968D01*
X14021962Y-13680082D02*
X14014705Y-13694596D01*
X14007447Y-13701853D01*
X13992933Y-13709111D01*
X13949390Y-13709111D01*
X13934876Y-13701853D01*
X13927619Y-13694596D01*
X13920362Y-13680082D01*
X13920362Y-13658311D01*
X13927619Y-13643796D01*
X13934876Y-13636539D01*
X13949390Y-13629282D01*
X13992933Y-13629282D01*
X14007447Y-13636539D01*
X14014705Y-13643796D01*
X14021962Y-13658311D01*
X14021962Y-13680082D01*
X13920362Y-13585739D02*
X13920362Y-13527682D01*
X13869562Y-13563968D02*
X14000190Y-13563968D01*
X14014705Y-13556711D01*
X14021962Y-13542196D01*
X14021962Y-13527682D01*
X14021962Y-13476882D02*
X13869562Y-13476882D01*
X14021962Y-13411568D02*
X13942133Y-13411568D01*
X13927619Y-13418825D01*
X13920362Y-13433339D01*
X13920362Y-13455111D01*
X13927619Y-13469625D01*
X13934876Y-13476882D01*
X14021962Y-13150311D02*
X14021962Y-13222882D01*
X13869562Y-13222882D01*
X14021962Y-13077739D02*
X14014705Y-13092253D01*
X14007447Y-13099511D01*
X13992933Y-13106768D01*
X13949390Y-13106768D01*
X13934876Y-13099511D01*
X13927619Y-13092253D01*
X13920362Y-13077739D01*
X13920362Y-13055968D01*
X13927619Y-13041453D01*
X13934876Y-13034196D01*
X13949390Y-13026939D01*
X13992933Y-13026939D01*
X14007447Y-13034196D01*
X14014705Y-13041453D01*
X14021962Y-13055968D01*
X14021962Y-13077739D01*
X13920362Y-12976139D02*
X14021962Y-12947111D01*
X13949390Y-12918082D01*
X14021962Y-12889053D01*
X13920362Y-12860025D01*
X13942133Y-12685853D02*
X13942133Y-12635053D01*
X14021962Y-12613282D02*
X14021962Y-12685853D01*
X13869562Y-12685853D01*
X13869562Y-12613282D01*
X13920362Y-12547968D02*
X14021962Y-12547968D01*
X13934876Y-12547968D02*
X13927619Y-12540711D01*
X13920362Y-12526196D01*
X13920362Y-12504425D01*
X13927619Y-12489911D01*
X13942133Y-12482653D01*
X14021962Y-12482653D01*
X14014705Y-12352025D02*
X14021962Y-12366539D01*
X14021962Y-12395568D01*
X14014705Y-12410082D01*
X14000190Y-12417339D01*
X13942133Y-12417339D01*
X13927619Y-12410082D01*
X13920362Y-12395568D01*
X13920362Y-12366539D01*
X13927619Y-12352025D01*
X13942133Y-12344768D01*
X13956647Y-12344768D01*
X13971162Y-12417339D01*
X14021962Y-12279453D02*
X13920362Y-12279453D01*
X13949390Y-12279453D02*
X13934876Y-12272196D01*
X13927619Y-12264939D01*
X13920362Y-12250425D01*
X13920362Y-12235911D01*
X13920362Y-12119796D02*
X14043733Y-12119796D01*
X14058247Y-12127053D01*
X14065505Y-12134311D01*
X14072762Y-12148825D01*
X14072762Y-12170596D01*
X14065505Y-12185111D01*
X14014705Y-12119796D02*
X14021962Y-12134311D01*
X14021962Y-12163339D01*
X14014705Y-12177853D01*
X14007447Y-12185111D01*
X13992933Y-12192368D01*
X13949390Y-12192368D01*
X13934876Y-12185111D01*
X13927619Y-12177853D01*
X13920362Y-12163339D01*
X13920362Y-12134311D01*
X13927619Y-12119796D01*
X13920362Y-12061739D02*
X14021962Y-12025453D01*
X13920362Y-11989168D02*
X14021962Y-12025453D01*
X14058247Y-12039968D01*
X14065505Y-12047225D01*
X14072762Y-12061739D01*
X14014705Y-11923853D02*
X14021962Y-11923853D01*
X14036476Y-11931111D01*
X14043733Y-11938368D01*
X14021962Y-11742425D02*
X13869562Y-11742425D01*
X13942133Y-11669853D02*
X13942133Y-11619053D01*
X14021962Y-11597282D02*
X14021962Y-11669853D01*
X13869562Y-11669853D01*
X13869562Y-11597282D01*
X13942133Y-11531968D02*
X13942133Y-11481168D01*
X14021962Y-11459396D02*
X14021962Y-11531968D01*
X13869562Y-11531968D01*
X13869562Y-11459396D01*
X13942133Y-11394082D02*
X13942133Y-11343282D01*
X14021962Y-11321511D02*
X14021962Y-11394082D01*
X13869562Y-11394082D01*
X13869562Y-11321511D01*
X13934876Y-11118311D02*
X13927619Y-11132825D01*
X13920362Y-11140082D01*
X13905847Y-11147339D01*
X13898590Y-11147339D01*
X13884076Y-11140082D01*
X13876819Y-11132825D01*
X13869562Y-11118311D01*
X13869562Y-11089282D01*
X13876819Y-11074768D01*
X13884076Y-11067511D01*
X13898590Y-11060254D01*
X13905847Y-11060254D01*
X13920362Y-11067511D01*
X13927619Y-11074768D01*
X13934876Y-11089282D01*
X13934876Y-11118311D01*
X13942133Y-11132825D01*
X13949390Y-11140082D01*
X13963905Y-11147339D01*
X13992933Y-11147339D01*
X14007447Y-11140082D01*
X14014705Y-11132825D01*
X14021962Y-11118311D01*
X14021962Y-11089282D01*
X14014705Y-11074768D01*
X14007447Y-11067511D01*
X13992933Y-11060254D01*
X13963905Y-11060254D01*
X13949390Y-11067511D01*
X13942133Y-11074768D01*
X13934876Y-11089282D01*
X13869562Y-10965911D02*
X13869562Y-10951396D01*
X13876819Y-10936882D01*
X13884076Y-10929625D01*
X13898590Y-10922368D01*
X13927619Y-10915111D01*
X13963905Y-10915111D01*
X13992933Y-10922368D01*
X14007447Y-10929625D01*
X14014705Y-10936882D01*
X14021962Y-10951396D01*
X14021962Y-10965911D01*
X14014705Y-10980425D01*
X14007447Y-10987682D01*
X13992933Y-10994939D01*
X13963905Y-11002196D01*
X13927619Y-11002196D01*
X13898590Y-10994939D01*
X13884076Y-10987682D01*
X13876819Y-10980425D01*
X13869562Y-10965911D01*
X13884076Y-10857054D02*
X13876819Y-10849796D01*
X13869562Y-10835282D01*
X13869562Y-10798996D01*
X13876819Y-10784482D01*
X13884076Y-10777225D01*
X13898590Y-10769968D01*
X13913105Y-10769968D01*
X13934876Y-10777225D01*
X14021962Y-10864311D01*
X14021962Y-10769968D01*
X14007447Y-10704654D02*
X14014705Y-10697396D01*
X14021962Y-10704654D01*
X14014705Y-10711911D01*
X14007447Y-10704654D01*
X14021962Y-10704654D01*
X14021962Y-10552254D02*
X14021962Y-10639339D01*
X14021962Y-10595796D02*
X13869562Y-10595796D01*
X13891333Y-10610311D01*
X13905847Y-10624825D01*
X13913105Y-10639339D01*
X13869562Y-10414368D02*
X13869562Y-10486939D01*
X13942133Y-10494196D01*
X13934876Y-10486939D01*
X13927619Y-10472425D01*
X13927619Y-10436139D01*
X13934876Y-10421625D01*
X13942133Y-10414368D01*
X13956647Y-10407111D01*
X13992933Y-10407111D01*
X14007447Y-10414368D01*
X14014705Y-10421625D01*
X14021962Y-10436139D01*
X14021962Y-10472425D01*
X14014705Y-10486939D01*
X14007447Y-10494196D01*
X14007447Y-10341796D02*
X14014705Y-10334539D01*
X14021962Y-10341796D01*
X14014705Y-10349054D01*
X14007447Y-10341796D01*
X14021962Y-10341796D01*
X13920362Y-10203911D02*
X14021962Y-10203911D01*
X13862305Y-10240196D02*
X13971162Y-10276482D01*
X13971162Y-10182139D01*
X14014705Y-10116825D02*
X14021962Y-10116825D01*
X14036476Y-10124082D01*
X14043733Y-10131339D01*
X13978419Y-9942654D02*
X13978419Y-9870082D01*
X14021962Y-9957168D02*
X13869562Y-9906368D01*
X14021962Y-9855568D01*
X14021962Y-9804768D02*
X13869562Y-9804768D01*
X14021962Y-9717682D01*
X13869562Y-9717682D01*
X13869562Y-9666882D02*
X13869562Y-9579796D01*
X14021962Y-9623339D02*
X13869562Y-9623339D01*
X14021962Y-9347568D02*
X13942133Y-9347568D01*
X13927619Y-9354825D01*
X13920362Y-9369339D01*
X13920362Y-9398368D01*
X13927619Y-9412882D01*
X14014705Y-9347568D02*
X14021962Y-9362082D01*
X14021962Y-9398368D01*
X14014705Y-9412882D01*
X14000190Y-9420139D01*
X13985676Y-9420139D01*
X13971162Y-9412882D01*
X13963905Y-9398368D01*
X13963905Y-9362082D01*
X13956647Y-9347568D01*
X13920362Y-9274996D02*
X14021962Y-9274996D01*
X13934876Y-9274996D02*
X13927619Y-9267739D01*
X13920362Y-9253225D01*
X13920362Y-9231454D01*
X13927619Y-9216939D01*
X13942133Y-9209682D01*
X14021962Y-9209682D01*
X14021962Y-9071796D02*
X13869562Y-9071796D01*
X14014705Y-9071796D02*
X14021962Y-9086311D01*
X14021962Y-9115339D01*
X14014705Y-9129854D01*
X14007447Y-9137111D01*
X13992933Y-9144368D01*
X13949390Y-9144368D01*
X13934876Y-9137111D01*
X13927619Y-9129854D01*
X13920362Y-9115339D01*
X13920362Y-9086311D01*
X13927619Y-9071796D01*
X13884076Y-8890368D02*
X13876819Y-8883111D01*
X13869562Y-8868596D01*
X13869562Y-8832311D01*
X13876819Y-8817796D01*
X13884076Y-8810539D01*
X13898590Y-8803282D01*
X13913105Y-8803282D01*
X13934876Y-8810539D01*
X14021962Y-8897625D01*
X14021962Y-8803282D01*
X14007447Y-8737968D02*
X14014705Y-8730711D01*
X14021962Y-8737968D01*
X14014705Y-8745225D01*
X14007447Y-8737968D01*
X14021962Y-8737968D01*
X13920362Y-8600082D02*
X14021962Y-8600082D01*
X13862305Y-8636368D02*
X13971162Y-8672654D01*
X13971162Y-8578311D01*
X13876819Y-8440425D02*
X13869562Y-8454939D01*
X13869562Y-8476711D01*
X13876819Y-8498482D01*
X13891333Y-8512996D01*
X13905847Y-8520254D01*
X13934876Y-8527511D01*
X13956647Y-8527511D01*
X13985676Y-8520254D01*
X14000190Y-8512996D01*
X14014705Y-8498482D01*
X14021962Y-8476711D01*
X14021962Y-8462196D01*
X14014705Y-8440425D01*
X14007447Y-8433168D01*
X13956647Y-8433168D01*
X13956647Y-8462196D01*
X14021962Y-8367853D02*
X13869562Y-8367853D01*
X13942133Y-8367853D02*
X13942133Y-8280768D01*
X14021962Y-8280768D02*
X13869562Y-8280768D01*
X13920362Y-8222711D02*
X13920362Y-8142882D01*
X14021962Y-8222711D01*
X14021962Y-8142882D01*
X13920362Y-7968711D02*
X14072762Y-7968711D01*
X13927619Y-7968711D02*
X13920362Y-7954196D01*
X13920362Y-7925168D01*
X13927619Y-7910653D01*
X13934876Y-7903396D01*
X13949390Y-7896139D01*
X13992933Y-7896139D01*
X14007447Y-7903396D01*
X14014705Y-7910653D01*
X14021962Y-7925168D01*
X14021962Y-7954196D01*
X14014705Y-7968711D01*
X14021962Y-7830825D02*
X13920362Y-7830825D01*
X13949390Y-7830825D02*
X13934876Y-7823568D01*
X13927619Y-7816311D01*
X13920362Y-7801796D01*
X13920362Y-7787282D01*
X14021962Y-7714711D02*
X14014705Y-7729225D01*
X14007447Y-7736482D01*
X13992933Y-7743739D01*
X13949390Y-7743739D01*
X13934876Y-7736482D01*
X13927619Y-7729225D01*
X13920362Y-7714711D01*
X13920362Y-7692939D01*
X13927619Y-7678425D01*
X13934876Y-7671168D01*
X13949390Y-7663911D01*
X13992933Y-7663911D01*
X14007447Y-7671168D01*
X14014705Y-7678425D01*
X14021962Y-7692939D01*
X14021962Y-7714711D01*
X13920362Y-7598596D02*
X14072762Y-7598596D01*
X13927619Y-7598596D02*
X13920362Y-7584082D01*
X13920362Y-7555053D01*
X13927619Y-7540539D01*
X13934876Y-7533282D01*
X13949390Y-7526025D01*
X13992933Y-7526025D01*
X14007447Y-7533282D01*
X14014705Y-7540539D01*
X14021962Y-7555053D01*
X14021962Y-7584082D01*
X14014705Y-7598596D01*
X14021962Y-7460711D02*
X13920362Y-7460711D01*
X13949390Y-7460711D02*
X13934876Y-7453453D01*
X13927619Y-7446196D01*
X13920362Y-7431682D01*
X13920362Y-7417168D01*
X14021962Y-7366368D02*
X13920362Y-7366368D01*
X13869562Y-7366368D02*
X13876819Y-7373625D01*
X13884076Y-7366368D01*
X13876819Y-7359111D01*
X13869562Y-7366368D01*
X13884076Y-7366368D01*
X14014705Y-7235739D02*
X14021962Y-7250253D01*
X14021962Y-7279282D01*
X14014705Y-7293796D01*
X14000190Y-7301053D01*
X13942133Y-7301053D01*
X13927619Y-7293796D01*
X13920362Y-7279282D01*
X13920362Y-7250253D01*
X13927619Y-7235739D01*
X13942133Y-7228482D01*
X13956647Y-7228482D01*
X13971162Y-7301053D01*
X13920362Y-7184939D02*
X13920362Y-7126882D01*
X13869562Y-7163168D02*
X14000190Y-7163168D01*
X14014705Y-7155911D01*
X14021962Y-7141396D01*
X14021962Y-7126882D01*
X14021962Y-7010768D02*
X13942133Y-7010768D01*
X13927619Y-7018025D01*
X13920362Y-7032539D01*
X13920362Y-7061568D01*
X13927619Y-7076082D01*
X14014705Y-7010768D02*
X14021962Y-7025282D01*
X14021962Y-7061568D01*
X14014705Y-7076082D01*
X14000190Y-7083339D01*
X13985676Y-7083339D01*
X13971162Y-7076082D01*
X13963905Y-7061568D01*
X13963905Y-7025282D01*
X13956647Y-7010768D01*
X14021962Y-6938196D02*
X13920362Y-6938196D01*
X13949390Y-6938196D02*
X13934876Y-6930939D01*
X13927619Y-6923682D01*
X13920362Y-6909168D01*
X13920362Y-6894653D01*
X13920362Y-6858368D02*
X14021962Y-6822082D01*
X13920362Y-6785796D02*
X14021962Y-6822082D01*
X14058247Y-6836596D01*
X14065505Y-6843853D01*
X14072762Y-6858368D01*
X14014705Y-6618882D02*
X14021962Y-6604368D01*
X14021962Y-6575339D01*
X14014705Y-6560825D01*
X14000190Y-6553568D01*
X13992933Y-6553568D01*
X13978419Y-6560825D01*
X13971162Y-6575339D01*
X13971162Y-6597111D01*
X13963905Y-6611625D01*
X13949390Y-6618882D01*
X13942133Y-6618882D01*
X13927619Y-6611625D01*
X13920362Y-6597111D01*
X13920362Y-6575339D01*
X13927619Y-6560825D01*
X13920362Y-6502768D02*
X14021962Y-6466482D01*
X13920362Y-6430196D02*
X14021962Y-6466482D01*
X14058247Y-6480996D01*
X14065505Y-6488253D01*
X14072762Y-6502768D01*
X14014705Y-6379396D02*
X14021962Y-6364882D01*
X14021962Y-6335853D01*
X14014705Y-6321339D01*
X14000190Y-6314082D01*
X13992933Y-6314082D01*
X13978419Y-6321339D01*
X13971162Y-6335853D01*
X13971162Y-6357625D01*
X13963905Y-6372139D01*
X13949390Y-6379396D01*
X13942133Y-6379396D01*
X13927619Y-6372139D01*
X13920362Y-6357625D01*
X13920362Y-6335853D01*
X13927619Y-6321339D01*
X13920362Y-6270539D02*
X13920362Y-6212482D01*
X13869562Y-6248768D02*
X14000190Y-6248768D01*
X14014705Y-6241511D01*
X14021962Y-6226996D01*
X14021962Y-6212482D01*
X14014705Y-6103625D02*
X14021962Y-6118139D01*
X14021962Y-6147168D01*
X14014705Y-6161682D01*
X14000190Y-6168939D01*
X13942133Y-6168939D01*
X13927619Y-6161682D01*
X13920362Y-6147168D01*
X13920362Y-6118139D01*
X13927619Y-6103625D01*
X13942133Y-6096368D01*
X13956647Y-6096368D01*
X13971162Y-6168939D01*
X14021962Y-6031053D02*
X13920362Y-6031053D01*
X13934876Y-6031053D02*
X13927619Y-6023796D01*
X13920362Y-6009282D01*
X13920362Y-5987511D01*
X13927619Y-5972996D01*
X13942133Y-5965739D01*
X14021962Y-5965739D01*
X13942133Y-5965739D02*
X13927619Y-5958482D01*
X13920362Y-5943968D01*
X13920362Y-5922196D01*
X13927619Y-5907682D01*
X13942133Y-5900425D01*
X14021962Y-5900425D01*
X13963905Y-5827853D02*
X13963905Y-5711739D01*
X14021962Y-5617396D02*
X14014705Y-5631911D01*
X14007447Y-5639168D01*
X13992933Y-5646425D01*
X13949390Y-5646425D01*
X13934876Y-5639168D01*
X13927619Y-5631911D01*
X13920362Y-5617396D01*
X13920362Y-5595625D01*
X13927619Y-5581111D01*
X13934876Y-5573854D01*
X13949390Y-5566596D01*
X13992933Y-5566596D01*
X14007447Y-5573854D01*
X14014705Y-5581111D01*
X14021962Y-5595625D01*
X14021962Y-5617396D01*
X13920362Y-5501282D02*
X14021962Y-5501282D01*
X13934876Y-5501282D02*
X13927619Y-5494025D01*
X13920362Y-5479511D01*
X13920362Y-5457739D01*
X13927619Y-5443225D01*
X13942133Y-5435968D01*
X14021962Y-5435968D01*
X13963905Y-5363396D02*
X13963905Y-5247282D01*
X14014705Y-5109396D02*
X14021962Y-5123911D01*
X14021962Y-5152939D01*
X14014705Y-5167454D01*
X14007447Y-5174711D01*
X13992933Y-5181968D01*
X13949390Y-5181968D01*
X13934876Y-5174711D01*
X13927619Y-5167454D01*
X13920362Y-5152939D01*
X13920362Y-5123911D01*
X13927619Y-5109396D01*
X14021962Y-5044082D02*
X13869562Y-5044082D01*
X14021962Y-4978768D02*
X13942133Y-4978768D01*
X13927619Y-4986025D01*
X13920362Y-5000539D01*
X13920362Y-5022311D01*
X13927619Y-5036825D01*
X13934876Y-5044082D01*
X14021962Y-4906196D02*
X13920362Y-4906196D01*
X13869562Y-4906196D02*
X13876819Y-4913454D01*
X13884076Y-4906196D01*
X13876819Y-4898939D01*
X13869562Y-4906196D01*
X13884076Y-4906196D01*
X13920362Y-4833625D02*
X14072762Y-4833625D01*
X13927619Y-4833625D02*
X13920362Y-4819111D01*
X13920362Y-4790082D01*
X13927619Y-4775568D01*
X13934876Y-4768311D01*
X13949390Y-4761054D01*
X13992933Y-4761054D01*
X14007447Y-4768311D01*
X14014705Y-4775568D01*
X14021962Y-4790082D01*
X14021962Y-4819111D01*
X14014705Y-4833625D01*
%TO.C,U33*%
D10*
X14188800Y-11015324D02*
X14229276Y-11015324D01*
X14234038Y-11012943D01*
X14236419Y-11010562D01*
X14238800Y-11005800D01*
X14238800Y-10996276D01*
X14236419Y-10991514D01*
X14234038Y-10989133D01*
X14229276Y-10986752D01*
X14188800Y-10986752D01*
X14188800Y-10967705D02*
X14188800Y-10936752D01*
X14207848Y-10953419D01*
X14207848Y-10946276D01*
X14210229Y-10941514D01*
X14212609Y-10939133D01*
X14217371Y-10936752D01*
X14229276Y-10936752D01*
X14234038Y-10939133D01*
X14236419Y-10941514D01*
X14238800Y-10946276D01*
X14238800Y-10960562D01*
X14236419Y-10965324D01*
X14234038Y-10967705D01*
X14188800Y-10920086D02*
X14188800Y-10889133D01*
X14207848Y-10905800D01*
X14207848Y-10898657D01*
X14210229Y-10893895D01*
X14212609Y-10891514D01*
X14217371Y-10889133D01*
X14229276Y-10889133D01*
X14234038Y-10891514D01*
X14236419Y-10893895D01*
X14238800Y-10898657D01*
X14238800Y-10912943D01*
X14236419Y-10917705D01*
X14234038Y-10920086D01*
%TO.C,U31*%
X14950800Y-10507324D02*
X14991276Y-10507324D01*
X14996038Y-10504943D01*
X14998419Y-10502562D01*
X15000800Y-10497800D01*
X15000800Y-10488276D01*
X14998419Y-10483514D01*
X14996038Y-10481133D01*
X14991276Y-10478752D01*
X14950800Y-10478752D01*
X14950800Y-10459705D02*
X14950800Y-10428752D01*
X14969848Y-10445419D01*
X14969848Y-10438276D01*
X14972229Y-10433514D01*
X14974609Y-10431133D01*
X14979371Y-10428752D01*
X14991276Y-10428752D01*
X14996038Y-10431133D01*
X14998419Y-10433514D01*
X15000800Y-10438276D01*
X15000800Y-10452562D01*
X14998419Y-10457324D01*
X14996038Y-10459705D01*
X15000800Y-10381133D02*
X15000800Y-10409705D01*
X15000800Y-10395419D02*
X14950800Y-10395419D01*
X14957943Y-10400181D01*
X14962705Y-10404943D01*
X14965086Y-10409705D01*
%TO.C,U25*%
X14691800Y-11263324D02*
X14732276Y-11263324D01*
X14737038Y-11260943D01*
X14739419Y-11258562D01*
X14741800Y-11253800D01*
X14741800Y-11244276D01*
X14739419Y-11239514D01*
X14737038Y-11237133D01*
X14732276Y-11234752D01*
X14691800Y-11234752D01*
X14696562Y-11213324D02*
X14694181Y-11210943D01*
X14691800Y-11206181D01*
X14691800Y-11194276D01*
X14694181Y-11189514D01*
X14696562Y-11187133D01*
X14701324Y-11184752D01*
X14706086Y-11184752D01*
X14713229Y-11187133D01*
X14741800Y-11215705D01*
X14741800Y-11184752D01*
X14691800Y-11139514D02*
X14691800Y-11163324D01*
X14715609Y-11165705D01*
X14713229Y-11163324D01*
X14710848Y-11158562D01*
X14710848Y-11146657D01*
X14713229Y-11141895D01*
X14715609Y-11139514D01*
X14720371Y-11137133D01*
X14732276Y-11137133D01*
X14737038Y-11139514D01*
X14739419Y-11141895D01*
X14741800Y-11146657D01*
X14741800Y-11158562D01*
X14739419Y-11163324D01*
X14737038Y-11165705D01*
%TO.C,U20*%
X14691800Y-10247324D02*
X14732276Y-10247324D01*
X14737038Y-10244943D01*
X14739419Y-10242562D01*
X14741800Y-10237800D01*
X14741800Y-10228276D01*
X14739419Y-10223514D01*
X14737038Y-10221133D01*
X14732276Y-10218752D01*
X14691800Y-10218752D01*
X14696562Y-10197324D02*
X14694181Y-10194943D01*
X14691800Y-10190181D01*
X14691800Y-10178276D01*
X14694181Y-10173514D01*
X14696562Y-10171133D01*
X14701324Y-10168752D01*
X14706086Y-10168752D01*
X14713229Y-10171133D01*
X14741800Y-10199705D01*
X14741800Y-10168752D01*
X14691800Y-10137800D02*
X14691800Y-10133038D01*
X14694181Y-10128276D01*
X14696562Y-10125895D01*
X14701324Y-10123514D01*
X14710848Y-10121133D01*
X14722752Y-10121133D01*
X14732276Y-10123514D01*
X14737038Y-10125895D01*
X14739419Y-10128276D01*
X14741800Y-10133038D01*
X14741800Y-10137800D01*
X14739419Y-10142562D01*
X14737038Y-10144943D01*
X14732276Y-10147324D01*
X14722752Y-10149705D01*
X14710848Y-10149705D01*
X14701324Y-10147324D01*
X14696562Y-10144943D01*
X14694181Y-10142562D01*
X14691800Y-10137800D01*
%TO.C,U19*%
X14188800Y-9491324D02*
X14229276Y-9491324D01*
X14234038Y-9488943D01*
X14236419Y-9486562D01*
X14238800Y-9481800D01*
X14238800Y-9472276D01*
X14236419Y-9467514D01*
X14234038Y-9465133D01*
X14229276Y-9462752D01*
X14188800Y-9462752D01*
X14238800Y-9412752D02*
X14238800Y-9441324D01*
X14238800Y-9427038D02*
X14188800Y-9427038D01*
X14195943Y-9431800D01*
X14200705Y-9436562D01*
X14203086Y-9441324D01*
X14238800Y-9388943D02*
X14238800Y-9379419D01*
X14236419Y-9374657D01*
X14234038Y-9372276D01*
X14226895Y-9367514D01*
X14217371Y-9365133D01*
X14198324Y-9365133D01*
X14193562Y-9367514D01*
X14191181Y-9369895D01*
X14188800Y-9374657D01*
X14188800Y-9384181D01*
X14191181Y-9388943D01*
X14193562Y-9391324D01*
X14198324Y-9393705D01*
X14210229Y-9393705D01*
X14214990Y-9391324D01*
X14217371Y-9388943D01*
X14219752Y-9384181D01*
X14219752Y-9374657D01*
X14217371Y-9369895D01*
X14214990Y-9367514D01*
X14210229Y-9365133D01*
%TO.C,C12*%
D17*
X14276687Y-11342556D02*
X14283945Y-11349813D01*
X14291202Y-11371585D01*
X14291202Y-11386099D01*
X14283945Y-11407871D01*
X14269430Y-11422385D01*
X14254916Y-11429642D01*
X14225887Y-11436899D01*
X14204116Y-11436899D01*
X14175087Y-11429642D01*
X14160573Y-11422385D01*
X14146059Y-11407871D01*
X14138802Y-11386099D01*
X14138802Y-11371585D01*
X14146059Y-11349813D01*
X14153316Y-11342556D01*
X14291202Y-11197413D02*
X14291202Y-11284499D01*
X14291202Y-11240956D02*
X14138802Y-11240956D01*
X14160573Y-11255471D01*
X14175087Y-11269985D01*
X14182345Y-11284499D01*
X14153316Y-11139356D02*
X14146059Y-11132099D01*
X14138802Y-11117585D01*
X14138802Y-11081299D01*
X14146059Y-11066785D01*
X14153316Y-11059528D01*
X14167830Y-11052271D01*
X14182345Y-11052271D01*
X14204116Y-11059528D01*
X14291202Y-11146614D01*
X14291202Y-11052271D01*
%TO.C,C10*%
X13224619Y-10870045D02*
X13231877Y-10877303D01*
X13239134Y-10899074D01*
X13239134Y-10913588D01*
X13231877Y-10935360D01*
X13217362Y-10949874D01*
X13202848Y-10957131D01*
X13173819Y-10964388D01*
X13152048Y-10964388D01*
X13123019Y-10957131D01*
X13108505Y-10949874D01*
X13093991Y-10935360D01*
X13086734Y-10913588D01*
X13086734Y-10899074D01*
X13093991Y-10877303D01*
X13101248Y-10870045D01*
X13239134Y-10724903D02*
X13239134Y-10811988D01*
X13239134Y-10768445D02*
X13086734Y-10768445D01*
X13108505Y-10782960D01*
X13123019Y-10797474D01*
X13130277Y-10811988D01*
X13086734Y-10630560D02*
X13086734Y-10616045D01*
X13093991Y-10601531D01*
X13101248Y-10594274D01*
X13115762Y-10587017D01*
X13144791Y-10579760D01*
X13181077Y-10579760D01*
X13210105Y-10587017D01*
X13224619Y-10594274D01*
X13231877Y-10601531D01*
X13239134Y-10616045D01*
X13239134Y-10630560D01*
X13231877Y-10645074D01*
X13224619Y-10652331D01*
X13210105Y-10659588D01*
X13181077Y-10666845D01*
X13144791Y-10666845D01*
X13115762Y-10659588D01*
X13101248Y-10652331D01*
X13093991Y-10645074D01*
X13086734Y-10630560D01*
%TO.C,L3*%
X13325494Y-10866054D02*
X13325494Y-10938625D01*
X13173094Y-10938625D01*
X13173094Y-10829768D02*
X13173094Y-10735425D01*
X13231151Y-10786225D01*
X13231151Y-10764454D01*
X13238408Y-10749940D01*
X13245665Y-10742683D01*
X13260179Y-10735425D01*
X13296465Y-10735425D01*
X13310979Y-10742683D01*
X13318237Y-10749940D01*
X13325494Y-10764454D01*
X13325494Y-10807997D01*
X13318237Y-10822511D01*
X13310979Y-10829768D01*
%TO.C,L2*%
X13533766Y-10749285D02*
X13533766Y-10821856D01*
X13381366Y-10821856D01*
X13395880Y-10705742D02*
X13388623Y-10698485D01*
X13381366Y-10683971D01*
X13381366Y-10647685D01*
X13388623Y-10633171D01*
X13395880Y-10625914D01*
X13410394Y-10618656D01*
X13424909Y-10618656D01*
X13446680Y-10625914D01*
X13533766Y-10712999D01*
X13533766Y-10618656D01*
%TO.C,C4*%
X13819487Y-11056625D02*
X13826745Y-11063882D01*
X13834002Y-11085654D01*
X13834002Y-11100168D01*
X13826745Y-11121939D01*
X13812230Y-11136454D01*
X13797716Y-11143711D01*
X13768687Y-11150968D01*
X13746916Y-11150968D01*
X13717887Y-11143711D01*
X13703373Y-11136454D01*
X13688859Y-11121939D01*
X13681602Y-11100168D01*
X13681602Y-11085654D01*
X13688859Y-11063882D01*
X13696116Y-11056625D01*
X13732402Y-10925996D02*
X13834002Y-10925996D01*
X13674345Y-10962282D02*
X13783202Y-10998568D01*
X13783202Y-10904225D01*
%TO.C,C5*%
X14416387Y-10807705D02*
X14423645Y-10814962D01*
X14430902Y-10836734D01*
X14430902Y-10851248D01*
X14423645Y-10873019D01*
X14409130Y-10887534D01*
X14394616Y-10894791D01*
X14365587Y-10902048D01*
X14343816Y-10902048D01*
X14314787Y-10894791D01*
X14300273Y-10887534D01*
X14285759Y-10873019D01*
X14278502Y-10851248D01*
X14278502Y-10836734D01*
X14285759Y-10814962D01*
X14293016Y-10807705D01*
X14278502Y-10669819D02*
X14278502Y-10742391D01*
X14351073Y-10749648D01*
X14343816Y-10742391D01*
X14336559Y-10727876D01*
X14336559Y-10691591D01*
X14343816Y-10677076D01*
X14351073Y-10669819D01*
X14365587Y-10662562D01*
X14401873Y-10662562D01*
X14416387Y-10669819D01*
X14423645Y-10677076D01*
X14430902Y-10691591D01*
X14430902Y-10727876D01*
X14423645Y-10742391D01*
X14416387Y-10749648D01*
%TO.C,C7*%
X13745827Y-9994905D02*
X13753085Y-10002162D01*
X13760342Y-10023934D01*
X13760342Y-10038448D01*
X13753085Y-10060219D01*
X13738570Y-10074734D01*
X13724056Y-10081991D01*
X13695027Y-10089248D01*
X13673256Y-10089248D01*
X13644227Y-10081991D01*
X13629713Y-10074734D01*
X13615199Y-10060219D01*
X13607942Y-10038448D01*
X13607942Y-10023934D01*
X13615199Y-10002162D01*
X13622456Y-9994905D01*
X13607942Y-9944105D02*
X13607942Y-9842505D01*
X13760342Y-9907819D01*
%TO.C,C1*%
X13547689Y-9674882D02*
X13554947Y-9682139D01*
X13562204Y-9703911D01*
X13562204Y-9718425D01*
X13554947Y-9740196D01*
X13540432Y-9754711D01*
X13525918Y-9761968D01*
X13496889Y-9769225D01*
X13475118Y-9769225D01*
X13446089Y-9761968D01*
X13431575Y-9754711D01*
X13417061Y-9740196D01*
X13409804Y-9718425D01*
X13409804Y-9703911D01*
X13417061Y-9682139D01*
X13424318Y-9674882D01*
X13562204Y-9529739D02*
X13562204Y-9616825D01*
X13562204Y-9573282D02*
X13409804Y-9573282D01*
X13431575Y-9587796D01*
X13446089Y-9602311D01*
X13453347Y-9616825D01*
%TO.C,X1*%
X13409804Y-9950653D02*
X13562204Y-9849053D01*
X13409804Y-9849053D02*
X13562204Y-9950653D01*
X13562204Y-9711168D02*
X13562204Y-9798253D01*
X13562204Y-9754711D02*
X13409804Y-9754711D01*
X13431575Y-9769225D01*
X13446089Y-9783739D01*
X13453347Y-9798253D01*
%TO.C,C8*%
X13547689Y-10119382D02*
X13554947Y-10126639D01*
X13562204Y-10148411D01*
X13562204Y-10162925D01*
X13554947Y-10184696D01*
X13540432Y-10199211D01*
X13525918Y-10206468D01*
X13496889Y-10213725D01*
X13475118Y-10213725D01*
X13446089Y-10206468D01*
X13431575Y-10199211D01*
X13417061Y-10184696D01*
X13409804Y-10162925D01*
X13409804Y-10148411D01*
X13417061Y-10126639D01*
X13424318Y-10119382D01*
X13475118Y-10032296D02*
X13467861Y-10046811D01*
X13460604Y-10054068D01*
X13446089Y-10061325D01*
X13438832Y-10061325D01*
X13424318Y-10054068D01*
X13417061Y-10046811D01*
X13409804Y-10032296D01*
X13409804Y-10003268D01*
X13417061Y-9988753D01*
X13424318Y-9981496D01*
X13438832Y-9974239D01*
X13446089Y-9974239D01*
X13460604Y-9981496D01*
X13467861Y-9988753D01*
X13475118Y-10003268D01*
X13475118Y-10032296D01*
X13482375Y-10046811D01*
X13489632Y-10054068D01*
X13504147Y-10061325D01*
X13533175Y-10061325D01*
X13547689Y-10054068D01*
X13554947Y-10046811D01*
X13562204Y-10032296D01*
X13562204Y-10003268D01*
X13554947Y-9988753D01*
X13547689Y-9981496D01*
X13533175Y-9974239D01*
X13504147Y-9974239D01*
X13489632Y-9981496D01*
X13482375Y-9988753D01*
X13475118Y-10003268D01*
%TO.C,C9*%
X13715347Y-11056625D02*
X13722605Y-11063882D01*
X13729862Y-11085654D01*
X13729862Y-11100168D01*
X13722605Y-11121939D01*
X13708090Y-11136454D01*
X13693576Y-11143711D01*
X13664547Y-11150968D01*
X13642776Y-11150968D01*
X13613747Y-11143711D01*
X13599233Y-11136454D01*
X13584719Y-11121939D01*
X13577462Y-11100168D01*
X13577462Y-11085654D01*
X13584719Y-11063882D01*
X13591976Y-11056625D01*
X13729862Y-10984054D02*
X13729862Y-10955025D01*
X13722605Y-10940511D01*
X13715347Y-10933254D01*
X13693576Y-10918739D01*
X13664547Y-10911482D01*
X13606490Y-10911482D01*
X13591976Y-10918739D01*
X13584719Y-10925996D01*
X13577462Y-10940511D01*
X13577462Y-10969539D01*
X13584719Y-10984054D01*
X13591976Y-10991311D01*
X13606490Y-10998568D01*
X13642776Y-10998568D01*
X13657290Y-10991311D01*
X13664547Y-10984054D01*
X13671805Y-10969539D01*
X13671805Y-10940511D01*
X13664547Y-10925996D01*
X13657290Y-10918739D01*
X13642776Y-10911482D01*
%TO.C,C6*%
X13834727Y-9994905D02*
X13841985Y-10002162D01*
X13849242Y-10023934D01*
X13849242Y-10038448D01*
X13841985Y-10060219D01*
X13827470Y-10074734D01*
X13812956Y-10081991D01*
X13783927Y-10089248D01*
X13762156Y-10089248D01*
X13733127Y-10081991D01*
X13718613Y-10074734D01*
X13704099Y-10060219D01*
X13696842Y-10038448D01*
X13696842Y-10023934D01*
X13704099Y-10002162D01*
X13711356Y-9994905D01*
X13696842Y-9864276D02*
X13696842Y-9893305D01*
X13704099Y-9907819D01*
X13711356Y-9915076D01*
X13733127Y-9929591D01*
X13762156Y-9936848D01*
X13820213Y-9936848D01*
X13834727Y-9929591D01*
X13841985Y-9922334D01*
X13849242Y-9907819D01*
X13849242Y-9878791D01*
X13841985Y-9864276D01*
X13834727Y-9857019D01*
X13820213Y-9849762D01*
X13783927Y-9849762D01*
X13769413Y-9857019D01*
X13762156Y-9864276D01*
X13754899Y-9878791D01*
X13754899Y-9907819D01*
X13762156Y-9922334D01*
X13769413Y-9929591D01*
X13783927Y-9936848D01*
X13849242Y-10669819D02*
X13696842Y-10669819D01*
X13849242Y-10582734D01*
X13696842Y-10582734D01*
X13849242Y-10488391D02*
X13841985Y-10502905D01*
X13834727Y-10510162D01*
X13820213Y-10517419D01*
X13776670Y-10517419D01*
X13762156Y-10510162D01*
X13754899Y-10502905D01*
X13747642Y-10488391D01*
X13747642Y-10466619D01*
X13754899Y-10452105D01*
X13762156Y-10444848D01*
X13776670Y-10437591D01*
X13820213Y-10437591D01*
X13834727Y-10444848D01*
X13841985Y-10452105D01*
X13849242Y-10466619D01*
X13849242Y-10488391D01*
X13747642Y-10394048D02*
X13747642Y-10335991D01*
X13696842Y-10372276D02*
X13827470Y-10372276D01*
X13841985Y-10365019D01*
X13849242Y-10350505D01*
X13849242Y-10335991D01*
X13849242Y-10169076D02*
X13747642Y-10169076D01*
X13762156Y-10169076D02*
X13754899Y-10161819D01*
X13747642Y-10147305D01*
X13747642Y-10125534D01*
X13754899Y-10111019D01*
X13769413Y-10103762D01*
X13849242Y-10103762D01*
X13769413Y-10103762D02*
X13754899Y-10096505D01*
X13747642Y-10081991D01*
X13747642Y-10060219D01*
X13754899Y-10045705D01*
X13769413Y-10038448D01*
X13849242Y-10038448D01*
X13849242Y-9944105D02*
X13841985Y-9958619D01*
X13834727Y-9965876D01*
X13820213Y-9973134D01*
X13776670Y-9973134D01*
X13762156Y-9965876D01*
X13754899Y-9958619D01*
X13747642Y-9944105D01*
X13747642Y-9922334D01*
X13754899Y-9907819D01*
X13762156Y-9900562D01*
X13776670Y-9893305D01*
X13820213Y-9893305D01*
X13834727Y-9900562D01*
X13841985Y-9907819D01*
X13849242Y-9922334D01*
X13849242Y-9944105D01*
X13747642Y-9762676D02*
X13849242Y-9762676D01*
X13747642Y-9827991D02*
X13827470Y-9827991D01*
X13841985Y-9820734D01*
X13849242Y-9806219D01*
X13849242Y-9784448D01*
X13841985Y-9769934D01*
X13834727Y-9762676D01*
X13747642Y-9690105D02*
X13849242Y-9690105D01*
X13762156Y-9690105D02*
X13754899Y-9682848D01*
X13747642Y-9668334D01*
X13747642Y-9646562D01*
X13754899Y-9632048D01*
X13769413Y-9624791D01*
X13849242Y-9624791D01*
X13747642Y-9573991D02*
X13747642Y-9515934D01*
X13696842Y-9552219D02*
X13827470Y-9552219D01*
X13841985Y-9544962D01*
X13849242Y-9530448D01*
X13849242Y-9515934D01*
X13841985Y-9407076D02*
X13849242Y-9421591D01*
X13849242Y-9450619D01*
X13841985Y-9465134D01*
X13827470Y-9472391D01*
X13769413Y-9472391D01*
X13754899Y-9465134D01*
X13747642Y-9450619D01*
X13747642Y-9421591D01*
X13754899Y-9407076D01*
X13769413Y-9399819D01*
X13783927Y-9399819D01*
X13798442Y-9472391D01*
X13849242Y-9269191D02*
X13696842Y-9269191D01*
X13841985Y-9269191D02*
X13849242Y-9283705D01*
X13849242Y-9312734D01*
X13841985Y-9327248D01*
X13834727Y-9334505D01*
X13820213Y-9341762D01*
X13776670Y-9341762D01*
X13762156Y-9334505D01*
X13754899Y-9327248D01*
X13747642Y-9312734D01*
X13747642Y-9283705D01*
X13754899Y-9269191D01*
%TO.C,C2*%
X13547689Y-10030482D02*
X13554947Y-10037739D01*
X13562204Y-10059511D01*
X13562204Y-10074025D01*
X13554947Y-10095796D01*
X13540432Y-10110311D01*
X13525918Y-10117568D01*
X13496889Y-10124825D01*
X13475118Y-10124825D01*
X13446089Y-10117568D01*
X13431575Y-10110311D01*
X13417061Y-10095796D01*
X13409804Y-10074025D01*
X13409804Y-10059511D01*
X13417061Y-10037739D01*
X13424318Y-10030482D01*
X13424318Y-9972425D02*
X13417061Y-9965168D01*
X13409804Y-9950653D01*
X13409804Y-9914368D01*
X13417061Y-9899853D01*
X13424318Y-9892596D01*
X13438832Y-9885339D01*
X13453347Y-9885339D01*
X13475118Y-9892596D01*
X13562204Y-9979682D01*
X13562204Y-9885339D01*
%TO.C,C3*%
X14007447Y-10104125D02*
X14014705Y-10111382D01*
X14021962Y-10133154D01*
X14021962Y-10147668D01*
X14014705Y-10169439D01*
X14000190Y-10183954D01*
X13985676Y-10191211D01*
X13956647Y-10198468D01*
X13934876Y-10198468D01*
X13905847Y-10191211D01*
X13891333Y-10183954D01*
X13876819Y-10169439D01*
X13869562Y-10147668D01*
X13869562Y-10133154D01*
X13876819Y-10111382D01*
X13884076Y-10104125D01*
X13869562Y-10053325D02*
X13869562Y-9958982D01*
X13927619Y-10009782D01*
X13927619Y-9988011D01*
X13934876Y-9973496D01*
X13942133Y-9966239D01*
X13956647Y-9958982D01*
X13992933Y-9958982D01*
X14007447Y-9966239D01*
X14014705Y-9973496D01*
X14021962Y-9988011D01*
X14021962Y-10031554D01*
X14014705Y-10046068D01*
X14007447Y-10053325D01*
%TO.C,X2*%
X13907662Y-11367956D02*
X14060062Y-11266356D01*
X13907662Y-11266356D02*
X14060062Y-11367956D01*
X13922176Y-11215556D02*
X13914919Y-11208299D01*
X13907662Y-11193785D01*
X13907662Y-11157499D01*
X13914919Y-11142985D01*
X13922176Y-11135728D01*
X13936690Y-11128471D01*
X13951205Y-11128471D01*
X13972976Y-11135728D01*
X14060062Y-11222813D01*
X14060062Y-11128471D01*
%TO.C,C11*%
X13961727Y-11200316D02*
X13968985Y-11207573D01*
X13976242Y-11229345D01*
X13976242Y-11243859D01*
X13968985Y-11265631D01*
X13954470Y-11280145D01*
X13939956Y-11287402D01*
X13910927Y-11294659D01*
X13889156Y-11294659D01*
X13860127Y-11287402D01*
X13845613Y-11280145D01*
X13831099Y-11265631D01*
X13823842Y-11243859D01*
X13823842Y-11229345D01*
X13831099Y-11207573D01*
X13838356Y-11200316D01*
X13976242Y-11055174D02*
X13976242Y-11142259D01*
X13976242Y-11098716D02*
X13823842Y-11098716D01*
X13845613Y-11113231D01*
X13860127Y-11127745D01*
X13867385Y-11142259D01*
X13976242Y-10910031D02*
X13976242Y-10997116D01*
X13976242Y-10953574D02*
X13823842Y-10953574D01*
X13845613Y-10968088D01*
X13860127Y-10982602D01*
X13867385Y-10997116D01*
%TO.C,C13*%
X13349587Y-10677076D02*
X13356845Y-10684334D01*
X13364102Y-10706105D01*
X13364102Y-10720619D01*
X13356845Y-10742391D01*
X13342330Y-10756905D01*
X13327816Y-10764162D01*
X13298787Y-10771419D01*
X13277016Y-10771419D01*
X13247987Y-10764162D01*
X13233473Y-10756905D01*
X13218959Y-10742391D01*
X13211702Y-10720619D01*
X13211702Y-10706105D01*
X13218959Y-10684334D01*
X13226216Y-10677076D01*
X13364102Y-10531934D02*
X13364102Y-10619019D01*
X13364102Y-10575476D02*
X13211702Y-10575476D01*
X13233473Y-10589991D01*
X13247987Y-10604505D01*
X13255245Y-10619019D01*
X13211702Y-10481134D02*
X13211702Y-10386791D01*
X13269759Y-10437591D01*
X13269759Y-10415819D01*
X13277016Y-10401305D01*
X13284273Y-10394048D01*
X13298787Y-10386791D01*
X13335073Y-10386791D01*
X13349587Y-10394048D01*
X13356845Y-10401305D01*
X13364102Y-10415819D01*
X13364102Y-10459362D01*
X13356845Y-10473876D01*
X13349587Y-10481134D01*
X13364102Y-11279419D02*
X13211702Y-11279419D01*
X13364102Y-11192333D01*
X13211702Y-11192333D01*
X13364102Y-11097991D02*
X13356845Y-11112505D01*
X13349587Y-11119762D01*
X13335073Y-11127019D01*
X13291530Y-11127019D01*
X13277016Y-11119762D01*
X13269759Y-11112505D01*
X13262502Y-11097991D01*
X13262502Y-11076219D01*
X13269759Y-11061705D01*
X13277016Y-11054448D01*
X13291530Y-11047191D01*
X13335073Y-11047191D01*
X13349587Y-11054448D01*
X13356845Y-11061705D01*
X13364102Y-11076219D01*
X13364102Y-11097991D01*
X13262502Y-11003648D02*
X13262502Y-10945591D01*
X13211702Y-10981876D02*
X13342330Y-10981876D01*
X13356845Y-10974619D01*
X13364102Y-10960105D01*
X13364102Y-10945591D01*
X13364102Y-10778676D02*
X13262502Y-10778676D01*
X13277016Y-10778676D02*
X13269759Y-10771419D01*
X13262502Y-10756905D01*
X13262502Y-10735134D01*
X13269759Y-10720619D01*
X13284273Y-10713362D01*
X13364102Y-10713362D01*
X13284273Y-10713362D02*
X13269759Y-10706105D01*
X13262502Y-10691591D01*
X13262502Y-10669819D01*
X13269759Y-10655305D01*
X13284273Y-10648048D01*
X13364102Y-10648048D01*
X13364102Y-10553705D02*
X13356845Y-10568219D01*
X13349587Y-10575476D01*
X13335073Y-10582734D01*
X13291530Y-10582734D01*
X13277016Y-10575476D01*
X13269759Y-10568219D01*
X13262502Y-10553705D01*
X13262502Y-10531934D01*
X13269759Y-10517419D01*
X13277016Y-10510162D01*
X13291530Y-10502905D01*
X13335073Y-10502905D01*
X13349587Y-10510162D01*
X13356845Y-10517419D01*
X13364102Y-10531934D01*
X13364102Y-10553705D01*
X13262502Y-10372276D02*
X13364102Y-10372276D01*
X13262502Y-10437591D02*
X13342330Y-10437591D01*
X13356845Y-10430334D01*
X13364102Y-10415819D01*
X13364102Y-10394048D01*
X13356845Y-10379534D01*
X13349587Y-10372276D01*
X13262502Y-10299705D02*
X13364102Y-10299705D01*
X13277016Y-10299705D02*
X13269759Y-10292448D01*
X13262502Y-10277934D01*
X13262502Y-10256162D01*
X13269759Y-10241648D01*
X13284273Y-10234391D01*
X13364102Y-10234391D01*
X13262502Y-10183591D02*
X13262502Y-10125534D01*
X13211702Y-10161819D02*
X13342330Y-10161819D01*
X13356845Y-10154562D01*
X13364102Y-10140048D01*
X13364102Y-10125534D01*
X13356845Y-10016676D02*
X13364102Y-10031191D01*
X13364102Y-10060219D01*
X13356845Y-10074734D01*
X13342330Y-10081991D01*
X13284273Y-10081991D01*
X13269759Y-10074734D01*
X13262502Y-10060219D01*
X13262502Y-10031191D01*
X13269759Y-10016676D01*
X13284273Y-10009419D01*
X13298787Y-10009419D01*
X13313302Y-10081991D01*
X13364102Y-9878791D02*
X13211702Y-9878791D01*
X13356845Y-9878791D02*
X13364102Y-9893305D01*
X13364102Y-9922334D01*
X13356845Y-9936848D01*
X13349587Y-9944105D01*
X13335073Y-9951362D01*
X13291530Y-9951362D01*
X13277016Y-9944105D01*
X13269759Y-9936848D01*
X13262502Y-9922334D01*
X13262502Y-9893305D01*
X13269759Y-9878791D01*
%TO.C,U32*%
D10*
X14442800Y-11269324D02*
X14483276Y-11269324D01*
X14488038Y-11266943D01*
X14490419Y-11264562D01*
X14492800Y-11259800D01*
X14492800Y-11250276D01*
X14490419Y-11245514D01*
X14488038Y-11243133D01*
X14483276Y-11240752D01*
X14442800Y-11240752D01*
X14442800Y-11221705D02*
X14442800Y-11190752D01*
X14461848Y-11207419D01*
X14461848Y-11200276D01*
X14464229Y-11195514D01*
X14466609Y-11193133D01*
X14471371Y-11190752D01*
X14483276Y-11190752D01*
X14488038Y-11193133D01*
X14490419Y-11195514D01*
X14492800Y-11200276D01*
X14492800Y-11214562D01*
X14490419Y-11219324D01*
X14488038Y-11221705D01*
X14447562Y-11171705D02*
X14445181Y-11169324D01*
X14442800Y-11164562D01*
X14442800Y-11152657D01*
X14445181Y-11147895D01*
X14447562Y-11145514D01*
X14452324Y-11143133D01*
X14457086Y-11143133D01*
X14464229Y-11145514D01*
X14492800Y-11174086D01*
X14492800Y-11143133D01*
%TO.C,U30*%
X14696800Y-11015324D02*
X14737276Y-11015324D01*
X14742038Y-11012943D01*
X14744419Y-11010562D01*
X14746800Y-11005800D01*
X14746800Y-10996276D01*
X14744419Y-10991514D01*
X14742038Y-10989133D01*
X14737276Y-10986752D01*
X14696800Y-10986752D01*
X14696800Y-10967705D02*
X14696800Y-10936752D01*
X14715848Y-10953419D01*
X14715848Y-10946276D01*
X14718229Y-10941514D01*
X14720609Y-10939133D01*
X14725371Y-10936752D01*
X14737276Y-10936752D01*
X14742038Y-10939133D01*
X14744419Y-10941514D01*
X14746800Y-10946276D01*
X14746800Y-10960562D01*
X14744419Y-10965324D01*
X14742038Y-10967705D01*
X14696800Y-10905800D02*
X14696800Y-10901038D01*
X14699181Y-10896276D01*
X14701562Y-10893895D01*
X14706324Y-10891514D01*
X14715848Y-10889133D01*
X14727752Y-10889133D01*
X14737276Y-10891514D01*
X14742038Y-10893895D01*
X14744419Y-10896276D01*
X14746800Y-10901038D01*
X14746800Y-10905800D01*
X14744419Y-10910562D01*
X14742038Y-10912943D01*
X14737276Y-10915324D01*
X14727752Y-10917705D01*
X14715848Y-10917705D01*
X14706324Y-10915324D01*
X14701562Y-10912943D01*
X14699181Y-10910562D01*
X14696800Y-10905800D01*
%TO.C,U29*%
X14188800Y-11269324D02*
X14229276Y-11269324D01*
X14234038Y-11266943D01*
X14236419Y-11264562D01*
X14238800Y-11259800D01*
X14238800Y-11250276D01*
X14236419Y-11245514D01*
X14234038Y-11243133D01*
X14229276Y-11240752D01*
X14188800Y-11240752D01*
X14193562Y-11219324D02*
X14191181Y-11216943D01*
X14188800Y-11212181D01*
X14188800Y-11200276D01*
X14191181Y-11195514D01*
X14193562Y-11193133D01*
X14198324Y-11190752D01*
X14203086Y-11190752D01*
X14210229Y-11193133D01*
X14238800Y-11221705D01*
X14238800Y-11190752D01*
X14238800Y-11166943D02*
X14238800Y-11157419D01*
X14236419Y-11152657D01*
X14234038Y-11150276D01*
X14226895Y-11145514D01*
X14217371Y-11143133D01*
X14198324Y-11143133D01*
X14193562Y-11145514D01*
X14191181Y-11147895D01*
X14188800Y-11152657D01*
X14188800Y-11162181D01*
X14191181Y-11166943D01*
X14193562Y-11169324D01*
X14198324Y-11171705D01*
X14210229Y-11171705D01*
X14214990Y-11169324D01*
X14217371Y-11166943D01*
X14219752Y-11162181D01*
X14219752Y-11152657D01*
X14217371Y-11147895D01*
X14214990Y-11145514D01*
X14210229Y-11143133D01*
%TO.C,U28*%
X14945800Y-11263324D02*
X14986276Y-11263324D01*
X14991038Y-11260943D01*
X14993419Y-11258562D01*
X14995800Y-11253800D01*
X14995800Y-11244276D01*
X14993419Y-11239514D01*
X14991038Y-11237133D01*
X14986276Y-11234752D01*
X14945800Y-11234752D01*
X14950562Y-11213324D02*
X14948181Y-11210943D01*
X14945800Y-11206181D01*
X14945800Y-11194276D01*
X14948181Y-11189514D01*
X14950562Y-11187133D01*
X14955324Y-11184752D01*
X14960086Y-11184752D01*
X14967229Y-11187133D01*
X14995800Y-11215705D01*
X14995800Y-11184752D01*
X14967229Y-11156181D02*
X14964848Y-11160943D01*
X14962467Y-11163324D01*
X14957705Y-11165705D01*
X14955324Y-11165705D01*
X14950562Y-11163324D01*
X14948181Y-11160943D01*
X14945800Y-11156181D01*
X14945800Y-11146657D01*
X14948181Y-11141895D01*
X14950562Y-11139514D01*
X14955324Y-11137133D01*
X14957705Y-11137133D01*
X14962467Y-11139514D01*
X14964848Y-11141895D01*
X14967229Y-11146657D01*
X14967229Y-11156181D01*
X14969609Y-11160943D01*
X14971990Y-11163324D01*
X14976752Y-11165705D01*
X14986276Y-11165705D01*
X14991038Y-11163324D01*
X14993419Y-11160943D01*
X14995800Y-11156181D01*
X14995800Y-11146657D01*
X14993419Y-11141895D01*
X14991038Y-11139514D01*
X14986276Y-11137133D01*
X14976752Y-11137133D01*
X14971990Y-11139514D01*
X14969609Y-11141895D01*
X14967229Y-11146657D01*
%TO.C,U27*%
X14945800Y-10247324D02*
X14986276Y-10247324D01*
X14991038Y-10244943D01*
X14993419Y-10242562D01*
X14995800Y-10237800D01*
X14995800Y-10228276D01*
X14993419Y-10223514D01*
X14991038Y-10221133D01*
X14986276Y-10218752D01*
X14945800Y-10218752D01*
X14950562Y-10197324D02*
X14948181Y-10194943D01*
X14945800Y-10190181D01*
X14945800Y-10178276D01*
X14948181Y-10173514D01*
X14950562Y-10171133D01*
X14955324Y-10168752D01*
X14960086Y-10168752D01*
X14967229Y-10171133D01*
X14995800Y-10199705D01*
X14995800Y-10168752D01*
X14945800Y-10152086D02*
X14945800Y-10118752D01*
X14995800Y-10140181D01*
%TO.C,U24*%
X15204800Y-11015324D02*
X15245276Y-11015324D01*
X15250038Y-11012943D01*
X15252419Y-11010562D01*
X15254800Y-11005800D01*
X15254800Y-10996276D01*
X15252419Y-10991514D01*
X15250038Y-10989133D01*
X15245276Y-10986752D01*
X15204800Y-10986752D01*
X15209562Y-10965324D02*
X15207181Y-10962943D01*
X15204800Y-10958181D01*
X15204800Y-10946276D01*
X15207181Y-10941514D01*
X15209562Y-10939133D01*
X15214324Y-10936752D01*
X15219086Y-10936752D01*
X15226229Y-10939133D01*
X15254800Y-10967705D01*
X15254800Y-10936752D01*
X15221467Y-10893895D02*
X15254800Y-10893895D01*
X15202419Y-10905800D02*
X15238133Y-10917705D01*
X15238133Y-10886752D01*
%TO.C,U23*%
X14950800Y-9999324D02*
X14991276Y-9999324D01*
X14996038Y-9996943D01*
X14998419Y-9994562D01*
X15000800Y-9989800D01*
X15000800Y-9980276D01*
X14998419Y-9975514D01*
X14996038Y-9973133D01*
X14991276Y-9970752D01*
X14950800Y-9970752D01*
X14955562Y-9949324D02*
X14953181Y-9946943D01*
X14950800Y-9942181D01*
X14950800Y-9930276D01*
X14953181Y-9925514D01*
X14955562Y-9923133D01*
X14960324Y-9920752D01*
X14965086Y-9920752D01*
X14972229Y-9923133D01*
X15000800Y-9951705D01*
X15000800Y-9920752D01*
X14950800Y-9904086D02*
X14950800Y-9873133D01*
X14969848Y-9889800D01*
X14969848Y-9882657D01*
X14972229Y-9877895D01*
X14974609Y-9875514D01*
X14979371Y-9873133D01*
X14991276Y-9873133D01*
X14996038Y-9875514D01*
X14998419Y-9877895D01*
X15000800Y-9882657D01*
X15000800Y-9896943D01*
X14998419Y-9901705D01*
X14996038Y-9904086D01*
%TO.C,U102*%
X14437800Y-10017133D02*
X14478276Y-10017133D01*
X14483038Y-10014752D01*
X14485419Y-10012371D01*
X14487800Y-10007609D01*
X14487800Y-9998086D01*
X14485419Y-9993324D01*
X14483038Y-9990943D01*
X14478276Y-9988562D01*
X14437800Y-9988562D01*
X14487800Y-9938562D02*
X14487800Y-9967133D01*
X14487800Y-9952848D02*
X14437800Y-9952848D01*
X14444943Y-9957609D01*
X14449705Y-9962371D01*
X14452086Y-9967133D01*
X14437800Y-9907609D02*
X14437800Y-9902848D01*
X14440181Y-9898086D01*
X14442562Y-9895705D01*
X14447324Y-9893324D01*
X14456848Y-9890943D01*
X14468752Y-9890943D01*
X14478276Y-9893324D01*
X14483038Y-9895705D01*
X14485419Y-9898086D01*
X14487800Y-9902848D01*
X14487800Y-9907609D01*
X14485419Y-9912371D01*
X14483038Y-9914752D01*
X14478276Y-9917133D01*
X14468752Y-9919514D01*
X14456848Y-9919514D01*
X14447324Y-9917133D01*
X14442562Y-9914752D01*
X14440181Y-9912371D01*
X14437800Y-9907609D01*
X14442562Y-9871895D02*
X14440181Y-9869514D01*
X14437800Y-9864752D01*
X14437800Y-9852848D01*
X14440181Y-9848086D01*
X14442562Y-9845705D01*
X14447324Y-9843324D01*
X14452086Y-9843324D01*
X14459229Y-9845705D01*
X14487800Y-9874276D01*
X14487800Y-9843324D01*
%TO.C,U21*%
X14437800Y-11009324D02*
X14478276Y-11009324D01*
X14483038Y-11006943D01*
X14485419Y-11004562D01*
X14487800Y-10999800D01*
X14487800Y-10990276D01*
X14485419Y-10985514D01*
X14483038Y-10983133D01*
X14478276Y-10980752D01*
X14437800Y-10980752D01*
X14442562Y-10959324D02*
X14440181Y-10956943D01*
X14437800Y-10952181D01*
X14437800Y-10940276D01*
X14440181Y-10935514D01*
X14442562Y-10933133D01*
X14447324Y-10930752D01*
X14452086Y-10930752D01*
X14459229Y-10933133D01*
X14487800Y-10961705D01*
X14487800Y-10930752D01*
X14487800Y-10883133D02*
X14487800Y-10911705D01*
X14487800Y-10897419D02*
X14437800Y-10897419D01*
X14444943Y-10902181D01*
X14449705Y-10906943D01*
X14452086Y-10911705D01*
%TO.C,U18*%
X14460800Y-10244324D02*
X14501276Y-10244324D01*
X14506038Y-10241943D01*
X14508419Y-10239562D01*
X14510800Y-10234800D01*
X14510800Y-10225276D01*
X14508419Y-10220514D01*
X14506038Y-10218133D01*
X14501276Y-10215752D01*
X14460800Y-10215752D01*
X14510800Y-10165752D02*
X14510800Y-10194324D01*
X14510800Y-10180038D02*
X14460800Y-10180038D01*
X14467943Y-10184800D01*
X14472705Y-10189562D01*
X14475086Y-10194324D01*
X14482229Y-10137181D02*
X14479848Y-10141943D01*
X14477467Y-10144324D01*
X14472705Y-10146705D01*
X14470324Y-10146705D01*
X14465562Y-10144324D01*
X14463181Y-10141943D01*
X14460800Y-10137181D01*
X14460800Y-10127657D01*
X14463181Y-10122895D01*
X14465562Y-10120514D01*
X14470324Y-10118133D01*
X14472705Y-10118133D01*
X14477467Y-10120514D01*
X14479848Y-10122895D01*
X14482229Y-10127657D01*
X14482229Y-10137181D01*
X14484609Y-10141943D01*
X14486990Y-10144324D01*
X14491752Y-10146705D01*
X14501276Y-10146705D01*
X14506038Y-10144324D01*
X14508419Y-10141943D01*
X14510800Y-10137181D01*
X14510800Y-10127657D01*
X14508419Y-10122895D01*
X14506038Y-10120514D01*
X14501276Y-10118133D01*
X14491752Y-10118133D01*
X14486990Y-10120514D01*
X14484609Y-10122895D01*
X14482229Y-10127657D01*
%TO.C,U17*%
X14691800Y-10501324D02*
X14732276Y-10501324D01*
X14737038Y-10498943D01*
X14739419Y-10496562D01*
X14741800Y-10491800D01*
X14741800Y-10482276D01*
X14739419Y-10477514D01*
X14737038Y-10475133D01*
X14732276Y-10472752D01*
X14691800Y-10472752D01*
X14741800Y-10422752D02*
X14741800Y-10451324D01*
X14741800Y-10437038D02*
X14691800Y-10437038D01*
X14698943Y-10441800D01*
X14703705Y-10446562D01*
X14706086Y-10451324D01*
X14691800Y-10406086D02*
X14691800Y-10372752D01*
X14741800Y-10394181D01*
%TO.C,U16*%
X14437800Y-9485324D02*
X14478276Y-9485324D01*
X14483038Y-9482943D01*
X14485419Y-9480562D01*
X14487800Y-9475800D01*
X14487800Y-9466276D01*
X14485419Y-9461514D01*
X14483038Y-9459133D01*
X14478276Y-9456752D01*
X14437800Y-9456752D01*
X14487800Y-9406752D02*
X14487800Y-9435324D01*
X14487800Y-9421038D02*
X14437800Y-9421038D01*
X14444943Y-9425800D01*
X14449705Y-9430562D01*
X14452086Y-9435324D01*
X14437800Y-9363895D02*
X14437800Y-9373419D01*
X14440181Y-9378181D01*
X14442562Y-9380562D01*
X14449705Y-9385324D01*
X14459229Y-9387705D01*
X14478276Y-9387705D01*
X14483038Y-9385324D01*
X14485419Y-9382943D01*
X14487800Y-9378181D01*
X14487800Y-9368657D01*
X14485419Y-9363895D01*
X14483038Y-9361514D01*
X14478276Y-9359133D01*
X14466371Y-9359133D01*
X14461609Y-9361514D01*
X14459229Y-9363895D01*
X14456848Y-9368657D01*
X14456848Y-9378181D01*
X14459229Y-9382943D01*
X14461609Y-9385324D01*
X14466371Y-9387705D01*
%TO.C,U15*%
X14183800Y-9231324D02*
X14224276Y-9231324D01*
X14229038Y-9228943D01*
X14231419Y-9226562D01*
X14233800Y-9221800D01*
X14233800Y-9212276D01*
X14231419Y-9207514D01*
X14229038Y-9205133D01*
X14224276Y-9202752D01*
X14183800Y-9202752D01*
X14233800Y-9152752D02*
X14233800Y-9181324D01*
X14233800Y-9167038D02*
X14183800Y-9167038D01*
X14190943Y-9171800D01*
X14195705Y-9176562D01*
X14198086Y-9181324D01*
X14183800Y-9107514D02*
X14183800Y-9131324D01*
X14207609Y-9133705D01*
X14205229Y-9131324D01*
X14202848Y-9126562D01*
X14202848Y-9114657D01*
X14205229Y-9109895D01*
X14207609Y-9107514D01*
X14212371Y-9105133D01*
X14224276Y-9105133D01*
X14229038Y-9107514D01*
X14231419Y-9109895D01*
X14233800Y-9114657D01*
X14233800Y-9126562D01*
X14231419Y-9131324D01*
X14229038Y-9133705D01*
%TO.C,U14*%
X14183800Y-10501324D02*
X14224276Y-10501324D01*
X14229038Y-10498943D01*
X14231419Y-10496562D01*
X14233800Y-10491800D01*
X14233800Y-10482276D01*
X14231419Y-10477514D01*
X14229038Y-10475133D01*
X14224276Y-10472752D01*
X14183800Y-10472752D01*
X14233800Y-10422752D02*
X14233800Y-10451324D01*
X14233800Y-10437038D02*
X14183800Y-10437038D01*
X14190943Y-10441800D01*
X14195705Y-10446562D01*
X14198086Y-10451324D01*
X14200467Y-10379895D02*
X14233800Y-10379895D01*
X14181419Y-10391800D02*
X14217133Y-10403705D01*
X14217133Y-10372752D01*
%TO.C,U13*%
X14691800Y-9993324D02*
X14732276Y-9993324D01*
X14737038Y-9990943D01*
X14739419Y-9988562D01*
X14741800Y-9983800D01*
X14741800Y-9974276D01*
X14739419Y-9969514D01*
X14737038Y-9967133D01*
X14732276Y-9964752D01*
X14691800Y-9964752D01*
X14741800Y-9914752D02*
X14741800Y-9943324D01*
X14741800Y-9929038D02*
X14691800Y-9929038D01*
X14698943Y-9933800D01*
X14703705Y-9938562D01*
X14706086Y-9943324D01*
X14691800Y-9898086D02*
X14691800Y-9867133D01*
X14710848Y-9883800D01*
X14710848Y-9876657D01*
X14713229Y-9871895D01*
X14715609Y-9869514D01*
X14720371Y-9867133D01*
X14732276Y-9867133D01*
X14737038Y-9869514D01*
X14739419Y-9871895D01*
X14741800Y-9876657D01*
X14741800Y-9890943D01*
X14739419Y-9895705D01*
X14737038Y-9898086D01*
%TO.C,U12*%
X14437800Y-9231324D02*
X14478276Y-9231324D01*
X14483038Y-9228943D01*
X14485419Y-9226562D01*
X14487800Y-9221800D01*
X14487800Y-9212276D01*
X14485419Y-9207514D01*
X14483038Y-9205133D01*
X14478276Y-9202752D01*
X14437800Y-9202752D01*
X14487800Y-9152752D02*
X14487800Y-9181324D01*
X14487800Y-9167038D02*
X14437800Y-9167038D01*
X14444943Y-9171800D01*
X14449705Y-9176562D01*
X14452086Y-9181324D01*
X14442562Y-9133705D02*
X14440181Y-9131324D01*
X14437800Y-9126562D01*
X14437800Y-9114657D01*
X14440181Y-9109895D01*
X14442562Y-9107514D01*
X14447324Y-9105133D01*
X14452086Y-9105133D01*
X14459229Y-9107514D01*
X14487800Y-9136086D01*
X14487800Y-9105133D01*
%TO.C,U11*%
X14437800Y-10501324D02*
X14478276Y-10501324D01*
X14483038Y-10498943D01*
X14485419Y-10496562D01*
X14487800Y-10491800D01*
X14487800Y-10482276D01*
X14485419Y-10477514D01*
X14483038Y-10475133D01*
X14478276Y-10472752D01*
X14437800Y-10472752D01*
X14487800Y-10422752D02*
X14487800Y-10451324D01*
X14487800Y-10437038D02*
X14437800Y-10437038D01*
X14444943Y-10441800D01*
X14449705Y-10446562D01*
X14452086Y-10451324D01*
X14487800Y-10375133D02*
X14487800Y-10403705D01*
X14487800Y-10389419D02*
X14437800Y-10389419D01*
X14444943Y-10394181D01*
X14449705Y-10398943D01*
X14452086Y-10403705D01*
%TO.C,U10*%
X14691800Y-9485324D02*
X14732276Y-9485324D01*
X14737038Y-9482943D01*
X14739419Y-9480562D01*
X14741800Y-9475800D01*
X14741800Y-9466276D01*
X14739419Y-9461514D01*
X14737038Y-9459133D01*
X14732276Y-9456752D01*
X14691800Y-9456752D01*
X14741800Y-9406752D02*
X14741800Y-9435324D01*
X14741800Y-9421038D02*
X14691800Y-9421038D01*
X14698943Y-9425800D01*
X14703705Y-9430562D01*
X14706086Y-9435324D01*
X14691800Y-9375800D02*
X14691800Y-9371038D01*
X14694181Y-9366276D01*
X14696562Y-9363895D01*
X14701324Y-9361514D01*
X14710848Y-9359133D01*
X14722752Y-9359133D01*
X14732276Y-9361514D01*
X14737038Y-9363895D01*
X14739419Y-9366276D01*
X14741800Y-9371038D01*
X14741800Y-9375800D01*
X14739419Y-9380562D01*
X14737038Y-9382943D01*
X14732276Y-9385324D01*
X14722752Y-9387705D01*
X14710848Y-9387705D01*
X14701324Y-9385324D01*
X14696562Y-9382943D01*
X14694181Y-9380562D01*
X14691800Y-9375800D01*
%TO.C,U9*%
X14945800Y-10985514D02*
X14986276Y-10985514D01*
X14991038Y-10983133D01*
X14993419Y-10980752D01*
X14995800Y-10975990D01*
X14995800Y-10966467D01*
X14993419Y-10961705D01*
X14991038Y-10959324D01*
X14986276Y-10956943D01*
X14945800Y-10956943D01*
X14995800Y-10930752D02*
X14995800Y-10921229D01*
X14993419Y-10916467D01*
X14991038Y-10914086D01*
X14983895Y-10909324D01*
X14974371Y-10906943D01*
X14955324Y-10906943D01*
X14950562Y-10909324D01*
X14948181Y-10911705D01*
X14945800Y-10916467D01*
X14945800Y-10925990D01*
X14948181Y-10930752D01*
X14950562Y-10933133D01*
X14955324Y-10935514D01*
X14967229Y-10935514D01*
X14971990Y-10933133D01*
X14974371Y-10930752D01*
X14976752Y-10925990D01*
X14976752Y-10916467D01*
X14974371Y-10911705D01*
X14971990Y-10909324D01*
X14967229Y-10906943D01*
%TO.C,U7*%
X12156800Y-10991514D02*
X12197276Y-10991514D01*
X12202038Y-10989133D01*
X12204419Y-10986752D01*
X12206800Y-10981990D01*
X12206800Y-10972467D01*
X12204419Y-10967705D01*
X12202038Y-10965324D01*
X12197276Y-10962943D01*
X12156800Y-10962943D01*
X12156800Y-10943895D02*
X12156800Y-10910562D01*
X12206800Y-10931990D01*
%TO.C,U6*%
X12151800Y-10223514D02*
X12192276Y-10223514D01*
X12197038Y-10221133D01*
X12199419Y-10218752D01*
X12201800Y-10213990D01*
X12201800Y-10204467D01*
X12199419Y-10199705D01*
X12197038Y-10197324D01*
X12192276Y-10194943D01*
X12151800Y-10194943D01*
X12151800Y-10149705D02*
X12151800Y-10159229D01*
X12154181Y-10163990D01*
X12156562Y-10166371D01*
X12163705Y-10171133D01*
X12173229Y-10173514D01*
X12192276Y-10173514D01*
X12197038Y-10171133D01*
X12199419Y-10168752D01*
X12201800Y-10163990D01*
X12201800Y-10154467D01*
X12199419Y-10149705D01*
X12197038Y-10147324D01*
X12192276Y-10144943D01*
X12180371Y-10144943D01*
X12175609Y-10147324D01*
X12173229Y-10149705D01*
X12170848Y-10154467D01*
X12170848Y-10163990D01*
X12173229Y-10168752D01*
X12175609Y-10171133D01*
X12180371Y-10173514D01*
%TO.C,U5*%
X12156800Y-10737514D02*
X12197276Y-10737514D01*
X12202038Y-10735133D01*
X12204419Y-10732752D01*
X12206800Y-10727990D01*
X12206800Y-10718467D01*
X12204419Y-10713705D01*
X12202038Y-10711324D01*
X12197276Y-10708943D01*
X12156800Y-10708943D01*
X12156800Y-10661324D02*
X12156800Y-10685133D01*
X12180609Y-10687514D01*
X12178229Y-10685133D01*
X12175848Y-10680371D01*
X12175848Y-10668467D01*
X12178229Y-10663705D01*
X12180609Y-10661324D01*
X12185371Y-10658943D01*
X12197276Y-10658943D01*
X12202038Y-10661324D01*
X12204419Y-10663705D01*
X12206800Y-10668467D01*
X12206800Y-10680371D01*
X12204419Y-10685133D01*
X12202038Y-10687514D01*
%TO.C,U4*%
X12156800Y-9975514D02*
X12197276Y-9975514D01*
X12202038Y-9973133D01*
X12204419Y-9970752D01*
X12206800Y-9965990D01*
X12206800Y-9956467D01*
X12204419Y-9951705D01*
X12202038Y-9949324D01*
X12197276Y-9946943D01*
X12156800Y-9946943D01*
X12173467Y-9901705D02*
X12206800Y-9901705D01*
X12154419Y-9913609D02*
X12190133Y-9925514D01*
X12190133Y-9894562D01*
%TO.C,U3*%
X12151800Y-9715514D02*
X12192276Y-9715514D01*
X12197038Y-9713133D01*
X12199419Y-9710752D01*
X12201800Y-9705990D01*
X12201800Y-9696467D01*
X12199419Y-9691705D01*
X12197038Y-9689324D01*
X12192276Y-9686943D01*
X12151800Y-9686943D01*
X12151800Y-9667895D02*
X12151800Y-9636943D01*
X12170848Y-9653609D01*
X12170848Y-9646467D01*
X12173229Y-9641705D01*
X12175609Y-9639324D01*
X12180371Y-9636943D01*
X12192276Y-9636943D01*
X12197038Y-9639324D01*
X12199419Y-9641705D01*
X12201800Y-9646467D01*
X12201800Y-9660752D01*
X12199419Y-9665514D01*
X12197038Y-9667895D01*
%TO.C,U2*%
X12156800Y-10475514D02*
X12197276Y-10475514D01*
X12202038Y-10473133D01*
X12204419Y-10470752D01*
X12206800Y-10465990D01*
X12206800Y-10456467D01*
X12204419Y-10451705D01*
X12202038Y-10449324D01*
X12197276Y-10446943D01*
X12156800Y-10446943D01*
X12161562Y-10425514D02*
X12159181Y-10423133D01*
X12156800Y-10418371D01*
X12156800Y-10406467D01*
X12159181Y-10401705D01*
X12161562Y-10399324D01*
X12166324Y-10396943D01*
X12171086Y-10396943D01*
X12178229Y-10399324D01*
X12206800Y-10427895D01*
X12206800Y-10396943D01*
%TO.C,U1*%
X12156800Y-9475514D02*
X12197276Y-9475514D01*
X12202038Y-9473133D01*
X12204419Y-9470752D01*
X12206800Y-9465990D01*
X12206800Y-9456467D01*
X12204419Y-9451705D01*
X12202038Y-9449324D01*
X12197276Y-9446943D01*
X12156800Y-9446943D01*
X12206800Y-9396943D02*
X12206800Y-9425514D01*
X12206800Y-9411229D02*
X12156800Y-9411229D01*
X12163943Y-9415990D01*
X12168705Y-9420752D01*
X12171086Y-9425514D01*
%TD*%
%LPC*%
D18*
%TO.C,Cap_2*%
X14015181Y-9255419D03*
X14015181Y-9510419D03*
%TD*%
D19*
%TO.C,Cap_4*%
X14030681Y-8396419D03*
X14285681Y-8396419D03*
%TD*%
D18*
%TO.C,Cap_1*%
X14017181Y-8831419D03*
X14017181Y-8576419D03*
%TD*%
D19*
%TO.C,Cap_3*%
X14020181Y-9071419D03*
X14275181Y-9071419D03*
%TD*%
D20*
%TO.C,U102*%
X14719181Y-10243419D03*
%TD*%
%TO.C,U26*%
X13449181Y-11519419D03*
%TD*%
%TO.C,U8*%
X13449181Y-11265419D03*
%TD*%
D21*
%TO.C,U1*%
X13733019Y-10800325D03*
X13773019Y-10800325D03*
X13813019Y-10800325D03*
X13853019Y-10800325D03*
X13893019Y-10800325D03*
X13933019Y-10800325D03*
X13973019Y-10800325D03*
X14013019Y-10800325D03*
X14053019Y-10800325D03*
X14093019Y-10800325D03*
X14133019Y-10800325D03*
X14173019Y-10800325D03*
D22*
X14255519Y-10717826D03*
X14255519Y-10677826D03*
X14255519Y-10637825D03*
X14255519Y-10597826D03*
X14255519Y-10557826D03*
X14255519Y-10517825D03*
X14255519Y-10477825D03*
X14255519Y-10437825D03*
X14255519Y-10397825D03*
X14255519Y-10357825D03*
X14255519Y-10317825D03*
X14255519Y-10277825D03*
D21*
X14173019Y-10195325D03*
X14133019Y-10195325D03*
X14093019Y-10195325D03*
X14053019Y-10195325D03*
X14013019Y-10195325D03*
X13973019Y-10195325D03*
X13933019Y-10195325D03*
X13893019Y-10195325D03*
X13853019Y-10195325D03*
X13813019Y-10195325D03*
X13773019Y-10195325D03*
X13733019Y-10195325D03*
D22*
X13650519Y-10277825D03*
X13650519Y-10317826D03*
X13650519Y-10357825D03*
X13650519Y-10397825D03*
X13650519Y-10437826D03*
X13650519Y-10477825D03*
X13650519Y-10517826D03*
X13650519Y-10557826D03*
X13650519Y-10597826D03*
X13650519Y-10637826D03*
X13650519Y-10677826D03*
X13650519Y-10717826D03*
D23*
X13953019Y-10497825D03*
%TD*%
D20*
%TO.C,U33*%
X14719181Y-11265419D03*
%TD*%
%TO.C,U31*%
X15481181Y-10757419D03*
%TD*%
%TO.C,U25*%
X15222181Y-11513419D03*
%TD*%
%TO.C,U20*%
X15222181Y-10497419D03*
%TD*%
%TO.C,U19*%
X14719181Y-9741419D03*
%TD*%
D24*
%TO.C,C12*%
X14222259Y-11194586D03*
X14222259Y-11294586D03*
%TD*%
D25*
%TO.C,C10*%
X13221899Y-10728685D03*
D10*
G36*
X13276337Y-10735222D02*
G01*
X13218884Y-10783431D01*
X13167461Y-10722148D01*
X13224914Y-10673939D01*
X13276337Y-10735222D01*
X13276337Y-10735222D01*
G37*
D25*
X13118483Y-10815462D03*
D10*
G36*
X13172921Y-10821999D02*
G01*
X13115468Y-10870208D01*
X13064045Y-10808925D01*
X13121498Y-10760716D01*
X13172921Y-10821999D01*
X13172921Y-10821999D01*
G37*
%TD*%
D26*
%TO.C,L3*%
X13292938Y-10810121D03*
D10*
G36*
X13333904Y-10808382D02*
G01*
X13284111Y-10850163D01*
X13251972Y-10811861D01*
X13301765Y-10770079D01*
X13333904Y-10808382D01*
X13333904Y-10808382D01*
G37*
D26*
X13220164Y-10871186D03*
D10*
G36*
X13261130Y-10869447D02*
G01*
X13211337Y-10911228D01*
X13179198Y-10872926D01*
X13228991Y-10831144D01*
X13261130Y-10869447D01*
X13261130Y-10869447D01*
G37*
%TD*%
D27*
%TO.C,L2*%
X13397323Y-10723885D03*
X13532323Y-10723885D03*
%TD*%
D24*
%TO.C,C4*%
X13765059Y-10981226D03*
X13765059Y-11081226D03*
%TD*%
%TO.C,C5*%
X14361959Y-10732306D03*
X14361959Y-10832306D03*
%TD*%
%TO.C,C7*%
X13691399Y-10019505D03*
X13691399Y-9919505D03*
%TD*%
D28*
%TO.C,C1*%
X13443261Y-9649482D03*
X13543261Y-9649482D03*
%TD*%
D29*
%TO.C,X1*%
X13550761Y-9899782D03*
X13435761Y-9899782D03*
X13435761Y-9754782D03*
X13550761Y-9754782D03*
%TD*%
D28*
%TO.C,C8*%
X13543261Y-10093982D03*
X13443261Y-10093982D03*
%TD*%
D30*
%TO.C,C9*%
X13660919Y-11098725D03*
X13660919Y-10963725D03*
%TD*%
D24*
%TO.C,C6*%
X13780299Y-9919506D03*
X13780299Y-10019506D03*
%TD*%
D28*
%TO.C,C2*%
X13543261Y-10005082D03*
X13443261Y-10005082D03*
%TD*%
%TO.C,C3*%
X13903019Y-10078725D03*
X14003019Y-10078725D03*
%TD*%
D31*
%TO.C,X2*%
X14116119Y-11244585D03*
X13866120Y-11244585D03*
%TD*%
D28*
%TO.C,C11*%
X13857299Y-11102345D03*
X13957299Y-11102345D03*
%TD*%
D24*
%TO.C,C13*%
X13295159Y-10629105D03*
X13295159Y-10529105D03*
%TD*%
D20*
%TO.C,U32*%
X14973181Y-11519419D03*
%TD*%
%TO.C,U30*%
X15227181Y-11265419D03*
%TD*%
%TO.C,U29*%
X14719181Y-11519419D03*
%TD*%
%TO.C,U28*%
X15476181Y-11513419D03*
%TD*%
%TO.C,U27*%
X15476181Y-10497419D03*
%TD*%
%TO.C,U24*%
X15735181Y-11265419D03*
%TD*%
%TO.C,U23*%
X15481181Y-10249419D03*
%TD*%
%TO.C,U102*%
X14968181Y-10243419D03*
%TD*%
%TO.C,U21*%
X14968181Y-11259419D03*
%TD*%
%TO.C,U18*%
X14991181Y-10494419D03*
%TD*%
%TO.C,U17*%
X15222181Y-10751419D03*
%TD*%
%TO.C,U16*%
X14968181Y-9735419D03*
%TD*%
%TO.C,U15*%
X14714181Y-9481419D03*
%TD*%
%TO.C,U14*%
X14714181Y-10751419D03*
%TD*%
%TO.C,U13*%
X15222181Y-10243419D03*
%TD*%
%TO.C,U12*%
X14968181Y-9481419D03*
%TD*%
%TO.C,U11*%
X14968181Y-10751419D03*
%TD*%
%TO.C,U10*%
X15222181Y-9735419D03*
%TD*%
%TO.C,U9*%
X15476181Y-11259419D03*
%TD*%
%TO.C,U7*%
X12687181Y-11265419D03*
%TD*%
%TO.C,U6*%
X12682181Y-10497419D03*
%TD*%
%TO.C,U5*%
X12687181Y-11011419D03*
%TD*%
%TO.C,U4*%
X12687181Y-10249419D03*
%TD*%
%TO.C,U3*%
X12682181Y-9989419D03*
%TD*%
%TO.C,U2*%
X12687181Y-10749419D03*
%TD*%
%TO.C,U1*%
X12687181Y-9749419D03*
%TD*%
M02*
