G04 #@! TF.GenerationSoftware,KiCad,Pcbnew,(5.1.0)-1*
G04 #@! TF.CreationDate,2019-07-07T14:12:53+03:00*
G04 #@! TF.ProjectId,bluetooth,626c7565-746f-46f7-9468-2e6b69636164,rev?*
G04 #@! TF.SameCoordinates,Original*
G04 #@! TF.FileFunction,Copper,L1,Top*
G04 #@! TF.FilePolarity,Positive*
%FSLAX46Y46*%
G04 Gerber Fmt 4.6, Leading zero omitted, Abs format (unit mm)*
G04 Created by KiCad (PCBNEW (5.1.0)-1) date 2019-07-07 14:12:53*
%MOMM*%
%LPD*%
G04 APERTURE LIST*
%ADD10C,0.100000*%
%ADD11C,0.150000*%
%ADD12C,0.300000*%
%ADD13C,0.400000*%
G04 #@! TA.AperFunction,ComponentPad*
%ADD14C,1.300000*%
G04 #@! TD*
G04 #@! TA.AperFunction,SMDPad,CuDef*
%ADD15O,0.650000X0.200000*%
G04 #@! TD*
G04 #@! TA.AperFunction,SMDPad,CuDef*
%ADD16O,0.200000X0.650000*%
G04 #@! TD*
G04 #@! TA.AperFunction,SMDPad,CuDef*
%ADD17R,4.700000X4.700000*%
G04 #@! TD*
G04 #@! TA.AperFunction,SMDPad,CuDef*
%ADD18R,0.600000X0.500000*%
G04 #@! TD*
G04 #@! TA.AperFunction,SMDPad,CuDef*
%ADD19C,0.750000*%
G04 #@! TD*
G04 #@! TA.AperFunction,Conductor*
%ADD20C,0.100000*%
G04 #@! TD*
G04 #@! TA.AperFunction,SMDPad,CuDef*
%ADD21C,0.500000*%
G04 #@! TD*
G04 #@! TA.AperFunction,SMDPad,CuDef*
%ADD22R,0.800000X0.750000*%
G04 #@! TD*
G04 #@! TA.AperFunction,SMDPad,CuDef*
%ADD23R,0.500000X0.600000*%
G04 #@! TD*
G04 #@! TA.AperFunction,SMDPad,CuDef*
%ADD24R,0.950000X0.850000*%
G04 #@! TD*
G04 #@! TA.AperFunction,SMDPad,CuDef*
%ADD25R,0.750000X0.800000*%
G04 #@! TD*
G04 #@! TA.AperFunction,SMDPad,CuDef*
%ADD26R,0.650000X0.500000*%
G04 #@! TD*
G04 #@! TA.AperFunction,SMDPad,CuDef*
%ADD27R,1.800000X1.000000*%
G04 #@! TD*
G04 #@! TA.AperFunction,ViaPad*
%ADD28C,0.609600*%
G04 #@! TD*
G04 #@! TA.AperFunction,ViaPad*
%ADD29C,0.660000*%
G04 #@! TD*
G04 #@! TA.AperFunction,Conductor*
%ADD30C,0.152400*%
G04 #@! TD*
G04 #@! TA.AperFunction,Conductor*
%ADD31C,0.762000*%
G04 #@! TD*
G04 #@! TA.AperFunction,Conductor*
%ADD32C,0.254000*%
G04 #@! TD*
G04 #@! TA.AperFunction,Conductor*
%ADD33C,0.228600*%
G04 #@! TD*
G04 #@! TA.AperFunction,Conductor*
%ADD34C,0.381000*%
G04 #@! TD*
G04 #@! TA.AperFunction,Conductor*
%ADD35C,0.508000*%
G04 #@! TD*
G04 #@! TA.AperFunction,Conductor*
%ADD36C,0.203200*%
G04 #@! TD*
G04 #@! TA.AperFunction,Conductor*
%ADD37C,0.279400*%
G04 #@! TD*
G04 APERTURE END LIST*
D10*
D11*
X177002200Y-166007200D02*
X177002200Y-198007200D01*
X285002200Y-198007200D01*
X285002200Y-166007200D01*
X177002200Y-166007200D01*
D10*
D11*
X10000000Y-10000000D02*
X10000000Y-200007200D01*
X287002200Y-200007200D01*
X287002200Y-10000000D01*
X10000000Y-10000000D01*
D10*
D11*
X12000000Y-12000000D02*
X12000000Y-198007200D01*
X285002200Y-198007200D01*
X285002200Y-12000000D01*
X12000000Y-12000000D01*
D10*
D11*
X60000000Y-12000000D02*
X60000000Y-10000000D01*
D10*
D11*
X110000000Y-12000000D02*
X110000000Y-10000000D01*
D10*
D11*
X160000000Y-12000000D02*
X160000000Y-10000000D01*
D10*
D11*
X210000000Y-12000000D02*
X210000000Y-10000000D01*
D10*
D11*
X260000000Y-12000000D02*
X260000000Y-10000000D01*
D10*
D11*
X36065476Y-11588095D02*
X35322619Y-11588095D01*
X35694047Y-11588095D02*
X35694047Y-10288095D01*
X35570238Y-10473809D01*
X35446428Y-10597619D01*
X35322619Y-10659523D01*
D10*
D11*
X85322619Y-10411904D02*
X85384523Y-10350000D01*
X85508333Y-10288095D01*
X85817857Y-10288095D01*
X85941666Y-10350000D01*
X86003571Y-10411904D01*
X86065476Y-10535714D01*
X86065476Y-10659523D01*
X86003571Y-10845238D01*
X85260714Y-11588095D01*
X86065476Y-11588095D01*
D10*
D11*
X135260714Y-10288095D02*
X136065476Y-10288095D01*
X135632142Y-10783333D01*
X135817857Y-10783333D01*
X135941666Y-10845238D01*
X136003571Y-10907142D01*
X136065476Y-11030952D01*
X136065476Y-11340476D01*
X136003571Y-11464285D01*
X135941666Y-11526190D01*
X135817857Y-11588095D01*
X135446428Y-11588095D01*
X135322619Y-11526190D01*
X135260714Y-11464285D01*
D10*
D11*
X185941666Y-10721428D02*
X185941666Y-11588095D01*
X185632142Y-10226190D02*
X185322619Y-11154761D01*
X186127380Y-11154761D01*
D10*
D11*
X236003571Y-10288095D02*
X235384523Y-10288095D01*
X235322619Y-10907142D01*
X235384523Y-10845238D01*
X235508333Y-10783333D01*
X235817857Y-10783333D01*
X235941666Y-10845238D01*
X236003571Y-10907142D01*
X236065476Y-11030952D01*
X236065476Y-11340476D01*
X236003571Y-11464285D01*
X235941666Y-11526190D01*
X235817857Y-11588095D01*
X235508333Y-11588095D01*
X235384523Y-11526190D01*
X235322619Y-11464285D01*
D10*
D11*
X285941666Y-10288095D02*
X285694047Y-10288095D01*
X285570238Y-10350000D01*
X285508333Y-10411904D01*
X285384523Y-10597619D01*
X285322619Y-10845238D01*
X285322619Y-11340476D01*
X285384523Y-11464285D01*
X285446428Y-11526190D01*
X285570238Y-11588095D01*
X285817857Y-11588095D01*
X285941666Y-11526190D01*
X286003571Y-11464285D01*
X286065476Y-11340476D01*
X286065476Y-11030952D01*
X286003571Y-10907142D01*
X285941666Y-10845238D01*
X285817857Y-10783333D01*
X285570238Y-10783333D01*
X285446428Y-10845238D01*
X285384523Y-10907142D01*
X285322619Y-11030952D01*
D10*
D11*
X60000000Y-198007200D02*
X60000000Y-200007200D01*
D10*
D11*
X110000000Y-198007200D02*
X110000000Y-200007200D01*
D10*
D11*
X160000000Y-198007200D02*
X160000000Y-200007200D01*
D10*
D11*
X210000000Y-198007200D02*
X210000000Y-200007200D01*
D10*
D11*
X260000000Y-198007200D02*
X260000000Y-200007200D01*
D10*
D11*
X36065476Y-199595295D02*
X35322619Y-199595295D01*
X35694047Y-199595295D02*
X35694047Y-198295295D01*
X35570238Y-198481009D01*
X35446428Y-198604819D01*
X35322619Y-198666723D01*
D10*
D11*
X85322619Y-198419104D02*
X85384523Y-198357200D01*
X85508333Y-198295295D01*
X85817857Y-198295295D01*
X85941666Y-198357200D01*
X86003571Y-198419104D01*
X86065476Y-198542914D01*
X86065476Y-198666723D01*
X86003571Y-198852438D01*
X85260714Y-199595295D01*
X86065476Y-199595295D01*
D10*
D11*
X135260714Y-198295295D02*
X136065476Y-198295295D01*
X135632142Y-198790533D01*
X135817857Y-198790533D01*
X135941666Y-198852438D01*
X136003571Y-198914342D01*
X136065476Y-199038152D01*
X136065476Y-199347676D01*
X136003571Y-199471485D01*
X135941666Y-199533390D01*
X135817857Y-199595295D01*
X135446428Y-199595295D01*
X135322619Y-199533390D01*
X135260714Y-199471485D01*
D10*
D11*
X185941666Y-198728628D02*
X185941666Y-199595295D01*
X185632142Y-198233390D02*
X185322619Y-199161961D01*
X186127380Y-199161961D01*
D10*
D11*
X236003571Y-198295295D02*
X235384523Y-198295295D01*
X235322619Y-198914342D01*
X235384523Y-198852438D01*
X235508333Y-198790533D01*
X235817857Y-198790533D01*
X235941666Y-198852438D01*
X236003571Y-198914342D01*
X236065476Y-199038152D01*
X236065476Y-199347676D01*
X236003571Y-199471485D01*
X235941666Y-199533390D01*
X235817857Y-199595295D01*
X235508333Y-199595295D01*
X235384523Y-199533390D01*
X235322619Y-199471485D01*
D10*
D11*
X285941666Y-198295295D02*
X285694047Y-198295295D01*
X285570238Y-198357200D01*
X285508333Y-198419104D01*
X285384523Y-198604819D01*
X285322619Y-198852438D01*
X285322619Y-199347676D01*
X285384523Y-199471485D01*
X285446428Y-199533390D01*
X285570238Y-199595295D01*
X285817857Y-199595295D01*
X285941666Y-199533390D01*
X286003571Y-199471485D01*
X286065476Y-199347676D01*
X286065476Y-199038152D01*
X286003571Y-198914342D01*
X285941666Y-198852438D01*
X285817857Y-198790533D01*
X285570238Y-198790533D01*
X285446428Y-198852438D01*
X285384523Y-198914342D01*
X285322619Y-199038152D01*
D10*
D11*
X10000000Y-60000000D02*
X12000000Y-60000000D01*
D10*
D11*
X10000000Y-110000000D02*
X12000000Y-110000000D01*
D10*
D11*
X10000000Y-160000000D02*
X12000000Y-160000000D01*
D10*
D11*
X10690476Y-35216666D02*
X11309523Y-35216666D01*
X10566666Y-35588095D02*
X11000000Y-34288095D01*
X11433333Y-35588095D01*
D10*
D11*
X11092857Y-84907142D02*
X11278571Y-84969047D01*
X11340476Y-85030952D01*
X11402380Y-85154761D01*
X11402380Y-85340476D01*
X11340476Y-85464285D01*
X11278571Y-85526190D01*
X11154761Y-85588095D01*
X10659523Y-85588095D01*
X10659523Y-84288095D01*
X11092857Y-84288095D01*
X11216666Y-84350000D01*
X11278571Y-84411904D01*
X11340476Y-84535714D01*
X11340476Y-84659523D01*
X11278571Y-84783333D01*
X11216666Y-84845238D01*
X11092857Y-84907142D01*
X10659523Y-84907142D01*
D10*
D11*
X11402380Y-135464285D02*
X11340476Y-135526190D01*
X11154761Y-135588095D01*
X11030952Y-135588095D01*
X10845238Y-135526190D01*
X10721428Y-135402380D01*
X10659523Y-135278571D01*
X10597619Y-135030952D01*
X10597619Y-134845238D01*
X10659523Y-134597619D01*
X10721428Y-134473809D01*
X10845238Y-134350000D01*
X11030952Y-134288095D01*
X11154761Y-134288095D01*
X11340476Y-134350000D01*
X11402380Y-134411904D01*
D10*
D11*
X10659523Y-185588095D02*
X10659523Y-184288095D01*
X10969047Y-184288095D01*
X11154761Y-184350000D01*
X11278571Y-184473809D01*
X11340476Y-184597619D01*
X11402380Y-184845238D01*
X11402380Y-185030952D01*
X11340476Y-185278571D01*
X11278571Y-185402380D01*
X11154761Y-185526190D01*
X10969047Y-185588095D01*
X10659523Y-185588095D01*
D10*
D11*
X287002200Y-60000000D02*
X285002200Y-60000000D01*
D10*
D11*
X287002200Y-110000000D02*
X285002200Y-110000000D01*
D10*
D11*
X287002200Y-160000000D02*
X285002200Y-160000000D01*
D10*
D11*
X285692676Y-35216666D02*
X286311723Y-35216666D01*
X285568866Y-35588095D02*
X286002200Y-34288095D01*
X286435533Y-35588095D01*
D10*
D11*
X286095057Y-84907142D02*
X286280771Y-84969047D01*
X286342676Y-85030952D01*
X286404580Y-85154761D01*
X286404580Y-85340476D01*
X286342676Y-85464285D01*
X286280771Y-85526190D01*
X286156961Y-85588095D01*
X285661723Y-85588095D01*
X285661723Y-84288095D01*
X286095057Y-84288095D01*
X286218866Y-84350000D01*
X286280771Y-84411904D01*
X286342676Y-84535714D01*
X286342676Y-84659523D01*
X286280771Y-84783333D01*
X286218866Y-84845238D01*
X286095057Y-84907142D01*
X285661723Y-84907142D01*
D10*
D11*
X286404580Y-135464285D02*
X286342676Y-135526190D01*
X286156961Y-135588095D01*
X286033152Y-135588095D01*
X285847438Y-135526190D01*
X285723628Y-135402380D01*
X285661723Y-135278571D01*
X285599819Y-135030952D01*
X285599819Y-134845238D01*
X285661723Y-134597619D01*
X285723628Y-134473809D01*
X285847438Y-134350000D01*
X286033152Y-134288095D01*
X286156961Y-134288095D01*
X286342676Y-134350000D01*
X286404580Y-134411904D01*
D10*
D11*
X285661723Y-185588095D02*
X285661723Y-184288095D01*
X285971247Y-184288095D01*
X286156961Y-184350000D01*
X286280771Y-184473809D01*
X286342676Y-184597619D01*
X286404580Y-184845238D01*
X286404580Y-185030952D01*
X286342676Y-185278571D01*
X286280771Y-185402380D01*
X286156961Y-185526190D01*
X285971247Y-185588095D01*
X285661723Y-185588095D01*
D10*
D11*
X200434342Y-193785771D02*
X200434342Y-192285771D01*
X200791485Y-192285771D01*
X201005771Y-192357200D01*
X201148628Y-192500057D01*
X201220057Y-192642914D01*
X201291485Y-192928628D01*
X201291485Y-193142914D01*
X201220057Y-193428628D01*
X201148628Y-193571485D01*
X201005771Y-193714342D01*
X200791485Y-193785771D01*
X200434342Y-193785771D01*
X202577200Y-193785771D02*
X202577200Y-193000057D01*
X202505771Y-192857200D01*
X202362914Y-192785771D01*
X202077200Y-192785771D01*
X201934342Y-192857200D01*
X202577200Y-193714342D02*
X202434342Y-193785771D01*
X202077200Y-193785771D01*
X201934342Y-193714342D01*
X201862914Y-193571485D01*
X201862914Y-193428628D01*
X201934342Y-193285771D01*
X202077200Y-193214342D01*
X202434342Y-193214342D01*
X202577200Y-193142914D01*
X203077200Y-192785771D02*
X203648628Y-192785771D01*
X203291485Y-192285771D02*
X203291485Y-193571485D01*
X203362914Y-193714342D01*
X203505771Y-193785771D01*
X203648628Y-193785771D01*
X204720057Y-193714342D02*
X204577200Y-193785771D01*
X204291485Y-193785771D01*
X204148628Y-193714342D01*
X204077200Y-193571485D01*
X204077200Y-193000057D01*
X204148628Y-192857200D01*
X204291485Y-192785771D01*
X204577200Y-192785771D01*
X204720057Y-192857200D01*
X204791485Y-193000057D01*
X204791485Y-193142914D01*
X204077200Y-193285771D01*
X205434342Y-193642914D02*
X205505771Y-193714342D01*
X205434342Y-193785771D01*
X205362914Y-193714342D01*
X205434342Y-193642914D01*
X205434342Y-193785771D01*
X205434342Y-192857200D02*
X205505771Y-192928628D01*
X205434342Y-193000057D01*
X205362914Y-192928628D01*
X205434342Y-192857200D01*
X205434342Y-193000057D01*
D10*
D11*
X177002200Y-194507200D02*
X285002200Y-194507200D01*
D10*
D11*
X178434342Y-196585771D02*
X178434342Y-195085771D01*
X179291485Y-196585771D02*
X178648628Y-195728628D01*
X179291485Y-195085771D02*
X178434342Y-195942914D01*
X179934342Y-196585771D02*
X179934342Y-195585771D01*
X179934342Y-195085771D02*
X179862914Y-195157200D01*
X179934342Y-195228628D01*
X180005771Y-195157200D01*
X179934342Y-195085771D01*
X179934342Y-195228628D01*
X181505771Y-196442914D02*
X181434342Y-196514342D01*
X181220057Y-196585771D01*
X181077200Y-196585771D01*
X180862914Y-196514342D01*
X180720057Y-196371485D01*
X180648628Y-196228628D01*
X180577200Y-195942914D01*
X180577200Y-195728628D01*
X180648628Y-195442914D01*
X180720057Y-195300057D01*
X180862914Y-195157200D01*
X181077200Y-195085771D01*
X181220057Y-195085771D01*
X181434342Y-195157200D01*
X181505771Y-195228628D01*
X182791485Y-196585771D02*
X182791485Y-195800057D01*
X182720057Y-195657200D01*
X182577200Y-195585771D01*
X182291485Y-195585771D01*
X182148628Y-195657200D01*
X182791485Y-196514342D02*
X182648628Y-196585771D01*
X182291485Y-196585771D01*
X182148628Y-196514342D01*
X182077200Y-196371485D01*
X182077200Y-196228628D01*
X182148628Y-196085771D01*
X182291485Y-196014342D01*
X182648628Y-196014342D01*
X182791485Y-195942914D01*
X184148628Y-196585771D02*
X184148628Y-195085771D01*
X184148628Y-196514342D02*
X184005771Y-196585771D01*
X183720057Y-196585771D01*
X183577200Y-196514342D01*
X183505771Y-196442914D01*
X183434342Y-196300057D01*
X183434342Y-195871485D01*
X183505771Y-195728628D01*
X183577200Y-195657200D01*
X183720057Y-195585771D01*
X184005771Y-195585771D01*
X184148628Y-195657200D01*
X186005771Y-195800057D02*
X186505771Y-195800057D01*
X186720057Y-196585771D02*
X186005771Y-196585771D01*
X186005771Y-195085771D01*
X186720057Y-195085771D01*
X187362914Y-196442914D02*
X187434342Y-196514342D01*
X187362914Y-196585771D01*
X187291485Y-196514342D01*
X187362914Y-196442914D01*
X187362914Y-196585771D01*
X188077200Y-196585771D02*
X188077200Y-195085771D01*
X188434342Y-195085771D01*
X188648628Y-195157200D01*
X188791485Y-195300057D01*
X188862914Y-195442914D01*
X188934342Y-195728628D01*
X188934342Y-195942914D01*
X188862914Y-196228628D01*
X188791485Y-196371485D01*
X188648628Y-196514342D01*
X188434342Y-196585771D01*
X188077200Y-196585771D01*
X189577200Y-196442914D02*
X189648628Y-196514342D01*
X189577200Y-196585771D01*
X189505771Y-196514342D01*
X189577200Y-196442914D01*
X189577200Y-196585771D01*
X190220057Y-196157200D02*
X190934342Y-196157200D01*
X190077200Y-196585771D02*
X190577200Y-195085771D01*
X191077200Y-196585771D01*
X191577200Y-196442914D02*
X191648628Y-196514342D01*
X191577200Y-196585771D01*
X191505771Y-196514342D01*
X191577200Y-196442914D01*
X191577200Y-196585771D01*
X194577200Y-196585771D02*
X194577200Y-195085771D01*
X194720057Y-196014342D02*
X195148628Y-196585771D01*
X195148628Y-195585771D02*
X194577200Y-196157200D01*
X195791485Y-196585771D02*
X195791485Y-195585771D01*
X195791485Y-195085771D02*
X195720057Y-195157200D01*
X195791485Y-195228628D01*
X195862914Y-195157200D01*
X195791485Y-195085771D01*
X195791485Y-195228628D01*
X197148628Y-196514342D02*
X197005771Y-196585771D01*
X196720057Y-196585771D01*
X196577200Y-196514342D01*
X196505771Y-196442914D01*
X196434342Y-196300057D01*
X196434342Y-195871485D01*
X196505771Y-195728628D01*
X196577200Y-195657200D01*
X196720057Y-195585771D01*
X197005771Y-195585771D01*
X197148628Y-195657200D01*
X198434342Y-196585771D02*
X198434342Y-195800057D01*
X198362914Y-195657200D01*
X198220057Y-195585771D01*
X197934342Y-195585771D01*
X197791485Y-195657200D01*
X198434342Y-196514342D02*
X198291485Y-196585771D01*
X197934342Y-196585771D01*
X197791485Y-196514342D01*
X197720057Y-196371485D01*
X197720057Y-196228628D01*
X197791485Y-196085771D01*
X197934342Y-196014342D01*
X198291485Y-196014342D01*
X198434342Y-195942914D01*
X199791485Y-196585771D02*
X199791485Y-195085771D01*
X199791485Y-196514342D02*
X199648628Y-196585771D01*
X199362914Y-196585771D01*
X199220057Y-196514342D01*
X199148628Y-196442914D01*
X199077200Y-196300057D01*
X199077200Y-195871485D01*
X199148628Y-195728628D01*
X199220057Y-195657200D01*
X199362914Y-195585771D01*
X199648628Y-195585771D01*
X199791485Y-195657200D01*
X202077200Y-197157200D02*
X202005771Y-197085771D01*
X201862914Y-196871485D01*
X201791485Y-196728628D01*
X201720057Y-196514342D01*
X201648628Y-196157200D01*
X201648628Y-195871485D01*
X201720057Y-195514342D01*
X201791485Y-195300057D01*
X201862914Y-195157200D01*
X202005771Y-194942914D01*
X202077200Y-194871485D01*
X203362914Y-195085771D02*
X202648628Y-195085771D01*
X202577200Y-195800057D01*
X202648628Y-195728628D01*
X202791485Y-195657200D01*
X203148628Y-195657200D01*
X203291485Y-195728628D01*
X203362914Y-195800057D01*
X203434342Y-195942914D01*
X203434342Y-196300057D01*
X203362914Y-196442914D01*
X203291485Y-196514342D01*
X203148628Y-196585771D01*
X202791485Y-196585771D01*
X202648628Y-196514342D01*
X202577200Y-196442914D01*
X204077200Y-196442914D02*
X204148628Y-196514342D01*
X204077200Y-196585771D01*
X204005771Y-196514342D01*
X204077200Y-196442914D01*
X204077200Y-196585771D01*
X205577200Y-196585771D02*
X204720057Y-196585771D01*
X205148628Y-196585771D02*
X205148628Y-195085771D01*
X205005771Y-195300057D01*
X204862914Y-195442914D01*
X204720057Y-195514342D01*
X206220057Y-196442914D02*
X206291485Y-196514342D01*
X206220057Y-196585771D01*
X206148628Y-196514342D01*
X206220057Y-196442914D01*
X206220057Y-196585771D01*
X207220057Y-195085771D02*
X207362914Y-195085771D01*
X207505771Y-195157200D01*
X207577200Y-195228628D01*
X207648628Y-195371485D01*
X207720057Y-195657200D01*
X207720057Y-196014342D01*
X207648628Y-196300057D01*
X207577200Y-196442914D01*
X207505771Y-196514342D01*
X207362914Y-196585771D01*
X207220057Y-196585771D01*
X207077200Y-196514342D01*
X207005771Y-196442914D01*
X206934342Y-196300057D01*
X206862914Y-196014342D01*
X206862914Y-195657200D01*
X206934342Y-195371485D01*
X207005771Y-195228628D01*
X207077200Y-195157200D01*
X207220057Y-195085771D01*
X208220057Y-197157200D02*
X208291485Y-197085771D01*
X208434342Y-196871485D01*
X208505771Y-196728628D01*
X208577200Y-196514342D01*
X208648628Y-196157200D01*
X208648628Y-195871485D01*
X208577200Y-195514342D01*
X208505771Y-195300057D01*
X208434342Y-195157200D01*
X208291485Y-194942914D01*
X208220057Y-194871485D01*
X209362914Y-196014342D02*
X210505771Y-196014342D01*
X212005771Y-196585771D02*
X211148628Y-196585771D01*
X211577200Y-196585771D02*
X211577200Y-195085771D01*
X211434342Y-195300057D01*
X211291485Y-195442914D01*
X211148628Y-195514342D01*
D10*
D11*
X177002200Y-191507200D02*
X285002200Y-191507200D01*
D10*
D12*
X264411485Y-193785771D02*
X263911485Y-193071485D01*
X263554342Y-193785771D02*
X263554342Y-192285771D01*
X264125771Y-192285771D01*
X264268628Y-192357200D01*
X264340057Y-192428628D01*
X264411485Y-192571485D01*
X264411485Y-192785771D01*
X264340057Y-192928628D01*
X264268628Y-193000057D01*
X264125771Y-193071485D01*
X263554342Y-193071485D01*
X265625771Y-193714342D02*
X265482914Y-193785771D01*
X265197200Y-193785771D01*
X265054342Y-193714342D01*
X264982914Y-193571485D01*
X264982914Y-193000057D01*
X265054342Y-192857200D01*
X265197200Y-192785771D01*
X265482914Y-192785771D01*
X265625771Y-192857200D01*
X265697200Y-193000057D01*
X265697200Y-193142914D01*
X264982914Y-193285771D01*
X266197200Y-192785771D02*
X266554342Y-193785771D01*
X266911485Y-192785771D01*
X267482914Y-193642914D02*
X267554342Y-193714342D01*
X267482914Y-193785771D01*
X267411485Y-193714342D01*
X267482914Y-193642914D01*
X267482914Y-193785771D01*
X267482914Y-192857200D02*
X267554342Y-192928628D01*
X267482914Y-193000057D01*
X267411485Y-192928628D01*
X267482914Y-192857200D01*
X267482914Y-193000057D01*
D10*
D11*
X178362914Y-193714342D02*
X178577200Y-193785771D01*
X178934342Y-193785771D01*
X179077200Y-193714342D01*
X179148628Y-193642914D01*
X179220057Y-193500057D01*
X179220057Y-193357200D01*
X179148628Y-193214342D01*
X179077200Y-193142914D01*
X178934342Y-193071485D01*
X178648628Y-193000057D01*
X178505771Y-192928628D01*
X178434342Y-192857200D01*
X178362914Y-192714342D01*
X178362914Y-192571485D01*
X178434342Y-192428628D01*
X178505771Y-192357200D01*
X178648628Y-192285771D01*
X179005771Y-192285771D01*
X179220057Y-192357200D01*
X179862914Y-193785771D02*
X179862914Y-192785771D01*
X179862914Y-192285771D02*
X179791485Y-192357200D01*
X179862914Y-192428628D01*
X179934342Y-192357200D01*
X179862914Y-192285771D01*
X179862914Y-192428628D01*
X180434342Y-192785771D02*
X181220057Y-192785771D01*
X180434342Y-193785771D01*
X181220057Y-193785771D01*
X182362914Y-193714342D02*
X182220057Y-193785771D01*
X181934342Y-193785771D01*
X181791485Y-193714342D01*
X181720057Y-193571485D01*
X181720057Y-193000057D01*
X181791485Y-192857200D01*
X181934342Y-192785771D01*
X182220057Y-192785771D01*
X182362914Y-192857200D01*
X182434342Y-193000057D01*
X182434342Y-193142914D01*
X181720057Y-193285771D01*
X183077200Y-193642914D02*
X183148628Y-193714342D01*
X183077200Y-193785771D01*
X183005771Y-193714342D01*
X183077200Y-193642914D01*
X183077200Y-193785771D01*
X183077200Y-192857200D02*
X183148628Y-192928628D01*
X183077200Y-193000057D01*
X183005771Y-192928628D01*
X183077200Y-192857200D01*
X183077200Y-193000057D01*
X184862914Y-193357200D02*
X185577200Y-193357200D01*
X184720057Y-193785771D02*
X185220057Y-192285771D01*
X185720057Y-193785771D01*
X186862914Y-192785771D02*
X186862914Y-193785771D01*
X186505771Y-192214342D02*
X186148628Y-193285771D01*
X187077200Y-193285771D01*
D10*
D11*
X263434342Y-196585771D02*
X263434342Y-195085771D01*
X264791485Y-196585771D02*
X264791485Y-195085771D01*
X264791485Y-196514342D02*
X264648628Y-196585771D01*
X264362914Y-196585771D01*
X264220057Y-196514342D01*
X264148628Y-196442914D01*
X264077200Y-196300057D01*
X264077200Y-195871485D01*
X264148628Y-195728628D01*
X264220057Y-195657200D01*
X264362914Y-195585771D01*
X264648628Y-195585771D01*
X264791485Y-195657200D01*
X265505771Y-196442914D02*
X265577200Y-196514342D01*
X265505771Y-196585771D01*
X265434342Y-196514342D01*
X265505771Y-196442914D01*
X265505771Y-196585771D01*
X265505771Y-195657200D02*
X265577200Y-195728628D01*
X265505771Y-195800057D01*
X265434342Y-195728628D01*
X265505771Y-195657200D01*
X265505771Y-195800057D01*
X268148628Y-196585771D02*
X267291485Y-196585771D01*
X267720057Y-196585771D02*
X267720057Y-195085771D01*
X267577200Y-195300057D01*
X267434342Y-195442914D01*
X267291485Y-195514342D01*
X269862914Y-195014342D02*
X268577200Y-196942914D01*
X271148628Y-196585771D02*
X270291485Y-196585771D01*
X270720057Y-196585771D02*
X270720057Y-195085771D01*
X270577200Y-195300057D01*
X270434342Y-195442914D01*
X270291485Y-195514342D01*
D10*
D11*
X177002200Y-187507200D02*
X285002200Y-187507200D01*
D10*
D13*
X178714580Y-188211961D02*
X179857438Y-188211961D01*
X179036009Y-190211961D02*
X179286009Y-188211961D01*
X180274104Y-190211961D02*
X180440771Y-188878628D01*
X180524104Y-188211961D02*
X180416961Y-188307200D01*
X180500295Y-188402438D01*
X180607438Y-188307200D01*
X180524104Y-188211961D01*
X180500295Y-188402438D01*
X181107438Y-188878628D02*
X181869342Y-188878628D01*
X181476485Y-188211961D02*
X181262200Y-189926247D01*
X181333628Y-190116723D01*
X181512200Y-190211961D01*
X181702676Y-190211961D01*
X182655057Y-190211961D02*
X182476485Y-190116723D01*
X182405057Y-189926247D01*
X182619342Y-188211961D01*
X184190771Y-190116723D02*
X183988390Y-190211961D01*
X183607438Y-190211961D01*
X183428866Y-190116723D01*
X183357438Y-189926247D01*
X183452676Y-189164342D01*
X183571723Y-188973866D01*
X183774104Y-188878628D01*
X184155057Y-188878628D01*
X184333628Y-188973866D01*
X184405057Y-189164342D01*
X184381247Y-189354819D01*
X183405057Y-189545295D01*
X185155057Y-190021485D02*
X185238390Y-190116723D01*
X185131247Y-190211961D01*
X185047914Y-190116723D01*
X185155057Y-190021485D01*
X185131247Y-190211961D01*
X185286009Y-188973866D02*
X185369342Y-189069104D01*
X185262200Y-189164342D01*
X185178866Y-189069104D01*
X185286009Y-188973866D01*
X185262200Y-189164342D01*
D10*
D11*
X178934342Y-185600057D02*
X178434342Y-185600057D01*
X178434342Y-186385771D02*
X178434342Y-184885771D01*
X179148628Y-184885771D01*
X179720057Y-186385771D02*
X179720057Y-185385771D01*
X179720057Y-184885771D02*
X179648628Y-184957200D01*
X179720057Y-185028628D01*
X179791485Y-184957200D01*
X179720057Y-184885771D01*
X179720057Y-185028628D01*
X180648628Y-186385771D02*
X180505771Y-186314342D01*
X180434342Y-186171485D01*
X180434342Y-184885771D01*
X181791485Y-186314342D02*
X181648628Y-186385771D01*
X181362914Y-186385771D01*
X181220057Y-186314342D01*
X181148628Y-186171485D01*
X181148628Y-185600057D01*
X181220057Y-185457200D01*
X181362914Y-185385771D01*
X181648628Y-185385771D01*
X181791485Y-185457200D01*
X181862914Y-185600057D01*
X181862914Y-185742914D01*
X181148628Y-185885771D01*
X182505771Y-186242914D02*
X182577200Y-186314342D01*
X182505771Y-186385771D01*
X182434342Y-186314342D01*
X182505771Y-186242914D01*
X182505771Y-186385771D01*
X182505771Y-185457200D02*
X182577200Y-185528628D01*
X182505771Y-185600057D01*
X182434342Y-185528628D01*
X182505771Y-185457200D01*
X182505771Y-185600057D01*
X184362914Y-186385771D02*
X184362914Y-184885771D01*
X184362914Y-185457200D02*
X184505771Y-185385771D01*
X184791485Y-185385771D01*
X184934342Y-185457200D01*
X185005771Y-185528628D01*
X185077200Y-185671485D01*
X185077200Y-186100057D01*
X185005771Y-186242914D01*
X184934342Y-186314342D01*
X184791485Y-186385771D01*
X184505771Y-186385771D01*
X184362914Y-186314342D01*
X185934342Y-186385771D02*
X185791485Y-186314342D01*
X185720057Y-186171485D01*
X185720057Y-184885771D01*
X187148628Y-185385771D02*
X187148628Y-186385771D01*
X186505771Y-185385771D02*
X186505771Y-186171485D01*
X186577200Y-186314342D01*
X186720057Y-186385771D01*
X186934342Y-186385771D01*
X187077200Y-186314342D01*
X187148628Y-186242914D01*
X188434342Y-186314342D02*
X188291485Y-186385771D01*
X188005771Y-186385771D01*
X187862914Y-186314342D01*
X187791485Y-186171485D01*
X187791485Y-185600057D01*
X187862914Y-185457200D01*
X188005771Y-185385771D01*
X188291485Y-185385771D01*
X188434342Y-185457200D01*
X188505771Y-185600057D01*
X188505771Y-185742914D01*
X187791485Y-185885771D01*
X188934342Y-185385771D02*
X189505771Y-185385771D01*
X189148628Y-184885771D02*
X189148628Y-186171485D01*
X189220057Y-186314342D01*
X189362914Y-186385771D01*
X189505771Y-186385771D01*
X190220057Y-186385771D02*
X190077200Y-186314342D01*
X190005771Y-186242914D01*
X189934342Y-186100057D01*
X189934342Y-185671485D01*
X190005771Y-185528628D01*
X190077200Y-185457200D01*
X190220057Y-185385771D01*
X190434342Y-185385771D01*
X190577200Y-185457200D01*
X190648628Y-185528628D01*
X190720057Y-185671485D01*
X190720057Y-186100057D01*
X190648628Y-186242914D01*
X190577200Y-186314342D01*
X190434342Y-186385771D01*
X190220057Y-186385771D01*
X191577200Y-186385771D02*
X191434342Y-186314342D01*
X191362914Y-186242914D01*
X191291485Y-186100057D01*
X191291485Y-185671485D01*
X191362914Y-185528628D01*
X191434342Y-185457200D01*
X191577200Y-185385771D01*
X191791485Y-185385771D01*
X191934342Y-185457200D01*
X192005771Y-185528628D01*
X192077200Y-185671485D01*
X192077200Y-186100057D01*
X192005771Y-186242914D01*
X191934342Y-186314342D01*
X191791485Y-186385771D01*
X191577200Y-186385771D01*
X192505771Y-185385771D02*
X193077200Y-185385771D01*
X192720057Y-184885771D02*
X192720057Y-186171485D01*
X192791485Y-186314342D01*
X192934342Y-186385771D01*
X193077200Y-186385771D01*
X193577200Y-186385771D02*
X193577200Y-184885771D01*
X194220057Y-186385771D02*
X194220057Y-185600057D01*
X194148628Y-185457200D01*
X194005771Y-185385771D01*
X193791485Y-185385771D01*
X193648628Y-185457200D01*
X193577200Y-185528628D01*
X194934342Y-186242914D02*
X195005771Y-186314342D01*
X194934342Y-186385771D01*
X194862914Y-186314342D01*
X194934342Y-186242914D01*
X194934342Y-186385771D01*
X195648628Y-186385771D02*
X195648628Y-184885771D01*
X195791485Y-185814342D02*
X196220057Y-186385771D01*
X196220057Y-185385771D02*
X195648628Y-185957200D01*
X196862914Y-186385771D02*
X196862914Y-185385771D01*
X196862914Y-184885771D02*
X196791485Y-184957200D01*
X196862914Y-185028628D01*
X196934342Y-184957200D01*
X196862914Y-184885771D01*
X196862914Y-185028628D01*
X198220057Y-186314342D02*
X198077200Y-186385771D01*
X197791485Y-186385771D01*
X197648628Y-186314342D01*
X197577200Y-186242914D01*
X197505771Y-186100057D01*
X197505771Y-185671485D01*
X197577200Y-185528628D01*
X197648628Y-185457200D01*
X197791485Y-185385771D01*
X198077200Y-185385771D01*
X198220057Y-185457200D01*
X199505771Y-186385771D02*
X199505771Y-185600057D01*
X199434342Y-185457200D01*
X199291485Y-185385771D01*
X199005771Y-185385771D01*
X198862914Y-185457200D01*
X199505771Y-186314342D02*
X199362914Y-186385771D01*
X199005771Y-186385771D01*
X198862914Y-186314342D01*
X198791485Y-186171485D01*
X198791485Y-186028628D01*
X198862914Y-185885771D01*
X199005771Y-185814342D01*
X199362914Y-185814342D01*
X199505771Y-185742914D01*
X200862914Y-186385771D02*
X200862914Y-184885771D01*
X200862914Y-186314342D02*
X200720057Y-186385771D01*
X200434342Y-186385771D01*
X200291485Y-186314342D01*
X200220057Y-186242914D01*
X200148628Y-186100057D01*
X200148628Y-185671485D01*
X200220057Y-185528628D01*
X200291485Y-185457200D01*
X200434342Y-185385771D01*
X200720057Y-185385771D01*
X200862914Y-185457200D01*
X201220057Y-186528628D02*
X202362914Y-186528628D01*
X202720057Y-185385771D02*
X202720057Y-186885771D01*
X202720057Y-185457200D02*
X202862914Y-185385771D01*
X203148628Y-185385771D01*
X203291485Y-185457200D01*
X203362914Y-185528628D01*
X203434342Y-185671485D01*
X203434342Y-186100057D01*
X203362914Y-186242914D01*
X203291485Y-186314342D01*
X203148628Y-186385771D01*
X202862914Y-186385771D01*
X202720057Y-186314342D01*
X204720057Y-186314342D02*
X204577200Y-186385771D01*
X204291485Y-186385771D01*
X204148628Y-186314342D01*
X204077200Y-186242914D01*
X204005771Y-186100057D01*
X204005771Y-185671485D01*
X204077200Y-185528628D01*
X204148628Y-185457200D01*
X204291485Y-185385771D01*
X204577200Y-185385771D01*
X204720057Y-185457200D01*
X205362914Y-186385771D02*
X205362914Y-184885771D01*
X205362914Y-185457200D02*
X205505771Y-185385771D01*
X205791485Y-185385771D01*
X205934342Y-185457200D01*
X206005771Y-185528628D01*
X206077200Y-185671485D01*
X206077200Y-186100057D01*
X206005771Y-186242914D01*
X205934342Y-186314342D01*
X205791485Y-186385771D01*
X205505771Y-186385771D01*
X205362914Y-186314342D01*
D10*
D11*
X177002200Y-181507200D02*
X285002200Y-181507200D01*
D10*
D11*
X178362914Y-183614342D02*
X178577200Y-183685771D01*
X178934342Y-183685771D01*
X179077200Y-183614342D01*
X179148628Y-183542914D01*
X179220057Y-183400057D01*
X179220057Y-183257200D01*
X179148628Y-183114342D01*
X179077200Y-183042914D01*
X178934342Y-182971485D01*
X178648628Y-182900057D01*
X178505771Y-182828628D01*
X178434342Y-182757200D01*
X178362914Y-182614342D01*
X178362914Y-182471485D01*
X178434342Y-182328628D01*
X178505771Y-182257200D01*
X178648628Y-182185771D01*
X179005771Y-182185771D01*
X179220057Y-182257200D01*
X179862914Y-183685771D02*
X179862914Y-182185771D01*
X180505771Y-183685771D02*
X180505771Y-182900057D01*
X180434342Y-182757200D01*
X180291485Y-182685771D01*
X180077200Y-182685771D01*
X179934342Y-182757200D01*
X179862914Y-182828628D01*
X181791485Y-183614342D02*
X181648628Y-183685771D01*
X181362914Y-183685771D01*
X181220057Y-183614342D01*
X181148628Y-183471485D01*
X181148628Y-182900057D01*
X181220057Y-182757200D01*
X181362914Y-182685771D01*
X181648628Y-182685771D01*
X181791485Y-182757200D01*
X181862914Y-182900057D01*
X181862914Y-183042914D01*
X181148628Y-183185771D01*
X183077200Y-183614342D02*
X182934342Y-183685771D01*
X182648628Y-183685771D01*
X182505771Y-183614342D01*
X182434342Y-183471485D01*
X182434342Y-182900057D01*
X182505771Y-182757200D01*
X182648628Y-182685771D01*
X182934342Y-182685771D01*
X183077200Y-182757200D01*
X183148628Y-182900057D01*
X183148628Y-183042914D01*
X182434342Y-183185771D01*
X183577200Y-182685771D02*
X184148628Y-182685771D01*
X183791485Y-182185771D02*
X183791485Y-183471485D01*
X183862914Y-183614342D01*
X184005771Y-183685771D01*
X184148628Y-183685771D01*
X184648628Y-183542914D02*
X184720057Y-183614342D01*
X184648628Y-183685771D01*
X184577200Y-183614342D01*
X184648628Y-183542914D01*
X184648628Y-183685771D01*
X184648628Y-182757200D02*
X184720057Y-182828628D01*
X184648628Y-182900057D01*
X184577200Y-182828628D01*
X184648628Y-182757200D01*
X184648628Y-182900057D01*
D10*
D11*
X197002200Y-191507200D02*
X197002200Y-194507200D01*
D10*
D11*
X261002200Y-191507200D02*
X261002200Y-198007200D01*
D14*
G04 #@! TO.P,U22,1*
G04 #@! TO.N,Net-(U22-Pad1)*
X86650000Y77830000D03*
G04 #@! TD*
G04 #@! TO.P,U26,GND*
G04 #@! TO.N,GND*
X73890000Y90530000D03*
G04 #@! TD*
G04 #@! TO.P,U8,1*
G04 #@! TO.N,N/C*
X76430000Y90530000D03*
G04 #@! TD*
D15*
G04 #@! TO.P,U1,1*
G04 #@! TO.N,DEC1*
X81080940Y87691620D03*
G04 #@! TO.P,U1,2*
G04 #@! TO.N,P0.00/XL1*
X81080940Y87291620D03*
G04 #@! TO.P,U1,3*
G04 #@! TO.N,P0.01/XL2*
X81080940Y86891620D03*
G04 #@! TO.P,U1,4*
G04 #@! TO.N,N/C*
X81080940Y86491620D03*
G04 #@! TO.P,U1,5*
X81080940Y86091620D03*
G04 #@! TO.P,U1,6*
X81080940Y85691620D03*
G04 #@! TO.P,U1,7*
X81080940Y85291620D03*
G04 #@! TO.P,U1,8*
X81080940Y84891620D03*
G04 #@! TO.P,U1,9*
X81080940Y84491620D03*
G04 #@! TO.P,U1,10*
X81080940Y84091620D03*
G04 #@! TO.P,U1,11*
X81080940Y83691620D03*
G04 #@! TO.P,U1,12*
X81080940Y83291620D03*
D16*
G04 #@! TO.P,U1,13*
G04 #@! TO.N,VDD_NRF*
X81905930Y82466620D03*
G04 #@! TO.P,U1,14*
G04 #@! TO.N,N/C*
X82305930Y82466620D03*
G04 #@! TO.P,U1,15*
X82705940Y82466620D03*
G04 #@! TO.P,U1,16*
X83105930Y82466620D03*
G04 #@! TO.P,U1,17*
X83505930Y82466620D03*
G04 #@! TO.P,U1,18*
X83905940Y82466620D03*
G04 #@! TO.P,U1,19*
X84305940Y82466620D03*
G04 #@! TO.P,U1,20*
X84705940Y82466620D03*
G04 #@! TO.P,U1,21*
X85105940Y82466620D03*
G04 #@! TO.P,U1,22*
X85505940Y82466620D03*
G04 #@! TO.P,U1,23*
X85905940Y82466620D03*
G04 #@! TO.P,U1,24*
X86305940Y82466620D03*
D15*
G04 #@! TO.P,U1,25*
X87130940Y83291620D03*
G04 #@! TO.P,U1,26*
X87130940Y83691620D03*
G04 #@! TO.P,U1,27*
X87130940Y84091620D03*
G04 #@! TO.P,U1,28*
X87130940Y84491620D03*
G04 #@! TO.P,U1,29*
X87130940Y84891620D03*
G04 #@! TO.P,U1,30*
G04 #@! TO.N,NetC3_2*
X87130940Y85291620D03*
G04 #@! TO.P,U1,31*
G04 #@! TO.N,GND*
X87130940Y85691620D03*
G04 #@! TO.P,U1,32*
G04 #@! TO.N,DEC2*
X87130940Y86091620D03*
G04 #@! TO.P,U1,33*
G04 #@! TO.N,DEC3*
X87130940Y86491620D03*
G04 #@! TO.P,U1,34*
G04 #@! TO.N,XC1*
X87130940Y86891620D03*
G04 #@! TO.P,U1,35*
G04 #@! TO.N,XC2*
X87130940Y87291620D03*
G04 #@! TO.P,U1,36*
G04 #@! TO.N,VDD_NRF*
X87130940Y87691620D03*
D16*
G04 #@! TO.P,U1,37*
G04 #@! TO.N,N/C*
X86305940Y88516620D03*
G04 #@! TO.P,U1,38*
X85905930Y88516620D03*
G04 #@! TO.P,U1,39*
X85505940Y88516620D03*
G04 #@! TO.P,U1,40*
X85105940Y88516620D03*
G04 #@! TO.P,U1,41*
X84705930Y88516620D03*
G04 #@! TO.P,U1,42*
X84305940Y88516620D03*
G04 #@! TO.P,U1,43*
X83905930Y88516620D03*
G04 #@! TO.P,U1,44*
X83505930Y88516620D03*
G04 #@! TO.P,U1,45*
G04 #@! TO.N,GND*
X83105930Y88516620D03*
G04 #@! TO.P,U1,46*
G04 #@! TO.N,DEC4*
X82705930Y88516620D03*
G04 #@! TO.P,U1,47*
G04 #@! TO.N,NetL2_2*
X82305930Y88516620D03*
G04 #@! TO.P,U1,48*
G04 #@! TO.N,VDD_NRF*
X81905930Y88516620D03*
D17*
G04 #@! TO.P,U1,49*
G04 #@! TO.N,GND*
X84105940Y85491620D03*
G04 #@! TD*
D14*
G04 #@! TO.P,U33,1*
G04 #@! TO.N,N/C*
X76430000Y77830000D03*
G04 #@! TD*
G04 #@! TO.P,U31,1*
G04 #@! TO.N,N/C*
X81510000Y70210000D03*
G04 #@! TD*
G04 #@! TO.P,U25,1*
G04 #@! TO.N,N/C*
X73950000Y72800000D03*
G04 #@! TD*
G04 #@! TO.P,U20,1*
G04 #@! TO.N,N/C*
X84110000Y72800000D03*
G04 #@! TD*
G04 #@! TO.P,U19,1*
G04 #@! TO.N,N/C*
X91670000Y77830000D03*
G04 #@! TD*
D18*
G04 #@! TO.P,C12,1*
G04 #@! TO.N,P0.01/XL2*
X77138330Y82799220D03*
G04 #@! TO.P,C12,2*
G04 #@! TO.N,GND*
X76138330Y82799220D03*
G04 #@! TD*
D19*
G04 #@! TO.P,C10,2*
G04 #@! TO.N,DEC4*
X81797340Y92802820D03*
D20*
G04 #@! TD*
G04 #@! TO.N,DEC4*
G04 #@! TO.C,C10*
G36*
X81731968Y92258438D02*
G01*
X81249877Y92832972D01*
X81862712Y93347202D01*
X82344803Y92772668D01*
X81731968Y92258438D01*
X81731968Y92258438D01*
G37*
D19*
G04 #@! TO.P,C10,1*
G04 #@! TO.N,GND*
X80929570Y93836980D03*
D20*
G04 #@! TD*
G04 #@! TO.N,GND*
G04 #@! TO.C,C10*
G36*
X80864198Y93292598D02*
G01*
X80382107Y93867132D01*
X80994942Y94381362D01*
X81477033Y93806828D01*
X80864198Y93292598D01*
X80864198Y93292598D01*
G37*
D21*
G04 #@! TO.P,L3,2*
G04 #@! TO.N,NetL2_1*
X80982980Y92092430D03*
D20*
G04 #@! TD*
G04 #@! TO.N,NetL2_1*
G04 #@! TO.C,L3*
G36*
X81000375Y91682769D02*
G01*
X80582563Y92180698D01*
X80965585Y92502091D01*
X81383397Y92004162D01*
X81000375Y91682769D01*
X81000375Y91682769D01*
G37*
D21*
G04 #@! TO.P,L3,1*
G04 #@! TO.N,DEC4*
X80372330Y92820170D03*
D20*
G04 #@! TD*
G04 #@! TO.N,DEC4*
G04 #@! TO.C,L3*
G36*
X80389725Y92410509D02*
G01*
X79971913Y92908438D01*
X80354935Y93229831D01*
X80772747Y92731902D01*
X80389725Y92410509D01*
X80389725Y92410509D01*
G37*
D22*
G04 #@! TO.P,L2,1*
G04 #@! TO.N,NetL2_1*
X81845340Y91048580D03*
G04 #@! TO.P,L2,2*
G04 #@! TO.N,NetL2_2*
X81845340Y89698580D03*
G04 #@! TD*
D18*
G04 #@! TO.P,C4,1*
G04 #@! TO.N,DEC1*
X79271930Y87371220D03*
G04 #@! TO.P,C4,2*
G04 #@! TO.N,GND*
X78271930Y87371220D03*
G04 #@! TD*
G04 #@! TO.P,C5,1*
G04 #@! TO.N,VDD_NRF*
X81761130Y81402220D03*
G04 #@! TO.P,C5,2*
G04 #@! TO.N,GND*
X80761130Y81402220D03*
G04 #@! TD*
G04 #@! TO.P,C7,1*
G04 #@! TO.N,DEC3*
X88889140Y88107820D03*
G04 #@! TO.P,C7,2*
G04 #@! TO.N,GND*
X89889140Y88107820D03*
G04 #@! TD*
D23*
G04 #@! TO.P,C1,1*
G04 #@! TO.N,XC1*
X92589370Y90589200D03*
G04 #@! TO.P,C1,2*
G04 #@! TO.N,GND*
X92589370Y89589200D03*
G04 #@! TD*
D24*
G04 #@! TO.P,X1,3*
G04 #@! TO.N,XC2*
X90086370Y89514200D03*
G04 #@! TO.P,X1,2*
G04 #@! TO.N,GND*
X90086370Y90664200D03*
G04 #@! TO.P,X1,1*
G04 #@! TO.N,XC1*
X91536370Y90664200D03*
G04 #@! TO.P,X1,4*
G04 #@! TO.N,GND*
X91536370Y89514200D03*
G04 #@! TD*
D23*
G04 #@! TO.P,C8,1*
G04 #@! TO.N,VDD_NRF*
X88144370Y89589200D03*
G04 #@! TO.P,C8,2*
G04 #@! TO.N,GND*
X88144370Y90589200D03*
G04 #@! TD*
D25*
G04 #@! TO.P,C9,2*
G04 #@! TO.N,GND*
X78096940Y88412620D03*
G04 #@! TO.P,C9,1*
G04 #@! TO.N,VDD_NRF*
X79446940Y88412620D03*
G04 #@! TD*
D18*
G04 #@! TO.P,C6,1*
G04 #@! TO.N,GND*
X89889130Y87218820D03*
G04 #@! TO.P,C6,2*
G04 #@! TO.N,DEC2*
X88889130Y87218820D03*
G04 #@! TD*
D23*
G04 #@! TO.P,C2,1*
G04 #@! TO.N,XC2*
X89033370Y89589200D03*
G04 #@! TO.P,C2,2*
G04 #@! TO.N,GND*
X89033370Y90589200D03*
G04 #@! TD*
D26*
G04 #@! TO.P,L1,2*
G04 #@! TO.N,N/C*
X90194340Y84983620D03*
G04 #@! TO.P,L1,1*
G04 #@! TO.N,NetC3_2*
X89244340Y84983620D03*
G04 #@! TD*
D23*
G04 #@! TO.P,C3,1*
G04 #@! TO.N,GND*
X88296940Y85991620D03*
G04 #@! TO.P,C3,2*
G04 #@! TO.N,NetC3_2*
X88296940Y84991620D03*
G04 #@! TD*
D27*
G04 #@! TO.P,X2,2*
G04 #@! TO.N,P0.01/XL2*
X76638340Y83860620D03*
G04 #@! TO.P,X2,1*
G04 #@! TO.N,P0.00/XL1*
X76638340Y86360610D03*
G04 #@! TD*
D23*
G04 #@! TO.P,C11,1*
G04 #@! TO.N,P0.00/XL1*
X78060740Y86448820D03*
G04 #@! TO.P,C11,2*
G04 #@! TO.N,GND*
X78060740Y85448820D03*
G04 #@! TD*
D18*
G04 #@! TO.P,C13,1*
G04 #@! TO.N,DEC4*
X82793140Y92070220D03*
G04 #@! TO.P,C13,2*
G04 #@! TO.N,GND*
X83793140Y92070220D03*
G04 #@! TD*
D14*
G04 #@! TO.P,U32,1*
G04 #@! TO.N,Net-(U32-Pad1)*
X73890000Y75290000D03*
G04 #@! TD*
G04 #@! TO.P,U30,1*
G04 #@! TO.N,Net-(U30-Pad1)*
X76430000Y72750000D03*
G04 #@! TD*
G04 #@! TO.P,U29,1*
G04 #@! TO.N,Net-(U29-Pad1)*
X73890000Y77830000D03*
G04 #@! TD*
G04 #@! TO.P,U28,1*
G04 #@! TO.N,Net-(U28-Pad1)*
X73950000Y70260000D03*
G04 #@! TD*
G04 #@! TO.P,U27,1*
G04 #@! TO.N,Net-(U27-Pad1)*
X84110000Y70260000D03*
G04 #@! TD*
G04 #@! TO.P,U24,1*
G04 #@! TO.N,Net-(U24-Pad1)*
X76430000Y67670000D03*
G04 #@! TD*
G04 #@! TO.P,U23,1*
G04 #@! TO.N,Net-(U23-Pad1)*
X86590000Y70210000D03*
G04 #@! TD*
G04 #@! TO.P,U22,1*
G04 #@! TO.N,Net-(U22-Pad1)*
X86650000Y75340000D03*
G04 #@! TD*
G04 #@! TO.P,U21,1*
G04 #@! TO.N,Net-(U21-Pad1)*
X76490000Y75340000D03*
G04 #@! TD*
G04 #@! TO.P,U18,1*
G04 #@! TO.N,Net-(U18-Pad1)*
X84140000Y75110000D03*
G04 #@! TD*
G04 #@! TO.P,U17,1*
G04 #@! TO.N,Net-(U17-Pad1)*
X81570000Y72800000D03*
G04 #@! TD*
G04 #@! TO.P,U16,1*
G04 #@! TO.N,Net-(U16-Pad1)*
X91730000Y75340000D03*
G04 #@! TD*
G04 #@! TO.P,U15,1*
G04 #@! TO.N,Net-(U15-Pad1)*
X94270000Y77880000D03*
G04 #@! TD*
G04 #@! TO.P,U14,1*
G04 #@! TO.N,Net-(U14-Pad1)*
X81570000Y77880000D03*
G04 #@! TD*
G04 #@! TO.P,U13,1*
G04 #@! TO.N,Net-(U13-Pad1)*
X86650000Y72800000D03*
G04 #@! TD*
G04 #@! TO.P,U12,1*
G04 #@! TO.N,Net-(U12-Pad1)*
X94270000Y75340000D03*
G04 #@! TD*
G04 #@! TO.P,U11,1*
G04 #@! TO.N,Net-(U11-Pad1)*
X81570000Y75340000D03*
G04 #@! TD*
G04 #@! TO.P,U10,1*
G04 #@! TO.N,Net-(U10-Pad1)*
X91730000Y72800000D03*
G04 #@! TD*
G04 #@! TO.P,U9,1*
G04 #@! TO.N,Net-(U9-Pad1)*
X76490000Y70260000D03*
G04 #@! TD*
G04 #@! TO.P,U7,1*
G04 #@! TO.N,Net-(U7-Pad1)*
X76430000Y98150000D03*
G04 #@! TD*
G04 #@! TO.P,U6,1*
G04 #@! TO.N,Net-(U6-Pad1)*
X84110000Y98200000D03*
G04 #@! TD*
G04 #@! TO.P,U5,1*
G04 #@! TO.N,Net-(U5-Pad1)*
X78970000Y98150000D03*
G04 #@! TD*
G04 #@! TO.P,U4,1*
G04 #@! TO.N,Net-(U4-Pad1)*
X86590000Y98150000D03*
G04 #@! TD*
G04 #@! TO.P,U3,1*
G04 #@! TO.N,Net-(U3-Pad1)*
X89190000Y98200000D03*
G04 #@! TD*
G04 #@! TO.P,U2,1*
G04 #@! TO.N,Net-(U15-Pad1)*
X81590000Y98150000D03*
G04 #@! TD*
G04 #@! TO.P,U1,1*
G04 #@! TO.N,Net-(U1-Pad1)*
X91590000Y98150000D03*
G04 #@! TD*
D28*
G04 #@! TO.N,*
X84525440Y76454030D03*
X84319540Y78653980D03*
X84091340Y77763700D03*
X83782310Y76998500D03*
G04 #@! TO.N,VDD_NRF*
X87433170Y89505000D03*
X81718340Y80589420D03*
X78775930Y89168620D03*
G04 #@! TO.N,P0.04/AIN2*
X76079540Y81986420D03*
G04 #@! TO.N,GND*
X83775740Y91257420D03*
X81794540Y94432420D03*
X87331570Y90589200D03*
X83216850Y89657310D03*
X92589450Y94432480D03*
X86874450Y94432480D03*
X80594610Y89571750D03*
X76895520Y93610250D03*
X79838740Y94432420D03*
X83766330Y94432510D03*
X77019340Y85288420D03*
X76079540Y80589420D03*
X92589540Y80589420D03*
X89236740Y80589420D03*
X92589450Y84151820D03*
X90777160Y83590630D03*
X92589450Y85828220D03*
X92589430Y88768320D03*
X89973170Y91613200D03*
X92589450Y92908480D03*
X89008050Y91409910D03*
X88144450Y91409910D03*
X83766330Y92883110D03*
X75114230Y89538770D03*
X79292310Y90379180D03*
X77954720Y94824460D03*
X73137090Y92100460D03*
X80778540Y80564020D03*
X81108740Y82491620D03*
X77234690Y87488080D03*
X78314740Y92832220D03*
X91548140Y88722580D03*
D29*
X82305940Y87291620D03*
X83505930Y87291620D03*
X84705930Y87291620D03*
X85905930Y87291620D03*
X82305940Y86091620D03*
X83505930Y86091620D03*
X84705930Y86091620D03*
X85905930Y86091620D03*
X82305940Y84891620D03*
X83505930Y84891620D03*
X84705930Y84891620D03*
X85905930Y84891620D03*
X82305940Y83691620D03*
X83505930Y83691620D03*
X84705930Y83691620D03*
X85905930Y83691620D03*
D28*
X90684540Y88057020D03*
X90684540Y87218820D03*
X90129730Y85841220D03*
X89236740Y83586620D03*
G04 #@! TD*
D30*
G04 #@! TO.N,*
X90382290Y74135260D02*
X91725940Y72791620D01*
X90382290Y74135260D02*
X90382290Y75618460D01*
X87130940Y78869820D02*
X90382290Y75618460D01*
X87130940Y78869820D02*
X87130940Y83291620D01*
D31*
X90202340Y84990020D02*
X92614850Y84990020D01*
D30*
X76485940Y98191620D02*
X78185930Y96491620D01*
X78185930Y96491620D02*
X82681730Y96491620D01*
X82681730Y96491620D02*
X84410740Y94762620D01*
X84410740Y89561480D02*
X84410740Y94762620D01*
X83905930Y89056680D02*
X84410740Y89561480D01*
X83905930Y88516620D02*
X83905930Y89056680D01*
X79025940Y98191620D02*
X80325940Y96891620D01*
X80325940Y96891620D02*
X82712790Y96891620D01*
X82712790Y96891620D02*
X84715540Y94888870D01*
X84715540Y89435230D02*
X84715540Y94888870D01*
X84305940Y89025630D02*
X84715540Y89435230D01*
X84305940Y88516620D02*
X84305940Y89025630D01*
X84105940Y98191620D02*
X85325140Y96972420D01*
X85325140Y89154900D02*
X85325140Y96972420D01*
X85105930Y88935700D02*
X85325140Y89154900D01*
X85105930Y88516620D02*
X85105930Y88935700D01*
X76485940Y75331620D02*
X78699440Y77545120D01*
X78699440Y77545120D02*
X78699440Y83475730D01*
X80515330Y85291620D02*
X81080940Y85291620D01*
X78699440Y83475730D02*
X80515330Y85291620D01*
X78391990Y77996830D02*
X78391990Y83603080D01*
X76931790Y76536630D02*
X78391990Y77996830D01*
X75150950Y76536630D02*
X76931790Y76536630D01*
X73945940Y75331620D02*
X75150950Y76536630D01*
X80480530Y85691620D02*
X81080940Y85691620D01*
X78391990Y83603080D02*
X80480530Y85691620D01*
X76485940Y77871620D02*
X78086670Y79472350D01*
X78086670Y79472350D02*
X78086670Y83729560D01*
X80448730Y86091620D02*
X81080940Y86091620D01*
X78086670Y83729560D02*
X80448730Y86091620D01*
X73945940Y77871620D02*
X76093890Y80019570D01*
X76093890Y80019570D02*
X77536900Y80019570D01*
X77536900Y80019570D02*
X77781340Y80264000D01*
X77781340Y80264000D02*
X77781340Y83856020D01*
X80416930Y86491620D02*
X81080940Y86491620D01*
X77781340Y83856020D02*
X80416930Y86491620D01*
X87684540Y78969250D02*
X91490100Y75163690D01*
X91490100Y75163690D02*
X91558000Y75163690D01*
X91558000Y75163690D02*
X91725940Y75331620D01*
X87684540Y78969250D02*
X87684540Y83427720D01*
X87420640Y83691620D02*
X87684540Y83427720D01*
X87130940Y83691620D02*
X87420640Y83691620D01*
X85629940Y97175620D02*
X86645940Y98191620D01*
X85629940Y89028650D02*
X85629940Y97175620D01*
X85505940Y88904650D02*
X85629940Y89028650D01*
X85505940Y88516620D02*
X85505940Y88904650D01*
X89185940Y98140070D02*
X89185940Y98191620D01*
X85934740Y94888870D02*
X89185940Y98140070D01*
X85934740Y88902400D02*
X85934740Y94888870D01*
X85905930Y88873600D02*
X85934740Y88902400D01*
X85905930Y88516620D02*
X85905930Y88873600D01*
X89025940Y95491620D02*
X91725940Y98191620D01*
X86968540Y95491620D02*
X89025940Y95491620D01*
X86239540Y94762620D02*
X86968540Y95491620D01*
X86239540Y88908950D02*
X86239540Y94762620D01*
X86239540Y88908950D02*
X86305940Y88842550D01*
X86305940Y88516620D02*
X86305940Y88842550D01*
X90151140Y77871620D02*
X91725940Y77871620D01*
X88296940Y79725820D02*
X90151140Y77871620D01*
X88296940Y79725820D02*
X88296940Y83680670D01*
X87130940Y84491620D02*
X87485990Y84491620D01*
X87485990Y84491620D02*
X88296940Y83680670D01*
X92844120Y76753430D02*
X94265940Y75331620D01*
X90331410Y76753430D02*
X92844120Y76753430D01*
X87989340Y79095500D02*
X90331410Y76753430D01*
X87989340Y79095500D02*
X87989340Y83557220D01*
X87130940Y84091620D02*
X87454940Y84091620D01*
X87454940Y84091620D02*
X87989340Y83557220D01*
X86305940Y78211620D02*
X86645940Y77871620D01*
X86305940Y78211620D02*
X86305940Y82466620D01*
X85767330Y79371290D02*
X85767340Y79371280D01*
X85767340Y78235550D02*
X85767340Y79371280D01*
X85767330Y78235540D02*
X85767340Y78235550D01*
X85767330Y76210220D02*
X85767330Y78235540D01*
X85767330Y79371290D02*
X85767330Y80006840D01*
X85767330Y76210220D02*
X86645940Y75331620D01*
X85767330Y80006840D02*
X85905940Y80145440D01*
X85905940Y80145440D02*
X85905940Y82466620D01*
X85462530Y79245040D02*
X85462540Y79245030D01*
X85462540Y78361800D02*
X85462540Y79245030D01*
X85462530Y78361790D02*
X85462540Y78361800D01*
X85462530Y73975020D02*
X85462530Y78361790D01*
X85462530Y79245040D02*
X85462530Y80215820D01*
X85462530Y73975020D02*
X86645940Y72791620D01*
X85462530Y80215820D02*
X85505940Y80259220D01*
X85505940Y80259220D02*
X85505940Y82466620D01*
X85105940Y79170580D02*
X85157740Y79118780D01*
X85105940Y79170580D02*
X85105940Y82466620D01*
X85157740Y78488050D02*
X85157740Y79118780D01*
X85157730Y78488040D02*
X85157740Y78488050D01*
X85157730Y78189180D02*
X85157730Y78488040D01*
X85105940Y78137380D02*
X85157730Y78189180D01*
X85105940Y71791620D02*
X85105940Y78137380D01*
X85105940Y71791620D02*
X86645940Y70251620D01*
X84705940Y79139530D02*
X84705940Y82466620D01*
X84525440Y76454030D02*
X84705940Y76634520D01*
X84705940Y79139530D02*
X84852940Y78992530D01*
X84705940Y76634520D02*
X84705940Y78168430D01*
X84705940Y78168430D02*
X84852930Y78315430D01*
X84852930Y78315430D02*
X84852930Y78614300D01*
X84852930Y78614300D02*
X84852940Y78614300D01*
X84852940Y78614300D02*
X84852940Y78992530D01*
X84305940Y78667580D02*
X84319540Y78653980D01*
X84305940Y78667580D02*
X84305940Y82466620D01*
X83903750Y78992530D02*
X83903750Y82464430D01*
X84091340Y77763700D02*
X84091340Y78127840D01*
X83786140Y78874920D02*
X83903750Y78992530D01*
X83786140Y78433040D02*
X83786140Y78874920D01*
X83786140Y78433040D02*
X84091340Y78127840D01*
X83903750Y82464430D02*
X83905940Y82466620D01*
X83481340Y77619360D02*
X83481340Y82442020D01*
X83481340Y77619360D02*
X83782310Y77318380D01*
X83481340Y82442020D02*
X83505930Y82466620D01*
X83782310Y76998500D02*
X83782310Y77318380D01*
X83105930Y74331620D02*
X83105930Y82466620D01*
X81565940Y72791620D02*
X83105930Y74331620D01*
X82705940Y76471620D02*
X82705940Y82466620D01*
X81565940Y75331620D02*
X82705940Y76471620D01*
X81565940Y77871620D02*
X82305930Y78611620D01*
X82305930Y78611620D02*
X82305930Y82466620D01*
X80223440Y71449120D02*
X80223440Y82844470D01*
X76485940Y67711620D02*
X80223440Y71449120D01*
X80223440Y82844470D02*
X80670580Y83291620D01*
X80670580Y83291620D02*
X81080940Y83291620D01*
X76485940Y70251620D02*
X79918640Y73684320D01*
X79918640Y73684320D02*
X79918640Y82970730D01*
X80639530Y83691620D02*
X81080940Y83691620D01*
X79918640Y82970730D02*
X80639530Y83691620D01*
X79613840Y74476730D02*
X79613840Y83096980D01*
X76848600Y71711490D02*
X79613840Y74476730D01*
X75405810Y71711490D02*
X76848600Y71711490D01*
X73945940Y70251620D02*
X75405810Y71711490D01*
X80608480Y84091620D02*
X81080940Y84091620D01*
X79613840Y83096980D02*
X80608480Y84091620D01*
X76485940Y72791620D02*
X79309040Y75614720D01*
X79309040Y75614720D02*
X79309040Y83223230D01*
X80577430Y84491620D02*
X81080940Y84491620D01*
X79309040Y83223230D02*
X80577430Y84491620D01*
X79004240Y76175720D02*
X79004240Y83349480D01*
X76841670Y74013140D02*
X79004240Y76175720D01*
X75167460Y74013140D02*
X76841670Y74013140D01*
X73945940Y72791620D02*
X75167460Y74013140D01*
X80546370Y84891620D02*
X81080940Y84891620D01*
X79004240Y83349480D02*
X80546370Y84891620D01*
D32*
G04 #@! TO.N,VDD_NRF*
X87128450Y87718940D02*
X87128450Y88179690D01*
D33*
X79535930Y88491620D02*
X81896140Y88491620D01*
D32*
X87433170Y89505000D02*
X87450570Y89487600D01*
D34*
X81644710Y80589420D02*
X81718340Y80589420D01*
D33*
X81718340Y80589420D02*
X81905930Y80777020D01*
D32*
X87128450Y88179690D02*
X88144370Y89195610D01*
X88144370Y89195610D02*
X88144370Y89487600D01*
X88144370Y89487600D02*
X88144370Y89589200D01*
D33*
X78858930Y89168620D02*
X79450930Y88576620D01*
X78775930Y89168620D02*
X78858930Y89168620D01*
D34*
X79450930Y88406620D02*
X79450930Y88576620D01*
D33*
X79450930Y88576620D02*
X79535930Y88491620D01*
X81905930Y80777020D02*
X81905930Y82466620D01*
D32*
X87450570Y89487600D02*
X88144370Y89487600D01*
D30*
G04 #@! TO.N,P0.01/XL2*
X76638340Y83860610D02*
X77138330Y83360620D01*
X77138330Y82799220D02*
X77138330Y83360620D01*
X76638340Y83860610D02*
X77354130Y83860610D01*
X80385130Y86891620D02*
X81080940Y86891620D01*
X77354130Y83860610D02*
X80385130Y86891620D01*
G04 #@! TO.N,P0.00/XL1*
X79423070Y86360610D02*
X80354080Y87291620D01*
X80354080Y87291620D02*
X81080940Y87291620D01*
X76638340Y86360610D02*
X79423070Y86360610D01*
D33*
G04 #@! TO.N,NetC3_2*
X87605920Y85291620D02*
X87915710Y84981830D01*
X87130940Y85291620D02*
X87605920Y85291620D01*
X87915710Y84981830D02*
X88304940Y84981830D01*
D35*
X88296930Y84986820D02*
X89193930Y84986820D01*
D33*
G04 #@! TO.N,DEC4*
X81831980Y92820180D02*
X82531140Y92121020D01*
X82705930Y88547180D02*
X82705930Y89208190D01*
X82531140Y89382980D02*
X82705930Y89208190D01*
X82531140Y89382980D02*
X82531140Y92121020D01*
X80372330Y92820180D02*
X81831980Y92820180D01*
D30*
G04 #@! TO.N,DEC3*
X88296930Y87302570D02*
X88296940Y87553850D01*
X87485990Y86491620D02*
X88296930Y87302570D01*
X87130940Y86491620D02*
X87485990Y86491620D01*
X88296940Y87553850D02*
X88781060Y88037970D01*
G04 #@! TO.N,GND*
X73890000Y90530000D02*
X74360000Y90530000D01*
D33*
X83105930Y88516620D02*
X83105930Y89631910D01*
X84723540Y85694820D02*
X87605170Y85694820D01*
X87892180Y85981830D02*
X88304940Y85981830D01*
X87605170Y85694820D02*
X87892180Y85981830D01*
X83105930Y87691620D02*
X83105930Y88516620D01*
D30*
X75385730Y92100460D02*
X76895520Y93610250D01*
X73137090Y92100460D02*
X75385730Y92100460D01*
X76895520Y93765260D02*
X77954720Y94824460D01*
X76895520Y93610250D02*
X76895520Y93765260D01*
D36*
G04 #@! TO.N,DEC1*
X79275920Y87390620D02*
X79576930Y87691620D01*
X79576930Y87691620D02*
X81080940Y87691620D01*
D30*
G04 #@! TO.N,DEC2*
X87517040Y86091620D02*
X88644230Y87218820D01*
X87130940Y86091620D02*
X87517040Y86091620D01*
X88644230Y87218820D02*
X88889130Y87218820D01*
X88889130Y87218820D02*
X88906540Y87218820D01*
D37*
G04 #@! TO.N,NetL2_1*
X81845340Y91048580D02*
X81845340Y91230070D01*
X80982980Y92092430D02*
X81845340Y91230070D01*
D33*
G04 #@! TO.N,NetL2_2*
X82305930Y88516620D02*
X82305930Y88936410D01*
X81845340Y89397010D02*
X82305930Y88936410D01*
X81845340Y89397010D02*
X81845340Y89698590D01*
D30*
G04 #@! TO.N,XC1*
X87989340Y87426020D02*
X87989340Y88094450D01*
X87454940Y86891620D02*
X87989340Y87426020D01*
X87130940Y86891620D02*
X87454940Y86891620D01*
X90811370Y88920800D02*
X90811370Y90038400D01*
X90811370Y90038400D02*
X91362170Y90589200D01*
X87989340Y88094450D02*
X88561600Y88666710D01*
X88561600Y88666710D02*
X90557290Y88666710D01*
X90557290Y88666710D02*
X90811370Y88920800D01*
X91362170Y90589200D02*
X92589370Y90589200D01*
G04 #@! TO.N,XC2*
X87420640Y87291620D02*
X87684540Y87555510D01*
X87130940Y87291620D02*
X87420640Y87291620D01*
X87684540Y87555510D02*
X87684540Y88224220D01*
X87684540Y88224220D02*
X88431830Y88971510D01*
X88431830Y88971510D02*
X88855650Y88971510D01*
X88855650Y88971510D02*
X89033210Y89149070D01*
X89033210Y89149070D02*
X89033210Y89581360D01*
X88982570Y89589200D02*
X89033370Y89589200D01*
X89033370Y89589200D02*
X89939160Y89589200D01*
X89939160Y89589200D02*
X90139170Y89389200D01*
G04 #@! TO.N,Net-(U15-Pad1)*
X81565940Y98191620D02*
X82120340Y98191620D01*
X82120340Y98191620D02*
X85020340Y95291620D01*
X85020340Y89281150D02*
X85020340Y95291620D01*
X84705930Y88966750D02*
X85020340Y89281150D01*
X84705930Y88516620D02*
X84705930Y88966750D01*
X92366150Y79771400D02*
X94265940Y77871620D01*
X88987950Y79771400D02*
X92366150Y79771400D01*
X88601740Y80157620D02*
X88987950Y79771400D01*
X87130940Y84891620D02*
X87517040Y84891620D01*
X87517040Y84891620D02*
X88601740Y83806920D01*
X88601740Y80157620D02*
X88601740Y83806920D01*
G04 #@! TD*
D32*
G04 #@! TO.N,GND*
G36*
X99051300Y65466260D02*
G01*
X69160580Y65466260D01*
X69160580Y77921538D01*
X72960600Y77921538D01*
X72960600Y77738462D01*
X72996316Y77558904D01*
X73066376Y77389764D01*
X73168088Y77237542D01*
X73297542Y77108088D01*
X73449764Y77006376D01*
X73618904Y76936316D01*
X73798462Y76900600D01*
X73981538Y76900600D01*
X74161096Y76936316D01*
X74330236Y77006376D01*
X74482458Y77108088D01*
X74611912Y77237542D01*
X74713624Y77389764D01*
X74783684Y77558904D01*
X74819400Y77738462D01*
X74819400Y77921538D01*
X74783684Y78101096D01*
X74752820Y78175607D01*
X76241184Y79663970D01*
X77519443Y79663970D01*
X77536893Y79662251D01*
X77554351Y79663970D01*
X77554363Y79663970D01*
X77599239Y79668390D01*
X77606602Y79669115D01*
X77606603Y79669115D01*
X77606610Y79669116D01*
X77666126Y79687170D01*
X77673634Y79689447D01*
X77673635Y79689447D01*
X77673640Y79689449D01*
X77731070Y79720146D01*
X77731070Y79619645D01*
X76795858Y78684432D01*
X76701096Y78723684D01*
X76521538Y78759400D01*
X76338462Y78759400D01*
X76158904Y78723684D01*
X75989764Y78653624D01*
X75837542Y78551912D01*
X75708088Y78422458D01*
X75606376Y78270236D01*
X75536316Y78101096D01*
X75500600Y77921538D01*
X75500600Y77738462D01*
X75536316Y77558904D01*
X75606376Y77389764D01*
X75708088Y77237542D01*
X75837542Y77108088D01*
X75989764Y77006376D01*
X76158904Y76936316D01*
X76338462Y76900600D01*
X76521538Y76900600D01*
X76701096Y76936316D01*
X76870236Y77006376D01*
X76955846Y77063579D01*
X76784497Y76892230D01*
X75168402Y76892230D01*
X75150949Y76893949D01*
X75133496Y76892230D01*
X75133487Y76892230D01*
X75081240Y76887084D01*
X75014210Y76866751D01*
X74952434Y76833731D01*
X74952432Y76833730D01*
X74952433Y76833730D01*
X74911850Y76800425D01*
X74911845Y76800420D01*
X74898287Y76789293D01*
X74887160Y76775735D01*
X74255858Y76144432D01*
X74161096Y76183684D01*
X73981538Y76219400D01*
X73798462Y76219400D01*
X73618904Y76183684D01*
X73449764Y76113624D01*
X73297542Y76011912D01*
X73168088Y75882458D01*
X73066376Y75730236D01*
X72996316Y75561096D01*
X72960600Y75381538D01*
X72960600Y75198462D01*
X72996316Y75018904D01*
X73066376Y74849764D01*
X73168088Y74697542D01*
X73297542Y74568088D01*
X73449764Y74466376D01*
X73618904Y74396316D01*
X73798462Y74360600D01*
X73981538Y74360600D01*
X74161096Y74396316D01*
X74330236Y74466376D01*
X74482458Y74568088D01*
X74611912Y74697542D01*
X74713624Y74849764D01*
X74783684Y75018904D01*
X74819400Y75198462D01*
X74819400Y75381538D01*
X74783684Y75561096D01*
X74752821Y75635607D01*
X75298245Y76181030D01*
X76091786Y76181030D01*
X76049764Y76163624D01*
X75897542Y76061912D01*
X75768088Y75932458D01*
X75666376Y75780236D01*
X75596316Y75611096D01*
X75560600Y75431538D01*
X75560600Y75248462D01*
X75596316Y75068904D01*
X75666376Y74899764D01*
X75768088Y74747542D01*
X75897542Y74618088D01*
X76049764Y74516376D01*
X76218904Y74446316D01*
X76398462Y74410600D01*
X76581538Y74410600D01*
X76761096Y74446316D01*
X76779628Y74453992D01*
X76694376Y74368740D01*
X75184915Y74368740D01*
X75167459Y74370459D01*
X75150004Y74368740D01*
X75149997Y74368740D01*
X75104647Y74364273D01*
X75097749Y74363594D01*
X75068562Y74354740D01*
X75030720Y74343261D01*
X75030718Y74343260D01*
X75022741Y74338996D01*
X74968944Y74310241D01*
X74968942Y74310240D01*
X74968943Y74310240D01*
X74928360Y74276935D01*
X74928355Y74276930D01*
X74914797Y74265803D01*
X74903670Y74252245D01*
X74308787Y73657361D01*
X74221096Y73693684D01*
X74041538Y73729400D01*
X73858462Y73729400D01*
X73678904Y73693684D01*
X73509764Y73623624D01*
X73357542Y73521912D01*
X73228088Y73392458D01*
X73126376Y73240236D01*
X73056316Y73071096D01*
X73020600Y72891538D01*
X73020600Y72708462D01*
X73056316Y72528904D01*
X73126376Y72359764D01*
X73228088Y72207542D01*
X73357542Y72078088D01*
X73509764Y71976376D01*
X73678904Y71906316D01*
X73858462Y71870600D01*
X74041538Y71870600D01*
X74221096Y71906316D01*
X74390236Y71976376D01*
X74542458Y72078088D01*
X74671912Y72207542D01*
X74773624Y72359764D01*
X74843684Y72528904D01*
X74879400Y72708462D01*
X74879400Y72891538D01*
X74843684Y73071096D01*
X74809892Y73152678D01*
X75314755Y73657540D01*
X76228563Y73657540D01*
X76158904Y73643684D01*
X75989764Y73573624D01*
X75837542Y73471912D01*
X75708088Y73342458D01*
X75606376Y73190236D01*
X75536316Y73021096D01*
X75500600Y72841538D01*
X75500600Y72658462D01*
X75536316Y72478904D01*
X75606376Y72309764D01*
X75708088Y72157542D01*
X75798540Y72067090D01*
X75423265Y72067090D01*
X75405810Y72068809D01*
X75388354Y72067090D01*
X75388347Y72067090D01*
X75342376Y72062562D01*
X75336099Y72061944D01*
X75315766Y72055776D01*
X75269070Y72041611D01*
X75207294Y72008591D01*
X75184806Y71990135D01*
X75168041Y71976376D01*
X75153147Y71964153D01*
X75142016Y71950590D01*
X74308788Y71117361D01*
X74221096Y71153684D01*
X74041538Y71189400D01*
X73858462Y71189400D01*
X73678904Y71153684D01*
X73509764Y71083624D01*
X73357542Y70981912D01*
X73228088Y70852458D01*
X73126376Y70700236D01*
X73056316Y70531096D01*
X73020600Y70351538D01*
X73020600Y70168462D01*
X73056316Y69988904D01*
X73126376Y69819764D01*
X73228088Y69667542D01*
X73357542Y69538088D01*
X73509764Y69436376D01*
X73678904Y69366316D01*
X73858462Y69330600D01*
X74041538Y69330600D01*
X74221096Y69366316D01*
X74390236Y69436376D01*
X74542458Y69538088D01*
X74671912Y69667542D01*
X74773624Y69819764D01*
X74843684Y69988904D01*
X74879400Y70168462D01*
X74879400Y70351538D01*
X74843684Y70531096D01*
X74809892Y70612678D01*
X75553104Y71355890D01*
X76831145Y71355890D01*
X76848600Y71354171D01*
X76866055Y71355890D01*
X76866063Y71355890D01*
X76918310Y71361036D01*
X76985340Y71381369D01*
X77047116Y71414389D01*
X77101263Y71458827D01*
X77112399Y71472396D01*
X79563040Y73923036D01*
X79563040Y73831614D01*
X76848788Y71117361D01*
X76761096Y71153684D01*
X76581538Y71189400D01*
X76398462Y71189400D01*
X76218904Y71153684D01*
X76049764Y71083624D01*
X75897542Y70981912D01*
X75768088Y70852458D01*
X75666376Y70700236D01*
X75596316Y70531096D01*
X75560600Y70351538D01*
X75560600Y70168462D01*
X75596316Y69988904D01*
X75666376Y69819764D01*
X75768088Y69667542D01*
X75897542Y69538088D01*
X76049764Y69436376D01*
X76218904Y69366316D01*
X76398462Y69330600D01*
X76581538Y69330600D01*
X76761096Y69366316D01*
X76930236Y69436376D01*
X77082458Y69538088D01*
X77211912Y69667542D01*
X77313624Y69819764D01*
X77383684Y69988904D01*
X77419400Y70168462D01*
X77419400Y70351538D01*
X77383684Y70531096D01*
X77349892Y70612678D01*
X79867840Y73130626D01*
X79867840Y71596415D01*
X76795859Y68524432D01*
X76701096Y68563684D01*
X76521538Y68599400D01*
X76338462Y68599400D01*
X76158904Y68563684D01*
X75989764Y68493624D01*
X75837542Y68391912D01*
X75708088Y68262458D01*
X75606376Y68110236D01*
X75536316Y67941096D01*
X75500600Y67761538D01*
X75500600Y67578462D01*
X75536316Y67398904D01*
X75606376Y67229764D01*
X75708088Y67077542D01*
X75837542Y66948088D01*
X75989764Y66846376D01*
X76158904Y66776316D01*
X76338462Y66740600D01*
X76521538Y66740600D01*
X76701096Y66776316D01*
X76870236Y66846376D01*
X77022458Y66948088D01*
X77151912Y67077542D01*
X77253624Y67229764D01*
X77323684Y67398904D01*
X77359400Y67578462D01*
X77359400Y67761538D01*
X77323684Y67941096D01*
X77292820Y68015607D01*
X79578752Y70301538D01*
X80580600Y70301538D01*
X80580600Y70118462D01*
X80616316Y69938904D01*
X80686376Y69769764D01*
X80788088Y69617542D01*
X80917542Y69488088D01*
X81069764Y69386376D01*
X81238904Y69316316D01*
X81418462Y69280600D01*
X81601538Y69280600D01*
X81781096Y69316316D01*
X81950236Y69386376D01*
X82102458Y69488088D01*
X82231912Y69617542D01*
X82333624Y69769764D01*
X82403684Y69938904D01*
X82439400Y70118462D01*
X82439400Y70301538D01*
X82429455Y70351538D01*
X83180600Y70351538D01*
X83180600Y70168462D01*
X83216316Y69988904D01*
X83286376Y69819764D01*
X83388088Y69667542D01*
X83517542Y69538088D01*
X83669764Y69436376D01*
X83838904Y69366316D01*
X84018462Y69330600D01*
X84201538Y69330600D01*
X84381096Y69366316D01*
X84550236Y69436376D01*
X84702458Y69538088D01*
X84831912Y69667542D01*
X84933624Y69819764D01*
X85003684Y69988904D01*
X85039400Y70168462D01*
X85039400Y70351538D01*
X85003684Y70531096D01*
X84933624Y70700236D01*
X84831912Y70852458D01*
X84702458Y70981912D01*
X84550236Y71083624D01*
X84381096Y71153684D01*
X84201538Y71189400D01*
X84018462Y71189400D01*
X83838904Y71153684D01*
X83669764Y71083624D01*
X83517542Y70981912D01*
X83388088Y70852458D01*
X83286376Y70700236D01*
X83216316Y70531096D01*
X83180600Y70351538D01*
X82429455Y70351538D01*
X82403684Y70481096D01*
X82333624Y70650236D01*
X82231912Y70802458D01*
X82102458Y70931912D01*
X81950236Y71033624D01*
X81781096Y71103684D01*
X81601538Y71139400D01*
X81418462Y71139400D01*
X81238904Y71103684D01*
X81069764Y71033624D01*
X80917542Y70931912D01*
X80788088Y70802458D01*
X80686376Y70650236D01*
X80616316Y70481096D01*
X80580600Y70301538D01*
X79578752Y70301538D01*
X80462550Y71185335D01*
X80476102Y71196457D01*
X80487225Y71210010D01*
X80487235Y71210020D01*
X80520540Y71250603D01*
X80520542Y71250605D01*
X80553561Y71312380D01*
X80566759Y71355890D01*
X80573894Y71379409D01*
X80577339Y71414390D01*
X80579040Y71431657D01*
X80579040Y71431664D01*
X80580759Y71449119D01*
X80579040Y71466574D01*
X80579040Y80620880D01*
X80634130Y80675970D01*
X80634130Y81279220D01*
X80614130Y81279220D01*
X80614130Y81525220D01*
X80634130Y81525220D01*
X80634130Y82128470D01*
X80579040Y82183560D01*
X80579040Y82697179D01*
X80797953Y82916096D01*
X80837308Y82912220D01*
X81161955Y82912220D01*
X81166438Y82897440D01*
X81225403Y82787126D01*
X81304755Y82690435D01*
X81401446Y82611083D01*
X81511760Y82552118D01*
X81519719Y82549704D01*
X81517928Y82543799D01*
X81512231Y82485953D01*
X81512231Y82101366D01*
X81500571Y82114851D01*
X81401872Y82191693D01*
X81290079Y82247802D01*
X81169487Y82281024D01*
X81046880Y82287220D01*
X80888130Y82128470D01*
X80888130Y81525220D01*
X80908130Y81525220D01*
X80908130Y81279220D01*
X80888130Y81279220D01*
X80888130Y80675970D01*
X81046880Y80517220D01*
X81136159Y80521732D01*
X81156590Y80419015D01*
X81200628Y80312697D01*
X81264562Y80217014D01*
X81345934Y80135642D01*
X81441617Y80071708D01*
X81547935Y80027670D01*
X81660801Y80005220D01*
X81775879Y80005220D01*
X81888745Y80027670D01*
X81950330Y80053179D01*
X81950330Y78758912D01*
X81928782Y78737364D01*
X81841096Y78773684D01*
X81661538Y78809400D01*
X81478462Y78809400D01*
X81298904Y78773684D01*
X81129764Y78703624D01*
X80977542Y78601912D01*
X80848088Y78472458D01*
X80746376Y78320236D01*
X80676316Y78151096D01*
X80640600Y77971538D01*
X80640600Y77788462D01*
X80676316Y77608904D01*
X80746376Y77439764D01*
X80848088Y77287542D01*
X80977542Y77158088D01*
X81129764Y77056376D01*
X81298904Y76986316D01*
X81478462Y76950600D01*
X81661538Y76950600D01*
X81841096Y76986316D01*
X82010236Y77056376D01*
X82162458Y77158088D01*
X82291912Y77287542D01*
X82350340Y77374985D01*
X82350340Y76618915D01*
X81928787Y76197361D01*
X81841096Y76233684D01*
X81661538Y76269400D01*
X81478462Y76269400D01*
X81298904Y76233684D01*
X81129764Y76163624D01*
X80977542Y76061912D01*
X80848088Y75932458D01*
X80746376Y75780236D01*
X80676316Y75611096D01*
X80640600Y75431538D01*
X80640600Y75248462D01*
X80676316Y75068904D01*
X80746376Y74899764D01*
X80848088Y74747542D01*
X80977542Y74618088D01*
X81129764Y74516376D01*
X81298904Y74446316D01*
X81478462Y74410600D01*
X81661538Y74410600D01*
X81841096Y74446316D01*
X82010236Y74516376D01*
X82162458Y74618088D01*
X82291912Y74747542D01*
X82393624Y74899764D01*
X82463684Y75068904D01*
X82499400Y75248462D01*
X82499400Y75431538D01*
X82463684Y75611096D01*
X82429892Y75692678D01*
X82750330Y76013116D01*
X82750330Y74478913D01*
X81928784Y73657362D01*
X81841096Y73693684D01*
X81661538Y73729400D01*
X81478462Y73729400D01*
X81298904Y73693684D01*
X81129764Y73623624D01*
X80977542Y73521912D01*
X80848088Y73392458D01*
X80746376Y73240236D01*
X80676316Y73071096D01*
X80640600Y72891538D01*
X80640600Y72708462D01*
X80676316Y72528904D01*
X80746376Y72359764D01*
X80848088Y72207542D01*
X80977542Y72078088D01*
X81129764Y71976376D01*
X81298904Y71906316D01*
X81478462Y71870600D01*
X81661538Y71870600D01*
X81841096Y71906316D01*
X82010236Y71976376D01*
X82162458Y72078088D01*
X82291912Y72207542D01*
X82393624Y72359764D01*
X82463684Y72528904D01*
X82499400Y72708462D01*
X82499400Y72891538D01*
X82463684Y73071096D01*
X82429890Y73152681D01*
X83345035Y74067831D01*
X83358592Y74078957D01*
X83369720Y74092516D01*
X83369726Y74092522D01*
X83397427Y74126276D01*
X83403031Y74133104D01*
X83436051Y74194880D01*
X83456384Y74261910D01*
X83461530Y74314157D01*
X83461530Y74314166D01*
X83463249Y74331621D01*
X83461530Y74349076D01*
X83461530Y74474100D01*
X83547542Y74388088D01*
X83699764Y74286376D01*
X83868904Y74216316D01*
X84048462Y74180600D01*
X84231538Y74180600D01*
X84411096Y74216316D01*
X84580236Y74286376D01*
X84732458Y74388088D01*
X84750340Y74405970D01*
X84750340Y73474030D01*
X84702458Y73521912D01*
X84550236Y73623624D01*
X84381096Y73693684D01*
X84201538Y73729400D01*
X84018462Y73729400D01*
X83838904Y73693684D01*
X83669764Y73623624D01*
X83517542Y73521912D01*
X83388088Y73392458D01*
X83286376Y73240236D01*
X83216316Y73071096D01*
X83180600Y72891538D01*
X83180600Y72708462D01*
X83216316Y72528904D01*
X83286376Y72359764D01*
X83388088Y72207542D01*
X83517542Y72078088D01*
X83669764Y71976376D01*
X83838904Y71906316D01*
X84018462Y71870600D01*
X84201538Y71870600D01*
X84381096Y71906316D01*
X84550236Y71976376D01*
X84702458Y72078088D01*
X84750340Y72125970D01*
X84750340Y71809075D01*
X84748621Y71791620D01*
X84750340Y71774165D01*
X84750340Y71774158D01*
X84755486Y71721911D01*
X84775819Y71654881D01*
X84808839Y71593105D01*
X84853277Y71538958D01*
X84866842Y71527825D01*
X85759948Y70634718D01*
X85696316Y70481096D01*
X85660600Y70301538D01*
X85660600Y70118462D01*
X85696316Y69938904D01*
X85766376Y69769764D01*
X85868088Y69617542D01*
X85997542Y69488088D01*
X86149764Y69386376D01*
X86318904Y69316316D01*
X86498462Y69280600D01*
X86681538Y69280600D01*
X86861096Y69316316D01*
X87030236Y69386376D01*
X87182458Y69488088D01*
X87311912Y69617542D01*
X87413624Y69769764D01*
X87483684Y69938904D01*
X87519400Y70118462D01*
X87519400Y70301538D01*
X87483684Y70481096D01*
X87413624Y70650236D01*
X87311912Y70802458D01*
X87182458Y70931912D01*
X87030236Y71033624D01*
X86861096Y71103684D01*
X86681538Y71139400D01*
X86498462Y71139400D01*
X86318904Y71103684D01*
X86303253Y71097201D01*
X85461540Y71938913D01*
X85461540Y73473118D01*
X85787728Y73146932D01*
X85756316Y73071096D01*
X85720600Y72891538D01*
X85720600Y72708462D01*
X85756316Y72528904D01*
X85826376Y72359764D01*
X85928088Y72207542D01*
X86057542Y72078088D01*
X86209764Y71976376D01*
X86378904Y71906316D01*
X86558462Y71870600D01*
X86741538Y71870600D01*
X86921096Y71906316D01*
X87090236Y71976376D01*
X87242458Y72078088D01*
X87371912Y72207542D01*
X87473624Y72359764D01*
X87543684Y72528904D01*
X87579400Y72708462D01*
X87579400Y72891538D01*
X87543684Y73071096D01*
X87473624Y73240236D01*
X87371912Y73392458D01*
X87242458Y73521912D01*
X87090236Y73623624D01*
X86921096Y73693684D01*
X86741538Y73729400D01*
X86558462Y73729400D01*
X86378904Y73693684D01*
X86285467Y73654981D01*
X85818130Y74122314D01*
X85818130Y74919672D01*
X85826376Y74899764D01*
X85928088Y74747542D01*
X86057542Y74618088D01*
X86209764Y74516376D01*
X86378904Y74446316D01*
X86558462Y74410600D01*
X86741538Y74410600D01*
X86921096Y74446316D01*
X87090236Y74516376D01*
X87242458Y74618088D01*
X87371912Y74747542D01*
X87473624Y74899764D01*
X87543684Y75068904D01*
X87579400Y75248462D01*
X87579400Y75431538D01*
X87543684Y75611096D01*
X87473624Y75780236D01*
X87371912Y75932458D01*
X87242458Y76061912D01*
X87090236Y76163624D01*
X86921096Y76233684D01*
X86741538Y76269400D01*
X86558462Y76269400D01*
X86378904Y76233684D01*
X86285466Y76194981D01*
X86122930Y76357514D01*
X86122930Y77064397D01*
X86209764Y77006376D01*
X86378904Y76936316D01*
X86558462Y76900600D01*
X86741538Y76900600D01*
X86921096Y76936316D01*
X87090236Y77006376D01*
X87242458Y77108088D01*
X87371912Y77237542D01*
X87473624Y77389764D01*
X87543684Y77558904D01*
X87579400Y77738462D01*
X87579400Y77918465D01*
X90026691Y75471165D01*
X90026690Y74152714D01*
X90024971Y74135259D01*
X90026690Y74117806D01*
X90026690Y74117798D01*
X90031836Y74065551D01*
X90047735Y74013139D01*
X90052170Y73998518D01*
X90085190Y73936743D01*
X90110987Y73905311D01*
X90129627Y73882598D01*
X90143193Y73871465D01*
X90867729Y73146933D01*
X90836316Y73071096D01*
X90800600Y72891538D01*
X90800600Y72708462D01*
X90836316Y72528904D01*
X90906376Y72359764D01*
X91008088Y72207542D01*
X91137542Y72078088D01*
X91289764Y71976376D01*
X91458904Y71906316D01*
X91638462Y71870600D01*
X91821538Y71870600D01*
X92001096Y71906316D01*
X92170236Y71976376D01*
X92322458Y72078088D01*
X92451912Y72207542D01*
X92553624Y72359764D01*
X92623684Y72528904D01*
X92659400Y72708462D01*
X92659400Y72891538D01*
X92623684Y73071096D01*
X92553624Y73240236D01*
X92451912Y73392458D01*
X92322458Y73521912D01*
X92170236Y73623624D01*
X92001096Y73693684D01*
X91821538Y73729400D01*
X91638462Y73729400D01*
X91458904Y73693684D01*
X91365468Y73654981D01*
X90737890Y74282554D01*
X90737890Y75413006D01*
X90800600Y75350296D01*
X90800600Y75248462D01*
X90836316Y75068904D01*
X90906376Y74899764D01*
X91008088Y74747542D01*
X91137542Y74618088D01*
X91289764Y74516376D01*
X91458904Y74446316D01*
X91638462Y74410600D01*
X91821538Y74410600D01*
X92001096Y74446316D01*
X92170236Y74516376D01*
X92322458Y74618088D01*
X92451912Y74747542D01*
X92553624Y74899764D01*
X92623684Y75068904D01*
X92659400Y75248462D01*
X92659400Y75431538D01*
X92623684Y75611096D01*
X92553624Y75780236D01*
X92451912Y75932458D01*
X92322458Y76061912D01*
X92170236Y76163624D01*
X92001096Y76233684D01*
X91821538Y76269400D01*
X91638462Y76269400D01*
X91458904Y76233684D01*
X91289764Y76163624D01*
X91137542Y76061912D01*
X91116157Y76040527D01*
X90758854Y76397830D01*
X92696828Y76397830D01*
X93407729Y75686933D01*
X93376316Y75611096D01*
X93340600Y75431538D01*
X93340600Y75248462D01*
X93376316Y75068904D01*
X93446376Y74899764D01*
X93548088Y74747542D01*
X93677542Y74618088D01*
X93829764Y74516376D01*
X93998904Y74446316D01*
X94178462Y74410600D01*
X94361538Y74410600D01*
X94541096Y74446316D01*
X94710236Y74516376D01*
X94862458Y74618088D01*
X94991912Y74747542D01*
X95093624Y74899764D01*
X95163684Y75068904D01*
X95199400Y75248462D01*
X95199400Y75431538D01*
X95163684Y75611096D01*
X95093624Y75780236D01*
X94991912Y75932458D01*
X94862458Y76061912D01*
X94710236Y76163624D01*
X94541096Y76233684D01*
X94361538Y76269400D01*
X94178462Y76269400D01*
X93998904Y76233684D01*
X93905468Y76194982D01*
X93107913Y76992531D01*
X93096783Y77006093D01*
X93042636Y77050531D01*
X92980860Y77083551D01*
X92913830Y77103884D01*
X92861583Y77109030D01*
X92861574Y77109030D01*
X92844119Y77110749D01*
X92826666Y77109030D01*
X92263400Y77109030D01*
X92391912Y77237542D01*
X92493624Y77389764D01*
X92563684Y77558904D01*
X92599400Y77738462D01*
X92599400Y77921538D01*
X92563684Y78101096D01*
X92493624Y78270236D01*
X92391912Y78422458D01*
X92262458Y78551912D01*
X92110236Y78653624D01*
X91941096Y78723684D01*
X91761538Y78759400D01*
X91578462Y78759400D01*
X91398904Y78723684D01*
X91229764Y78653624D01*
X91077542Y78551912D01*
X90948088Y78422458D01*
X90846376Y78270236D01*
X90828558Y78227220D01*
X90298434Y78227220D01*
X89109853Y79415800D01*
X92218857Y79415800D01*
X93407729Y78226934D01*
X93376316Y78151096D01*
X93340600Y77971538D01*
X93340600Y77788462D01*
X93376316Y77608904D01*
X93446376Y77439764D01*
X93548088Y77287542D01*
X93677542Y77158088D01*
X93829764Y77056376D01*
X93998904Y76986316D01*
X94178462Y76950600D01*
X94361538Y76950600D01*
X94541096Y76986316D01*
X94710236Y77056376D01*
X94862458Y77158088D01*
X94991912Y77287542D01*
X95093624Y77439764D01*
X95163684Y77608904D01*
X95199400Y77788462D01*
X95199400Y77971538D01*
X95163684Y78151096D01*
X95093624Y78320236D01*
X94991912Y78472458D01*
X94862458Y78601912D01*
X94710236Y78703624D01*
X94541096Y78773684D01*
X94361538Y78809400D01*
X94178462Y78809400D01*
X93998904Y78773684D01*
X93905469Y78734982D01*
X92629944Y80010500D01*
X92618813Y80024063D01*
X92564666Y80068501D01*
X92502890Y80101521D01*
X92435860Y80121854D01*
X92383613Y80127000D01*
X92383605Y80127000D01*
X92366150Y80128719D01*
X92348697Y80127000D01*
X89135247Y80127000D01*
X88957340Y80304911D01*
X88957340Y83789468D01*
X88959059Y83806921D01*
X88957340Y83824374D01*
X88957340Y83824383D01*
X88952194Y83876630D01*
X88931861Y83943660D01*
X88898841Y84005436D01*
X88893584Y84011842D01*
X88865535Y84046020D01*
X88865530Y84046025D01*
X88854403Y84059583D01*
X88840845Y84070710D01*
X88500685Y84410869D01*
X88546940Y84410869D01*
X88601712Y84416264D01*
X88654379Y84432240D01*
X88694004Y84453420D01*
X88913746Y84453420D01*
X88919340Y84452869D01*
X89569340Y84452869D01*
X89624112Y84458264D01*
X89676779Y84474240D01*
X89719340Y84496989D01*
X89761901Y84474240D01*
X89806199Y84460803D01*
X89833666Y84438261D01*
X89948393Y84376938D01*
X90072879Y84339176D01*
X90169901Y84329620D01*
X92647289Y84329620D01*
X92744311Y84339176D01*
X92868797Y84376938D01*
X92983524Y84438261D01*
X93084083Y84520787D01*
X93166609Y84621346D01*
X93227932Y84736073D01*
X93265694Y84860559D01*
X93278445Y84990020D01*
X93265694Y85119481D01*
X93227932Y85243967D01*
X93166609Y85358694D01*
X93084083Y85459253D01*
X92983524Y85541779D01*
X92868797Y85603102D01*
X92744311Y85640864D01*
X92647289Y85650420D01*
X90169901Y85650420D01*
X90072879Y85640864D01*
X89948393Y85603102D01*
X89833666Y85541779D01*
X89781456Y85498932D01*
X89761901Y85493000D01*
X89719340Y85470251D01*
X89676779Y85493000D01*
X89624112Y85508976D01*
X89569340Y85514371D01*
X89279509Y85514371D01*
X89220125Y85520220D01*
X89158376Y85520220D01*
X89175744Y85583263D01*
X89181940Y85705870D01*
X89023190Y85864620D01*
X88419940Y85864620D01*
X88419940Y85844620D01*
X88173940Y85844620D01*
X88173940Y85864620D01*
X88149940Y85864620D01*
X88149940Y86118620D01*
X88173940Y86118620D01*
X88173940Y86138620D01*
X88419940Y86138620D01*
X88419940Y86118620D01*
X89023190Y86118620D01*
X89181940Y86277370D01*
X89175744Y86399977D01*
X89144985Y86511630D01*
X89149689Y86506189D01*
X89248388Y86429347D01*
X89360181Y86373238D01*
X89480773Y86340016D01*
X89603380Y86333820D01*
X89762130Y86492570D01*
X89762130Y87095820D01*
X90016130Y87095820D01*
X90016130Y86492570D01*
X90174880Y86333820D01*
X90297487Y86340016D01*
X90418079Y86373238D01*
X90529872Y86429347D01*
X90628571Y86506189D01*
X90710382Y86600808D01*
X90772162Y86709571D01*
X90811536Y86828296D01*
X90824130Y86937070D01*
X90665380Y87095820D01*
X90016130Y87095820D01*
X89762130Y87095820D01*
X89742130Y87095820D01*
X89742130Y87341820D01*
X89762130Y87341820D01*
X89762130Y87381560D01*
X89762140Y87381570D01*
X89762140Y87945070D01*
X90016130Y87945070D01*
X90016130Y87341820D01*
X90055890Y87341820D01*
X90174890Y87222820D01*
X90297497Y87229016D01*
X90418089Y87262238D01*
X90529882Y87318347D01*
X90560032Y87341820D01*
X90665380Y87341820D01*
X90824130Y87500570D01*
X90811536Y87609344D01*
X90793640Y87663305D01*
X90811546Y87717296D01*
X90824140Y87826070D01*
X90665390Y87984820D01*
X90560022Y87984820D01*
X90529872Y88008293D01*
X90418079Y88064402D01*
X90297487Y88097624D01*
X90174880Y88103820D01*
X90055880Y87984820D01*
X90016140Y87984820D01*
X90016140Y87945080D01*
X90016130Y87945070D01*
X89762140Y87945070D01*
X89762140Y87984820D01*
X89742140Y87984820D01*
X89742140Y88230820D01*
X89762140Y88230820D01*
X89762140Y88254820D01*
X90016140Y88254820D01*
X90016140Y88230820D01*
X90665390Y88230820D01*
X90824140Y88389570D01*
X90819902Y88426170D01*
X90821088Y88427615D01*
X90875485Y88482014D01*
X90936888Y88463388D01*
X91061370Y88451128D01*
X91250620Y88454200D01*
X91409370Y88612950D01*
X91409370Y89387200D01*
X91663370Y89387200D01*
X91663370Y88612950D01*
X91822120Y88454200D01*
X92011370Y88451128D01*
X92135852Y88463388D01*
X92255550Y88499698D01*
X92365864Y88558663D01*
X92462555Y88638015D01*
X92541907Y88734706D01*
X92600872Y88845020D01*
X92637182Y88964718D01*
X92649442Y89089200D01*
X92646370Y89228450D01*
X92487620Y89387200D01*
X92466370Y89387200D01*
X92466370Y89462200D01*
X92712370Y89462200D01*
X92712370Y88812950D01*
X92871120Y88654200D01*
X92979894Y88666794D01*
X93098619Y88706168D01*
X93207382Y88767948D01*
X93302001Y88849759D01*
X93378843Y88948458D01*
X93434952Y89060251D01*
X93468174Y89180843D01*
X93474370Y89303450D01*
X93315620Y89462200D01*
X92712370Y89462200D01*
X92466370Y89462200D01*
X91863120Y89462200D01*
X91788120Y89387200D01*
X91663370Y89387200D01*
X91409370Y89387200D01*
X91389370Y89387200D01*
X91389370Y89641200D01*
X91409370Y89641200D01*
X91409370Y89661200D01*
X91663370Y89661200D01*
X91663370Y89641200D01*
X92487620Y89641200D01*
X92582620Y89736200D01*
X92712370Y89736200D01*
X92712370Y89716200D01*
X93315620Y89716200D01*
X93474370Y89874950D01*
X93468174Y89997557D01*
X93434952Y90118149D01*
X93378843Y90229942D01*
X93302001Y90328641D01*
X93207382Y90410452D01*
X93120121Y90460018D01*
X93120121Y90889200D01*
X93114726Y90943972D01*
X93098750Y90996639D01*
X93072806Y91045177D01*
X93037891Y91087721D01*
X92995347Y91122636D01*
X92946809Y91148580D01*
X92894142Y91164556D01*
X92839370Y91169951D01*
X92339370Y91169951D01*
X92284598Y91164556D01*
X92280829Y91163413D01*
X92270750Y91196639D01*
X92244806Y91245177D01*
X92209891Y91287721D01*
X92167347Y91322636D01*
X92118809Y91348580D01*
X92066142Y91364556D01*
X92011370Y91369951D01*
X91131324Y91369951D01*
X91091907Y91443694D01*
X91012555Y91540385D01*
X90915864Y91619737D01*
X90805550Y91678702D01*
X90685852Y91715012D01*
X90561370Y91727272D01*
X90372120Y91724200D01*
X90213370Y91565450D01*
X90213370Y90791200D01*
X90233370Y90791200D01*
X90233370Y90537200D01*
X90213370Y90537200D01*
X90213370Y90517200D01*
X89959370Y90517200D01*
X89959370Y90537200D01*
X89135120Y90537200D01*
X89040120Y90442200D01*
X88910370Y90442200D01*
X88910370Y90462200D01*
X88267370Y90462200D01*
X88267370Y90442200D01*
X88021370Y90442200D01*
X88021370Y90462200D01*
X87418120Y90462200D01*
X87259370Y90303450D01*
X87265566Y90180843D01*
X87295219Y90073205D01*
X87262765Y90066750D01*
X87156447Y90022712D01*
X87060764Y89958778D01*
X86979392Y89877406D01*
X86915458Y89781723D01*
X86871420Y89675405D01*
X86848970Y89562539D01*
X86848970Y89447461D01*
X86871420Y89334595D01*
X86915458Y89228277D01*
X86979392Y89132594D01*
X87060764Y89051222D01*
X87156447Y88987288D01*
X87262765Y88943250D01*
X87308230Y88934207D01*
X86855191Y88481167D01*
X86839693Y88468448D01*
X86826974Y88452950D01*
X86826968Y88452944D01*
X86815888Y88439442D01*
X86788907Y88406566D01*
X86779386Y88388753D01*
X86700120Y88431122D01*
X86685340Y88435605D01*
X86685340Y88760252D01*
X86679850Y88815995D01*
X86659157Y88884210D01*
X86656394Y88912260D01*
X86636061Y88979290D01*
X86603041Y89041066D01*
X86595140Y89050693D01*
X86595140Y90874950D01*
X87259370Y90874950D01*
X87418120Y90716200D01*
X88021370Y90716200D01*
X88021370Y90874950D01*
X88148370Y90874950D01*
X88267370Y90755950D01*
X88267370Y90716200D01*
X88910370Y90716200D01*
X88910370Y90755950D01*
X89029370Y90874950D01*
X89028199Y90898121D01*
X89135120Y90791200D01*
X89156370Y90791200D01*
X89156370Y90716200D01*
X89759620Y90716200D01*
X89834620Y90791200D01*
X89959370Y90791200D01*
X89959370Y91565450D01*
X89800620Y91724200D01*
X89611370Y91727272D01*
X89486888Y91715012D01*
X89367190Y91678702D01*
X89256876Y91619737D01*
X89160185Y91540385D01*
X89080833Y91443694D01*
X89021868Y91333380D01*
X88985558Y91213682D01*
X88978413Y91141139D01*
X88933843Y91229942D01*
X88910370Y91260092D01*
X88910370Y91365450D01*
X88751620Y91524200D01*
X88642846Y91511606D01*
X88588870Y91493705D01*
X88534894Y91511606D01*
X88426120Y91524200D01*
X88267370Y91365450D01*
X88267370Y91260092D01*
X88243897Y91229942D01*
X88187788Y91118149D01*
X88154566Y90997557D01*
X88148370Y90874950D01*
X88021370Y90874950D01*
X88021370Y91365450D01*
X87862620Y91524200D01*
X87753846Y91511606D01*
X87635121Y91472232D01*
X87526358Y91410452D01*
X87431739Y91328641D01*
X87354897Y91229942D01*
X87298788Y91118149D01*
X87265566Y90997557D01*
X87259370Y90874950D01*
X86595140Y90874950D01*
X86595140Y94615327D01*
X87115834Y95136020D01*
X89008485Y95136020D01*
X89025940Y95134301D01*
X89043395Y95136020D01*
X89043403Y95136020D01*
X89095650Y95141166D01*
X89162680Y95161499D01*
X89224456Y95194519D01*
X89278603Y95238957D01*
X89289739Y95252526D01*
X91300962Y97263748D01*
X91318904Y97256316D01*
X91498462Y97220600D01*
X91681538Y97220600D01*
X91861096Y97256316D01*
X92030236Y97326376D01*
X92182458Y97428088D01*
X92311912Y97557542D01*
X92413624Y97709764D01*
X92483684Y97878904D01*
X92519400Y98058462D01*
X92519400Y98241538D01*
X92483684Y98421096D01*
X92413624Y98590236D01*
X92311912Y98742458D01*
X92182458Y98871912D01*
X92030236Y98973624D01*
X91861096Y99043684D01*
X91681538Y99079400D01*
X91498462Y99079400D01*
X91318904Y99043684D01*
X91149764Y98973624D01*
X90997542Y98871912D01*
X90868088Y98742458D01*
X90766376Y98590236D01*
X90696316Y98421096D01*
X90660600Y98241538D01*
X90660600Y98058462D01*
X90696316Y97878904D01*
X90758999Y97727573D01*
X88878647Y95847220D01*
X87395984Y95847220D01*
X88873774Y97325009D01*
X88918904Y97306316D01*
X89098462Y97270600D01*
X89281538Y97270600D01*
X89461096Y97306316D01*
X89630236Y97376376D01*
X89782458Y97478088D01*
X89911912Y97607542D01*
X90013624Y97759764D01*
X90083684Y97928904D01*
X90119400Y98108462D01*
X90119400Y98291538D01*
X90083684Y98471096D01*
X90013624Y98640236D01*
X89911912Y98792458D01*
X89782458Y98921912D01*
X89630236Y99023624D01*
X89461096Y99093684D01*
X89281538Y99129400D01*
X89098462Y99129400D01*
X88918904Y99093684D01*
X88749764Y99023624D01*
X88597542Y98921912D01*
X88468088Y98792458D01*
X88366376Y98640236D01*
X88296316Y98471096D01*
X88260600Y98291538D01*
X88260600Y98108462D01*
X88296316Y97928904D01*
X88347737Y97804762D01*
X85985540Y95442563D01*
X85985540Y97028327D01*
X86244393Y97287179D01*
X86318904Y97256316D01*
X86498462Y97220600D01*
X86681538Y97220600D01*
X86861096Y97256316D01*
X87030236Y97326376D01*
X87182458Y97428088D01*
X87311912Y97557542D01*
X87413624Y97709764D01*
X87483684Y97878904D01*
X87519400Y98058462D01*
X87519400Y98241538D01*
X87483684Y98421096D01*
X87413624Y98590236D01*
X87311912Y98742458D01*
X87182458Y98871912D01*
X87030236Y98973624D01*
X86861096Y99043684D01*
X86681538Y99079400D01*
X86498462Y99079400D01*
X86318904Y99043684D01*
X86149764Y98973624D01*
X85997542Y98871912D01*
X85868088Y98742458D01*
X85766376Y98590236D01*
X85696316Y98421096D01*
X85660600Y98241538D01*
X85660600Y98058462D01*
X85696316Y97878904D01*
X85735568Y97784141D01*
X85390841Y97439414D01*
X85377278Y97428283D01*
X85374976Y97425478D01*
X84964983Y97835471D01*
X85003684Y97928904D01*
X85039400Y98108462D01*
X85039400Y98291538D01*
X85003684Y98471096D01*
X84933624Y98640236D01*
X84831912Y98792458D01*
X84702458Y98921912D01*
X84550236Y99023624D01*
X84381096Y99093684D01*
X84201538Y99129400D01*
X84018462Y99129400D01*
X83838904Y99093684D01*
X83669764Y99023624D01*
X83517542Y98921912D01*
X83388088Y98792458D01*
X83286376Y98640236D01*
X83216316Y98471096D01*
X83180600Y98291538D01*
X83180600Y98108462D01*
X83216316Y97928904D01*
X83286376Y97759764D01*
X83388088Y97607542D01*
X83517542Y97478088D01*
X83669764Y97376376D01*
X83838904Y97306316D01*
X84018462Y97270600D01*
X84201538Y97270600D01*
X84381096Y97306316D01*
X84456936Y97337730D01*
X84969541Y96825124D01*
X84969541Y95845314D01*
X82506013Y98308840D01*
X82483684Y98421096D01*
X82413624Y98590236D01*
X82311912Y98742458D01*
X82182458Y98871912D01*
X82030236Y98973624D01*
X81861096Y99043684D01*
X81681538Y99079400D01*
X81498462Y99079400D01*
X81318904Y99043684D01*
X81149764Y98973624D01*
X80997542Y98871912D01*
X80868088Y98742458D01*
X80766376Y98590236D01*
X80696316Y98421096D01*
X80660600Y98241538D01*
X80660600Y98058462D01*
X80696316Y97878904D01*
X80766376Y97709764D01*
X80868088Y97557542D01*
X80997542Y97428088D01*
X81149764Y97326376D01*
X81318904Y97256316D01*
X81364633Y97247220D01*
X80473234Y97247220D01*
X79857201Y97863253D01*
X79863684Y97878904D01*
X79899400Y98058462D01*
X79899400Y98241538D01*
X79863684Y98421096D01*
X79793624Y98590236D01*
X79691912Y98742458D01*
X79562458Y98871912D01*
X79410236Y98973624D01*
X79241096Y99043684D01*
X79061538Y99079400D01*
X78878462Y99079400D01*
X78698904Y99043684D01*
X78529764Y98973624D01*
X78377542Y98871912D01*
X78248088Y98742458D01*
X78146376Y98590236D01*
X78076316Y98421096D01*
X78040600Y98241538D01*
X78040600Y98058462D01*
X78076316Y97878904D01*
X78146376Y97709764D01*
X78248088Y97557542D01*
X78377542Y97428088D01*
X78529764Y97326376D01*
X78698904Y97256316D01*
X78878462Y97220600D01*
X79061538Y97220600D01*
X79241096Y97256316D01*
X79394718Y97319948D01*
X79867446Y96847220D01*
X78333226Y96847220D01*
X77317200Y97863250D01*
X77323684Y97878904D01*
X77359400Y98058462D01*
X77359400Y98241538D01*
X77323684Y98421096D01*
X77253624Y98590236D01*
X77151912Y98742458D01*
X77022458Y98871912D01*
X76870236Y98973624D01*
X76701096Y99043684D01*
X76521538Y99079400D01*
X76338462Y99079400D01*
X76158904Y99043684D01*
X75989764Y98973624D01*
X75837542Y98871912D01*
X75708088Y98742458D01*
X75606376Y98590236D01*
X75536316Y98421096D01*
X75500600Y98241538D01*
X75500600Y98058462D01*
X75536316Y97878904D01*
X75606376Y97709764D01*
X75708088Y97557542D01*
X75837542Y97428088D01*
X75989764Y97326376D01*
X76158904Y97256316D01*
X76338462Y97220600D01*
X76521538Y97220600D01*
X76701096Y97256316D01*
X76854715Y97319947D01*
X77922135Y96252521D01*
X77933267Y96238957D01*
X77987414Y96194519D01*
X78049190Y96161499D01*
X78116220Y96141166D01*
X78168467Y96136020D01*
X78168475Y96136020D01*
X78185928Y96134301D01*
X78203384Y96136020D01*
X82534438Y96136020D01*
X84055141Y94615324D01*
X84055141Y92931471D01*
X83920140Y92796470D01*
X83920140Y92193220D01*
X83940140Y92193220D01*
X83940140Y91947220D01*
X83920140Y91947220D01*
X83920140Y91343970D01*
X84055140Y91208970D01*
X84055140Y89708776D01*
X83666828Y89320472D01*
X83653268Y89309343D01*
X83642141Y89295785D01*
X83642137Y89295781D01*
X83628071Y89278641D01*
X83622180Y89285450D01*
X83506164Y89375716D01*
X83374768Y89441614D01*
X83220909Y89467571D01*
X83105930Y89317870D01*
X83065759Y89370172D01*
X83034863Y89427976D01*
X82985664Y89487924D01*
X82970645Y89500250D01*
X82924840Y89546055D01*
X82924840Y91535035D01*
X82971888Y91452208D01*
X83053699Y91357589D01*
X83152398Y91280747D01*
X83264191Y91224638D01*
X83384783Y91191416D01*
X83507390Y91185220D01*
X83666140Y91343970D01*
X83666140Y91947220D01*
X83646140Y91947220D01*
X83646140Y92193220D01*
X83666140Y92193220D01*
X83666140Y92796470D01*
X83507390Y92955220D01*
X83384783Y92949024D01*
X83264191Y92915802D01*
X83152398Y92859693D01*
X83053699Y92782851D01*
X82971888Y92688232D01*
X82922322Y92600971D01*
X82607965Y92600971D01*
X82582804Y92626131D01*
X82593832Y92643032D01*
X82614338Y92694106D01*
X82624486Y92748199D01*
X82623885Y92803232D01*
X82612560Y92857091D01*
X82590945Y92907706D01*
X82559871Y92953131D01*
X82077780Y93527665D01*
X82057274Y93547728D01*
X82089614Y93628278D01*
X82112677Y93751217D01*
X82111312Y93876293D01*
X82085574Y93998700D01*
X82036448Y94113734D01*
X81965825Y94216973D01*
X81906103Y94283368D01*
X81682450Y94302935D01*
X81108492Y93821326D01*
X81121347Y93806006D01*
X80926772Y93642737D01*
X80913916Y93658058D01*
X80898596Y93645203D01*
X80735327Y93839778D01*
X80750648Y93852634D01*
X80285109Y94407441D01*
X80061457Y94427008D01*
X79971962Y94355923D01*
X79884484Y94266516D01*
X79816130Y94161760D01*
X79769526Y94045682D01*
X79746463Y93922743D01*
X79747828Y93797667D01*
X79773566Y93675260D01*
X79822692Y93560226D01*
X79893315Y93456987D01*
X79953037Y93390592D01*
X80094954Y93378176D01*
X79791450Y93123506D01*
X79752960Y93084167D01*
X79722884Y93038074D01*
X79702378Y92987000D01*
X79692230Y92932907D01*
X79692831Y92877874D01*
X79704156Y92824015D01*
X79725771Y92773400D01*
X79756845Y92727975D01*
X80174657Y92230046D01*
X80213996Y92191556D01*
X80260088Y92161480D01*
X80304876Y92143498D01*
X80314806Y92096275D01*
X80336421Y92045660D01*
X80367495Y92000235D01*
X80785307Y91502306D01*
X80824646Y91463816D01*
X80870738Y91433740D01*
X80921812Y91413234D01*
X80975906Y91403086D01*
X81030939Y91403687D01*
X81070672Y91412042D01*
X81164589Y91318124D01*
X81164589Y90673580D01*
X81169984Y90618808D01*
X81185960Y90566141D01*
X81211904Y90517603D01*
X81246819Y90475059D01*
X81289363Y90440144D01*
X81337901Y90414200D01*
X81390568Y90398224D01*
X81445340Y90392829D01*
X82137440Y90392829D01*
X82137440Y90354331D01*
X81445340Y90354331D01*
X81390568Y90348936D01*
X81337901Y90332960D01*
X81289363Y90307016D01*
X81246819Y90272101D01*
X81211904Y90229557D01*
X81185960Y90181019D01*
X81169984Y90128352D01*
X81164589Y90073580D01*
X81164589Y89323580D01*
X81169984Y89268808D01*
X81185960Y89216141D01*
X81211904Y89167603D01*
X81246819Y89125059D01*
X81289363Y89090144D01*
X81337901Y89064200D01*
X81390568Y89048224D01*
X81445340Y89042829D01*
X81642744Y89042829D01*
X81657240Y89028333D01*
X81636356Y89011194D01*
X81588945Y88953422D01*
X81553715Y88887511D01*
X81553050Y88885320D01*
X80091858Y88885320D01*
X80081320Y88920059D01*
X80055376Y88968597D01*
X80020461Y89011141D01*
X79977917Y89046056D01*
X79929379Y89072000D01*
X79876712Y89087976D01*
X79821940Y89093371D01*
X79490955Y89093371D01*
X79360130Y89224195D01*
X79360130Y89226159D01*
X79337680Y89339025D01*
X79293642Y89445343D01*
X79229708Y89541026D01*
X79148336Y89622398D01*
X79052653Y89686332D01*
X78946335Y89730370D01*
X78833469Y89752820D01*
X78718391Y89752820D01*
X78605525Y89730370D01*
X78499207Y89686332D01*
X78403524Y89622398D01*
X78322152Y89541026D01*
X78258218Y89445343D01*
X78214180Y89339025D01*
X78191730Y89226159D01*
X78191730Y89111081D01*
X78214180Y88998215D01*
X78223940Y88974652D01*
X78223940Y88539620D01*
X78243940Y88539620D01*
X78243940Y88285620D01*
X78223940Y88285620D01*
X78223940Y88256220D01*
X78144928Y88256220D01*
X78144928Y88097472D01*
X77986180Y88256220D01*
X77969940Y88255399D01*
X77969940Y88285620D01*
X77245690Y88285620D01*
X77086940Y88126870D01*
X77083868Y88012620D01*
X77096128Y87888138D01*
X77132438Y87768440D01*
X77191403Y87658126D01*
X77270755Y87561435D01*
X77367446Y87482083D01*
X77477760Y87423118D01*
X77597458Y87386808D01*
X77721940Y87374548D01*
X77811190Y87377620D01*
X77927790Y87494220D01*
X78144930Y87494220D01*
X78144930Y87518220D01*
X78242090Y87518220D01*
X78382690Y87377620D01*
X78418930Y87376373D01*
X78418930Y87248220D01*
X78398930Y87248220D01*
X78398930Y87224220D01*
X78144930Y87224220D01*
X78144930Y87248220D01*
X77495680Y87248220D01*
X77388821Y87141361D01*
X75738340Y87141361D01*
X75683568Y87135966D01*
X75630901Y87119990D01*
X75582363Y87094046D01*
X75539819Y87059131D01*
X75504904Y87016587D01*
X75478960Y86968049D01*
X75462984Y86915382D01*
X75457589Y86860610D01*
X75457589Y85860610D01*
X75462984Y85805838D01*
X75478960Y85753171D01*
X75504904Y85704633D01*
X75539819Y85662089D01*
X75582363Y85627174D01*
X75630901Y85601230D01*
X75683568Y85585254D01*
X75738340Y85579859D01*
X77330451Y85579859D01*
X77334490Y85575820D01*
X77937740Y85575820D01*
X77937740Y85595820D01*
X78183740Y85595820D01*
X78183740Y85575820D01*
X78207740Y85575820D01*
X78207740Y85321820D01*
X78183740Y85321820D01*
X78183740Y85301820D01*
X77937740Y85301820D01*
X77937740Y85321820D01*
X77334490Y85321820D01*
X77175740Y85163070D01*
X77181936Y85040463D01*
X77215158Y84919871D01*
X77271267Y84808078D01*
X77348109Y84709379D01*
X77426764Y84641371D01*
X75738340Y84641371D01*
X75683568Y84635976D01*
X75630901Y84620000D01*
X75582363Y84594056D01*
X75539819Y84559141D01*
X75504904Y84516597D01*
X75478960Y84468059D01*
X75462984Y84415392D01*
X75457589Y84360620D01*
X75457589Y83557552D01*
X75398889Y83511851D01*
X75317078Y83417232D01*
X75255298Y83308469D01*
X75215924Y83189744D01*
X75203330Y83080970D01*
X75362080Y82922220D01*
X76011330Y82922220D01*
X76011330Y82946220D01*
X76265330Y82946220D01*
X76265330Y82922220D01*
X76285330Y82922220D01*
X76285330Y82676220D01*
X76265330Y82676220D01*
X76265330Y82652220D01*
X76011330Y82652220D01*
X76011330Y82676220D01*
X75362080Y82676220D01*
X75203330Y82517470D01*
X75215924Y82408696D01*
X75255298Y82289971D01*
X75317078Y82181208D01*
X75398889Y82086589D01*
X75495340Y82011497D01*
X75495340Y81928881D01*
X75517790Y81816015D01*
X75561828Y81709697D01*
X75625762Y81614014D01*
X75707134Y81532642D01*
X75802817Y81468708D01*
X75909135Y81424670D01*
X76022001Y81402220D01*
X76137079Y81402220D01*
X76249945Y81424670D01*
X76356263Y81468708D01*
X76451946Y81532642D01*
X76533318Y81614014D01*
X76597252Y81709697D01*
X76641290Y81816015D01*
X76663740Y81928881D01*
X76663740Y81952663D01*
X76667279Y81953638D01*
X76779072Y82009747D01*
X76877771Y82086589D01*
X76959582Y82181208D01*
X77009148Y82268469D01*
X77425741Y82268469D01*
X77425740Y80411298D01*
X77389610Y80375170D01*
X76111345Y80375170D01*
X76093889Y80376889D01*
X76076434Y80375170D01*
X76076427Y80375170D01*
X76031077Y80370703D01*
X76024179Y80370024D01*
X75994992Y80361170D01*
X75957150Y80349691D01*
X75895374Y80316671D01*
X75841227Y80272233D01*
X75830096Y80258670D01*
X74255859Y78684432D01*
X74161096Y78723684D01*
X73981538Y78759400D01*
X73798462Y78759400D01*
X73618904Y78723684D01*
X73449764Y78653624D01*
X73297542Y78551912D01*
X73168088Y78422458D01*
X73066376Y78270236D01*
X72996316Y78101096D01*
X72960600Y77921538D01*
X69160580Y77921538D01*
X69160580Y88812620D01*
X77083868Y88812620D01*
X77086940Y88698370D01*
X77245690Y88539620D01*
X77969940Y88539620D01*
X77969940Y89288870D01*
X77811190Y89447620D01*
X77721940Y89450692D01*
X77597458Y89438432D01*
X77477760Y89402122D01*
X77367446Y89343157D01*
X77270755Y89263805D01*
X77191403Y89167114D01*
X77132438Y89056800D01*
X77096128Y88937102D01*
X77083868Y88812620D01*
X69160580Y88812620D01*
X69160580Y89644473D01*
X73184078Y89644473D01*
X73237466Y89415799D01*
X73467374Y89309905D01*
X73713524Y89250898D01*
X73966455Y89241048D01*
X74216449Y89280730D01*
X74453896Y89368422D01*
X74542534Y89415799D01*
X74595922Y89644473D01*
X73890000Y90350395D01*
X73184078Y89644473D01*
X69160580Y89644473D01*
X69160580Y90453545D01*
X72601048Y90453545D01*
X72640730Y90203551D01*
X72728422Y89966104D01*
X72775799Y89877466D01*
X73004473Y89824078D01*
X73710395Y90530000D01*
X74069605Y90530000D01*
X74775527Y89824078D01*
X75004201Y89877466D01*
X75110095Y90107374D01*
X75169102Y90353524D01*
X75178952Y90606455D01*
X75176558Y90621538D01*
X75500600Y90621538D01*
X75500600Y90438462D01*
X75536316Y90258904D01*
X75606376Y90089764D01*
X75708088Y89937542D01*
X75837542Y89808088D01*
X75989764Y89706376D01*
X76158904Y89636316D01*
X76338462Y89600600D01*
X76521538Y89600600D01*
X76701096Y89636316D01*
X76870236Y89706376D01*
X77022458Y89808088D01*
X77151912Y89937542D01*
X77253624Y90089764D01*
X77323684Y90258904D01*
X77359400Y90438462D01*
X77359400Y90621538D01*
X77323684Y90801096D01*
X77253624Y90970236D01*
X77151912Y91122458D01*
X77022458Y91251912D01*
X76870236Y91353624D01*
X76701096Y91423684D01*
X76521538Y91459400D01*
X76338462Y91459400D01*
X76158904Y91423684D01*
X75989764Y91353624D01*
X75837542Y91251912D01*
X75708088Y91122458D01*
X75606376Y90970236D01*
X75536316Y90801096D01*
X75500600Y90621538D01*
X75176558Y90621538D01*
X75139270Y90856449D01*
X75051578Y91093896D01*
X75004201Y91182534D01*
X74775527Y91235922D01*
X74069605Y90530000D01*
X73710395Y90530000D01*
X73004473Y91235922D01*
X72775799Y91182534D01*
X72669905Y90952626D01*
X72610898Y90706476D01*
X72601048Y90453545D01*
X69160580Y90453545D01*
X69160580Y91415527D01*
X73184078Y91415527D01*
X73890000Y90709605D01*
X74595922Y91415527D01*
X74542534Y91644201D01*
X74312626Y91750095D01*
X74066476Y91809102D01*
X73813545Y91818952D01*
X73563551Y91779270D01*
X73326104Y91691578D01*
X73237466Y91644201D01*
X73184078Y91415527D01*
X69160580Y91415527D01*
X69160580Y94570709D01*
X80479685Y94570709D01*
X80945224Y94015902D01*
X81519182Y94497510D01*
X81538749Y94721162D01*
X81483734Y94791506D01*
X81394327Y94878985D01*
X81289571Y94947339D01*
X81173493Y94993942D01*
X81050554Y95017006D01*
X80925478Y95015641D01*
X80803071Y94989902D01*
X80688037Y94940777D01*
X80584798Y94870153D01*
X80499252Y94794361D01*
X80479685Y94570709D01*
X69160580Y94570709D01*
X69160580Y102976980D01*
X99051301Y102976980D01*
X99051300Y65466260D01*
X99051300Y65466260D01*
G37*
X99051300Y65466260D02*
X69160580Y65466260D01*
X69160580Y77921538D01*
X72960600Y77921538D01*
X72960600Y77738462D01*
X72996316Y77558904D01*
X73066376Y77389764D01*
X73168088Y77237542D01*
X73297542Y77108088D01*
X73449764Y77006376D01*
X73618904Y76936316D01*
X73798462Y76900600D01*
X73981538Y76900600D01*
X74161096Y76936316D01*
X74330236Y77006376D01*
X74482458Y77108088D01*
X74611912Y77237542D01*
X74713624Y77389764D01*
X74783684Y77558904D01*
X74819400Y77738462D01*
X74819400Y77921538D01*
X74783684Y78101096D01*
X74752820Y78175607D01*
X76241184Y79663970D01*
X77519443Y79663970D01*
X77536893Y79662251D01*
X77554351Y79663970D01*
X77554363Y79663970D01*
X77599239Y79668390D01*
X77606602Y79669115D01*
X77606603Y79669115D01*
X77606610Y79669116D01*
X77666126Y79687170D01*
X77673634Y79689447D01*
X77673635Y79689447D01*
X77673640Y79689449D01*
X77731070Y79720146D01*
X77731070Y79619645D01*
X76795858Y78684432D01*
X76701096Y78723684D01*
X76521538Y78759400D01*
X76338462Y78759400D01*
X76158904Y78723684D01*
X75989764Y78653624D01*
X75837542Y78551912D01*
X75708088Y78422458D01*
X75606376Y78270236D01*
X75536316Y78101096D01*
X75500600Y77921538D01*
X75500600Y77738462D01*
X75536316Y77558904D01*
X75606376Y77389764D01*
X75708088Y77237542D01*
X75837542Y77108088D01*
X75989764Y77006376D01*
X76158904Y76936316D01*
X76338462Y76900600D01*
X76521538Y76900600D01*
X76701096Y76936316D01*
X76870236Y77006376D01*
X76955846Y77063579D01*
X76784497Y76892230D01*
X75168402Y76892230D01*
X75150949Y76893949D01*
X75133496Y76892230D01*
X75133487Y76892230D01*
X75081240Y76887084D01*
X75014210Y76866751D01*
X74952434Y76833731D01*
X74952432Y76833730D01*
X74952433Y76833730D01*
X74911850Y76800425D01*
X74911845Y76800420D01*
X74898287Y76789293D01*
X74887160Y76775735D01*
X74255858Y76144432D01*
X74161096Y76183684D01*
X73981538Y76219400D01*
X73798462Y76219400D01*
X73618904Y76183684D01*
X73449764Y76113624D01*
X73297542Y76011912D01*
X73168088Y75882458D01*
X73066376Y75730236D01*
X72996316Y75561096D01*
X72960600Y75381538D01*
X72960600Y75198462D01*
X72996316Y75018904D01*
X73066376Y74849764D01*
X73168088Y74697542D01*
X73297542Y74568088D01*
X73449764Y74466376D01*
X73618904Y74396316D01*
X73798462Y74360600D01*
X73981538Y74360600D01*
X74161096Y74396316D01*
X74330236Y74466376D01*
X74482458Y74568088D01*
X74611912Y74697542D01*
X74713624Y74849764D01*
X74783684Y75018904D01*
X74819400Y75198462D01*
X74819400Y75381538D01*
X74783684Y75561096D01*
X74752821Y75635607D01*
X75298245Y76181030D01*
X76091786Y76181030D01*
X76049764Y76163624D01*
X75897542Y76061912D01*
X75768088Y75932458D01*
X75666376Y75780236D01*
X75596316Y75611096D01*
X75560600Y75431538D01*
X75560600Y75248462D01*
X75596316Y75068904D01*
X75666376Y74899764D01*
X75768088Y74747542D01*
X75897542Y74618088D01*
X76049764Y74516376D01*
X76218904Y74446316D01*
X76398462Y74410600D01*
X76581538Y74410600D01*
X76761096Y74446316D01*
X76779628Y74453992D01*
X76694376Y74368740D01*
X75184915Y74368740D01*
X75167459Y74370459D01*
X75150004Y74368740D01*
X75149997Y74368740D01*
X75104647Y74364273D01*
X75097749Y74363594D01*
X75068562Y74354740D01*
X75030720Y74343261D01*
X75030718Y74343260D01*
X75022741Y74338996D01*
X74968944Y74310241D01*
X74968942Y74310240D01*
X74968943Y74310240D01*
X74928360Y74276935D01*
X74928355Y74276930D01*
X74914797Y74265803D01*
X74903670Y74252245D01*
X74308787Y73657361D01*
X74221096Y73693684D01*
X74041538Y73729400D01*
X73858462Y73729400D01*
X73678904Y73693684D01*
X73509764Y73623624D01*
X73357542Y73521912D01*
X73228088Y73392458D01*
X73126376Y73240236D01*
X73056316Y73071096D01*
X73020600Y72891538D01*
X73020600Y72708462D01*
X73056316Y72528904D01*
X73126376Y72359764D01*
X73228088Y72207542D01*
X73357542Y72078088D01*
X73509764Y71976376D01*
X73678904Y71906316D01*
X73858462Y71870600D01*
X74041538Y71870600D01*
X74221096Y71906316D01*
X74390236Y71976376D01*
X74542458Y72078088D01*
X74671912Y72207542D01*
X74773624Y72359764D01*
X74843684Y72528904D01*
X74879400Y72708462D01*
X74879400Y72891538D01*
X74843684Y73071096D01*
X74809892Y73152678D01*
X75314755Y73657540D01*
X76228563Y73657540D01*
X76158904Y73643684D01*
X75989764Y73573624D01*
X75837542Y73471912D01*
X75708088Y73342458D01*
X75606376Y73190236D01*
X75536316Y73021096D01*
X75500600Y72841538D01*
X75500600Y72658462D01*
X75536316Y72478904D01*
X75606376Y72309764D01*
X75708088Y72157542D01*
X75798540Y72067090D01*
X75423265Y72067090D01*
X75405810Y72068809D01*
X75388354Y72067090D01*
X75388347Y72067090D01*
X75342376Y72062562D01*
X75336099Y72061944D01*
X75315766Y72055776D01*
X75269070Y72041611D01*
X75207294Y72008591D01*
X75184806Y71990135D01*
X75168041Y71976376D01*
X75153147Y71964153D01*
X75142016Y71950590D01*
X74308788Y71117361D01*
X74221096Y71153684D01*
X74041538Y71189400D01*
X73858462Y71189400D01*
X73678904Y71153684D01*
X73509764Y71083624D01*
X73357542Y70981912D01*
X73228088Y70852458D01*
X73126376Y70700236D01*
X73056316Y70531096D01*
X73020600Y70351538D01*
X73020600Y70168462D01*
X73056316Y69988904D01*
X73126376Y69819764D01*
X73228088Y69667542D01*
X73357542Y69538088D01*
X73509764Y69436376D01*
X73678904Y69366316D01*
X73858462Y69330600D01*
X74041538Y69330600D01*
X74221096Y69366316D01*
X74390236Y69436376D01*
X74542458Y69538088D01*
X74671912Y69667542D01*
X74773624Y69819764D01*
X74843684Y69988904D01*
X74879400Y70168462D01*
X74879400Y70351538D01*
X74843684Y70531096D01*
X74809892Y70612678D01*
X75553104Y71355890D01*
X76831145Y71355890D01*
X76848600Y71354171D01*
X76866055Y71355890D01*
X76866063Y71355890D01*
X76918310Y71361036D01*
X76985340Y71381369D01*
X77047116Y71414389D01*
X77101263Y71458827D01*
X77112399Y71472396D01*
X79563040Y73923036D01*
X79563040Y73831614D01*
X76848788Y71117361D01*
X76761096Y71153684D01*
X76581538Y71189400D01*
X76398462Y71189400D01*
X76218904Y71153684D01*
X76049764Y71083624D01*
X75897542Y70981912D01*
X75768088Y70852458D01*
X75666376Y70700236D01*
X75596316Y70531096D01*
X75560600Y70351538D01*
X75560600Y70168462D01*
X75596316Y69988904D01*
X75666376Y69819764D01*
X75768088Y69667542D01*
X75897542Y69538088D01*
X76049764Y69436376D01*
X76218904Y69366316D01*
X76398462Y69330600D01*
X76581538Y69330600D01*
X76761096Y69366316D01*
X76930236Y69436376D01*
X77082458Y69538088D01*
X77211912Y69667542D01*
X77313624Y69819764D01*
X77383684Y69988904D01*
X77419400Y70168462D01*
X77419400Y70351538D01*
X77383684Y70531096D01*
X77349892Y70612678D01*
X79867840Y73130626D01*
X79867840Y71596415D01*
X76795859Y68524432D01*
X76701096Y68563684D01*
X76521538Y68599400D01*
X76338462Y68599400D01*
X76158904Y68563684D01*
X75989764Y68493624D01*
X75837542Y68391912D01*
X75708088Y68262458D01*
X75606376Y68110236D01*
X75536316Y67941096D01*
X75500600Y67761538D01*
X75500600Y67578462D01*
X75536316Y67398904D01*
X75606376Y67229764D01*
X75708088Y67077542D01*
X75837542Y66948088D01*
X75989764Y66846376D01*
X76158904Y66776316D01*
X76338462Y66740600D01*
X76521538Y66740600D01*
X76701096Y66776316D01*
X76870236Y66846376D01*
X77022458Y66948088D01*
X77151912Y67077542D01*
X77253624Y67229764D01*
X77323684Y67398904D01*
X77359400Y67578462D01*
X77359400Y67761538D01*
X77323684Y67941096D01*
X77292820Y68015607D01*
X79578752Y70301538D01*
X80580600Y70301538D01*
X80580600Y70118462D01*
X80616316Y69938904D01*
X80686376Y69769764D01*
X80788088Y69617542D01*
X80917542Y69488088D01*
X81069764Y69386376D01*
X81238904Y69316316D01*
X81418462Y69280600D01*
X81601538Y69280600D01*
X81781096Y69316316D01*
X81950236Y69386376D01*
X82102458Y69488088D01*
X82231912Y69617542D01*
X82333624Y69769764D01*
X82403684Y69938904D01*
X82439400Y70118462D01*
X82439400Y70301538D01*
X82429455Y70351538D01*
X83180600Y70351538D01*
X83180600Y70168462D01*
X83216316Y69988904D01*
X83286376Y69819764D01*
X83388088Y69667542D01*
X83517542Y69538088D01*
X83669764Y69436376D01*
X83838904Y69366316D01*
X84018462Y69330600D01*
X84201538Y69330600D01*
X84381096Y69366316D01*
X84550236Y69436376D01*
X84702458Y69538088D01*
X84831912Y69667542D01*
X84933624Y69819764D01*
X85003684Y69988904D01*
X85039400Y70168462D01*
X85039400Y70351538D01*
X85003684Y70531096D01*
X84933624Y70700236D01*
X84831912Y70852458D01*
X84702458Y70981912D01*
X84550236Y71083624D01*
X84381096Y71153684D01*
X84201538Y71189400D01*
X84018462Y71189400D01*
X83838904Y71153684D01*
X83669764Y71083624D01*
X83517542Y70981912D01*
X83388088Y70852458D01*
X83286376Y70700236D01*
X83216316Y70531096D01*
X83180600Y70351538D01*
X82429455Y70351538D01*
X82403684Y70481096D01*
X82333624Y70650236D01*
X82231912Y70802458D01*
X82102458Y70931912D01*
X81950236Y71033624D01*
X81781096Y71103684D01*
X81601538Y71139400D01*
X81418462Y71139400D01*
X81238904Y71103684D01*
X81069764Y71033624D01*
X80917542Y70931912D01*
X80788088Y70802458D01*
X80686376Y70650236D01*
X80616316Y70481096D01*
X80580600Y70301538D01*
X79578752Y70301538D01*
X80462550Y71185335D01*
X80476102Y71196457D01*
X80487225Y71210010D01*
X80487235Y71210020D01*
X80520540Y71250603D01*
X80520542Y71250605D01*
X80553561Y71312380D01*
X80566759Y71355890D01*
X80573894Y71379409D01*
X80577339Y71414390D01*
X80579040Y71431657D01*
X80579040Y71431664D01*
X80580759Y71449119D01*
X80579040Y71466574D01*
X80579040Y80620880D01*
X80634130Y80675970D01*
X80634130Y81279220D01*
X80614130Y81279220D01*
X80614130Y81525220D01*
X80634130Y81525220D01*
X80634130Y82128470D01*
X80579040Y82183560D01*
X80579040Y82697179D01*
X80797953Y82916096D01*
X80837308Y82912220D01*
X81161955Y82912220D01*
X81166438Y82897440D01*
X81225403Y82787126D01*
X81304755Y82690435D01*
X81401446Y82611083D01*
X81511760Y82552118D01*
X81519719Y82549704D01*
X81517928Y82543799D01*
X81512231Y82485953D01*
X81512231Y82101366D01*
X81500571Y82114851D01*
X81401872Y82191693D01*
X81290079Y82247802D01*
X81169487Y82281024D01*
X81046880Y82287220D01*
X80888130Y82128470D01*
X80888130Y81525220D01*
X80908130Y81525220D01*
X80908130Y81279220D01*
X80888130Y81279220D01*
X80888130Y80675970D01*
X81046880Y80517220D01*
X81136159Y80521732D01*
X81156590Y80419015D01*
X81200628Y80312697D01*
X81264562Y80217014D01*
X81345934Y80135642D01*
X81441617Y80071708D01*
X81547935Y80027670D01*
X81660801Y80005220D01*
X81775879Y80005220D01*
X81888745Y80027670D01*
X81950330Y80053179D01*
X81950330Y78758912D01*
X81928782Y78737364D01*
X81841096Y78773684D01*
X81661538Y78809400D01*
X81478462Y78809400D01*
X81298904Y78773684D01*
X81129764Y78703624D01*
X80977542Y78601912D01*
X80848088Y78472458D01*
X80746376Y78320236D01*
X80676316Y78151096D01*
X80640600Y77971538D01*
X80640600Y77788462D01*
X80676316Y77608904D01*
X80746376Y77439764D01*
X80848088Y77287542D01*
X80977542Y77158088D01*
X81129764Y77056376D01*
X81298904Y76986316D01*
X81478462Y76950600D01*
X81661538Y76950600D01*
X81841096Y76986316D01*
X82010236Y77056376D01*
X82162458Y77158088D01*
X82291912Y77287542D01*
X82350340Y77374985D01*
X82350340Y76618915D01*
X81928787Y76197361D01*
X81841096Y76233684D01*
X81661538Y76269400D01*
X81478462Y76269400D01*
X81298904Y76233684D01*
X81129764Y76163624D01*
X80977542Y76061912D01*
X80848088Y75932458D01*
X80746376Y75780236D01*
X80676316Y75611096D01*
X80640600Y75431538D01*
X80640600Y75248462D01*
X80676316Y75068904D01*
X80746376Y74899764D01*
X80848088Y74747542D01*
X80977542Y74618088D01*
X81129764Y74516376D01*
X81298904Y74446316D01*
X81478462Y74410600D01*
X81661538Y74410600D01*
X81841096Y74446316D01*
X82010236Y74516376D01*
X82162458Y74618088D01*
X82291912Y74747542D01*
X82393624Y74899764D01*
X82463684Y75068904D01*
X82499400Y75248462D01*
X82499400Y75431538D01*
X82463684Y75611096D01*
X82429892Y75692678D01*
X82750330Y76013116D01*
X82750330Y74478913D01*
X81928784Y73657362D01*
X81841096Y73693684D01*
X81661538Y73729400D01*
X81478462Y73729400D01*
X81298904Y73693684D01*
X81129764Y73623624D01*
X80977542Y73521912D01*
X80848088Y73392458D01*
X80746376Y73240236D01*
X80676316Y73071096D01*
X80640600Y72891538D01*
X80640600Y72708462D01*
X80676316Y72528904D01*
X80746376Y72359764D01*
X80848088Y72207542D01*
X80977542Y72078088D01*
X81129764Y71976376D01*
X81298904Y71906316D01*
X81478462Y71870600D01*
X81661538Y71870600D01*
X81841096Y71906316D01*
X82010236Y71976376D01*
X82162458Y72078088D01*
X82291912Y72207542D01*
X82393624Y72359764D01*
X82463684Y72528904D01*
X82499400Y72708462D01*
X82499400Y72891538D01*
X82463684Y73071096D01*
X82429890Y73152681D01*
X83345035Y74067831D01*
X83358592Y74078957D01*
X83369720Y74092516D01*
X83369726Y74092522D01*
X83397427Y74126276D01*
X83403031Y74133104D01*
X83436051Y74194880D01*
X83456384Y74261910D01*
X83461530Y74314157D01*
X83461530Y74314166D01*
X83463249Y74331621D01*
X83461530Y74349076D01*
X83461530Y74474100D01*
X83547542Y74388088D01*
X83699764Y74286376D01*
X83868904Y74216316D01*
X84048462Y74180600D01*
X84231538Y74180600D01*
X84411096Y74216316D01*
X84580236Y74286376D01*
X84732458Y74388088D01*
X84750340Y74405970D01*
X84750340Y73474030D01*
X84702458Y73521912D01*
X84550236Y73623624D01*
X84381096Y73693684D01*
X84201538Y73729400D01*
X84018462Y73729400D01*
X83838904Y73693684D01*
X83669764Y73623624D01*
X83517542Y73521912D01*
X83388088Y73392458D01*
X83286376Y73240236D01*
X83216316Y73071096D01*
X83180600Y72891538D01*
X83180600Y72708462D01*
X83216316Y72528904D01*
X83286376Y72359764D01*
X83388088Y72207542D01*
X83517542Y72078088D01*
X83669764Y71976376D01*
X83838904Y71906316D01*
X84018462Y71870600D01*
X84201538Y71870600D01*
X84381096Y71906316D01*
X84550236Y71976376D01*
X84702458Y72078088D01*
X84750340Y72125970D01*
X84750340Y71809075D01*
X84748621Y71791620D01*
X84750340Y71774165D01*
X84750340Y71774158D01*
X84755486Y71721911D01*
X84775819Y71654881D01*
X84808839Y71593105D01*
X84853277Y71538958D01*
X84866842Y71527825D01*
X85759948Y70634718D01*
X85696316Y70481096D01*
X85660600Y70301538D01*
X85660600Y70118462D01*
X85696316Y69938904D01*
X85766376Y69769764D01*
X85868088Y69617542D01*
X85997542Y69488088D01*
X86149764Y69386376D01*
X86318904Y69316316D01*
X86498462Y69280600D01*
X86681538Y69280600D01*
X86861096Y69316316D01*
X87030236Y69386376D01*
X87182458Y69488088D01*
X87311912Y69617542D01*
X87413624Y69769764D01*
X87483684Y69938904D01*
X87519400Y70118462D01*
X87519400Y70301538D01*
X87483684Y70481096D01*
X87413624Y70650236D01*
X87311912Y70802458D01*
X87182458Y70931912D01*
X87030236Y71033624D01*
X86861096Y71103684D01*
X86681538Y71139400D01*
X86498462Y71139400D01*
X86318904Y71103684D01*
X86303253Y71097201D01*
X85461540Y71938913D01*
X85461540Y73473118D01*
X85787728Y73146932D01*
X85756316Y73071096D01*
X85720600Y72891538D01*
X85720600Y72708462D01*
X85756316Y72528904D01*
X85826376Y72359764D01*
X85928088Y72207542D01*
X86057542Y72078088D01*
X86209764Y71976376D01*
X86378904Y71906316D01*
X86558462Y71870600D01*
X86741538Y71870600D01*
X86921096Y71906316D01*
X87090236Y71976376D01*
X87242458Y72078088D01*
X87371912Y72207542D01*
X87473624Y72359764D01*
X87543684Y72528904D01*
X87579400Y72708462D01*
X87579400Y72891538D01*
X87543684Y73071096D01*
X87473624Y73240236D01*
X87371912Y73392458D01*
X87242458Y73521912D01*
X87090236Y73623624D01*
X86921096Y73693684D01*
X86741538Y73729400D01*
X86558462Y73729400D01*
X86378904Y73693684D01*
X86285467Y73654981D01*
X85818130Y74122314D01*
X85818130Y74919672D01*
X85826376Y74899764D01*
X85928088Y74747542D01*
X86057542Y74618088D01*
X86209764Y74516376D01*
X86378904Y74446316D01*
X86558462Y74410600D01*
X86741538Y74410600D01*
X86921096Y74446316D01*
X87090236Y74516376D01*
X87242458Y74618088D01*
X87371912Y74747542D01*
X87473624Y74899764D01*
X87543684Y75068904D01*
X87579400Y75248462D01*
X87579400Y75431538D01*
X87543684Y75611096D01*
X87473624Y75780236D01*
X87371912Y75932458D01*
X87242458Y76061912D01*
X87090236Y76163624D01*
X86921096Y76233684D01*
X86741538Y76269400D01*
X86558462Y76269400D01*
X86378904Y76233684D01*
X86285466Y76194981D01*
X86122930Y76357514D01*
X86122930Y77064397D01*
X86209764Y77006376D01*
X86378904Y76936316D01*
X86558462Y76900600D01*
X86741538Y76900600D01*
X86921096Y76936316D01*
X87090236Y77006376D01*
X87242458Y77108088D01*
X87371912Y77237542D01*
X87473624Y77389764D01*
X87543684Y77558904D01*
X87579400Y77738462D01*
X87579400Y77918465D01*
X90026691Y75471165D01*
X90026690Y74152714D01*
X90024971Y74135259D01*
X90026690Y74117806D01*
X90026690Y74117798D01*
X90031836Y74065551D01*
X90047735Y74013139D01*
X90052170Y73998518D01*
X90085190Y73936743D01*
X90110987Y73905311D01*
X90129627Y73882598D01*
X90143193Y73871465D01*
X90867729Y73146933D01*
X90836316Y73071096D01*
X90800600Y72891538D01*
X90800600Y72708462D01*
X90836316Y72528904D01*
X90906376Y72359764D01*
X91008088Y72207542D01*
X91137542Y72078088D01*
X91289764Y71976376D01*
X91458904Y71906316D01*
X91638462Y71870600D01*
X91821538Y71870600D01*
X92001096Y71906316D01*
X92170236Y71976376D01*
X92322458Y72078088D01*
X92451912Y72207542D01*
X92553624Y72359764D01*
X92623684Y72528904D01*
X92659400Y72708462D01*
X92659400Y72891538D01*
X92623684Y73071096D01*
X92553624Y73240236D01*
X92451912Y73392458D01*
X92322458Y73521912D01*
X92170236Y73623624D01*
X92001096Y73693684D01*
X91821538Y73729400D01*
X91638462Y73729400D01*
X91458904Y73693684D01*
X91365468Y73654981D01*
X90737890Y74282554D01*
X90737890Y75413006D01*
X90800600Y75350296D01*
X90800600Y75248462D01*
X90836316Y75068904D01*
X90906376Y74899764D01*
X91008088Y74747542D01*
X91137542Y74618088D01*
X91289764Y74516376D01*
X91458904Y74446316D01*
X91638462Y74410600D01*
X91821538Y74410600D01*
X92001096Y74446316D01*
X92170236Y74516376D01*
X92322458Y74618088D01*
X92451912Y74747542D01*
X92553624Y74899764D01*
X92623684Y75068904D01*
X92659400Y75248462D01*
X92659400Y75431538D01*
X92623684Y75611096D01*
X92553624Y75780236D01*
X92451912Y75932458D01*
X92322458Y76061912D01*
X92170236Y76163624D01*
X92001096Y76233684D01*
X91821538Y76269400D01*
X91638462Y76269400D01*
X91458904Y76233684D01*
X91289764Y76163624D01*
X91137542Y76061912D01*
X91116157Y76040527D01*
X90758854Y76397830D01*
X92696828Y76397830D01*
X93407729Y75686933D01*
X93376316Y75611096D01*
X93340600Y75431538D01*
X93340600Y75248462D01*
X93376316Y75068904D01*
X93446376Y74899764D01*
X93548088Y74747542D01*
X93677542Y74618088D01*
X93829764Y74516376D01*
X93998904Y74446316D01*
X94178462Y74410600D01*
X94361538Y74410600D01*
X94541096Y74446316D01*
X94710236Y74516376D01*
X94862458Y74618088D01*
X94991912Y74747542D01*
X95093624Y74899764D01*
X95163684Y75068904D01*
X95199400Y75248462D01*
X95199400Y75431538D01*
X95163684Y75611096D01*
X95093624Y75780236D01*
X94991912Y75932458D01*
X94862458Y76061912D01*
X94710236Y76163624D01*
X94541096Y76233684D01*
X94361538Y76269400D01*
X94178462Y76269400D01*
X93998904Y76233684D01*
X93905468Y76194982D01*
X93107913Y76992531D01*
X93096783Y77006093D01*
X93042636Y77050531D01*
X92980860Y77083551D01*
X92913830Y77103884D01*
X92861583Y77109030D01*
X92861574Y77109030D01*
X92844119Y77110749D01*
X92826666Y77109030D01*
X92263400Y77109030D01*
X92391912Y77237542D01*
X92493624Y77389764D01*
X92563684Y77558904D01*
X92599400Y77738462D01*
X92599400Y77921538D01*
X92563684Y78101096D01*
X92493624Y78270236D01*
X92391912Y78422458D01*
X92262458Y78551912D01*
X92110236Y78653624D01*
X91941096Y78723684D01*
X91761538Y78759400D01*
X91578462Y78759400D01*
X91398904Y78723684D01*
X91229764Y78653624D01*
X91077542Y78551912D01*
X90948088Y78422458D01*
X90846376Y78270236D01*
X90828558Y78227220D01*
X90298434Y78227220D01*
X89109853Y79415800D01*
X92218857Y79415800D01*
X93407729Y78226934D01*
X93376316Y78151096D01*
X93340600Y77971538D01*
X93340600Y77788462D01*
X93376316Y77608904D01*
X93446376Y77439764D01*
X93548088Y77287542D01*
X93677542Y77158088D01*
X93829764Y77056376D01*
X93998904Y76986316D01*
X94178462Y76950600D01*
X94361538Y76950600D01*
X94541096Y76986316D01*
X94710236Y77056376D01*
X94862458Y77158088D01*
X94991912Y77287542D01*
X95093624Y77439764D01*
X95163684Y77608904D01*
X95199400Y77788462D01*
X95199400Y77971538D01*
X95163684Y78151096D01*
X95093624Y78320236D01*
X94991912Y78472458D01*
X94862458Y78601912D01*
X94710236Y78703624D01*
X94541096Y78773684D01*
X94361538Y78809400D01*
X94178462Y78809400D01*
X93998904Y78773684D01*
X93905469Y78734982D01*
X92629944Y80010500D01*
X92618813Y80024063D01*
X92564666Y80068501D01*
X92502890Y80101521D01*
X92435860Y80121854D01*
X92383613Y80127000D01*
X92383605Y80127000D01*
X92366150Y80128719D01*
X92348697Y80127000D01*
X89135247Y80127000D01*
X88957340Y80304911D01*
X88957340Y83789468D01*
X88959059Y83806921D01*
X88957340Y83824374D01*
X88957340Y83824383D01*
X88952194Y83876630D01*
X88931861Y83943660D01*
X88898841Y84005436D01*
X88893584Y84011842D01*
X88865535Y84046020D01*
X88865530Y84046025D01*
X88854403Y84059583D01*
X88840845Y84070710D01*
X88500685Y84410869D01*
X88546940Y84410869D01*
X88601712Y84416264D01*
X88654379Y84432240D01*
X88694004Y84453420D01*
X88913746Y84453420D01*
X88919340Y84452869D01*
X89569340Y84452869D01*
X89624112Y84458264D01*
X89676779Y84474240D01*
X89719340Y84496989D01*
X89761901Y84474240D01*
X89806199Y84460803D01*
X89833666Y84438261D01*
X89948393Y84376938D01*
X90072879Y84339176D01*
X90169901Y84329620D01*
X92647289Y84329620D01*
X92744311Y84339176D01*
X92868797Y84376938D01*
X92983524Y84438261D01*
X93084083Y84520787D01*
X93166609Y84621346D01*
X93227932Y84736073D01*
X93265694Y84860559D01*
X93278445Y84990020D01*
X93265694Y85119481D01*
X93227932Y85243967D01*
X93166609Y85358694D01*
X93084083Y85459253D01*
X92983524Y85541779D01*
X92868797Y85603102D01*
X92744311Y85640864D01*
X92647289Y85650420D01*
X90169901Y85650420D01*
X90072879Y85640864D01*
X89948393Y85603102D01*
X89833666Y85541779D01*
X89781456Y85498932D01*
X89761901Y85493000D01*
X89719340Y85470251D01*
X89676779Y85493000D01*
X89624112Y85508976D01*
X89569340Y85514371D01*
X89279509Y85514371D01*
X89220125Y85520220D01*
X89158376Y85520220D01*
X89175744Y85583263D01*
X89181940Y85705870D01*
X89023190Y85864620D01*
X88419940Y85864620D01*
X88419940Y85844620D01*
X88173940Y85844620D01*
X88173940Y85864620D01*
X88149940Y85864620D01*
X88149940Y86118620D01*
X88173940Y86118620D01*
X88173940Y86138620D01*
X88419940Y86138620D01*
X88419940Y86118620D01*
X89023190Y86118620D01*
X89181940Y86277370D01*
X89175744Y86399977D01*
X89144985Y86511630D01*
X89149689Y86506189D01*
X89248388Y86429347D01*
X89360181Y86373238D01*
X89480773Y86340016D01*
X89603380Y86333820D01*
X89762130Y86492570D01*
X89762130Y87095820D01*
X90016130Y87095820D01*
X90016130Y86492570D01*
X90174880Y86333820D01*
X90297487Y86340016D01*
X90418079Y86373238D01*
X90529872Y86429347D01*
X90628571Y86506189D01*
X90710382Y86600808D01*
X90772162Y86709571D01*
X90811536Y86828296D01*
X90824130Y86937070D01*
X90665380Y87095820D01*
X90016130Y87095820D01*
X89762130Y87095820D01*
X89742130Y87095820D01*
X89742130Y87341820D01*
X89762130Y87341820D01*
X89762130Y87381560D01*
X89762140Y87381570D01*
X89762140Y87945070D01*
X90016130Y87945070D01*
X90016130Y87341820D01*
X90055890Y87341820D01*
X90174890Y87222820D01*
X90297497Y87229016D01*
X90418089Y87262238D01*
X90529882Y87318347D01*
X90560032Y87341820D01*
X90665380Y87341820D01*
X90824130Y87500570D01*
X90811536Y87609344D01*
X90793640Y87663305D01*
X90811546Y87717296D01*
X90824140Y87826070D01*
X90665390Y87984820D01*
X90560022Y87984820D01*
X90529872Y88008293D01*
X90418079Y88064402D01*
X90297487Y88097624D01*
X90174880Y88103820D01*
X90055880Y87984820D01*
X90016140Y87984820D01*
X90016140Y87945080D01*
X90016130Y87945070D01*
X89762140Y87945070D01*
X89762140Y87984820D01*
X89742140Y87984820D01*
X89742140Y88230820D01*
X89762140Y88230820D01*
X89762140Y88254820D01*
X90016140Y88254820D01*
X90016140Y88230820D01*
X90665390Y88230820D01*
X90824140Y88389570D01*
X90819902Y88426170D01*
X90821088Y88427615D01*
X90875485Y88482014D01*
X90936888Y88463388D01*
X91061370Y88451128D01*
X91250620Y88454200D01*
X91409370Y88612950D01*
X91409370Y89387200D01*
X91663370Y89387200D01*
X91663370Y88612950D01*
X91822120Y88454200D01*
X92011370Y88451128D01*
X92135852Y88463388D01*
X92255550Y88499698D01*
X92365864Y88558663D01*
X92462555Y88638015D01*
X92541907Y88734706D01*
X92600872Y88845020D01*
X92637182Y88964718D01*
X92649442Y89089200D01*
X92646370Y89228450D01*
X92487620Y89387200D01*
X92466370Y89387200D01*
X92466370Y89462200D01*
X92712370Y89462200D01*
X92712370Y88812950D01*
X92871120Y88654200D01*
X92979894Y88666794D01*
X93098619Y88706168D01*
X93207382Y88767948D01*
X93302001Y88849759D01*
X93378843Y88948458D01*
X93434952Y89060251D01*
X93468174Y89180843D01*
X93474370Y89303450D01*
X93315620Y89462200D01*
X92712370Y89462200D01*
X92466370Y89462200D01*
X91863120Y89462200D01*
X91788120Y89387200D01*
X91663370Y89387200D01*
X91409370Y89387200D01*
X91389370Y89387200D01*
X91389370Y89641200D01*
X91409370Y89641200D01*
X91409370Y89661200D01*
X91663370Y89661200D01*
X91663370Y89641200D01*
X92487620Y89641200D01*
X92582620Y89736200D01*
X92712370Y89736200D01*
X92712370Y89716200D01*
X93315620Y89716200D01*
X93474370Y89874950D01*
X93468174Y89997557D01*
X93434952Y90118149D01*
X93378843Y90229942D01*
X93302001Y90328641D01*
X93207382Y90410452D01*
X93120121Y90460018D01*
X93120121Y90889200D01*
X93114726Y90943972D01*
X93098750Y90996639D01*
X93072806Y91045177D01*
X93037891Y91087721D01*
X92995347Y91122636D01*
X92946809Y91148580D01*
X92894142Y91164556D01*
X92839370Y91169951D01*
X92339370Y91169951D01*
X92284598Y91164556D01*
X92280829Y91163413D01*
X92270750Y91196639D01*
X92244806Y91245177D01*
X92209891Y91287721D01*
X92167347Y91322636D01*
X92118809Y91348580D01*
X92066142Y91364556D01*
X92011370Y91369951D01*
X91131324Y91369951D01*
X91091907Y91443694D01*
X91012555Y91540385D01*
X90915864Y91619737D01*
X90805550Y91678702D01*
X90685852Y91715012D01*
X90561370Y91727272D01*
X90372120Y91724200D01*
X90213370Y91565450D01*
X90213370Y90791200D01*
X90233370Y90791200D01*
X90233370Y90537200D01*
X90213370Y90537200D01*
X90213370Y90517200D01*
X89959370Y90517200D01*
X89959370Y90537200D01*
X89135120Y90537200D01*
X89040120Y90442200D01*
X88910370Y90442200D01*
X88910370Y90462200D01*
X88267370Y90462200D01*
X88267370Y90442200D01*
X88021370Y90442200D01*
X88021370Y90462200D01*
X87418120Y90462200D01*
X87259370Y90303450D01*
X87265566Y90180843D01*
X87295219Y90073205D01*
X87262765Y90066750D01*
X87156447Y90022712D01*
X87060764Y89958778D01*
X86979392Y89877406D01*
X86915458Y89781723D01*
X86871420Y89675405D01*
X86848970Y89562539D01*
X86848970Y89447461D01*
X86871420Y89334595D01*
X86915458Y89228277D01*
X86979392Y89132594D01*
X87060764Y89051222D01*
X87156447Y88987288D01*
X87262765Y88943250D01*
X87308230Y88934207D01*
X86855191Y88481167D01*
X86839693Y88468448D01*
X86826974Y88452950D01*
X86826968Y88452944D01*
X86815888Y88439442D01*
X86788907Y88406566D01*
X86779386Y88388753D01*
X86700120Y88431122D01*
X86685340Y88435605D01*
X86685340Y88760252D01*
X86679850Y88815995D01*
X86659157Y88884210D01*
X86656394Y88912260D01*
X86636061Y88979290D01*
X86603041Y89041066D01*
X86595140Y89050693D01*
X86595140Y90874950D01*
X87259370Y90874950D01*
X87418120Y90716200D01*
X88021370Y90716200D01*
X88021370Y90874950D01*
X88148370Y90874950D01*
X88267370Y90755950D01*
X88267370Y90716200D01*
X88910370Y90716200D01*
X88910370Y90755950D01*
X89029370Y90874950D01*
X89028199Y90898121D01*
X89135120Y90791200D01*
X89156370Y90791200D01*
X89156370Y90716200D01*
X89759620Y90716200D01*
X89834620Y90791200D01*
X89959370Y90791200D01*
X89959370Y91565450D01*
X89800620Y91724200D01*
X89611370Y91727272D01*
X89486888Y91715012D01*
X89367190Y91678702D01*
X89256876Y91619737D01*
X89160185Y91540385D01*
X89080833Y91443694D01*
X89021868Y91333380D01*
X88985558Y91213682D01*
X88978413Y91141139D01*
X88933843Y91229942D01*
X88910370Y91260092D01*
X88910370Y91365450D01*
X88751620Y91524200D01*
X88642846Y91511606D01*
X88588870Y91493705D01*
X88534894Y91511606D01*
X88426120Y91524200D01*
X88267370Y91365450D01*
X88267370Y91260092D01*
X88243897Y91229942D01*
X88187788Y91118149D01*
X88154566Y90997557D01*
X88148370Y90874950D01*
X88021370Y90874950D01*
X88021370Y91365450D01*
X87862620Y91524200D01*
X87753846Y91511606D01*
X87635121Y91472232D01*
X87526358Y91410452D01*
X87431739Y91328641D01*
X87354897Y91229942D01*
X87298788Y91118149D01*
X87265566Y90997557D01*
X87259370Y90874950D01*
X86595140Y90874950D01*
X86595140Y94615327D01*
X87115834Y95136020D01*
X89008485Y95136020D01*
X89025940Y95134301D01*
X89043395Y95136020D01*
X89043403Y95136020D01*
X89095650Y95141166D01*
X89162680Y95161499D01*
X89224456Y95194519D01*
X89278603Y95238957D01*
X89289739Y95252526D01*
X91300962Y97263748D01*
X91318904Y97256316D01*
X91498462Y97220600D01*
X91681538Y97220600D01*
X91861096Y97256316D01*
X92030236Y97326376D01*
X92182458Y97428088D01*
X92311912Y97557542D01*
X92413624Y97709764D01*
X92483684Y97878904D01*
X92519400Y98058462D01*
X92519400Y98241538D01*
X92483684Y98421096D01*
X92413624Y98590236D01*
X92311912Y98742458D01*
X92182458Y98871912D01*
X92030236Y98973624D01*
X91861096Y99043684D01*
X91681538Y99079400D01*
X91498462Y99079400D01*
X91318904Y99043684D01*
X91149764Y98973624D01*
X90997542Y98871912D01*
X90868088Y98742458D01*
X90766376Y98590236D01*
X90696316Y98421096D01*
X90660600Y98241538D01*
X90660600Y98058462D01*
X90696316Y97878904D01*
X90758999Y97727573D01*
X88878647Y95847220D01*
X87395984Y95847220D01*
X88873774Y97325009D01*
X88918904Y97306316D01*
X89098462Y97270600D01*
X89281538Y97270600D01*
X89461096Y97306316D01*
X89630236Y97376376D01*
X89782458Y97478088D01*
X89911912Y97607542D01*
X90013624Y97759764D01*
X90083684Y97928904D01*
X90119400Y98108462D01*
X90119400Y98291538D01*
X90083684Y98471096D01*
X90013624Y98640236D01*
X89911912Y98792458D01*
X89782458Y98921912D01*
X89630236Y99023624D01*
X89461096Y99093684D01*
X89281538Y99129400D01*
X89098462Y99129400D01*
X88918904Y99093684D01*
X88749764Y99023624D01*
X88597542Y98921912D01*
X88468088Y98792458D01*
X88366376Y98640236D01*
X88296316Y98471096D01*
X88260600Y98291538D01*
X88260600Y98108462D01*
X88296316Y97928904D01*
X88347737Y97804762D01*
X85985540Y95442563D01*
X85985540Y97028327D01*
X86244393Y97287179D01*
X86318904Y97256316D01*
X86498462Y97220600D01*
X86681538Y97220600D01*
X86861096Y97256316D01*
X87030236Y97326376D01*
X87182458Y97428088D01*
X87311912Y97557542D01*
X87413624Y97709764D01*
X87483684Y97878904D01*
X87519400Y98058462D01*
X87519400Y98241538D01*
X87483684Y98421096D01*
X87413624Y98590236D01*
X87311912Y98742458D01*
X87182458Y98871912D01*
X87030236Y98973624D01*
X86861096Y99043684D01*
X86681538Y99079400D01*
X86498462Y99079400D01*
X86318904Y99043684D01*
X86149764Y98973624D01*
X85997542Y98871912D01*
X85868088Y98742458D01*
X85766376Y98590236D01*
X85696316Y98421096D01*
X85660600Y98241538D01*
X85660600Y98058462D01*
X85696316Y97878904D01*
X85735568Y97784141D01*
X85390841Y97439414D01*
X85377278Y97428283D01*
X85374976Y97425478D01*
X84964983Y97835471D01*
X85003684Y97928904D01*
X85039400Y98108462D01*
X85039400Y98291538D01*
X85003684Y98471096D01*
X84933624Y98640236D01*
X84831912Y98792458D01*
X84702458Y98921912D01*
X84550236Y99023624D01*
X84381096Y99093684D01*
X84201538Y99129400D01*
X84018462Y99129400D01*
X83838904Y99093684D01*
X83669764Y99023624D01*
X83517542Y98921912D01*
X83388088Y98792458D01*
X83286376Y98640236D01*
X83216316Y98471096D01*
X83180600Y98291538D01*
X83180600Y98108462D01*
X83216316Y97928904D01*
X83286376Y97759764D01*
X83388088Y97607542D01*
X83517542Y97478088D01*
X83669764Y97376376D01*
X83838904Y97306316D01*
X84018462Y97270600D01*
X84201538Y97270600D01*
X84381096Y97306316D01*
X84456936Y97337730D01*
X84969541Y96825124D01*
X84969541Y95845314D01*
X82506013Y98308840D01*
X82483684Y98421096D01*
X82413624Y98590236D01*
X82311912Y98742458D01*
X82182458Y98871912D01*
X82030236Y98973624D01*
X81861096Y99043684D01*
X81681538Y99079400D01*
X81498462Y99079400D01*
X81318904Y99043684D01*
X81149764Y98973624D01*
X80997542Y98871912D01*
X80868088Y98742458D01*
X80766376Y98590236D01*
X80696316Y98421096D01*
X80660600Y98241538D01*
X80660600Y98058462D01*
X80696316Y97878904D01*
X80766376Y97709764D01*
X80868088Y97557542D01*
X80997542Y97428088D01*
X81149764Y97326376D01*
X81318904Y97256316D01*
X81364633Y97247220D01*
X80473234Y97247220D01*
X79857201Y97863253D01*
X79863684Y97878904D01*
X79899400Y98058462D01*
X79899400Y98241538D01*
X79863684Y98421096D01*
X79793624Y98590236D01*
X79691912Y98742458D01*
X79562458Y98871912D01*
X79410236Y98973624D01*
X79241096Y99043684D01*
X79061538Y99079400D01*
X78878462Y99079400D01*
X78698904Y99043684D01*
X78529764Y98973624D01*
X78377542Y98871912D01*
X78248088Y98742458D01*
X78146376Y98590236D01*
X78076316Y98421096D01*
X78040600Y98241538D01*
X78040600Y98058462D01*
X78076316Y97878904D01*
X78146376Y97709764D01*
X78248088Y97557542D01*
X78377542Y97428088D01*
X78529764Y97326376D01*
X78698904Y97256316D01*
X78878462Y97220600D01*
X79061538Y97220600D01*
X79241096Y97256316D01*
X79394718Y97319948D01*
X79867446Y96847220D01*
X78333226Y96847220D01*
X77317200Y97863250D01*
X77323684Y97878904D01*
X77359400Y98058462D01*
X77359400Y98241538D01*
X77323684Y98421096D01*
X77253624Y98590236D01*
X77151912Y98742458D01*
X77022458Y98871912D01*
X76870236Y98973624D01*
X76701096Y99043684D01*
X76521538Y99079400D01*
X76338462Y99079400D01*
X76158904Y99043684D01*
X75989764Y98973624D01*
X75837542Y98871912D01*
X75708088Y98742458D01*
X75606376Y98590236D01*
X75536316Y98421096D01*
X75500600Y98241538D01*
X75500600Y98058462D01*
X75536316Y97878904D01*
X75606376Y97709764D01*
X75708088Y97557542D01*
X75837542Y97428088D01*
X75989764Y97326376D01*
X76158904Y97256316D01*
X76338462Y97220600D01*
X76521538Y97220600D01*
X76701096Y97256316D01*
X76854715Y97319947D01*
X77922135Y96252521D01*
X77933267Y96238957D01*
X77987414Y96194519D01*
X78049190Y96161499D01*
X78116220Y96141166D01*
X78168467Y96136020D01*
X78168475Y96136020D01*
X78185928Y96134301D01*
X78203384Y96136020D01*
X82534438Y96136020D01*
X84055141Y94615324D01*
X84055141Y92931471D01*
X83920140Y92796470D01*
X83920140Y92193220D01*
X83940140Y92193220D01*
X83940140Y91947220D01*
X83920140Y91947220D01*
X83920140Y91343970D01*
X84055140Y91208970D01*
X84055140Y89708776D01*
X83666828Y89320472D01*
X83653268Y89309343D01*
X83642141Y89295785D01*
X83642137Y89295781D01*
X83628071Y89278641D01*
X83622180Y89285450D01*
X83506164Y89375716D01*
X83374768Y89441614D01*
X83220909Y89467571D01*
X83105930Y89317870D01*
X83065759Y89370172D01*
X83034863Y89427976D01*
X82985664Y89487924D01*
X82970645Y89500250D01*
X82924840Y89546055D01*
X82924840Y91535035D01*
X82971888Y91452208D01*
X83053699Y91357589D01*
X83152398Y91280747D01*
X83264191Y91224638D01*
X83384783Y91191416D01*
X83507390Y91185220D01*
X83666140Y91343970D01*
X83666140Y91947220D01*
X83646140Y91947220D01*
X83646140Y92193220D01*
X83666140Y92193220D01*
X83666140Y92796470D01*
X83507390Y92955220D01*
X83384783Y92949024D01*
X83264191Y92915802D01*
X83152398Y92859693D01*
X83053699Y92782851D01*
X82971888Y92688232D01*
X82922322Y92600971D01*
X82607965Y92600971D01*
X82582804Y92626131D01*
X82593832Y92643032D01*
X82614338Y92694106D01*
X82624486Y92748199D01*
X82623885Y92803232D01*
X82612560Y92857091D01*
X82590945Y92907706D01*
X82559871Y92953131D01*
X82077780Y93527665D01*
X82057274Y93547728D01*
X82089614Y93628278D01*
X82112677Y93751217D01*
X82111312Y93876293D01*
X82085574Y93998700D01*
X82036448Y94113734D01*
X81965825Y94216973D01*
X81906103Y94283368D01*
X81682450Y94302935D01*
X81108492Y93821326D01*
X81121347Y93806006D01*
X80926772Y93642737D01*
X80913916Y93658058D01*
X80898596Y93645203D01*
X80735327Y93839778D01*
X80750648Y93852634D01*
X80285109Y94407441D01*
X80061457Y94427008D01*
X79971962Y94355923D01*
X79884484Y94266516D01*
X79816130Y94161760D01*
X79769526Y94045682D01*
X79746463Y93922743D01*
X79747828Y93797667D01*
X79773566Y93675260D01*
X79822692Y93560226D01*
X79893315Y93456987D01*
X79953037Y93390592D01*
X80094954Y93378176D01*
X79791450Y93123506D01*
X79752960Y93084167D01*
X79722884Y93038074D01*
X79702378Y92987000D01*
X79692230Y92932907D01*
X79692831Y92877874D01*
X79704156Y92824015D01*
X79725771Y92773400D01*
X79756845Y92727975D01*
X80174657Y92230046D01*
X80213996Y92191556D01*
X80260088Y92161480D01*
X80304876Y92143498D01*
X80314806Y92096275D01*
X80336421Y92045660D01*
X80367495Y92000235D01*
X80785307Y91502306D01*
X80824646Y91463816D01*
X80870738Y91433740D01*
X80921812Y91413234D01*
X80975906Y91403086D01*
X81030939Y91403687D01*
X81070672Y91412042D01*
X81164589Y91318124D01*
X81164589Y90673580D01*
X81169984Y90618808D01*
X81185960Y90566141D01*
X81211904Y90517603D01*
X81246819Y90475059D01*
X81289363Y90440144D01*
X81337901Y90414200D01*
X81390568Y90398224D01*
X81445340Y90392829D01*
X82137440Y90392829D01*
X82137440Y90354331D01*
X81445340Y90354331D01*
X81390568Y90348936D01*
X81337901Y90332960D01*
X81289363Y90307016D01*
X81246819Y90272101D01*
X81211904Y90229557D01*
X81185960Y90181019D01*
X81169984Y90128352D01*
X81164589Y90073580D01*
X81164589Y89323580D01*
X81169984Y89268808D01*
X81185960Y89216141D01*
X81211904Y89167603D01*
X81246819Y89125059D01*
X81289363Y89090144D01*
X81337901Y89064200D01*
X81390568Y89048224D01*
X81445340Y89042829D01*
X81642744Y89042829D01*
X81657240Y89028333D01*
X81636356Y89011194D01*
X81588945Y88953422D01*
X81553715Y88887511D01*
X81553050Y88885320D01*
X80091858Y88885320D01*
X80081320Y88920059D01*
X80055376Y88968597D01*
X80020461Y89011141D01*
X79977917Y89046056D01*
X79929379Y89072000D01*
X79876712Y89087976D01*
X79821940Y89093371D01*
X79490955Y89093371D01*
X79360130Y89224195D01*
X79360130Y89226159D01*
X79337680Y89339025D01*
X79293642Y89445343D01*
X79229708Y89541026D01*
X79148336Y89622398D01*
X79052653Y89686332D01*
X78946335Y89730370D01*
X78833469Y89752820D01*
X78718391Y89752820D01*
X78605525Y89730370D01*
X78499207Y89686332D01*
X78403524Y89622398D01*
X78322152Y89541026D01*
X78258218Y89445343D01*
X78214180Y89339025D01*
X78191730Y89226159D01*
X78191730Y89111081D01*
X78214180Y88998215D01*
X78223940Y88974652D01*
X78223940Y88539620D01*
X78243940Y88539620D01*
X78243940Y88285620D01*
X78223940Y88285620D01*
X78223940Y88256220D01*
X78144928Y88256220D01*
X78144928Y88097472D01*
X77986180Y88256220D01*
X77969940Y88255399D01*
X77969940Y88285620D01*
X77245690Y88285620D01*
X77086940Y88126870D01*
X77083868Y88012620D01*
X77096128Y87888138D01*
X77132438Y87768440D01*
X77191403Y87658126D01*
X77270755Y87561435D01*
X77367446Y87482083D01*
X77477760Y87423118D01*
X77597458Y87386808D01*
X77721940Y87374548D01*
X77811190Y87377620D01*
X77927790Y87494220D01*
X78144930Y87494220D01*
X78144930Y87518220D01*
X78242090Y87518220D01*
X78382690Y87377620D01*
X78418930Y87376373D01*
X78418930Y87248220D01*
X78398930Y87248220D01*
X78398930Y87224220D01*
X78144930Y87224220D01*
X78144930Y87248220D01*
X77495680Y87248220D01*
X77388821Y87141361D01*
X75738340Y87141361D01*
X75683568Y87135966D01*
X75630901Y87119990D01*
X75582363Y87094046D01*
X75539819Y87059131D01*
X75504904Y87016587D01*
X75478960Y86968049D01*
X75462984Y86915382D01*
X75457589Y86860610D01*
X75457589Y85860610D01*
X75462984Y85805838D01*
X75478960Y85753171D01*
X75504904Y85704633D01*
X75539819Y85662089D01*
X75582363Y85627174D01*
X75630901Y85601230D01*
X75683568Y85585254D01*
X75738340Y85579859D01*
X77330451Y85579859D01*
X77334490Y85575820D01*
X77937740Y85575820D01*
X77937740Y85595820D01*
X78183740Y85595820D01*
X78183740Y85575820D01*
X78207740Y85575820D01*
X78207740Y85321820D01*
X78183740Y85321820D01*
X78183740Y85301820D01*
X77937740Y85301820D01*
X77937740Y85321820D01*
X77334490Y85321820D01*
X77175740Y85163070D01*
X77181936Y85040463D01*
X77215158Y84919871D01*
X77271267Y84808078D01*
X77348109Y84709379D01*
X77426764Y84641371D01*
X75738340Y84641371D01*
X75683568Y84635976D01*
X75630901Y84620000D01*
X75582363Y84594056D01*
X75539819Y84559141D01*
X75504904Y84516597D01*
X75478960Y84468059D01*
X75462984Y84415392D01*
X75457589Y84360620D01*
X75457589Y83557552D01*
X75398889Y83511851D01*
X75317078Y83417232D01*
X75255298Y83308469D01*
X75215924Y83189744D01*
X75203330Y83080970D01*
X75362080Y82922220D01*
X76011330Y82922220D01*
X76011330Y82946220D01*
X76265330Y82946220D01*
X76265330Y82922220D01*
X76285330Y82922220D01*
X76285330Y82676220D01*
X76265330Y82676220D01*
X76265330Y82652220D01*
X76011330Y82652220D01*
X76011330Y82676220D01*
X75362080Y82676220D01*
X75203330Y82517470D01*
X75215924Y82408696D01*
X75255298Y82289971D01*
X75317078Y82181208D01*
X75398889Y82086589D01*
X75495340Y82011497D01*
X75495340Y81928881D01*
X75517790Y81816015D01*
X75561828Y81709697D01*
X75625762Y81614014D01*
X75707134Y81532642D01*
X75802817Y81468708D01*
X75909135Y81424670D01*
X76022001Y81402220D01*
X76137079Y81402220D01*
X76249945Y81424670D01*
X76356263Y81468708D01*
X76451946Y81532642D01*
X76533318Y81614014D01*
X76597252Y81709697D01*
X76641290Y81816015D01*
X76663740Y81928881D01*
X76663740Y81952663D01*
X76667279Y81953638D01*
X76779072Y82009747D01*
X76877771Y82086589D01*
X76959582Y82181208D01*
X77009148Y82268469D01*
X77425741Y82268469D01*
X77425740Y80411298D01*
X77389610Y80375170D01*
X76111345Y80375170D01*
X76093889Y80376889D01*
X76076434Y80375170D01*
X76076427Y80375170D01*
X76031077Y80370703D01*
X76024179Y80370024D01*
X75994992Y80361170D01*
X75957150Y80349691D01*
X75895374Y80316671D01*
X75841227Y80272233D01*
X75830096Y80258670D01*
X74255859Y78684432D01*
X74161096Y78723684D01*
X73981538Y78759400D01*
X73798462Y78759400D01*
X73618904Y78723684D01*
X73449764Y78653624D01*
X73297542Y78551912D01*
X73168088Y78422458D01*
X73066376Y78270236D01*
X72996316Y78101096D01*
X72960600Y77921538D01*
X69160580Y77921538D01*
X69160580Y88812620D01*
X77083868Y88812620D01*
X77086940Y88698370D01*
X77245690Y88539620D01*
X77969940Y88539620D01*
X77969940Y89288870D01*
X77811190Y89447620D01*
X77721940Y89450692D01*
X77597458Y89438432D01*
X77477760Y89402122D01*
X77367446Y89343157D01*
X77270755Y89263805D01*
X77191403Y89167114D01*
X77132438Y89056800D01*
X77096128Y88937102D01*
X77083868Y88812620D01*
X69160580Y88812620D01*
X69160580Y89644473D01*
X73184078Y89644473D01*
X73237466Y89415799D01*
X73467374Y89309905D01*
X73713524Y89250898D01*
X73966455Y89241048D01*
X74216449Y89280730D01*
X74453896Y89368422D01*
X74542534Y89415799D01*
X74595922Y89644473D01*
X73890000Y90350395D01*
X73184078Y89644473D01*
X69160580Y89644473D01*
X69160580Y90453545D01*
X72601048Y90453545D01*
X72640730Y90203551D01*
X72728422Y89966104D01*
X72775799Y89877466D01*
X73004473Y89824078D01*
X73710395Y90530000D01*
X74069605Y90530000D01*
X74775527Y89824078D01*
X75004201Y89877466D01*
X75110095Y90107374D01*
X75169102Y90353524D01*
X75178952Y90606455D01*
X75176558Y90621538D01*
X75500600Y90621538D01*
X75500600Y90438462D01*
X75536316Y90258904D01*
X75606376Y90089764D01*
X75708088Y89937542D01*
X75837542Y89808088D01*
X75989764Y89706376D01*
X76158904Y89636316D01*
X76338462Y89600600D01*
X76521538Y89600600D01*
X76701096Y89636316D01*
X76870236Y89706376D01*
X77022458Y89808088D01*
X77151912Y89937542D01*
X77253624Y90089764D01*
X77323684Y90258904D01*
X77359400Y90438462D01*
X77359400Y90621538D01*
X77323684Y90801096D01*
X77253624Y90970236D01*
X77151912Y91122458D01*
X77022458Y91251912D01*
X76870236Y91353624D01*
X76701096Y91423684D01*
X76521538Y91459400D01*
X76338462Y91459400D01*
X76158904Y91423684D01*
X75989764Y91353624D01*
X75837542Y91251912D01*
X75708088Y91122458D01*
X75606376Y90970236D01*
X75536316Y90801096D01*
X75500600Y90621538D01*
X75176558Y90621538D01*
X75139270Y90856449D01*
X75051578Y91093896D01*
X75004201Y91182534D01*
X74775527Y91235922D01*
X74069605Y90530000D01*
X73710395Y90530000D01*
X73004473Y91235922D01*
X72775799Y91182534D01*
X72669905Y90952626D01*
X72610898Y90706476D01*
X72601048Y90453545D01*
X69160580Y90453545D01*
X69160580Y91415527D01*
X73184078Y91415527D01*
X73890000Y90709605D01*
X74595922Y91415527D01*
X74542534Y91644201D01*
X74312626Y91750095D01*
X74066476Y91809102D01*
X73813545Y91818952D01*
X73563551Y91779270D01*
X73326104Y91691578D01*
X73237466Y91644201D01*
X73184078Y91415527D01*
X69160580Y91415527D01*
X69160580Y94570709D01*
X80479685Y94570709D01*
X80945224Y94015902D01*
X81519182Y94497510D01*
X81538749Y94721162D01*
X81483734Y94791506D01*
X81394327Y94878985D01*
X81289571Y94947339D01*
X81173493Y94993942D01*
X81050554Y95017006D01*
X80925478Y95015641D01*
X80803071Y94989902D01*
X80688037Y94940777D01*
X80584798Y94870153D01*
X80499252Y94794361D01*
X80479685Y94570709D01*
X69160580Y94570709D01*
X69160580Y102976980D01*
X99051301Y102976980D01*
X99051300Y65466260D01*
G36*
X84232940Y85618620D02*
G01*
X84252940Y85618620D01*
X84252940Y85364620D01*
X84232940Y85364620D01*
X84232940Y85344620D01*
X83978940Y85344620D01*
X83978940Y85364620D01*
X83958940Y85364620D01*
X83958940Y85618620D01*
X83978940Y85618620D01*
X83978940Y85638620D01*
X84232940Y85638620D01*
X84232940Y85618620D01*
X84232940Y85618620D01*
G37*
X84232940Y85618620D02*
X84252940Y85618620D01*
X84252940Y85364620D01*
X84232940Y85364620D01*
X84232940Y85344620D01*
X83978940Y85344620D01*
X83978940Y85364620D01*
X83958940Y85364620D01*
X83958940Y85618620D01*
X83978940Y85618620D01*
X83978940Y85638620D01*
X84232940Y85638620D01*
X84232940Y85618620D01*
G36*
X87257940Y85685320D02*
G01*
X87111607Y85685320D01*
X87053761Y85679623D01*
X87025402Y85671020D01*
X87003940Y85671020D01*
X87003940Y85690370D01*
X87025790Y85712220D01*
X87257940Y85712220D01*
X87257940Y85685320D01*
X87257940Y85685320D01*
G37*
X87257940Y85685320D02*
X87111607Y85685320D01*
X87053761Y85679623D01*
X87025402Y85671020D01*
X87003940Y85671020D01*
X87003940Y85690370D01*
X87025790Y85712220D01*
X87257940Y85712220D01*
X87257940Y85685320D01*
G36*
X83126530Y88477652D02*
G01*
X83094691Y88477700D01*
X83099630Y88527847D01*
X83099630Y88643620D01*
X83126530Y88643620D01*
X83126530Y88477652D01*
X83126530Y88477652D01*
G37*
X83126530Y88477652D02*
X83094691Y88477700D01*
X83099630Y88527847D01*
X83099630Y88643620D01*
X83126530Y88643620D01*
X83126530Y88477652D01*
G04 #@! TD*
M02*
