G04 #@! TF.GenerationSoftware,KiCad,Pcbnew,(5.1.0)-1*
G04 #@! TF.CreationDate,2019-07-07T14:12:54+03:00*
G04 #@! TF.ProjectId,bluetooth,626c7565-746f-46f7-9468-2e6b69636164,rev?*
G04 #@! TF.SameCoordinates,Original*
G04 #@! TF.FileFunction,Other,User*
%FSLAX46Y46*%
G04 Gerber Fmt 4.6, Leading zero omitted, Abs format (unit mm)*
G04 Created by KiCad (PCBNEW (5.1.0)-1) date 2019-07-07 14:12:54*
%MOMM*%
%LPD*%
G04 APERTURE LIST*
%ADD10C,0.100000*%
%ADD11C,0.150000*%
%ADD12C,0.300000*%
%ADD13C,0.400000*%
%ADD14C,0.200000*%
G04 APERTURE END LIST*
D10*
D11*
X177002200Y-166007200D02*
X177002200Y-198007200D01*
X285002200Y-198007200D01*
X285002200Y-166007200D01*
X177002200Y-166007200D01*
D10*
D11*
X10000000Y-10000000D02*
X10000000Y-200007200D01*
X287002200Y-200007200D01*
X287002200Y-10000000D01*
X10000000Y-10000000D01*
D10*
D11*
X12000000Y-12000000D02*
X12000000Y-198007200D01*
X285002200Y-198007200D01*
X285002200Y-12000000D01*
X12000000Y-12000000D01*
D10*
D11*
X60000000Y-12000000D02*
X60000000Y-10000000D01*
D10*
D11*
X110000000Y-12000000D02*
X110000000Y-10000000D01*
D10*
D11*
X160000000Y-12000000D02*
X160000000Y-10000000D01*
D10*
D11*
X210000000Y-12000000D02*
X210000000Y-10000000D01*
D10*
D11*
X260000000Y-12000000D02*
X260000000Y-10000000D01*
D10*
D11*
X36065476Y-11588095D02*
X35322619Y-11588095D01*
X35694047Y-11588095D02*
X35694047Y-10288095D01*
X35570238Y-10473809D01*
X35446428Y-10597619D01*
X35322619Y-10659523D01*
D10*
D11*
X85322619Y-10411904D02*
X85384523Y-10350000D01*
X85508333Y-10288095D01*
X85817857Y-10288095D01*
X85941666Y-10350000D01*
X86003571Y-10411904D01*
X86065476Y-10535714D01*
X86065476Y-10659523D01*
X86003571Y-10845238D01*
X85260714Y-11588095D01*
X86065476Y-11588095D01*
D10*
D11*
X135260714Y-10288095D02*
X136065476Y-10288095D01*
X135632142Y-10783333D01*
X135817857Y-10783333D01*
X135941666Y-10845238D01*
X136003571Y-10907142D01*
X136065476Y-11030952D01*
X136065476Y-11340476D01*
X136003571Y-11464285D01*
X135941666Y-11526190D01*
X135817857Y-11588095D01*
X135446428Y-11588095D01*
X135322619Y-11526190D01*
X135260714Y-11464285D01*
D10*
D11*
X185941666Y-10721428D02*
X185941666Y-11588095D01*
X185632142Y-10226190D02*
X185322619Y-11154761D01*
X186127380Y-11154761D01*
D10*
D11*
X236003571Y-10288095D02*
X235384523Y-10288095D01*
X235322619Y-10907142D01*
X235384523Y-10845238D01*
X235508333Y-10783333D01*
X235817857Y-10783333D01*
X235941666Y-10845238D01*
X236003571Y-10907142D01*
X236065476Y-11030952D01*
X236065476Y-11340476D01*
X236003571Y-11464285D01*
X235941666Y-11526190D01*
X235817857Y-11588095D01*
X235508333Y-11588095D01*
X235384523Y-11526190D01*
X235322619Y-11464285D01*
D10*
D11*
X285941666Y-10288095D02*
X285694047Y-10288095D01*
X285570238Y-10350000D01*
X285508333Y-10411904D01*
X285384523Y-10597619D01*
X285322619Y-10845238D01*
X285322619Y-11340476D01*
X285384523Y-11464285D01*
X285446428Y-11526190D01*
X285570238Y-11588095D01*
X285817857Y-11588095D01*
X285941666Y-11526190D01*
X286003571Y-11464285D01*
X286065476Y-11340476D01*
X286065476Y-11030952D01*
X286003571Y-10907142D01*
X285941666Y-10845238D01*
X285817857Y-10783333D01*
X285570238Y-10783333D01*
X285446428Y-10845238D01*
X285384523Y-10907142D01*
X285322619Y-11030952D01*
D10*
D11*
X60000000Y-198007200D02*
X60000000Y-200007200D01*
D10*
D11*
X110000000Y-198007200D02*
X110000000Y-200007200D01*
D10*
D11*
X160000000Y-198007200D02*
X160000000Y-200007200D01*
D10*
D11*
X210000000Y-198007200D02*
X210000000Y-200007200D01*
D10*
D11*
X260000000Y-198007200D02*
X260000000Y-200007200D01*
D10*
D11*
X36065476Y-199595295D02*
X35322619Y-199595295D01*
X35694047Y-199595295D02*
X35694047Y-198295295D01*
X35570238Y-198481009D01*
X35446428Y-198604819D01*
X35322619Y-198666723D01*
D10*
D11*
X85322619Y-198419104D02*
X85384523Y-198357200D01*
X85508333Y-198295295D01*
X85817857Y-198295295D01*
X85941666Y-198357200D01*
X86003571Y-198419104D01*
X86065476Y-198542914D01*
X86065476Y-198666723D01*
X86003571Y-198852438D01*
X85260714Y-199595295D01*
X86065476Y-199595295D01*
D10*
D11*
X135260714Y-198295295D02*
X136065476Y-198295295D01*
X135632142Y-198790533D01*
X135817857Y-198790533D01*
X135941666Y-198852438D01*
X136003571Y-198914342D01*
X136065476Y-199038152D01*
X136065476Y-199347676D01*
X136003571Y-199471485D01*
X135941666Y-199533390D01*
X135817857Y-199595295D01*
X135446428Y-199595295D01*
X135322619Y-199533390D01*
X135260714Y-199471485D01*
D10*
D11*
X185941666Y-198728628D02*
X185941666Y-199595295D01*
X185632142Y-198233390D02*
X185322619Y-199161961D01*
X186127380Y-199161961D01*
D10*
D11*
X236003571Y-198295295D02*
X235384523Y-198295295D01*
X235322619Y-198914342D01*
X235384523Y-198852438D01*
X235508333Y-198790533D01*
X235817857Y-198790533D01*
X235941666Y-198852438D01*
X236003571Y-198914342D01*
X236065476Y-199038152D01*
X236065476Y-199347676D01*
X236003571Y-199471485D01*
X235941666Y-199533390D01*
X235817857Y-199595295D01*
X235508333Y-199595295D01*
X235384523Y-199533390D01*
X235322619Y-199471485D01*
D10*
D11*
X285941666Y-198295295D02*
X285694047Y-198295295D01*
X285570238Y-198357200D01*
X285508333Y-198419104D01*
X285384523Y-198604819D01*
X285322619Y-198852438D01*
X285322619Y-199347676D01*
X285384523Y-199471485D01*
X285446428Y-199533390D01*
X285570238Y-199595295D01*
X285817857Y-199595295D01*
X285941666Y-199533390D01*
X286003571Y-199471485D01*
X286065476Y-199347676D01*
X286065476Y-199038152D01*
X286003571Y-198914342D01*
X285941666Y-198852438D01*
X285817857Y-198790533D01*
X285570238Y-198790533D01*
X285446428Y-198852438D01*
X285384523Y-198914342D01*
X285322619Y-199038152D01*
D10*
D11*
X10000000Y-60000000D02*
X12000000Y-60000000D01*
D10*
D11*
X10000000Y-110000000D02*
X12000000Y-110000000D01*
D10*
D11*
X10000000Y-160000000D02*
X12000000Y-160000000D01*
D10*
D11*
X10690476Y-35216666D02*
X11309523Y-35216666D01*
X10566666Y-35588095D02*
X11000000Y-34288095D01*
X11433333Y-35588095D01*
D10*
D11*
X11092857Y-84907142D02*
X11278571Y-84969047D01*
X11340476Y-85030952D01*
X11402380Y-85154761D01*
X11402380Y-85340476D01*
X11340476Y-85464285D01*
X11278571Y-85526190D01*
X11154761Y-85588095D01*
X10659523Y-85588095D01*
X10659523Y-84288095D01*
X11092857Y-84288095D01*
X11216666Y-84350000D01*
X11278571Y-84411904D01*
X11340476Y-84535714D01*
X11340476Y-84659523D01*
X11278571Y-84783333D01*
X11216666Y-84845238D01*
X11092857Y-84907142D01*
X10659523Y-84907142D01*
D10*
D11*
X11402380Y-135464285D02*
X11340476Y-135526190D01*
X11154761Y-135588095D01*
X11030952Y-135588095D01*
X10845238Y-135526190D01*
X10721428Y-135402380D01*
X10659523Y-135278571D01*
X10597619Y-135030952D01*
X10597619Y-134845238D01*
X10659523Y-134597619D01*
X10721428Y-134473809D01*
X10845238Y-134350000D01*
X11030952Y-134288095D01*
X11154761Y-134288095D01*
X11340476Y-134350000D01*
X11402380Y-134411904D01*
D10*
D11*
X10659523Y-185588095D02*
X10659523Y-184288095D01*
X10969047Y-184288095D01*
X11154761Y-184350000D01*
X11278571Y-184473809D01*
X11340476Y-184597619D01*
X11402380Y-184845238D01*
X11402380Y-185030952D01*
X11340476Y-185278571D01*
X11278571Y-185402380D01*
X11154761Y-185526190D01*
X10969047Y-185588095D01*
X10659523Y-185588095D01*
D10*
D11*
X287002200Y-60000000D02*
X285002200Y-60000000D01*
D10*
D11*
X287002200Y-110000000D02*
X285002200Y-110000000D01*
D10*
D11*
X287002200Y-160000000D02*
X285002200Y-160000000D01*
D10*
D11*
X285692676Y-35216666D02*
X286311723Y-35216666D01*
X285568866Y-35588095D02*
X286002200Y-34288095D01*
X286435533Y-35588095D01*
D10*
D11*
X286095057Y-84907142D02*
X286280771Y-84969047D01*
X286342676Y-85030952D01*
X286404580Y-85154761D01*
X286404580Y-85340476D01*
X286342676Y-85464285D01*
X286280771Y-85526190D01*
X286156961Y-85588095D01*
X285661723Y-85588095D01*
X285661723Y-84288095D01*
X286095057Y-84288095D01*
X286218866Y-84350000D01*
X286280771Y-84411904D01*
X286342676Y-84535714D01*
X286342676Y-84659523D01*
X286280771Y-84783333D01*
X286218866Y-84845238D01*
X286095057Y-84907142D01*
X285661723Y-84907142D01*
D10*
D11*
X286404580Y-135464285D02*
X286342676Y-135526190D01*
X286156961Y-135588095D01*
X286033152Y-135588095D01*
X285847438Y-135526190D01*
X285723628Y-135402380D01*
X285661723Y-135278571D01*
X285599819Y-135030952D01*
X285599819Y-134845238D01*
X285661723Y-134597619D01*
X285723628Y-134473809D01*
X285847438Y-134350000D01*
X286033152Y-134288095D01*
X286156961Y-134288095D01*
X286342676Y-134350000D01*
X286404580Y-134411904D01*
D10*
D11*
X285661723Y-185588095D02*
X285661723Y-184288095D01*
X285971247Y-184288095D01*
X286156961Y-184350000D01*
X286280771Y-184473809D01*
X286342676Y-184597619D01*
X286404580Y-184845238D01*
X286404580Y-185030952D01*
X286342676Y-185278571D01*
X286280771Y-185402380D01*
X286156961Y-185526190D01*
X285971247Y-185588095D01*
X285661723Y-185588095D01*
D10*
D11*
X200434342Y-193785771D02*
X200434342Y-192285771D01*
X200791485Y-192285771D01*
X201005771Y-192357200D01*
X201148628Y-192500057D01*
X201220057Y-192642914D01*
X201291485Y-192928628D01*
X201291485Y-193142914D01*
X201220057Y-193428628D01*
X201148628Y-193571485D01*
X201005771Y-193714342D01*
X200791485Y-193785771D01*
X200434342Y-193785771D01*
X202577200Y-193785771D02*
X202577200Y-193000057D01*
X202505771Y-192857200D01*
X202362914Y-192785771D01*
X202077200Y-192785771D01*
X201934342Y-192857200D01*
X202577200Y-193714342D02*
X202434342Y-193785771D01*
X202077200Y-193785771D01*
X201934342Y-193714342D01*
X201862914Y-193571485D01*
X201862914Y-193428628D01*
X201934342Y-193285771D01*
X202077200Y-193214342D01*
X202434342Y-193214342D01*
X202577200Y-193142914D01*
X203077200Y-192785771D02*
X203648628Y-192785771D01*
X203291485Y-192285771D02*
X203291485Y-193571485D01*
X203362914Y-193714342D01*
X203505771Y-193785771D01*
X203648628Y-193785771D01*
X204720057Y-193714342D02*
X204577200Y-193785771D01*
X204291485Y-193785771D01*
X204148628Y-193714342D01*
X204077200Y-193571485D01*
X204077200Y-193000057D01*
X204148628Y-192857200D01*
X204291485Y-192785771D01*
X204577200Y-192785771D01*
X204720057Y-192857200D01*
X204791485Y-193000057D01*
X204791485Y-193142914D01*
X204077200Y-193285771D01*
X205434342Y-193642914D02*
X205505771Y-193714342D01*
X205434342Y-193785771D01*
X205362914Y-193714342D01*
X205434342Y-193642914D01*
X205434342Y-193785771D01*
X205434342Y-192857200D02*
X205505771Y-192928628D01*
X205434342Y-193000057D01*
X205362914Y-192928628D01*
X205434342Y-192857200D01*
X205434342Y-193000057D01*
D10*
D11*
X177002200Y-194507200D02*
X285002200Y-194507200D01*
D10*
D11*
X178434342Y-196585771D02*
X178434342Y-195085771D01*
X179291485Y-196585771D02*
X178648628Y-195728628D01*
X179291485Y-195085771D02*
X178434342Y-195942914D01*
X179934342Y-196585771D02*
X179934342Y-195585771D01*
X179934342Y-195085771D02*
X179862914Y-195157200D01*
X179934342Y-195228628D01*
X180005771Y-195157200D01*
X179934342Y-195085771D01*
X179934342Y-195228628D01*
X181505771Y-196442914D02*
X181434342Y-196514342D01*
X181220057Y-196585771D01*
X181077200Y-196585771D01*
X180862914Y-196514342D01*
X180720057Y-196371485D01*
X180648628Y-196228628D01*
X180577200Y-195942914D01*
X180577200Y-195728628D01*
X180648628Y-195442914D01*
X180720057Y-195300057D01*
X180862914Y-195157200D01*
X181077200Y-195085771D01*
X181220057Y-195085771D01*
X181434342Y-195157200D01*
X181505771Y-195228628D01*
X182791485Y-196585771D02*
X182791485Y-195800057D01*
X182720057Y-195657200D01*
X182577200Y-195585771D01*
X182291485Y-195585771D01*
X182148628Y-195657200D01*
X182791485Y-196514342D02*
X182648628Y-196585771D01*
X182291485Y-196585771D01*
X182148628Y-196514342D01*
X182077200Y-196371485D01*
X182077200Y-196228628D01*
X182148628Y-196085771D01*
X182291485Y-196014342D01*
X182648628Y-196014342D01*
X182791485Y-195942914D01*
X184148628Y-196585771D02*
X184148628Y-195085771D01*
X184148628Y-196514342D02*
X184005771Y-196585771D01*
X183720057Y-196585771D01*
X183577200Y-196514342D01*
X183505771Y-196442914D01*
X183434342Y-196300057D01*
X183434342Y-195871485D01*
X183505771Y-195728628D01*
X183577200Y-195657200D01*
X183720057Y-195585771D01*
X184005771Y-195585771D01*
X184148628Y-195657200D01*
X186005771Y-195800057D02*
X186505771Y-195800057D01*
X186720057Y-196585771D02*
X186005771Y-196585771D01*
X186005771Y-195085771D01*
X186720057Y-195085771D01*
X187362914Y-196442914D02*
X187434342Y-196514342D01*
X187362914Y-196585771D01*
X187291485Y-196514342D01*
X187362914Y-196442914D01*
X187362914Y-196585771D01*
X188077200Y-196585771D02*
X188077200Y-195085771D01*
X188434342Y-195085771D01*
X188648628Y-195157200D01*
X188791485Y-195300057D01*
X188862914Y-195442914D01*
X188934342Y-195728628D01*
X188934342Y-195942914D01*
X188862914Y-196228628D01*
X188791485Y-196371485D01*
X188648628Y-196514342D01*
X188434342Y-196585771D01*
X188077200Y-196585771D01*
X189577200Y-196442914D02*
X189648628Y-196514342D01*
X189577200Y-196585771D01*
X189505771Y-196514342D01*
X189577200Y-196442914D01*
X189577200Y-196585771D01*
X190220057Y-196157200D02*
X190934342Y-196157200D01*
X190077200Y-196585771D02*
X190577200Y-195085771D01*
X191077200Y-196585771D01*
X191577200Y-196442914D02*
X191648628Y-196514342D01*
X191577200Y-196585771D01*
X191505771Y-196514342D01*
X191577200Y-196442914D01*
X191577200Y-196585771D01*
X194577200Y-196585771D02*
X194577200Y-195085771D01*
X194720057Y-196014342D02*
X195148628Y-196585771D01*
X195148628Y-195585771D02*
X194577200Y-196157200D01*
X195791485Y-196585771D02*
X195791485Y-195585771D01*
X195791485Y-195085771D02*
X195720057Y-195157200D01*
X195791485Y-195228628D01*
X195862914Y-195157200D01*
X195791485Y-195085771D01*
X195791485Y-195228628D01*
X197148628Y-196514342D02*
X197005771Y-196585771D01*
X196720057Y-196585771D01*
X196577200Y-196514342D01*
X196505771Y-196442914D01*
X196434342Y-196300057D01*
X196434342Y-195871485D01*
X196505771Y-195728628D01*
X196577200Y-195657200D01*
X196720057Y-195585771D01*
X197005771Y-195585771D01*
X197148628Y-195657200D01*
X198434342Y-196585771D02*
X198434342Y-195800057D01*
X198362914Y-195657200D01*
X198220057Y-195585771D01*
X197934342Y-195585771D01*
X197791485Y-195657200D01*
X198434342Y-196514342D02*
X198291485Y-196585771D01*
X197934342Y-196585771D01*
X197791485Y-196514342D01*
X197720057Y-196371485D01*
X197720057Y-196228628D01*
X197791485Y-196085771D01*
X197934342Y-196014342D01*
X198291485Y-196014342D01*
X198434342Y-195942914D01*
X199791485Y-196585771D02*
X199791485Y-195085771D01*
X199791485Y-196514342D02*
X199648628Y-196585771D01*
X199362914Y-196585771D01*
X199220057Y-196514342D01*
X199148628Y-196442914D01*
X199077200Y-196300057D01*
X199077200Y-195871485D01*
X199148628Y-195728628D01*
X199220057Y-195657200D01*
X199362914Y-195585771D01*
X199648628Y-195585771D01*
X199791485Y-195657200D01*
X202077200Y-197157200D02*
X202005771Y-197085771D01*
X201862914Y-196871485D01*
X201791485Y-196728628D01*
X201720057Y-196514342D01*
X201648628Y-196157200D01*
X201648628Y-195871485D01*
X201720057Y-195514342D01*
X201791485Y-195300057D01*
X201862914Y-195157200D01*
X202005771Y-194942914D01*
X202077200Y-194871485D01*
X203362914Y-195085771D02*
X202648628Y-195085771D01*
X202577200Y-195800057D01*
X202648628Y-195728628D01*
X202791485Y-195657200D01*
X203148628Y-195657200D01*
X203291485Y-195728628D01*
X203362914Y-195800057D01*
X203434342Y-195942914D01*
X203434342Y-196300057D01*
X203362914Y-196442914D01*
X203291485Y-196514342D01*
X203148628Y-196585771D01*
X202791485Y-196585771D01*
X202648628Y-196514342D01*
X202577200Y-196442914D01*
X204077200Y-196442914D02*
X204148628Y-196514342D01*
X204077200Y-196585771D01*
X204005771Y-196514342D01*
X204077200Y-196442914D01*
X204077200Y-196585771D01*
X205577200Y-196585771D02*
X204720057Y-196585771D01*
X205148628Y-196585771D02*
X205148628Y-195085771D01*
X205005771Y-195300057D01*
X204862914Y-195442914D01*
X204720057Y-195514342D01*
X206220057Y-196442914D02*
X206291485Y-196514342D01*
X206220057Y-196585771D01*
X206148628Y-196514342D01*
X206220057Y-196442914D01*
X206220057Y-196585771D01*
X207220057Y-195085771D02*
X207362914Y-195085771D01*
X207505771Y-195157200D01*
X207577200Y-195228628D01*
X207648628Y-195371485D01*
X207720057Y-195657200D01*
X207720057Y-196014342D01*
X207648628Y-196300057D01*
X207577200Y-196442914D01*
X207505771Y-196514342D01*
X207362914Y-196585771D01*
X207220057Y-196585771D01*
X207077200Y-196514342D01*
X207005771Y-196442914D01*
X206934342Y-196300057D01*
X206862914Y-196014342D01*
X206862914Y-195657200D01*
X206934342Y-195371485D01*
X207005771Y-195228628D01*
X207077200Y-195157200D01*
X207220057Y-195085771D01*
X208220057Y-197157200D02*
X208291485Y-197085771D01*
X208434342Y-196871485D01*
X208505771Y-196728628D01*
X208577200Y-196514342D01*
X208648628Y-196157200D01*
X208648628Y-195871485D01*
X208577200Y-195514342D01*
X208505771Y-195300057D01*
X208434342Y-195157200D01*
X208291485Y-194942914D01*
X208220057Y-194871485D01*
X209362914Y-196014342D02*
X210505771Y-196014342D01*
X212005771Y-196585771D02*
X211148628Y-196585771D01*
X211577200Y-196585771D02*
X211577200Y-195085771D01*
X211434342Y-195300057D01*
X211291485Y-195442914D01*
X211148628Y-195514342D01*
D10*
D11*
X177002200Y-191507200D02*
X285002200Y-191507200D01*
D10*
D12*
X264411485Y-193785771D02*
X263911485Y-193071485D01*
X263554342Y-193785771D02*
X263554342Y-192285771D01*
X264125771Y-192285771D01*
X264268628Y-192357200D01*
X264340057Y-192428628D01*
X264411485Y-192571485D01*
X264411485Y-192785771D01*
X264340057Y-192928628D01*
X264268628Y-193000057D01*
X264125771Y-193071485D01*
X263554342Y-193071485D01*
X265625771Y-193714342D02*
X265482914Y-193785771D01*
X265197200Y-193785771D01*
X265054342Y-193714342D01*
X264982914Y-193571485D01*
X264982914Y-193000057D01*
X265054342Y-192857200D01*
X265197200Y-192785771D01*
X265482914Y-192785771D01*
X265625771Y-192857200D01*
X265697200Y-193000057D01*
X265697200Y-193142914D01*
X264982914Y-193285771D01*
X266197200Y-192785771D02*
X266554342Y-193785771D01*
X266911485Y-192785771D01*
X267482914Y-193642914D02*
X267554342Y-193714342D01*
X267482914Y-193785771D01*
X267411485Y-193714342D01*
X267482914Y-193642914D01*
X267482914Y-193785771D01*
X267482914Y-192857200D02*
X267554342Y-192928628D01*
X267482914Y-193000057D01*
X267411485Y-192928628D01*
X267482914Y-192857200D01*
X267482914Y-193000057D01*
D10*
D11*
X178362914Y-193714342D02*
X178577200Y-193785771D01*
X178934342Y-193785771D01*
X179077200Y-193714342D01*
X179148628Y-193642914D01*
X179220057Y-193500057D01*
X179220057Y-193357200D01*
X179148628Y-193214342D01*
X179077200Y-193142914D01*
X178934342Y-193071485D01*
X178648628Y-193000057D01*
X178505771Y-192928628D01*
X178434342Y-192857200D01*
X178362914Y-192714342D01*
X178362914Y-192571485D01*
X178434342Y-192428628D01*
X178505771Y-192357200D01*
X178648628Y-192285771D01*
X179005771Y-192285771D01*
X179220057Y-192357200D01*
X179862914Y-193785771D02*
X179862914Y-192785771D01*
X179862914Y-192285771D02*
X179791485Y-192357200D01*
X179862914Y-192428628D01*
X179934342Y-192357200D01*
X179862914Y-192285771D01*
X179862914Y-192428628D01*
X180434342Y-192785771D02*
X181220057Y-192785771D01*
X180434342Y-193785771D01*
X181220057Y-193785771D01*
X182362914Y-193714342D02*
X182220057Y-193785771D01*
X181934342Y-193785771D01*
X181791485Y-193714342D01*
X181720057Y-193571485D01*
X181720057Y-193000057D01*
X181791485Y-192857200D01*
X181934342Y-192785771D01*
X182220057Y-192785771D01*
X182362914Y-192857200D01*
X182434342Y-193000057D01*
X182434342Y-193142914D01*
X181720057Y-193285771D01*
X183077200Y-193642914D02*
X183148628Y-193714342D01*
X183077200Y-193785771D01*
X183005771Y-193714342D01*
X183077200Y-193642914D01*
X183077200Y-193785771D01*
X183077200Y-192857200D02*
X183148628Y-192928628D01*
X183077200Y-193000057D01*
X183005771Y-192928628D01*
X183077200Y-192857200D01*
X183077200Y-193000057D01*
X184862914Y-193357200D02*
X185577200Y-193357200D01*
X184720057Y-193785771D02*
X185220057Y-192285771D01*
X185720057Y-193785771D01*
X186862914Y-192785771D02*
X186862914Y-193785771D01*
X186505771Y-192214342D02*
X186148628Y-193285771D01*
X187077200Y-193285771D01*
D10*
D11*
X263434342Y-196585771D02*
X263434342Y-195085771D01*
X264791485Y-196585771D02*
X264791485Y-195085771D01*
X264791485Y-196514342D02*
X264648628Y-196585771D01*
X264362914Y-196585771D01*
X264220057Y-196514342D01*
X264148628Y-196442914D01*
X264077200Y-196300057D01*
X264077200Y-195871485D01*
X264148628Y-195728628D01*
X264220057Y-195657200D01*
X264362914Y-195585771D01*
X264648628Y-195585771D01*
X264791485Y-195657200D01*
X265505771Y-196442914D02*
X265577200Y-196514342D01*
X265505771Y-196585771D01*
X265434342Y-196514342D01*
X265505771Y-196442914D01*
X265505771Y-196585771D01*
X265505771Y-195657200D02*
X265577200Y-195728628D01*
X265505771Y-195800057D01*
X265434342Y-195728628D01*
X265505771Y-195657200D01*
X265505771Y-195800057D01*
X268148628Y-196585771D02*
X267291485Y-196585771D01*
X267720057Y-196585771D02*
X267720057Y-195085771D01*
X267577200Y-195300057D01*
X267434342Y-195442914D01*
X267291485Y-195514342D01*
X269862914Y-195014342D02*
X268577200Y-196942914D01*
X271148628Y-196585771D02*
X270291485Y-196585771D01*
X270720057Y-196585771D02*
X270720057Y-195085771D01*
X270577200Y-195300057D01*
X270434342Y-195442914D01*
X270291485Y-195514342D01*
D10*
D11*
X177002200Y-187507200D02*
X285002200Y-187507200D01*
D10*
D13*
X178714580Y-188211961D02*
X179857438Y-188211961D01*
X179036009Y-190211961D02*
X179286009Y-188211961D01*
X180274104Y-190211961D02*
X180440771Y-188878628D01*
X180524104Y-188211961D02*
X180416961Y-188307200D01*
X180500295Y-188402438D01*
X180607438Y-188307200D01*
X180524104Y-188211961D01*
X180500295Y-188402438D01*
X181107438Y-188878628D02*
X181869342Y-188878628D01*
X181476485Y-188211961D02*
X181262200Y-189926247D01*
X181333628Y-190116723D01*
X181512200Y-190211961D01*
X181702676Y-190211961D01*
X182655057Y-190211961D02*
X182476485Y-190116723D01*
X182405057Y-189926247D01*
X182619342Y-188211961D01*
X184190771Y-190116723D02*
X183988390Y-190211961D01*
X183607438Y-190211961D01*
X183428866Y-190116723D01*
X183357438Y-189926247D01*
X183452676Y-189164342D01*
X183571723Y-188973866D01*
X183774104Y-188878628D01*
X184155057Y-188878628D01*
X184333628Y-188973866D01*
X184405057Y-189164342D01*
X184381247Y-189354819D01*
X183405057Y-189545295D01*
X185155057Y-190021485D02*
X185238390Y-190116723D01*
X185131247Y-190211961D01*
X185047914Y-190116723D01*
X185155057Y-190021485D01*
X185131247Y-190211961D01*
X185286009Y-188973866D02*
X185369342Y-189069104D01*
X185262200Y-189164342D01*
X185178866Y-189069104D01*
X185286009Y-188973866D01*
X185262200Y-189164342D01*
D10*
D11*
X178934342Y-185600057D02*
X178434342Y-185600057D01*
X178434342Y-186385771D02*
X178434342Y-184885771D01*
X179148628Y-184885771D01*
X179720057Y-186385771D02*
X179720057Y-185385771D01*
X179720057Y-184885771D02*
X179648628Y-184957200D01*
X179720057Y-185028628D01*
X179791485Y-184957200D01*
X179720057Y-184885771D01*
X179720057Y-185028628D01*
X180648628Y-186385771D02*
X180505771Y-186314342D01*
X180434342Y-186171485D01*
X180434342Y-184885771D01*
X181791485Y-186314342D02*
X181648628Y-186385771D01*
X181362914Y-186385771D01*
X181220057Y-186314342D01*
X181148628Y-186171485D01*
X181148628Y-185600057D01*
X181220057Y-185457200D01*
X181362914Y-185385771D01*
X181648628Y-185385771D01*
X181791485Y-185457200D01*
X181862914Y-185600057D01*
X181862914Y-185742914D01*
X181148628Y-185885771D01*
X182505771Y-186242914D02*
X182577200Y-186314342D01*
X182505771Y-186385771D01*
X182434342Y-186314342D01*
X182505771Y-186242914D01*
X182505771Y-186385771D01*
X182505771Y-185457200D02*
X182577200Y-185528628D01*
X182505771Y-185600057D01*
X182434342Y-185528628D01*
X182505771Y-185457200D01*
X182505771Y-185600057D01*
X184362914Y-186385771D02*
X184362914Y-184885771D01*
X184362914Y-185457200D02*
X184505771Y-185385771D01*
X184791485Y-185385771D01*
X184934342Y-185457200D01*
X185005771Y-185528628D01*
X185077200Y-185671485D01*
X185077200Y-186100057D01*
X185005771Y-186242914D01*
X184934342Y-186314342D01*
X184791485Y-186385771D01*
X184505771Y-186385771D01*
X184362914Y-186314342D01*
X185934342Y-186385771D02*
X185791485Y-186314342D01*
X185720057Y-186171485D01*
X185720057Y-184885771D01*
X187148628Y-185385771D02*
X187148628Y-186385771D01*
X186505771Y-185385771D02*
X186505771Y-186171485D01*
X186577200Y-186314342D01*
X186720057Y-186385771D01*
X186934342Y-186385771D01*
X187077200Y-186314342D01*
X187148628Y-186242914D01*
X188434342Y-186314342D02*
X188291485Y-186385771D01*
X188005771Y-186385771D01*
X187862914Y-186314342D01*
X187791485Y-186171485D01*
X187791485Y-185600057D01*
X187862914Y-185457200D01*
X188005771Y-185385771D01*
X188291485Y-185385771D01*
X188434342Y-185457200D01*
X188505771Y-185600057D01*
X188505771Y-185742914D01*
X187791485Y-185885771D01*
X188934342Y-185385771D02*
X189505771Y-185385771D01*
X189148628Y-184885771D02*
X189148628Y-186171485D01*
X189220057Y-186314342D01*
X189362914Y-186385771D01*
X189505771Y-186385771D01*
X190220057Y-186385771D02*
X190077200Y-186314342D01*
X190005771Y-186242914D01*
X189934342Y-186100057D01*
X189934342Y-185671485D01*
X190005771Y-185528628D01*
X190077200Y-185457200D01*
X190220057Y-185385771D01*
X190434342Y-185385771D01*
X190577200Y-185457200D01*
X190648628Y-185528628D01*
X190720057Y-185671485D01*
X190720057Y-186100057D01*
X190648628Y-186242914D01*
X190577200Y-186314342D01*
X190434342Y-186385771D01*
X190220057Y-186385771D01*
X191577200Y-186385771D02*
X191434342Y-186314342D01*
X191362914Y-186242914D01*
X191291485Y-186100057D01*
X191291485Y-185671485D01*
X191362914Y-185528628D01*
X191434342Y-185457200D01*
X191577200Y-185385771D01*
X191791485Y-185385771D01*
X191934342Y-185457200D01*
X192005771Y-185528628D01*
X192077200Y-185671485D01*
X192077200Y-186100057D01*
X192005771Y-186242914D01*
X191934342Y-186314342D01*
X191791485Y-186385771D01*
X191577200Y-186385771D01*
X192505771Y-185385771D02*
X193077200Y-185385771D01*
X192720057Y-184885771D02*
X192720057Y-186171485D01*
X192791485Y-186314342D01*
X192934342Y-186385771D01*
X193077200Y-186385771D01*
X193577200Y-186385771D02*
X193577200Y-184885771D01*
X194220057Y-186385771D02*
X194220057Y-185600057D01*
X194148628Y-185457200D01*
X194005771Y-185385771D01*
X193791485Y-185385771D01*
X193648628Y-185457200D01*
X193577200Y-185528628D01*
X194934342Y-186242914D02*
X195005771Y-186314342D01*
X194934342Y-186385771D01*
X194862914Y-186314342D01*
X194934342Y-186242914D01*
X194934342Y-186385771D01*
X195648628Y-186385771D02*
X195648628Y-184885771D01*
X195791485Y-185814342D02*
X196220057Y-186385771D01*
X196220057Y-185385771D02*
X195648628Y-185957200D01*
X196862914Y-186385771D02*
X196862914Y-185385771D01*
X196862914Y-184885771D02*
X196791485Y-184957200D01*
X196862914Y-185028628D01*
X196934342Y-184957200D01*
X196862914Y-184885771D01*
X196862914Y-185028628D01*
X198220057Y-186314342D02*
X198077200Y-186385771D01*
X197791485Y-186385771D01*
X197648628Y-186314342D01*
X197577200Y-186242914D01*
X197505771Y-186100057D01*
X197505771Y-185671485D01*
X197577200Y-185528628D01*
X197648628Y-185457200D01*
X197791485Y-185385771D01*
X198077200Y-185385771D01*
X198220057Y-185457200D01*
X199505771Y-186385771D02*
X199505771Y-185600057D01*
X199434342Y-185457200D01*
X199291485Y-185385771D01*
X199005771Y-185385771D01*
X198862914Y-185457200D01*
X199505771Y-186314342D02*
X199362914Y-186385771D01*
X199005771Y-186385771D01*
X198862914Y-186314342D01*
X198791485Y-186171485D01*
X198791485Y-186028628D01*
X198862914Y-185885771D01*
X199005771Y-185814342D01*
X199362914Y-185814342D01*
X199505771Y-185742914D01*
X200862914Y-186385771D02*
X200862914Y-184885771D01*
X200862914Y-186314342D02*
X200720057Y-186385771D01*
X200434342Y-186385771D01*
X200291485Y-186314342D01*
X200220057Y-186242914D01*
X200148628Y-186100057D01*
X200148628Y-185671485D01*
X200220057Y-185528628D01*
X200291485Y-185457200D01*
X200434342Y-185385771D01*
X200720057Y-185385771D01*
X200862914Y-185457200D01*
X201220057Y-186528628D02*
X202362914Y-186528628D01*
X202720057Y-185385771D02*
X202720057Y-186885771D01*
X202720057Y-185457200D02*
X202862914Y-185385771D01*
X203148628Y-185385771D01*
X203291485Y-185457200D01*
X203362914Y-185528628D01*
X203434342Y-185671485D01*
X203434342Y-186100057D01*
X203362914Y-186242914D01*
X203291485Y-186314342D01*
X203148628Y-186385771D01*
X202862914Y-186385771D01*
X202720057Y-186314342D01*
X204720057Y-186314342D02*
X204577200Y-186385771D01*
X204291485Y-186385771D01*
X204148628Y-186314342D01*
X204077200Y-186242914D01*
X204005771Y-186100057D01*
X204005771Y-185671485D01*
X204077200Y-185528628D01*
X204148628Y-185457200D01*
X204291485Y-185385771D01*
X204577200Y-185385771D01*
X204720057Y-185457200D01*
X205362914Y-186385771D02*
X205362914Y-184885771D01*
X205362914Y-185457200D02*
X205505771Y-185385771D01*
X205791485Y-185385771D01*
X205934342Y-185457200D01*
X206005771Y-185528628D01*
X206077200Y-185671485D01*
X206077200Y-186100057D01*
X206005771Y-186242914D01*
X205934342Y-186314342D01*
X205791485Y-186385771D01*
X205505771Y-186385771D01*
X205362914Y-186314342D01*
D10*
D11*
X177002200Y-181507200D02*
X285002200Y-181507200D01*
D10*
D11*
X178362914Y-183614342D02*
X178577200Y-183685771D01*
X178934342Y-183685771D01*
X179077200Y-183614342D01*
X179148628Y-183542914D01*
X179220057Y-183400057D01*
X179220057Y-183257200D01*
X179148628Y-183114342D01*
X179077200Y-183042914D01*
X178934342Y-182971485D01*
X178648628Y-182900057D01*
X178505771Y-182828628D01*
X178434342Y-182757200D01*
X178362914Y-182614342D01*
X178362914Y-182471485D01*
X178434342Y-182328628D01*
X178505771Y-182257200D01*
X178648628Y-182185771D01*
X179005771Y-182185771D01*
X179220057Y-182257200D01*
X179862914Y-183685771D02*
X179862914Y-182185771D01*
X180505771Y-183685771D02*
X180505771Y-182900057D01*
X180434342Y-182757200D01*
X180291485Y-182685771D01*
X180077200Y-182685771D01*
X179934342Y-182757200D01*
X179862914Y-182828628D01*
X181791485Y-183614342D02*
X181648628Y-183685771D01*
X181362914Y-183685771D01*
X181220057Y-183614342D01*
X181148628Y-183471485D01*
X181148628Y-182900057D01*
X181220057Y-182757200D01*
X181362914Y-182685771D01*
X181648628Y-182685771D01*
X181791485Y-182757200D01*
X181862914Y-182900057D01*
X181862914Y-183042914D01*
X181148628Y-183185771D01*
X183077200Y-183614342D02*
X182934342Y-183685771D01*
X182648628Y-183685771D01*
X182505771Y-183614342D01*
X182434342Y-183471485D01*
X182434342Y-182900057D01*
X182505771Y-182757200D01*
X182648628Y-182685771D01*
X182934342Y-182685771D01*
X183077200Y-182757200D01*
X183148628Y-182900057D01*
X183148628Y-183042914D01*
X182434342Y-183185771D01*
X183577200Y-182685771D02*
X184148628Y-182685771D01*
X183791485Y-182185771D02*
X183791485Y-183471485D01*
X183862914Y-183614342D01*
X184005771Y-183685771D01*
X184148628Y-183685771D01*
X184648628Y-183542914D02*
X184720057Y-183614342D01*
X184648628Y-183685771D01*
X184577200Y-183614342D01*
X184648628Y-183542914D01*
X184648628Y-183685771D01*
X184648628Y-182757200D02*
X184720057Y-182828628D01*
X184648628Y-182900057D01*
X184577200Y-182828628D01*
X184648628Y-182757200D01*
X184648628Y-182900057D01*
D10*
D11*
X197002200Y-191507200D02*
X197002200Y-194507200D01*
D10*
D11*
X261002200Y-191507200D02*
X261002200Y-198007200D01*
D14*
X77146170Y83053050D02*
X76130170Y83053050D01*
X76130170Y83053050D02*
X76130170Y82545050D01*
X76130170Y82545050D02*
X77146170Y82545050D01*
X77146170Y82545050D02*
X77146170Y83053050D01*
X92335530Y90597030D02*
X92335530Y89581030D01*
X92335530Y89581030D02*
X92843530Y89581030D01*
X92843530Y89581030D02*
X92843530Y90597030D01*
X92843530Y90597030D02*
X92335530Y90597030D01*
X89287210Y89581360D02*
X89287210Y90597360D01*
X89287210Y90597360D02*
X88779210Y90597360D01*
X88779210Y90597360D02*
X88779210Y89581360D01*
X88779210Y89581360D02*
X89287210Y89581360D01*
X88043100Y85999450D02*
X88043100Y84983450D01*
X88043100Y84983450D02*
X88551100Y84983450D01*
X88551100Y84983450D02*
X88551100Y85999450D01*
X88551100Y85999450D02*
X88043100Y85999450D01*
X79279770Y87625050D02*
X78263770Y87625050D01*
X78263770Y87625050D02*
X78263770Y87117050D01*
X78263770Y87117050D02*
X79279770Y87117050D01*
X79279770Y87117050D02*
X79279770Y87625050D01*
X81768970Y81656050D02*
X80752970Y81656050D01*
X80752970Y81656050D02*
X80752970Y81148050D01*
X80752970Y81148050D02*
X81768970Y81148050D01*
X81768970Y81148050D02*
X81768970Y81656050D01*
X89896970Y87472650D02*
X88880970Y87472650D01*
X88880970Y87472650D02*
X88880970Y86964650D01*
X88880970Y86964650D02*
X89896970Y86964650D01*
X89896970Y86964650D02*
X89896970Y87472650D01*
X88881300Y87853980D02*
X89897300Y87853980D01*
X89897300Y87853980D02*
X89897300Y88361980D01*
X89897300Y88361980D02*
X88881300Y88361980D01*
X88881300Y88361980D02*
X88881300Y87853980D01*
X88398210Y89581360D02*
X88398210Y90597360D01*
X88398210Y90597360D02*
X87890210Y90597360D01*
X87890210Y90597360D02*
X87890210Y89581360D01*
X87890210Y89581360D02*
X88398210Y89581360D01*
X80519760Y93656330D02*
X81548270Y92430600D01*
X81548270Y92430600D02*
X82207090Y92983410D01*
X82207090Y92983410D02*
X81178580Y94209150D01*
X81178580Y94209150D02*
X80519760Y93656330D01*
X77806900Y86456650D02*
X77806900Y85440650D01*
X77806900Y85440650D02*
X78314900Y85440650D01*
X78314900Y85440650D02*
X78314900Y86456650D01*
X78314900Y86456650D02*
X77806900Y86456650D01*
X89219460Y84683780D02*
X90219530Y84683780D01*
X90219530Y84683780D02*
X90219530Y85283780D01*
X90219530Y85283780D02*
X89219460Y85283780D01*
X89219460Y85283780D02*
X89219460Y84683780D01*
X81370340Y91173580D02*
X81370340Y89573510D01*
X81370340Y89573510D02*
X82320340Y89573510D01*
X82320340Y89573510D02*
X82320340Y91173580D01*
X82320340Y91173580D02*
X81370340Y91173580D01*
X80126650Y92646490D02*
X80769480Y91880390D01*
X80769480Y91880390D02*
X81229120Y92266070D01*
X81229120Y92266070D02*
X80586280Y93032170D01*
X80586280Y93032170D02*
X80126650Y92646490D01*
X81085940Y88511620D02*
X81085940Y82471620D01*
X81085940Y82471620D02*
X87125930Y82471620D01*
X87125930Y82471620D02*
X87125930Y88511620D01*
X87125930Y88511620D02*
X81085940Y88511620D01*
X91511370Y89439200D02*
X91511370Y90739200D01*
X91511370Y90739200D02*
X90111370Y90739200D01*
X90111370Y90739200D02*
X90111370Y89439200D01*
X90111370Y89439200D02*
X91511370Y89439200D01*
X91861180Y90939060D02*
X89761230Y90939060D01*
X89761230Y90939060D02*
X89761230Y89239010D01*
X89761230Y89239010D02*
X91861180Y89239010D01*
X91861180Y89239010D02*
X91861180Y90939060D01*
X77238330Y86310620D02*
X76038330Y86310620D01*
X76038330Y86310620D02*
X76038330Y83910620D01*
X76038330Y83910620D02*
X77238330Y83910620D01*
X77238330Y83910620D02*
X77238330Y86310620D01*
X75888580Y86710450D02*
X75888580Y83510460D01*
X75888580Y83510460D02*
X77388520Y83510460D01*
X77388520Y83510460D02*
X77388520Y86710450D01*
X77388520Y86710450D02*
X75888580Y86710450D01*
X82785300Y91816380D02*
X83801300Y91816380D01*
X83801300Y91816380D02*
X83801300Y92324380D01*
X83801300Y92324380D02*
X82785300Y92324380D01*
X82785300Y92324380D02*
X82785300Y91816380D01*
X79571970Y88842670D02*
X77971900Y88842670D01*
X77971900Y88842670D02*
X77971900Y87982650D01*
X77971900Y87982650D02*
X79571970Y87982650D01*
X79571970Y87982650D02*
X79571970Y88842670D01*
D10*
X77388337Y86510620D02*
G75*
G02X77188340Y86710620I3J200000D01*
G01*
X76088340Y86710617D02*
G75*
G02X75888340Y86510620I-200000J3D01*
G01*
X75888333Y83710620D02*
G75*
G02X76088330Y83510620I-3J-200000D01*
G01*
X77188330Y83510620D02*
G75*
G02X77388330Y83710620I200000J0D01*
G01*
X75738330Y83149220D02*
X77538330Y83149220D01*
X75738330Y82449220D02*
X77538330Y82449220D01*
X75738330Y82449220D02*
X75738330Y83149220D01*
X77538330Y82449220D02*
X77538330Y83149220D01*
X76363330Y82799220D02*
X76913330Y82799220D01*
X76638340Y82524220D02*
X76638340Y83074220D01*
X92239370Y89189200D02*
X92239370Y90989200D01*
X92939370Y89189200D02*
X92939370Y90989200D01*
X92239370Y89189200D02*
X92939370Y89189200D01*
X92239370Y90989200D02*
X92939370Y90989200D01*
X92589370Y89814200D02*
X92589370Y90364200D01*
X92314370Y90089200D02*
X92864370Y90089200D01*
X89383370Y89189200D02*
X89383370Y90989200D01*
X88683370Y89189200D02*
X88683370Y90989200D01*
X88683370Y90989200D02*
X89383370Y90989200D01*
X88683370Y89189200D02*
X89383370Y89189200D01*
X89033370Y89814200D02*
X89033370Y90364200D01*
X88758370Y90089200D02*
X89308370Y90089200D01*
X87946940Y84591620D02*
X87946940Y86391620D01*
X88646930Y84591620D02*
X88646930Y86391620D01*
X87946940Y84591620D02*
X88646930Y84591620D01*
X87946940Y86391620D02*
X88646930Y86391620D01*
X88296940Y85216620D02*
X88296940Y85766620D01*
X88021930Y85491620D02*
X88571940Y85491620D01*
X77871930Y87721220D02*
X79671930Y87721220D01*
X77871930Y87021220D02*
X79671930Y87021220D01*
X77871930Y87021220D02*
X77871930Y87721220D01*
X79671930Y87021220D02*
X79671930Y87721220D01*
X78496930Y87371220D02*
X79046930Y87371220D01*
X78771940Y87096220D02*
X78771940Y87646220D01*
X80361130Y81752220D02*
X82161130Y81752220D01*
X80361130Y81052220D02*
X82161130Y81052220D01*
X80361130Y81052220D02*
X80361130Y81752220D01*
X82161130Y81052220D02*
X82161130Y81752220D01*
X80986130Y81402220D02*
X81536130Y81402220D01*
X81261140Y81127220D02*
X81261140Y81677220D01*
X88489130Y87568820D02*
X90289130Y87568820D01*
X88489130Y86868820D02*
X90289130Y86868820D01*
X88489130Y86868820D02*
X88489130Y87568820D01*
X90289130Y86868820D02*
X90289130Y87568820D01*
X89114130Y87218820D02*
X89664130Y87218820D01*
X89389140Y86943820D02*
X89389140Y87493820D01*
X88489140Y87757820D02*
X90289140Y87757820D01*
X88489140Y88457820D02*
X90289140Y88457820D01*
X90289140Y87757820D02*
X90289140Y88457820D01*
X88489140Y87757820D02*
X88489140Y88457820D01*
X89114140Y88107820D02*
X89664140Y88107820D01*
X89389140Y87832820D02*
X89389140Y88382820D01*
X88494370Y89189200D02*
X88494370Y90989200D01*
X87794370Y89189200D02*
X87794370Y90989200D01*
X87794370Y90989200D02*
X88494370Y90989200D01*
X87794370Y89189200D02*
X88494370Y89189200D01*
X88144370Y89814200D02*
X88144370Y90364200D01*
X87869370Y90089200D02*
X88419370Y90089200D01*
X80225160Y93898610D02*
X80991200Y94541390D01*
X81735710Y92098400D02*
X82501750Y92741190D01*
X80991200Y94541390D02*
X82501750Y92741190D01*
X80225160Y93898610D02*
X81735710Y92098400D01*
X81018730Y93030640D02*
X81708170Y93609150D01*
X81074200Y93664620D02*
X81652710Y92975180D01*
X77710740Y85048820D02*
X77710740Y86848820D01*
X78410730Y85048820D02*
X78410730Y86848820D01*
X77710740Y85048820D02*
X78410730Y85048820D01*
X77710740Y86848820D02*
X78410730Y86848820D01*
X78060740Y85673820D02*
X78060740Y86223820D01*
X77785730Y85948820D02*
X78335740Y85948820D01*
X89719340Y84708620D02*
X89719340Y85258620D01*
X89444330Y84983620D02*
X89994340Y84983620D01*
X88819330Y84633620D02*
X90619340Y84633620D01*
X88819330Y85333620D02*
X90619340Y85333620D01*
X90619340Y84633620D02*
X90619340Y85333620D01*
X88819330Y84633620D02*
X88819330Y85333620D01*
X81345330Y89198580D02*
X81345330Y91548580D01*
X82345330Y89198580D02*
X82345330Y91548580D01*
X81345330Y89198580D02*
X82345330Y89198580D01*
X81345330Y91548580D02*
X82345330Y91548580D01*
X81845340Y89923580D02*
X81845340Y90823580D01*
X81395330Y90373580D02*
X82295330Y90373580D01*
X80466990Y92279530D02*
X80888320Y92633070D01*
X80500890Y92666960D02*
X80854420Y92245640D01*
X79831030Y92920770D02*
X80988050Y91541880D01*
X80367260Y93370710D02*
X81524280Y91991840D01*
X80988050Y91541880D02*
X81524280Y91991840D01*
X79831030Y92920770D02*
X80367260Y93370710D01*
X80505930Y81891620D02*
X80505930Y89091620D01*
X87705940Y81891620D02*
X87705940Y89091620D01*
X80505930Y89091620D02*
X87705940Y89091620D01*
X80505930Y81891620D02*
X87705940Y81891620D01*
X83605940Y85491620D02*
X84605930Y85491620D01*
X84105940Y84991620D02*
X84105940Y85991620D01*
X77388340Y83710620D02*
X77388340Y86510620D01*
X76088330Y86710620D02*
X77188340Y86710620D01*
X75888330Y83710620D02*
X75888330Y86510620D01*
X76088330Y83510620D02*
X77188340Y83510620D01*
X82393140Y91720220D02*
X84193140Y91720220D01*
X82393140Y92420220D02*
X84193140Y92420220D01*
X84193140Y91720220D02*
X84193140Y92420220D01*
X82393140Y91720220D02*
X82393140Y92420220D01*
X83018140Y92070220D02*
X83568140Y92070220D01*
X83293140Y91795220D02*
X83293140Y92345220D01*
X79946930Y87912620D02*
X79946930Y88912620D01*
X77596940Y87912620D02*
X77596940Y88912620D01*
X77596940Y87912620D02*
X79946930Y87912620D01*
X77596940Y88912620D02*
X79946930Y88912620D01*
X78771940Y87962620D02*
X78771940Y88862620D01*
X78321940Y88412620D02*
X79221930Y88412620D01*
M02*
