%TF.GenerationSoftware,KiCad,Pcbnew,5.1.2-f72e74a~84~ubuntu18.04.1*%
%TF.CreationDate,2019-07-21T14:48:09+03:00*%
%TF.ProjectId,bluetooth,626c7565-746f-46f7-9468-2e6b69636164,rev?*%
%TF.SameCoordinates,Original*%
%TF.FileFunction,Other,Fab,Top*%
%FSLAX46Y46*%
G04 Gerber Fmt 4.6, Leading zero omitted, Abs format (unit mm)*
G04 Created by KiCad (PCBNEW 5.1.2-f72e74a~84~ubuntu18.04.1) date 2019-07-21 14:48:09*
%MOMM*%
%LPD*%
G04 APERTURE LIST*
%ADD10C,0.100000*%
%ADD11C,0.150000*%
%ADD12C,0.300000*%
%ADD13C,0.400000*%
%ADD14C,0.010000*%
G04 APERTURE END LIST*
D10*
D11*
X177002200Y-166007200D02*
X177002200Y-198007200D01*
X285002200Y-198007200D01*
X285002200Y-166007200D01*
X177002200Y-166007200D01*
D10*
D11*
X10000000Y-10000000D02*
X10000000Y-200007200D01*
X287002200Y-200007200D01*
X287002200Y-10000000D01*
X10000000Y-10000000D01*
D10*
D11*
X12000000Y-12000000D02*
X12000000Y-198007200D01*
X285002200Y-198007200D01*
X285002200Y-12000000D01*
X12000000Y-12000000D01*
D10*
D11*
X60000000Y-12000000D02*
X60000000Y-10000000D01*
D10*
D11*
X110000000Y-12000000D02*
X110000000Y-10000000D01*
D10*
D11*
X160000000Y-12000000D02*
X160000000Y-10000000D01*
D10*
D11*
X210000000Y-12000000D02*
X210000000Y-10000000D01*
D10*
D11*
X260000000Y-12000000D02*
X260000000Y-10000000D01*
D10*
D11*
X36065476Y-11588095D02*
X35322619Y-11588095D01*
X35694047Y-11588095D02*
X35694047Y-10288095D01*
X35570238Y-10473809D01*
X35446428Y-10597619D01*
X35322619Y-10659523D01*
D10*
D11*
X85322619Y-10411904D02*
X85384523Y-10350000D01*
X85508333Y-10288095D01*
X85817857Y-10288095D01*
X85941666Y-10350000D01*
X86003571Y-10411904D01*
X86065476Y-10535714D01*
X86065476Y-10659523D01*
X86003571Y-10845238D01*
X85260714Y-11588095D01*
X86065476Y-11588095D01*
D10*
D11*
X135260714Y-10288095D02*
X136065476Y-10288095D01*
X135632142Y-10783333D01*
X135817857Y-10783333D01*
X135941666Y-10845238D01*
X136003571Y-10907142D01*
X136065476Y-11030952D01*
X136065476Y-11340476D01*
X136003571Y-11464285D01*
X135941666Y-11526190D01*
X135817857Y-11588095D01*
X135446428Y-11588095D01*
X135322619Y-11526190D01*
X135260714Y-11464285D01*
D10*
D11*
X185941666Y-10721428D02*
X185941666Y-11588095D01*
X185632142Y-10226190D02*
X185322619Y-11154761D01*
X186127380Y-11154761D01*
D10*
D11*
X236003571Y-10288095D02*
X235384523Y-10288095D01*
X235322619Y-10907142D01*
X235384523Y-10845238D01*
X235508333Y-10783333D01*
X235817857Y-10783333D01*
X235941666Y-10845238D01*
X236003571Y-10907142D01*
X236065476Y-11030952D01*
X236065476Y-11340476D01*
X236003571Y-11464285D01*
X235941666Y-11526190D01*
X235817857Y-11588095D01*
X235508333Y-11588095D01*
X235384523Y-11526190D01*
X235322619Y-11464285D01*
D10*
D11*
X285941666Y-10288095D02*
X285694047Y-10288095D01*
X285570238Y-10350000D01*
X285508333Y-10411904D01*
X285384523Y-10597619D01*
X285322619Y-10845238D01*
X285322619Y-11340476D01*
X285384523Y-11464285D01*
X285446428Y-11526190D01*
X285570238Y-11588095D01*
X285817857Y-11588095D01*
X285941666Y-11526190D01*
X286003571Y-11464285D01*
X286065476Y-11340476D01*
X286065476Y-11030952D01*
X286003571Y-10907142D01*
X285941666Y-10845238D01*
X285817857Y-10783333D01*
X285570238Y-10783333D01*
X285446428Y-10845238D01*
X285384523Y-10907142D01*
X285322619Y-11030952D01*
D10*
D11*
X60000000Y-198007200D02*
X60000000Y-200007200D01*
D10*
D11*
X110000000Y-198007200D02*
X110000000Y-200007200D01*
D10*
D11*
X160000000Y-198007200D02*
X160000000Y-200007200D01*
D10*
D11*
X210000000Y-198007200D02*
X210000000Y-200007200D01*
D10*
D11*
X260000000Y-198007200D02*
X260000000Y-200007200D01*
D10*
D11*
X36065476Y-199595295D02*
X35322619Y-199595295D01*
X35694047Y-199595295D02*
X35694047Y-198295295D01*
X35570238Y-198481009D01*
X35446428Y-198604819D01*
X35322619Y-198666723D01*
D10*
D11*
X85322619Y-198419104D02*
X85384523Y-198357200D01*
X85508333Y-198295295D01*
X85817857Y-198295295D01*
X85941666Y-198357200D01*
X86003571Y-198419104D01*
X86065476Y-198542914D01*
X86065476Y-198666723D01*
X86003571Y-198852438D01*
X85260714Y-199595295D01*
X86065476Y-199595295D01*
D10*
D11*
X135260714Y-198295295D02*
X136065476Y-198295295D01*
X135632142Y-198790533D01*
X135817857Y-198790533D01*
X135941666Y-198852438D01*
X136003571Y-198914342D01*
X136065476Y-199038152D01*
X136065476Y-199347676D01*
X136003571Y-199471485D01*
X135941666Y-199533390D01*
X135817857Y-199595295D01*
X135446428Y-199595295D01*
X135322619Y-199533390D01*
X135260714Y-199471485D01*
D10*
D11*
X185941666Y-198728628D02*
X185941666Y-199595295D01*
X185632142Y-198233390D02*
X185322619Y-199161961D01*
X186127380Y-199161961D01*
D10*
D11*
X236003571Y-198295295D02*
X235384523Y-198295295D01*
X235322619Y-198914342D01*
X235384523Y-198852438D01*
X235508333Y-198790533D01*
X235817857Y-198790533D01*
X235941666Y-198852438D01*
X236003571Y-198914342D01*
X236065476Y-199038152D01*
X236065476Y-199347676D01*
X236003571Y-199471485D01*
X235941666Y-199533390D01*
X235817857Y-199595295D01*
X235508333Y-199595295D01*
X235384523Y-199533390D01*
X235322619Y-199471485D01*
D10*
D11*
X285941666Y-198295295D02*
X285694047Y-198295295D01*
X285570238Y-198357200D01*
X285508333Y-198419104D01*
X285384523Y-198604819D01*
X285322619Y-198852438D01*
X285322619Y-199347676D01*
X285384523Y-199471485D01*
X285446428Y-199533390D01*
X285570238Y-199595295D01*
X285817857Y-199595295D01*
X285941666Y-199533390D01*
X286003571Y-199471485D01*
X286065476Y-199347676D01*
X286065476Y-199038152D01*
X286003571Y-198914342D01*
X285941666Y-198852438D01*
X285817857Y-198790533D01*
X285570238Y-198790533D01*
X285446428Y-198852438D01*
X285384523Y-198914342D01*
X285322619Y-199038152D01*
D10*
D11*
X10000000Y-60000000D02*
X12000000Y-60000000D01*
D10*
D11*
X10000000Y-110000000D02*
X12000000Y-110000000D01*
D10*
D11*
X10000000Y-160000000D02*
X12000000Y-160000000D01*
D10*
D11*
X10690476Y-35216666D02*
X11309523Y-35216666D01*
X10566666Y-35588095D02*
X11000000Y-34288095D01*
X11433333Y-35588095D01*
D10*
D11*
X11092857Y-84907142D02*
X11278571Y-84969047D01*
X11340476Y-85030952D01*
X11402380Y-85154761D01*
X11402380Y-85340476D01*
X11340476Y-85464285D01*
X11278571Y-85526190D01*
X11154761Y-85588095D01*
X10659523Y-85588095D01*
X10659523Y-84288095D01*
X11092857Y-84288095D01*
X11216666Y-84350000D01*
X11278571Y-84411904D01*
X11340476Y-84535714D01*
X11340476Y-84659523D01*
X11278571Y-84783333D01*
X11216666Y-84845238D01*
X11092857Y-84907142D01*
X10659523Y-84907142D01*
D10*
D11*
X11402380Y-135464285D02*
X11340476Y-135526190D01*
X11154761Y-135588095D01*
X11030952Y-135588095D01*
X10845238Y-135526190D01*
X10721428Y-135402380D01*
X10659523Y-135278571D01*
X10597619Y-135030952D01*
X10597619Y-134845238D01*
X10659523Y-134597619D01*
X10721428Y-134473809D01*
X10845238Y-134350000D01*
X11030952Y-134288095D01*
X11154761Y-134288095D01*
X11340476Y-134350000D01*
X11402380Y-134411904D01*
D10*
D11*
X10659523Y-185588095D02*
X10659523Y-184288095D01*
X10969047Y-184288095D01*
X11154761Y-184350000D01*
X11278571Y-184473809D01*
X11340476Y-184597619D01*
X11402380Y-184845238D01*
X11402380Y-185030952D01*
X11340476Y-185278571D01*
X11278571Y-185402380D01*
X11154761Y-185526190D01*
X10969047Y-185588095D01*
X10659523Y-185588095D01*
D10*
D11*
X287002200Y-60000000D02*
X285002200Y-60000000D01*
D10*
D11*
X287002200Y-110000000D02*
X285002200Y-110000000D01*
D10*
D11*
X287002200Y-160000000D02*
X285002200Y-160000000D01*
D10*
D11*
X285692676Y-35216666D02*
X286311723Y-35216666D01*
X285568866Y-35588095D02*
X286002200Y-34288095D01*
X286435533Y-35588095D01*
D10*
D11*
X286095057Y-84907142D02*
X286280771Y-84969047D01*
X286342676Y-85030952D01*
X286404580Y-85154761D01*
X286404580Y-85340476D01*
X286342676Y-85464285D01*
X286280771Y-85526190D01*
X286156961Y-85588095D01*
X285661723Y-85588095D01*
X285661723Y-84288095D01*
X286095057Y-84288095D01*
X286218866Y-84350000D01*
X286280771Y-84411904D01*
X286342676Y-84535714D01*
X286342676Y-84659523D01*
X286280771Y-84783333D01*
X286218866Y-84845238D01*
X286095057Y-84907142D01*
X285661723Y-84907142D01*
D10*
D11*
X286404580Y-135464285D02*
X286342676Y-135526190D01*
X286156961Y-135588095D01*
X286033152Y-135588095D01*
X285847438Y-135526190D01*
X285723628Y-135402380D01*
X285661723Y-135278571D01*
X285599819Y-135030952D01*
X285599819Y-134845238D01*
X285661723Y-134597619D01*
X285723628Y-134473809D01*
X285847438Y-134350000D01*
X286033152Y-134288095D01*
X286156961Y-134288095D01*
X286342676Y-134350000D01*
X286404580Y-134411904D01*
D10*
D11*
X285661723Y-185588095D02*
X285661723Y-184288095D01*
X285971247Y-184288095D01*
X286156961Y-184350000D01*
X286280771Y-184473809D01*
X286342676Y-184597619D01*
X286404580Y-184845238D01*
X286404580Y-185030952D01*
X286342676Y-185278571D01*
X286280771Y-185402380D01*
X286156961Y-185526190D01*
X285971247Y-185588095D01*
X285661723Y-185588095D01*
D10*
D11*
X200434342Y-193785771D02*
X200434342Y-192285771D01*
X200791485Y-192285771D01*
X201005771Y-192357200D01*
X201148628Y-192500057D01*
X201220057Y-192642914D01*
X201291485Y-192928628D01*
X201291485Y-193142914D01*
X201220057Y-193428628D01*
X201148628Y-193571485D01*
X201005771Y-193714342D01*
X200791485Y-193785771D01*
X200434342Y-193785771D01*
X202577200Y-193785771D02*
X202577200Y-193000057D01*
X202505771Y-192857200D01*
X202362914Y-192785771D01*
X202077200Y-192785771D01*
X201934342Y-192857200D01*
X202577200Y-193714342D02*
X202434342Y-193785771D01*
X202077200Y-193785771D01*
X201934342Y-193714342D01*
X201862914Y-193571485D01*
X201862914Y-193428628D01*
X201934342Y-193285771D01*
X202077200Y-193214342D01*
X202434342Y-193214342D01*
X202577200Y-193142914D01*
X203077200Y-192785771D02*
X203648628Y-192785771D01*
X203291485Y-192285771D02*
X203291485Y-193571485D01*
X203362914Y-193714342D01*
X203505771Y-193785771D01*
X203648628Y-193785771D01*
X204720057Y-193714342D02*
X204577200Y-193785771D01*
X204291485Y-193785771D01*
X204148628Y-193714342D01*
X204077200Y-193571485D01*
X204077200Y-193000057D01*
X204148628Y-192857200D01*
X204291485Y-192785771D01*
X204577200Y-192785771D01*
X204720057Y-192857200D01*
X204791485Y-193000057D01*
X204791485Y-193142914D01*
X204077200Y-193285771D01*
X205434342Y-193642914D02*
X205505771Y-193714342D01*
X205434342Y-193785771D01*
X205362914Y-193714342D01*
X205434342Y-193642914D01*
X205434342Y-193785771D01*
X205434342Y-192857200D02*
X205505771Y-192928628D01*
X205434342Y-193000057D01*
X205362914Y-192928628D01*
X205434342Y-192857200D01*
X205434342Y-193000057D01*
D10*
D11*
X177002200Y-194507200D02*
X285002200Y-194507200D01*
D10*
D11*
X178434342Y-196585771D02*
X178434342Y-195085771D01*
X179291485Y-196585771D02*
X178648628Y-195728628D01*
X179291485Y-195085771D02*
X178434342Y-195942914D01*
X179934342Y-196585771D02*
X179934342Y-195585771D01*
X179934342Y-195085771D02*
X179862914Y-195157200D01*
X179934342Y-195228628D01*
X180005771Y-195157200D01*
X179934342Y-195085771D01*
X179934342Y-195228628D01*
X181505771Y-196442914D02*
X181434342Y-196514342D01*
X181220057Y-196585771D01*
X181077200Y-196585771D01*
X180862914Y-196514342D01*
X180720057Y-196371485D01*
X180648628Y-196228628D01*
X180577200Y-195942914D01*
X180577200Y-195728628D01*
X180648628Y-195442914D01*
X180720057Y-195300057D01*
X180862914Y-195157200D01*
X181077200Y-195085771D01*
X181220057Y-195085771D01*
X181434342Y-195157200D01*
X181505771Y-195228628D01*
X182791485Y-196585771D02*
X182791485Y-195800057D01*
X182720057Y-195657200D01*
X182577200Y-195585771D01*
X182291485Y-195585771D01*
X182148628Y-195657200D01*
X182791485Y-196514342D02*
X182648628Y-196585771D01*
X182291485Y-196585771D01*
X182148628Y-196514342D01*
X182077200Y-196371485D01*
X182077200Y-196228628D01*
X182148628Y-196085771D01*
X182291485Y-196014342D01*
X182648628Y-196014342D01*
X182791485Y-195942914D01*
X184148628Y-196585771D02*
X184148628Y-195085771D01*
X184148628Y-196514342D02*
X184005771Y-196585771D01*
X183720057Y-196585771D01*
X183577200Y-196514342D01*
X183505771Y-196442914D01*
X183434342Y-196300057D01*
X183434342Y-195871485D01*
X183505771Y-195728628D01*
X183577200Y-195657200D01*
X183720057Y-195585771D01*
X184005771Y-195585771D01*
X184148628Y-195657200D01*
X186005771Y-195800057D02*
X186505771Y-195800057D01*
X186720057Y-196585771D02*
X186005771Y-196585771D01*
X186005771Y-195085771D01*
X186720057Y-195085771D01*
X187362914Y-196442914D02*
X187434342Y-196514342D01*
X187362914Y-196585771D01*
X187291485Y-196514342D01*
X187362914Y-196442914D01*
X187362914Y-196585771D01*
X188077200Y-196585771D02*
X188077200Y-195085771D01*
X188434342Y-195085771D01*
X188648628Y-195157200D01*
X188791485Y-195300057D01*
X188862914Y-195442914D01*
X188934342Y-195728628D01*
X188934342Y-195942914D01*
X188862914Y-196228628D01*
X188791485Y-196371485D01*
X188648628Y-196514342D01*
X188434342Y-196585771D01*
X188077200Y-196585771D01*
X189577200Y-196442914D02*
X189648628Y-196514342D01*
X189577200Y-196585771D01*
X189505771Y-196514342D01*
X189577200Y-196442914D01*
X189577200Y-196585771D01*
X190220057Y-196157200D02*
X190934342Y-196157200D01*
X190077200Y-196585771D02*
X190577200Y-195085771D01*
X191077200Y-196585771D01*
X191577200Y-196442914D02*
X191648628Y-196514342D01*
X191577200Y-196585771D01*
X191505771Y-196514342D01*
X191577200Y-196442914D01*
X191577200Y-196585771D01*
X194577200Y-196585771D02*
X194577200Y-195085771D01*
X194720057Y-196014342D02*
X195148628Y-196585771D01*
X195148628Y-195585771D02*
X194577200Y-196157200D01*
X195791485Y-196585771D02*
X195791485Y-195585771D01*
X195791485Y-195085771D02*
X195720057Y-195157200D01*
X195791485Y-195228628D01*
X195862914Y-195157200D01*
X195791485Y-195085771D01*
X195791485Y-195228628D01*
X197148628Y-196514342D02*
X197005771Y-196585771D01*
X196720057Y-196585771D01*
X196577200Y-196514342D01*
X196505771Y-196442914D01*
X196434342Y-196300057D01*
X196434342Y-195871485D01*
X196505771Y-195728628D01*
X196577200Y-195657200D01*
X196720057Y-195585771D01*
X197005771Y-195585771D01*
X197148628Y-195657200D01*
X198434342Y-196585771D02*
X198434342Y-195800057D01*
X198362914Y-195657200D01*
X198220057Y-195585771D01*
X197934342Y-195585771D01*
X197791485Y-195657200D01*
X198434342Y-196514342D02*
X198291485Y-196585771D01*
X197934342Y-196585771D01*
X197791485Y-196514342D01*
X197720057Y-196371485D01*
X197720057Y-196228628D01*
X197791485Y-196085771D01*
X197934342Y-196014342D01*
X198291485Y-196014342D01*
X198434342Y-195942914D01*
X199791485Y-196585771D02*
X199791485Y-195085771D01*
X199791485Y-196514342D02*
X199648628Y-196585771D01*
X199362914Y-196585771D01*
X199220057Y-196514342D01*
X199148628Y-196442914D01*
X199077200Y-196300057D01*
X199077200Y-195871485D01*
X199148628Y-195728628D01*
X199220057Y-195657200D01*
X199362914Y-195585771D01*
X199648628Y-195585771D01*
X199791485Y-195657200D01*
X202362914Y-195085771D02*
X201648628Y-195085771D01*
X201577200Y-195800057D01*
X201648628Y-195728628D01*
X201791485Y-195657200D01*
X202148628Y-195657200D01*
X202291485Y-195728628D01*
X202362914Y-195800057D01*
X202434342Y-195942914D01*
X202434342Y-196300057D01*
X202362914Y-196442914D01*
X202291485Y-196514342D01*
X202148628Y-196585771D01*
X201791485Y-196585771D01*
X201648628Y-196514342D01*
X201577200Y-196442914D01*
X203077200Y-196442914D02*
X203148628Y-196514342D01*
X203077200Y-196585771D01*
X203005771Y-196514342D01*
X203077200Y-196442914D01*
X203077200Y-196585771D01*
X204577200Y-196585771D02*
X203720057Y-196585771D01*
X204148628Y-196585771D02*
X204148628Y-195085771D01*
X204005771Y-195300057D01*
X203862914Y-195442914D01*
X203720057Y-195514342D01*
X205220057Y-196442914D02*
X205291485Y-196514342D01*
X205220057Y-196585771D01*
X205148628Y-196514342D01*
X205220057Y-196442914D01*
X205220057Y-196585771D01*
X205862914Y-195228628D02*
X205934342Y-195157200D01*
X206077200Y-195085771D01*
X206434342Y-195085771D01*
X206577200Y-195157200D01*
X206648628Y-195228628D01*
X206720057Y-195371485D01*
X206720057Y-195514342D01*
X206648628Y-195728628D01*
X205791485Y-196585771D01*
X206720057Y-196585771D01*
X207362914Y-196014342D02*
X208505771Y-196014342D01*
X209005771Y-195585771D02*
X209577200Y-195585771D01*
X209220057Y-196585771D02*
X209220057Y-195300057D01*
X209291485Y-195157200D01*
X209434342Y-195085771D01*
X209577200Y-195085771D01*
X209934342Y-195085771D02*
X210934342Y-195085771D01*
X210291485Y-196585771D01*
X211434342Y-195228628D02*
X211505771Y-195157200D01*
X211648628Y-195085771D01*
X212005771Y-195085771D01*
X212148628Y-195157200D01*
X212220057Y-195228628D01*
X212291485Y-195371485D01*
X212291485Y-195514342D01*
X212220057Y-195728628D01*
X211362914Y-196585771D01*
X212291485Y-196585771D01*
X213505771Y-196514342D02*
X213362914Y-196585771D01*
X213077200Y-196585771D01*
X212934342Y-196514342D01*
X212862914Y-196371485D01*
X212862914Y-195800057D01*
X212934342Y-195657200D01*
X213077200Y-195585771D01*
X213362914Y-195585771D01*
X213505771Y-195657200D01*
X213577200Y-195800057D01*
X213577200Y-195942914D01*
X212862914Y-196085771D01*
X214077200Y-195085771D02*
X215077200Y-195085771D01*
X214434342Y-196585771D01*
X216291485Y-195585771D02*
X216291485Y-196585771D01*
X215934342Y-195014342D02*
X215577200Y-196085771D01*
X216505771Y-196085771D01*
X217720057Y-196585771D02*
X217720057Y-195800057D01*
X217648628Y-195657200D01*
X217505771Y-195585771D01*
X217220057Y-195585771D01*
X217077200Y-195657200D01*
X217720057Y-196514342D02*
X217577200Y-196585771D01*
X217220057Y-196585771D01*
X217077200Y-196514342D01*
X217005771Y-196371485D01*
X217005771Y-196228628D01*
X217077200Y-196085771D01*
X217220057Y-196014342D01*
X217577200Y-196014342D01*
X217720057Y-195942914D01*
X218077200Y-194677200D02*
X219505771Y-194677200D01*
X218648628Y-195728628D02*
X218505771Y-195657200D01*
X218434342Y-195585771D01*
X218362914Y-195442914D01*
X218362914Y-195371485D01*
X218434342Y-195228628D01*
X218505771Y-195157200D01*
X218648628Y-195085771D01*
X218934342Y-195085771D01*
X219077200Y-195157200D01*
X219148628Y-195228628D01*
X219220057Y-195371485D01*
X219220057Y-195442914D01*
X219148628Y-195585771D01*
X219077200Y-195657200D01*
X218934342Y-195728628D01*
X218648628Y-195728628D01*
X218505771Y-195800057D01*
X218434342Y-195871485D01*
X218362914Y-196014342D01*
X218362914Y-196300057D01*
X218434342Y-196442914D01*
X218505771Y-196514342D01*
X218648628Y-196585771D01*
X218934342Y-196585771D01*
X219077200Y-196514342D01*
X219148628Y-196442914D01*
X219220057Y-196300057D01*
X219220057Y-196014342D01*
X219148628Y-195871485D01*
X219077200Y-195800057D01*
X218934342Y-195728628D01*
X219505771Y-194677200D02*
X220934342Y-194677200D01*
X220505771Y-195585771D02*
X220505771Y-196585771D01*
X220148628Y-195014342D02*
X219791485Y-196085771D01*
X220720057Y-196085771D01*
X221934342Y-195585771D02*
X221934342Y-196585771D01*
X221291485Y-195585771D02*
X221291485Y-196371485D01*
X221362914Y-196514342D01*
X221505771Y-196585771D01*
X221720057Y-196585771D01*
X221862914Y-196514342D01*
X221934342Y-196442914D01*
X222648628Y-196585771D02*
X222648628Y-195085771D01*
X222648628Y-195657200D02*
X222791485Y-195585771D01*
X223077200Y-195585771D01*
X223220057Y-195657200D01*
X223291485Y-195728628D01*
X223362914Y-195871485D01*
X223362914Y-196300057D01*
X223291485Y-196442914D01*
X223220057Y-196514342D01*
X223077200Y-196585771D01*
X222791485Y-196585771D01*
X222648628Y-196514342D01*
X224648628Y-195585771D02*
X224648628Y-196585771D01*
X224005771Y-195585771D02*
X224005771Y-196371485D01*
X224077200Y-196514342D01*
X224220057Y-196585771D01*
X224434342Y-196585771D01*
X224577200Y-196514342D01*
X224648628Y-196442914D01*
X225362914Y-195585771D02*
X225362914Y-196585771D01*
X225362914Y-195728628D02*
X225434342Y-195657200D01*
X225577200Y-195585771D01*
X225791485Y-195585771D01*
X225934342Y-195657200D01*
X226005771Y-195800057D01*
X226005771Y-196585771D01*
X226505771Y-195585771D02*
X227077200Y-195585771D01*
X226720057Y-195085771D02*
X226720057Y-196371485D01*
X226791485Y-196514342D01*
X226934342Y-196585771D01*
X227077200Y-196585771D01*
X228220057Y-195585771D02*
X228220057Y-196585771D01*
X227577200Y-195585771D02*
X227577200Y-196371485D01*
X227648628Y-196514342D01*
X227791485Y-196585771D01*
X228005771Y-196585771D01*
X228148628Y-196514342D01*
X228220057Y-196442914D01*
X229720057Y-196585771D02*
X228862914Y-196585771D01*
X229291485Y-196585771D02*
X229291485Y-195085771D01*
X229148628Y-195300057D01*
X229005771Y-195442914D01*
X228862914Y-195514342D01*
X230577200Y-195728628D02*
X230434342Y-195657200D01*
X230362914Y-195585771D01*
X230291485Y-195442914D01*
X230291485Y-195371485D01*
X230362914Y-195228628D01*
X230434342Y-195157200D01*
X230577200Y-195085771D01*
X230862914Y-195085771D01*
X231005771Y-195157200D01*
X231077200Y-195228628D01*
X231148628Y-195371485D01*
X231148628Y-195442914D01*
X231077200Y-195585771D01*
X231005771Y-195657200D01*
X230862914Y-195728628D01*
X230577200Y-195728628D01*
X230434342Y-195800057D01*
X230362914Y-195871485D01*
X230291485Y-196014342D01*
X230291485Y-196300057D01*
X230362914Y-196442914D01*
X230434342Y-196514342D01*
X230577200Y-196585771D01*
X230862914Y-196585771D01*
X231005771Y-196514342D01*
X231077200Y-196442914D01*
X231148628Y-196300057D01*
X231148628Y-196014342D01*
X231077200Y-195871485D01*
X231005771Y-195800057D01*
X230862914Y-195728628D01*
X231791485Y-196442914D02*
X231862914Y-196514342D01*
X231791485Y-196585771D01*
X231720057Y-196514342D01*
X231791485Y-196442914D01*
X231791485Y-196585771D01*
X232791485Y-195085771D02*
X232934342Y-195085771D01*
X233077200Y-195157200D01*
X233148628Y-195228628D01*
X233220057Y-195371485D01*
X233291485Y-195657200D01*
X233291485Y-196014342D01*
X233220057Y-196300057D01*
X233148628Y-196442914D01*
X233077200Y-196514342D01*
X232934342Y-196585771D01*
X232791485Y-196585771D01*
X232648628Y-196514342D01*
X232577200Y-196442914D01*
X232505771Y-196300057D01*
X232434342Y-196014342D01*
X232434342Y-195657200D01*
X232505771Y-195371485D01*
X232577200Y-195228628D01*
X232648628Y-195157200D01*
X232791485Y-195085771D01*
X234577200Y-195585771D02*
X234577200Y-196585771D01*
X234220057Y-195014342D02*
X233862914Y-196085771D01*
X234791485Y-196085771D01*
X235362914Y-196442914D02*
X235434342Y-196514342D01*
X235362914Y-196585771D01*
X235291485Y-196514342D01*
X235362914Y-196442914D01*
X235362914Y-196585771D01*
X236862914Y-196585771D02*
X236005771Y-196585771D01*
X236434342Y-196585771D02*
X236434342Y-195085771D01*
X236291485Y-195300057D01*
X236148628Y-195442914D01*
X236005771Y-195514342D01*
D10*
D11*
X177002200Y-191507200D02*
X285002200Y-191507200D01*
D10*
D12*
X264411485Y-193785771D02*
X263911485Y-193071485D01*
X263554342Y-193785771D02*
X263554342Y-192285771D01*
X264125771Y-192285771D01*
X264268628Y-192357200D01*
X264340057Y-192428628D01*
X264411485Y-192571485D01*
X264411485Y-192785771D01*
X264340057Y-192928628D01*
X264268628Y-193000057D01*
X264125771Y-193071485D01*
X263554342Y-193071485D01*
X265625771Y-193714342D02*
X265482914Y-193785771D01*
X265197200Y-193785771D01*
X265054342Y-193714342D01*
X264982914Y-193571485D01*
X264982914Y-193000057D01*
X265054342Y-192857200D01*
X265197200Y-192785771D01*
X265482914Y-192785771D01*
X265625771Y-192857200D01*
X265697200Y-193000057D01*
X265697200Y-193142914D01*
X264982914Y-193285771D01*
X266197200Y-192785771D02*
X266554342Y-193785771D01*
X266911485Y-192785771D01*
X267482914Y-193642914D02*
X267554342Y-193714342D01*
X267482914Y-193785771D01*
X267411485Y-193714342D01*
X267482914Y-193642914D01*
X267482914Y-193785771D01*
X267482914Y-192857200D02*
X267554342Y-192928628D01*
X267482914Y-193000057D01*
X267411485Y-192928628D01*
X267482914Y-192857200D01*
X267482914Y-193000057D01*
D10*
D11*
X178362914Y-193714342D02*
X178577200Y-193785771D01*
X178934342Y-193785771D01*
X179077200Y-193714342D01*
X179148628Y-193642914D01*
X179220057Y-193500057D01*
X179220057Y-193357200D01*
X179148628Y-193214342D01*
X179077200Y-193142914D01*
X178934342Y-193071485D01*
X178648628Y-193000057D01*
X178505771Y-192928628D01*
X178434342Y-192857200D01*
X178362914Y-192714342D01*
X178362914Y-192571485D01*
X178434342Y-192428628D01*
X178505771Y-192357200D01*
X178648628Y-192285771D01*
X179005771Y-192285771D01*
X179220057Y-192357200D01*
X179862914Y-193785771D02*
X179862914Y-192785771D01*
X179862914Y-192285771D02*
X179791485Y-192357200D01*
X179862914Y-192428628D01*
X179934342Y-192357200D01*
X179862914Y-192285771D01*
X179862914Y-192428628D01*
X180434342Y-192785771D02*
X181220057Y-192785771D01*
X180434342Y-193785771D01*
X181220057Y-193785771D01*
X182362914Y-193714342D02*
X182220057Y-193785771D01*
X181934342Y-193785771D01*
X181791485Y-193714342D01*
X181720057Y-193571485D01*
X181720057Y-193000057D01*
X181791485Y-192857200D01*
X181934342Y-192785771D01*
X182220057Y-192785771D01*
X182362914Y-192857200D01*
X182434342Y-193000057D01*
X182434342Y-193142914D01*
X181720057Y-193285771D01*
X183077200Y-193642914D02*
X183148628Y-193714342D01*
X183077200Y-193785771D01*
X183005771Y-193714342D01*
X183077200Y-193642914D01*
X183077200Y-193785771D01*
X183077200Y-192857200D02*
X183148628Y-192928628D01*
X183077200Y-193000057D01*
X183005771Y-192928628D01*
X183077200Y-192857200D01*
X183077200Y-193000057D01*
X184862914Y-193357200D02*
X185577200Y-193357200D01*
X184720057Y-193785771D02*
X185220057Y-192285771D01*
X185720057Y-193785771D01*
X186862914Y-192785771D02*
X186862914Y-193785771D01*
X186505771Y-192214342D02*
X186148628Y-193285771D01*
X187077200Y-193285771D01*
D10*
D11*
X263434342Y-196585771D02*
X263434342Y-195085771D01*
X264791485Y-196585771D02*
X264791485Y-195085771D01*
X264791485Y-196514342D02*
X264648628Y-196585771D01*
X264362914Y-196585771D01*
X264220057Y-196514342D01*
X264148628Y-196442914D01*
X264077200Y-196300057D01*
X264077200Y-195871485D01*
X264148628Y-195728628D01*
X264220057Y-195657200D01*
X264362914Y-195585771D01*
X264648628Y-195585771D01*
X264791485Y-195657200D01*
X265505771Y-196442914D02*
X265577200Y-196514342D01*
X265505771Y-196585771D01*
X265434342Y-196514342D01*
X265505771Y-196442914D01*
X265505771Y-196585771D01*
X265505771Y-195657200D02*
X265577200Y-195728628D01*
X265505771Y-195800057D01*
X265434342Y-195728628D01*
X265505771Y-195657200D01*
X265505771Y-195800057D01*
X268148628Y-196585771D02*
X267291485Y-196585771D01*
X267720057Y-196585771D02*
X267720057Y-195085771D01*
X267577200Y-195300057D01*
X267434342Y-195442914D01*
X267291485Y-195514342D01*
X269862914Y-195014342D02*
X268577200Y-196942914D01*
X271148628Y-196585771D02*
X270291485Y-196585771D01*
X270720057Y-196585771D02*
X270720057Y-195085771D01*
X270577200Y-195300057D01*
X270434342Y-195442914D01*
X270291485Y-195514342D01*
D10*
D11*
X177002200Y-187507200D02*
X285002200Y-187507200D01*
D10*
D13*
X178714580Y-188211961D02*
X179857438Y-188211961D01*
X179036009Y-190211961D02*
X179286009Y-188211961D01*
X180274104Y-190211961D02*
X180440771Y-188878628D01*
X180524104Y-188211961D02*
X180416961Y-188307200D01*
X180500295Y-188402438D01*
X180607438Y-188307200D01*
X180524104Y-188211961D01*
X180500295Y-188402438D01*
X181107438Y-188878628D02*
X181869342Y-188878628D01*
X181476485Y-188211961D02*
X181262200Y-189926247D01*
X181333628Y-190116723D01*
X181512200Y-190211961D01*
X181702676Y-190211961D01*
X182655057Y-190211961D02*
X182476485Y-190116723D01*
X182405057Y-189926247D01*
X182619342Y-188211961D01*
X184190771Y-190116723D02*
X183988390Y-190211961D01*
X183607438Y-190211961D01*
X183428866Y-190116723D01*
X183357438Y-189926247D01*
X183452676Y-189164342D01*
X183571723Y-188973866D01*
X183774104Y-188878628D01*
X184155057Y-188878628D01*
X184333628Y-188973866D01*
X184405057Y-189164342D01*
X184381247Y-189354819D01*
X183405057Y-189545295D01*
X185155057Y-190021485D02*
X185238390Y-190116723D01*
X185131247Y-190211961D01*
X185047914Y-190116723D01*
X185155057Y-190021485D01*
X185131247Y-190211961D01*
X185286009Y-188973866D02*
X185369342Y-189069104D01*
X185262200Y-189164342D01*
X185178866Y-189069104D01*
X185286009Y-188973866D01*
X185262200Y-189164342D01*
D10*
D11*
X178934342Y-185600057D02*
X178434342Y-185600057D01*
X178434342Y-186385771D02*
X178434342Y-184885771D01*
X179148628Y-184885771D01*
X179720057Y-186385771D02*
X179720057Y-185385771D01*
X179720057Y-184885771D02*
X179648628Y-184957200D01*
X179720057Y-185028628D01*
X179791485Y-184957200D01*
X179720057Y-184885771D01*
X179720057Y-185028628D01*
X180648628Y-186385771D02*
X180505771Y-186314342D01*
X180434342Y-186171485D01*
X180434342Y-184885771D01*
X181791485Y-186314342D02*
X181648628Y-186385771D01*
X181362914Y-186385771D01*
X181220057Y-186314342D01*
X181148628Y-186171485D01*
X181148628Y-185600057D01*
X181220057Y-185457200D01*
X181362914Y-185385771D01*
X181648628Y-185385771D01*
X181791485Y-185457200D01*
X181862914Y-185600057D01*
X181862914Y-185742914D01*
X181148628Y-185885771D01*
X182505771Y-186242914D02*
X182577200Y-186314342D01*
X182505771Y-186385771D01*
X182434342Y-186314342D01*
X182505771Y-186242914D01*
X182505771Y-186385771D01*
X182505771Y-185457200D02*
X182577200Y-185528628D01*
X182505771Y-185600057D01*
X182434342Y-185528628D01*
X182505771Y-185457200D01*
X182505771Y-185600057D01*
X184362914Y-186385771D02*
X184362914Y-184885771D01*
X184362914Y-185457200D02*
X184505771Y-185385771D01*
X184791485Y-185385771D01*
X184934342Y-185457200D01*
X185005771Y-185528628D01*
X185077200Y-185671485D01*
X185077200Y-186100057D01*
X185005771Y-186242914D01*
X184934342Y-186314342D01*
X184791485Y-186385771D01*
X184505771Y-186385771D01*
X184362914Y-186314342D01*
X185934342Y-186385771D02*
X185791485Y-186314342D01*
X185720057Y-186171485D01*
X185720057Y-184885771D01*
X187148628Y-185385771D02*
X187148628Y-186385771D01*
X186505771Y-185385771D02*
X186505771Y-186171485D01*
X186577200Y-186314342D01*
X186720057Y-186385771D01*
X186934342Y-186385771D01*
X187077200Y-186314342D01*
X187148628Y-186242914D01*
X188434342Y-186314342D02*
X188291485Y-186385771D01*
X188005771Y-186385771D01*
X187862914Y-186314342D01*
X187791485Y-186171485D01*
X187791485Y-185600057D01*
X187862914Y-185457200D01*
X188005771Y-185385771D01*
X188291485Y-185385771D01*
X188434342Y-185457200D01*
X188505771Y-185600057D01*
X188505771Y-185742914D01*
X187791485Y-185885771D01*
X188934342Y-185385771D02*
X189505771Y-185385771D01*
X189148628Y-184885771D02*
X189148628Y-186171485D01*
X189220057Y-186314342D01*
X189362914Y-186385771D01*
X189505771Y-186385771D01*
X190220057Y-186385771D02*
X190077200Y-186314342D01*
X190005771Y-186242914D01*
X189934342Y-186100057D01*
X189934342Y-185671485D01*
X190005771Y-185528628D01*
X190077200Y-185457200D01*
X190220057Y-185385771D01*
X190434342Y-185385771D01*
X190577200Y-185457200D01*
X190648628Y-185528628D01*
X190720057Y-185671485D01*
X190720057Y-186100057D01*
X190648628Y-186242914D01*
X190577200Y-186314342D01*
X190434342Y-186385771D01*
X190220057Y-186385771D01*
X191577200Y-186385771D02*
X191434342Y-186314342D01*
X191362914Y-186242914D01*
X191291485Y-186100057D01*
X191291485Y-185671485D01*
X191362914Y-185528628D01*
X191434342Y-185457200D01*
X191577200Y-185385771D01*
X191791485Y-185385771D01*
X191934342Y-185457200D01*
X192005771Y-185528628D01*
X192077200Y-185671485D01*
X192077200Y-186100057D01*
X192005771Y-186242914D01*
X191934342Y-186314342D01*
X191791485Y-186385771D01*
X191577200Y-186385771D01*
X192505771Y-185385771D02*
X193077200Y-185385771D01*
X192720057Y-184885771D02*
X192720057Y-186171485D01*
X192791485Y-186314342D01*
X192934342Y-186385771D01*
X193077200Y-186385771D01*
X193577200Y-186385771D02*
X193577200Y-184885771D01*
X194220057Y-186385771D02*
X194220057Y-185600057D01*
X194148628Y-185457200D01*
X194005771Y-185385771D01*
X193791485Y-185385771D01*
X193648628Y-185457200D01*
X193577200Y-185528628D01*
X194934342Y-186242914D02*
X195005771Y-186314342D01*
X194934342Y-186385771D01*
X194862914Y-186314342D01*
X194934342Y-186242914D01*
X194934342Y-186385771D01*
X195648628Y-186385771D02*
X195648628Y-184885771D01*
X195791485Y-185814342D02*
X196220057Y-186385771D01*
X196220057Y-185385771D02*
X195648628Y-185957200D01*
X196862914Y-186385771D02*
X196862914Y-185385771D01*
X196862914Y-184885771D02*
X196791485Y-184957200D01*
X196862914Y-185028628D01*
X196934342Y-184957200D01*
X196862914Y-184885771D01*
X196862914Y-185028628D01*
X198220057Y-186314342D02*
X198077200Y-186385771D01*
X197791485Y-186385771D01*
X197648628Y-186314342D01*
X197577200Y-186242914D01*
X197505771Y-186100057D01*
X197505771Y-185671485D01*
X197577200Y-185528628D01*
X197648628Y-185457200D01*
X197791485Y-185385771D01*
X198077200Y-185385771D01*
X198220057Y-185457200D01*
X199505771Y-186385771D02*
X199505771Y-185600057D01*
X199434342Y-185457200D01*
X199291485Y-185385771D01*
X199005771Y-185385771D01*
X198862914Y-185457200D01*
X199505771Y-186314342D02*
X199362914Y-186385771D01*
X199005771Y-186385771D01*
X198862914Y-186314342D01*
X198791485Y-186171485D01*
X198791485Y-186028628D01*
X198862914Y-185885771D01*
X199005771Y-185814342D01*
X199362914Y-185814342D01*
X199505771Y-185742914D01*
X200862914Y-186385771D02*
X200862914Y-184885771D01*
X200862914Y-186314342D02*
X200720057Y-186385771D01*
X200434342Y-186385771D01*
X200291485Y-186314342D01*
X200220057Y-186242914D01*
X200148628Y-186100057D01*
X200148628Y-185671485D01*
X200220057Y-185528628D01*
X200291485Y-185457200D01*
X200434342Y-185385771D01*
X200720057Y-185385771D01*
X200862914Y-185457200D01*
X201220057Y-186528628D02*
X202362914Y-186528628D01*
X202720057Y-185385771D02*
X202720057Y-186885771D01*
X202720057Y-185457200D02*
X202862914Y-185385771D01*
X203148628Y-185385771D01*
X203291485Y-185457200D01*
X203362914Y-185528628D01*
X203434342Y-185671485D01*
X203434342Y-186100057D01*
X203362914Y-186242914D01*
X203291485Y-186314342D01*
X203148628Y-186385771D01*
X202862914Y-186385771D01*
X202720057Y-186314342D01*
X204720057Y-186314342D02*
X204577200Y-186385771D01*
X204291485Y-186385771D01*
X204148628Y-186314342D01*
X204077200Y-186242914D01*
X204005771Y-186100057D01*
X204005771Y-185671485D01*
X204077200Y-185528628D01*
X204148628Y-185457200D01*
X204291485Y-185385771D01*
X204577200Y-185385771D01*
X204720057Y-185457200D01*
X205362914Y-186385771D02*
X205362914Y-184885771D01*
X205362914Y-185457200D02*
X205505771Y-185385771D01*
X205791485Y-185385771D01*
X205934342Y-185457200D01*
X206005771Y-185528628D01*
X206077200Y-185671485D01*
X206077200Y-186100057D01*
X206005771Y-186242914D01*
X205934342Y-186314342D01*
X205791485Y-186385771D01*
X205505771Y-186385771D01*
X205362914Y-186314342D01*
D10*
D11*
X177002200Y-181507200D02*
X285002200Y-181507200D01*
D10*
D11*
X178362914Y-183614342D02*
X178577200Y-183685771D01*
X178934342Y-183685771D01*
X179077200Y-183614342D01*
X179148628Y-183542914D01*
X179220057Y-183400057D01*
X179220057Y-183257200D01*
X179148628Y-183114342D01*
X179077200Y-183042914D01*
X178934342Y-182971485D01*
X178648628Y-182900057D01*
X178505771Y-182828628D01*
X178434342Y-182757200D01*
X178362914Y-182614342D01*
X178362914Y-182471485D01*
X178434342Y-182328628D01*
X178505771Y-182257200D01*
X178648628Y-182185771D01*
X179005771Y-182185771D01*
X179220057Y-182257200D01*
X179862914Y-183685771D02*
X179862914Y-182185771D01*
X180505771Y-183685771D02*
X180505771Y-182900057D01*
X180434342Y-182757200D01*
X180291485Y-182685771D01*
X180077200Y-182685771D01*
X179934342Y-182757200D01*
X179862914Y-182828628D01*
X181791485Y-183614342D02*
X181648628Y-183685771D01*
X181362914Y-183685771D01*
X181220057Y-183614342D01*
X181148628Y-183471485D01*
X181148628Y-182900057D01*
X181220057Y-182757200D01*
X181362914Y-182685771D01*
X181648628Y-182685771D01*
X181791485Y-182757200D01*
X181862914Y-182900057D01*
X181862914Y-183042914D01*
X181148628Y-183185771D01*
X183077200Y-183614342D02*
X182934342Y-183685771D01*
X182648628Y-183685771D01*
X182505771Y-183614342D01*
X182434342Y-183471485D01*
X182434342Y-182900057D01*
X182505771Y-182757200D01*
X182648628Y-182685771D01*
X182934342Y-182685771D01*
X183077200Y-182757200D01*
X183148628Y-182900057D01*
X183148628Y-183042914D01*
X182434342Y-183185771D01*
X183577200Y-182685771D02*
X184148628Y-182685771D01*
X183791485Y-182185771D02*
X183791485Y-183471485D01*
X183862914Y-183614342D01*
X184005771Y-183685771D01*
X184148628Y-183685771D01*
X184648628Y-183542914D02*
X184720057Y-183614342D01*
X184648628Y-183685771D01*
X184577200Y-183614342D01*
X184648628Y-183542914D01*
X184648628Y-183685771D01*
X184648628Y-182757200D02*
X184720057Y-182828628D01*
X184648628Y-182900057D01*
X184577200Y-182828628D01*
X184648628Y-182757200D01*
X184648628Y-182900057D01*
D10*
D11*
X197002200Y-191507200D02*
X197002200Y-194507200D01*
D10*
D11*
X261002200Y-191507200D02*
X261002200Y-198007200D01*
D14*
X107281380Y85703433D02*
X107281380Y85712957D01*
X107279000Y85717719D01*
X107276619Y85720100D01*
X107269476Y85724862D01*
X107259952Y85727243D01*
X107240904Y85727243D01*
X107236142Y85724862D01*
X107233761Y85722481D01*
X107231380Y85717719D01*
X107231380Y85708195D01*
X107233761Y85703433D01*
X107236142Y85701052D01*
X107240904Y85698671D01*
X107252809Y85698671D01*
X107257571Y85701052D01*
X107259952Y85703433D01*
X107262333Y85708195D01*
X107262333Y85717719D01*
X107259952Y85722481D01*
X107257571Y85724862D01*
X107252809Y85727243D01*
X107281380Y85667719D02*
X107281380Y85662957D01*
X107279000Y85658195D01*
X107276619Y85655814D01*
X107271857Y85653433D01*
X107262333Y85651052D01*
X107250428Y85651052D01*
X107240904Y85653433D01*
X107236142Y85655814D01*
X107233761Y85658195D01*
X107231380Y85662957D01*
X107231380Y85667719D01*
X107233761Y85672481D01*
X107236142Y85674862D01*
X107240904Y85677243D01*
X107250428Y85679624D01*
X107262333Y85679624D01*
X107271857Y85677243D01*
X107276619Y85674862D01*
X107279000Y85672481D01*
X107281380Y85667719D01*
X107236142Y85629624D02*
X107233761Y85627243D01*
X107231380Y85629624D01*
X107233761Y85632005D01*
X107236142Y85629624D01*
X107231380Y85629624D01*
X107281380Y85582005D02*
X107281380Y85605814D01*
X107257571Y85608195D01*
X107259952Y85605814D01*
X107262333Y85601052D01*
X107262333Y85589148D01*
X107259952Y85584386D01*
X107257571Y85582005D01*
X107252809Y85579624D01*
X107240904Y85579624D01*
X107236142Y85582005D01*
X107233761Y85584386D01*
X107231380Y85589148D01*
X107231380Y85601052D01*
X107233761Y85605814D01*
X107236142Y85608195D01*
X107281380Y85562957D02*
X107281380Y85529624D01*
X107231380Y85551052D01*
X107231380Y85508195D02*
X107231380Y85498671D01*
X107233761Y85493910D01*
X107236142Y85491529D01*
X107243285Y85486767D01*
X107252809Y85484386D01*
X107271857Y85484386D01*
X107276619Y85486767D01*
X107279000Y85489148D01*
X107281380Y85493910D01*
X107281380Y85503433D01*
X107279000Y85508195D01*
X107276619Y85510576D01*
X107271857Y85512957D01*
X107259952Y85512957D01*
X107255190Y85510576D01*
X107252809Y85508195D01*
X107250428Y85503433D01*
X107250428Y85493910D01*
X107252809Y85489148D01*
X107255190Y85486767D01*
X107259952Y85484386D01*
X107233761Y85460576D02*
X107231380Y85460576D01*
X107226619Y85462957D01*
X107224238Y85465338D01*
X107264714Y85379624D02*
X107231380Y85379624D01*
X107283761Y85391529D02*
X107248047Y85403433D01*
X107248047Y85372481D01*
X107231380Y85351052D02*
X107231380Y85341529D01*
X107233761Y85336767D01*
X107236142Y85334386D01*
X107243285Y85329624D01*
X107252809Y85327243D01*
X107271857Y85327243D01*
X107276619Y85329624D01*
X107279000Y85332005D01*
X107281380Y85336767D01*
X107281380Y85346290D01*
X107279000Y85351052D01*
X107276619Y85353433D01*
X107271857Y85355814D01*
X107259952Y85355814D01*
X107255190Y85353433D01*
X107252809Y85351052D01*
X107250428Y85346290D01*
X107250428Y85336767D01*
X107252809Y85332005D01*
X107255190Y85329624D01*
X107259952Y85327243D01*
X107236142Y85305814D02*
X107233761Y85303433D01*
X107231380Y85305814D01*
X107233761Y85308195D01*
X107236142Y85305814D01*
X107231380Y85305814D01*
X107281380Y85272481D02*
X107281380Y85267719D01*
X107279000Y85262957D01*
X107276619Y85260576D01*
X107271857Y85258195D01*
X107262333Y85255814D01*
X107250428Y85255814D01*
X107240904Y85258195D01*
X107236142Y85260576D01*
X107233761Y85262957D01*
X107231380Y85267719D01*
X107231380Y85272481D01*
X107233761Y85277243D01*
X107236142Y85279624D01*
X107240904Y85282005D01*
X107250428Y85284386D01*
X107262333Y85284386D01*
X107271857Y85282005D01*
X107276619Y85279624D01*
X107279000Y85277243D01*
X107281380Y85272481D01*
X107276619Y85236767D02*
X107279000Y85234386D01*
X107281380Y85229624D01*
X107281380Y85217719D01*
X107279000Y85212957D01*
X107276619Y85210576D01*
X107271857Y85208195D01*
X107267095Y85208195D01*
X107259952Y85210576D01*
X107231380Y85239148D01*
X107231380Y85208195D01*
X107276619Y85189148D02*
X107279000Y85186767D01*
X107281380Y85182005D01*
X107281380Y85170100D01*
X107279000Y85165338D01*
X107276619Y85162957D01*
X107271857Y85160576D01*
X107267095Y85160576D01*
X107259952Y85162957D01*
X107231380Y85191529D01*
X107231380Y85160576D01*
X107204000Y84835910D02*
G75*
G03X107204000Y84835910I-10000J0D01*
G01*
%TO.C,Cap_2*%
D10*
X92629047Y82503809D02*
X92343333Y82503809D01*
X92486190Y82503809D02*
X92486190Y83003809D01*
X92438571Y82932380D01*
X92390952Y82884761D01*
X92343333Y82860952D01*
X92819523Y82956190D02*
X92843333Y82980000D01*
X92890952Y83003809D01*
X93010000Y83003809D01*
X93057619Y82980000D01*
X93081428Y82956190D01*
X93105238Y82908571D01*
X93105238Y82860952D01*
X93081428Y82789523D01*
X92795714Y82503809D01*
X93105238Y82503809D01*
X93414761Y83003809D02*
X93462380Y83003809D01*
X93510000Y82980000D01*
X93533809Y82956190D01*
X93557619Y82908571D01*
X93581428Y82813333D01*
X93581428Y82694285D01*
X93557619Y82599047D01*
X93533809Y82551428D01*
X93510000Y82527619D01*
X93462380Y82503809D01*
X93414761Y82503809D01*
X93367142Y82527619D01*
X93343333Y82551428D01*
X93319523Y82599047D01*
X93295714Y82694285D01*
X93295714Y82813333D01*
X93319523Y82908571D01*
X93343333Y82956190D01*
X93367142Y82980000D01*
X93414761Y83003809D01*
X94010000Y83003809D02*
X93914761Y83003809D01*
X93867142Y82980000D01*
X93843333Y82956190D01*
X93795714Y82884761D01*
X93771904Y82789523D01*
X93771904Y82599047D01*
X93795714Y82551428D01*
X93819523Y82527619D01*
X93867142Y82503809D01*
X93962380Y82503809D01*
X94010000Y82527619D01*
X94033809Y82551428D01*
X94057619Y82599047D01*
X94057619Y82718095D01*
X94033809Y82765714D01*
X94010000Y82789523D01*
X93962380Y82813333D01*
X93867142Y82813333D01*
X93819523Y82789523D01*
X93795714Y82765714D01*
X93771904Y82718095D01*
X94152857Y82456190D02*
X94533809Y82456190D01*
X94867142Y82527619D02*
X94819523Y82503809D01*
X94724285Y82503809D01*
X94676666Y82527619D01*
X94652857Y82551428D01*
X94629047Y82599047D01*
X94629047Y82741904D01*
X94652857Y82789523D01*
X94676666Y82813333D01*
X94724285Y82837142D01*
X94819523Y82837142D01*
X94867142Y82813333D01*
X95295714Y82503809D02*
X95295714Y82765714D01*
X95271904Y82813333D01*
X95224285Y82837142D01*
X95129047Y82837142D01*
X95081428Y82813333D01*
X95295714Y82527619D02*
X95248095Y82503809D01*
X95129047Y82503809D01*
X95081428Y82527619D01*
X95057619Y82575238D01*
X95057619Y82622857D01*
X95081428Y82670476D01*
X95129047Y82694285D01*
X95248095Y82694285D01*
X95295714Y82718095D01*
X95533809Y82837142D02*
X95533809Y82337142D01*
X95533809Y82813333D02*
X95581428Y82837142D01*
X95676666Y82837142D01*
X95724285Y82813333D01*
X95748095Y82789523D01*
X95771904Y82741904D01*
X95771904Y82599047D01*
X95748095Y82551428D01*
X95724285Y82527619D01*
X95676666Y82503809D01*
X95581428Y82503809D01*
X95533809Y82527619D01*
X95867142Y82456190D02*
X96248095Y82456190D01*
X96343333Y82527619D02*
X96390952Y82503809D01*
X96486190Y82503809D01*
X96533809Y82527619D01*
X96557619Y82575238D01*
X96557619Y82599047D01*
X96533809Y82646666D01*
X96486190Y82670476D01*
X96414761Y82670476D01*
X96367142Y82694285D01*
X96343333Y82741904D01*
X96343333Y82765714D01*
X96367142Y82813333D01*
X96414761Y82837142D01*
X96486190Y82837142D01*
X96533809Y82813333D01*
X96771904Y82503809D02*
X96771904Y82837142D01*
X96771904Y82789523D02*
X96795714Y82813333D01*
X96843333Y82837142D01*
X96914761Y82837142D01*
X96962380Y82813333D01*
X96986190Y82765714D01*
X96986190Y82503809D01*
X96986190Y82765714D02*
X97010000Y82813333D01*
X97057619Y82837142D01*
X97129047Y82837142D01*
X97176666Y82813333D01*
X97200476Y82765714D01*
X97200476Y82503809D01*
X97652857Y82503809D02*
X97652857Y83003809D01*
X97652857Y82527619D02*
X97605238Y82503809D01*
X97510000Y82503809D01*
X97462380Y82527619D01*
X97438571Y82551428D01*
X97414761Y82599047D01*
X97414761Y82741904D01*
X97438571Y82789523D01*
X97462380Y82813333D01*
X97510000Y82837142D01*
X97605238Y82837142D01*
X97652857Y82813333D01*
%TO.C,Cap_4*%
X107926190Y80699047D02*
X107926190Y80413333D01*
X107926190Y80556190D02*
X107426190Y80556190D01*
X107497619Y80508571D01*
X107545238Y80460952D01*
X107569047Y80413333D01*
X107473809Y80889523D02*
X107450000Y80913333D01*
X107426190Y80960952D01*
X107426190Y81080000D01*
X107450000Y81127619D01*
X107473809Y81151428D01*
X107521428Y81175238D01*
X107569047Y81175238D01*
X107640476Y81151428D01*
X107926190Y80865714D01*
X107926190Y81175238D01*
X107426190Y81484761D02*
X107426190Y81532380D01*
X107450000Y81580000D01*
X107473809Y81603809D01*
X107521428Y81627619D01*
X107616666Y81651428D01*
X107735714Y81651428D01*
X107830952Y81627619D01*
X107878571Y81603809D01*
X107902380Y81580000D01*
X107926190Y81532380D01*
X107926190Y81484761D01*
X107902380Y81437142D01*
X107878571Y81413333D01*
X107830952Y81389523D01*
X107735714Y81365714D01*
X107616666Y81365714D01*
X107521428Y81389523D01*
X107473809Y81413333D01*
X107450000Y81437142D01*
X107426190Y81484761D01*
X107426190Y82080000D02*
X107426190Y81984761D01*
X107450000Y81937142D01*
X107473809Y81913333D01*
X107545238Y81865714D01*
X107640476Y81841904D01*
X107830952Y81841904D01*
X107878571Y81865714D01*
X107902380Y81889523D01*
X107926190Y81937142D01*
X107926190Y82032380D01*
X107902380Y82080000D01*
X107878571Y82103809D01*
X107830952Y82127619D01*
X107711904Y82127619D01*
X107664285Y82103809D01*
X107640476Y82080000D01*
X107616666Y82032380D01*
X107616666Y81937142D01*
X107640476Y81889523D01*
X107664285Y81865714D01*
X107711904Y81841904D01*
X107973809Y82222857D02*
X107973809Y82603809D01*
X107902380Y82937142D02*
X107926190Y82889523D01*
X107926190Y82794285D01*
X107902380Y82746666D01*
X107878571Y82722857D01*
X107830952Y82699047D01*
X107688095Y82699047D01*
X107640476Y82722857D01*
X107616666Y82746666D01*
X107592857Y82794285D01*
X107592857Y82889523D01*
X107616666Y82937142D01*
X107926190Y83365714D02*
X107664285Y83365714D01*
X107616666Y83341904D01*
X107592857Y83294285D01*
X107592857Y83199047D01*
X107616666Y83151428D01*
X107902380Y83365714D02*
X107926190Y83318095D01*
X107926190Y83199047D01*
X107902380Y83151428D01*
X107854761Y83127619D01*
X107807142Y83127619D01*
X107759523Y83151428D01*
X107735714Y83199047D01*
X107735714Y83318095D01*
X107711904Y83365714D01*
X107592857Y83603809D02*
X108092857Y83603809D01*
X107616666Y83603809D02*
X107592857Y83651428D01*
X107592857Y83746666D01*
X107616666Y83794285D01*
X107640476Y83818095D01*
X107688095Y83841904D01*
X107830952Y83841904D01*
X107878571Y83818095D01*
X107902380Y83794285D01*
X107926190Y83746666D01*
X107926190Y83651428D01*
X107902380Y83603809D01*
X107973809Y83937142D02*
X107973809Y84318095D01*
X107902380Y84413333D02*
X107926190Y84460952D01*
X107926190Y84556190D01*
X107902380Y84603809D01*
X107854761Y84627619D01*
X107830952Y84627619D01*
X107783333Y84603809D01*
X107759523Y84556190D01*
X107759523Y84484761D01*
X107735714Y84437142D01*
X107688095Y84413333D01*
X107664285Y84413333D01*
X107616666Y84437142D01*
X107592857Y84484761D01*
X107592857Y84556190D01*
X107616666Y84603809D01*
X107926190Y84841904D02*
X107592857Y84841904D01*
X107640476Y84841904D02*
X107616666Y84865714D01*
X107592857Y84913333D01*
X107592857Y84984761D01*
X107616666Y85032380D01*
X107664285Y85056190D01*
X107926190Y85056190D01*
X107664285Y85056190D02*
X107616666Y85080000D01*
X107592857Y85127619D01*
X107592857Y85199047D01*
X107616666Y85246666D01*
X107664285Y85270476D01*
X107926190Y85270476D01*
X107926190Y85722857D02*
X107426190Y85722857D01*
X107902380Y85722857D02*
X107926190Y85675238D01*
X107926190Y85580000D01*
X107902380Y85532380D01*
X107878571Y85508571D01*
X107830952Y85484761D01*
X107688095Y85484761D01*
X107640476Y85508571D01*
X107616666Y85532380D01*
X107592857Y85580000D01*
X107592857Y85675238D01*
X107616666Y85722857D01*
%TO.C,Cap_1*%
X102111190Y78729047D02*
X102111190Y78443333D01*
X102111190Y78586190D02*
X101611190Y78586190D01*
X101682619Y78538571D01*
X101730238Y78490952D01*
X101754047Y78443333D01*
X101658809Y78919523D02*
X101635000Y78943333D01*
X101611190Y78990952D01*
X101611190Y79110000D01*
X101635000Y79157619D01*
X101658809Y79181428D01*
X101706428Y79205238D01*
X101754047Y79205238D01*
X101825476Y79181428D01*
X102111190Y78895714D01*
X102111190Y79205238D01*
X101611190Y79514761D02*
X101611190Y79562380D01*
X101635000Y79610000D01*
X101658809Y79633809D01*
X101706428Y79657619D01*
X101801666Y79681428D01*
X101920714Y79681428D01*
X102015952Y79657619D01*
X102063571Y79633809D01*
X102087380Y79610000D01*
X102111190Y79562380D01*
X102111190Y79514761D01*
X102087380Y79467142D01*
X102063571Y79443333D01*
X102015952Y79419523D01*
X101920714Y79395714D01*
X101801666Y79395714D01*
X101706428Y79419523D01*
X101658809Y79443333D01*
X101635000Y79467142D01*
X101611190Y79514761D01*
X101611190Y80110000D02*
X101611190Y80014761D01*
X101635000Y79967142D01*
X101658809Y79943333D01*
X101730238Y79895714D01*
X101825476Y79871904D01*
X102015952Y79871904D01*
X102063571Y79895714D01*
X102087380Y79919523D01*
X102111190Y79967142D01*
X102111190Y80062380D01*
X102087380Y80110000D01*
X102063571Y80133809D01*
X102015952Y80157619D01*
X101896904Y80157619D01*
X101849285Y80133809D01*
X101825476Y80110000D01*
X101801666Y80062380D01*
X101801666Y79967142D01*
X101825476Y79919523D01*
X101849285Y79895714D01*
X101896904Y79871904D01*
X102158809Y80252857D02*
X102158809Y80633809D01*
X102087380Y80967142D02*
X102111190Y80919523D01*
X102111190Y80824285D01*
X102087380Y80776666D01*
X102063571Y80752857D01*
X102015952Y80729047D01*
X101873095Y80729047D01*
X101825476Y80752857D01*
X101801666Y80776666D01*
X101777857Y80824285D01*
X101777857Y80919523D01*
X101801666Y80967142D01*
X102111190Y81395714D02*
X101849285Y81395714D01*
X101801666Y81371904D01*
X101777857Y81324285D01*
X101777857Y81229047D01*
X101801666Y81181428D01*
X102087380Y81395714D02*
X102111190Y81348095D01*
X102111190Y81229047D01*
X102087380Y81181428D01*
X102039761Y81157619D01*
X101992142Y81157619D01*
X101944523Y81181428D01*
X101920714Y81229047D01*
X101920714Y81348095D01*
X101896904Y81395714D01*
X101777857Y81633809D02*
X102277857Y81633809D01*
X101801666Y81633809D02*
X101777857Y81681428D01*
X101777857Y81776666D01*
X101801666Y81824285D01*
X101825476Y81848095D01*
X101873095Y81871904D01*
X102015952Y81871904D01*
X102063571Y81848095D01*
X102087380Y81824285D01*
X102111190Y81776666D01*
X102111190Y81681428D01*
X102087380Y81633809D01*
X102158809Y81967142D02*
X102158809Y82348095D01*
X102087380Y82443333D02*
X102111190Y82490952D01*
X102111190Y82586190D01*
X102087380Y82633809D01*
X102039761Y82657619D01*
X102015952Y82657619D01*
X101968333Y82633809D01*
X101944523Y82586190D01*
X101944523Y82514761D01*
X101920714Y82467142D01*
X101873095Y82443333D01*
X101849285Y82443333D01*
X101801666Y82467142D01*
X101777857Y82514761D01*
X101777857Y82586190D01*
X101801666Y82633809D01*
X102111190Y82871904D02*
X101777857Y82871904D01*
X101825476Y82871904D02*
X101801666Y82895714D01*
X101777857Y82943333D01*
X101777857Y83014761D01*
X101801666Y83062380D01*
X101849285Y83086190D01*
X102111190Y83086190D01*
X101849285Y83086190D02*
X101801666Y83110000D01*
X101777857Y83157619D01*
X101777857Y83229047D01*
X101801666Y83276666D01*
X101849285Y83300476D01*
X102111190Y83300476D01*
X102111190Y83752857D02*
X101611190Y83752857D01*
X102087380Y83752857D02*
X102111190Y83705238D01*
X102111190Y83610000D01*
X102087380Y83562380D01*
X102063571Y83538571D01*
X102015952Y83514761D01*
X101873095Y83514761D01*
X101825476Y83538571D01*
X101801666Y83562380D01*
X101777857Y83610000D01*
X101777857Y83705238D01*
X101801666Y83752857D01*
%TO.C,Cap_3*%
X98876190Y76494047D02*
X98876190Y76208333D01*
X98876190Y76351190D02*
X98376190Y76351190D01*
X98447619Y76303571D01*
X98495238Y76255952D01*
X98519047Y76208333D01*
X98423809Y76684523D02*
X98400000Y76708333D01*
X98376190Y76755952D01*
X98376190Y76875000D01*
X98400000Y76922619D01*
X98423809Y76946428D01*
X98471428Y76970238D01*
X98519047Y76970238D01*
X98590476Y76946428D01*
X98876190Y76660714D01*
X98876190Y76970238D01*
X98376190Y77279761D02*
X98376190Y77327380D01*
X98400000Y77375000D01*
X98423809Y77398809D01*
X98471428Y77422619D01*
X98566666Y77446428D01*
X98685714Y77446428D01*
X98780952Y77422619D01*
X98828571Y77398809D01*
X98852380Y77375000D01*
X98876190Y77327380D01*
X98876190Y77279761D01*
X98852380Y77232142D01*
X98828571Y77208333D01*
X98780952Y77184523D01*
X98685714Y77160714D01*
X98566666Y77160714D01*
X98471428Y77184523D01*
X98423809Y77208333D01*
X98400000Y77232142D01*
X98376190Y77279761D01*
X98376190Y77875000D02*
X98376190Y77779761D01*
X98400000Y77732142D01*
X98423809Y77708333D01*
X98495238Y77660714D01*
X98590476Y77636904D01*
X98780952Y77636904D01*
X98828571Y77660714D01*
X98852380Y77684523D01*
X98876190Y77732142D01*
X98876190Y77827380D01*
X98852380Y77875000D01*
X98828571Y77898809D01*
X98780952Y77922619D01*
X98661904Y77922619D01*
X98614285Y77898809D01*
X98590476Y77875000D01*
X98566666Y77827380D01*
X98566666Y77732142D01*
X98590476Y77684523D01*
X98614285Y77660714D01*
X98661904Y77636904D01*
X98923809Y78017857D02*
X98923809Y78398809D01*
X98852380Y78732142D02*
X98876190Y78684523D01*
X98876190Y78589285D01*
X98852380Y78541666D01*
X98828571Y78517857D01*
X98780952Y78494047D01*
X98638095Y78494047D01*
X98590476Y78517857D01*
X98566666Y78541666D01*
X98542857Y78589285D01*
X98542857Y78684523D01*
X98566666Y78732142D01*
X98876190Y79160714D02*
X98614285Y79160714D01*
X98566666Y79136904D01*
X98542857Y79089285D01*
X98542857Y78994047D01*
X98566666Y78946428D01*
X98852380Y79160714D02*
X98876190Y79113095D01*
X98876190Y78994047D01*
X98852380Y78946428D01*
X98804761Y78922619D01*
X98757142Y78922619D01*
X98709523Y78946428D01*
X98685714Y78994047D01*
X98685714Y79113095D01*
X98661904Y79160714D01*
X98542857Y79398809D02*
X99042857Y79398809D01*
X98566666Y79398809D02*
X98542857Y79446428D01*
X98542857Y79541666D01*
X98566666Y79589285D01*
X98590476Y79613095D01*
X98638095Y79636904D01*
X98780952Y79636904D01*
X98828571Y79613095D01*
X98852380Y79589285D01*
X98876190Y79541666D01*
X98876190Y79446428D01*
X98852380Y79398809D01*
X98923809Y79732142D02*
X98923809Y80113095D01*
X98852380Y80208333D02*
X98876190Y80255952D01*
X98876190Y80351190D01*
X98852380Y80398809D01*
X98804761Y80422619D01*
X98780952Y80422619D01*
X98733333Y80398809D01*
X98709523Y80351190D01*
X98709523Y80279761D01*
X98685714Y80232142D01*
X98638095Y80208333D01*
X98614285Y80208333D01*
X98566666Y80232142D01*
X98542857Y80279761D01*
X98542857Y80351190D01*
X98566666Y80398809D01*
X98876190Y80636904D02*
X98542857Y80636904D01*
X98590476Y80636904D02*
X98566666Y80660714D01*
X98542857Y80708333D01*
X98542857Y80779761D01*
X98566666Y80827380D01*
X98614285Y80851190D01*
X98876190Y80851190D01*
X98614285Y80851190D02*
X98566666Y80875000D01*
X98542857Y80922619D01*
X98542857Y80994047D01*
X98566666Y81041666D01*
X98614285Y81065476D01*
X98876190Y81065476D01*
X98876190Y81517857D02*
X98376190Y81517857D01*
X98852380Y81517857D02*
X98876190Y81470238D01*
X98876190Y81375000D01*
X98852380Y81327380D01*
X98828571Y81303571D01*
X98780952Y81279761D01*
X98638095Y81279761D01*
X98590476Y81303571D01*
X98566666Y81327380D01*
X98542857Y81375000D01*
X98542857Y81470238D01*
X98566666Y81517857D01*
%TO.C,U102*%
X86372380Y83063809D02*
X86467619Y83063809D01*
X86515238Y83040000D01*
X86562857Y82992380D01*
X86586666Y82897142D01*
X86586666Y82730476D01*
X86562857Y82635238D01*
X86515238Y82587619D01*
X86467619Y82563809D01*
X86372380Y82563809D01*
X86324761Y82587619D01*
X86277142Y82635238D01*
X86253333Y82730476D01*
X86253333Y82897142D01*
X86277142Y82992380D01*
X86324761Y83040000D01*
X86372380Y83063809D01*
%TO.C,U26*%
X73612380Y95763809D02*
X73707619Y95763809D01*
X73755238Y95740000D01*
X73802857Y95692380D01*
X73826666Y95597142D01*
X73826666Y95430476D01*
X73802857Y95335238D01*
X73755238Y95287619D01*
X73707619Y95263809D01*
X73612380Y95263809D01*
X73564761Y95287619D01*
X73517142Y95335238D01*
X73493333Y95430476D01*
X73493333Y95597142D01*
X73517142Y95692380D01*
X73564761Y95740000D01*
X73612380Y95763809D01*
%TO.C,U8*%
X76152380Y95763809D02*
X76247619Y95763809D01*
X76295238Y95740000D01*
X76342857Y95692380D01*
X76366666Y95597142D01*
X76366666Y95430476D01*
X76342857Y95335238D01*
X76295238Y95287619D01*
X76247619Y95263809D01*
X76152380Y95263809D01*
X76104761Y95287619D01*
X76057142Y95335238D01*
X76033333Y95430476D01*
X76033333Y95597142D01*
X76057142Y95692380D01*
X76104761Y95740000D01*
X76152380Y95763809D01*
%TO.C,U33*%
X76152380Y83063809D02*
X76247619Y83063809D01*
X76295238Y83040000D01*
X76342857Y82992380D01*
X76366666Y82897142D01*
X76366666Y82730476D01*
X76342857Y82635238D01*
X76295238Y82587619D01*
X76247619Y82563809D01*
X76152380Y82563809D01*
X76104761Y82587619D01*
X76057142Y82635238D01*
X76033333Y82730476D01*
X76033333Y82897142D01*
X76057142Y82992380D01*
X76104761Y83040000D01*
X76152380Y83063809D01*
%TO.C,U31*%
X81232380Y75443809D02*
X81327619Y75443809D01*
X81375238Y75420000D01*
X81422857Y75372380D01*
X81446666Y75277142D01*
X81446666Y75110476D01*
X81422857Y75015238D01*
X81375238Y74967619D01*
X81327619Y74943809D01*
X81232380Y74943809D01*
X81184761Y74967619D01*
X81137142Y75015238D01*
X81113333Y75110476D01*
X81113333Y75277142D01*
X81137142Y75372380D01*
X81184761Y75420000D01*
X81232380Y75443809D01*
%TO.C,U25*%
X73672380Y78033809D02*
X73767619Y78033809D01*
X73815238Y78010000D01*
X73862857Y77962380D01*
X73886666Y77867142D01*
X73886666Y77700476D01*
X73862857Y77605238D01*
X73815238Y77557619D01*
X73767619Y77533809D01*
X73672380Y77533809D01*
X73624761Y77557619D01*
X73577142Y77605238D01*
X73553333Y77700476D01*
X73553333Y77867142D01*
X73577142Y77962380D01*
X73624761Y78010000D01*
X73672380Y78033809D01*
%TO.C,U20*%
X83832380Y78033809D02*
X83927619Y78033809D01*
X83975238Y78010000D01*
X84022857Y77962380D01*
X84046666Y77867142D01*
X84046666Y77700476D01*
X84022857Y77605238D01*
X83975238Y77557619D01*
X83927619Y77533809D01*
X83832380Y77533809D01*
X83784761Y77557619D01*
X83737142Y77605238D01*
X83713333Y77700476D01*
X83713333Y77867142D01*
X83737142Y77962380D01*
X83784761Y78010000D01*
X83832380Y78033809D01*
%TO.C,U19*%
X91392380Y83063809D02*
X91487619Y83063809D01*
X91535238Y83040000D01*
X91582857Y82992380D01*
X91606666Y82897142D01*
X91606666Y82730476D01*
X91582857Y82635238D01*
X91535238Y82587619D01*
X91487619Y82563809D01*
X91392380Y82563809D01*
X91344761Y82587619D01*
X91297142Y82635238D01*
X91273333Y82730476D01*
X91273333Y82897142D01*
X91297142Y82992380D01*
X91344761Y83040000D01*
X91392380Y83063809D01*
%TO.C,U30*%
X76152380Y77983809D02*
X76247619Y77983809D01*
X76295238Y77960000D01*
X76342857Y77912380D01*
X76366666Y77817142D01*
X76366666Y77650476D01*
X76342857Y77555238D01*
X76295238Y77507619D01*
X76247619Y77483809D01*
X76152380Y77483809D01*
X76104761Y77507619D01*
X76057142Y77555238D01*
X76033333Y77650476D01*
X76033333Y77817142D01*
X76057142Y77912380D01*
X76104761Y77960000D01*
X76152380Y77983809D01*
%TO.C,U28*%
X73672380Y75493809D02*
X73767619Y75493809D01*
X73815238Y75470000D01*
X73862857Y75422380D01*
X73886666Y75327142D01*
X73886666Y75160476D01*
X73862857Y75065238D01*
X73815238Y75017619D01*
X73767619Y74993809D01*
X73672380Y74993809D01*
X73624761Y75017619D01*
X73577142Y75065238D01*
X73553333Y75160476D01*
X73553333Y75327142D01*
X73577142Y75422380D01*
X73624761Y75470000D01*
X73672380Y75493809D01*
%TO.C,U27*%
X83832380Y75493809D02*
X83927619Y75493809D01*
X83975238Y75470000D01*
X84022857Y75422380D01*
X84046666Y75327142D01*
X84046666Y75160476D01*
X84022857Y75065238D01*
X83975238Y75017619D01*
X83927619Y74993809D01*
X83832380Y74993809D01*
X83784761Y75017619D01*
X83737142Y75065238D01*
X83713333Y75160476D01*
X83713333Y75327142D01*
X83737142Y75422380D01*
X83784761Y75470000D01*
X83832380Y75493809D01*
%TO.C,U24*%
X76152380Y72903809D02*
X76247619Y72903809D01*
X76295238Y72880000D01*
X76342857Y72832380D01*
X76366666Y72737142D01*
X76366666Y72570476D01*
X76342857Y72475238D01*
X76295238Y72427619D01*
X76247619Y72403809D01*
X76152380Y72403809D01*
X76104761Y72427619D01*
X76057142Y72475238D01*
X76033333Y72570476D01*
X76033333Y72737142D01*
X76057142Y72832380D01*
X76104761Y72880000D01*
X76152380Y72903809D01*
%TO.C,U23*%
X86312380Y75443809D02*
X86407619Y75443809D01*
X86455238Y75420000D01*
X86502857Y75372380D01*
X86526666Y75277142D01*
X86526666Y75110476D01*
X86502857Y75015238D01*
X86455238Y74967619D01*
X86407619Y74943809D01*
X86312380Y74943809D01*
X86264761Y74967619D01*
X86217142Y75015238D01*
X86193333Y75110476D01*
X86193333Y75277142D01*
X86217142Y75372380D01*
X86264761Y75420000D01*
X86312380Y75443809D01*
%TO.C,U102*%
X86372380Y80573809D02*
X86467619Y80573809D01*
X86515238Y80550000D01*
X86562857Y80502380D01*
X86586666Y80407142D01*
X86586666Y80240476D01*
X86562857Y80145238D01*
X86515238Y80097619D01*
X86467619Y80073809D01*
X86372380Y80073809D01*
X86324761Y80097619D01*
X86277142Y80145238D01*
X86253333Y80240476D01*
X86253333Y80407142D01*
X86277142Y80502380D01*
X86324761Y80550000D01*
X86372380Y80573809D01*
%TO.C,U21*%
X76212380Y80573809D02*
X76307619Y80573809D01*
X76355238Y80550000D01*
X76402857Y80502380D01*
X76426666Y80407142D01*
X76426666Y80240476D01*
X76402857Y80145238D01*
X76355238Y80097619D01*
X76307619Y80073809D01*
X76212380Y80073809D01*
X76164761Y80097619D01*
X76117142Y80145238D01*
X76093333Y80240476D01*
X76093333Y80407142D01*
X76117142Y80502380D01*
X76164761Y80550000D01*
X76212380Y80573809D01*
%TO.C,U18*%
X83862380Y80343809D02*
X83957619Y80343809D01*
X84005238Y80320000D01*
X84052857Y80272380D01*
X84076666Y80177142D01*
X84076666Y80010476D01*
X84052857Y79915238D01*
X84005238Y79867619D01*
X83957619Y79843809D01*
X83862380Y79843809D01*
X83814761Y79867619D01*
X83767142Y79915238D01*
X83743333Y80010476D01*
X83743333Y80177142D01*
X83767142Y80272380D01*
X83814761Y80320000D01*
X83862380Y80343809D01*
%TO.C,U17*%
X81292380Y78033809D02*
X81387619Y78033809D01*
X81435238Y78010000D01*
X81482857Y77962380D01*
X81506666Y77867142D01*
X81506666Y77700476D01*
X81482857Y77605238D01*
X81435238Y77557619D01*
X81387619Y77533809D01*
X81292380Y77533809D01*
X81244761Y77557619D01*
X81197142Y77605238D01*
X81173333Y77700476D01*
X81173333Y77867142D01*
X81197142Y77962380D01*
X81244761Y78010000D01*
X81292380Y78033809D01*
%TO.C,U16*%
X91452380Y80573809D02*
X91547619Y80573809D01*
X91595238Y80550000D01*
X91642857Y80502380D01*
X91666666Y80407142D01*
X91666666Y80240476D01*
X91642857Y80145238D01*
X91595238Y80097619D01*
X91547619Y80073809D01*
X91452380Y80073809D01*
X91404761Y80097619D01*
X91357142Y80145238D01*
X91333333Y80240476D01*
X91333333Y80407142D01*
X91357142Y80502380D01*
X91404761Y80550000D01*
X91452380Y80573809D01*
%TO.C,U15*%
X93992380Y83113809D02*
X94087619Y83113809D01*
X94135238Y83090000D01*
X94182857Y83042380D01*
X94206666Y82947142D01*
X94206666Y82780476D01*
X94182857Y82685238D01*
X94135238Y82637619D01*
X94087619Y82613809D01*
X93992380Y82613809D01*
X93944761Y82637619D01*
X93897142Y82685238D01*
X93873333Y82780476D01*
X93873333Y82947142D01*
X93897142Y83042380D01*
X93944761Y83090000D01*
X93992380Y83113809D01*
%TO.C,U14*%
X81292380Y83113809D02*
X81387619Y83113809D01*
X81435238Y83090000D01*
X81482857Y83042380D01*
X81506666Y82947142D01*
X81506666Y82780476D01*
X81482857Y82685238D01*
X81435238Y82637619D01*
X81387619Y82613809D01*
X81292380Y82613809D01*
X81244761Y82637619D01*
X81197142Y82685238D01*
X81173333Y82780476D01*
X81173333Y82947142D01*
X81197142Y83042380D01*
X81244761Y83090000D01*
X81292380Y83113809D01*
%TO.C,U13*%
X86372380Y78033809D02*
X86467619Y78033809D01*
X86515238Y78010000D01*
X86562857Y77962380D01*
X86586666Y77867142D01*
X86586666Y77700476D01*
X86562857Y77605238D01*
X86515238Y77557619D01*
X86467619Y77533809D01*
X86372380Y77533809D01*
X86324761Y77557619D01*
X86277142Y77605238D01*
X86253333Y77700476D01*
X86253333Y77867142D01*
X86277142Y77962380D01*
X86324761Y78010000D01*
X86372380Y78033809D01*
%TO.C,U12*%
X93992380Y80573809D02*
X94087619Y80573809D01*
X94135238Y80550000D01*
X94182857Y80502380D01*
X94206666Y80407142D01*
X94206666Y80240476D01*
X94182857Y80145238D01*
X94135238Y80097619D01*
X94087619Y80073809D01*
X93992380Y80073809D01*
X93944761Y80097619D01*
X93897142Y80145238D01*
X93873333Y80240476D01*
X93873333Y80407142D01*
X93897142Y80502380D01*
X93944761Y80550000D01*
X93992380Y80573809D01*
%TO.C,U11*%
X81292380Y80573809D02*
X81387619Y80573809D01*
X81435238Y80550000D01*
X81482857Y80502380D01*
X81506666Y80407142D01*
X81506666Y80240476D01*
X81482857Y80145238D01*
X81435238Y80097619D01*
X81387619Y80073809D01*
X81292380Y80073809D01*
X81244761Y80097619D01*
X81197142Y80145238D01*
X81173333Y80240476D01*
X81173333Y80407142D01*
X81197142Y80502380D01*
X81244761Y80550000D01*
X81292380Y80573809D01*
%TO.C,U10*%
X91452380Y78033809D02*
X91547619Y78033809D01*
X91595238Y78010000D01*
X91642857Y77962380D01*
X91666666Y77867142D01*
X91666666Y77700476D01*
X91642857Y77605238D01*
X91595238Y77557619D01*
X91547619Y77533809D01*
X91452380Y77533809D01*
X91404761Y77557619D01*
X91357142Y77605238D01*
X91333333Y77700476D01*
X91333333Y77867142D01*
X91357142Y77962380D01*
X91404761Y78010000D01*
X91452380Y78033809D01*
%TO.C,U9*%
X76212380Y75493809D02*
X76307619Y75493809D01*
X76355238Y75470000D01*
X76402857Y75422380D01*
X76426666Y75327142D01*
X76426666Y75160476D01*
X76402857Y75065238D01*
X76355238Y75017619D01*
X76307619Y74993809D01*
X76212380Y74993809D01*
X76164761Y75017619D01*
X76117142Y75065238D01*
X76093333Y75160476D01*
X76093333Y75327142D01*
X76117142Y75422380D01*
X76164761Y75470000D01*
X76212380Y75493809D01*
%TO.C,U7*%
X76152380Y103383809D02*
X76247619Y103383809D01*
X76295238Y103360000D01*
X76342857Y103312380D01*
X76366666Y103217142D01*
X76366666Y103050476D01*
X76342857Y102955238D01*
X76295238Y102907619D01*
X76247619Y102883809D01*
X76152380Y102883809D01*
X76104761Y102907619D01*
X76057142Y102955238D01*
X76033333Y103050476D01*
X76033333Y103217142D01*
X76057142Y103312380D01*
X76104761Y103360000D01*
X76152380Y103383809D01*
%TO.C,U6*%
X83832380Y103433809D02*
X83927619Y103433809D01*
X83975238Y103410000D01*
X84022857Y103362380D01*
X84046666Y103267142D01*
X84046666Y103100476D01*
X84022857Y103005238D01*
X83975238Y102957619D01*
X83927619Y102933809D01*
X83832380Y102933809D01*
X83784761Y102957619D01*
X83737142Y103005238D01*
X83713333Y103100476D01*
X83713333Y103267142D01*
X83737142Y103362380D01*
X83784761Y103410000D01*
X83832380Y103433809D01*
%TO.C,U5*%
X78692380Y103383809D02*
X78787619Y103383809D01*
X78835238Y103360000D01*
X78882857Y103312380D01*
X78906666Y103217142D01*
X78906666Y103050476D01*
X78882857Y102955238D01*
X78835238Y102907619D01*
X78787619Y102883809D01*
X78692380Y102883809D01*
X78644761Y102907619D01*
X78597142Y102955238D01*
X78573333Y103050476D01*
X78573333Y103217142D01*
X78597142Y103312380D01*
X78644761Y103360000D01*
X78692380Y103383809D01*
%TO.C,U4*%
X86312380Y103383809D02*
X86407619Y103383809D01*
X86455238Y103360000D01*
X86502857Y103312380D01*
X86526666Y103217142D01*
X86526666Y103050476D01*
X86502857Y102955238D01*
X86455238Y102907619D01*
X86407619Y102883809D01*
X86312380Y102883809D01*
X86264761Y102907619D01*
X86217142Y102955238D01*
X86193333Y103050476D01*
X86193333Y103217142D01*
X86217142Y103312380D01*
X86264761Y103360000D01*
X86312380Y103383809D01*
%TO.C,U3*%
X88912380Y103433809D02*
X89007619Y103433809D01*
X89055238Y103410000D01*
X89102857Y103362380D01*
X89126666Y103267142D01*
X89126666Y103100476D01*
X89102857Y103005238D01*
X89055238Y102957619D01*
X89007619Y102933809D01*
X88912380Y102933809D01*
X88864761Y102957619D01*
X88817142Y103005238D01*
X88793333Y103100476D01*
X88793333Y103267142D01*
X88817142Y103362380D01*
X88864761Y103410000D01*
X88912380Y103433809D01*
%TO.C,U2*%
X81312380Y103383809D02*
X81407619Y103383809D01*
X81455238Y103360000D01*
X81502857Y103312380D01*
X81526666Y103217142D01*
X81526666Y103050476D01*
X81502857Y102955238D01*
X81455238Y102907619D01*
X81407619Y102883809D01*
X81312380Y102883809D01*
X81264761Y102907619D01*
X81217142Y102955238D01*
X81193333Y103050476D01*
X81193333Y103217142D01*
X81217142Y103312380D01*
X81264761Y103360000D01*
X81312380Y103383809D01*
%TO.C,U1*%
X91312380Y103383809D02*
X91407619Y103383809D01*
X91455238Y103360000D01*
X91502857Y103312380D01*
X91526666Y103217142D01*
X91526666Y103050476D01*
X91502857Y102955238D01*
X91455238Y102907619D01*
X91407619Y102883809D01*
X91312380Y102883809D01*
X91264761Y102907619D01*
X91217142Y102955238D01*
X91193333Y103050476D01*
X91193333Y103217142D01*
X91217142Y103312380D01*
X91264761Y103360000D01*
X91312380Y103383809D01*
%TD*%
M02*
